<?xml version="1.0" encoding="UTF-8"?>
<svg id="_Слой_2" data-name="Слой 2" xmlns="http://www.w3.org/2000/svg" viewBox="0 0 397.83 430.05">
  <g id="_Верблюд" data-name="Верблюд">
    <g>
      <g>
        <path d="M269.09,176.23c.13.05.09.64.43.74.85.25,2.92-.63,3.89-.21,1.55.67,2.77,3.69,3.95,4.49,3.19,3.22,2.26,5.8,3.11,10.02l-.92.46.47,1.39c-1.43.37-.42,1.9-.77,3.53-.46,2.17-2.93,5.65-3,5.98-.14.59.18,1.46-.09,1.92-.36.62-3.61.86-4.48,1.33-.59.32-2.23,2.12-2.78,2.4-1.42.73-3,.86-3.37-.98.16-1.07,1.84-1.88,2.1-2.31,4.28-7.01,3.24-13.91,2.05-22.02-1.81-2.31-4.59-3.63-3.75-6.89,1.03.09,2.17-.26,3.16.16Z"/>
        <path d="M237.27,186.55c.61.4,2.01,2.45,2.61,2.95,2.24,1.87,3.6,1.37,5.05,5.06s.52,10.85-1.73,14.25c-.32.49-1.14.7-1.54,1.27-.54.76-.83,2.03-1.13,2.38-.18.2-4.11,2.35-4.7,2.61-.24.11-1.74.64-2.08.76-1.3.47-2.07.53-3.39.04-.48-2.25,2.07-2.8,2.65-3.42.46-.5.72-1.23,1.11-1.84.34-.53,1.88-2.52,2.11-3.12.63-1.64.89-11.47.1-12.89-.38-.68-2.47-2.11-3.03-2.72-.98-1.07-1.65-2.79-3.44-3.81-1.15-.66-4.6-.87-4.12-2.78.51-2.04,4.69-.66,5.92-.41.56.11,1.23-.32,1.69-.22.22.05,3.74,1.8,3.93,1.92Z"/>
        <path d="M292.52,179.46c.13.07,1.19,1.93,1.59,2.41.79.93,1.29,1.7,1.93,2.49.88,1.07,3.26,2.47,3.49,3.75.4,2.22-.56,2.55-.81,4.17-.2,1.25-.33,2.92-.45,3.8-.52,3.78-.5,6.75-3.47,9.8-1.71,1.75-4.65,3.25-6.13,4.17-1.94,1.19-.78,1-1.23,1.58-.1.13-2.91.05-3.41.17-.93.22-1.23,1.7-3.1.77-1.19-1.29,5.12-7.31,6.06-8.65,3.44-4.87,5.35-12.03,3.89-17.91-.32-1.29-2.88-5.89-.76-6.59.53-.18,1.94-.23,2.41.04Z"/>
        <path d="M255.35,182.93c1.47,1.72.9,1.83,1.66,3.13.43.73,2.81,1.83,3.88,4.21,2.26,5.06-.65,14.89-4.31,18.83-.19.2-3.84,2.83-4.07,2.93-.45.19-4.16,1.09-4.52.99l-.78-1.34c1.55.01.96-1.15,1.38-1.67.49-.6,3.53-2.87,3.7-3.12s-.33-1-.07-1.64c.24-.6,1.06-1.04,1.23-1.54,1.34-3.9.52-8.63.73-12.44.01-.23-.63-.19-.67-.31-.53-1.4-2.33-5.28-3.17-6.29-1.42-1.71-5.37-1.58-6.4-4.6.03-.61,3.01-1.05,3.52-.97.55.08,1.2,1.2,2.08,1.49,2.52.83,3.24-.63,5.79,2.36Z"/>
        <path d="M273.97,128.22c.32.23,3.46-.37,3.86-.28.63.15.73,1.27,1.21,1.56.71.44,1.95.13,2.84.43,1.19.4,5.6,5.3,6.25,6.87.73,1.77,1.1,7.58.71,9.52-.1.5-1.38,5.02-1.48,5.28-.14.34-4.09,5.55-4.45,5.76-1.22.71-3.04.67-4.19,1.81-.81.25-1.84-2-1.55-2.28.74.41,3.8-2.48,4.05-2.92.13-.22-.12-.75.06-1.14,3.47-7.22,3.36-16.19-4.52-20.23-1.27-.65-10.92-3.55-5.68-5.44,2.27-.82,2.2.56,2.89,1.06Z"/>
        <path d="M201.25,81.64c.52.23,2.82,4.43,2.85,5.32.25,3.09-1.84,3.86-.77,7.32.39,1.26,1.89,2.31,2.46,3.62.49,1.12.56,3.25.81,3.64.21.32,1.55,1.84,1.71,2.34,1.07,3.19,1.03,8.35-.68,11.34-.29.5-4.66,4.2-5.15,4.25l-1.66-.69c-1.41-1.75,2.27-5.44,3.01-7.29.28-.71.88-5.61.78-6.28-.28-1.87-3.96-8.39-5.59-9.36-.75-.45-2.95.29-3.12-1.92-.12-1.55,1.68-1.28,2.06-1.7.09-.1-.39-.72.06-1.09.19-.15,2.07-.22,2.61-1.16l-1.05-7.68c.28-.84.91-.98,1.66-.64Z"/>
        <path d="M267.65,136.92c1.66,1.04,5.37,4.94,6.17,6.69s.83,3.82,1.97,5.54c-1.51.31-.3,1.56-.78,3.1-1.07,3.42-4.38,6.66-7.44,8.38l-.47-1.41-.47,1.41c-1.52-1.87.28-3.81,1.24-5.33.29-.46,1.03-.62,1.19-.89,2.12-3.59.03-10.49-2.86-13.27-.25-.24-2.03-1.78-2.38-2.05-2.27-1.74-6.65-1.61-5.86-5.14,1.28-.37,2.2.65,3.17.85,2.23.46,4.26.72,6.5,2.12Z"/>
        <path d="M328.04,256.26c.69,1.03.45,2.08.9,3.11.34.78,7.7,7.15,8.85,7.98s3.74.9,3.45,2.93c-.54,3.71-3.43.48-4.45-.06-.9-.47-3.11-.98-3.62-1.43-1.2-1.08-.02-.4-2.13-1.69-1.61-.98-3.73-3.11-4.95-4.46-.68-.75-1.53.2-.74-1.78-3.25-1.79-3-7-3.67-10.35,1.28.39,1.46-1.1,2.25-1.22,2.54-.39,2.03,4.33,2.96,6.03.32.6,1.01.7,1.16.92Z"/>
        <path d="M333.51,185.26c-.2-.11-3.05-3-3.13-3.21-1.09-2.58.1-4.73,2.96-3.39.18.09,3.16,2.15,3.32,2.29,2.98,2.7.79,6.49-3.14,4.31Z"/>
        <path d="M342.57,278.73c.43.46.31,1.22.93,1.77.69.61,2.15.74,2.41.97.08.07-.23.64-.12.9.47,1.05,1.22,2.02,1.12,3.25-.23.22-3.01-.38-3.58-.64-.75-.34-1.02-1.74-1.25-1.98-.99-1.04-5.41-4.32-4.78-5.78.2-.47,1.32-1.44,1.89-1.44.35,0,2.93,2.49,3.38,2.96Z"/>
        <path d="M302.31,333.03c1.61.57,1.14,4.12.6,5.48-2.17.1-7.44-4.35-3.75-5.43.46-.14,2.75-.19,3.15-.06Z"/>
        <path d="M268.69,403.63c1.74,1.56-2.41,4.75-2.98,1.88-.45-2.26,2.24-2.55,2.98-1.88Z"/>
      </g>
      <g>
        <path d="M119.21,2.63c1.88,1.15,1.89,1.04,3.7,2.61,1.43,1.24,2.53.23,3.72.47,1.96.4,4.46,1.62,6.36,2.32.16.84-3.47.62-2.33,1.86.27.3,1.7.03,2.03.16.43.18,2.52,1.43,2.88,1.72.5.39,4.6,5.24,4.71,5.59.58,1.92-.16,4.28.71,6.29l-.97.51.55,1.1c4.86-.56,9.19.09,11.94,4.51-1.13,1.68-.12,3.07-.32,4.66-.07.53-.58.93-.66,1.46-.5,3.64-1.04,10.26-2.26,12.94-1,2.19-1.99,3.25-4.12,4.38,1.16,1.3.41,2.6.62,3.59.47,2.19,2.56,2.51,2.7,5.3.1,1.88-.76,2.45-.93,3.75-.19,1.45.26,3.32-.04,4.57-.09.38-.91.15-.98,1.01-.2,2.49,1.83,5.11.74,7.73-.22.52-1.07.99-1.42,1.86-.71,1.8-.62,2.61-2.07,4.49-.45.58-1.47.52-1.68,1.58-.22,1.11.68,3.28.62,4.93-.05,1.3-.62,5.03-1.28,6.01-.31.46-2.47,1.13-2.72,1.33-.11.09.41.76-.27,1.34-.9.76-2.72.92-3.33,1.39-3.82,2.92.06,8.41-2.7,11.59-.19.22-3.42,2.33-3.84,2.51-2.47,1.05-5.54-1.29-7.21,1.65-.95,1.67.07,3.53-.52,5.32h1.41c-.47,1.08-.25,2.37-.49,3.42-.08.36-.73.35-.76.43-.11.32.34.85.11,1.3-.27.55-1.11.65-1.53,1.11-.2.21-.04.91-.23,1.11-.22.22-5.26,1.63-5.98,1.07-.18,3.33-1.71,7.57,1.56,10.14,2.25,1.77,7.99,3.67,10.83,3.47,2.39-.17,7.99-1.33,10.17-2.42.48-.24.52-.79.95-1.04,3.21-1.82,7.44-4.13,8.32-7.82l.93.48c-.86-1.81.52-1.45,1.26-2.73,1.57-2.71,2.36-6.11,3.7-8.49.21-.38.96-.4,1.08-.56.28-.37-.64-1.37-.37-1.73.14-.19.91-.15,1.19-.73.35-.71.81-5.32,1.12-6.5.1-.38.85-.3.93-.65.64-2.99,0-7.87,1.26-11.39.43-1.21,1.42-1.37,1.46-1.47.1-.27-.61-1.47-.39-2.43.15-.63,2.17-6.53,2.71-7.78,2.68-6.26,7.7-11.02,10.88-17,1.56-2.94,1.73-5.11,2.96-7.66.2-.41,1.22-.37,1-2.09-.32-2.42-1.59-2.43-2.75-3.72-.59-.66-.85-1.69-1.38-2.17-.23-.21-.99-.03-1.14-.2-1.04-1.21-.03-6.84,1.27-8.05.99-.91.43.01,1.27-1.24,1.19-1.77,3.84-2.57,5.55-3.75l.69.93c-.41-1.22,2.71-1.25,3.72-1.24,2.81,0,5.77,1.66,8.54,1.95,4.14-3.6,8.17-5.49,13.82-5.8,3.13-.17,7.29,1.58,9.99,3.06.33.18.31,1.02.76,1.1.14.02,2.62-.15,2.75-.19,1.88-.44,3.7-2.16,6.18-2.02,1.24.07,5.49,2.25,6.24,3.35,1.02,1.5.52,4.24-.45,5.58-.12.17-2.96,1.63-3.29,2.5-.27,2.63.22,5.25.3,7.85.04,1.14-.6,2.57-.56,3.08.2,2.14,1.69,4.97,3.07,6.62,2.55,3.03,6.07,4.58,10.03,4.33,2.2-.14,5.49-2.28,7.22-3.76,1.13-.97,3.64-3.81,4.55-5.04,1.65-2.21,4.57-7.85,5.5-10.66.79-2.39,2.33-7.21-1.12-7.45l.47-.92c-1.81.65-3.1-3.71-2.69-4.92.08-.23.58-.24.77-.59,1.16-2.12,1-2.2,3.09-3.89.43-.34,1.03,0,1.09-.06.3-.3.19-1.2.67-1.66.25-.23,6.24-1.94,6.58-1.91.79.06,6.29,2.31,7.41,2.78.71.29.57,1.21,2.5,1.15s1.94-.89,3.08-1.42c2.19-1.03,5.05-2.11,7.91-2.38.56-.05,3.06-.04,3.52.02,1.03.15,4.93,1.8,5.83,2.35,1.6.98,1.62,4.23,4.76,3.7,4.77-.81,11.59-4.81,14.47,2.14l.84-.39,1.79,2.96c.07.97-.98,1.08-1.1,1.31-8.24,15.76-.04,30.98,6.2,45.73.24.58.22,1.26.22,1.88l4.57-.34c.84.79,2.12,2.19,2.92,2.85,1.41,1.15,4.29,2.93,5.61,4.29.59.6.34,1.59,1.26,2.01,3.58,1.67,12.1-.32,16.75,1.04.72.21,5.3,2.41,5.67,2.76,1.52,1.42,0,.66,2.51,2.15,1.02.61,1.52,1.9,2.74,2.44s4.05.18,5.69.36c4.51.5,11.31,1.67,15.03,4.65,1.01.81,5.68,5.52,6.38,6.48,1.14,1.56-.19,1.06,1.56,2.02,1.18.65,1.29,2.98,1.77,4.26,1.52,4.03,2.12,5.41,1.2,9.81-2.71,12.95-4.95,18.5-17.4,25.39-1.1.61-2.99.82-4.03,1.5-.97.63-.3,2.02-2.14.88.23,1.77-1.61,2.64-2.34,3.64-3.34,4.62-1.83,11.36.33,16.85,1.99,5.06,5.8,11.07,8.45,15.89,1.85,3.37,5.93,9.28,6.59,12.67.16.85-.38,1.64-.28,2.16.11.59,1.08.92,1.19,1.51,1.36,6.99.41,12.78-.34,19.63-.6,5.48.05,10.39-.72,15.89-.69,4.89-2.02,12.1-1.9,16.46.05,1.86.69,3.13.75,4.18.09,1.59-.98,3-.35,6.41,1.98,10.64,8.98,15.37,12.12,24.38.71,2.05,2.13,7.14.35,8.05,1.01,1.51.23,5.67-.61,7.12-.23.39-1.4.49-1.63,1.86-.29,1.69,1.05,2.58-1.03,4.58l1.34,2.19c-.51,3.09-2.87,7.02-3.15,10.04-.2,2.18.85,3.58.83,5.09-.08,4.37-1.14,9.33-1.73,13.66-.31,2.26-1.12,7.37-1,9.25.07,1.04,2.21,10.61,2.56,11.06.37.47,1.62-.46,1.86,1.77.5,4.57-2.63,10.18-.87,14.53,2.01,4.98,4.06,8.25,3.68,14.34-.04.68-.97,3.86-1.28,4.55-2.02,4.49-7.32,9.52-12.05,10.92-6.88,2.03-14.27-.46-21.3-.29-1.75.04-3.88.72-5.66.9-13.55,1.35-26.79-.61-40.65-.9-9-.19-17.45,1.44-26.72,1.44-9.76,0-19.62.82-29.43.85-1.14,0-2.69-.16-3.55-.87l-.47.93-.27-.96c-6.09,1.84-12.83.81-19.19.95-10.73.23-20.14.65-30.88.03s-23.21,2.4-33.67,1.37c-.86-.08-1.61-.89-2.37-.89-1.41,0-2.34,1.68-4.69-.08-1.76,2.04-2.01.03-3.72,0-1.09-.02-1.87.84-2.84.95-2.74.32-6.02-.08-8.86.03-1.18.04-2.46.81-3.37.81s-1.52-.84-2.24-.84c-.26,0,0,.87-.91,1-2.7.38-3.8-.72-5.68-.95-10.44-1.29-21.09.89-31.83.93-6.3.02-14.55.53-20.6,0-1.77-.16-8.32-3.01-9.58-3.99-.99-.77-.7-1.64-1-2.03-.04-.05-.69.33-1.34-.25-.87-.77-3.06-4.42-3.42-5.57s-1.34-8.52-1.14-9.42c.1-.49.87-.82,1.08-1.46.2-.6-.23-1.81.06-2.58,3.5-9.23,15.41-16.54,24.63-17.32.49-1.5,2.08-1.58,2.52-2.03,2.29-2.31,3.51-6.28,4.8-9.03s2.61-5.15,3.8-7.83c1.08-2.43,1.35-2.53,1.4-4.7,0-.18,1.95-1.41.93-3.08l1.4-.02c-.72-1.63.12-2.24.42-3.55,1.08-4.71,1.84-9.06,1.34-14.48-.03-.27-.76-.21-.8-.53-.44-3.72-.23-5.59-1.47-9.18-.06-.16-1.61-1.81-2.03-2.75s-.4-2.95-1.2-3.96l.91-.43c-2.38-2.22-1.21-3.71-1.15-5.82.02-.77-.8-2.29-.63-3.95.12-1.19,1.15-3.62,1.14-3.81,0-.36-.79-.85-.77-1.82.06-2.11,2.41-7.72,3.32-9.75.26-.59,1.79-1.37,2.2-2.09.64-1.1,1.06-3.07,2.18-4.31l-.68-10.35c-1.45,1.01-2.87,2.64-4.68,2.81l.48,1.4c-2.28.4-3.85,2.19-6.32,2.25-.69.02-5.97-.95-6.45-1.27-.81-.53-2.1-3.54-2.19-4.52-.29-2.95,2.48-5.1.55-8.5-.29-.52.04-.8-1.04-.6-.08,1.18-.79,2.11-1.23,3.15-.11.25.28.83.19.99-.08.14-2.13,1.23-2.66,1.77-1.07,1.08-2.47,3.4-3.79,4.1-.66.35-1.62-.12-2.11.04-.62.21-.95.9-1.54,1.1-1.87.63-8.12.3-9.15-1.43-1.49-2.49-.57-6.02.77-8.39.49-.87,2.6-2.86,2.64-3.06.26-1.23-.25-2.82.03-4.03.07-.31.7-.32.76-.44.14-.29-.71-.69.63-1.05-2.93-1.7-5.13-3.18-7.26-5.85l-2.31,3.3c-1.4,1.35-5.71,3.5-7.66,4.04-4.54,1.25-7.25.85-11.07-1.73-.99-.67-4.36-3.91-4.8-4.8-1.04-2.14-.9-5.62-.5-7.96.16-.91,1.14-2.18,1.13-2.45-.01-.33-.72-.75-.68-1.32.06-.96,1.25-1.75,1.16-3.9-.22-4.99-3.46-12.81-6.73-16.56-1.5-1.73-3.23-1.86-4.8-2.56s-8.56-7.95-9.35-9.5c-.48-.94-1.47-4.24-.95-5.24l-1.44-.25c.33-4.36-.15-8.06.73-12.39.13-.62.82-1.24.92-1.82.84-4.8-3.84-7.9-6.14-11.42-.59-.91-3.32-5.43-3.6-6.89-.07-.35-.39-6.83-.31-7.18s.89-.27.95-.63c.39-2.16.51-2.38,1.09-4.47,1.29-4.65-3.23-6.01-4.16-9.23-.44-1.54-.25-7.94.2-9.62.11-.41.71-2.08.95-2.8.74-2.24,2.24-3.16,3.32-5.16l-.96-.49c.87-1.03-.29-5.55-.87-6.42-.31-.45-1.04-.57-1.37-1.1-.8-1.29-1.66-4.37-1.26-5.83.26-.97,1.21-.9,1.2-1.17-.01-.5-.55-1.12-.5-1.77.02-.22,2.68-3.18,2.87-3.29.9-.53,1.91-.8,2.94-.79l.76.97.24-.93,3.26,2.21c2.62-.78,2.56-2.16,3.57-4.18.19-.38.87-.38.91-.67.1-.77-.63-2.3-.79-3.27-.29-1.77-.34-1.44-.6-2.38-.5-1.86-1.25-4.87.9-5.5-.6-.5-.98-1-.94-1.83.21-4.26,4.56-10.88,7.22-14.15.75-.92,1.85-2.26,2.85-3.45.91-1.07,4.41-3.63,4.81-4.33.26-.45-.06-1.19.21-1.64.36-.59,1.42.08,1.27-2.16-.29-4.4-3.29-6.1-6.3-8.72l-.92.93c-.43-.79-3.16-1.39-3.79-1.28-.53.09-.48,1.23-.96,1.32-.64.11-1.74-.7-2.67-.53-.33.06-.27.87-.62.95-3.25.72-8.28,1.49-11.85.74-.7-.15-4.61-1.53-5.01-1.81-1.25-.88-.63-2.47-.71-2.59-.34-.54-2.29-1.05-2.69-3.14-.43-2.27.9-4.66.73-5.36-.73-3.06-3.42-3.49-4.02-4.58C1.84,54.41-.09,49.01,0,48.04c.09-.9.67-1.35.8-1.96.19-.91-.16-3.6,1.58-2.47-.25-2.33,4.14-3.44,4.93-5.16.62-1.34-.29-2.58-.03-3.49.9-3.18,2.15-2.82,3.77-4.46,2.13-2.15,6.23-6.37,9.09-7.22,5.45-1.62,12.09-4.32,18.47-3.52l.5-.91c5.94.14,12.89.62,18.72.43.31,0,.07-.96.96-1.01,1.41-.07,2.08.92,3.28,1.04,1.61.15,2.63-.82,3.28-.81,2.33.03,1.28.35,4.23-.15,1.04-.17,2.28.2,3.16,0,.18-.04,2.03-2.48,2.35-2.93,1.09-1.52,2.96-6.04,3.8-6.94.99-1.06,5.67-3.14,6.58-.92,1.49-1.65,5.15-4.78,7.36-5.31.56-.13,4.34-.15,4.81-.07,1.09.18,4.68,2.25,4.9,2.1.04-.03-.12-.59.34-.93,2.94-2.14,7.07-3.56,10.67-3.32,2.33.16,3.8,1.46,5.65,2.6ZM105.26,10.48c-.1-.1-2.33-1.44-2.47-1.44-.32,0-2.9,2.99-4.68.87l-.48.45c.62,1.7-2.34,3.46-3.78,3.71-1.84.32-3.3-1.22-4.24-1.29-.6-.04-1.02.7-1.44.76-.18.03-3.31-.48-2.16.55.94.84,1.55,1.57,1.56,3.02l-1.11.73-2.15-.45c-1.12,4.57,2.59,3.22,4.68,3.97,1.69.61,2.13.86,3.96,1.42,1.43.44,2.73,1.35,4.24,1.65,3.29.65,12.48-1.43,15.11.08.55.31.42,2.35,2.43,1.31-.45,2.98-2.14,1.15-3.24,1.16-.55,0-.92.43-1.48.45-1.99.08-3.77-.78-4.16,1.89,2.07,1.31,5.26,1.51,5.68,4.4,1.34-.51,3.18.96,4.3.1.6-.45,1.13-3.32,3.07-3.37-.91-3.4-.06-6.76-2.04-9.79-.27-.42-1.22-1.19,0-1.39,1.46-.24,1.12,3.61,2.8,4.21l.46-.93c1.1,2.5,4.85-.12,4.45,2.81,1.4-.98.47.32,1.39.46.97-1.97,1.6-5.54-1.4-5.61.41,4.8-2.45,3.56-.67,0l-3.08-1.4.44-1.67-.87-.4.43-1.2c-.68.28-.97.44-1.72.14-.22-.09-2.82-2.36-2.88-2.54-.13-.41,1.2-2.51-1.04-3.46-1.75-.74-2.3.67-2.91,1.03-.16.09-.57-.28-.71-.2-.7.42-1.02,1.98-3.19,2.22-2.97.33-2.25-1.35-3.11-2.22ZM64.95,32.21c-.5.48-1.2.67-1.72,1.32-1.02,1.28-1.43,4.2-3.49,4.03-1.71-.14-1.25-1.89-.65-3.02.74-1.38,2.53-1.42,1.08-3.54-.24-.35-5.81-4.07-6.17-4.17-2.37-.64-7.08-.64-9.72-.52-.87.04-3.99.27-4.56.47-2.23.77-4.75.89-7.15,1.14-.68.07-1.36.55-1.86.54-.62-.02-1.45-.91-1.63-.76-.16.13.36,1.13-.47.94l-.47-.93c.23,1.45-1.12.48-2.1.71-1.84.43-3.97,1.18-5.8,1.69l.41.87c-2.34-.18-2.56,2.99-4.47,3.75l.25,1.41c.81-.3,1.43-.94,2.24-1.26,2.66-1.05,6.26-1.68,9.38-1.9,3.75-.26,7.55.42,11.28.84.98,3.77-2.45,3.94-5.36,4.19-4.82.41-8.46-.21-13.14.48-2.12.31-2.93-.77-5.64,1.11-1.81,1.26-4.51,4.41-5.78,6.03-1.09,1.38-1.86,1.57-1.41,4.08,1.32-.81,1.31.77,2.11,1.41,4.18,3.32,10.09,4.07,15.1,2.92,1.42-.32,7.42-2.78,7.84-2.76.35.02.83.81,1.35.74.95-.13,1.47-2.41,2.17-3,.13-.11,2.81-1.66,2.97-1.72,1.22-.44,3.22.12,3.13-1.31,1.85,1.1,3.57.72,5.59,2.1.63.43.74,1.33,1.3,1.62.75.39,2.45.25,2.84.58.17.15,0,.87.23,1.12,1.03,1.19,2.75,1.91,1.27,4.18-.86-.31-2.5.2-3.08-.21-1.09-.78-2.68-5.39-3.7-5.21-2.59.44-2.55,3.32-4.31,4.62-1.26.93-6.14,1.97-7.76,1.81-.93-.09-2.3-.85-2.9-.82-.27.02-.21.85-.58.94-2.67.67-4.72,1-7.5,1.78-3.07.86-5.71,1.48-8.73.07-1.95.66-.87,5.76-.16,6.47.14.14.71.09,1.06.3.21.13.24.68.55.74,1,.22,3.97-.45,4.9-.95,4.72-2.55,5.31-2.42,11.14-2.96.7-.07,1.27-.62,2.09-.67,1.88-.12,5.91,1.49,7.82,2.3.84.36,2.88,1.88,3.51,2.19,3.23,1.6,5.86,3.3,8.37-.35h.88s2.62,4.19,2.62,4.19c.63-1,1.93-.92,2.23-1.09.52-.3.75-1.98,2.91-1.25.08,1.45.22,3.37.69,4.72.04.13,1.42,2.22,1.53,2.3.76.56,2.99,1.07,4,1.52.53.24.89.85,1.32,1.03,1.11.46,3.48.13,3.93,1.68l1.2-.79-.02-2.49c4.78-.27,6.27,6.42,11.46,6.09-.27-6.32,5.58-2.07,8.82-2.06,1.91,0,3.92-.99,5.93-.29l-.36-.86.83-.3c-.5-1.68-8.35-4.69-10.12-4.86-1.07-.1-2.47.45-3.66.35-4.08-.33-11.98-3.87-15.43-6.1-.58-.37-2.64-1.63-2.85-1.81-1.23-1.01-2.8-3.81-3.56-5.24-.06-.11-2.08-1.37-.18-1.77,1.06-.23,2.67,2.71,3.39,3.28,1.21.97,3.12,1.16,4.2,1.76,3.5,1.95,7.54,4.62,11.63,5.45,1.11.23,3.13-.57,4.6-.57,1.21,0,7.08.48,7.48.34.78-.26.55-1.25.91-1.69,1.41-1.74,3.42-.38,5.23-.42,1.94-.05,3.88-.79,5.85-.21v-2.34s-1.65,0-1.65,0l.24-1.4-1.3-.11-1.04-2.24c2.69-.96,2.72.32,4.44.99,1.13.44,3.34.17,4.85.72,1.32.49,1.32,1.36,1.84,1.55.71.26,3.67.22,4.07-.44,1.58-2.55-1.14-6.52-2.65-8.61-.43-.6-1.81-1.42-2.07-1.87-.5-.89-.4-2.13-1.09-2.92-.78-.9-2.21-.14-1.9-1.6,2.29-.36,4.41.72,6.36,1.8,1.21.67,3.28,3.07,3.78,3.21,2.73.74,7.38-1.48,9.99-2.22l-.47-.92c3.95-.49,9.45-1.98,10.92-6.18.78-2.25,1.87-6.66,1.13-8.91-1.89-5.72-10.56-4.56-15.06-3.62-.57.12-1.09.75-1.53.81-.51.08-2.16-1.17-3.39-.59-.2.09-3.09,2.55-3.3,2.8-1.92,2.2-2.08,4.47.71,5.86.32-1.15,2.41-4.19,3.37-4.68,1.31-.68,2.51.02,3.19-1.87l-.24,1.4.92-.02c-.09-1.96,1.87-.23,3.05-.2.93.03,1.77-.62,2.38-.67.17-.02.15.77.86.99,1.6.49,6.39-.22,5.66,2.77-.08.32-1.94,2.37-2.27,2.61-.39.29-1.17.07-1.24.14-.2.19.67,1.23.27,1.86-.29.46-2.53,1.98-3.1,2.68-.37.46-.16,1.34-.78,2.04-1.12,1.24-9.65,1.97-11.59,1.83-2.91-.22-3.62-1.88-6.33-2.34l.47-1.87h-1.18c.47-1.22-1.19-3.95-2.11-4.45-.52-.28-1.05.21-1.29.08-2.01-1.03-4.08-2.81-5.74-3.82-.56-.34-1.49-.1-1.77-.32-.2-.16-.22-1.38-.6-1.96-3.02-4.49-10.84-6.93-16.06-7.87-6.26-1.12-13.31.91-19,3.03-3.29,1.22-2.05-.18-4.85,2.51ZM132.52,40.79l-6.56,1.17.02,2.11,4.88-1.56,1.66-1.72ZM265.77,42.38c-1.87-1.03-5.31-1.76-5.91,1-.64,3,1.21,2.62,2.35,4.68.52.95,1.45,4.97,1.35,6-.14,1.52-1.28,2.68-.42,4.5.3.27,6.86-.93,8.11-.79,3.35.38,6.92.66,10.36,1.03.47.05.99.68,1.84.73,2.11.13,4.27-.25,6.35-.5-.04-.92-1.7-.31-2.46-.48-.13-.03-1.7-1.59-1.98-1.73-.21-.1-1.1.19-1.72-.15-.54-.29-2.37-1.78-2.48-2.26-.49-2.12,2.05-7.8,3.46-9.34l1.91-3.36h-4.82c-.52,1.3-1.83,1.29-2.45,1.86-.3.27-4.16,6.32-4.33,6.68-.26.57.85,1.7-.94,3.16-3.59,2.94-3.47-1.71-4.21-3.61-.59-1.52-2.85-6.8-4.01-7.44ZM200.23,52.85c.24-1.12.97-4.78.43-5.53-.87-.72-3.64-.46-4.59.02-.15.08-2.37,2.2-2.44,2.36-.4.82-.07,1.69-.37,2.22-.11.2-.86.31-1.2.89-.98,1.68.74,5.86-2.19,5.72-4.28-.21-4.99-8.01-9.83-8.41-3.19-.27-5.09.91-4.91,4.25.39.26,1.73.03,1.8.09.15.15,2.19,3.43,2.24,3.63.19.68.73,6.56.66,7.27-.12,1.24-1.21,2.19-.75,3.52.24.34,3.22.27,3.77.22,5.26-.52,10.26-1.85,15.89-2.1,2.4-.1,9.41.51,11.01-.23.36-.16.62-.66.94-.93-.8-.29-2-2.12-2.35-2.33-.3-.17-5.89-2.02-6.33-2.09-1.46-.24-10.76.36-12.41.63-1.3.22-2.59,2.11-3.97.77-.92-1.33.31-2.41,1.57-2.73,1.5-.38,3.94.34,4.45.27.66-.1,1.63-1.2,2.96-1.29,1.48-.1,2.94.96,4.41.24.95-.63-.07-1.91,0-2.8.09-1.13,1.15-3.37,1.21-3.66ZM135.21,59.18c-1.28-1.21-1.95.21-2.82.23s-2.42-1-3.31-.85c-.32.06-.15,1.41-1.7.71l-.46.5c.27,1.73.4,5.81.01,7.39-.13.51-1.01.5-1.19.78-.72,1.09.53,1.62.53,2.12.02,1.7-2.5,4.36-4.29,3.05.74-2.29-2.04-4.83-4.04-5.32-.55-.13-1.2.19-1.49.13-.34-.08-.85-1.91-1.96-.94-3.63,3.15,4.42,8.95,7.74,7.07-.14,1.06.24,2.46,0,3.42-.09.36-.9.28-.94.63-.06.47.46,1.13.25,1.6-.22.49-1.21.64-1.49,1.06-2.16,3.15-.51,3.09-4.83,4.79-.49.19-1.18-.27-1.33-.16-.19.13-.19,1.01-.83,1.24-1.48.53-5.32-.49-5.79-.19l-3.91,6.19c-2.17,1.51-3.07,3.06-5.3,4.29-1.63.9-4,1.5-5.33,2.16-.42.2-3.03,1.64-3.15,1.77-.56.66-.74,3.71.36,4.35-1.54.24-.43,2.71-.67,3.75-.18.76-1.5,1.17-.96,2.58-1.58.26-3.14.62-4.68,1.06-.25.07-.21.74-.57.8-1.05.16-2.17-.79-3.45.68-1.95,2.24.38,8.03-3.42,11.79-2.57,2.54-6.86,1.03-8.04,4.61-.24.72.23,1.55.17,1.89-.05.28-.66.13-.75.45-.1.34-.35,3.04-.84,3.54-.4.41-1.11.33-1.43.61-1.9,1.69-2.48,3.3-5.31,1,0-.33,2.19-2.46,2.51-3.04s.75-3.49,1-4.21c.56-1.66,1.9-3.17,1.64-5.16l.85.38c.29-.62,3.81-3.19,4.1-3.19.47,0,1.02.61,1.52.41.08-.03.09-.65.41-.86.55-.36,1.35-.33,1.77-.95.56-.83.3-2.76,1.65-3.5-2.14-.64-.27-2.19-.09-3.38.25-1.63-.74-1.84.75-4.15.76-1.18,1.87-1.15,2.04-1.29.36-.27.44-1.1,1.33-1.66,1.35-.84,3.17-.95,4.63-1.42l.79-9.54c-.21-.9,2.38-3.02,2.23-3.14-2.03-1.68-2.07.06-3.14.38-1.14.34-2.12-.31-3.01-.15-.67.12-3.81,1.61-3.21,2.79,2.27.77,1.97,1.85,2.59,3.99-2.43,1.45-4.03,4.14-7.06,4.23-1.76.05-3.17-1.06-4.41-2.17.52-2.7,3.52-2.48,5.1-4.25l-.95-3.39c-1.36.06-3.46-.54-4.84-1.01-3.74-1.27-7.35-2.87-11.03-3.95-.39-.12-2.47-.68-2.6-.7-.23-.02-3.23.07-3.39.12-.05.02-.11.64-.75.88-5.55,2.06-8.55,5.31-12.88,9.56-.58.57-1.5.48-1.94.98-.77.87-1.94,6.64-1.37,7.17,1.91.56,1.73-.7,2.38-1.11,2.96-1.87,5.45-3.94,7.87-6.25,1.11-1.05,1.96-2.35,3.08-3.4,1.97,1.66-.08,2.3-.21,2.67-2.29,6.76-4.62,10.41-10.2,14.51-2.22,1.63-1.92,4.55-2.47,7.15,3.84-2.61,8.36-3.69,11.93-7.04,1.36-1.27,1.53-3.02,3.5-3.26.23,1.88-.25,3.44-1.39,4.92-4.4,5.71-12.12,7.79-18.1,11.37-2.09,1.25-5.65,2.4-5.31,5.24,2.97-.13,5.88-.67,8.82-1.14.62-.1,1.37.33,2.06.13.97-.28,5.4-5.75,6.43-4.6.14.74-.64,3.21-1.08,3.62-2.98,2.73-7.36,7.11-11.08,9.67-.37.25-1.59.13-2.46.74-1.92,1.36-6.74,5.31-7.45,7.21-.34.92-1.24,4.67-.42,5.24,1.69.89,3.31-1.64,4.53-2.53,3.68-2.66,6.8-3.39,9.84-6.12,1.54-1.38,4.08-2.97,5.46-4.25.64-.59,2.22-3.72,2.94-4.64.54-.69.81-.57,1.61-.51-.88,1.45-.72,4.71-1.23,5.96-.26.63-1.05.7-1.3,1.09-1.22,1.92-1.37,4.04-2.03,6.05-.96,2.92-1.92,5.01-3.35,7.42-2.05,3.46-5.75,5.68-8.26,8.99-.54.71-.24,1.44-.52,1.86-.17.25-1.95,1.96-2.01,2.22-.2.77-.59,6.18-.28,6.69l1.16.43c1.53-1.96,2.27-3.97,3.98-5.62,2.52-2.44,5.78-3.84,8.24-6.37.5-.51.91-1.74.93-2.49,2.88-.21,2.66,2.95,1.94,4.98-.24.66-1.4.92-1.15,2.37l-6.23,7.96c-.31,1.31.34,2.44.53,3.64.07.48-.36,1.18-.25,1.79.03.17,1.61.9,1.4,2.89-.03.3-2.12,5.4-2.31,5.65-.55.72-1.44.86-1.87,1.54-.64.99-1.21,5.09-1.43,5.24l-.93-.47c.99,2.57-1.04,4.03-.46,6.73l-.96.53,1.41.24-.94,2.09.93.71c1.74-1.74,1.39-4.21,2.68-6.08,2.01-2.89,4.6-3.95,6.5-7.45.89-1.63,4.66-9.99,4.78-11.04.11-.99-.97-6.29.79-6.32,3.5,2.27,1.92,5.14,2.58,8.11.08.36.89.3.88.51-.06,1.68-1.57,4.42-1.73,5.76-.23,1.88.31,5.51-.81,7.62-.07.13-1.59,2.14-1.69,2.24-.09.08-.66-.35-1.07.08-2.4,2.48-3.8,6.78-3.94,10.14-.04.88.42,6.33.63,6.73.1.2.56.59.71.47l.47-.93c.51.66.53,3.03.61,3.18.07.13,1.8,1.43,2.21,1.86.54.56.46,2.28,2.34,1.98-.52-.97.05-2.35,0-2.99-.04-.4-1.06-.08-.95-.95.23-1.78,2.32-10.55,3.11-11.93.66-1.16,2.28-2.33,2.87-3.68.89-2.04,1.07-7.94.56-10.14s-2.96-4.41-1.8-6.78c3.02-1.17,3.75,5.59,4.78,6.42.33.26,1.12,0,1.24.12s-.29,2.69-.23,3.38c.24,2.89,1.44,4.72.97,7.84-.6,4.01-2.79,5.06-3.73,8.17-.48,1.59-.26,3.89-.52,5.43-.14.82-1.07,1.48-1.02,2.45.08,1.56,1.01,6.14,1.58,7.75,1.37,3.88,3.96,7.88,5.47,10.93.94,1.9,2.07,8.8,1.63,10.75s-4.44,5.68-3.06,7.27c1.91,2.19,2.66-.97,3.36-1.78,2.32-2.66,2.29-1.3,3.32-5.58.79-3.26.25-3.54-.22-6.36-.37-2.2.1-4.71-.5-7.39-.16-.73-.42.23-.58-2.52-.06-1.02-1.23-3.07-1.27-3.27-.5-2.52,0-13.24.59-15.75.32-1.35,2.01-4.2,2.54-5.83,1.3-3.99-.2-3.99-1.29-6.87-.48-1.27-.53-3.18-.93-4.1-.32-.72-2.15-.99-1.39-3.17,4.32.26,2.97,1.14,4.29,3.42,1.73,2.97,2.97,3.98,3.9,8.05.06.25-.59.63-.46,1.15.17.67,1.1,1.48,1.17,2.65.05.8-.76.55-.91,1-.84,2.48-2.46,6.11-3.01,8.11-2.55,9.25,7.74,22.13,8.98,30.13.38,2.46-.91,4.81,2.45,6.07,3.06,1.15,2.18-1.06,3.5-1.61.94-.32.61.56.69.63.69.6.63,0,.48-.4-.6-1.63-2-4.28-2.83-5.95-2.27-4.55-1.46-5.24-2.82-8.92-.15-.42-.88-.35-.93-.64-.15-1.05,1.01-2.37.98-3.18-.01-.29-.88-.03-1-.93-.25-1.83-.05-6.31.03-8.44.09-2.49,2.16-6.46-.92-7.75v-.92s.93-.24.93-.24l-1.87-3.51c2.61-.21,4.23,2.96,5,5.06,1.47,4.04,1.43,9.3.66,13.46l.88.39c-.4.8-.8,1.75-.66,2.66.72,4.98,3.3,9.9,4.85,14.36.94,2.71,2.01,5.49,2.19,8.39.04.63-1.16,6.9-1.38,7.77-.56,2.22-2.11,5.32-2.68,7.58-.19.73-.1.89.05,1.64.56-1.22,1.88-1.11,2.27-1.66,1.15-1.61,6.18-11.7,6.59-13.58.28-1.29.24-8.11-.06-9.23-.15-.56-.89-.9-1-1.27-1.45-4.68.46-10.48-1.98-14.96.28-.91-1.75-6.88.97-4.72.17.14,2.44,3.46,2.51,3.67.98,2.65.73,7.14,1.12,9.72.07.43.9.49,1.1.82,2.91,4.82,6.98,10.8,8.36,16.22.43,1.7-.47,4.5-.23,5.81.09.5.96.42,1.16.73.11.17.08,3,.71,3.77l1.4-2.13-.92-.22v-.69c.22-.51,1.29-.47,1.41-1.04.13-.61-.04-6.31-.12-7.4-.01-.21-.37-2.58-.49-3.72-.68-6.71-2.14-7.17-5.01-12.32-3.77-6.79-5.59-13.21-11.13-17.91-4.18-3.55-5.68-7.28-8.72-10.54-2.16-2.32-2.83-2.22-4.96-3.73-2.51-1.79-2.86-4.31-2.15-7.26l7.04-1.67,6.89,3.71c3.56,2.81,4.25,5.02,9.06,3.15,2.89-1.12,5.64-3.96,7.23-6.34.61-.91,1.89-1.72,2.14-3.03.17-.85.19-7.44,0-8.46-.3-1.61-1.43-3.15-2.03-4.54-.4-.93.47-2.08-1.27-2.44-.49-.4-.21-.93.22-1.2,2.23-1.39,2.16.5,2.64,1.13.53.7,1.94,2.28,2.29,2.84.24.38-.34,1-.15,1.31.13.22,2.21,2.09,2.44,2.48.45.74.16,1.75.99,2.3,2.42-1.68,2.78-2.34,3.98-4.81.15-.3.78-.23.91-.67.44-1.51.8-9.51,1.43-9.96,2.83,0,3.43,3.05,3.97,5.4.1.44-.73,1.66.95,1.5.27-.03,3.32-2.92,4.14-3.43,2.6-1.6,10.84-4.38,14.1-5.11,1.97-.44,6.7-.94,7.24,1.43.24,1.03-1.48.5-1.77,1.57-7.95,1.75-11.1,9.41-16.31,14.75-1.3,1.34-.88.75-2.2,1.75-2.99,2.26-7.36,5.83-9.66,8.73-.64.81-1.22,1.87-1.44,2.89l-.9-.45c.88,1.81-1.04,2.53-1.61,3.78-.72,1.58-.73,9.31-.53,11.22.15,1.42,3.28,5.25,3.99,6.81l-.33,6.62-1.54,2.17c-1.77,1.33-3.36,2.63-2.8,5.13.08.36.89.29.89.51-.07,1.48-.53,2.89-.43,4.73.06,1.18.51,2.3.49,3.49.52.4.5-1.91,1.17-.47.57,1.23.92,3.75,1.32,5.24.9,3.32,1.4,7.02,3.03,10.53,1.21,2.6,2.14,3.58,2.98,6.16.04.13,1.43,1,1.99,1.98.32.55.13,1.5.36,1.76.2.22,1.05-.1,1.35.34.34.48.27,1.74.7,2.49,1.77,3.09,2.53,3.23,2.58,7.33.02,1.46-.77,1.06-.88,1.37s.23,1.05-.18,1.79c-.32.59-.99.64-1.18.9-.14.18.29.79-.14,1.08s-1.56-.18-2.49.29c-1.04.53-1.23,1.8-2.41,2.25l-1.21,7.5c-.77-.6-2.86.13-3.28.8-1.43,2.26-4.29,11.36-3.63,13.96.06.23.75.19.81.54.39,2.24-.26,4.22,1.44,6.47l-.95.92c1.16,2.01,3.89,6.06,4.43,8.22.31,1.24-.31,2.33-.22,2.99.05.33.83.24.92.6.75,3.23.35,8.35.73,11.64l-2.14,5.12,1.42.95v.94c-1.71.42-.65,2.25-.96,3.72-.73,3.5-4.91,13.86-6.74,17.15-.29.53-.13,1.22-.34,1.77l-1.32.06-.47,4.68-.93-.47c.74,2.29-1.09,2.91-1.54,3.87-1.14,2.39-.66,2.84-2.86,4.86-.26.24-.95.09-1.13.23-.15.12.12,2.05-1.8,3.18-.93.55-4.2.96-5.32.74-.48-.1-1.16-.82-1.38-.69-.04.03.06.69-.33.94-.83.53-2.15.25-2.97.69-.5.26-1.02.88-2.18,1.54-1.91,1.08-4.61,2.45-6.25,3.61-2.56,1.81-3.42,6.17-3.74,9.12.36.25,2.65-.51,3.08-.9.6-.56.47-1.43.8-1.77.42-.43,3.23-2.91,3.84-3.41,5.37-4.38,14.16-5.44,20.82-6.55.05,3.4-1.78,2.38-3.76,3.03-1.6.53-1.67,1.39-2.43,1.79-2.07,1.08-4.74,1.87-6.8,3.45-2.17,1.66-4.98,6.3-2.58,8.6,1.42,1.36,2.2.4,3.1.58.63.13.86,1.05,1.7.8-.3-3.31.36-1.79.94-2.14,1.48-.91,3.58-4.7,4.81-5.68.62-.49,1.62-.51,2.44-1.08.94-.65,2.04-2.18,2.18-2.27.18-.12.99.46,1.51.43.22-.01.26-.89,1.3-1.15.61-.15,6.4-.58,5.08,1.12-2.29,0-3.13,1.78-5.3,1.86-1.53,1.88-1.04,3.74-1.44,6.12-.09.56-.74,1.07-.72,1.61,0,.21,1.34,3.73,1.49,3.88.11.11,2.77,1.27,2.93,1.29.49.07,1.22-.38,1.84-.25,4.65,1,3.42,1.57,8.12.1.75-.24,1.59.07,2.34-.23.59-.24,4.12-4.71,3.52-5.86,1.91-.18-.67-2.11-1.22-3.38-.19-.43.08-1.02-.08-1.39-.79-1.82-1.93-3.54-2.19-5.56l-1.32-.06.48-1.4c-1.85.42-1.17-.78-1.56-1.23-.32-.38-.91-.49-1.18-.93-2.38-3.81.32-6.28,2.69-8.91,2.47-2.75,3.12-3.55,4.77-7.29.18-.42.95-.23.93-1.04-.02-.62-.42-1.26-.42-1.9,0-5.14-.88-7.02-2.21-11.7-.05-.18-.17-3.56-.13-3.75.1-.44.89-.38,1.08-.67.24-.39-.29-1.11-.12-1.55.38-1.02,1.66-2.26,1.66-3.48,0-.88-2.15-2.94.09-2.97-1.42-1.3-.35-2.09-.44-3.48-.28-4.57-1.12-7.24-2.12-11.74-.35-1.56-.71-1.77-.72-1.89-.02-.43.57-1.04.41-1.74-.25-1.11-3.74-3.78-2.69-6.11.63-1.92,5.67-.18,6.95.89.69.58,1.13,1.82,1.74,2.01.69.21,1.51-.07,2.18.08.4.09.16.9,1.01.97,1.46.13,2.28-.47,3.5-1.05l-.45-1.55c1.17-.33.57-.98.92-1.44,1.14-1.47,1.84-.6,1.89-.7.15-.29-.22-1.22.1-1.78.07-.12,1.48-.86,2.16-1.82,1.38-1.93,2.65-8.45,2.65-10.69,0-.43-.68-1.67-.62-2.36l.86-.68c-1.69.2-.42-1.13-.69-2.1s-2.82-8.38-3.07-8.77c-.29-.45-3.09-2.61-3.18-2.8-.29-.67.31-1.13.34-1.58.01-.24-.83-.14-.91-.52-.35-1.64.69-4.41,1.42-5.91.15-.3.77-.32,1.06-.92.96-1.95,1.15-4.45,3.17-5.74l-.97-1.86c.69-.04,1.53-4.34,1.47-5.17s-.83-.59-.93-.99c-.54-2.02.5-5.24-1.38-6.48l.4-.89-.94-.28.93-.69c-2.49-3.35-4.59-7.2-4.68-11.47,4.98-.39,5.28,2.25,7.01,5.87.21.43.37,1.25.94,1.15.18-1.08.63-2.1.84-3.18.62-3.32.78-6.46,1.15-9.09.42-2.96.93-6.27.03-9.25-.74-2.44-3.26-3.85-2.94-6.56.36-.36,3.49.8,3.75,1.26s.16,1.49.49,2.12c.76,1.45.6.73,1.19,2.74.79,2.69,1.62,4.05,1.37,6.74-.57,6.18-1.93,12.64-2.51,18.73-.03.32.05,2.94.16,3.05,1.26,1.39,1.6-.15,1.82-.27,1.39-.78,3.23-2.31,3.98-3.77.17-.33,1.79-5.26,1.75-5.55-.08-.54-.85-.99-.95-1.6-.58-3.37-.8-6.22-1.8-9.28-.04-.12-.64-.08-.75-.44s-.6-3.43-.55-3.61c2.12-.89,2.68-2.74,5.16-3.14l-.45-1.37h1.18c-.44-1.78,1-1.91,1.59-3.54.74-2.03.29-4.62.03-6.74l2.84-.75c.14-.95-1.09-4.46-1.64-5.38-1.15-1.93-2.93-1.86-2.14-5.12l1.81.06.07,2.28c1.22.25.72-.24,1.16-.94,4.02,2.35,5.37,7.05,3.52,11.23,2.36,0,1.7,1.36,2.38,2.43.91,1.44,2.41,2.29,2.56,4.15l2.55-.03.47-5.82c-1.36-.35-.43-2.07-.78-3.58-.57-2.45-2.52-5.4-3.25-7.89l-4.41-5.18.93-.94,5.39-.36c.35,1.11,1.38.68,2.05,1.1,1.95,1.23,1.81,1.83,3.02,3.31.8.98,2.33.59,1.24,2.96,1.75.02,3.06,1.16,4.21-.71.31-.86-.83-.59-.93-1-.27-1.13-.03-2.49.93-3.21l-1.41-.23.94-1.4-1.8-.08-4.86-9.89c-1.47-2-2.96-4.13-4.42-6.13-.25-.34-.07-1.04-.19-1.16-.53-.49-7.14.26-3.95-3.7,1.73.07,3.62.8,5.17,1.07.26.05.63-.61,1.16-.48,2.75.68,4.8,2.2,6.72,3.85.27.23,1.07.02,1.19.16.25.29-.06,1.37.07,1.97.07.3,3.72,3.02.46,3.62.89,2.26,2.9,2.41,4.68,3.27.12-2.01.95-4.37-.93-5.85l.94-.46c-.91-.59-.53-1.91-.8-2.47-.61-1.23-4.69-6.67-5.73-7.76-.43-.45-1.16-.21-1.32-.39-.31-.33-2.02-6.44-2.58-7.28-.39-.59-3.78-1.9-2.21-3.19,4.41-1.18,10.95,1.17,14.28,3.99.39.33,3.34,3.15,3.43,3.37.22.51-.7,1.95-.39,2.24.13.12,1.11-.31,1.43.3.23.43.21,1.44.54,2.17,2.11,4.58,4.71,8.84,6.37,13.72.27.8,1.73,1.05,1.03,3l.93-.93c.11,1.07.18,2.37.51,3.38.13.39.9.37.93.65.04.53-.55,1.33-.43,1.52.1.15.92.08,1.41,1.2.26.59,1.86,11.92,1.83,12.7s-.66,3.31-.84,4.3c-.39,2.16-.15,3.99-1.6,5.9-1.02,1.35-4.17,3.9-4.82,5.47s.56,2.28-1.69,2.59c-.3,3.51,3.6,7.25,7.24,4.83.84-.56.92-1.52,1.48-2.26.31-.42,1.09-.57,1.34-.96.27-.43.2-2.64,1.42-4.24.37-.49,4.98-4.68,5.43-4.87.64-.27,1.16-.35,1.85-.26.67,2.44-.53,2.42-1.08,3.39-.39.7-2.77,4.75-2.82,5.1-.15.88.21,7.51.49,8.25.24.62,1.03.6,1.24,1.18.26.7-.13,1.46-.04,1.66.43.85,3.15,1.33,1.74,2.9,1.57-.53,2.71,1.74,2.88,1.8.3.1.84-.51,1.26-.34.08.03,0,.87.96,1.15,3.27.95,4.39-.93,7.07-.73.74-1.37-1.22-5.23-1.25-6.85,0-.47.28-5.66.36-5.95.09-.32.68-.28.85-.67.65-1.51.98-2.87,2.2-4.24.58-.65,1.85-2.17,2.7-1.95.08.02,1.17,1.07,1.16,1.15-.02.41-.52,1.44-.67,2.13-.3,1.42-.65,1.61-.67,1.72-1.05,5.17.79,5.45,2.38,9.29.31.74-.08,1.56-.01,1.6,2.59,1.33,2.42,2.88,4.54,4.72.77.67,4.29,2.99,5.3,3.45,1.88.87,4.72,1.98,6.67,1.12.33-.15,2.16-2.09,2.54-2.2,1.21-.37,3.1,0,4.46-.95.79-.55,1.23-2.42,2.2-3.06-1.78-.87-4.61-2.47-5.87-3.95-.74-.87-1.47-3.44-1.75-3.67s-1.04,0-1.19-.16c-.31-.34.37-2.09-1.47-2.51l.93-2.11c-3.18.16-1.14-2.45-1.13-3.52,0-.28-.59-.59-.53-1.18.03-.26.75-1.83,1-1.88,2.66-.61,1.72,1.69,2.04,2.97.13.51,1.02.42,1.25,1.01.31.82-.39.66.61,2.5.17.31-.14,1.11.11,1.42.16.2,1.11.13,1.59.53,3.06,2.55,5.01,5.43,8.94,7,1.81.72,3.35,1.54,5.54,2.16.57.16.9.88,1.38.96.76.12,5.32-.11,5.88-.49,3.14-2.16-3.82-3.61-4.53-4.15-1.71-1.3-7.94-6.96-8.83-8.76-.23-.46.2-1,.09-1.28-.03-.08-.64-.12-.74-.47-.38-1.41-.36-2.44-.04-3.85,1.77.11,3.31.89,2.81,2.81l.93-.48c-.39,1.8.69,1.17,1.21,1.58,2.39,1.86,3.39,2.88,6.35,4.21,1.93.86,12.38,4.58,13.56,2.81l.87-2.97-1.17.93-.7-.92.93-.47-8.42-1.88.47-1.4c-.6,0-1.17.11-1.75-.13-.41-.17-5.87-5.98-6-6.4-.39-1.24-.45-2.06.98-2.36,2.34-.5,1.88.7,2.66,1.09,3.4,1.71,6.36,3.22,9.73,3.8,4.46.77,5.69.76,9.47-1.48.13-.08,1.94.64.85-1.79-1.43-.42-2.89-.12-4.36-.34-.18-.03-3.01-.91-3.16-1.02-1.86-1.3-.56-.32-1.76-.82-1.08-.45-3.05-3.27-4.66-3.31l-2.46-5.5c1.78.42,1.2-.79,1.58-1.2,2.02-2.22,7.27-4.66,9.97-7.38,1.17-1.18,4.29-4.38,3.43-5.92l1.32-.07c.35-2.25,1.54-4.36,2.22-6.49.31-.96.46-1.59.75-2.52,2.5-7.91,4.36-16.35,8.11-23.2.86-1.56,2.2-4.2,3.01-5.45.68-1.05,2.73-1.15,2.38-3.02l2.61.93c.72,1.89-.91,2.03-1.36,2.94-3.01,6.13-5.33,14.39-6.66,20.52-.62,2.87-.44,5.02-.89,7.44-.65,3.55-1.28,6.55-.43,10.14.08.33-.28.87-.19,1.02,1.27,2.16,5.07-.28,5.52.08.69,1.28-.32,1.66-.46,2.59-.22,1.39-.12,2.7-.67,4.46-1.48,4.83-2.55,7.52-2.61,11.88-.01.71-.22,6.54.03,6.76.09.08,1.57.31,2.05,1.02l4.14-1.39c3.68,1.79-.1,4.62-.96,6.83-.61,1.57-.59,4.33-1.54,5.96l.97.48c-2.24.85-.09,4.5-.93,6.5,1.52,1.54,1.39,5.56,2.37,7.87.62,1.45,4.37,5.38,6.04,5.53-1.12,1.19,1.94,1.92,3.05,2.79,4.27,3.36,10.37,9.31,15.84,9.87.14.01,1.7,1.64,2.08,1.79,5.08,1.95,3.02,1.17,6.81,4.56,2.95,2.63,4.2,2.37,5.44,6.38.08.25,1.63,1.57,1.99,3.25.31,1.39-.08,2.31.04,3.33.06.52.88.99.8,1.92-.11,1.34-1.97,2.73-2.37,3.4-.29.5-.25,1.15-.5,1.65-.17.35-.7.36-.78.59-.12.37.24,4.13.38,4.57.12.38,4.24,6.2,4.63,6.56,3.13,2.9,9.28,8.92,12.85,9.23l.49.88,1.37-.38.78,1.16-2.33,4.1-4.71,3.61.93.47c-.9,1-.72,2.46-.66,3.79.16,3.61.17,9.34-.42,12.27-.16.78-1.27,1.3-.39,2.61l-1.34.76.93.46c-1.59,1.3-.97,3.91-1.43,5.52-.11.39-.8.27-.9.68-1.04,4.03-2.02,9.25-3.13,13.23-.32,1.16-1.7,3.64-1.58,4.89.04.42,1.15.37,1.38,1.03.41,1.19-1.32,4.23-2.64,4.32-1.1.08-1.47-.74-2.28-.87-.25-.04-4.81-.02-5.06.04-.54.14-.63,1.08-1.1,1.38-2.21,1.41-7.42,3.43-8.84,5.77-2.18,3.6.14,5.01,3.66,3.9,1.25-.39,1.77-1.55,1.89-1.6.71-.29,1.57.06,2.24-.37.4-.25,1.87-1.55,2.34-1.83,2.12-1.28,5.55-3.21,7.63-3.6.37-.07.39-1.42,1.71-.89.5,2.72-.21,2.2-1.16,3.28-2.13,2.41-2.14,1.49-3.55,4.79-.14.34-.83.35-.9.69-.22,1.06.18,2.39.91,3.19l3.73-.32c-.4-1.84,2.87-2.36,3.64-2.89.45-.31,1.07-1.58,1.59-1.89,1.68-1.02,3.88-1.54,5.74-.76,1.67.96-3.69,3.77-4.52,4.67-.46.5-.27,1.35-1.26,1.7.99,2.59-.1,5.47,3.87,4.68,1.34-.27,2.1-1.46,2.59-1.65,2.09-.8,4.71.34,7.35-1.43,1.19-.8,4.44-8.55,4.31-9.53-.35-2.56-5.09-2.48-7.17-3.78s-3.84-4.06-3.09-6.64c.2-.69.82-.6.91-.9.12-.38-.27-1.54.23-2.68,1.39-3.14,6.31-7,3.64-11.58l.86-.22c-.57-3.83-.74-6.33.26-10.07.19-.7-.77-1.56.74-1.44-1.16-1.28.14-2.61-.87-4.45l.87-.45c-2.42-2.41.3-7.91-1.87-9.88l.36-1.05-.86-.34.49-1.13-1.36.43-1-2.49c1.05-.35.88-1.33,1.46-1.9.8-.78,2.88-1.25,3.25-1.47.23-.13,3.47-3.44,3.76-3.81.52-.67.23-2.14,1.78-2.78-.36-2.87-1.09-5.71-1.6-8.57-.12-.69.3-1.32.26-1.6-.07-.49-1.02-.21-1.3-1.34-.11-.46.31-4.78.45-5.2.29-.84,1.43-.89,1.83-1.45.44-.61.25-1.33.48-1.77.21-.41.7-.35.77-.61.44-1.65-.85-2.78-1.04-3.75-.21-1.04.22-3.56.16-3.74-.13-.44-1.14-.37-1.23-.91-.06-.37.57-1.03.28-1.57-.1-.19-2.88-2.84-3.08-2.91-2.14-.66-4.83,3.6-5.17,5.5-.28,1.55,1.23,8.25,1.81,10.05.05.14.9,2.26,1.04,2.58.06.13.71.11.79.44.53,2.18-2.6,6.17-4.05,7.83-.61.7-.7,1.93-2.38,2.53-1.91.68-3.95-3.4-3.76-5.24,1.72-1.63,3.71-4.09,4.25-6.38.21-.9-.18-5.06-.5-5.91-.74-1.95-6.03-13-6.95-14.13-1.35-1.66-3.99-4.56-5.54-6.18-.75-.78-6.78-5.4-6.83-5.84-.18-1.82,5.82-4.33,2.82-7.49l.94-.45c-.45-.73-2.32-2.97-2.55-3.5-.46-1.07-1.07-3.43-1.69-4.8-.58-1.27-7.31-6.92-8.88-8.07-.66-.48-4.6-2.2-4.7-2.9-.55-3.78,3.53-1.01,4.42-1.17.38-.07,1.72-1.42,1.91-1.82,1.46-2.99-1.26-5.66.98-8.4,7.88.51,1.16,14.59,6.66,15.79,3.73.82,2.82-1.51,3.2-3.53.39-2.06.42-1.42.44-3.42.01-1.11.23-3.52.12-4.4-.03-.28-.71-.24-.83-.59-.24-.74-.04-1.67-.45-2.23-2.3-3.12-6.68-5.38-9.67-7.9-6.64-5.59-4.98-7.51-8-13.73-.69-1.43-1.66-.77-1.62-3.17,0-.32-.86-.16-.88-.49-.04-.61.83-1.56.01-2.54,3.25-.42,4.18,2.72,5.47,5.03.85,1.52,1.79,3.15,2.44,4.7,2.13,5.1.65,4.41,5.84,7.66.49.31.63,1.02.89,1.19.49.3,3.68.81,4.08.61-.65-1.63,1.31-3.2,1.52-4.35.23-1.25-.34-2.54.37-3.81-1.34-1.48-2.04-4.16-4-6.32-.42-.46-3.23-3.28-3.54-3.48-2.97-1.94-4.28-1.09-5.77-5.53-.3-.89-.37-1.27-.69-2.15-.67-1.87-.79-5.06-3.34-4.51l-.43-.57c.1-2.03-.59-5.55,2.63-4.07.2.09,3.13,2.89,3.24,3.09.25.45.27,2.58.5,3.16.81,2.11,2.28,4.85,3.43,6.69.26.41,1.28.45.95,1.7.75-.14,4.44-.35,4.61-.5.14-.13-.06-.91.17-1.18.39-.45,1.26-.52,1.55-1.09.26-.51-.27-1.5-.09-2.36.15-.77,1.05-1.71,1.06-2.1.01-.44-.62-.97-.67-1.5-.06-.69.3-1.28.15-2.01-.79-3.82-7.05-5.42-10.06-7.52l.44-1.37c-2,.91-2.36-1.38-3.27-2.09-.49-.38-1.78.54-2.6-.19-.13-.11-1.73-2.7-1.79-2.86-.13-.38.19-5.86.37-6.1.91-1.25,4.37.47,5.16,1.44.84,1.03.75,2.32,1.23,3.36.19.41.85.41,1.05.94.32.85.37,4.04.82,4.73,1.05,1.63,2.5.77,2.7.91.18.12-.19,1.1.77.8,2.52-4.01,1.59-9.08-.88-12.92-.6-.92-4.66-4.68-5.56-5.2-.55-.32-1.57,0-2.01-.58l-.15-2.63.88-.43c-3.07-3.08-6.5-5.23-8.91-8.91-.43-.65-1.38-2.27-1.08-2.92-1.1-.95-3.35-4.95-3.35-6.25s1.23-1.92,2.33-2.29c1.17.73.8,2.49,1.2,3.38.21.46.79.52,1.09.9.27.34.2,1.05.4,1.23.31.27,1.22.08,1.72.37.58.34,2.43,1.96,2.86,1.6l-.93-3.27c1.77.93,1.25-.28,1.75-.44,4.46-1.44,5.83-.25,9.71-.49,7.3-.45,16.45-2.5,22.8-5.67,1.34-.67,3.02-1.97,4.44-2.92.32-.21.39-1.04.92-1.21.84-.27,1.96.5,2.04.44.06-.05.13-1.08.47-1.54,1.01-1.37,3.13-2.28,3.63-2.79,2.39-2.43,4.98-13.31,4.7-16.81-.49-6.15-1.97-7.69-6.7-10.88-.48-.32-1.15-1.5-1.24-1.53-.3-.1-.89.31-1.31.12-1.08-.49-3.05-1.82-4.12-2.03-1.23-.24-4.45.62-5.95.83-2.15.3-4.32.56-6.08.56-.62,0-1.33.48-1.8.42s-.81-1.74-1.4-2.22c-.37-.31-4.7-3.48-4.98-3.61-1.95-.88-1.65-1.1-2.71-1.69s-9.09-2.33-9.69-1l-1.18-.42-.42,1.34c.84,1.21,2.63.45,2.73.56.09.1-.02.99.5,1.6,1.34,1.57,4.48,3.4,5.91,4.63,1.18,1.02,2.2,2.64,3.87,3.18.35.61-.96,1.84.34,2.21,1,.28,6.31-1.02,7.78-1.38.41-.1.18-.83,1.02-.94,1.25-.17,3.55-.38,3.78.97l.98-1.43c3.53,1.02,7.29.82,10.25,3.3,2.12,1.78,4.77,6.55,5.3,9.26.04.22.07,3.44.01,3.61-.09.26-.74.19-.95.9-.55,1.87-.87,3.18-1.91,5.05-.1.18-2.38,3.03-2.54,3.2-1.73,1.82-12.35,5.96-14.82,6.09-.29.02-.17.71-.99.97-3.85,1.22-15.45,1.34-19.65.85-4.74-.56-9.46-2.31-13.44-3.76-.46-.17-.36-.71-.71-.83-.26-.09-1.41.14-2.02-.33-2.46,1.82,1.47,2.85.24,5.42-2.93-.12-1.91,1.58-2.34,2.32-.3.51-7.8,7.18-8.33,7.39-.4.16-.89-.26-1.29-.09-1.08.46-1.43,2.56-3.4,2.01-3.75-1.04,1.65-4.04,2.17-4.62.18-.21,2.77-4.44,2.85-4.7.81-2.48-.46-6.73-1.59-9.01-1.45-2.92-4.99-7.22-7.22-9.49-.9-.92-1.65-2.32-3.1-2.07.19,1.85,1.2,4.04,1.2,5.85,0,.37-1.11,5.29-1.25,5.54-1.98,3.64-5.73,4.52-8.62,6.86h-.69s-.24-.94-.24-.94l-.26.58c-1.35,1.18-1.78-.15-1.25-1.39.14-.32,4.29-4.09,4.89-4.94-.26-1.48.88-1.69,1.14-2.39s.24-5.16.14-6.14c-.27-2.82-2.52-11.07-4.6-12.7-.71-.56-4.29-1.74-4.68-2.61-1.01-2.25,1.13-3.23,1.15-3.86.02-.71-.46-3.35-.73-4.01-.69-1.68-4.8-4.23-5.3-5.47-.59-1.44-.66-3.2-.64-4.6,0-.27-.79-.16-.87-.53-.23-1.03.4-2.44-.03-4.07-.47-1.77-1.63-4.34-2.29-6.15l2.12-.75,1.83,1c2.21-1.99,2.42-6.83,1.02-9.22-.72-1.22-5.07-4.92-5.32-5.59-.17-.44.06-3.6.3-4.17.35-.83,1.2-1.41,1.35-1.96.36-1.24-.6-3.13,1.02-2.96-2.36-2.92.45-6.3.48-9.35h-2.34s.46-1.4.46-1.4c-1.92,1.24-1.81-.3-2.1-.37-.33-.09-5.86-.94-6.17-.91-1.97.18-5.26.98-6.87,1.45-1.38.41-5.41,2.28-6.24,3.23-1.49,1.7-2.78,6.51-3.97,8.85-.62,1.2-1.66,3.13-2.32,4.26-.76,1.29-2.37,4.85-3.7,4.08.96,2.79.08,1.38-.79,1.99-.26.18-1.22,1.67-1.77,2.25-1.08,1.12-1.23,1.64-1.32,1.74-.8.87-3.08,2.06-3.17,3.17,2.19,6.04,7.2,10.2,12.96,12.79,1.85.83,3.84,1.38,5.79,1.94l-.51,1.83c-2.09-.04-3.8.72-6.32.54-1.9-.14-3.76-2.01-4.43,1.08,1.94,1.59,5.03,6.98,3.74,9.3-.2.35-.55.41-.91.36,2.13,2.32-1.34,2.82-1.16,5.18-2.12-.21-.59,1.4-1.84,2.35-.61.46-1.56.24-2.01.56-.4.28-.58,1.07-1.46,1.58-1.33.76-3.82,2.18-5.11.97s1.95-3.57,2.64-4.95c.88-1.74,2.02-5.69,1.72-7.6-.06-.39-1.66-5.15-1.83-5.43-.28-.47-4.26-4.11-4.86-4.25-2.59-.61-4.66.58-6.94.39-.78-.06-.89-1.83-1.61-.98-.61.71,2.41,3.3,2.32,4.36,1.49.73,3.24,2.41,4.25,3.43.72.73.69,2,1.08,2.81.09.19.7.23.91.74.31.76.29,7.91.07,8.85l-4.43,5.54-.93-.93c.75,1.39-5.47,4.95-5.92,5.04-.51.1-1.17-.37-1.73-.36-.88-.26.91-2.88,1.28-3.31.48-.57,1.38-.82,1.86-1.42,6.51-8.17,2.4-15.05-3.65-21.78-.58-.65-.81-.78-1.66-1.83-.95-1.17-2.23-.27-1.15-3.46.58-1.72,1.88-1.23,2.48-2.2.64-1.05-.04-4.41-.52-5.45-.3-.65-1.05-.69-1.15-.92-.31-.67-1.34-4.31-1.61-4.49-.43-.3-1.74.1-2.45-.05-.49-.1-.02-1.44-1.24-.95v1.41c-2.51-1.27-.95,1.38-2.34,2.8,2.08.22.79,1.23,1.01,2.46.55,3.01-.12,3.43.06,5.22.35,3.41,4.29,7.56,5.24,11.32.09.34-.36.97-.22,1.15l.89-.45c1.03,1.4.49,2.51.59,3.5.03.29.74.16.83.51.87,3.25-2.27,11.02-4.34,13.59-1.77,2.19-4.24,1.71-6.03,2.51-.55.25-.49,1-1.04,1.21-1.59.6-3.65.14-4.72-1.22l-.24.92-3.39-2.34c-1.33-.78,1.42-1.78,2.27-1.82,1.56-.06,2.66,1.17,3.24,1.19.66.02,4.35-1.79,4.8-2.3.85-.95,1.42-3.32,1.95-4.22.25-.43,1.09-.4,1.25-1,.93-3.26-1.16-11.03-2.54-14.16-1.51-3.42-4.56-6.47-4.55-10.47,0-.53.68-1.31.67-2.12-.04-2.11-.12-6.01-.89-7.81-.11-.27-3.88-2.74-4.14-3.87-.09-.41.44-1.09.29-1.72-.48-2.01-1.2-4.38-1.73-5.86-.88-2.44-1.87-5.06-2.38-7.6l-.93.47-.55-3.21c-.91.04-2.11-.48-2.91-.4-1.49.14-4.67,1.03-6.2,1.13-1.79.12-5.81-.55-7.44-.23-.28.06-.19.65-.58.79-4.74,1.75-3.29,1.45-5.89,5-2.65,3.61-4.96,6.44-7.05,10.07-.74,1.29-1.26,2.92-1.97,4.14-.21.36-1.08.4-1.16.81-.14.72.41,1.34.45,1.82.02.22-.79.17-1.05.79-.31.76-1.24,3.6-1.51,4.53-1.58,5.35-2.25,11.92-3.47,16.73-.38,1.51.41,3.08.34,4.47-.28,5.77-2.12,12.28-3.9,17.64l-2.56,4.47c1.32,2.71,9.28-1.25,9.8-2.47.65-1.53.51-3.46.81-4.79.18-.82,2.1-2.32.65-4.19,3.07-.26,1.32.36,1.55,1.58.93,4.89.96,9.84-.65,14.45-.16.45-.9.31-.9.63l.47,1.12c-2.39-.26-2.51,2.82-2.34,4.68,2.21-.31,5.47.98,7.35-1.08,4.54-4.98,4.68-7.7,6.03-13.9.13-.59-.13-.9-.27-1.4.88-.18.92.22,1.27.83,2.18,3.82.17,9.21-1.28,12.97l2.09,1.58c1.88-.91,4.33.43,6.22-.54.27-.14,4.15-4.12,4.3-4.39.6-1.11.04-3.08.18-3.34.05-.1,1.51-1.48,1.62-1.5,1.19-.29,2.55.48,2.94,1.65-1.89.5-.28.52-.1,1.46.09.47-1.09,4.35-1.41,5-.23.47-2.24,2.38-2.4,2.76-.5,1.2-.14,2.55-.43,3.78-.82,3.51-2.58,7.44-6.9,6.42l-.23.94-.47-.95-.23.94c-.65.3-3.24-.73-3.9-.77-1.05-.06-2.75.64-2.89.63-.46-.05-3.78-2.65-5.28-2.12-.74,1.73-2.31,1.68-2.38,3.93.92.55,3.42,3.39,3.56,4.27.15.95-.88,2.99-1.99,2.98-1.31-.01-5.05-6.07-7.26-5.64l.47-1.4c-4.03-.37-6.91-2.6-11.23-2.34-.3.45.88,5.29,1.21,6.05.48,1.14,5.06,4.23,2.26,5.14-1.83.59-1.82-1.05-2.15-1.23-2.07-1.14-2.37-1.05-4.54-2.78-1.7-1.36-2.2-2.28-4.38-3.9-.46-.34-.6-1.04-1.1-1.35-.94-.58-4-.94-5.14-.93-.12,0-.17,1.17-1.59.63l-.78.93c.04,1.72,1.54,3.1,1.68,4.75.25,2.96-2.58,2.4-2.33.18-1.79,1.06-1.18-.13-1.73-.46-2.06-1.22-6.89-4.9-8.65-5.32-1.22-.29-2.02.88-2.52-.78l-2.54.48.96,3.92c-.15.94-3.96.26-4.6-.04-1.09-.52-1.46-3.34-2.92-2.72-1.92.82-1.59,4.94-1.4,6.8-5.84-.44-4.04-6.82-6.88-9.83-1.89-.28-3.17,1.46-2.96,3.27-4.36.46-2.72-2.05-3.25-4.34-.1-.43-1.18-.61-1.64-1.27-6-8.63-5.26-25.33-4.48-35.35.07-.9.36-3.34.74-3.96.6-.98,1.76-.12.68-3.28,3.48-.04,1.43,4.94,1.36,7.25-.02.68.13,2.9.82,3.06,1.37.32,2.69-.02,3.34-1.29,1.47-2.9,2.46-7.33,2.88-10.69.2-1.57-.29-3.73.03-5.04.08-.34.79-.31.82-.39.16-.37-.46-.11.36-1.51.55-.94.57-1.82,1.93-2.09l1.05.72c.28,2.68-2.14,6.75.98,8.12-.17-1.45.69-.36,1.73-.79,2.49-1.04,1.84-2.41,2.34-3.77.85-2.35,2.91-5.87,3.43-8.81.19-1.07-.66-5.08.11-5.7,2.68-1.85,3.81,2.55,5.96,3.38.57.22,2.07-.24,2.6-.68.29-.33,1.59-8.03,1.6-8.72.02-1.29-.88-2.28-.86-3.23.03-1.16,1.29-3,.44-4.9,1.24-.19,3.11-.24,4.23-.69,1.36-.55,1.17-2.01,2.79-1.66-1.45-1.38-.67-2.84-.96-4.42-.26-1.44-1.45-4.38-1.61-5.63-.1-.76.38-2.07.28-2.99.85-1.39,3.52,1.6,3.94,1.7.79.2,2.25-.63,3.03-.83v-.93s-.93.48-.93.48c.6-1.25-.79-7.6-1.53-8.3ZM290.57,73.87c.36-.49.49-.66.4-1.3-.27-2.07-2.62-7.34-4.91-7.91-.62,1.89.19,5.07-.13,6.66s-.66,2.33-.95,4.2c-.35,2.28-1.96,6.66,2.2,5.88.15-.03,2.45-1.72,2.53-1.86.25-.46.06-1.58.22-2.36.23-1.13,1.4-.99-.13-2.92-.03-.37.61-.17.78-.39ZM110.83,72.32c-1.83-1.79-8.08-4.94-8.73-.88.38.5.99.61,1.4,1.09,1.3,1.53,2.69,4.29,3.71,5.43.41.45,1.13.17,1.34.4.29.32-.12,1.24.34,1.33.99.2,2.03-.48,2.83-.45.98.04,1.48,1.48,3.05-.35.09-.49-1.13-2.97-1.47-3.52-.17-.27-2.25-2.83-2.47-3.04ZM209.56,71.43c-.54-.26-1.1-.48-1.67-.68-1.25,2.93-.04,2.26.68,3.29.12.17,1.04,3.28,1.14,3.62,1.06,3.36,1.72,6.5,2.38,9.95,1.98-1.24.99.58,2.56.93.73-.15,2.72-5.3,2.58-6.28-.04-.28-1.56-5.18-1.7-5.43-.7-1.25-4.78-4.81-5.99-5.4ZM297.67,70.88c-.42-.23-.86-.12-1.3-.13.12.84-.36,1.72-.3,2.51.08,1.2,2.65,6.44,3.54,7.47.41.48,1.33.45,1.91.79.18-.18.37-4.22.26-4.69-.16-.66-3.58-5.65-4.1-5.94ZM293.43,83.56c-1.96-.92-5.56,1.65-5.41,3.73.03.41.55.85.62,1.25.3,1.77.98,3.6,1.07,5.84.03.67-.7,2.13-.34,2.53,3.06.86,4.18,2.4,5.9-1.25.52-1.09,1.36-4.73,1.53-5.98.02-.12-1.29-.29-1.41-1.88l.95-1.13c-1.74.05-1.67-2.52-2.92-3.11ZM306.19,102.11c-.82-3.07-.97-6.77-5.15-7.02l-.27,3.77c1.89.12,1.43,1.42,2,1.84.34.25,3.09,1.66,3.41,1.4ZM233.99,96.14c-.81-.69-3.73-.54-4.69-.11-2.29,1.01,2.33,10.89,6.39,7.99.31-.22.24-.84.47-1.25.12-.21.78-.19.77-.44-.02-.55-.64-.88-.74-1.39-.07-.36.31-.91.24-1.3-.02-.14-1.6-1.78-1.85-2.1-.3-.38-.26-1.12-.59-1.4ZM289.48,101.93c-.16-.05-.17-.75-.35-.74-3.25.28-3.74,5.74-2.95,8.06,1.06,3.08,8.12,5.24,8.11.58,0-.63-1.06-4.67-1.36-5.47-.86-2.33-1.5-1.76-3.45-2.43ZM302.76,109.34c-.61-.2-2.18-.83-2.67-.48l-.37,3.03c1.55-.51,2.31,2.32,2.56,2.4.97.33,2.86.31,3.91-.01.48-.65-1.86-2.99-2.19-3.45-.28-.4-.08-1.12-.16-1.23-.03-.04-.59.42-.81.31-.12-.06-.14-.53-.27-.57ZM329.3,115.06c-.36-.51-.3-1.19-.84-1.73-.65-.65-2.28-1.08-3.07-1.85-.87,1.57-1.11,4.06-.46,5.72.11.27,3.46,4.21,3.71,4.34.34.19.85-.24,1.12-.2.41.05.13,1.22.99.9,2.05-.76.22-5.21-.52-6.51-.18-.31-.76-.41-.94-.67ZM303.12,122.54c-.89-1.59-2.46-4.01-2.13-5.62l-4.81-2.09c-1.15,1.37-2.63,2.16-2.62,4.14h1.41c-.9,2.14.67,2.43,1.44,3.95.55,1.1,1.07,2.93,1.64,3.95.26.47,1.7,2.81,1.86,2.86,1.91.28,1.5-1.2,1.91-1.87.19-.32.94-.37,1.02-.52.11-.2-.52-3.52,1.01-4.4.05-.25-.61-.18-.73-.39ZM337.55,125.05c-1.87,2.01-2.57-.32-4.62.05l-.52,1.13.94.69-.93.23c.82,1.77,1.77,3.37,3.26,4.7,1.25,1.12,5.11,3.1,5.49,3.63.7.95-.09,2.62,2.01,2.21l.12,2.68c.27.27,6.13,2.79,6.57,2.8,1.05.03,7.92-.98,8.88-1.31.23-.08,3.01-2.43,3.14-2.7,1.64-3.33-1.37-4.05-3.97-4.29-5.58-.52-6.01.27-11.22-1.77-2.27-.89-1.9.73-4.14-2.47-.96-1.38-.66-.57-1.75-1.59-1.16-1.09-2.81-2.53-3.26-4.01ZM310.87,137.69c.48-3.3-3.37-6.41-6.29-5.62l-1.66,3.75c1.93-1.52,2.11,1.63,2.34,1.87.14.15,1.08-.41,1.57-.34,1.25.18,2.22,1.07,4.04.33ZM319.49,144.07c-1.18-2.49-2.84-5.12-6.06-4.06l-.2,1.88h1.39c-1.93,2.51,3.52,5.58,5.08,4.62,1.51-.93-.14-2.31-.21-2.44ZM153.95,145.75c-1.02-.46-6.22,3.03-6.91,4.35l.81.31-.33.84c1.44.2,2.49,1.31,4.01,1.63,2.22.47,6.38-.12,8.35-1.19.65-.35.66-1.82,2.14-1.36-1.07-3.31-4.48-2.71-7.31-3.67-.71-.24-.67-.87-.76-.91ZM189.04,154.19c-.64-.21-4.66.17-5.68.23-2.49-1.19-4.98-2.34-7.75-1.73-.87,3.42.74,6.7,4.47,6.95.2.01,3.08-.15,3.24-.18,2.11-.42,4.66-3.72,6.78-3.99-.07-.25-.98-1.26-1.05-1.29ZM165.25,155.05c-.5-.31-4.03,2.74-5.56,1.36l-.48,2.8c3.44,1.04,6.25,1.17,9.79.43l.12-1.29,1.32-.08v-1.4c-1.47.08-3.24-.11-4.56-.8-.7-.37-.56-1-.62-1.04ZM360.34,195.91c-.56-.26-3.38-.85-3.59-.64.07,3.2,1.32,5.7,3.49,7.98l4.47,3.24c-.83-1.16.32-.82.43-1.3.2-.89-.26-5.76-.64-6.2-.41-.47-1.31-.29-1.57-.58-.29-.31.01-1.08-.09-1.29s-1.02.49-1.34.39c-.09-.03-.73-1.41-1.16-1.61ZM362.35,214.47h-1.86s.93,1.16.93,1.16l-1.85.74c-.04.78.91,2,.9,2.53-.01.72-.95,1.2-.92,2.29.04,1.4,1.6,3.56.94,5.44,2.22-.04,4.11,1.94,6.66.94,1.97-2.77,1.21-3.84-.77-5.92-1.49-1.56-3.29-3.39-4-5.68-.14-.45.02-1.02-.04-1.51ZM362.84,236.47c-1.83-.51-2.92,1.39-3.47,2.85-.99,2.6-.71,8.05.71,10.45.27.46.83.6,1.27.82l-.38.85c2.48-.31,4.51,2.64,6.55.23,1.66-1.96-2.2-4.4-3.42-5.86-.15-.18.06-.65-.05-.8-.27-.36-1.66-1.17-1.67-1.35-.02-.68.7-2.15.81-3.24.18-1.73-.95-2.58-.34-3.96ZM164.62,239.94c-.47-.35-1.46-1.54-1.88-.63l-3.59,8.62,5.03,4,2.08-.73.1-1.57.81-.3c-1.64-.95-.17-3.61-.19-4.21,0-.35-.69-1.13-.84-1.83-.38-1.75.46-1.88-1.51-3.36ZM363.3,260.34c-2.24-.13-4.48,2.89-5.37,4.72-.22.45.16.92.06,1.26-.03.09-.73.07-.77.38-.13.96.47,5.25.83,6.14.99,2.39,4.85,4.58,7.35,4.37.89-.07,2.58-2.7,2.55-3.53-.13-3.45-3.98-2.65-4.67-3.87v-9.47ZM225.03,283.01c-4.94-2.05-9.82-3.95-14.65-6.21-.88-.41-2.16-1.74-2.83-1.87-.29-.06-5.62-.04-5.9.05-.64.2-1.13,1-1.93,1.32-.88.36-1.69-.02-2.01.11-.48.19-7.54,6.4-7.8,6.84-.23.38.31,2.01-1.2,2.59l.93.46c-3.31,4.64-3.79,11.75-1.71,16.93.28.69.79,2.3.87,2.42.1.15,2.23,1.65,2.7,2.3,5.4,7.43,3.42,18.24-1.27,25.29-.48.72-1.26.97-1.69,1.62-3.57,5.36-.37,8.61-2.2,12.63-.23.49-.98.32-1.25,1.63-.42,2.09.04,11.15.31,13.5.09.82.28,1.34.96,1.85l-.93.69c1.53-.21.51,1.04.84,2.16,2.07,7.04,5.38,12.77,3.27,20.45l-4.92,7.03c-.57,2.33.71,3.33,1.47,5.05,1.75,4,4.11,5.4,4.68,10.19.28,2.31-.42,4.02.72,5.91.26.44.71,1.41,1.16,1.48l20.74-.91c1.62-1.15.69-2.43,2-2.9-2.48-6.15,1.07-12.99,3.89-17.67,1.99-3.3,1.91-2.81,4.4-5.18.48-.46.28-1.35.92-1.79.15-.11,2.59-.96,3.32-1.29,6.18-2.83,10.07-3.89,16.75-3.37.35.03,5.9-2.34,6.29-2.56s.39-1.07,1.06-1.31c.57-.21,1.35.27,1.64.08.41-.27,3.5-3.18,4.32-3.9,9.7-8.44,18.3-17.71,23.09-29.34.45-1.1,1.92-3.62,2.09-4.48.35-1.7-1.83-7.21-2.06-9.35-.35-3.25.28-8.68,1.46-11.84.76-2.03,3.05-5.45,3.67-7.49.28-.92-.32-2.52.78-3.53-1.15-.26-.55-.85-.92-1.36-4.52-6.33-11.57-10.76-14.99-16.95-.32-.58-1.21-2.07-1.36-2.4-.65-1.44-3.02-9.05-3.44-9.34-2.31-1.61-3.22.63-4.68,1.43-1.08.6-4.67,2.38-5.8,2.62-3.44.75-7,.32-10.18.53-.98.06-1.95.87-2.42.92-.2.02-.16-.84-.52-.93-.98-.23-3.44-.4-3.64.88l-4.65-.42-.76.94c.23-1.47-3.54-1-4.87-1.54-.61-.25-2.77-1.59-3.74-1.99ZM343.82,301.36c-1.71-1.91-2.64-2.38-4.86-3.73-3.37-2.06-6.81-3.55-10.74-4.32-2.93-.57-3.95.77-4.86,3.54-.71,2.18.62,8.78,1.57,10.86.27.58,2.53,2.79,2.96,3.64.96,1.9-.54.79,1.56,2.46,2.38,1.9,2.38,6.53,2.6,6.84.86,1.2,2.01,1.75,2.45,3.83.68,3.22-2.24,14.05-3.9,17.15-.58,1.08-4.38,6.54-5.07,7.21-.83.79-4.12,2.04-5.43,2.87-5.22,3.32-8.63,9.06-13.73,12.69-.3.22-.37.84-.66,1-.63.36-1.61.14-1.8.31-.42.37-3.01,10.27-3.42,10.65-.2.19-.89,0-1.24.11.62,2.03-1.4,3.47-1.78,4.27-.55,1.15-1.93,7.46-2.32,9.11-.74,3.07-1.15,8.6-2.39,11.25-.51,1.09-2.87,2.09-3.29,3.74-.14.54-.57,3.68-.54,4.13.03.54.55.95.71,1.49.09.31-.27.81-.17.97.08.13,2.12,2.08,2.25,2.17.67.44,4.04,1.25,4.85,1.19.31-.02-.16-.98,1.9-.96,9,.08,16.23,2.32,25.63.36,1.65-.34,2.18-.95,3.63-1.27,0-1.2-.56-2.29-.51-3.51.07-1.61,1.11-3.81,1.43-4.79,1.8-5.48,2.08-7.72,6.89-11.75,3.27-2.74,5.18-3.37,8.83-4.7,5.63-2.05,11.25-18.6,12.17-24.15,1.21-7.25.5-15.96-1.32-23.05-5.64-5.69-9.13-11.19-9.9-19.35-.09-.92-.23-5.07-.09-5.74.26-1.27,1.86-2.68,2.08-3.46.1-.37.42-3.87.37-4.14-.07-.47-.88-.87-1.09-1.5-.98-2.98-.59-3.01-2.75-5.43ZM301.02,298.74c-1.19.62-1.64-.81-2.77-1.2-.73-.25-3.34-.81-3.99-.72-.86.12-2.92,2.64-3.03,3.59-.06.49.32,4,.49,4.48.28.78,4.18,3.39,5.12,5.31,1.92,3.9-1.04,3.77-3.24,5.65-2.31,1.98-2.74,5.03-3.29,7.93.65,6.19,1.47,12.38,6.02,16.93l-.66,4.36c-.81.98-2-1.24-2.81-1.25-2.96,1.09-2.21,3.76-3.15,6.06-.32.78-5.73,8.8-6.21,9.24s-1.04.49-1.64.47c.84,1.93.07,1.09-.64,1.9-1.66,1.89-1.67,1.66-2.89,3.69-1.87,3.1-6.29,5.46-8.48,7.66-1.06,1.07-2.33,3.84-4.06,5.32-.57.49-1.69-.5-1.23,2.03-6.44-.95-2.5,8.16-4.34,10.16-1.08,1.18-4.1.94-5.26,1.17-.3.06-.05.77-.9.87-5.88.71-12.18-.3-17.79.49-3.76.52-8.63,3.47-10.58,6.62-.17.27-.75.34-.79.44-.08.18-.54,3.71-.54,3.9.03,1.55,1.7,2.52,2.77,1.84.7-.45.65-1.66,1-1.97.18-.16,3.26-2.74,3.47-2.86,1.16-.68,8.12-3.23,9.22-3.21.72.01,1.52.59,2.17.6,1.11.02,3.41-1.75,4.71.45.01.58-2.98,1.84-3.63,2.02-1.72.46-1.51-.38-3.99,1.12-1.39.84-5.36,4.63-6.15,5.97-.25.43.35,1.7-.26,2.35,1.99.93,3.99-.6,5.61.94-.09-.98,3.34-5.72,3.86-5.96.65-.3,1.46.04,1.88-.14,2.5-1.13,4.69-2.4,6.64-3.54,1.66-.97,7.24-.83,9.33-1.55l.77,1.13c-.65,1.13-2.08.84-2.9,1.22-2.01.93-4.27,1.39-6.08,2.32-.17.09-2.84,2.29-2.98,2.51-1.07,1.62-2.75,5.87-.94,7.33.81.66,5,1.06,6.13.95,1.01-.1,4.67-4.59,6.32-.74-2.97,1.28,2.32,1.67,3.54,2.53.6-1.48,4.26-.66,6.05-.91s3.93-.79,4.95-2.56c.36-.62.05-1.28.33-1.95.64-1.52,2.36-4.82,2-6.37-.31-1.32-6.31-3.93-6.9-4.7-1.55-2.03-1.28-4.88-.03-7.02,2.14-3.67,5.7-3.42,8.73-4.82,2.46-1.13,2.19-2.46,3.13-4.38.37-.75.51-1.08.88-1.87.59-1.27,3.12-7.35,3.63-7.88.53-.56,1.66-.07,1.71-.14.17-.22.05-1.1.49-1.61.84-.96,3.19-2.52,3.94-3.49.4-.53.5-2.6.88-3.37,3.33-6.84,4.66-8.84,6.67-16.3.33-1.23,1.33-1.9.72-3.25,2.53-.57,4.45-.04,6.82-1.42,1.76-1.02.88-1.41,1.6-2.49,1.52-2.27,1.83-2.48,1.92-5.75.02-.84-.86-.57-.97-.98-.6-2.44.64-4.08,3.08-4.36,3.9-.44,1.93,1.46,5.69-1.9.29-.26,1.02-.22,1.38-.58,1.51-1.49,2.06-8.08,1.73-10.23-.67-4.29-3.66-4.25-6.51-1.82-1.98,1.69-2.09,6.63-4.57,6.02-2.2-.54-1.33-4.16-1.79-5.7-1.46-4.88-5.14-8.34-7.06-13.1-.22-.56-.41-1.12-.38-1.73l-.91.46-.98-4.19ZM171.73,300.72c-1-.42-2.95.01-3.11,1.1-.02.17.71,3.17,1.35,2.52-1.77,2.1-.27.97-.01,1.73.85,2.48-.27,8.1-1.08,10.6-.9,2.75-2.4,4.17-3.57,6.27-3.1,5.57-1.46,4.81,1.42,9.47l1.37-.45c1.68,4.96-1.16,5.78-3.56,8.61-.43.51-.26,1.79-1.58,1.7l.93.69c-1.06,1.31-1.68,4.41-1.8,6.15-.2,2.86.92,9.05.67,11.18-.06.54-.94,1.14-1.11,1.97-.79,3.89-.91,7.83-2.39,11.15s-3.18,5.39-3.76,8.9c-.13.76.61,5.2.94,5.93.82,1.83,6.58,3.26,3.03,5.53-.37.24-3.09,1.75-3.28,1.74-1.07-.03-4.78-1.6-6.1.11l-.46-.94c-.78,1.33-2.49.36-2.94.57s-3.27,2.31-3.84,2.94c-.42.47-3.06,4.83-3.1,5.13-.13.88.46,4.48,1.17,5.1,1.59,1.41,3.48-2.01,4.63-2.97,1.68-1.41,7.29-3.75,9.21-4.27,2.1-.57,5.1.22,7.27-.89.11,1.28.88,2.23-.47,3.08-.8.5-1.5-.58-2.09-.56s-7.03,3.07-7.77,3.77c-1.25,1.2-2.69,4.91-2.31,6.49.08.35.73.31.9.69.26.63.09,1.9.62,2.34.29.24,1.32.3,1.93.63,3.11,1.66,6.59,1.58,10.38,1.37,1.74-.1,3.16-1,4.82-.6,1.35-1.99,3.2-2.1,4.5-4.6,3.06-5.89.55-7.95-2.53-12.74-1.02-1.58-.58-1.14-1.04-2.11-.06-.13-.75-.11-.99-.69-.3-.72-.95-3.76-.7-4.34.18-.41.91-.37,1.17-.92.16-.32-.39-1.38-.23-1.58,1.69-2.1.41-1.05.93-2.32.04-.09,1.27-.77,1.58-1.22.51-.73.61-1.76,1.29-2.47,1.16-1.21,4.88-2.95,5.01-5.11-.09-.9-.94-.54-1.13-1.69-.15-.93.5-1.27.42-1.81-.4-2.94-2.4-8.07-2.57-10.53-.13-1.89,1.12-7.01,1.22-8.89.02-.42-.67-3.07-.32-4.13l.95-.31c-1.49-1.39-.11-1.75-.01-3.06.14-1.89-.08-3.84.19-5.71.17-1.2,1.41-3.59,1.25-4.49-.05-.29-.76-.26-.92-.67-.56-1.45-.25-3.9-1.12-5.59-.27-.53-2.63-3.33-3.28-4.22-.21-.29-1.11-.38-1.17-.81-.39-2.9,4.17-3.54,5.27-4.96.11-.15,1.73-3.03,1.83-3.25.33-.76-.12-2.12,0-2.96.07-.46.75-.84.79-1.48.02-.29-.86-.16-.96-.55-.6-2.53-.7-5.16-1.91-7.81-.48-1.06-3.02-5.46-3.82-5.8ZM153.53,336.6c-1.01-3.48-1.59.16-2.11.55-.89.66-3.38,1.27-4.58,2.35-1.07.97-1.12,2.98-1.52,4.08-.58,1.6-2.47,6.52-2.51,7.36-.02.5.55,1.39.52,2.3-.04,1.43-.96,1.87-1.2,2.83-.43,1.73-.47,11.63-.22,13.54.09.71.77,1.21.89,1.92.5,3.01-.98,6.61,3.6,7.24,1.26.17.94-.52,1.31-.75.34-.21.91-.15,1.06-.3.46-.46.22-1.78.73-2.15.33-.24,1.16.02,1.29-.08.05-.04-.39-.65-.21-1.35.3-1.15,1.42-1.91,1.57-2.29,1.29-3.22,1.88-6.78,2.63-10.16.14-.64-.99-1.79.67-1.65v-.92s-.92-.23-.92-.23c1.78-1.33.25-2.83.14-4.79-.14-2.47.68-7.11.1-8.9-.61-1.89-.57-4.17-1.09-6.5-.16-.73-.43-1.35-1.03-1.82l.88-.27Z"/>
        <path d="M126.85,214.52c.3.34.27,7.19.64,8.95s1.7,4.75,3.05,5.58c-.3,2.33.97,4.83.81,7.19-.21,3.06-3.26,5.04-4.47,7.46,0,.27.76.21.93.59,2.06,4.52,4.02,7.71,4.55,12.6.09.8-.42,1.52-.23,2.62.17,1.01,2.67,5.55,2.26,5.97-1.44-.57-1.63,1.26-2.13,1.39-.56.15-6.72-4.04-6.78-4.45-.27-2.04,2.77-2.31,4.23-1.39,1.73,1.08-.86-2.27-.89-2.42-.17-.65-.28-4.66-.78-5.33s-1.78.06-.67-1.85l-1.41-.02c.82-1.73-.75-1.73-1.33-2.61-.93-1.43-.93-2.33-1.47-3.58-.14-.32-.91-.12-.99-1.02-.31-3.14,4.48-4.7,5.38-8.16.08-.3.17-4.3.1-4.52-.16-.5-.8-.48-1.07-.85-.21-.28-.06-.86-.29-1.1-.26-.28-1.99-.68-2.57-1.85-1.56-3.14-2.56-10.16-.12-13.04.71-.84,2.84-.62,3.24-.16Z"/>
        <path d="M131.91,315.9c.27-.22.43-.81.9-1.21.4-.34,1.25-.34,1.49-.6.09-.1-.38-.7.08-1.07.14-.11,2.1-1.06,2.22-1.08,1.3-.18,4.01,1.67,4.38,2.95.56,1.91-.67,5.45-1.88,6.92s-7,3.32-9.1,3.11c-1.95-.2-6.91-2.43-8.25-4.08-.56-.68-.66-1.6-1.09-2.3-.27-.43-1.25-.55-1.5-1.54-.05-.21.77-3.95.99-4.24.08-.12,1.74-.7,1.84-.69,2.46.16,3.85,2.98,5.38,3.69.58.27,3.96.64,4.54.15Z"/>
        <path d="M91.66,175.28c1.39,1.41,1.71,4.49,2.52,6.04.23.44.83.52,1.04.95,1.73,3.45,3.03,7.36,2.19,11.29-.08.36-.82.24-.85.53-.18,1.99-.53,3.07-2.12,4.76-3.38,3.59-7.65,5.04-12.47,3.44.25-2.64,3.35-2.51,4.79-3.3,3-1.66,4-5.37,5.93-7.77.81-5.92-1.87-10.23-4.17-15.4-.44-2.24,2.34-1.35,3.14-.53Z"/>
        <path d="M67.59,155.82c.18.29,1.02.3,1.21.88,1.85,5.77,2.85,9.93,1.74,16.5-.24,1.42-.29,2.61-1.11,4.13-.38.7-.84,1.43-1.36,2.04-4.17.45-6.9,3.1-11.02.78-.58-.33-1.04-.41-.8-1.25,1.66-1.31,4.01-1.36,5.76-2.43,4.69-2.9,5.63-7.66,5.02-12.87-.26-2.24-.16-.91-.47-1.92-.43-1.36-2.52-7.28-1.4-8.04h1.55c1.01.38.51,1.58.89,2.18Z"/>
        <path d="M68.86,189.18c1.84.91,2.25-.7,3.29-1.16.71-.32,1.52-.08,2.17-.41,5.2-2.67,5.74-11.75,5.29-16.91-.18-2.05-1.32-4.52-1.41-6.08-.11-1.74,2.38.28,2.85.92.21.28.73,2.36.85,2.87.46,1.97,1.76,9.07,1.75,10.8,0,2.89-.99,7.81-2.61,10.24-.32.48-2.76,2.22-3.28,2.35-.79.2-1.46-.34-2.1-.25-.71.09-1.2.76-1.92.9-2.26.43-5.34-.57-4.89-3.26Z"/>
        <path d="M60.74,157.68c-.21.65-2.07,2.95-1.95,4.39-1.92-.09-.74.85-1.45,1.41-.3.24-1.91.58-2.06.42-.44-1.05.69-2.02.74-2.59.16-2.16-.42-6.11-.26-8.37.02-.31.83-.22.92-.59.31-1.25-.07-3.33.58-4.72,1.09-.57,1.9-1.07,2.59.24,1.2,2.27,1.68,7.34.89,9.81Z"/>
        <path d="M133.79,274.99c.31.36.47,1.45.91,2.1.31.45.94.62,1.09.91,2.75,5.22,1.55,12.23-3.45,15.55l-1.09-1.14c1.29-2.15,1.17-4.69,1.65-7.07.54-2.71,1.56-1.81.03-4.96-.18-.38-.88-.4-.88-.66,0-.49.52-1.12.46-1.8-.09-1.16-1.4-1.99-.46-3.54.23-.17,1.49.33,1.73.61Z"/>
        <path d="M165.6,180.45c.92.79,1.67,4.47,1.4,5.58-.09.39-1.79,4.8-1.95,5.02-.89,1.24-3.07.99-3.74-.48-1.08-2.37,1.49-2.48,1.65-3.12.27-1.11,0-5.07-1.05-5.66-1.43-.8-1.78,1.18-1.77-2.44,1.9-.47,3.95-.21,5.46,1.09Z"/>
        <path d="M164.5,204.49c.23.32,1.04.41,1.25.84l-.94.93.94.53c.4,1.45-1.19,1.99-1.25,2.14-.13.27.19.81-.19,1.45-1.54,2.59-1.97,3.14-5.1,2.2,1.67-4.13,2.26-7,.47-11.23,2.83-1.14,3.61,1.44,4.83,3.14Z"/>
        <path d="M132.98,200.88c1.74,1.75-.58,6.64-2.51,6.06-.38-.11-1.64-2.27-1.69-2.56-.03-.2.6-.18.74-.41.46-.78-.11-1.54,1.6-1.22l-.48-1.4,2.33-.47Z"/>
        <path d="M85.11,32.05c2.64,1.15,9.16,5.53,10.84,8.1,1.16,1.78,1.76,5.02,4.31,6.03,1.21.48,1.63-.89,2.13.72,2.65-.87,4.84,1.23,7.65,1.4l.02,1.37c-1.83-.34-3.01,1.39-4.05,1.73-1.34.42-3.54.37-5.17.99-2.63,1-3.96,3.05-6.23,4.44-.87.53-2.72.6-3.51,1.74l-.46-.93-1.4,1.81c-3.97-2.34-8.54-.93-12.76-3.11-1.25-1.73-4.65-3.07-5.54-4.79-.33-.63-.18-.71.23-1.19,2.03-2.42,4.3,2.16,5.47,3.01,1.95,1.42,4.22,1.07,6.26,1.93l-.08-1.8c-4.05-.12-2.62-6.77-4.63-8.23-2.23-1.63-2.1-.02-2.98.29-1.32.47-5.37.62-6.5-.06-.44-.26-.41-1.04-1.01-1.26-2.45-.89-7.08,4.06-8.19-.16.18-.31,2.41-1.27,2.57-1.39.5-.37.63-1.28,1.18-1.65,1-.67,2.54-.12,3.68-.96,1.34-.97,1.2-2.08,1.92-2.8.54-.54,5.91-4.69,6.45-4.89,1.53-.58,8.48-.92,9.78-.35ZM91.3,44.06c.24-.81,1.17-3.02.7-3.75-.11-.17-2.85-2.45-3.03-2.54-2.55-1.27-5.59-.66-8.35-.68-1.83,2.8,4.1,2.18,4.63,2.77.13.14-.33.87-.28,1.16.27,1.31,5,2.76,6.33,3.04Z"/>
        <path d="M48.99,39.57c.21.03,3.65,1.95,3.75,2.14,1.37,2.61-2.63.98-2.86.97-1.24-.09-5.46.42-5.82-.73-.55-1.72,4.05-2.52,4.93-2.38Z"/>
        <path d="M52.01,57.17l-.46,2.58c-1.19.11-2.89,1.3-4.03,1.16-.84-.1-.8-1.32-2.06-.93.9-3.06,4.08-2.97,6.55-2.81Z"/>
        <path d="M104.44,19.25c-2.74,1.43-5.54,1.68-8.6,1.35s-2.58-.83-4.04-3.21c2.76-.64,5.29.63,8.04,1.07,1.58.25,3.79-.49,4.6.8Z"/>
      </g>
    </g>
  </g>
</svg>