<?xml version="1.0" encoding="UTF-8"?>
<svg id="_Слой_2" data-name="Слой 2" xmlns="http://www.w3.org/2000/svg" viewBox="0 0 388.55 426.09">
  <g id="_Дракон" data-name="Дракон">
    <g>
      <path d="M320.08.19c.26.11,3.84,4.03,3.79,4.32-.54.23-1.8,1.93-1.92,1.99-.34.16-4.18.38-5.13.7-2.92.98-10.93,6.7-13.64,8.85-2.06,1.63-3.96,3.45-5.6,5.65-.26.68.09,5.75.29,6.54.29,1.15,1.03,1.31,1.59,1.95s-.57,1.79,2.14,1.09l12.85-5.44,1.08.89v-1.87c3.25,1.08,6.28-2.84,9.37-1.88l-.48-.93c.46-.01.99-.04,1.41-.23,2.65-1.27,7.08-3.19,9.82-4.24,8.07-3.09,32.26-10.05,40.91-9.45.29.02,3.44.51,3.61.59.73.34.72,1.38.91,1.62.46.56.38-1.75,1.39-.93.09.07,1.34,1.67,1.39,1.78,1.9,4.03-1.36,4.44-3.94,5.38-4.27,1.56-9.06.58-13.01,1.84-.69.22-1.01,1.05-1.61,1.21-1.5.41-3.24-.03-5.28,1.26-.53.33-.74,2.72-1.61.24-1.15-.02-1.77,1.34-1.89,1.33-3.98-.37-5.17,2.06-8.51,4.21-2.14,1.38-3.23,1.38-5.07,3.82-.76,1-2.42,3.64-2.75,4.79-.54,1.9.82,3.87-.78,4.33.34.41.7.83.74,1.39.04.69.02,3.87-.52,4-1.49.36-9.03-3.51-11.25-3.2-.85,1.49-2.52,2.16-3.97,2.87-1.66.81-.53.83-1.19,1.32-.75.55-2.02-.51-3.4,1.64-.79,1.24-1.62,3.3-2.11,4.28-.06.12-.6.08-.71.43-.05.15-.44,3-.42,3.18.2,2.27,1.27,5.27,3.19,6.56,1.04.7,2.54.32,2.81.52,1.7,1.29,4.64,3.72,6.39,5.47.37.37.33,1.61,1.09,1.99l-.92.24v.93s1.3.28,1.3.28c.4,1.75.05,6.71-2.64,5.19-.21-.12.21-.99-.54-.78v.93c-.88-.5-3.05-1.61-3.99-1.65-2.47-.1-8.32,2.58-9.63,4.7-.87,1.4.12,2.97.4,4.34.26,1.23-.19,2.3,1.64,3.51,1.27.99.75,2.34.95,3.06.02.09.68.07.77.4.4,1.5-1.34,3.6-2.98,3.47-.22-.02-.22-.92-1.29-1.14-1.54-.32-2.53.91-2.99-.78-1.93,1.21-4.44.58-5.82,1.24-1.47.71-2.71,2.2-4.24,2.86-.65,3.77-2.34,8.07.69,11.18.87.89,1.85,1.17,2.7,1.62,1.15.61,6.72,5.76,7.3,7.12.2.46-.44,1.05-.32,1.24s.97.11,1.18.73c.06.18.46,3.38.47,3.8.05,2.02.03,4.02-1.94,4.89l-.3-.81c-1.93.85-1.83-1.08-2.35-1.43-.59-.4-3.45,1.05-3.43-.57-.28.3-.6.75-1.01.82-.46.08-2.6.13-2.89.22-.05.02-.1.6-.46.78-1.97,1-4.18,2.58-4.9,4.87-.1.31-.4,5.35-.34,5.62.06.24,1.56,1.57,1.64,1.7.29.44-.42,1.24-.24,1.43,1.77-1.08,1.47.54,2.2.96.64.37,6.21,2.04,2.96,3.46-.38.16-.87-.25-1.28-.09-.6.24-1.09,2.03-1.19,2.1-.32.26-.95.03-1.2.17-.16.09-.74,3.22-.76,3.62-.25,4.78,2.8,5.34,5.35,7.83.51.5.49,1.89.56,1.98.36.43,1.86.65,2.29,1.37.62,1.05,1.26,4.72,1.49,5.19.04.09.72.09.95.67.18.44.39,3.79.31,4.3-.3,2-2.04,2.51-3.88,2.15-.36-.07-.35-.73-.67-.94-3.68-2.31-6.66-5.62-11.06-2.74-1.06.7-1.93,2.27-2.28,2.62-.24.24-.97,0-1.17.2-.25.23-1.99,5.97-1.7,6.48,1.06.37,1.96,2.18,2.66,2.6.82.51,2.77.24,4.2,1.13.26.17,1.78,1.73,1.79,2.11-1.28,2.23-3.5,1.79-5.41,3.98-1.65,1.9-1.35,3.81-2.58,5.85l.95.51-.39.89c.02.29.69.18.95.9.59,1.66-.94,2.38,1.28,2.18-.21.59-.24.88.21,1.38.88,1,3.14,1.77,3.88,2.46.3.28.85,1.99,1.72,2.51,1.7,1.01,4.58,1.83,6.46,3.04.5.32,2.53,1.8,2.66,1.92s1.69,2.83,1.76,3.15c.25,1.27.38,4.14-.98,4.7-.36-1.2-1.23-1.04-2.09-1.66-.65-.47-.05-1.65-1.6-.68-.81-2.37-3.22.9-3.77-1.4-1.68,1.04-4.15.92-5.08,2.93-.48,1.04.58,2.36-1.22,3.45,1.01,1.72.62,3.35,2.33,4.56.49.34,1.25.25,1.81.57.34.19.4.86.86,1.12.96.53,7.32.29,8.21-.41.69-.55.45-2.98,2.56-2.28,1.93,1.98,1.78,5.89.37,8.12-.64,1.01-2.64,1.72-1.81,3.34.92,1.82,3.83,2.7,5.66,3.27,1.23.38,3.17-.22,2.91,1.06l.72-.96c2.55,1.67,2.23-1.56,4.43-1.62,1.49.68,2.41,4.65,1.83,5.95-.18.4-1.3.6-.91,1.78l-.93-.93c-.52.62,2.13,3.44,2.46,3.64.35.2,7.61.18,8,.07.34-.09.26-.77.62-.84,4.84-1.01,5.95-.68,9.93-4.11,2.54-2.19,4.94-5.02,6.55-7.94.7-1.27.78-3.15,1.94-3.68l-.94-1.42.93-.23c.26-1.22-.25-.71-.93-1.16,2.72-3.26-.47-8.53-.31-12.43-2.88-4.14-4.17-5.74-8.68-7.98-.44-.22-.47-.87-.96-1.05-.44-.17-2.56-.18-3.14-.11-1.34.14-4.57.92-4.7,2.14l-.92-.93-.74,2.35c-1.94-.61-3.52-1.15-4.29-3.18-.42-1.09-.53-7.94-.34-9.23.35-2.34,2.07-3.46,3.37-5.08.26-.33.05-1.01.17-1.2.15-.24,3.68-.63,5.1-2.17.44-.47.37-1.34.58-1.51.41-.35,2.49-.01,2.71-1.51l-.93-.24.95-1.4c-1.34-.39-2.26-3.83-2.92-4.33-.15-.12-.91.23-1.46-.09-.61-.37.21-1.42-1.92-.45l-.74-.98-.24.94-1.63-.94-.23.94c-1.36-1.76-7.53,1.87-8.15-.8-.44-1.87,2.87-4.54,3.38-6.1,1.85-1,7.83-3.42,9.72-3.18.75.1,2.36,1.04,3.28,1.37,1.19.43,2.7,1.32,3.57,1.53.7.17,1.55-.99,1.62.53l.62.09c.79-.27,1.94-2.73,1.98-3.58.06-1.46-1.93-3.15.13-3.67-1.93-2.66-2.05-6.95-2.84-10.17-1.53-6.25-2.86-12-4.37-18.72-.24-1.05.61-1.95-.74-1.78l.93-1.39c-2.23-.41-1.37-4.9-1.64-6.78-.08-.54-.77-1.07-.94-1.9-.27-1.29.84-2.83.59-4.21-.02-.12-1.28-1-1.06-2.13.19-.97,1.72-2.62,1.67-3.47-1.89-.91-.3-5.52-.07-7.54l-.81-.41c-.07-1.82,1.11-4.95.78-6.6-.08-.41-.69-.11-.85-.22v-.46c1.42.23.84-2.16,1.07-2.92,1.19-3.98,3.14-4.52,4.86-7.53,1.41-2.47,1.39-5.09,2.86-7.68.61-1.08,1.67-1.81,2.29-2.9,1.96-3.46,3.54-7.36,5.61-10.23.6-.82,1.92-1.3,2.03-2.45.19-.1,1.47,1.21,2,1.5,2.01,1.1,2.57,1.05,4.2,1.42,2.23.51,1.69,1.24,4.1-.82,1.91-1.63,3.93-3.6,5.42-5.08,2.89-2.87,9.55-12.32,10.16-16.19.16-1-.28-2.65-.04-3.55.07-.25.83-.18.84-.49.03-.63-.62-2.17-.67-3.27-.09-1.91.93-3.18.19-4.89,1.35-.52,1.31.78,1.71.88.22.06.73-.27,1.09-.12,1.19.52,4.69,2.12,3.75,3.44,2.21-.48,1.37,2.11,2.34,3.5l-1.4.73c.78,1.21,1.62,1.2.93,2.8l-.93-.47v.93c.78-.02,1.71,1.01,1.87,1.66.08.34-.77.13-.88.45-.06.2.37,3.1.27,3.85-.22,1.71-2.35,12.81-2.94,13.74-.79,1.24-.6.18-1.31,1.98-.96,2.43-1.8,1.44-2.16,1.75-.08.07.78.77-.18,1.89-.9,1.05-5.39,4.63-6.7,5.6-.4.3-1.04.42-1.54.47l.93,1.39c-1.59-.1-.92,2.59-1.4,3.75,3.93-.05,6.87.91,10.25,2.89-.18.73.02,2.02-.26,2.61-.23.5-4.41,2.78-5.07,2.97-1.76.52-1.32.15-2.91.88-1.7.79-3.28.35-3.39.49s.03.89-.3,1.36c-1.17,1.64-.41.8-.91,1.86-.61,1.29-2.81,3.54-.32,4.7.66.31,4.56,1.51,3.86.04h.91c-.02,2.02,3.38-.1,4.46,1.85l.7-.7c.01,1.88.72.79,1.29,1.28.1.09,1.27,2.06,1.31,2.18.41,1.24.84,7.45-.49,7.53-1.44-.67-2.66-1.77-4.03-2.53-.81-.45-1.75.14-2.06-1.21l-.27.88c-1.85-.67-6.34.6-8,1.51-.52.29-1.03,1.18-1.52,1.64s-1.17-.31-1.56,1.46c-.62,2.77,1.08,1.75,1.57,3.38.91,3.03-3.14,1.98-4.26,2.12-.67.08-4.79,2.63-5.24,3.18-.71.88-1.29,5.54-.97,6.54.58,1.81,2.73,2.32,3.18,3.62,1.06-.72,1.16-1.27,2.1,0l.51-.95c1.57,1.02.95-.26,1.61-.67,1.87-1.19,8.36-2.24,10.71-1.96,1.58.19,4.47,1.38,3.33,3.11,2.33-.81,1.41,1.63,1.51,1.79.98,1.63,1.99,2.53,2.79,4.94.21.65.8,2.3.82,2.44.07.46,0,3.35-.76,3.4l-3.37-.47c.67-2.09-2.47-3.68-4.13-2.87-.28.13-2.98,1.95-3.25,2.18-1.25,1.05-2.66,3.35-3.26,4.85-.22.54.8,1-1.12,1.76l.93.69c-2.84.44-1.13,2.61-2.11,4.42-.02,3.66,1.75,7.62,1.75,10.49l.83.35c.28,4.5,2.38,10.07,4.67,14.05-1.07,1.59.54.92.87,1.88.52,1.52.66,4.57,1.12,6.03.24.77,1.41,2.82,1.84,4.13.7,2.11.77,4.32,2.25,6.17l-1.4.69,1.45.28c.68.86-.01,1.87.03,2.31.03.29.74.17.83.52.17.66-.48,3.73-.19,4.91.18.72,1.06,1.23,1.15,2.08.13,1.18-1,2-.97,2.77,0,.25.8.18.87.46s-.04,3.91-.1,4.47c-.43,3.91.01,6.51-1.18,10.18-.17.52-1.01,3.41-1,3.6.01.27,1.38.12.98,1.42-.09.3-.87.34-1.12.72-1.29,1.95-.56,3.5-.87,5.38-.03.16-1.67,2.18-1.7,2.33-.06.3.46,1.15.26,1.79-.27.88-1.59,2.11-1.63,2.25-.16.54,1.18,1.55-.57,1.35l.93.69c-.93,1.04-1.18,2.77-2.8,3.05l.9,1.11c-.59.85-.89,1.86-1.38,2.76-.18.33-.94.3-.94.6,0,.61.72,1.33.44,2.24-.14.47-3.64,3.08-2.77,4.04l-1.4-.46v1.87s-.94-.48-.94-.48c.22.89-.58,1.77-1.23,2.33-1.11.95-6.84,5.96-8.42,6.55-1.45.54-3.72,1.3-5.08,2.03-.36.19-1.78,1.59-2.04,1.7-2.12.84-1.14.14-3.21,1.38-1.51.9-8.14,1.33-8.5,1.58-1.28.89-1.89,1.41-4.06,1.56-.15.01-1.45-.95-2.1-.26l.47.93c-1.8-.77-3.46.34-4.96.42s-7.7.02-8.72-.45c-2.44-1.13-1.37-.94-4.34-1.58-2.01-.43-6.14-3.01-6.21,1.46,0,.25,2.01,3.41,2.23,3.62.13.13.57-.12.82.02,2.17,1.19,5.2,3.2,7.91,5.11.19.14.22.51.18.76l.69-.93,3.04,1.26c1.86,2.44,7.1,4.77,8.79,6.81.3.36,0,1.13.12,1.29s.91-.47,1.63-.04c.85.51,1.5,2.16,1.7,2.29.1.07.84-.26,1.34-.15.7.16,4.88,1.29,5.09,1.14.14-.11.17-.91.51-1.14.85-.57,2.64.67,5.03-1.79.35-.36-.33-1.67,1.55-1.24l-.94-1.17.94-.46c-.75-.32-.77-1.77-1.05-2-.61-.5-2.83-.47-3.32-.64-.37-.13-.32-.6-.43-.66-.31-.16-.76.21-1.03-.19-.12-.18.18-.64.05-.86-.11-.18-1.17.16-.76-1.02,4.74-2.45,10.36-1.04,13.55,3.18.72.95.43,1.41.65,1.86.1.2.81.28.96.55.2.34,1.46,6.98,1.47,7.74,0,.12-.34,2.23-.38,2.34-.08.24-.58.24-.77.59-.67,1.24-1.28,2.91-2.68,3.81-1.28.83-3.82-.16-5.31,1.01.93.99-.16,3.32.08,3.97.09.25.71.2.74.29.11.34-.35.72-.34,1.04s.57.29.71.51c.22.35.14.84.34,1.06s.9.04,1.14.26-.05.84.68,1.45c2.14,1.77,7.09,1.14,7.66,1.65.88.77.92,3.33.67,4.42-.03.12-1.11.57-.86,1.97-1.08.23-1.58,1.62-2.03,1.97-.08.06-1.32.68-1.42.71-.89.35-2.28.32-3.06.5-.09.02-.09.69-.4.76-.98.24-5.06-1.07-5.28-.91-.24,1.07-.79,2.43-.75,3.51.07,1.77,3.71,7.55,5.05,8.51,1.69,1.21,3.94,1.61,5.85,2.33,2.34.88,2.17,4.89.9,6.57-.11.14-2.64,2.09-2.81,2.16-2.11.85-1.27-.39-3.9,1.64-.88.68-2.37,1-2.55,2.2-.22,2.97,1.7,2.66,2.94,3.5.47.32.56.9.87,1.11,1.07.72,2.32.59,3.26,1.92.86,1.23.44,7.04-1.87,5.86.17,2.25-4.55,4.19-6.35,4.01-1.1-.11-5.46-3.99-6.41-1.32l-.83-.35.42,1.2-.9.43c1.09,3.53,2.76,5.31,5.62,7.51l-.94.93.94.47c-.43,1.16-4.61,2.75-5.86,3.04-1.35.31-.06-.84-.22-.92-2.1,1.22-4.03-.29-6.49.07-.67.62-.4,4.37-.22,5.46.42,2.56,2.21,5.34,2.46,7.82.17,1.69.52,5.9-1.83,5.37l.92,1.14c-1.07.8-1.1,2.06-1.44,2.68-2.07,3.85-5.2,6.33-9.44,7.4-.2.05-1.47,1.49-3.37,1.72-2.87.35-5.79-.5-8.65.14l-.49-2.79.92.47c-.27-1.78,1.35-1.84,2.14-2.79,1.42-1.73,2.49-5.06,2.5-7.32.02-3.16-.34-1.91-2.44-2.99-.6-.31.12-1.68-2.44,0l-.42-.88c-2.75.89-7.23.17-9.79.92-.33.1-.31.74-.67.85-1.09.34-3.02.26-3.83.76-2.1,1.31-6.83,6.04-7.85,8.31-.42.94-.45,5.01-1.99,5.03,1.2,1.89.36,5.13.45,7.47-1.69-.79-2.5,1.01-3.03.99-.14,0-2.64-.59-2.77-.66-.62-.31-.64-1-.89-1.13-.51-.26-1.2-.1-1.69-.41-1.16-.73-3.74-4.05-4.45-5.35-.19-.36.29-.96.07-1.28s-1.38.2-.34-1.53h-1.41c.34-1.95-.85-3.18-.77-5.46.09-2.82,2.16-5.96.08-8.57-6.74,1.44-8.95,5.07-11.32,11.13-.4,1.02-.33,2.43-.6,3.06-.16.37-1.88.07-1.87,1.97l.92.43c-.95,1.12-3.53,1.81-4.85,1.2-.75-.35.19-1.56-.77-1.43l-.94.94-.23-1.3-.69.36c.4-1.83-.96-1.13-1.84-2.14-1.26-1.44-2.74-7.74-2.89-9.8-.22-2.9,1.57-10.26,2.41-13.04.11-.37.89-.28.91-.57.05-.64-.83-2.04-.48-3.01-1.44.17-2.89.2-4.32.51-.37.08-.37.74-.6.81s-1.11-.37-1.39-.29c-.3.09-4.43,3.17-5.05,3.64-.46.35-.63,1.22-1.07,1.39l-.92.04c-.24-1.2-.95-.57-1.19-.73-.4-.28-.03-.71-.19-1.03-.06-.11-.66-.09-.7-.41-.4-2.83,2.57-11.16,4.87-12.85.49-.36,1.07-.47,1.67-.44l-.44-1.33c2.51-1.66,4.44-4.8,7.35-6.04,1.68-.71,4.63-.52,6.43-1.57l1.16.98.22-1.35,5.1-.04.76-.95.29.97c2.21-1.06,4.09-.17,6.09-.08,3.82.17,8.22.55,12.16,1.37,4.78.99,9.04,3.12,13.13,3.76,3.72.58,5.72.49,8.76-1.88,1.78-1.39,2.21-2.75,3.16-4.37.46-.78,1.2-.23,1.57-.71,2.62-3.43,6.1-12.81,6.71-17.18.09-.64-2.34-11.19-2.81-12.45-3.22-8.67-7.41-13.19-17.84-16.36-2.53-.77-4.26-.27-6.89-.56-2.66-.29-10.13-1.55-12.33-2.17-.33-.09-.56-1.93-2.66-.22-.36.36-.48,4.13-.35,4.69.11.5,1.86,3.89,1.77,5.11-.18,2.55-2.19,6.58-1.89,9.15-1.5-.32-1.47,1.2-2.62,2.3-.54.52-1.25.41-1.48.6-.77.62.67.2-2.06,1.43-3.21,1.44-.91,1.31-5.25,1.78-.34.04-.22.86-.57.91-1.16.18-6.42-.33-7.56-.78-.91-.36-.06-1.57-1.98-.61v-1.42s-.9.45-.9.45c-.62-2.54-3.84-3.29-1.64-6.5,1.66-2.43,2.81.2,3.25.36.96.35,3.78-1.09,4.91-.86l-.96-.71c0-.82,1.32-2.46,1.41-3.29.02-.2-.75-.2-.88-.56-.51-1.41-1.1-2.84-1.52-4.06s.54-2.38-.84-2.15v-.93s.92-.46.92-.46c-1.74.22-1.85-1.22-2.79-2.13-1.53-1.46-3.24-2.53-3.99-4.42-1.13-.03-1.8,2.72-2.42,3.29-2.56,2.34-8.28,3.28-11.66,2.83-.89-.12-.6-.94-.95-.96-1.16-.06-1.48.78-2.96-.76-1.07-1.12-.7-1.58-.5-3l1.4.47c-.45-1.7,1.28-1.56,1.91-2.54,1.73-2.66.66-4.4,1.38-7.44-2.92-3.27-4.65-7.44-7.59-10.78-4.47-5.07-6.56-1.41-9.89,1.88-2.71,2.68-4.31,4.26-6.38,7.53-.85,1.34-2.19,3.24-2.85,4.54-1.02,2.01-3.1,12.25-3.02,14.54.07,2.01,3.74,6.68,5.37,7.49,2.57,1.28,5.05.85,6.88-1.32,1.06-1.26,1.81-5.85,4.24-3.48.23.22,3.12,5.18,3.21,5.48.12.42-.55,8.1-.72,8.67-.26.85-.8.73-.92,1.07-.26.77-.35,3-.6,3.29-.16.18-1.35.27-1.94.64-2.55,1.59-4.76,2.34-6.72,3.67-.46.31-1.02.37-1.55.48.33,2.18.92,4.11,3.03,5.15,2.61,1.28,5.87.51,7.75,2.65-1.57,6.21-6.99,8.67-13.11,7.4-4.21-.88-5.41-4.34-9.52-5.33-1.44.36-1.9,4.17-1.71,5.29.06.34.76.26.83.39.08.15-.03.52.53,1.65.27.54.25,1.65.59,1.91.55.41,3.14-.06,3.18,1.7.04,1.86-3.03,2.85-4.52,2.94-.27.02-5.04-.94-5.28-1.06-.96-.52-1.03-1.46-1.57-1.95-.87-.81-1.29-1.28-2.05-2.03-.27-.26-2.76-1.39-2.9-1.32-.36,1.23-1.86,1.28-1.48,2.75l-.93-.48c-1.75,5.28,4.08,8.16,2.78,13.1-1.37.55-2.61-1.08-2.9-1.21-.32-.13-.85.03-1.44-.2-1.47-.58-2.44-1.76-4.48-1.35l-1.45,2.77c1.57-.3,1.68.65,1.99,1.98.63,2.66.65,8.64-.76,10.97-1.03,1.71-3.93,2.58-5.33,3.87-3,.48-5.92,1.82-8.81,2.35-1.81.34-6.61,1.04-7.93.03-1.45-1.11-.23-.74.09-1.18.51-.71,1.2-1.62.83-2.58,2.38-.86,1.52-1.08,2.08-2.09,1.13-2.02,1.95-3.71,1.94-6.05,0-.43-1.3.08-.96-.96l.93-.7c-1.33.22-.8-1.27-1.36-2.15-.2-.31-1.84-2.38-1.99-2.44-.24-.09-.89.35-1.44.27-.69-.11-1.42-.69-1.99-.65-.4.03-4.54,1.5-3.52,2.61l-.7-.93c-.33.79-1.21,1.22-1.61,1.77-1.11,1.56-2.24,3.53-3.47,5.09-2.05,2.6-5.22,2.45-7.92,3.46-.41.16-.33.94-.59.93-.65-.03-.99-.83-1.66-.76s-1.46.85-2.09.97c-1.97.36-8.07.59-9.5,1.75-.17.14-.05.83-.27,1.1-1.18,1.44-3.41,2.37-4.36,4.3-.6,1.22-.79,3.09-1.33,3.86-.38.54-3.39,1.47-4.39,1.13-3.2-1.08-.75-4.49-2.4-6.52l.9-.46c-.6-2.95.49-6.48,1.33-9.37-1.54-2.73-5.47-1.76-7.67-.54-.31.17-4.33,5.16-4.5,5.57-.4.94-1.37,5.64-1.79,5.92-3.09.81-3.06-.89-4.53-1.78-.49-.29-1.85-.39-1.96-.54-.07-.1.58-1.69-.47-2.3h1.4s-.98-1.17-.98-1.17c.9-2.69,1.44-5.44,2.16-8.19.48-1.82.68-3.35,1.38-5.17.85-2.2,3.82-5.49,1.16-7.22-4.02-2.61-10.34,1.88-11.2,1.14.14-2.67-1.92-2.29-.77-4.5,1.29-2.48,5.47-5.74,8.01-7.69.63-.48,1.87-1.55,2.34-1.86,6.76-4.48,18.67-5.72,26.47-3.53,1.29.36.39,1.62,2.24.82l.08.86,1.16-.82c.58.3,1,.84,1.64,1.06,4.99,1.66,11.82,4.2,16.98,2.93.86-.21,3.09-1.23,4.44-1.58,6.2-1.61,7.67-4.37,11.81-9.8.81-1.06,3.14-1.42,1.88-3.03h1.42s-.49-1.14-.49-1.14l.85-.34c-.65-1.31,3.3-6.53,3.35-7.24.26-3.37,1.3-4.94,2.07-8.29.61-2.64,1.1-3.57.27-6.51-.09-.33-1.55-.7-.91-2.22l-.5.88c-.68-.23-1.18-.48-1.95-.35-.33.05-5.57,2.78-5.88,3.03-.79.64-.46,1.33-.63,1.48-.51.43-2.13.06-2.54.27-.8.4-.31,1.9-1.84.82l-.43.81c-3.47.08-7.92,1.19-11.6.41-2.23-.47-8.41-4.17-9.08-6.42-.53-1.79.28-.54-.81-2.44-.34-.59-2.13-3.46-2.08-3.81,1.22-1.47.55-2.76,1.9-3.89.12-.1.55.24.7.17s.12-.82.99-1.07c.94-.26,1.91-.22,2.86-.2.02.88-.1,2.83.41,3.48.41.52,1.17.1,1.57.29.67.32-.06,1.34,2.34.4.43-.17.34-.85.58-.83l1.18.4-.47-1.4c5.33-.49,4.83-4.85,6.01-8.73.77-2.54,3.25-5.72,4.44-9.18.15-.44,0-.87-.15-1.28l1.41-.02-.49-1.13.96-.5c-.62-1.72-2.61-1.47-4.04-2.29-1.84-1.07-1.58-4.03-3.46-4.74l.94-.47-1.35-1.37c.54-2.07.43-4.29,2.08-5.9.4-.39.89-.02,1.04-.13.28-.19.35-1.11.83-1.24,1.99-.56,2.62,3.8,3.21,4.03,3.05.34,5.72.39,8.41-1.32,1.72-1.09,1.64-2.31,2.2-3.78.15-.4.9-.36.9-.63.02-.71-.55-1.18-.29-2.55.1-.56,1.9-4.36,2.24-4.58l.85.39.51-2.5c-.28-1.94-9.94-.81-12.26-1.06-4.55-.48-8.96-2.18-13.37-3.26-.34-.08-.73.14-1.06.25l-.47-1.66c-2.62.85-2.63-.92-3.9-1.88-.16-.12-.69.14-1.07-.15-.46-.35-.54-1.22-.78-1.38-.22-.15-.87.24-1.33.14-5.39-1.2-11.52,1.29-17.07.75-1.1-.11-.95-1.09-1.26-1.26-.38-.21-1.91-.14-2.48-1.08l-2.82,3.47c.39,3.76,3.73,7.27,2.08,11-2.55.51-2.94-.93-4.54-1.81-.68-.37-1.91-.27-2.45-.74-.57-.5-.35-1.48-.48-1.64-.06-.07-.26.07-1.3-.42-1.53-.72-2.6-1.17-4.29-.51-.2.3,1.22,6.75,1.41,7.11.35.68,2.53,1.49,2.72,2.54.07.39-.99,2.83-1.34,3.19-1.67,1.73-1.89-.07-2.2-.19-1.29-.49-3.88-.76-4.94-1.43-.79-.5-1.17-3.64-4.34-3.12-.6.5-1.77,2.75-1.84,3.35-.52,4.1,7.47,13.47-3.05,10.07l.48-1.4c-2.78.18-3.94-3.79-6.33-2.37-.38.95-.46,1.97-.46,2.97,0,.37.22,3.14.26,3.3s1.35,1.23,1.32,2.92l-.89.66c2.48-.57,2.03,4.04,1.81,5.81-.31,2.55-3.39,4.28-3.62,6.72-.16,1.69,2.77,3.27-1.05,5.01-.46.21-.96-.18-1.27-.07-.13.05.04,1.13-1.27.79-.25-.07.26-1.48-2.2-.43-1.05.45-2.99,1.42-4.46,1.72-.59.12-1.97.31-2.4.04l-.53-2.75.93.48c-.91-1.8.24-1.27.36-1.63.56-1.78,1.14-3.48,2.39-4.77l.21-6.12c-1.36-.91-1.63-2.93-2.83-3.87-2.64-2.05-7.18-2.01-10.22-2.28l-.43.89-1.17-1.4c.25,2.3-1.56,2.08-2.21,2.55-1.29.94-3.99,2.65-4.92,3.53-.74.7-.94,1.78-1.43,2.21s-1.44.41-1.68.66c-.13.14.75,2.71-1.74,2.72.7,1.62-.58,1.35-.67,1.76-.22.95.41,4.81.66,5.9.37,1.62,2.27,3.48-.02,4.98-1.4.92-2.35-.77-2.72.97-.88-.47-1.86-.93-2.82-1.18-1.14-.3-3-.5-3.99-.98-1.21-.59-2.37-1.6-3.64-2.16-.49-3.28-2.46-6.17-2.79-9.5-.09-.88.77-7.89,1.03-8.69.36-1.15,2.6-1.15.23-2.08.53-1.62,1.27-3.12.42-4.84-2.26.02-2.99-2.72-5.54-.53l-.46-.93c.06,1.65-2.32,1.07-3.4,1.43-.54.18-.96,2.02-2.67.91l-.26,1.43c-1.57.21-2.7,3.09-4.31,4.33l-1.14,5.42-1.6,1.01c-2.11-.31-2.09-1.75-2.68-3.05-.13-.28-.69-.22-.75-.55-.24-1.27.71-7.08,1.05-8.51.03-.11,1.25.19.27-1.67,1.44-.99,1.32-4.14,2.23-5.79.31-.56,1.09-.6,1.08-.85-.01-.5-.63-1.17-.45-1.79.16-.56,1.05-.59,1.25-.84.09-.12-.2-1.22.2-1.93.88-1.56,3.75-4.2,4.85-5.93.39-.62.95-.91.69-1.88l-1.16.94c-.43-.1.11-.65-.92-.99-1.76-.58-7.05.18-8.89.67-.15.04-1.04,1.52-2.6.79.24.45.89,1.18-.24.94-1.38-.3-2.72-2.18-1.17-3.05l-.94-.46c.25-1.31,1.52-1.04,1.76-1.3,1.7-1.88,3.43-4.85,6.25-6.63,1.27-.8,6.61-3.36,7.88-3.8,2.23-.77,4.77.24,6.36-1.15l.24.93,1.16-.97c1.35-.19,1,.75,1.81,1.05,3.84,1.43,7.43,2.59,11.28,4.18,3.18,1.31,1.59,1.19,2.38,1.84,2.73,2.26,9.31,2.97,12.56,3.42,1.24.17,3.43,1.61,3.8-.16.21.87,4.73.82,4.94.68.26-.17.3-.84.54-.99,1.57-1,2.9-2.05,4.45-3.57,1.87-1.83,5.37-5.41,7.01-7.49.51-.65,1.97-3.83,2.14-3.98.34-.29,1.12,0,1.28-.1.05-.03-.33-.68-.3-1.07.25-2.69,1.89-4.37,2.48-6.2,1.67-5.13,2.54-10.72,3.15-16.06.17-1.51-.84-4.2.75-4.51l-.99-.51.47-1.39c-1.57-.42-.13-1.25-1.14-2.51-1.47-1.83-3.75-.76-4.89-2.25-1.06-1.39-1.47-6.44-1.37-8.23.06-1.09.81-2.6.84-3.4,0-.21-.77-.12-.88-.53-.25-.97-.21-2.75-1.66-3.4s-.99.84-1.43,1.35c-.74.84-2.14,1.79-2.87,2.55-.27.28.13,1.03-.69,1.39-2.25,1.01-4.76.29-5.94-1.87l-.04-.83c.17-.52,1.1-.58,1.26-.82.14-.21,1.38-4.31,1.52-4.87.56-2.32.21-4.94,1.25-6.98l-2.62-3.28c-.7-.56-3.64,3.7-4.35,4.14-1.68,1.03-4.33.84-5.73,2.66l-.43-.9-1.65.42-1.4-3.52c-.03-.29,2.57-1.7,2.81-1.95,1.3-1.39,4-8.79,4.43-10.89.29-1.43.69-4.63-.24-5.62l1.4-.47c-.55-.1-1.78.36-1.9-.33-.09-.48.38-1.22-.43-1.07.19,1.13-1.44.83-2.42,1.45-1.78,1.11-3.26,3.25-5.8,3.28-.83,0-.65-.78-.78-.84-.25-.12-.86.32-1.62-.02-1.99-.9-2.84-2.54-3.26-4.65-.82-4.15,3.88-2.27,5.47-4.21.12-.14,1.69-3.13,1.73-3.31.21-.87.24-5.31.38-6.72.08-.83,1.66-2.27-.98-2.54-1.11-.12-1.86,1.2-2.21,1.32-1.07.38-2.93-.15-4.21.34-.61.24-.06,1.53-2.78.4-2.23-.93-1.07-4.19.2-5.46.45-.45,1.27-.12,1.76-.41,2.97-1.74,1.65-1.64,2.19-3.81,1.05-4.18,1.82-7.5,1.07-11.94-.15-.9-2.6-4.19-3.3-5.23-.56-.84-1.3-2.05-2.13-2.99-2.88-3.23-5.38-5.33-9.64-2.38-1.24.86-1.87,2.55-2.74,3.46-.96,1-5.32,2.62-6.72,2.83-3.09.47-7.99-.65-10.75-2.16-.48-.26-.6-1.06-.88-1.22-.45-.26-1.24.02-1.6-.26-1.95-1.46-4.35-5.29-3.42-7.83l-.93.48c-.17-2.2-.05-4.07.98-6.05,1.61-.54,2.04.99,2.63,1.35,2.85,1.76,4.47,2.81,8.1,2.12,3.14-.6,2.84-1.54,4.58-2.56,2.89-1.68,7.38-1.12,10.04-2.83,1.64-1.05.63-3.48-.13-4.82-.14-.24-2.1-2.13-2.21-2.33-.28-.52.05-1.37-.21-1.68-.14-.17-.87,0-1.13-.23-3.01-2.53-7.64-5.83-11.7-6.35-2.42-.31-6.2.99-8.42.83-2.99-.22-1.53-.91-1.73-1.25l-.75-.29c0-1.44,1.2-2.24,1.24-2.38.5-1.94-.05-1.67,1.04-3.85.34-.69.77-2.2,1.28-2.52.69-.43,1.87.18,1.99.04.09-.11-.09-.83.2-1.2.61-.8,4.84-2.89,5.38-2.44l.29.85c1.47-2.86,2.6-.55,2.79-.55.89.03,6.41-.23,6.83-.65.57-.91.79-2.76.55-3.83-.28-1.24-1.2-1.36-1.38-1.67-.27-.47.02-1.18-.25-1.62-.39-.65-2.28-.54-.82-2.92-2.36-.11-2.69-2.93-4.61-4.17-2.91-1.86-5.62-2.29-8.97-2.4l.35-.83-1.23-1.45c2.2-1.81,4.22-3.28,7.09-3.96,4.15-.99,5.57-.64,9.25.79,4.78,1.86,4.02,2.81,7.15,4.8.67.43,2.53-.17,2.22,1.13h.46c.14-1.46,1.73-3.3,3.28-3.27l-.93-.69,1.71-3.75c.01-.65-2.13-2.48-2.49-3.16-.11-.22.35-.74.3-.78-.11-.1-.93-.03-1.34-.29-3.09-2.01,2.8-3.28,5.46-1.76,2.49,1.41,2.65,5.16,5.72,5.78-.9,1.78.21,1.21.42,1.76,1.2,3.13,2.34,7.32,2.69,10.56.13,1.25-1.01,2.56.63,2.89l-.87.28-.12,11.62-.88.5c1.38.67,2.42,1.11,3.99.83.25-.04.09-.73.45-.76,1.97-.13.58-.11,1.53-.5.51-.21,1.25-.09,1.85-.39,1.78-.89,3.09-6.06,3.61-8.03.29-1.12.63-1.57.64-1.68.06-.4-.59-1.34.1-2.11h-1.41s.42-1.19.42-1.19c-1.97-.51-.36-2.67,1.03-2.35,2.68.62,3.71,4.05,4.28,6.33,1.6,6.37,1.2,12.62-.88,18.37-.98,2.72-1.65,5.39-3.91,7.61-2.01,1.97-5.22,2.69-7.24,4.94-.3.33-1.06.4-1.13.5-.09.13.39.76.37,1.16-.02.54-.39,1.42-.34,1.53.13.28,4.08,3.53,4.73,3.98,1.86,1.27,4.48,2.95,5.96,5.19,3.47,5.29,2.99,7.01,3.26,12.63,0,.15,1.5.63.54,2.54l1.81.54-.47.92c4.61.16,7.44,3.55,9.21,7.41.62,1.34.06,2.81,1.8,3.36,2.03-2.37,5.64-4.84,7.53-7.14.05-.07.14-1.03.48-1.64.27-.5,1.11-.6,1.14-.88.11-1.02-.91-1.82-.92-2.74,0-.56,1.02-4.59,1.37-5.16.54-.86,1.75-2.2,2.71-2.67l-.38-.84c2.53.25,1.96-1.17,2.47-1.75,1.45-1.63,10.78-4.36,13.22-4.39.9,0,1.69.42,2.57.51l.48-8.06c1.79-1.52,4.15-3.36,6.43-4.02,4.54-1.33,10.13-1.91,14.88-2.84,4.98-.97,11.4-4.16,15.08-6.74,2.53-1.78,5.38-5.72,8.53-5.96l-.41-1.31c1.15-.51,1.99-1.4,2.14-2.68-.14-.83-1.71-.87-2.31-1.19-.36-.19-.35-.79-.68-.88-.17-.04-3.32.19-3.48.24-.81.23-1.42,1.08-2.28,1.38-1.49.53-3.99-.07-3.76,1.16h-.93s-.46-.92-.46-.92c.15,1.52-1.44,1.83-1.58,3.58l-3.23,2.86c-3.1.6-6.87.49-9.27-1.96-.69-.7-.77-1.61-1.21-2.09-1.04-1.1-1.91-2.33-2.67-3.21-1.94-2.26-3.71-4.35-6.83-5.25.1,1.44-.87-.05-1.21,1.42-1.22.11-1.6-1.26-1.71-1.31-.96-.45-.49.86-3.06-1.08-.92-.7-2.13-.75-2.71-2.36s.91-3.89,2.59-3.04c.59.3.83,1.42,1.44,1.88.38.29,3.2.77,3.48.66s.12-.84.51-.87c.29-.02.75.47,1.05.38.16-.05,1.54-2.31,1.79-2.68.36-.53,2.12-2.56,2.27-2.83.4-.69-1.16-1.81.71-1.2.03-.91,1.49-2.54,2.26-2.98.51-.29,6.49-2.27,6.85-2.21.46.08.77.73,1.41.76.35.02.13-.76.46-.86,1.55-.44,4.62.68,5.59.37l.28.94.72-.96c1.41,1.2,3.24-.62,4.18-1.85.52-.68.54-1.6.98-2.32.33-.54,1.43-.18,1.13-1.17-.43-.69-.93-.63-1.62-.72-10.44-1.34-23.51,3.12-34.19,3.49-4.35.15-9.14-.67-13.52-.21l-.52-.94-.47.94c-.66-.68-1.63-.9-2.48-1.23-4.85-1.88-8.75-4.94-11.24-9.89-.36-.71-.13-1.69-.36-2s-.95-.36-1.04-.51c-.14-.23.56-3.29.61-3.9.26-3.48.05-4.11,1.94-6.92.13-.19-.31-.99.42-1.29l3.45,1.72c-1.42,6.46-1.67,8.89,3.91,12.81.3.21.36.82.44.85.4.16.86-.34,1.08-.32.25.02,3.62,1.7,4.18,1.88,5.16,1.63,12.48,0,17.49-.86,1.41-.24,3.06.17,4.53-.66l.27.95h.92s.29-.93.29-.93c6.7.23,14.31-1.75,20.8-3.99.46-.16.96.2,1.28.09.09-.03.41-1.21,1.5-.79l.02-1.38-9.56-1.89-1.25,2.32-1.08-.43c-.54,1.49-.99.52-1.71.75-1.46.46-4.32,2.38-4.4.65-1.55,1.62-5.6-.44-6.75-1.7-.95-1.05-1.28-4.24-1.47-5.78-.23-.12-4.71,1.33-5.01,1.54-.53.38-1.09,1.96-1.71,2.54-.75.71-.28-.47-1.07,1.06-1.36,2.6-3.96-.55-4.17-2.59-.02-.23.46-.6.47-.9.08-4.36,2.65-14.99,5.39-18.28,1.91-2.29,2.6-1.87,4.83-2.6.42-.14.31-.95.57-.94.61.04,1.01.72,1.38.74.9.05,2.04-.53,3.03-.21l.03,1.37,1.12-.47c.59,1.33,2.43,1.06,3.67,1.45.43.13.37.71.58.77,2.09.62,1.92-.58,2.77-.9,1.1-.41,3.62.07,5.01-.2,1.84-.36,8.83-4.1,9.65-5.73.71-1.41.33-3.04,2.01-4.05l-.93-.24c1.04-1.03.71-2.37.14-3.63-.24-.54-.85-.45-1.04-.93-1.86-4.63,2.66-2.23,3.48-2.52.26-.09.19-.86.52-.9.67-.08,5.65.57,6.38,1,.81.47-.31,1.63,1.75-.03-.28.9,2.06,1.52,2.82,1.68.86.18,2.99-.24,3.59-.87.83-.87,1.59-2.71,3.16-3.65,4.11-2.43,5.71,4.19,8.37,4.12,1.85-.05,5.63-3.75,7.14-5.04.52-.02,3.43,1.15,3.79,1.52.66.67.34,1.81.78,2.55.08.14,1.86,2.37,1.98,2.48.09.09,2.18.96,2.3.97.34,0,.17-.69.48-.83,4.56-2.01,5.9-.9,10.12-1.34,1.78-.19,2.85-1.85,3.92.74l1.38-1.42c5.02,2.03,11.08,1.47,16.44,2.79l.4-.85c1.18.65,5.62-.59,6.71-1.16.87-.46,1.17-2.37,3.28-2.55,1.95-.17,1.2,2.39,3.35,1.34.57,2.19,1.5,3.28.72,5.57.82,3.17-.54,6.76-2.83,10-.84,1.2-2.23,2.78-2.96,4.46-2.42,5.56-.67,8.83,4.45,11.53.28.15.07,1.05,1.35.74l31.37-18.74.46.94c1.23-2.63,3.53-2.29,5.48-3.32,2.81-1.48,5.63-3.2,8.25-4.59,5.96-3.18,14.3-7.52,20.57-9.83,5.13-1.89,9.9-2.96,14.98-4.69,1.05-.36,2.66-.83,3.73-.38ZM228.81,19.18c.09-.21-.02-4.39-.09-4.61-.85-2.61-4.44-.67-6.67-.65-2.37.03-5.58-.48-7.86-.49-8.64-.03-21.09-1.11-28.11,3.96-.97.7-1.67,0-1.88,1.89-3.24-.54-6.53-.96-9.75-1.48-3.98-.65-9.53-1.16-13.77-2.72-1.56-.58-4.32-.65-5.97-.41-.28.04-.2.69-.29.73-.34.13-.78-.42-1.23-.27-.39.13-1.06,1.99-1.18,2.11-.3.3-1.29.31-1.99,1.27-3.87,5.31-4.78,5.57-11.01,7.61-.93.3-5.01,2.02-5.38,1.95-.65-.13-.36-1.46-1.13-1.31.35,1.47-1.36,2.1-2.56,2.23-2.69.29-6.44,0-9.2.37-.32.04-5.55,2.1-6,2.34-2.66,1.47-4.74,8.71.64,6.77l6.82,2.33-.94,5.14c.29.45,4.71.51,5.17.21,1.44-.94.55-3.59,1-4.35.54-.91,5.46-1.18,6.73-1.53l1.15.99c-.72-.68,1.88-1.21,2.11-1.2.75.04,1.17.84,1.88.96,3.09.5,3.42.41,6.18,1.56.57.24,1.66-.1,1.95.17.16.15-.08.91.15,1.19.2.23,2.88,1.26,3.47,1.71,1.22.93,6.8,6.8,7.33,7.9,1.77,3.72,1.21,7.25-.66,10.82-2.61,4.98-7.28,7.31-12.58,8.5-1.66.37-4.3.95-5.46,1.17-3.38.65-10.88-.73-13.89.03-.33.08-.33.7-.68.85-1.11.5-2.27.93-3.37,1.46l.93.47c-.41.93-1.41,3.12-1.46,3.98-.07,1.19.53,1.57.82,2.45.1.31-.29.86-.2.99.12.18.96.26,1.34.75.55.75,1.26,2.6,1.84,3.3.32.38,4.06,3.77,4.33,3.88.53.23,1.04-.25,1.51-.15,1.13.25,2.28,1.22,3.78.28.71-1.38-.6-6.1-.25-7.69.08-.35.76-.33.79-.41.13-.38-.46-.81.1-1.56.52-.7,2.3-1.83,3.2-1.96,3.31-.47,1.97-.2,2.47,1.4.14.45.97.31.95.58-.06.84-1.62,1.51.12,2.9s4.08-.06,5.29-1.47c.45-.53,1.98-3.71,2.17-3.87.72-.61,2.43-.36,3.29-.64.42-.14.37-.92.59-.93,2.81-.13,2.93,3.74.21,4.01.38.63.27,2.01.59,2.45.65.91,4.6,1.28,5.41.45.19-.19.04-.92.24-1.1,2.93-2.76,1.25-2.29,2-3.45.07-.11,1.8-1.75,1.92-1.8.21-.07,4.16-.4,4.36-.33,1.36.52.28,2.15.47,3.19.23,1.29,3.25,1.79,4.44,1.49.93-.24,3.7-2.81,3.79-3.74.01-.11-.45-2-.5-2.09-.68-1.21-3.04-1.03-1.75-4.1.85-2.01,2.46-1.69,3.58-2.52.99-.74,3.68-3.4,4.34-4.32.72-1,2.39-4.15,2.4-5.3,0-.58-.52-.92-.66-1.44-.09-.34.27-.85.19-.99-1.01-1.65-3.26.1-4.25-.15-3.66-2.46,1.62-4.12,2.01-4.96,1.45-3.11-1.24-4.72-.77-6.22.66-2.1,3.13-.55,4.25.51.13.13,1.98,2.72,2.05,2.89.18.44-.4.85-.28,1.23.03.08.65.04.72.29.49,1.83-.85,1.72-.84,1.89.04,1.68,3.49,4.34.96,6.08-.16.4.77.04.92.52.07.24-.85,4.72-.95,4.97-.34.9-3.17,3.05-2.3,4.09-2.17-.34-.83.68-1.37,1.17-.5.46-1.59.51-1.84.77-.11.11-.29,2.93-.23,3.1.17.47.82.52.94.73.26.47.1,1.14.41,1.72.19.35.9.38,1.03.56.17.23.38,5.04-.82,5.3l.93.46-3.62,3.04c-1.61-.11-3.89-.28-5.43.01-.36.07-.27.69-.55.81s-.86-.25-1.62.33c-.23.17-2.91,2.9-3.14,3.21-.26.35-.02,1.13-.32,1.55-1.07,1.5-3.76,5.87-4.89,6.68-.33.24-1.1.24-1.62.51-.29.15-.23.69-.98,1-3.77,1.57-9.11,1.05-12.35,4.26-.34,2.22,1.37,3.47,1.76,5.51,1.73-1.12,1.24.24,1.72.47,1.08.52,4.5.9,2.81,2.67-2.06,2.16-7.59,1.3-9.95,2.2-1.73.66-2.93,4.43-2.43,6.14.25.86.68-.69.41,2.36-.01.12,1.55.57,1.28,1.78-1.25,1.68-2.53,2.14-4.4,2.62-.51.13-1.1-.39-1.4-.39-.14,0-.74,1.33-2.36,1.29l-.65-.89c-.03.37-.16.99-.45,1.19-.16.11-2.71.37-3.38.71-.83.42-2.53,2.19-3.32,2.62-.21.11-.75-.34-.79-.29-.1.13.09.73-.08.98-.68.99-1,1.01-.88,2.75l-.93-.47c-.19,1.49.06,3.04,1.16,4.12l5.38.1c.35.5-2.22,3.59-2.43,3.67-.23.08-2.22.18-2.99.49-.36.14-5.43,4.07-5.62,4.38-.36.57-.16,2.21-.32,2.56-.1.21-2.45,2.75-2.64,3.01.34,1.49-.94,2.78-.11,4.87-2.29.9-.11,1.08.11,1.47.41.72.35,2.39,1.17,3.42.37.47,1.02.09,1.4.43.46.41.57,1.42.95,1.46,3.07.29,1.99-4.11,4.45-5l-.52-1.57c2.21.39,1.23-1.06,1.53-1.63,1.61-3.08,5.37-.14,4.18,3.77-.15.51-1.52,1.74-1.8,2.18-.13.21.37.83.09,1.27-.42.67-3.79,3.89-4.6,4.72-.58.6.06,1.81-1.74,1.39l.48.93c-1.83.09-3.22,1.1-5.13,1.67-1.48.44-4.71.75-6,1.31-.15.07-2.66,1.73-2.78,1.85-.25.24-.1.9-.28,1.09-.56.6-1.21.67-1.91,1.63-1.42,1.94-6.21,15.33-6.55,17.66-.13.9.38,1.84.2,2.59-.1.42-.92.27-.95.31-.17.26.66.66.72,1.13.13.99-.68,4.24-.7,5.65-.07,5.96,1.58,7.09,4.15,11.77l.96,2.96h-7.49s0,1.88,0,1.88l-.93-.48c.37,1.06.03,2.4-.49,3.38-1.01,1.89-1.02,1.38-1.61,3.63-1.44,5.48-3.43,10.5-6.36,15.57-.2.34-.53.44-.9.37l.93.69c-1.78.43-1.15,2.47-2,3.39-.41.44-1.29.3-1.64.7-.26.3-.71,2.1-1.39,3.05-3.11,4.34-7.21,9.23-11.38,12-2.72,1.8-5.16,2.56-6.69,5.44-.32.6-.24,1.46-.86,2.49-.37.62-2.26,3.12-2.95,3.18-1.33-.23-2.87-.09-4.13-.24-1.17-.13-4.31-1.45-4.78-1.51-.52-.06-2.74.97-4.09.69-3.75-.78-10.84-4.46-14.55-6.55-.89-.5-1.4-1.55-2.21-2.01-1.44-.82-7.81-3.65-9.21-3.91-2.32-.43-4.03.89-6.2,1.31-.18,1.93,2.26,1.96,1.88,3.74l1.4-.47c-.78,1.58.61,1.09,1.44,1.65.44.3-.06,1,.06,1.09.16.13,2.08.82,2.49.99l-.24,1.41.93-.48v1.42s.93-.48.93-.48l1.41,3.05c-1.34.07-2.43,1.84-3.47,2.19-.8.27-1.97-.03-2.06.03-.18.12-.29.89-.84,1.22-.92.55-2.72,1.16-3.32,1.63s-1.18,3.02-1.02,3.75c.08.4,1.37,1.38,2.01,1.25,1.23-.26,1.17-1.45,2.61-.01-.12-1.62.96-.53,1.86-.66,2.64-.39,5.58-1.01,8.22-1.17,1.51-.09,3.37,1.07,3.76-.53,2.75.92,5.3-.11,7.69,1.9-.86,3.39-2.94,2.53-4.95,3.45-.16.08-2.85,1.61-2.95,1.76-1.27,1.8-2.53,2.71-3.67,4.27-.83,1.14-1.86,3.85-2.26,4.96-.21.58-1.53,3.64-1.48,4.03.06.5.85.76,1.01,1.14.21.5-.35,1.11-.12,1.79.05.15,2.32,1.92,2.7,1.52l.87-1.63-.4-1.17,1.36-.04c-.54-1.5,1.67-2.99,2.22-3.82.64-.95,2.03-4.13,2.66-4.88.26-.31,5.72-4.97,6.08-5.15,1.17-.6,2.31-.04,2.83-.19.35-.1.26-.84.63-.91,1.77-.38,8.33.32,9.26,1.42,5.1-1.78,11.08-1.54,14.68-6.4.35-.47,1.21-2.32,1.45-2.86,1.27-2.82.84-3.41,4.7-4.13,1.21-.23,4.75.27,5.16.04,2.26-1.31,1.23-5.98,3.28-7.97,1.73-1.68,7.79-3.38,8.3-4.09.84-1.19.52-3.58.71-3.96.07-.13.64-.21.82-.47.3-.46.88-1.78,1.06-1.88.22-.13,4.23-1.1,5.02-1.3.63-.16,1.35.28,2,.14.52-.11,3.29-1.55,3.68-1.98l.26-.95c-1.6-3.53-.11-6.49,4.03-5.73,2.1.38,4.8,1.72,6.66,2.72.73.4,1.25-.26,1.87,1.37,1.47-1.13,3.46-2.81,2.85-4.71-.5-1.55-3.37-2.22-4.09-3.6l-1.32.36c1.11-1.24-.84-3.59-.82-3.99.02-.37,1.4-1.13,1.06-2.1l.44-.37c.46.15.92.39,1.42.37,1.12-.05,6.46.34,7.41.64.86.27,1.43,1.22,2.43,1.22,1.16,0,3.09-1.44,3-2.56-.03-.34-.92-.49-1.19-.85-2.81-3.88-3.78-2.53-6.12-4.68-.16-.15-1.71-3.26-1.75-3.56-.11-.65,1.22-2.38,1.61-2.58,1.45-.76,7.39,1.4,9.38,1.15l-.47.93c3.03.79,7.43.18,6.43-3.85-.63-2.55-1.9-1.2-3.7-1.89-2.38-.91-4.83-2.84-5.06-5.49.97.04,1.88.06,2.83-.22,1.48-.43,3.62-2.16,4.78-2.72,4.99-2.42,9.7-4.23,11.83-9.7,1.13-2.9,1.06-5.98,2.59-8.66l-.92-.43c.47-1.15-.02-6.68-.38-7.64-.42-1.11-2.25-1.77-2.04-3.39-.98.63-2.06-.34-2.52-.3-.48.04-.98.91-1.88.78-.24-.03-.22-.81-.32-.85-.15-.07-1.63.14-2.6-.79-.88-.84-1.33-1.2-1.06-2.6,1.17.81,1.76-.2,2.68-.38.56-.11,1.25.39,1.45.29.45-.23,1.94-2.06,1-2.71h1.41c-1.2-2.19.05-1.57.65-2.39.3-.4.17-1.12.58-1.42.59-.42,1.71.53,2.27-1.34h.68c1.53,1.74.56,2.89.95,4.9-1.34-.46-1.46.61-.04.91-1.19,2.77-.42,2.47.99,3.78.5.46.4,1.58,2.08,1.05.27-.08.17-.55.63-.77.33-.15.95.04,1.33-.21,1.12-.73.86-1.58,1.27-2.5.05-.12.97-1.55,1.02-1.67.25-.57-.05-1.78,1.39-1.78,2.04,0,2.32,4.72,2.69,5.89,1.43,4.5,3.9,21.62,2.05,25.78-.23.52-.98.5-1.14.89-.58,1.43.33,6.18-.53,8.16,1.09-.4,1.46.92,1.71.98,4.28.9,5.59-3.77,7.96-6.23,1.85-6.6,3.3-13.68,3.16-20.69-.04-1.89-.55-3.82-.53-5.41.03-3.64.87-6.98,4.08-3.01,2.38,2.95,2.75,9.58,3.87,13.23.04.12.98.73,1.35,1.99,1.83,6.14,2.83,16.2,2.44,22.87-.1,1.75-.59,6.11-1.63,6.88l.53,1.8-.99.51,1.41.24c-2.14,1.98.99,3.38,2.67,2.47,1.47-.79,2.42-3.59,4.36-3.42-1.05-1.32,1.18-2.83,1.8-4.04,4.81-9.41,5.96-22.12,5.87-32.67-.02-1.78-.06-3.99-.61-5.68l.9-.43c-1.53-.29-.78-2.91-.46-4.18-1.47.08-.39-3.73-.6-3.93l-.81-.08v-.93s.93-.24.93-.24c.04-.27-1.85-.26-.94-1.17.17-.17,1.12.37.93-.46-1.3.13-1.16-1.54-1.43-2.52,1.3-1.32,2.43-.42,3.76.23l-.45,1.35c2.05-.44,1.68,1.7,2.4,2.89,1.54,2.54,3.63,5.78,4.87,8.33.57,1.17.48,3.14.8,3.66.74,1.23,2.26,2.84,3.12,4.7,4.21,9.08,5.47,19.53,8,28.88.15.42-.76.06-.84.45-.24,1.12.57,5.58.67,7.12.25,3.96-1.71,7.11,4.4,4.83-1.11-1.81.17-1.19.64-1.9,1.63-2.48,2.9-5.23,3.93-7.53.37-.84.87-10.61,1.06-12.28.04-.34.77-.23.83-.51.13-.53-.57-2.01-.59-2.61-.19-3.96.44-8.9-1.66-12.38l.93-.46c-1.43-.87-.55-1.55-.55-2.36,0-.28-.71-.14-.81-.52-.41-1.56-.43-3.87-.99-5.51l.93-.74c-2.51.46-1.17-2.56-1.91-4.32-.21-.49-.93-.4-1.15-1.27-.21-.81.28-2.18.16-2.61-.04-.14-1.4-1.27-1.86-2.26-1.18-2.52-.98-3.37-2.65-5.76s-3.6-4.73-4.88-7.32c-.28-.57-.44-1.1-.35-1.75,2.76-.58,4.06,1.78,5.67,2.99.71.54,2.58.96,3.02,1.7.27.47-.25,1.08-.14,1.3.34.66,2.44,1.52,2.7,1.81,1.92,2.08,6.17,8.45,7.44,10.83.17.32-.14,1.11.11,1.43.1.12,2.25.76,2.67,1.56.28.54-.64-.02.7,1.85,3.89,5.42,6.04,11.3,8.17,17.56.32.95,1.5.24.51,2.21,2.5,1.53,1.69,6.28,2.38,8.86.04.15,1.56,1.59,1.83,2.11,1.11,2.14,2.58,6.47,4.72,7.84.48.3,2.49-1.07,2.58-1.18.53-.67.46-4.99,1.04-6.55.33-.9,1.57-3.21,2.17-4.04.26-.37,1.05-.45,1.12-.84.06-.37-.57-1.45-.34-1.67.09-.09.93.16,1.28-.09.76-.54,0-2.32,1.43-1.43,1.71-1.87,3.16-4.53,3.13-7.15-.02-1.81-1.15-1.59-1.7-2.77-.34-.75,0-1.36-.11-1.55-.53-1.01-2.19-1.72-1.76-3.35l-1.33-.07c.39-1.36.19-3.01-1.38-3.32.99-1.92-1.77-1.39-.98-4.14l-.93.47c0-1.38-1.16-3.4-1.93-4.77-.63-1.11-.59-1.71-.64-1.8-.27-.45-1.43-.55-1.58-1.2-.1-.42.58-1.21.35-1.52-.59-.77-2.09-1.53-2.5-1.96-.61-.63-2.22-4.61-3.22-5.89-.89-1.14-3.27-2.92-3.57-3.79-.16-.46.02-1.04-.02-1.54-2.19,1.2-1.1-.39-1.85-1.64-1.63-2.72-4.83-5.71-6.8-7.22-1.28-.98-1.58-2.43-2.75-3.59-2-1.98-6.33-3.98-6.86-6.75-.19-.19-1.2.47-1.59.47-.24,0-3.15-2.68-3.69-3.07-.22-.16-.81.2-1.28-.39-.74-.93-.85-2.02-.44-3.09.6.34,1.82-.08,2.19.11.14.07.19.67.47.8,2,.94,3.87,2.05,5.51,2.68,1.16.44,3.01.09,2.57,2.02l.47-.93c1.18-.39.82.58,1.09.75,1.2.77,3.33,1.55,4.2,2.09,1.16.73,2.08,2.05,3.58,2.34l-.44,1.37c1.16-.68,2.88.3,3.92,1.01.79.54,2.68,3.18,3.08,3.41.29.17.9-.23,1.4.04.42.23,1.65,2.11,2.13,2.56l.46-.93c.42.34.45.92.87,1.27,1.79,1.47,4.06,3.5,5.72,4.99,2.35,2.12,7.93,6.43,9.25,8.74.16.28-.13.84-.1.88.32.33,1.55.05,1.86.28.12.09.71,1.87,1.38,2.66,1.17,1.35,4.47,4.63,6.22,4.05,1.17-.99.57-3.27.92-5.17.32-1.71,1.35-5.19,2.28-6.62.19-.3,3.95-4.33,4.22-4.47.37-.19.96.44,1.25.34.13-.05,1.83-1.98,1.9-2.1.69-1.15-.27-2.58-1.13-3.44-1.89-1.89-5.52-3.76-7.63-5.1-11.13-7.1-22.15-14.4-34.15-19.57-.7-.3-1.82-2.26-3.36-1.59.07-2.23-.23-.84-1.47-1.08-.83-.16-.79-.99-1.28-1.18-1.94-.77-4.9-1.54-7.01-2.33-1.04-.39-5.15-1.08-5.16-2.14l.88-2.07c1.93.23,3.8-.12,5.72-.23,11.8-.66,18.8.99,29.68,4.23.34.1.99-.34,1.04-.29l.73,1.85.23-.93h.93c-.19,1.43.71.4,1.76.76,5.27,1.8,9.36,4.46,14.27,5.95.82.25,1.75-.2,2.23.05.81.42.59,1.64,1.4,1.66l.23-1.39c2.67,1.27.8-1.38.74-2.15-.16-2.04.47-7.09,1.62-8.63.36-.48,1.18-.34,1.47-.62.62-.6,2.75-3.29,3.34-3.55,1.51-.68,3.45-.59,4.9-1.01.45-.13.19-1.28,1.76-.66l.47-.49c-.85-.77-.33-2.94-.46-3.03-.19-.12-1.94-.15-2.65-.39-.37-.13-2.1-1.34-2.26-1.38-5.03-1.28-14.22-2.08-19.67-2.66-2.64-.28-6.17.49-8.44-1.19l-.48.98c-.96-.24-1.82-.82-2.83-.93-8.97-.98-19.82-1.71-28.92-1.27-1.77.09-5.07,1.78-6.38-.17,1.71.22.28-.69.53-1.32.03-.09,1.28-1.18,1.36-1.22,1-.49,2.34-.08,3.03-1.21l.69.93,2.58-2.8.46.93c1.92-2.46,4.17-2.21,6.78-3.16,1.98-.72,4.37-1.88,5.95-2.45,2.35-.84,4.32-.46,6-2.35l.69.93c.11-1.83,1.15-.91,2.23-1.24,6.48-1.98,13.12-4.42,19.36-5.58,6.3-1.18,11.5-1.52,17.82-2.34,2.77-.36,5.59-1.07,8.37-1.37,1.71-3.95-2.21-8.7,2.08-11.94l.69.93c.02-.45-.01-1.04.24-1.41.74-1.06,7-3.51,8.52-4.03.43-.15,2.57.56,2.4-1.26-.2-2.18-2.92-2.94-4.85-2.92-3.36.02-7.82,1.02-11.23,1.77-.44.1-1.11.26-1.89.43-3.26.7-6.52,1.56-9.78,2.31l-.72-.96c-.03.5.25,1.11-.31,1.44-.31.19-4.7.53-5.69.77-1.12.27-2.41,1.19-3.65,1.46-1.83.4-3.88.47-5.12.6l-.22.87-.92-.93c-.56,2.04-4.84,1.77-6.56,2.2-1.31.33-2.04,1.55-2.18,1.56-.71.07-1.52-.58-2.21-.51-.34.03-4.79,2.22-5.88,2.56-.42.13-1.09-.31-1.33-.09l-.11.83c-1.44.44-.45-.87-1.39-.93.42,2.19-1.34,1.32-2.56,1.67-4.89,1.39-9.98,3.74-14.2,5.94-.2.1-.23.8-.78,1.07-1.16.58-2.45.3-3.7.2l-.32-1.16c4.47-3.5,9.43-6.24,14.41-9.01,4.9-2.73,10.49-5.24,14.91-8.01,20.73-12.94,40.83-25.42,59.82-40.63.68-.55,2.61-1.22,3.08-2.03-1.58.64-3.26-.03-4.4,0-.27,0-.23.74-.63.9-1.44.58-2.77-.42-3.19.98l-1.13-.48v1.42c-.54-.15-.89-.49-1.51-.38-1.26.23-4.69,2-6.34,2.56-4.03,1.36-8.16,2.6-12.28,4.24-3.82,1.52-7.59,4.12-11.71,4.35l.47.93c-2.05.02-3.85,1.09-5.71,1.92-7.28,3.24-14.13,6.71-21.09,10.29-.51.26-1.64,1.5-2.07,1.74-3.55,1.98-8,4.36-11.86,5.25l.41.86c-2.09.85-3.95,2.13-5.92,3.22-.83.46-1.99.5-2.8.95-.87.49-2.17,2.59-2.55,2.79-.13.07-1.38-.27-2.34.16-1.4.62-7.35,6.89-8.56,8.39-.42.51-.58,1.22-.74,1.85l-.88-.44c-.63,2.24-1.84,4.32-2.52,6.55-.38,1.26-.08,1.09-.75,2.71-1.62,3.94.56,18.69-2.23,23.86-.44.82-1.03.54-1.06.59-.18.3.93.72.84,1.54-.03.28-.52.66-.57,1.03-1.41,10.04-5.31,20.55-9.29,28.43-1.77,3.5-2.59,7.09-5.69,10.21-1.05,1.05-3.37,1.23-3.07,3.25l-1.4-.94.44,1.81c-2.31,1.23-5.3,2.7-7.03,4.45-3.09,1.66-5.63,1.76-9.1,1.69-3.77-.07-5.84.68-9.09-1.67s-3.67-5.11-3.78-8.63l-.93.48c.5-3-.07-6.02.5-9.01.07-.36.78-.31.81-.58.17-1.73-.1-3.01.71-5.02.42-1.04,4.05-5.56,5.02-3.81-.19,2.14,2.41,2.6,2.8,4.37,1.67-1.13,2.98-.12,3.59-2.66l-.83-8.76.97-.51c-2.44-2.57.61-6.96,2.66-9.05l1.73-.04.82,1.75,1.57.09.23-1.42c1.96.97,1.21-.24,1.86-.64.38-.23,1.07.07,1.44-.46,1.1-1.58.32-3.1.46-4.23.04-.34.91-.27.96-.56.14-.94-.89-1.72-.76-2.59.06-.45,1.97-2.23,2.01-2.38.14-.46-.66-1.3.9-2.26,2.5.35,3.81,1.91,4.37,4.23.88.16.22-.91.54-1.31.23-.29,2.23-.19,2.97-1.52.28-.51.05-4.83-.7-5.38l.93-.68-1.43-.3c-1.38-3.81-1.32-7.54.1-11.34l1.77-.02.07,1.31c1.53-.7,1.28.94,1.92,1.62,1.05,1.11,2.67,1.85,2.74,3.57l.86-.23c-.63-1.19,1.21-2.01,1.32-2.22.29-.6.61-4.03-.31-4.57l.93-.24c-1.39-2.17-2.25-5.53-5.15-5.86l.37-1.33c-1.18.5-.22-4.25.06-4.98.19-.5.33-1.11.97-1.17l.24,1.41c.71-2.69,2.02,1.01,2.69,1.28,2.05.83,4.55-1.25,5.5-2.93-1.49-.42-.55-.82-.76-1.67-.78-3.22-1.8-6-4.36-8.23.29-1.6.33-4.3,1.98-4.99,1.92-.8,2.51,1.4,3.49,2.06.66.44,2.95.28,3.63,1.36,1.47-1.97,1.1-3.82.7-6.08l-.93.48c1.12-2.48-3.24-3.26-4.55-4.38-.09-.07-1.09-1.83-1.12-1.94-.18-.6-.48-3.33-.3-3.85,1.36-1.12,3.05-2.18,4.55-.6.18-1.26.03-1.17-.94-1.64l.94-1.16c-2.01.38-1.87-2-2.51-3.18-.58-1.07-2.7-4.08-3.25-4.68-.5-.54-2.01-.67-1.73-1.97.41.03.85.07,1.22-.17,4.89-3.16,10.07-6.52,12.78-11.93,1.15-2.3,1.81-4.54,2.75-6.7ZM295.85,32.83c-2.37-1.35-3.77-2.89-6.67-3.13-4.87-.4-6.98,2.16-10.08,4.96-1.63,1.47-3.81,1.7-1.99,4.93.07.13,2.25.3,2.55.24,3.95-.81,7.58-2.87,11.18-4.46.7-.31,1.76-.27,2.47-1.12l1.14.92.03-1.85,1.37-.48ZM144.65,109.6c-.31-.25-5.07.59-5.89.84-1.75.54-4.49,2-6.58,2.4-5.9,1.11-12.51.09-17.75,3.51-.92.6-.98,2.09-2.08,1.2.14,1.18.09,2.76,1.07,3.61,1.14.99,1.8-.21,2.81-.21,1.54,0,3.23.73,4.79.76,1.36.02,14.18-1.55,14.76-2.02.39-.32.26-1.2.57-1.53.45-.49,4.9-2.1,5.65-3.92l2.64-4.64ZM128.19,125.09c-1.52.65-3.48.3-4.84.52-.29.05-.19.74-.53.82-.72.17-2.78-.64-3.5-.67-3.56-.12-7.21.73-10.5.58-2.62-.12-.83-.7-3.67.17-2.16.66-4.77,1.63-6.82,1.82l-.03,1.39c-1.55-.85-2.83,2.8-4.22,3.6-.14,2.51.53,5.8,3.58,6.08,2.67.25,1.74.17,3.8,1.05,3.06,1.3,1.97-.26,3.59-.97.55-.24,4.55-.67,5.47-.75,1.26-.1,3.04-.03,4.17-.32,5.64-1.45,6.36-4.27,10.28-6.99.27-.19.88.18.9.14.18-.27-.11-1.29.46-2.11.5-.71,2.4-1.21,2.79-2.37l-.96-1.99ZM351.78,142.62c-.77-.83-1.22-2.19-2.69-1.2-1.71,1.14.59,6.92.94,8.78.9,4.72,2.06,9.73,2.34,14.5.03.54-.6.88-.53,1.9.03.43,1.02,5.87,1.2,6.13.11.17.9.2,1.13.52.32.46-.24,1.05-.14,1.33.09.23,2.18,2.59,2.82,3.99.36.79,1.21,5.13,1.38,5.39.26.4,1.81.3,1.29,1.93l-2.33.95c-.3-1.5-1.33-2.27-2.06-3.81-1.29-2.74-.62-1-1.94-2.25-2.29-2.17-2.28-4.19-6.3-3.3.94,1.77-.31,1.27-.38,1.62-.16.74.37,2.48-.56,3.52l1.4-.47c.71,4.4,3.57,8,4.69,12.17-3.05,1.22-3.25-.67-4.8-1.51-.2-.11-4.3-.87-4.51-.77-.1.05-.98,1.84-.98,2.05-.01,1.32,2.69,3.21,3.58,4.16.37.4-.26,1.66,1.56,1.22l-.48,1.4c2.3-.47,1.8,2.15,2.42,2.72.36.33-.04-.49,1.16,1.03.8,1.02,2.18.86,1.58,3.28l.9-.45c.21.16.7,2.37.99,2.87.99,1.68,1.74.98,1.87,3.36.02.34.78.27.89.66,2.74,9,1.41,16.69-2.17,23.77-.45.89-.02,2.46-2.03,2.09,1.2,1.87-2.32,2.89-1.94,5.1l-1.33.06-.05,2.77c-2.45-.55-1.38.6-1.64.97-1.1,1.6-4.8,4.46-6.97,5.61-6.65,3.52-19.17,2.46-26.08-.51-.55-.23-2-1.82-3.09-1.92l-.1-1.77-1.16.93c-.65-1.36-2.12-1.09-2.9-1.57-.29-.18-.87-1.13-1.28-1.5-.98-.9-2.77-1.12-2.63-3.47l-.93.93v-1.87c-1.58.85-1.36-2.39-3.73-2.37l.45-1.36c-2.07.39-2.21-2.51-2.95-3.15-2.07-1.79-1.42-1.88-2.72-4.43-.66-1.3-2.36-3.5-2.99-4.58-.25-.43.4-1.61.24-2.5-.06-.32-.72-.33-.9-.69-.3-.57-.26-1.53-.72-2-.98-1-5.54-.64-6.94-.93-.26-.05-3.97-2.96-4.27-3.31-.67-.79-1.2-2.57-1.31-2.66-.84-.7-5.19-.35-6.25.36-.09.06-1.47,1.43-1.51,1.53-.16.36.36.92.13,1.31-.16.26-.88.24-1.16.82-.35.75-.04,6.26.18,7.28.69,3.22,3.89,7.18,6.99,8.38,1.13.44,2.74-.25,3.37.8,1.55,2.63-1.67,2.44-2.19,4.17l-1.1-.35c-.49,1.59-1.17.47-2.25.58-3.77.38-5.15,1.07-8.79-.84-1.35-.71-3.55-2.85-4.59-3.81-1.78-1.62-3.33-3.03-5.06-4.58-.14-.12-1.05-2.29-1.39-2.66-2.09-2.19-8.19-5.01-11.14-3.98-1.03.36-1.56,1.88-2.99,1.24-.44.43-1.38,5.06-1.73,6.08-.73,2.09-1.12,2.18-2.07,3.44-1.29,1.71-.96,2.97-1.55,3.85-.42.64-3.9,3.95-4.66,4.52s-4.58,2.53-4.92,2.64c-.8.26-1.98.1-2.56.45-4.16,2.54-.54,9.29,2.25,11.74.29.01,2.32-.92,2.43-1.01.21-.18.25-4.39.58-5.08,3.41.27,1.58,2.52,1.63,3.77.41,10.77,6.43,23.38,13.34,30.99.85.94,3.79,4.87,4.06,5.07,2.46,1.85,6.1,4.14,8.46,5.74,1.8,1.22,1.9,2.49,2.05,2.6.2.15,2.35.6,3.32,1.14.83.46,1.44,1.71,1.91,1.98,1.04.61,3.28,1.3,4.69,2.09.33.18.35.82.4.83,1.03.36.08-.98,2.36.89.17.14,3.57.86,4.24,1.11.52.19,2.27,1.62,2.44,1.68.29.1,1.15-.29,1.66-.13,7.33,2.31,17.67,4.06,22.56,6.69.27.15.86-.43,1.32-.12.32.22.35,1.01.52,1.13s1.65-.45,3.87,1.08,1.08.5,3.18,1.37c1.92.8,5.23,5.27,6.48,7.1,2.18,3.2,5.3,9.84,5.94,13.41.35,1.94.59,3.32,1.03,5.03,2.19,8.62-2.09,18.43-6.05,25.58-1.21,2.19-1.79,3.12-3.91,4.88-1.53,1.27-.44.42-1.19,1.32-.52.62-1.77.82-2.02,1.98-1.46-.76-.38.27-1.15,1.08-4.77,5.07-16.17,1.73-21.69-.28-2.5-.91-7.98-4.3-10.76-2.79-2.96,1.61.44,6.41-2.49,8.52l-7.28,2.57c.05,2.39-2.07,2.61-2.75,3.31-.48.49-.28,2.3-2,2.21-.2.83.79.3.93.47.12.14-1.3,1.94-.97,3.48l1.71,1.22c.92-.73,2.47-.78,3.24-1.09.25-.1.21-.61.6-.77,3.03-1.23,7.02-2.4,10.19-3.18,3.25-.8,9.44-3.2,7.48,2.66-.68,2.04-3.57,5.01-4.17,6.58-1.12,2.94-.87,4.96,2.3,6.05l.23-1.4,1.4.47-.2-.95,1.04-.54-.38-.85h1.42c-.87-1.16.24-.8.64-1.53s.42-1.77,1.01-2.16c1.25-.81,3.92-1.56,5.37-1l-.47-.93c2.67.07,3.88-1.37,6.09-2.13,1.46-.5,3.87-1.34,5.65-1.46,1.87-.13,4.54.5,6.31.36.84-.07.65-.8.91-.88.59-.17,1.56.09,2.47-.43.44-.25,4.94-6.07,5.54-6.91,1.6-2.22,5.02-6.91,6.22-9.08,2.07-3.74,2.55-9.3,4.82-12.85.32-.5.69-.81,1.31-.8l-.93-.69c1.76-.97.87-2.6,1.44-4.08s1.36-3.24,1.73-4.34c.62-1.86,2.34-10.61,1.43-11.85-.22-.3-1.26-.37-1.6-1.04-.41-.82-.5-4.08-1.61-4.49l.38-1.07-.85-.28c1.53-2.04,3.51.47,4.68-2.81l-.93-.69.91-.21c-1.18-1.09-.25-3.74-.64-4.48-.29-.55-1.12-.64-1.35-.92-.69-.86-2.53-4.49-2.54-5.47-.02-2.64,2.46-2.76,2.61-3.25.39-1.27-1.54-4.91-.96-6.62-1.39-.13-.97-1.99-1.41-2.38-.25-.22-.99.03-1.23-.12-.11-.07.84-1.61-1.47-1.37l.48-.92c-1.55.66-1.91-.84-2.22-.93-.51-.14-1.26.14-1.66-.04s-.37-.67-.47-.72c-.31-.16-1.01.31-1.24-.47-.57-2,.96-2.65,1.26-3.82.25-.98-.64-3.05.1-4.33-1.63.18-1.49-1.1-3.16-1.76-2.4-.94-4.75.16-5.89-.13-.43-.11-.32-.38-2.24-.71-9.26-1.56-16.65-5.49-23.08-12.22-2.72-2.84-5.73-7.51-6.21-11.7-.31-2.71-.57-2.09-1.05-3.75-.41-1.39.53-4.96-.36-6.62-.62-1.26-2.41-1.36-3.49-2.02s-4.81-3.23-5.67-4.14c-1.85-1.95-1.36-2.94-1.94-4.97-.16-.54-.93-.88-1.1-1.48-.07-.25.27-3.72.42-3.84l1.83-.03c-.61,1.79.96,1.81,1.22,2.75.62,2.3,1.13,4.39,3.37,6.11,1.82,1.39,7.5,3.97,9.63,3.28.35-.11.26-.85.62-.91.42-.07,1.01.38,1.56.19,1.24-.44,2.9-1.27,4.02-2.01l.74.77.81-.31c.16,1.17.43,1.63,1.46,2.11l-.48,1.61.93-.47c-.03,1.22.79,4.22,1.48,5.06.05.06.68-.31,1.34.26,1.19,1.04,2.31,3.73,3.75,4.72,2.86,1.95,7,2.65,10.07.72,1.77-1.11,1-2.77,3.49-2.33l-.48.93c2.09-.44,1.13,1.13,1.93,2.53.58,1.03,2.1,1.21,2.36,2.55,1.61-.9.99.25,2.04.59,1.81.58,5.95.45,7.9.38l.76.96c.19-2.23,2.43-1.14,3.97-1.42,2.4-.44,9.15-3.05,11.02-4.03,3.28-1.71,8.47-4.81,11.05-7.36,6.93-6.85,10.64-14.75,13.95-23.23.17-.44,1.13-2.56,1.17-2.71,1.77-6.35,3.08-15.39,2.61-21.88-.08-1.15-.58-2.57.71-2.79-1.48-.85-.17-1.46-.21-1.88-.08-.78-.53-3.34-1.23-3.32l.47-1.39-.89-.21v-.93s.93-.23.93-.23c-.78-1.13-.9-2.5-1.33-3.79-.2-.6-.82-.7-.89-.9-.53-1.7,1.27-4.12-1.53-4.45l.93-.69c-.11-.62-1.33-1.82-1.36-1.94-.07-.25.26-.79.16-1.15-.43-1.61-.73-3.68-1.61-4.87l.94-.46-2.35-4.92-.93.47c-.23-.32.02-2.11-.12-2.59-.41-1.39-1.87-3.74-2.46-5.4-.55-1.55-.69-1.33-.99-2.06-.15-.37.09-2.08.29-2.59l-1.35-.04c-.6-2.84-2.3-4.75-3.24-7.77-1.77-5.69-3.58-9.92-5.98-15.95-.41-1.04-.13-1.33-1.38-2.67ZM118.45,144.71c-.69-4.3-2.77-1.88-4.73-1.64-3.18.4-7.52-.53-10.9-.51-5.28.02-11.58,1.55-15.97,4.48l-.69-1.4c-.58,3.8-3.92,2.97-3.07,7.54.62,3.33,5.28,2.39,7.89,2.5,2.25.1,5.27.47,7.38.49s4.52-1.23,6.8.2c.34-1.57.99-.4,1.76-.6,2.75-.72,7.64-4.82,9.47-7.03.84-1.01,1.22-3.38,3-3.57l-.92-.45ZM94.91,159.37c-1.36-.58-4.02.6-5.68-.62-3.78,3.3-9.47,4.43-11.94,9.27-.22.43-1.72,4.07-1.68,4.3.33,1.61,2.29,1.52,3.37,2.25.46.31,3.22,2.33,3.33,2.51.7,1.18-.61,1.36-.65,1.45-1.71,3.59-4.31,6.14-5.52,10.75-.45,1.71.73,2.71-.76,4.11l1.87.71-.93.7c3.44-.48,7.52,1.02,10.89-.1,1.56-.52.78-1.64.87-1.71.51-.4,3.93-.81,4.84-1.49l.48.97c5.34-1.81,6.27-7.36,2.6-11.38-.07-.08-1.7-1.18-1.81-1.22-1.04-.35-2.1.04-2.58-.09-.17-.04-1.91-1.86-2.84-1.8-1.14-2.59,2.73-3.72,4.7-4.02,3.58-.54,5.67.75,9.37-1.07,3.53-1.73,1.83-2.47,2.8-4.64.31-.7,1.12-.51,1.11-.83,0-.26-1.99-4.32-2.37-4.66-.29-.27-1.86-1.14-2.33-1.36-.35-.16-.91.2-1.1.14-.51-.17.13-1.24-1.63-.5l-.09-.86c-1.57,1.53-1.58.24-2.8-.19-.92-.32-.87-.32-1.52-.6ZM91.28,199c-.06-.06-1.01.53-1.6.48-.81-.08-1.55-1.01-2.53-1.16-4.05-.63-6.09,4.89-7.16,7.81-.15.4-.71.35-.77.61-.13.56-.12,5.7.77,5.6l-.42,1.18,2.59.8c3.03-3.15,6.88-3.37,11-4.08l-.47-.92,1.85-.51c-.7-1.3.39-2.15.17-3.61-.43-2.81-1.85-3.18-3.16-4.84-.35-.44-.21-1.3-.27-1.36ZM215.15,230.1c-.66-.44-3.51-1.56-4.27-1.63-.62-.05-6.53.73-6.74,1-.11.14.05.82-.22,1.17-.44.6-1.92,1.87-2.69,2.7-.45.49-1.95,1.48-2.1,1.91-.39,1.11.02,4.35.75,5.4l.92-.93.06.83c2.25-.8,4.31,1.13,6.02,1.69.96.31,1.46-1.08,1.51,1.09l7.39,3.87c-.17-2.13,1.35-4.54,1.69-6.41.47-2.55-.19-9.25-2.34-10.7ZM149.72,240.31c-5.53-1.17-10.88,3.05-10.47,8.82l1.41.82c1.53-.47,5.93.81,7.04.39.53-.2.52-.91,1.05-1.23,1.11-.67,2.14.03,2.72-2.2.4-1.52-.46-2.02-.68-3.17-.07-.38.41-1.01.32-1.4-.11-.49-1.71-.72-1.41-2.03ZM175.4,248.49c.68-1.81-.18-4.38-2.14-4.8-.81-.17-1.46.55-2.21.57-.87.02-1.66-.44-2.71-.32-2.02.23-9.47,4.44-11.06,5.93-.36.33-.49,1.28-.9,1.67-.46.45-3.5,3.05-3.6,3.27-.41.96.43,4.59,1.48,5.04,1.24-2.93,5.42.13,7.95.04s2.78-2.59,5.39-1.44l-.48-.93c.42.04.84.06,1.22-.18,4.31-2.66,4.57-4.03,6.33-8.33.13-.32.69-.41.73-.52ZM192.32,250.14c-.33-.14-6.36.52-7.22.74-4.82,1.25-7.36,2.82-10.01,6.92,1.04,3.3-.72,5.04,2.8,6.97,1.66.92,1.26-.58,2.17-1.09,2.15-1.19,5.65-1.4,8.2-2.94,1.99-1.2,3.27-3.55,5.19-4.75,1.73-1.07,3.3-.48,3.41-3.17-.92-1.1-1.62-1.67-3-2.08-.35-.1-.92.25-1.17.19-.34-.09-.29-.77-.37-.8ZM206.36,256.18c-.23-.14-4.91.15-5.35.32-.67.26-.65.93-.98,1.01-.6.13-1.7-.17-1.97.07-.15.13.17,1.06-.3,1.39s-1.94.31-2.07.45c-.07.07.27.91.14,1.39-.34,1.34-1.37,2.23-.51,3.86.11.21,3.07,3.42,3.3,3.5.89.35,4.45-.07,4.57-1.53l-.84-.29c.68-1.52-1.61-2.39-1.04-4.61l1.19.34c1.04-2.06,1.25-.75,2.24-.95s1.99-.78,3.08-.83c.59-.85-.93-3.81-1.45-4.11Z"/>
      <g>
        <path d="M220.48,22.06c.15.82-.21,1.35-.54,2.03-1.5,3.03-6.89,6.05-9.72,7.62-.85.47-.94,2.29-3.31,1.11v1.41c-.84-1.11-3.84,1.47-4.09,1.95-.1.18.24.82.14,1.32-.15.71-.58,1.27-.66,2.1-.29,2.82.18,12.39-.56,14.92-.1.35-.84.25-.89.59-.18,1.18.99,4.56-1.42,4.87l.95,1.63c-1.08.54-1.25,3.07-1.92,4.55-.13.3-.66.34-.74.52-.84,1.73-.51,3.56-3.43,3.59-.52-.54,2.37-6.96,2.63-8.27.19-.97-.38-3.68-.29-4.07.08-.34.91-.27.95-.6.32-2.32-.67-5.78-.78-7.81-.08-1.48.44-5.73-.01-6.76-.48-1.1-4.75-1.56-3.94-4.96l4.24-1.71v-.46c-.76.6-1.2-1.96-1.24-2.58-.06-.95.24-3.7.59-4.46.12-.26.81-.32.95-.55.11-.18-.16-.64,0-.82,1.05-1.22,3.59-2.73,5.09-3.29,3.78-1.39,5.41-1.31,8.96-1.02.59.05,1.05-.75,1.78-.79,2.39-.11,4.88.14,7.26-.07Z"/>
        <path d="M162.81,24.52c.26.31,0,1.02.13,1.25.03.06.81-.28,1.25-.12,2.21.85,6.1,3.76,8.19,5.22.21.14,1.22-.26,2.01.03,3.21,1.17,2.76,3.4,2.12,6.37-.9.36-1.83.7-2.78.89-2.09.42-4.59.46-6.46,1.39-.22.11-1.76,1.68-1.89,1.71-3.42.72-10.55-1.45-13.82-2.92-2.38-1.07-1.97-1.73-2.81-2.55-.3-.29-1.11-.14-1.52-.6-.12-.13-1.18-3.06-1.12-3.22.02-.05.67-.07.87-.4.95-1.49,2.72-5.42,4.03-6.17.79-.45,1.64-.3,2.15-.54.93-.43.57-1.67,2.95-1.87,1.36-.12,5.86.56,6.69,1.55ZM162.78,26.87c-1.53-1.51-4.36-1.38-5.98.08-3.18,2.88-.19,3.68-.91,6.78,2.71.89,5.2,1.08,7.86-.05.32-2.28.88-4.98-.98-6.82ZM169.77,33.46c-.5-.33-2.25-1.14-2.66-.9-.88,2.35-3.19,2.81-4.82,4.08-.52.4-.97.47-.78,1.32,1.67.29,3.65.86,5.25-.01.54-.29.64-1.12,1.43-1.53.94-.48,6.23.06,1.58-2.97Z"/>
        <path d="M146.76,161.84c.16.26,1.06,1.26,1.07,1.35.09.56-.09,3.66-.28,4.26-.69,2.23-2.58,6.47-3.94,8.77-.33.56-1.6,1.61-2.03,2.33-1.21,2.03-.41.5-1.53.91-.07.03-.23.82-.95,1.16-1.64.78-5.34,1.74-7.06,1.77-.36,0-4.59-.58-4.8-.7-.7-.4-1.07-1.6-1.36-2.33l-1.36.46c.42-1.77-2.5-3.12-.64-4.18,1.53.44,4.95-.5,4.38,1.84,1.04-.82,1.87.26,2.57.28.16,0,3.04-.23,3.2-.27.46-.1,0-1.47,1.42-.49.38-1.21.98-.5,1.11-.6.86-.69,1.19-1.68,1.68-2.49.99-1.62,2.03-3.74,2.8-5.22s1.51-4.75,2.68-6.77c.2-.35.54-.41.91-.35l-.93-.92,2.08-.43c.52.12.63,1.13.96,1.64Z"/>
      </g>
    </g>
  </g>
</svg>