<?xml version="1.0" encoding="UTF-8"?>
<svg id="_Слой_2" data-name="Слой 2" xmlns="http://www.w3.org/2000/svg" viewBox="0 0 425.89 471.52">
  <g id="_Единорог" data-name="Единорог">
    <g>
      <path d="M197.31,273.84c.84,1.79,3.24,2.83,4.2,4.2.59.84.27,1.6.39,1.78.79,1.17,3.47,2.62,4.4,3.93,1.41-.94-.45-1.2-.17-2.5.07-.32,1.43-2.24,1.6-2.25,1.97,1.32,4.4,2.23,6.01,4.03.37.41.08,1.07.43,1.48.64.76,2.05.42,1.37,2.05-2.04,1.61-2.28.66-4.05.24-.37-.09-.96.3-1.31.21-.47-.12-1.96-2.45-2.93-2.76l-.78,1.83c-2.81.82-3.42-.95-5.22-2.05-.64-.39-3.22-1.28-3.33-2.05-.08-.55.42-1.11.12-1.92-.46-1.27-2.48-2.06-2.92-3.85-.2-.81.35-1.7-.09-2.5l2.27.14Z"/>
      <g>
        <path d="M204.62,111.29c1.48-1.53-4.04-4.44-5.16-5.12-.46-.28-.62-.91-.7-.95-1.01-.53-2.72,1.49-2.76-1.59l5.42.02.82-1.65c-2.27-.32-1.77-2.02-1.94-2.21-.14-.15-.9.38-1.21.32-.51-.1-.49-.86-.86-1.14-.71-.53-1.69.58-1.28-2.05,3.02-.27,4.23,1.61,6.71,2.63,1.49.62,4.41,1.43,5.99,1.57,2.47.21,6.6-1.4,8.75-2.17.8-.28,2.13-.16,2.53-.4,1.34-.79,2.07-3.62,5.24-2.59-.76,1.94,1.2,4.01.87,5.37-.11.44-1.05,2.24-1.36,2.92-2.77,6.01-13.24,11.74-20.11,12.6-1.01.13-1.67-.08-2.63-.29l-.24.96c2.92,1.77,5.77,4.14,9.4,4.15,1.88,0,9.44-1.59,11.31-2.26.45-.16.44-.77.72-.91,2.25-1.08,4.77-2.12,6.1-4.33l1.12,3.57c-.62,4.59-.44,10.82-1.46,15.25-.38,1.65-1.82,3.31-2.7,4.46-1.1,1.44-6.8,7.96-8.35,8.66-1,.45-2.83.2-3.8.64-.61.28-.6,1.22-1.15,1.38-.35.11-6.77-.18-7.31-.27-1.25-.21-4.13-3.32-6.29-2.07-.02,1.19.83,2.02,1.14,2.86.22.6.07,1.74.94,2.68,3.87,4.19,6.65,4.37,11.85,5.19.92.15,2.34,1.04,2.6,1.04.9,0,3.93-1.71,4.93-2.06.56-.2,2.68-.83,2.97-.62l.48,3.84-.96-.24c1.04,2.44-.12,1.84-.44,2.52-1.85,3.83-6.02,10.85-9.98,12.9-3.05,1.59-9.57.95-12.69-.35-3.58-1.49-6.41-2.58-9.23-5.71-1.18-1.31-1.29-1.43-2.48-2.54-.12-.11-1.09-2.83-1.09-3.02.01-2.55,2.67-.18,3.34.05,1.62.56,4.51,1.73,6.13,2.01.83.14,1.67.16,2.51.12-.52-2.11-4.38-3.2-5.13-3.97-.25-.26-.19-.93-.45-1.23-1.35-1.54-2.73-3.03-4.01-4.62-.02-.11,1.7-1.15,2.06-1.1.9.12,4.72,3.58,5.11,1.57,0-2.39-1.48-2.08-2.26-2.77-.11-.1-.72-1.63-1.63-2.41-.35-.3-1.12-.22-1.28-.4-.32-.35.1-2.89-1.04-3.51l5.74.72c.18-1.56.08-1.55-1.43-1.44.44-1.32-.08-4.16-.58-5.42-.39-.99-2.49-1.13-1.32-3.68.95.6,1.79-.3,2.41-.25,1.62.15,4.09,1.33,5.96,1.24.4-.02,5.51-1.42,5.5-1.71-1.98-1.62-4.91-2.45-6.94-4.07-1.01-.81-1.39-1.84-2.19-2.6-.92-.88-4.36-1.54-1.19-3.15,2.74.82,6.18,2.78,8.88,1.21-.53-1.35-2.72-1.82-3.23-2.31-.21-.2-.08-.88-.3-1.09-.4-.4-1.94-1.56-2.06-1.79-1.73-3.39,1.01-7.99-5.43-8.95-.26-.35.43-1.43.72-1.43h8.38Z"/>
        <path d="M227.54,175.09c.11.09,1.02,2.42,1.02,2.56,0,.85-1.63,1.9-.47,3.59h-1.45c.98,1.48-.42,1.69-.86,2.75-.24.57.1,1.64-.17,1.97-.13.15-1.09.16-1.59.54-1.67,1.27-3.25,3.56-4.6,4.53-3.88,2.8-10.77,4.87-15.51,4.09-1.03-.17-4.31-1.57-3.62-2.86l-.92.45c-1.67-3.91,2.84-1.69,4.5-2.12l3.13-1.67c-1.56-.4-5.52-.51-6.69-1.22-.48-.29-3.34-3.34-4.21-4.06-.73-.61-2.01-.74-2.39-1.08-.49-.45-.34-1.71-1.55-2.08l.22-4.01c1,1.42,2.58.7,4.05,1.22.98.34,3.17,2.99,3.97,3.25.63.21,1.29-.16,1.92-.03,4.14.88,12.83,1.01,16.91-.58,1.41-.55,4.17-2.9,5.67-3.94.58-.4,1.32-2.35,2.63-1.27Z"/>
        <path d="M188.69,91.33c.14.08.12.81.39.82l1.64-.5c.64,1.45-.16,2.16-.35,3.23-.33,1.84-.94,3.52-2.01,5.19-2.81,4.37-7.93,7.14-11.88,10.65-8.86,1.45-18.94,1.9-27.56-.98-1.11-.37-1.83-1.95-3.84-1.34l-4.09-3.08c-.16-1.08,4.21-2.95,4.93-3.65,1.91-.25,1.59.93,3.11,1.61,2.32,1.03,11.65,3.29,14.15,3.21,3.46-.1,5.9-1.22,8.95-2.04,2.01-.54,5.07.13,5.21-2.7.57-.41,2.01.49,2.29.36.09-.04.94-1.14,1.34-1.54,1.53-1.55,4.69-5.98,6.08-8.44.15-.26-.02-.68-.16-.94.62.01,1.21-.17,1.79.15Z"/>
        <path d="M195.79,198.69c2.89,2.19,1.29.78,3.11.98,3.72.4,8.41,1.82,12.07,1.09,1.93-.38,3.78-2.04,5.53-2.16s3.65.29,5.37.14c-.31,1.92-.2,4.02-.8,5.9-.37,1.17-3.48,5.89-4.49,6.52-.76.48-6.71,2.76-7.4,2.72-1.04-.07-1.49-.8-2.06-.92-.88-.19-1.6.36-2.18.24-.41-.09-2.4-.67-2.83-.83-.6-.21-.7-1.3-1.32-1.66-.02-.35,6.09-1.92,6.83-1.29l3.7-1.82c-2,.52-3.82-.37-5.98-.46-.93-.04-1.77.53-2.85.45-3.8-.29-5.01-2.92-7.12-4.64-1.98-1.63-4.76-2.45-5.51-5.26-.6-2.24,1.26-.42,2.12-.28,2.17.36,1.25-.64,3.81,1.3Z"/>
        <path d="M240.06,162.08c.13,1.19.78,2.21,1.17,3.32.8,2.27,1.98,8.02,2.01,10.89.02,2.31-.7,4.76-.95,7.03-.37,3.46-3.73,10.43-5.63,13.45-.61.97-2.11,1.48-2.1,3.66l-1.61.1-.31.83c-2.16-2.24.42-5.06-1.67-7.17,1.82-.41,1.02-4.52,1.46-6.37.09-.38.76-.29.88-.66,1.91-6.13,2.97-13.48,3.83-20.1.07-.57-.36-1.23-.27-1.78.15-.91,1.95-4.06,3.19-3.19Z"/>
        <path d="M181.15,82.56c-.32,2.02-2.92,1.72-4.07,2.89-1.53,1.55-2.79,4.44-4.78,5.73-.61.4-1.85,1.07-2.51,1.24-.48.13-5.57.05-5.95-.04-.61-.14-1.22-1.06-1.61-1.05-.33,0-.88.92-1.41.81-1.02-.22-3.12-4.64-3.31-5.7-1.07-5.83.66-4.27,3.98-6.08.2-.11,2.56-2.56,2.75-2.6.38-.08,4.09.02,4.58.11,3.74.65,8.32,4.31,12.33,4.69ZM166.29,85.9c.71-.91.36-3.68-.94-2.86-.04.03.07.63-.36.94-1.89,1.35-3.58,1.4-3.96,4.32,1.45-.59,2.55,1.43,2.72,1.46,1.75.3,4.77-1.46,4.95-3.37l-2.4-.49Z"/>
        <path d="M111.6,93.62c.19.13.22.92.55,1.14.98.67,3.15-.28,4.56-.28,1.82,0,3.35,1.06,5.03.04l.48,2.39-10.48-.39c-.45,2.28-1.84.79-2.39.97-.31.1-2.33,3.4-2.61,3.61s-2.58.59-3.05.58c-.37,0-3.22-1.31-3.49-1.68-3.47-4.66,4.62-7.35,8.34-6.89.39.05,2.92.42,3.05.51Z"/>
        <path d="M169.53,208.66c.31.1,1.14,1.86,1.38,2.21.3.43.97.57,1.14.9,2.86,5.3,2.12,11.39-.13,16.79-4.55,1.72-1.33-1.83-3.24-3.48l.96-.47c-1.07-.9-1.15-2.55-1.37-3.9-.51-3.23-.26-5.32-.99-8.19-.25-.98-.19-2.18-.54-3.2.03-.35,2.2-.82,2.78-.64Z"/>
        <path d="M240.42,107.59c.21.2,2.77,4.74,2.87,5.03,1.06,3.12,1.79,12.03.87,14.98-.45,1.43-1.46,2.36-1.71,3.81-.98.95-1.3-1.81-1.37-2.21-.96-5.65-.37-13.05-2.29-18.31-.64-1.73-2.94-1.67-.64-3.69.47-.22,1.94.08,2.26.39Z"/>
        <path d="M199.2,63.75c-1.34,2.35-.34,1.67-.57,3.72-.14,1.25-1.84,4.02-3.34,4.09-.3-1.03-1.56-1.43-1.89-1.94-.13-.2-1.14-4.22-1.14-4.55-.07-3.81,3.02-6.15,4.92-8.88.81-1.17.35-2.54,2.16-2.86-1.02,1.83.38,9.5-.14,10.42Z"/>
        <path d="M163.74,73.3c-.21.29-2.23,2.76-2.38,2.88-.51.4-6.21,2.29-6.52,2.02l-.99-2.12,4.47-2.6c.34-1.79,1.25-1.6,2.42-2.48.95-.72.4-1.88,1.92-.89l.29-.96c1.47.98,1.83,2.71.79,4.16Z"/>
        <path d="M145.7,92.13v2.39c-1.76-.65-3.04,1.23-4.67,1.82-1.89.69-5.29.49-4.29-2.19.13-.35,3.94-3.08,4.76-2.89,1.15.27,2.38,1.49,4.2.86Z"/>
        <path d="M193.49,85.54c.77.43,1.29,2.55.64,3.43-1.33,1.8-6.97-2.82-5.78-4.49.73-1.03,2.54.54,3.24.82.55.22,1.4-.05,1.9.23Z"/>
      </g>
      <g>
        <path d="M349.02,470.63c-2.05-2.23-1.42-.09-1.93,0-.54.09-3.52-.67-4.77-.7-5.89-.11-11.16-.58-16.66-.84-4.52-.22-14.46-.2-18.76.99-.95.26-.58.93-1.41,1.03-7.61.94-13.99-1.9-21.13-2.88l-8.37-4.44-6.23-5.38.28-9.06,7.28-10.53c.48.27.52,1.02.92,1.12.63.14,3.03-.53,3.36-1.09.3-.5.06-1.36.57-2.06,2.55-3.54,4.04-4.62,5.89-8.71.67-1.47,7.45-6.94,8.94-8.09,2.63-2.04,4.25-1.59,6.89-2.59,1.96-.75,6.4-3.67,8.38-4.22,1.3-.36,1.65.82,3.43-.84,4.09-3.83,5.69-7.18,8.83-12.01.22-.34,1.03-.45,1.28-.86,3.25-5.26,4.23-12.02,2.36-18.08-.1-.34-.69-.38-.76-.55-.38-.86-.84-2.64-1.59-3.43-.59-.62-7.4-4.95-8.18-5.26-3.16-1.26-4.34-1.36-7.81-3.21-.44-.24-1.2,0-1.54-.35-.7-.7-.6-1.82-.74-1.95-.11-.11-.87.29-1.38.14-3.14-.9-5.79-4.79-9.24-3.88-3.23.86-5.85,2.85-8.29,4.86-.63.52-3.86,3.01-3.94,3.25s.59,1.64.41,2.55c-.1.51-1.16-.06-1.49.55-.09.17-1.06,3.41-1.13,3.79-.81,4.42,3.14,11.44,1.64,17.12-.13.48-1.45.35-1.65,2.66-.14,1.67.98,3.2.98,3.67,0,.32-.69.86-.75,1.45-.11,1.06.19,2.41-.02,3.24-.09.35-2.89,2.68-3.62,2.71-.28-1.31-1.39-.76-2.09-1.2-1.35-.84-3.67-4.06-5.64-1.51-1.85,2.4.24,3.26.32,3.55.16.65-.12,1.5.13,2.18.5,1.35,2.26,3.04,2.65,4.58s-1.04,2.84.6,3.2v.93s-4.31,4.32-4.31,4.32c-1.62-.6-1.4.65-1.78.75-1.08.28-2.29-.53-3.29-.51-2.12.06-4.31,1.23-6.44.02-.5,2.98.46,1.93,1.37,2.69l-1.04,5.43-2.83,1.7-1.42,7.08-2.27,5.95s-8.5,4.25-7.36,5.38,1.7,7.08,1.7,7.08l-4.53,3.68c-5.19-1.43.21,0-4.92.33-3.84.25-3.79-.86-7.83.4s-8.01,3.42-12.1,2.21c-5.15-1.52-10.91-1.78-16.39-3.25-2.01-.54-4.98-2.41-6.84-2.33-.9.04-.46.95-1.39,1.06-2.23.26-4.63-.72-6.74-.74-2.64-.02-5.48,1.28-7.67.93-.54-.09-.93-.84-1.17-.69-.05.03.08.87-.33.96-.78.18-1.68-.37-2.34-.27-7.92,1.16-37.35,8.85-37.35,8.85l-14.73-11.33-7.17-10.19,1.13-12.84s14.35-7.17,15.48-7.93,7.93-1.51,7.93-1.51l13.06-6.11c1.94-2.13,4.8-2.94,6.85-4.39,3.87-2.76,5.62-5.31,10.34-7.53.37-.17.42-.78.47-.79.32-.11.99.45,1.57.36,5.91-.96,11.91-.46,18.27-1.39,9.23-1.35,23.55-3.62,31.15-8.87,1.06-.73,1.05-1.71,1.61-2.43.91-1.17,1.92-1.93,2.84-3.52.97-1.69,1.31-4.17,2.86-5.67-.36-1.51-.39-3.25-.66-4.69-.56-3-2.93-10.76-4.35-13.61-1.78-3.56-3.51-6.84-4.92-10.49-1.47-3.8-2.53-7.73-4.38-11.38l1.96-2.37-1.47-1.93.95-.95c-1.12-.95-1.82-2.78-1.45-4.22.15-.58,1.64-.54,1.48-1.52l-1.49-2.88c1.62-.36.62-1.69,1.22-2.66.21-.35,1.02-.36,1.15-.53.28-.37-.62-1.28-.37-1.76.34-.65,3.58-2.49,4.25-3.2l-.95-.72c.03-.77,1.35-.71,1.47-1.28s-.73-3.56-1.1-3.87c-.52-.43-1.94-.24-2.62-.73-.72-.53-.98-2.48-1.19-2.65-.34-.26-1.22.08-1.69-.22-1.45-.93-3.85-3.81-5.86-4.45-1.45-.46-2.99-.02-4.47-.32-3.18-.65-8.21-2.31-11.58-3.27-14.34-4.07-35.05-11.68-44.53-23.5-1.56-1.95-5.11-8.51-7.13-9.38-.87-.38-2.44-.02-3.09-.76-1.19-1.33-2.67-4-3.79-5.57s-3.52-4.44-4.31-5.91c-.18-.34-.44-2.48-.7-2.7-2.63-.84-2.74,2.33-3.75,3.44-.46.5-1.33.47-1.99,1.01-.52.42-.77,1.48-1.02,1.61-.19.11-3.4,1.32-4,1.52-.92.31-4.79.83-5.43.45-.73-6.45,1.92-10.3-2.91-16-1.72-2.03-3.24-1.73-5.53-2.48l-.5.28c-.03.99-1.59,2.05-1.58,2.19.06,2.85-.11,2.04-1.2,4.57-.18.4.2,1.01-.06,1.42-.54.86-4.39,3-5.26,3.87-.53.53-.51,1.57-1.23,2.12-1.82,1.38-7.58,3.23-9.83,3.09-1.73-.11-1.89-.7-3.09-1.68.27-3.22,4.36-4.41,4.1-7.62-.19-2.37-4.12-2.73-5.53-3.42-.25-.12-.38-.88-.87-1.1-3.34-1.46-7.43-2.97-11.12-2.2-1.14,2-2.31,3.93-2.35,6.33-.03,1.56.7,1.76.9,2.82.26,1.35-.07,3.23,1.13,4.85.31.41,1.26.61,1.78,1.33,2.34,3.18-.42,3.45-.53,3.92-.69,3,6.42,7.95,6.75,10,.53,3.31-4.58,2.24-6.71,1.66l.07,3.28c1.03-.04,4.79,3.59,4.99,4.33,1.1,4.25-2.44,10.57-7.21,9.62-2.29-.45-.42-5.41-4.58-4.57-1.5,1.95-.7,3.99-.89,5.78-.09.9-.59,1.31-.83,2.03-.1.31.29.86.2,1.01s-.96.38-1.35.77c-2.05,2.07-4.72,5.5-7.03,6.92-1.75,1.07-5.93,2.35-7.47,3.38-2.22,1.49-.72,1.66-4.33,2.98-.65.24-.63,1.05-1.18,1.36-.23.13-4.65.73-5.14.77-.59.05-2.98-1.19-4.04-.79-.77-1.55.78-4.22.75-5.01-.01-.31-.62-.73-.61-1.02.05-1.66.75-6.04-.12-7.17-1.43-1.38-3.02.16-5.05.25-.98.04-3.33.35-3.88-.43,1.1-3.31-.24-5.87-.21-9.11l-2.87.95c.12-4.81.22-9.87,1.47-14.49.12-.45.85-.2.96-1.05.44-3.37-1.32-6.89-.79-9.37.57-2.65,3.04-5.76,4.12-8.38l8.42-6.46-2.23-4.55c.17-1.37,2.25-2.18,2.67-3.15.26-.61.79-7.34.74-8.35-.11-1.99-1.25-5.26-1.5-7.21-.23-1.81.76-4.55.51-6.47l.95.49c-.88-2.18,1.38-3.97,2.89-5.43.43-.41.03.73,1.14-1.1,2.72-4.48,6.05-7.91,10.62-11.09,1.36.1,3.27-.04,4.61-.25,4.65-.7,10.1-1.15,14.97-1.32,6.12-.2,13.95,1.16,19.44-.13,1.72-.41,1.92-.46,3.2-1.27.94-.59,2.91-1.24,2.49-2.6l-3.05-2.65c-1.76.61-2.81,2.14-4.81,2.39s-3.13-.67-4.4-.8c-1.01-.1-4.87.13-5.36-.27l-1.3-3.29c2.35-1.14,3.68-2.42,5.56-4.16.05-1.72-.29-3.86-1.28-5.29s-9.32-9.74-10.84-10.95-3.19-1.22-4.8-1.62c-.48-.12-.49-.97-.85-1.15-.97-.48-2.16-.63-3.11-1.26-2.41-.06-1.26,5.76-1.55,7.07-.1.47-1.73,2.59-2.03,2.74-1.51.77-3.14-.52-4.78-.21.41.86-.72,3.63-1.21,4.33-.28.4-.84.04-1.05.17-.27.17-.15.68-1.14.94-1.68.43-4.4.61-4.5-1.61-1.85,1.4-.82,3.54-2.16,5.51-.87,1.29-4.72,3.53-6.27,3.38-3.03-.28-2.15-4.5-3.8-6.5-1.41.29-.66,2.24-1.02,2.8-.15.24-1.45.37-1.97.65-.58.32-1.16,1.13-1.61,1.22-.37.07-7.03-.55-7.39-.65-.61-.16-1.68-1.39-2.51-1.74-5.34-2.28-8.16-4.73-12.5-7.89-.35-.25-.99-.04-1.3-.45-.63-.84-2.42-6.98-1.88-7.37l5.27-.95c-1.09-.09-1.83-.84-1.92-1.92l-.95.95c-.58-2.14-3.91-2.74-3.36-5.26,4.49.16,10.91-3.05,12.7-7.23.59-1.39.47-4.73,1.2-6.82.09-.26.78-.31.83-.41.12-.26-.22-2.79.57-3.91.18-.25,4.69-2.46,5.45-2.81,1.12-.51,2.87-.34,3.83-1.31.64-.65,1-3.11,1.36-3.33.23-.14,5.07-.11,5.42-.04.96.17,1.49,1.04,2.18,1.23,2.8.74,6.2.16,8.77-1.22.37-.2.49-.99.81-1.14,4.82-2.27,8.76-1.66,13.66-.21,12.32,3.67,22.24,11.85,33.44,17.7,6.89,3.59,22.2,7.77,30.31,8.97,1.31.19,4.58-.95,5.6-1.85.64-.57.63-1.49,1.33-2.15,8.11-7.66,14.3-15.51,22.6-22.3,5.85-4.79,9.01-7.61,11.12-15.12.16-.58,1.06-1,1.1-1.4.19-1.87-4.75-2.41-6.21-2.83-3.58-1.03-8.02-2.97-11.96-3.84-.85-.19-5.65-.83-6.39-.8-1.85.06-2.27.85-3.59,1.26-3.72,1.13-5.56,2.63-8.98,4.87-1.26.83-.73,1.69-3.48.84-.65,1.56-.49,2.79-1.29,4.44-.17.34-2.69,2.49-2.88,2.53-.95.2-5.35-.42-6.33-.76-1.9-.66-1.32-2.16-2.43-2.82-1.99-1.17-4.33-.25-6.45-2.17-1.66-1.51-2.73-3.51-1.95-5.77.54-1.57,1.63-1.16,2.44-1.88,1.98-1.76,2.51-2.46,5.1-3.89,1.77-.98,3.89-2.76,6.66-3.49,2.35.02,4.49-2.9,6.19-4.6l-1.43.48-.02-1.44c-3.45.27-6.29-.34-9.39,1.61-3.78,2.37-3.9,3.63-8.8,5.81-1.22.54-1.68,1.71-3.04,1.67-1.17-.04-5.8-1.55-6.04-2.73-.77-3.72,4.1-5.33,2.86-9.23,3.35.07,4.41,2.6,7.92,2.43,2.79-.14,4.19-1.76,6.18-2.47,2.26-.8,8.24-2.86,10.3-3.08.73-.08,2.27.95,3.18,1.13,1.53.3,4.19-.07,5.21,1.04,2.28,2.49-.12,4.91-1.36,7.24-.28.53-.15,1.45-.4,1.74-.2.24-1.13.19-1.57.57-3.43,2.91-9.36,4.43-13.51,5.91-.77,1.36-5.1,3.15-3.91,5.06,2,1.03,4.17.34,6.15-.29,4.61-1.47,9.99-4.59,13.51-6.99,2.61-1.79,4.86-3.23,6.83-5.91,3.54.63,6.16-1.39,7.54,3.12l2.12-.36.21.9h.94c.1-1.58,1.27-1.53,2.61-1.45l.74,1.74c.31.27,2.34-.12,3.05.19.58.25.11,1.15.59,1.5,1.11.8,4.16.36,5.23.66.78.21.88,1.04,2.37,1.24,6.36.86,17.5-.97,22.9-3.41.73-.33,1.56-2.18,3.72-1.41l-.42-.88c2.94-2.24,8.72-2.36,4.99,2.35-.3.37-2.34,2.75-2.49,2.88-.62.53-2.76.79-2.96,1.02-.36.43.12,1.85-.92,2.81-.92.85-2.57.89-3.65,1.48-3.35,1.81-.7,1.47-5.32,2.35-4.25.81-1.68,4.37-2.29,5.61-.1.2-2.38,1.88-2.6,2.19-1.34,1.83-1.97,5.85-5.42,5.11l.57,2.78c.87.61,3.46-.49,3.25,1.53-1.96-.6-2.05.49-2.8.9-2.85,1.57-5.56,3.38-8.48,4.83l-.69,2.42,2.87-.47-.08,1.84c-1.33.07-1.94,1.01-2.93,1.61-3.54,2.15-5.81,4.03-8.58,6.96-.42.45-2.23.18-3.01,1.1-.88,1.03-.18,2.67-.73,3.82l3.58-.48.24.95c-2.33.92-3.47,3.05-5.24,4.59-.57.5-1.36.54-1.75.88-1.58,1.38-2.53,3.07-4.5,3.9l1.33,3.25c-2.07,3.09-5.68,5.2-4.21,9.43l3.59-1.43,1.64,2.54c-.38,1.64-1.84,1.81-2.22,2.38s-.53,2.27-1.16,3.29c-1.14,1.85-2.82,3.43-3.76,5.44,2.53-.35,2.15,1.93,1.28,3.44s-7.5,5.69-9.36,6.12c-3.39.77-6.18,1.97-9.9,2.2-1.11.07-3.55-.29-4.71,0-3.06.78-6.98,1.32-10.59,1.42-1.81.05-9.87-.61-10.52-.4s-.72,1.42-.99,1.35l-1.19-.51.22-.94c-3.94-.19-8.08.82-11.96.98-8.68.37-14.91-1.59-22.06,4.31-.86.71-6.01,5.17-6.47,6.1s-.14,2.22-.5,3.08c-.17.41-1.67,1.67-2.08,2.82-1.26,3.46.43,3,.59,4.58.06.59-1.36,2.26-1.39,3.78s1.32,3.71.98,5.67c-.16.94-1.82,4.13-1.89,4.45-.39,1.73.3,4.24-1.45,5.67l.98.48c-1.25,2.75-.87,6.28-3.05,8.73-.59.66-3.63,1.6-4.29,2.02-.95.62-1.04,2.44-1.45,2.78-.26.22-.98,0-1.18.19-.3.29-.19,1.94-.6,2.52l2.88,2.06c-.69,1.67.04,4.4-.2,5.64-.18.9-.96,1.61-1.06,2.47-.43,3.89-.15,7.57,2.49,10.68,1.6,1.88,3.99,2.8,6.44,2.42-1.57-1.47-.06-1.58,0-2.62.04-.77-.81-1.42-.9-2.04-.14-.99.73-1.43.74-1.8,0-.43-1.45-1.48-.58-2.67,2.7-1.6,4.03.47,6.19,1.38.71-.14,2.63-2.86,3.06-3.63,1.36-2.42,2.59-6.23,3.44-8.63,3.22-9.06,2.79-12.47,1.34-21.76-1.26-8.12,3.81-15.04,10.43-19.07,2.56-1.56,6.6-3.11,9.59-3.34.91-.07,2.92-.22,3.6.21,1.94,1.23-3.03,3.71-2.89,5.04l7.92-.04c1.38,1.57,2.86.73,4.81,1.44,4.74,1.73,9.3,8.98,8.93,14.06.98.7.34,3.89,1.57,3.71,2.41-.36,2.75-7.36,2.45-9.27-.21-1.33-2.26-6.48-3.19-7.26-.79-.67-2.17-.27-2.29-.37-.28-.22-.29-1.06-1.07-1.53-2.62-1.59-7.24-2.08-7.64-6.01.85-.83,10.72,2.08,12.54,2.55,7.25,1.84,16.34,3.7,24.13,2.75,1.07-.13,1.81-.98,2.37-.98.62,0,1.19.83,1.94.94,6.34.94,12.7.88,18.52-1.94,6.05-2.93,10.79-6.48,14.88-11.56.48-.59.33-1.09,1.54-.87,1.05.19,2.39,9.27,2.17,10.23-.08.34-.81.28-.93.69-.71,2.5-1.05,5.36-2.13,7.82-1.2,2.76-1.64.72-2.74,5.92-.36,1.71-1.57,3.27-.91,5.55.44-.68,1.75-.54,1.82-.61.61-.57.74-2.61,1.19-3.11.11-.12,2.8-1.58,2.96-1.55.55.09.59,3,.64,3.66.11,1.38-.13,3.04.09,4.48,1.63-.97,2.6,2.55,1.91,3.83,2.08.36,1.15-3.1,2.2-3.32,1.69-.35,1.88,1.07,2.45,1.41.69.41,1.61.38,2.32.94,2.05,1.62,1.39,4.99,2.14,7.2l2.85-.49c.16-.24-.33-1.95.73-1.42,1.21.61.59,2.92.91,3.63.6,1.32,2.64,2.19,3.23,2.8.66.69-.64,3.78,1.86,3.15l-.34.86.82.32c-2.39,5.02-3.1,1.91-5.77.03-.73-.52-1.61-.5-2.2-.91-.65-.45-1.55-2.34-2.31-2.25-1.9.33-1.54,1.99-1.93,3.38-3.09-1.78-3.2-5.75-5.35-8.17l-2.56.02v2.88s-2.34-.08-2.34-.08l-1.97-3.52.97-.46c-2.18-2.01-2.61-3.94-2.4-6.95-1.29-.24-1.42,1.14-2.09,1.77-.27.26-.96-.05-1.27.46-1.09,1.8.79,4.52-1.67,5.9-1.07-.78-1.24-2.26-1.84-3.19-.23-.35-1.21-.52-1.25-.86-.02-.24,1.74-3.24.93-4.56-4.42-1.73-4.8,6.56-4.29,9.32.47,2.53,3.45,3.75,4.61,5.21,1.66,2.09.83,1.92,3.27,4.14,7.1,6.45,21.13,13.65,30.42,17.04,9.96,3.63,20.94,3.06,31.86,3.58,5.29.25,10,1.35,15.81.95,3.4-.24,6.55-1.8,9.96-1.92l5.14,6.1c1.58,4.32,4.01,9.24,1.95,13.82-1.47,3.27-2.69,2.56-5.39,1.59-.4-.14-2.54-.94-2.68-1.01-.33-.17-1.61-2.3-2.84-2.66-.98-.28-4.38-.25-5.12.33-.42.32-.13,1.11-.4,1.36-.96.89-2.48,1.92-3.37,3.6-2.09,3.92-1.73,5.4-2.76,9.11-.11.4-.84.32-.92.67-.73,3.06,1.03,20.84,2.48,23.78,2.87,5.79,5.85,14.04,8.01,20.33.58,1.68,2.95,7.65,2.96,8.98,0,.34-1.18,5.27-1.35,5.88-1.03,3.62-4.94,9.78-7.09,12.56-.51.66-1.21.03-1.91.45-2.53,1.51-3.87,2.83-6.69,4.31-7.72,4.06-21.66,8.83-29.75,9.54-2.65.23-6.27-.72-8.08-.4-4.4.79-10.86,1.75-14.81,3.9-2.54,1.39-9.2,5.52-10.86,7.47-.73.86-4.55,6.17-4.9,6.99-.44,1.02-.57,5.1-.94,5.47-1.78,1.78-5.21-2.61-8.03.36-.62.66-.57,1.6-1.04,2.31-2.33,3.5-4.06,7.44-7.51,9.97-1.75,3.06,8.66,2.92,10.2,2.76.17-.02,3.23-.79,3.39-.86,2.98-1.37,3.93-5.31,7.82-4.3,1.35,2.13-.57,2.97-.93,4.91,1.2,1.24,3.29,1.84,4.99,1.56.54-.09,1.18-.75,1.95-.9,5.61-1.05,13.69-3.12,10.32-10.66l.96-.47-.45-1.71c1.86-.59,4.3-.39,5.99-1.44,4.37-2.71,7.01-9.62,13.18-9.1-.96,1.28-1.75,4.04.34,4.69,2.88.89,1.8-1,2.09-1.29,1.08-.27,2.45.2,3.48-.06.37-.09.31-.95.6-.96,1.9-.08,2.62.96,1.97,2.76-.04.1-1.44,1.05-1.71,1.39-.62.76-1.46,1.69-1.95,2.32-1.67,2.14-1.46,4.17.2,6.5,1.61,2.26,5,1.06,5.06-1.46,3.12.5,2.15,4.3,4.31,6.96,1.46,1.8,7.02,3.86,7.58.82.22-1.19-.14-3.87.08-5.05.05-.24,2.26-3.3,2.73-3.86.28-.34-.07-1.16.42-1.3,1.63.04,3.92-.29,5.15.97.42.43.19,1.08.64,1.48,1.18,1.06,9.3,3.8,10.23,2.85-.28-1.4.08-3.23-.04-4.52-.17-1.83-.84-4.93-.9-6.73-.03-1.07,1.59-2.64,1.47-4.02,2.05-1.74,7.23,4.59,9.42,5.08,1.61.36,3.28.04,4.9.13-.26-3.77-.97-8.5-.52-12.23.12-.96,1.04-.7,1.49-1.88.6-1.56.81-4.27.52-5.92l1.9-.84c.86,1.63,9.07,3.6,9.05,1.47-.47-.49-1.04-.91-1.33-1.56-1-2.23-1.74-6.15-2.39-8.64-.61-2.29,1.8-2.31,2.45-3.58.89-1.76.6-4.24,1.04-6.11l.49-.46c2.86,1.81,4.34,1.09,5.23-1.9.2-.69-.8-1.61.76-1.47-2.02-1.87.07-3.25,2.02-2.36.53.24.36,1.39,1.81.93-.44-1.61.65-3.61.48-4.99-.1-.78-.88-1.48-1.12-2.27-.65-2.1-.39-3.08-2.47-4.71-.62,2.16-1.08,2.49-3.33,2.4-4.01-.16-3.46-3.35-5.33-5.71-1.06-1.34-5.78-3.98-2.1-5.57.78-.34,4.16,2.28,4.75,2.91.34.36.98,2.95,1.71,1.66.22-.39.81-3.57.73-4-.06-.34-.87-.26-.97-.65-.89-3.57-.39-1.04-1.68-2.53-.38-.44-.38-1.44-.72-2.08-.24-.44-1.55-.4-.95-2.25,2.17.05,3.75,1.05,2.87,3.35l2.28.11c1.15,2.39,2.56,4.52,5.39,3.25-.82-1.36.17-2.8-.09-3.95-.18-.79-1.33-1.57-1.58-2.31-.4-1.15-.67-3.85-1.76-5.15-.13-.15-3.35.12-.88-2.28,3.1.91,4.81,3.15,6.52,5.74.69,1.05-.26,1.65,2.55,1.2.77-.74-.25-4.71-.72-5.68-.7-1.41-1.73-3.14-2.42-4.36-1.14-2.04-2.92-2.39-1.61-5.74,1.53,1.44,4.69,2.78,3.92,5.19l3.68,1.57.07,2.33c3.32-.72,2.13-1.9,2.52-3.95.1-.53.78-1.04.83-1.32-1.95-.02-3.63-.65-2.88-2.87l-1.35-.07-.57-2.33h2.15s-.24.95-.24.95c1.74-1.65,3.1,3.03,2.88,4.31,2.16.02,2.97-.87,2.9-3.13-.05-1.83-4.47-7.15-1.47-8.36l3.08,3.88.3,1.38,1.45-.21.37-.58-.36-4.28.92-.44c-.56-.61-2.79-4.15-2.85-4.41-.21-.86-.11-2.16.21-3.02.53-.98,3.17,1.76,3.42,2.1,1.21,1.69.93,4.4,3.74,3.68.22-.04.74-2.99.68-3.14-.09-.27-.83-.16-.9-.55-.11-.65.58-1.17-.02-2.24-.55-.98-1.83-1.26-2.11-1.73-.13-.22.13-2.71-.25-3.37.56.28,1.2.36,1.73.68.18.11,2.91,2.76,3.04,2.93.94,1.22.05,3,2.44,2.4,0-1.07,1.06-1.83,1.24-2.48s-.68-4.9-.91-5.56c-.19-.55-1.31-3.45-1.42-3.63-.37-.61-3.53-1.83-2.78-4.38l.57.83c4.15.02,5.59,4.03,8.52,5.88.02-1.06.45-2.3.15-3.34-1.07-3.75-5.54-4.49-3.97-8.64l3.63,1.44c-.51,1.84.54,1.73,2.1,2.44l-.46,1.38,1.98-.29.92-4.19c-1.52-1.09-1.77-2.95-3.19-4.57-.98-1.12-3.05-1.53-2.62-3.59.1-.49,2.07-.9,2.58-.8.3.06,3.62,4.8,4.79,2.31.35-.75-.82-4.76-1.25-5.49-.19-.32-2.89-4-3.17-4.24-1.24-1.09-3.4-.97-2.84-3.69l.89-1.09c1.45-.75,2.86,1.19,3.74,1.65.6.32,3.67,1.42,3.81,1.59.24.3.08,1.2.36,1.77.24.49.99.81,1.12,1.34.14.57-.45,1.35-.34,1.52.15.21,2.13,1.95,2.24,2.28.29.84.74,6.18.54,7.03-.08.34-.81.3-.91.69-.46,1.93-.16,4.57-.52,6.03-.11.46-1.56-.03-.52,2.17-1.96.35-.79,1.23-1.03,1.85-.07.18-1.65,1.94-2.03,3.02-.44,1.23-.7,4.36-1.15,4.98-.36.49-1.17.16-1.43.32-.16.1-.88,2.52-1.34,3.31-2.2,3.8-5.2,7.34-8.32,10.64-2.04,2.16-5.2,3.29-4.75,6.58l3.33.29c1.02-1.61,2.57-2.43,3.98-3.68.32-.29.34-1.12.83-1.59,2.17-2.01,6.7-2.97,8.26-6.65.33-.79-.11-1.6-.06-1.69.17-.27,1.85-.66,2.18-1.17.76-1.18,1.6-4.76,2.32-6.06.49-.88,1.73-1.35,2.02-2.3,1.42-4.67,2.96-13.56,3.43-18.6.48-5.09-.37-8.62-3.32-12.77-2.25-3.17-6.54-5.94-7.35-10.56-.21-1.18.23-1.89.06-2.85-.23-1.27-1.48-2.05-1.79-2.67-.17-.35.09-1.2-.17-1.9-.12-.32-4.6-2.56-5.46-3.62-.94-1.17-1-3.98-1.72-4.99-.43-.59-3.73-3.4-4.48-3.91-13.48-9.11-29.78-12.55-43.63-21.28-1.49-3.3-5.98-4.52-8.59-6.98l-1.12-.07c-.17.15.58,2.33.78,2.81.42,1.04,2.84,5.87,3.53,6.52.53.5,1.59.51,1.82.83.32.45.18,2.31.95,3.02-.01.15-2.05,2.04-2.19,2.11-1.9.95-7.92,2.71-9.86,2.45-.32-.04-.24-.88-.63-.97-7.76-1.95-10.57-1.12-17.99-5.78-4.88-3.06-3.05-2.96-5.89-6.67-1.03-1.34-3.06-2.09-3.15-4.58-.03-.83.81-.58.98-1.06.47-1.32.36-4.28.98-5.86-3.42-.67-7.51.27-10.85-1.38-2.2-1.09-7.67-5.08-5.64-7.75,1.27-.24,1.63,1.09,2.48,1.35,3.21.96,14.53-.04,17.62-1.3,2.64-1.08,4.04-2.62,5.96-4.15,1.47-1.18,4.14-2.99,3.85.43l-4.81,6.75c-1.16,2.86-2.09,6.05-2.37,9.06.09.36.86.29.94.65.25,1.15,1.07,5.51,1.76,6.38.55.69,4.7,4.53,5.45,5.01,2.72,1.73,11.93,5.2,11.89-.14-.79-.3-1.32-.61-1.87-1.28-2.98-3.65-6.43-12.5-6.18-17.21s4.57-10.33,4.79-15.58h1.18c-.03-1.18.49-2.25,1.06-3.25,1.5-2.64,4.29-5.68,5.74-7.93.86-1.33,2.24-6.91.6-7.29v-.95c.05-.18.7-.21.78-.41,1.61-3.83,5.04-9.08,4.01-13.41-.1-.42-1-.15-.99-1.01.01-1.02.57-2.02.53-3.36-.11-4.15-3.11-10.87-2.9-15.32.01-.31.87-.04,1-.96.28-2.01-.7-4.29-.52-5.74.47-3.71,3.35-8.8,3.77-13.51.35-3.92-1.25-8.19.79-11.68,1.85-.56,6.4,7.22,8.49,8.27,1.87.94,4.97,2.35,7.07,2.99.74.23,5.01,1.41,5.27,1.19.11-1.87-1.53-.99-2.56-1.46-1.88-.86-11.08-6.49-11.69-7.73-.11-.22.35-.77.26-1.06-.27-.89-3.35-3.84-3.7-4.52-.84-1.64-.86-4.98-1.58-6.46-1.52-3.15-3.18-6.85-5.08-9.73-1.07-1.64-4.87-6.15-4.88-7.6,3.48-.95,6.3,3.08,9.15,4.74,4.09,2.39,10.24,2.67,14.81,1.39,5.52-1.55-.07-3.17-2.7-3.49-1.04-.13-1.79.49-3.04.25-4.42-.83-14.31-7.63-17.76-10.55-.26-.94-3.17-2.19-2.84-2.89.66-1.44,3.76-.46,4.88-.1,1.04.33,1.93,1.91,2.77.57l-6.31-7.78c-1.58.27-3.12-.7-4.15-1.85l.86-2.38c2.91,1.16,3.45-.39,5.16-1.06,4.48-1.75,7.35-2.47,10.11-7.13.93-1.57,2.42-4.27-.61-4.49-.38.05-2.07,3-2.45,3.39s-.92.04-1.05.16c-3.72,3.46-2.41,1.65-6.69,3.38-.1.04-.11.7-.46.75-3.09.51-9.41-1.25-12.12-2.64-.68-.35-.83-1.39-1.49-1.86-2.09-1.5-9.51-4.14-11.95-3.92-.5.05-.98.7-1.57.65-.84-.08-2.09-1.23-3.05-1.23-.68,0-1.17.76-1.87.86-1.16.17-2.36-.69-3.56-.48.3.6.23.99-.02,1.59-.66,1.58-1.87,1.32-1.89,2.71,1.63.43,3.59.96,5.13,1.59.58.24.3.46,2.05,1.01,4.18,1.32,5.55,4.93,8.13,7.77-.61,2.11.46,4.43,0,6.55-.04.19-2.18,2.35-2.41,2.98-2.64.31-1.43.99-2.57,2.18-1.33,1.37-4.3,1.28-6.05,1.62-1.04.2-2.28.93-3.07.99-2.37.2-4.16-1.49-6.44-1.73l.03-1.8c1.21-.1,4.47-2.02,4.93-2.95.39-.79.09-1.56.28-2.05.18-.44.91-.34.95-.65.11-.79-1.59-5.45-2.04-6.55-.27-.67-1.11-.63-1.32-1.18-1.36-3.62-.1-6.82.98-10.28.12-.37.82-.34.91-.71.3-1.2-.99-3.06-.99-4.21s.83-1.89.97-2.9c.52-4-.81-8.74-2.62-12.19-1.08-.31-2.89,1.75-3.75,2.23s-2.3.79-3.41,1.59c-4.26,3.07-7.38,6.95-7.74,12.31-.07,1,1,2.99-.49,3.47-1.59.03-4.59-.77-3.53-2.8-1.42.09-1.67-1.2-2.61-1.51-5.44-1.82-19.7.01-24.16,3.68-.95.78-1.18,2.14-2.27,3-4.88,3.82-17.94,11.96-23.39,13.38-7.87,2.05-16.36,3.72-23.83,6.86-5,2.1-7.07,4.83-13.94,3.3-.38-.08-.38-1.32-2.04-1.4-4.01-.2-2.02,4.21,1,4.28,1.22,1.45-5.48,3.19-6.11,3.51-1.05.54-2.5,2.43-3.95,2.74-1.35,1.33-.19,3.98,1.51,4.19.51.06,2.96-.86,4.21-.73,1.47.15,2.96.47,3.82,1.78l-.19,1.62c-.68.9-4.14.94-4.35,1.06-.25.14-.36.9-.62,1-1.91.8-5.42,2.5-7.51,1.86-3.21-.98-6.55-5.54-5.63-9,.43-1.62,2.81-3.5,3.12-4.82.57-2.4-4.39-2.52-3.13-6.7.4-1.34,3.67-2.53,4.98-2.72,2.82-.42,3.08,1.69,5.46-1.34s2.99-7.92,8.4-7.33c3.99.43,1.36,4.93,4.77,5.31,2.42.27,2.22-1.07,3.02-1.43,3.19-1.42,6.8-1.3,9.84-1.93.39-.08.34-.89.92-1.1,11.33-4.11,25.94-5.7,34.11-16.17.61-.78.49-2,1.71-1.9l-5.76-2.62c-.68-3.13-3.89-5.58-2.86-8.87-3.45-.36-6.85-.43-9.6-2.61-4.59-3.63-3.85-6.33-4.39-11.67-.62-.61-4.82-.55-5.64-.81-.37-.11-3.56-1.67-3.71-1.81-.12-.11-1.71-2.64-1.73-2.81-.14-.91.22-1.69.17-2.54-.09-1.59-.91-2.8,0-4.58-2.91.06-8.3-2.35-10.08-4.54-.96-1.19-1.16-4.49-1.16-5.98-.74-1.73-10.01-4.44-6.28-7.72,1.48-1.3,5.13-.11,5.11-4.7,4.15-.73,5.81.41,7.23,4.13l8.52-.35c.67,2.53,2.98,4.62,2.89,7.67l.87-.39c1.09,1.99,3.64,1.61,6.23,2.65.57.23,1.43-.03,1.9.24,1.6.91,3,7.83,4.92,9.25.38.23,4.59.56,5.39.8.2.06,3.52,1.93,3.68,2.07.25.21,3.56,5.16,3.64,5.48.3,1.3-.81,3.97.25,5.72,1.53-.24,3.04.47,4.5.53,1.38.06,2.76-1.43,3.35.41l1.15-.39c.66,2.13,3.47,2.88,4.73,4.64,1.84,2.57.45,7.63,3.11,9.12.34.19,1.02-.29,1.65-.02,1.47.61,2.51,2.13,4.4,1.51.45-.31,1.55-7,2.07-8.24.24-.58,1.93-1.74,2.49-3.24.4-1.08.28-2.77.58-3.32.5-.91,1.56-1.11,2.11-1.79,1.42-1.76,1.58-5.74,4.54-5.91,3.62-.21,8.85,6.89,9.5,10.43l2.19,2.32c2.79-.14,3.72-2.82,5.3-4.33,1.93-1.85,4.17-3.53,5.85-5.42.53-.24,2.03.5,2.55.87,1.31.94,2.6,3.38,2.8,4.66,4.38,4.72,2.48,10.94,2.71,16.9,1.67.03,3.78-.47,5.42-.28,3.83.47,7.06,1.8,10.29,3.1,4.95,1.99,8.66,3.87,13.95,5.12,2.79.66,6.67-.21,8.8-2.18,1.54-1.43,2.98-5.06,4.01-6.84.11-.19-.37-.79-.32-.83.1-.07.76.09,1.24-.19.21-.12.21-.76.5-.8.85-.12,3.13.85,4.38.59.93,2.8,3.82,4.8,4.56,7.65.39,1.49.64,5.37.31,6.76-.08.35-.82.38-.92.72-1.91,6.29-3.26,7.69-7.05,12.73-.61.81-1.49,2.45-2.05,3.37,4.75,2.4,11.02,10.3,16.52,9.91,1.06-.08,1.58-.86,2.42-.97.67-.09,3.41,0,4,.22,2.66.93,4,7.01,3.01,9.67-.86,2.29-6.77,7.09-8.94,8.32-.38.22-2.91,1.63-3.08,1.67-2.04.57-4.16-.43-6.29.21-.26.26,1.85,6.75,2.05,7.06.24.37,1.65.78,2.22,1.37,1.94,2,4.18,5.84,7,6.68.96.29,6.55,0,7.56-.28.5-.14.1-1.01.94-.89.71.1,3.62,1.49,4.04,2,.93,1.13.45,4.84-.11,6.08-.88,1.95-7.59,7.23-9.8,7.92-4.3,1.35-11.65.08-15.46-2.15-.4-.24-.54-1.05-.82-1.21-.58-.31-1.41.94-2.17-1.19-1.22-.09-1.23,4.48-1.03,5.41.15.68.89,1.11,1.06,1.75.18.67-.21,1.32.08,2.25.92,2.92,2.87,3.03,4.39,4.79.8.92.61,2.09,1.44,2.81,1.52,1.31,6.15,3.31,7.98,3.16.16-.01.49,1.22,2.87,1.13,2.74-.1,7.03-4.33,9.04-.68,2.28,4.15-2.11,11.97-5.8,14.29-5.85,3.68-10.85,1.27-16.68,1.44-.83.02-1.61-.07-2.13.75l4.92,7.27c2.56.68,5.11,2.68,7.76,2.99,2.96.35,4.54-1.04,7.53.17.84.34,3.12,2,3.47,2.76,1.21,2.64-1.49,3.47-3.21,4.78-3.28,2.5-9.28,6.05-13.97,5.25-1.34-.23-4.01-1.78-5.07-2.1-.5-.15-1.05.22-1.55.06-.96-.3-1.88-1.14-3.04-1.12-.5.07-1.37,1.26-1.45,1.71-.03.15.7,2.77.77,2.9.04.07.94-.51,1.61,0,.79.6.58,1.42.91,1.77.39.41,3.3,1.36,4.12,1.87,4.59,2.83,7.8,4.93,13.44,5.74.86.12,1.57-.29,2.41-.28.68.71-1.23,6.06-1.77,7.05-.11.2-2.7,3.35-2.87,3.5-2.87,2.64-8.13,2.07-11.9,1.87-1.13-.06-4.33-.33-5.27-.55-.15-.04-1.15-2.14-2.14.33,1.97,2.65,2.44,4.95,5.61,6.84,6.11,3.63,12.7,6.17,19.05,8.55.46.17,1.4-.37,1.85-.19.74.29.76,1.25,1.28,1.57.9.55,5.45,1.68,7.12,2.46,4.93,2.31,10.86,5.28,15.33,7.63.68.36,2.77,1.3,3.1,1.63.43.44.21,1.21.39,1.36.29.23,1.33.1,2.1.55.93.54,1.5,2.11,2.44,2.84.8.62,4.15,1.75,4.38,2.09.26.39.04,1.27.36,1.77,1.22,1.91,3.53,3.63,4.93,5.63,4.33,6.18,6.62,12.73,11.39,19.02.64.84.96,2.15,1.9,3.15.08.08,1.68,1.28,1.78,1.32.66.3,9.46,2.13,10.15,2.1,2.42-.08,3.01-1.49,4.42-1.85,1.11-.28,2.21.09,3.16-.12.18-.04,1.25-1.84,3.2-.95l-.49-.95c4.51-.85,6.02-7.3,5.77-11.24-.21-3.28-2.02-10.08-4.3-12.41-.45-.45-1.23-.18-1.51-.6-1.6-2.45-1.49-3.01-4.5-4.98-8.15-5.33-17.53-6.41-26.08-12.72-1.17-.86-1.62-2.09-2.47-2.8-2.68-2.22-3.54-1.31-5.39-5.09-.5-1.03-2.39-6.39-2.97-7.16-.49-.65-4.02-2.7-4.85-3.53-3.13-3.08-4.51-8.33-5.4-12.61-.7-3.35-1.13-8.54-.48-11.88.25-1.29,1.98-1.87-.03-2.41,2.73-2.49.7-6.59,1.54-9.49.19-.67,1.12-1.2,1.44-1.91,4.54-10.14,6.69-11.83,14.7-18.85.63-.55,2.24-2.69,2.58-2.91.83-.55,2.92-.3,3.81-.63.54-.2.56-.97.88-1.13,6.31-3.13,10.66-3.36,17.09-4.3,8.12-1.19,15.24-5.25,23.5-5.95.54-.05.93-.22,1.31.35l-.06,4.39c-2.55.43-4.86,1.94-7.28,2.66-.9.27-1.7.27-2.87.59-1.87.52-3.55.1-5.1.53-1.05.29-2.1,1.27-2.53,1.34-.68.11-1.23-.71-2.12-.65-1.24.09-9.62,2.8-11.4,3.42-7.81,2.73-14.41,6.09-18.78,12.85-.62.97-2.08.65-1.39,3.15,1.04-.75,2.39-.87,3.49-1.41.42-.21.43-1.06,1.11-1.33,1.48-.59,5.9-.96,6.88-1.33s1.86-2.02,2.87-2.41c2.1-.8,6.04-.82,7.86-1.33.6-.17,2.56-2.63,2.7-.58l-5.26,2.89c-2.27-.38-3.79,1.01-5.62,1.56-.73.22-2.22-.08-2.49.17-.15.14.16.96-.34,1.41s-2.54.84-3.38,1.32c-1.04.59-5.94,4.35-6.43,5.09-.43.66.24,1.39-.63,2.19-2.38,2.19-2.93-.09-4.38,4.78-.4,1.36-.64,2.25-1.45,3.8-.38.73-2.42,2.02-.22,1.94,1.32-3.79,5.53-4.57,8.73-6.26,1.31-.69,3.45-1.37,3.62-1.48.27-.18.35-1.1,1.19-1.5.98-.48,1.9.28,2.88.08.49-.1,4.74-2.29,5.14-1.85l-.33,1.43c-.79.03-1.6.14-2.33.46-8.09,3.61-14.82,7.96-18.6,16.79-.29.69-.32,4.52.9,4.79-.13-1.69.83-1.68,1.17-2.3.53-.97-.67-1.84,2.42-2.02,1.62,2.75-1.98,3.94-2.16,5.5-.32,2.82.03,7.62.84,10.43.34,1.18,2.14,2.8,2.25,3.12.34.99-.04,2.3.78,3.44,3.6,4.99,14.93,12.26,20.15,15.76,5.6,3.77,11.47,4.64,16.21,9.67,1.69,1.79,5.56,2.89,7.07,5.87,1.62,3.19.87,5.75,1.43,8.25.06.28.77.19.85.56.88,4.26,1.27,6.62-.5,10.81-.17.39-.81.41-1.06.97-1.4,3.11-2.84,7.58-5.97,9.5-.53.32-1.26-.05-1.46.1-.39.28-.27.99-1.53,1.55-2.43,1.08-13.03,3.03-15.54,2.58-.84-.15-1.47-.8-2.36-.99-2.65-.58-4.08-1.13-6.26-1.93-1.07-.39-6.28-1.07-5.57,1.29,1.36.3.49,1.03,1.01,1.83,1.21,1.86,6.34,4.49,8.46,5.01,6.04,1.47,14.94,2.39,20.83.46,21.7-7.13,27.83-33.85,11.22-50.46-4.98-3.36-10.2-8.61-15.46-11.62-5-2.85-8.04-3.47-12.42-8.19-.56-.6-.58-1.64-.79-1.83-.51-.43-3.85-.72-4.54-1.69-.44-.61-.29-1.74-.71-2.42-.56-.9-2.66-2.69-3.11-3.33-.55-.77-.73-1.85-1.56-2.52l.9-.89c-.66-1.07-.47-2.1-.32-3.27.07-.54,2.21-6.63,2.4-6.94.39-.62,4.5-2.79,5.5-3.33,3.83-2.1,7.54-2.93,12.32-2.54.59.05,5.4,1.31,6.09,1.57,1.74.65,6.3,2.77,7.75,3.78,1.85,1.29,5.63,5.54,7.02,7.33,2.17,2.8,1.4,8.29,2.59,11.78,1.42.76,3.61,1.1,3.17-.94l1.87-.07c0-1.89.93-3.6,1.01-5.49.29-6.26-1.76-9-5.02-13.7-1.9-2.73-2.16-4.05-5.11-6.39-1.29-1.03-3.44-1.84-4.46-2.64-.46-.36-.39-1.37-.3-1.47,1.1-1.12,8.72,3.77,9.89,4.96,1.01,1.03,1.63,2.6,2.81,3.68,1.76,1.62,7.14,4.16,9.45,5.28.36.17.36.83.71.91.64.15,2.56.16,3.18.01.37-.09.31-.95.6-.96,1.87-.09,5.15,1.02,7.54.48.4-.09.37-.81.66-.95,1.22-.61,2.61-.38,2.8-2.4-3.05-2.65-7.06-1.69-10.82-2.61-1.03-.25-4.51-1.46-5.24-1.95s-.64-1.57-1.09-2.03c-2.22-2.22-6.57-6.07-9.23-8.25-1.02-.84-3.1-1.41-4.06-2.64-.11-1.29,5.42-.23,5.96-.22,8.14.14,18.71.18,25.44-4.3,1.45-.97,8.43-7.25,9.31-8.54.93-1.36,1.67-3.81,2.46-5.47.41-.88,2.1-3.52,2.31-4.48.09-.43.4-2.65-.45-2.61-.03,1.23-1.33,1.45-1.88,2.2-1.13,1.55-.92,1.24-1.98,2.43-2.17,2.45-3.35,4.78-6.6,6.33-7.92,3.78-18.81,3.49-27.68,3.84-.79.03-4.73,0-5-.19-.65-.45-.48-1.01-.47-1.69.31-.31,5.53-.34,6.45-.5,2.82-.5,2.9-1.25,6.28-.99.22.02.12-.8.54-.9.6-.15,1.4.2,1.97-.1.2-.11,2.3-3.09,2.78-3.68,1.64-2.02,3.53-4.86,4.6-7.38,1.78-4.22,2.55-7.84,1.11-12.32-.48-1.5-2.02-2.75-2.34-3.39-1.55-3.07-2.5-6.78-5.11-9.2-7.57-7.01-17.89-8.81-26.08-1.79-.79.68-2.85,3.33-3.02,4.18-.23,1.19.93,3.66-.33,5.4l-2.1.09-.29.86c-1.47-1.06-4.05-3.03-4.04-5.04,0-.6.67-1.12.73-1.65,2.04-16.39,24.64-18.59,37.45-13.56,7.18,2.82,13.64,11.06,14.93,18.61.43,2.53-.01,5.41.08,7.66.05,1.37,1.28,3.37.81,5.73-.29,1.44-1.7,2.35-.86,4.06,1.23.88,3.71-3.86,4.09-4.77,1.58-3.78.99-6.91,2.01-10.93.18-.71-.62-1.75.61-2.29,2.49-1.1,3.55,3.11,4.51,4.38,1.02,1.34,3.07,1.56,3.65,2.45,4,6.12,6.08,15.96,2.08,22.51-1.41,2.31-3.12,4.62-4.37,7.21-.83,1.73-.59,4.42-1.07,5.15-.86,1.31-3.99,4.3-5.31,5.25-1.57,1.13-3.5,1.35-4.66,1.85-.45.19-1.99,2.09-2.12,2.16-.3.17-5.6-.11-6.83.09s-1.89,1.2-2.5,1.3c-1.51.25-4.76-2.36-6.86-.36-.17.83.42,1.25,1.08,1.55.47.21,3.77,1.01,4.41,1.1,2.53.34,6.52-.2,9.05-.09,1.95.09,5.06,2.43,6.38,3.83,3.24,3.46,5.6,10.33,4.63,15.07-.33,1.6-1.49,1.99-2.03,2.87-.4.65-.44,1.87-.98,2.62-.15.2-3.33,3.16-3.55,3.26-5.21,2.15-3.92-3.13-4.79-5.1-.22-.5-.91-.57-1.26-1.03-.3-.39-.32-1.13-.71-1.55-.17-.18-3.82-2.51-4.05-2.61-.3-.13-5.78-.33-6.49-.32-9.34.19-1.92,2.58-2.97,7.6-.18.85-.69,3.23-.89,3.88-.17.56-2.65,6.05-2.89,6.29-.41.41-1.09.35-1.45.65-2.71,2.25-2.94,2.66-6.29,3.81-.15.05-.14.81-.34.79-.45-.05-1.46-.81-2.46-.91-1.53-.15-5.82-.71-6.42.68,2.49,2.05,6.48,4.59,8.62,6.84.96,1.01,6.54,8.01,7.13,9,.52.88.36,2.13.63,2.5s1.35.25,1.72.68c.18.22,1.77,5.12,1.8,5.4.07.74-.52,1.67-.47,2.7.23,4.52,2.74,8.77,1.21,13.58-2.49,7.81-5.09,15.5-11.03,21.59-1.32,1.35-12.27,7.85-13.81,8.32-7.16,2.17-15.05,2.39-21.91.63-.25-.06-3.46.25-3.59.37-.05.82,1.13,1.32,1.29,1.59,1.65,2.87.67,5.52,1.07,8.74.11.91.92.46,1.03,1.37.53,4.26-.07,7.3,1.03,11.42s5.25,7.67,8.84,9.85c2.08,1.26,4.69,1.96,6.41,2.73.68.31.75,1.61,1.26,1.71.65.12,1.51-.42,2.25-.36,1.41.12,9.04,3.62,10.32,4.43,3.44,2.18,5.11,8.17,6.42,11.83.64,1.78,1.82,7.25,2.38,8.41.09.19,2.7,2.64,2.74,2.83.25,1.32-.11,3.97-1.89,4.02l.02.59c1.73,2.47,3.3,4.47,4.8,7.11.23.4.89.43.9.68.02.63-.64,1.71-.51,2.55l-4.3,1.27c-.37,1.17,2.58,4.83,3.74,5.77l-.31,3.69-2.44.81c-.36.42,2.87,4.9,1.84,7.82-.24.69-2.28,1.72-2.96,1.65-.17-.02-2.97-1.05-3.2-1.17-.85-.45-1.19-1.78-2.39-1.6v3.44s2.29,2.62,2.29,2.62c-.45,3.9-4.98,2.07-7.56,1.6.47,2.55,2.21,4.62,4.68,5.37,1,2.72-1.54,2.63-3.03,4.2l-.91-.94-2.83.96c-1.74,3.48,7.28,1.14,8.1,2.36.94,1.41-1.9,3.78-2.19,5.56l-.89,4.15,1.98,8.21-2.55,5.95-7.65,6.23-3.96,3.96-13.07,7.69ZM111.06,10.83c-.48-.41-2.01-.48-2.49-1.55-1.62,1.27-2.48,2.8-2.17,4.91,2.75,1.55,4.92,4.47,8.15,4.65,0-.67.13-1.41-.09-2.06-.12-.36-3.14-5.73-3.4-5.95ZM125.52,29.34c.9-.91-3.68-9.86-4.73-10.75-.8-.67-.29.35-.56.58-.13.11-2.18-.17-3.14.75-1.31,1.25-1.14,6.7.11,8.01.23.24,5.9,2.36,6.26,2.42.71.11.86-1.43,2.07-1.01ZM137.7,37.38c-.84-1.14-.1-3-.9-4.59-.17-.34-1.65-2.33-1.87-2.5-1.14-.87-4.73-.55-5.87.18-.15.1-1.85,2.83-1.92,3.1-.76,2.66.37,2.45.78,3.4.32.74.78,2.32,1.18,2.8.56.68,2.06,1.1,2.83,1.59,1.28.82.5.58,2.28,1.29,1.07.43,1.32,1.42,2.88.92s2.21-2.64,4.07-.77l-.72,1.44h1.92s-.24,1.45-.24,1.45h-1.18c-.65,1.18.16,6.62.94,7.8.34.51.94.23,1.26.49.47.39.45.95,1.32,1.34.97.43,2.45.43,3.57.75,1.06.3,1.6,1.28,2.94.63.75,2.03-.44,4.47,1.67,5.78.48.3,3.49,1.07,3.62.93.07-.07-.13-.83.16-1.26.49-.71,2.75-2.72,3.56-2.94,2.04-.55,5.62-.02,3.96-3.71-1.72-.08-4.41-1.67-5.69-1.9-1.66-.29-3.28.35-5.33-1.06-3.9-2.69-2.86-6.25-4.47-8.15-.13-.16-2.56-2.23-2.72-2.3-.99-.43-2.17-.01-2.77-.34-.13-.07-.98-1.67-1.78-2.29s-3.04-1.5-3.44-2.06ZM182.56,54.26l.42-8.24c-1.28-2.3-2.02-5.23-4.48-6.49-.25,0-3.21,3.45-3.36,3.76-.23.49.2.99.1,1.31-.03.09-.75.09-.82.42-.06.27.19,5.19.3,5.48.92,2.46,2.42,1.56,4.31,2.3,1.23.48,1.86,1.98,3.53,1.46ZM61.26,150.81c-4.17-1.77-9.62-2.29-13.85-.65-1.59.61-3.34,1.99-4.51,2.76-.79.52-1.99.53-2.8,1.07-3.44,2.31-7.11,7.54-11.65,8.45-1.21.24-5.82.02-6.27.24-.12.06-.69,1.6-1.99,1.33-.06.47-.08.86.13,1.31.7,1.55,8.17,5.3,9.27,7.32,1.82-.04,4.82-2.06,6.4-1.25,1.4.72.83,2.49,1.05,3.38.06.25.84.15.85.51,0,.34-.38.77-.37,1.02.22,2.92,4.78-1.06,5.67-1.51,1.25-.63,2.74-.89,3.97-1.65,2.81,1.39,1.9,4.45,4.38,5.69,2.66-3.19.75-9.78,6.26-10.02.78-.03,5.34.76,6.07,1.05,2.17.87,6.21,5.3,8.53,6.37.56.26,1.35-.31,1.39-.26.11.12-.11,1.06.51,1.65.52.51,2.79,1.12,3.84,1.91,1.38,1.04,6.72,8.41,8.15,7.23.2-1.7,1.61-2.27,1.42-3.77,1.92-1.02,3.8,3.14,2.04,4.71.92,1.21,2.86,5.13,4.66,4.31,2-.91,1.62-3.33,2.43-5.01,3.79.08,1.33,5.75,4.51,7.64,3.9-2.65,1.24-10.19-.62-13.74-2.17-4.14-3.27-5.19-6.93-7.61-1.77-1.17-5.26-3.59-7.22-5.07-1.31-.99-2.71-3.16-4.04-4.21-6.15-4.86-14.13-10.17-21.3-13.21ZM259.21,160.65l-.95.23c.43,2.24,4.45,6.46,6.6,6.82,1.22.21,3.03-.72,4.42.12v-1.92c-.27.15-.67.31-.94.17-2.78-1.5-5.98-2.65-8.7-4.54-.37-.26-.48-.43-.43-.88ZM27.25,174.66c-1.2-.49-7.31,1.16-8.59,1.84-1.91,1.01-2.18,2.36-3.3,3.51-.57.59-1.79.86-2.22,1.37-3.25,3.78,6.89,4.47,8.95,4.84.96.17,2.01,1.33,3.26.67,1.44-2.41,4.45-7.96,3.33-10.58-.04-.1-1.35-1.6-1.45-1.64ZM269.29,189.87c-2.99-.17-5.25-1.32-7.21-3.59l-5.24-.97,7.66,6.72c1.2-.53,3.08-.62,4.19-1.13.62-.28.77.01.6-1.04ZM363.96,216.41c-2.15-2.17-2.23-3.36-5.65-4.19-2.16-.53-2.69.2-4.44.17-1.29-.02-3.38-1.03-4.29-.97-.27.02-.26.7-.44.77-1.15.5-2.75.94-3.52,2.25-.64,1.09-1.28,7-.84,8.01.11.26,2.97,4.34,3.24,4.6.56.54,1.95.94,2.13,1.25.25.44-.05,1.22.21,1.68.29.5,8.74,5.94,9.68,6.38,4.48,2.11,3.68.37,5.71-1.79,2.79-2.96,3.13-2.3,3.21-7.09.05-3.3,0-5-1.75-7.87-.63-1.04-2.37-2.32-3.25-3.2ZM113.87,243.25c-3.02-1.37-4.73-1.94-7.94-.45,2.61,2.24,6.06,2.15,8.8,4.15,2.41,1.76,3.61,5.39,6.52,6.63.53-3.52-.56-4.53-2.58-6.78-.25-.28-.18-.95-.43-1.22-.17-.18-3.9-2.11-4.37-2.33ZM52.91,299.72c.77-1.06,2.08-.37,1.8-3.27-.08-.83-1.4-3.82-2.17-3.91-1.68-.2-2.01,1.57-2.88,2.26-2.89,2.25-5.57,5.01-8.42,6.94-.43.29-1.18-.21-1.68.18-1.73,1.37.73,3.71.26,4.37l-.96-.24,1.03,4.96c3.31.9,4.3-1.82,6.2-3.48,3.79-3.3,3.91-3.77,6.82-7.79ZM324.24,344.8c-.86-.55-1.2-.95-1.83-1.36-1.21-.8-2.75-1.38-3.99-2.2-.37,1.15-3.05,3.27-3.36,3.84-.33.62-.14,1.55-.35,1.81-.14.18-3.58,1.36-4.23,1.54l.39.86c-2.28.5-4.92,5.52-3.14,7.14.26.24.97.13,1.28.39.53.44.38,1.2.85,1.67,2.47,2.43,12.67,7.54,15.15,7.67.71.04,1.92,2.29,2.05,2.4.69.6,2.9,1.1,3.98,2.15.59.57,2.63,3.67,3.09,4.53,1.34,2.53,1.76,5.45,2.53,8.49,1.09,4.29,2.65,5.34.54,10.34-.23.55-.76.88-1.38,2.32-2.25,5.24-2.51,7.29-6.2,11.63-7.76,9.1-15.13,10.73-25.73,15.41-7.63,3.36-8.15,8.13-13.04,14.31-2.11,2.66-5.68,6.1-7.95,8.57-1.73,1.89-3.69,3.26-4.04,6.04,4.43,2.16,10.29,2.12,13.69-1.88,1.52-1.79,1.26-4.48,5.03-2.12-.35,2.09.04,4-1.36,5.68,1.24,2.61,2.78.83,4.36,1.18.34.08.28.82.64.94,1.45.45,5.74-1.53,7.09-2.38.9-.57,2.15-2.18,2.29-2.25.64-.33,1.51,0,2.55-.57,1.56-.87,1.78-3.12,2.59-4.47.37-.61,1.75-.86,1.85-2.11l-1.41-2.98c-2.3-.08-8-.65-5.73-4.15.57-.4,2.78-.29,3.6-.19,2,.27,3.6.71,5.75.47,3.71-.41,4.54-1.82,7.35-3.33.69-.37,4.43-2.38,4.68-2.43.24-.05,2.97.12,3.09.22,0,2.28,1.07,1.76,1.43,2.19.26.32-4.07,5.92-3.35,6.69,2.87.43,4.94,2.64,7.83,3.43,2.66.72,6.36.15,8.25.8,2.25.77,4.78,4.85,7.62,4.42,3.5-.53-1.3-6.22-1.45-7.43-.08-.64.44-1.48.27-2.32-.07-.33-.8-.27-.93-.69-.39-1.23-.01-3.75-.15-3.89-.28-.29-1.96-.24.8-1.53,3.12-1.47,1.95,1.52,3.83.96.57-.17,1.21-1.57,1.24-2.17.01-.34-1.29-5.96-1.47-6.55-.25-.84-1.17-2.91-1.49-4.34-.54-2.39-1.59-7.78-.88-10.03.15-.47.98-.62,1.45-1.06.32-.3.34-1.17.74-1.24,1.89-.32,3.1,3.17,3.85,3.35,4.2,1.01,1.46-10.71,1.02-12.53-.42-1.72-2.4-3.3-.51-5.18,2.3-.4,4.06.8,5.9,1.93.61-3.27-3.49-6.63-4.02-8.6-.45-1.69,1.8-5.45-.77-6.48,2.03-1.52,0-3.47,2.35-4.3-1.64-2.17-.07-3.49.33-5.54.17-.87-1.05-6.63-1.39-7.07-.21-.26-4.68-4.29-4.98-4.44-.2-.1-3.11-.9-3.28-.92-2.19-.22-5.37-.02-7.54-.66-2.86-.85-4.73-2.31-7.2-2.88-3.78-.88-14.23-8.6-18.18-11.11ZM374.42,383.68c-.38-.51-.94-1.52-1.48-1.64l-1.78,1c-.87,1.95,1.22,4.53,3.27,4.22s.73-1.32.52-2.22c-.07-.28.26-.72.1-1.03-.07-.15-.51-.17-.63-.32Z"/>
        <path d="M384.58,143.07c.17.21,2.02,3.24,2.06,3.44.41,2.09-.46,4.18-.51,6.22-.03,1.1.69,2.34.54,3.27-.06.37-.89.32-1.13.9-.74,1.8-.24,2.29-1.77,4.31-2.38,3.13-5.8,5.29-9.48,6.49-1.38.45-3.08.52-4.38.93-2.29.71-4.42,2.62-6.73,1.58l1.01-2.34c2.14,1.48,2.93-.48,3.14-.52,1.09-.24,2.28.3,3.5-.25.88-.39,1.16-1.67,1.71-2.15,2.6-2.25,5.82-3.94,7.63-7.23.24-.44-.2-1.09-.1-1.31.05-.1.79-.12.98-.67.32-.88,1.21-3.96.96-4.56-2.12-1.92-3.94-6.5-7.11-6.63-.21,0-3.82,1.18-3.96,1.34-.48.58.16,2.23-1.58,3.45-.47.33-3.37,1.49-3.76,1.2-.25-1.58-1.7-2.32-1.48-3.99.04-.29,2.83-4.69,3.03-4.89.55-.54,3.06-2.09,3.78-2.28.29-.08,4.68-.57,4.93-.56.48,0,4.41.9,4.9,1.1.23.09,3.57,2.89,3.8,3.15Z"/>
        <path d="M135.63,220.04c-.14.16-1.16-.37-.96.48,3.18.91,3.08-.9,4.41-1.56,1.5-.75,2.71-.01,4.21.14l-1.44,2.38c.28.37,4.77.6,5.4.39.71-.24,1.07-1.13,1.55-1.18.26-.03,2.64.64,2.64,1.49,0,.49-.86,2.39-1.29,2.69-.34.23-4.22,2.22-4.71,2.4-1.74.66-3.76.44-5.39-.38-2.4-1.22-1.86-.69-4.31-1.27-1.2-.28-7.34-3.48-7.99-4.17-.33-.35-1.05-1.28-.25-1.62,2.22-1.67,4.91-1.4,6.93-2.66.56.17-.18.93.01,1.45.16.41,1.42,1.13,1.18,1.41Z"/>
        <path d="M220.76,282.95c.26.15.37.9.95,1.18.94.45,3.35,1.56,4.24,1.59,1.8.06,5.57-1.85,8.08-1.47.29.04,5.23,1.84,5.46,2.03.09.07,1.09,1.92,1.05,2.02-.46,1.2-2.46-.19-3.59-.24-.7-.03-1.4.51-1.89.51-.31,0-.07-1-.97-1.03-1.26-.05-1.81.69-2.81.87-1.23.21-2.44-.7-3.02-.71-.69,0-1.14.74-1.83.78-1.76.09-4.69-.56-5.99-1.19-5.75-2.81-3.42-6.47.32-4.32Z"/>
        <path d="M188.7,268.99c.07.07-.17.61-.03.85,1.04,1.8,1.16,2.93,2.03,4.22,1.9,2.83,4.45,5.7,4.82,9.21-.71.67-3.74-1.39-4.41-1.94-2.67-2.17-3.05-4.21-3.96-7.17-.59-1.94-2.12-2.77-.27-5.54.42-.33,1.59.11,1.83.37Z"/>
        <path d="M256.57,391.82c1.05,1.41.19,1.34.72,2.25.34.58,1.49.15.97,2.48-.26,1.17-1.94,2.49-3.05,2.15-1.27-.39-.79-2.5-1.1-3.33-.56-1.5-1.91-2.64-1.56-4.73,2.37-1.05,2.68-.61,4.02,1.18Z"/>
        <path d="M262.1,387.23c-1.7.21-1.55-.9-1.98-1.5-.25-.34-1.97-1.34-.14-1.84s2.47,2,2.12,3.34Z"/>
        <g>
          <path d="M222.07,420.55c.2.2.73.23.74.5-.63,4.28-.54,10.15-6.22,9.78l-.48-2.87,1.47-.26-.44-3.49,4.49-4.4c.34-.14.15.45.45.74Z"/>
          <path d="M249.06,406.02c.74,1.04.55,7.17-.42,7.98-4.21,1.16-4.61-4.19-3.45-7.03.23-.57,1.57-.69,1.11-2.02.18-.18,2.6.85,2.76,1.07Z"/>
          <path d="M236.71,414.05c.62,2.5,1.31,4.64.48,7.19-3.2-.3-1.82-4.34-2.85-6.69l2.37-.5Z"/>
          <path d="M348.67,362.48c.12.04.16.55.31.61,4.44,1.85,6.74,3.19,8.66,7.88.34.83,1.18,3.52,1.46,4.51.86,2.98-1.03,5.56-2.5,7.89-.23.36-1.26.86-1.39,1.14-.35.72-.3,2.58-.97,2.74-1.72.41-2.91-.06-4.02-1.24.7-.87.75-2.11,1.15-2.93.09-.19.73-.3,1.07-1.06.75-1.66,1.42-3.74,1.05-5.57-.06-.28-.72-.16-.83-.57-.71-2.53-.42-4.58-2.41-7.08-.28-.35-4.16-3.82-4.43-3.94-.39-.17-6.09-1.4-3.9-3.05.77-.58,5.67.32,6.76.68Z"/>
          <g>
            <path d="M169.55,430.44c2.09,2.42-4.05,7.11-4.79,9.42-2.12-.66-4.55,1.57-6.4-.41.51-4.6,4.11-7.05,8.03-8.68.44-.18.4-.89.69-.92.33-.04,2.35.45,2.47.59Z"/>
            <path d="M304.63,431.22c-.07.16-2.19,1.75-2.52,2.49-.43.96-.05,2.5-.33,2.81-.09.11-2.16.82-2.6,1.17-1.21.94-.61,2.27-3.45,1.19-.41-1.29-.79-2.3-.22-3.61.16-.37,5.26-5.69,5.61-5.9,1.69-.99,4.28.19,3.51,1.86Z"/>
          </g>
          <path d="M348.64,398.93c1.62,1,1.21,2.57,1.89,3.62.58.9,2.66,1.13-.03,3.27-2.37-.95-5.55-4.65-3.37-7.09.67-.75.87-.2,1.51.19Z"/>
          <path d="M339.05,428.63c1.77,1.02.84,4.52-.54,4.61-3.94.27-.42-2.87-3.11-3.61l1.74-1.7c.85-.09,1.29.35,1.91.7Z"/>
          <path d="M346.49,413.94l-.08-1.33-1.43.48-.02-2.55c2.7-2.38,6.02,1.38,3.4,3.74l-1.86-.34Z"/>
          <path d="M353.56,395.81l-1.52,1.38c-.95.56-3.36-1.32-3.26-2.03,1.17-2.99,4.16-2.22,4.77.65Z"/>
          <path d="M343.48,422.13l-3.77-.9c-1.18-1.31,6.38-6.12,3.77.9Z"/>
        </g>
      </g>
    </g>
  </g>
</svg>