<?xml version="1.0" encoding="UTF-8"?>
<svg id="_Слой_2" data-name="Слой 2" xmlns="http://www.w3.org/2000/svg" viewBox="0 0 423.21 422.63">
  <g id="_Енот" data-name="Енот">
    <g>
      <path d="M284.14,7.49c-1.74-.88-9.64-.86-11.88-.75-2.64.14-3.26-.61-5.22.51-.36.21-.95-.36-1.32-.13-.31.19-.25,1.08-.78,1.22-.47.12-1.43-.42-2.26-.26-2.08.39-3.53,2.7-4.65,3.43-1.24.82-4.64.95-5.94,3.07l.37.85-2.32.54c.11.78-.57,5.43-1.25,5.63-1.58.47-1.25-1.58-2.81-2.38-4.23-2.17-9.14-4.38-13.82-4.47-2.42-.04-2.44-.6-3.8-.73-.99-.09-2.7.69-3.91.56l-2.98,5.82c.45.72,1.17,3.93,1.42,4.3.48.71,1.85,1.04,1.95,1.51.13.58-.22,1.71.04,2,.13.14.93-.1,1.24.12.18.13,1.62,2.96,2.48,3.47.43.26,1.59-.49,2.55-.18.58.19,1.57,2.14,2.1,2.28,1.44.4,4.34-.14,5.02.05.53.14.44,1.18,1.06,1.33.4.1,1.2-.54,1.64-.2s.38,1.46.94,1.94,1.96.5,2.81.99c.92.53,1.63,1.97,2.42,2.32.75.34,1.67.12,2.34.51,2.07,1.18,4.8,4.46,6.82,6.23.67.58,3.09,1.78,3.63,2.31.34.33,1.89,3.3,1.88,3.79-.01.79-1.03,1.09-.75,2.14.53,2.05,2.28,2.32,3.17,3.18.95.92.89,2.45,1.23,2.99.97,1.5,3.6,1.7,2.48,4.68l-4.18,1.53c.44.92.46,2.04.91,2.95.16.33,1.86,2.98,2.25,3.54.6.87,2,1.32,2.03,2.22l-.93,1.94-5.25.23c-.24,1.85.74,1.79.96,2.22.28.55.25,1.21.51,1.66.45.78,3.11,3.27,2.33,4.18-1.64.23-3.32.74-5.01.51-.65-.09-3.6-3.02-4.25-.49-.63.09-3.63-1.52-3.58-2.38l-3.77.93.94-.94c-3.63-1.68-2.89,2.07-3.82,4.38-1.37.25-1.06,3.17-2.1,2.73s-1.93-2.76-2.35-3.67c-.06-.14-.71-.17-.75-.36-.33-1.41,1.69-1.15.5-2.31-.46-.44-1.15-.19-1.34-.4-.51-.58.68-1.52-1.26-1.3-.83.09-1.61.55-2.16,1.17-.42.93,1.03.64.95.93-.3,1.06-1.46,1.37-1.93,2-.37.5-.2,1.55-.57,1.92s-2.11.55-2.48,2.01c-1.7-1.37-.87-3.31-.78-5.02.03-.5.41-1.26-.4-1.13-.15,2.28-1.59.61-2.28,1.01-.31.18-2.39,2.53-2.96,2.95-5.85,4.39-15.04,6.19-22.5,4.3-1.86-.47-9.52-4.4-10.87-5.85-.42-.45-.32-.93-.31-1.47l-.7.94c-1.28-.66-1.63-2.26-3.09-1.89-.28.21,1.97,6.44-.94,6.17.37-2.07-1.95-2.09-2.74-2.98-.56-.64-.1-1.49-.24-1.68-.25-.32-2.09-.68-1.22-1.94.14-.21,1.08.28.87-.52l-5.22-.95c.11,2.28-.25,4.51-.96,6.64-.86-.38-3.75-1.02-4.17-1.5-.14-.16-.68-3.08-1.93-3.46l.42-1.2c-1.87-.26-2.42.73-3.68,1.3-.88.41-2.48-.34-2.5,1.54-2.21-3.03-1.47-.39-2.81-.22l-4.97-.74-1.69,2.16c-3.85-.59.64-4.88.95-6.89l.93.48.95-3.79c-2.89-.93-5.23,1.79-7.07-1.73-.19-1.09,2.98-4,3.53-5.06.96-1.86.42-3.43,3.06-4.84.62-1.55-3.61-.2-4.05-.21-1.62-.03-2.27-1.07-2.13-2.63,2.11-.12,1.69-1.82,2.57-2.91.67-.82,2.47-2.56,3.31-3.36.25-.23.98-.02,1.29-.43,1.39-1.88-1.23-4.42-.3-5.89.55-.88,5.35-2.35,6.29-2.98,1.53-1.04,3.54-3.45,5.52-4.44.58-.29,1.42-.01,1.67-.25.18-.17-.06-.92.18-1.22.88-1.06,9.52-5.59,11.13-6.31,1.19-.53,4.12-.8,4.47-2.29l1.36.41c1.31-3.61,6.34-4.89,8.56-8.77,1.11-1.94,3.55-6.88,1.74-8.68-.2-.19-.86-.05-1.11-.26-.38-.33-.5-.94-.93-1.21-1.76-1.12-2.67-.02-4.13-.15-2.85-.26-.89-1.08-4.28.2-1.7.64-4.07,2.56-4.33,2.6-.92.13-1.94-.72-3.35.64-.42-1.23-.86-1.05-2.14-.96,1.43,2.55-.68,2-2.14,2.84-.98.56-3.5,2.92-4.19,2.77-2.26-.46-.29-4.09-.54-4.68-.42-.98-2.47-1.93-3.08-2.62-.52-.58-.41-1.51-.52-1.61-.2-.19-1.98.47-2.9-.02-.51-.27-.83-1.26-1.64-1.85-1.25-.91-2.81-1.22-3.84-1.59-.11-.04-.92-1.5-1.31-1.66-1.21-.49-3.79-.09-5.24-.56-.8-.26-.69-.92-.99-.97-5.26-.88-14.71.28-18.8,2.48-.77.41-1.88.5-2.7.88-.12,1.14.56,3.22,1.86,2.31-.34,2.86,4.19,1.71,4.99,3.81,1.02.22.49-.64,1.28-1.12.99-.59,2.02-.82,2.95-1.32.51-.27.63-1.23.99-1.29.97-.16,3.24.48,4.46-.06-.11,1.9,1.34,2.29,3.04,1.87.35-.09.29-.79.64-.9,2.16-.66,4.52,2.46,6.09,1.39.4,1.83.99,1.1,1.86,1.94,2.04,1.97,4.54,4.3,4.59,7.31.06,3.8-4.29,8.44-8.23,6.76-1.18-.5-1.01-1.37-1.39-1.66-.2-.16-4.01-.05-4.88-1.07-1.17.7-.16,1.45-.47,2.39-.36.53-1.43-.43-1.2.93h-.94c.43-1.85-.99-1.23-1.94-2.08s-2.66-4.17-2.99-5.46c-.42-1.63.69-5.25-2.35-5.16-.23,0-3.4.96-3.63,1.09-1.42.83-1.76,3.68-1.9,5.16l.94.52-.94,1.18c1.57-.17.5.92.76,1.43.66,1.31,4.73,6.02,6.01,6.52.95.37,3.98-.9,4.37,1.07,1.71-2.16,4.12-.49,2.86,1.91-.82,1.57-5.66,1.75-5.89,1.96-.13.12.03.82-.21,1.16-1.61,2.3-2.27,2.99-3.71,5.6-.29.52-1.12.54-1.34,1.13-.29.79-.23,2.48-.49,3.42,1.46.63,2.35-1.25,2.49-1.31.39-.16,3.39-.34,3.63-.07.1.65.15,1.42.01,2.06-.54,2.57-6.51,7.43-6.37,10.71l-1.2.71c.7,1.44,1.85.89.95,2.61l3.1-.07c.4-1.76,2.73-.34,2.6,1.22-.1,1.23-2.49,3.17-3.17,4.23-.35.55-.25,1.53-.78,2.33-1.41,2.14-5.28,4.4-2.43,6.92,2.09.15,3.56-1.04,5.52-1.23,1.21-.11,3.25.02,2.78,1.56-1.61,1.67-2.43,4.66-3.65,6.36-1.91,2.67-3.39,3.38-4.88,7-.07.18.41.87.23,1.13l-1.7.45.98.75c-.15,1.3-2.43,6.37-.97,7.3,1.13.72,1.56-.96,1.67-.96.47,0,1.19.55,1.89.53,1.79-.03,2.7-.97,3.83-1.86,2.41-1.89,3.93-4.29,7.29-2.92.21.76-.66.34-.77.56-.21.4-.24,1.48-.71,2.34-.69,1.26-2.48,2-1.35,3.49l-1.43.25c-.2.84.81.31.95.47.18.21-.82,1.06-.78,1.65.01.17,1.15,2.97,1.27,3.2,1.74,3.19,6.67-.99,8.91-1.6-.39-1.81,2.25-2.85,3.25-3.88.83-.86,1.13-3.05,2.69-2.64,1.54.41.88,2.03,1.05,3.01.29,1.63.26,2.98.5,4.28,1.75,9.57,5.96,3.36,9.89-.62,2.29-.05,4.7,3.93,4.11,6.05,1.65.24,2.5,2.1,4.22,1.22,1.18-.61,3.34-5.23,5.39-4.42.18.07,2.73,2.61,2.85,2.77.51.74,2.56,6.26,2.82,6.54.18.18.85.08,1.08.29,1.39,1.29.94,2.42,3.15,1.09.59-.35.94-1.23,1.18-1.28.51-.09,5.62.06,5.86.23.34,1.45,1.49,1.92,2,3.25.24.64.75,1.93.92,2.43.23.69-.14,1.62-.06,1.66.21.12.88-.1,1.24.16.47.35.29,1.25,1.28,1.28,3.1.1,2.86-1.48,3.75-3.54.2-.45.93-2.33,1.13-2.6.35-.47,3-3.15,3.35-3.26.26-.08,5.18-.05,5.44.02,1.12.3,2.82,2.16,3.93,2.24,1.31.1,1.36-.89,1.84-1.24.36-.26,1.04-.08,1.19-.2.06-.05-.24-.81.08-1.56.42-1.01,1.09-1.14,1.35-1.64,1.12-2.12,1.98-5.88,4.69-6.61,1.81-.49,2.2,1.45,3.64,2.55.63.48,4.23,2.74,4.5,2.54.78-.83.9-2.75,1.12-3.22.17-.35,1.57-.25,1.04-2.42,1.09-.44.82-2.48,1.87-2.4,2.32.19,5.13,3.8,7.41,4.96.49.25.86.33,1.4.25,1.46-3.18,1.75-5.32,1.9-8.78.04-.88-1.02-2.14.31-2.55,2.46-.76,2.02.74,2.72,1.68.65.88,2.18,3.19,2.34,3.37,1.34,1.51,7.98,6.25,9.73,5.23,1.22-.71.87-6.85.59-8.22-.19-.93-.85-.64-1.05-1.35-.31-1.09-1.58-5.12-.9-5.75,2.56-1.73,2.05-.12,3.16.64,1.67,1.14,4.18,1.97,4.43,4.12l6.67,1.17-.95-.71c-.3-1.06.82-.49.94-1,.56-2.34-1.37-2.94-1.77-3.83-.37-.82-.75-2.85-.67-3.85l-.86-.1.94-.7c-1.08-.71-1.32-1.76-1.91-2.74-1.2-2-3.28-4.72-4.58-6.66-.32-.48-.38-1.11-.61-1.39-.86-1.06-3.48-2.21-2.31-4.09,1.65-2.66,5.92,3.51,6.41,3.69,2.72,1.01,2.86-5.27,2.38-6.98-.02-.08-.65-.15-.76-.46-.44-1.26-.63-2.63-1.35-3.8-.84-1.34-2.85-2.06-2.98-4.14-.12-1.9,3.04.02,3.66.1,2.57.34,2.21-3.06,1.81-4.62-.76-2.94-2.68-5.15-3.84-8.03l-3.53-3.11.76-1.65c2.19.73,5.7,1.84,6.85-.74-1.64-.87-1.97-3.21-2.97-4.64-1.45-2.06-4.12-2.72-6.2-4.21-.89-.64-3.56-2.59-3.61-3.46-.17-2.61,3.31-1.44,4.94-1.65,1.4-.18,2.54-1.03,3.95-.66.63-1.81,3.6-3.65,4.1-5.08.48-1.38-.08-3.76,1.69-3.79-1.43-1.46-.27-1.28,0-2.83-2.34-.93-3.97-1.75-6.64-1.91.32.8-.87,2.99-1.43,3.55-.45.45-1.27.44-1.73.91-.91.93-4.69,5.36-5.39,5.71-1.76.89-3.37-.17-4.97-.21-2.19-.05-3.85.45-6.44-.2-4.05-1.03-3.67-7.94-1.79-10.87,1.54-2.4,2.88-3.49,5.25-4.62.36-.17.36-.85.7-.92.98-.2,2.05.4,3.28.1,1.36-.33,1.98-1.3,3.59-1.71,2.14-.54,3.23.3,4.8.53.73.11,1.85-.32,2.58-.02,1.02.41.66,1.34,1.21,1.91,1.43,1.48,2.7,1.34,4.58,1.55-.05-1.15.86-1.96,1.13-2.93.19-.67-.23-1.41-.06-1.93.37-1.19,2.69-2-.6-3.41-.79-.34-.67-.2-1.49-.62ZM211.55,18.41c-.25-.12-2.63.66-2.88.82-1.17.76-1.07,7.58-1.31,9.24-.21,1.43-1.63,10.42-1.93,10.9-.32.5-1.14.53-1.35,1.11-1.3,3.62.19,8.42-.49,12.12-.07.36-.69.35-.74.45-.4.88-3.34,5.35-4.03,5.81-.33.22-3.03.13-3.78.71l.48,1.42-.94-.48c-.57,2.12-1.75,3.68-2.55,5.83-.82,2.22-2.03,7.16-2.05,9.51-.03,4.05.94,2.75,1.87,4.73.21.44-.14,1.19-.08,1.23.2.16,1.08.1,1.61.51,5.57,4.35,9.14,8.47,16.58,9.06,1.28.1,6.19-.18,7.18-.66.84-.41.24-.39,1.76-.96,4.72-1.77,4.84-2.38,8.22-5.72.21-.21.1-.9.29-1.09.53-.52,2.94-.41,3.92-1.57.81-.96,1.42-4.2,1.5-5.56.2-3.35-1.11-6.67-1.72-9.9-.17-.89.54-2.78-.61-3.85-.36-.34-4.31-.89-1.3-1.56l-.88-.52.41-.89c-1.55.72-4.73-1.01-5.67-2.17-.86-1.06-.61-2.21-1.12-2.92-.26-.37-1.15-.44-1.49-1.06-.8-1.46.38-4.97-.77-6.43,1.92-.39-.44-2.54-.3-4.69.05-.67.85-2.03.76-2.14-.1-.13-.86-.15-1.08-.51-3.63-5.84-1.6-10.53-2.31-16.25-.09-.7-.75-3.25-1.09-3.72-.29-.41-1.2.3-1.42-.93l-2.36.99-.34-.85ZM396.68,23.94c-.62-2.7-.97-.57-1.13-.51-.52.17-5.22.04-6.18.19-.49.55-2.67,1.84-3.31,2.06-.61.21-1.91-.27-2.17-.05-.54.45-.3,1.52-1.14,2-.27.15-2.74-.21-3.23-.35-.39-.11-.36-.86-.57-.85-1.94.08-3.9,1.97-5.71.41l-.96,1.89c-2.72-2.78-6.64.04-9.73-.94v1.43c-1.11-.12-2.18-.66-3.29-.7-1.86-.08-9.01,2.63-10.66,3.6-1.22.71-3.55,4.13-5.16,5.04-.52.29-1.41-.03-1.7.19-.15.11-.23,1.42-.6,2.01-1.64,2.65-5.33,5.33-6.47,7.02-.09.13.07,1.58-.71,2.91-.39.67-1.2.8-1.23.87-.08.16.5,1.15.34,1.96-.39,2.04-2.86,6.22-2.32,8.13-1.46.64-.09,2.56-1.9,3.86,2.49.83-.1,1.18-.47,2.03-.46,1.07.07,2.95-.12,3.64-.24.89-4.59,7.16-6.28,7.35l.18.93c-2.07-.18-.92.56-1.22.98-1.08,1.53-5.59,4.5-5.81,4.82-.14.21.09.91-.16,1.22-.78.96-6.09,1.89-7.02,2.31-1.95.87-1.48,2.36-4.85,1.02-2.46-.98-5.57-2.69-8.2-.82l-.5-.99-1.57.57.17,1.87,1.67-.03.15,1.77,4.38,5.37c-.42,2.25.16.96,1.12,1.67.63.46.82,1.4,1.46,1.87-1.29.42-2.69,2.07-3.7,2.55-2.29,1.1-3.83-.37-.9,2.44.41.39.32.9.36.93,1.28,1.03.34-1.46,1.41-1.42-.41,2.13,1.22,2.53.96,4.75,1-1.02,4.29,1.88,4.29,2.6,0,2.13-5.48,1.8-6.44.72-1.06,2.23-4.32-.83-6.39.94l-.73-1.42c-1.07,2.37-3.93.67-5.93.95.23,1.63-.15,3.72,1.38,4.65.67,3.27,3.45,4.61,6.2,5.81l-.91,2.61c-2.7.35-7.07-3.14-9.27-3.15-.9,0-1.42.55-2.12.72-.46.11-1.07-.29-1.34-.12-.22.14-.3.86-.61,1.05-1.84,1.14-3.61,2.68-5.64.95-1.94-2.51-4.77-4.41-7.84-5.41-.89,2.45-1.14,1.3-2.23,2.02-.55.37-3.01,2.23-3.17,2.37-.67.62-1.07,4.32-3.28,3.34s.39-7.4-4.54-4.31c-.81.51-3.71,2.46-4.49,3.07-1.28,1-4.26,5.36-5.58,5.25-1.33-.84-1.97-1.62-1.28-3.14-1.89-.13,1.35-1.44,0-3.98-1.18-2.2-1.86,0-2.12.13-3,1.57-5.13,4.51-7.12,7.49-1.34,2.01-.97,3.53-4.2,4.38l-2.85-1.83-1.64,2.52-.94-.21c-.48,3.12-4.7,6.43-4.34,10.2.14,1.43,1.62,2.1.55,3.7-.7,1.06-3.14.77-4.3.8l.95,2.84c-2.26.98-2.41-.54-2.97-.84-.3-.16-.83.29-1.83-.24-.39-.21-3.68-3.16-3.7-3.41-.02-.29.79-.89.75-1.43-.03-.42-.78-.83-.78-.95,0-.54,1.58-.44,1.41-1.18-.92-.14-2.03-.78-1.9-1.9l1.42-.47c-1.66.18-.28-.74-.96-1.61-1.07-1.39-2.84-2.99-2.84-5.04l-.87.41c-.48-1.77-2.35-2.2-3.64-3.25-.73,4.25-4.1.94-5.59-.96-.97-1.24-.75-1.81-1.02-2.87-.25-.98-2.01-1.18-1.22-3.3-1.65.81-.94-.54-1.27-.95-1.5-1.85-5.93-4.63-6.18-.61-.12,1.93,1.73,3.9.09,5.35-3.29-2.71-6.48-5.47-9.86-8.06-.29-.22-.36-.59-.34-.94-1.13-.53-.86.67-1.04.77-.36.19-1.01-.36-1.55.66l.02,4.26-1.21.77c-1.51.51-2.11-1.7-2.84-2.33-1.51-1.33-3.98-2.72-5.29-4.35-.58-.72.27-1.59-.66-2.14l-.23,1.41c-3.18-.91-5.52.83-7.29,3.32l-1.25,3.33-6.59-3.6-1.22-1.56c-1.22.54-2.67,1.26-3.9,1.69-.51.18-1.14.3-1.96.57-1.45.49-2.68,1.33-4.37.81-2.46-1.88,3.27-5.45,4.3-6.67.59-.71,2.86-4.28,2.35-4.99l-1.42-.23.95-1.19h-2.84s.94,1.9.94,1.9c-4.37-5.97-10.09,1.78-15.21-1.71.06-.53.49-4.15.61-4.34.92-1.46,1.36-1.63,2.32-3.53.66-1.31,1.29-1.08,1.73-1.45.55-.46,1.09-2.4.59-3.21-5.09,2.02-7.25-1.8-2.4-4.3l-.45-1.38,1.46-.31,1.85-3.24c-2.26-1.51-6.07-.95-8.76-1.63-3.09-.78-11.77-4.51-13.8-6.67-1.65-1.75-6.53-6.56-7.22-8.21-.25-.58.57-1.37-1.23-2.57-.43-.29-1.17-.1-1.24-.16s.33-1.19.24-1.92c-.05-.4-1.08-3.12-1.26-3.23l-.87.41c-.24-.33-.48-3.35-.61-3.71-1.99-5.46-4.33-12.25-6.05-17.77-.13-.4-1.87-1.08-.94-2.7-2.37.84-1.26-3.07-1.47-3.28-.31-.31-1.41-.26-1.74-.61-.07-.08.26-.66.1-.87-.7-.9-2.04-.45-1.14-2.38-2.37.62-2.58-1.58-3.43-2.22-.14-.11-2.72-.82-3.37-1.21-4.92-2.95-8.93-4.96-15.01-5.43-.89-.07-1.72.21-2.58.35l-.53-.99c-.28,1.61-1.53.4-2.37.58-.29.06-.1,1.21-2.82.83-2.75-.39-6.89-.3-8.93-1.19-.45-.2-1.17.05-1.54-.69l-.9.92c-1.63-1-4.06-2.04-5.88-1.95l-.09-.86-.7.94c-.35-1.8-6.61-1.79-6.88-1.42-.82,1.15,2.01,1.8,2.23,2.03.29.29.23,1.15.82,1.78.97,1.03,5.91,3.25,5.99,3.59.64,2.83-3.11,2.17-4.67,2.91-1.67.79-3.61,4.78-3.86,6.57-.35,2.57.69,4.7.01,7.05.16.91,3.82,1.73,4.09.04-1.55-1.6-3.15-6.67-1.53-8.31.85-.86,4.97-1.7,6.08-1.41.19.05,2.39,2.37,2.83,2.68.48.33,1.32.15,2.26.83,3.27,2.37.82,6.53-2.41,6.45l.47,1.42-1.89-.47.05,1.85c3.1,1.14,5.71.73,8.75-.4,4.99-1.87,8.82-4.37,14.57-3.23,3.25.65,2.03.91,2.74,2.37.23.48.97.35.96.61-.05.89-1.65,2.55-.5,4.22l-.97.52c1.61,1.88-.79,3.29-.38,5.71l.88.45c-1.33,1.05-.28,3.67.95,4.28l-.02.7-.94.23,3.79,6.54c2.3,1.17,3.52,3.05,5.26,4.76.97.96,3.06,1.14,2.83,3.4-.04,1.49-10.03-2.27-10.63-2.08-1.5.49-.27,3.05-.75,4.2,2.52-.31,2.45,2.02,3.66,3.36,1.58,1.75,5.09,4.4,7.04,5.87,1.58,1.18,1.94,2.27,4.49,2.5l-.02,2.08c-2.01-.17-3.96.48-5.95.37-.6-.03-1.08-.57-1.68-.6-2.17-.11-5.2-.5-6.13,1.9,1.57.31,1.32,2.02,1.42,2.13.05.06.87-.58,1.42-.26.23.13,2.37,2.48,3.03,2.92,1.42.96,5.4,3.37,6.59,3.87s8.56.29,8.89.59c-.83,1.62-.65,2.46-.48,4.26-3.87.77-8.06,1.09-11.36,3.35l1.97,2.23c1.14-.02,4.17,2.61,5.46,2.93.88.22,5.79.97,6.55.88.12-.01.79-1.41,1.92-1.2l1.88,1.79,7.02-1,.77,1.22c-1.67.97-3.38,2.03-5.08,2.93-1.44.76-.98.65-2.97,1.31-1.17.39-1.92,1.6-3.31.73l-.04,1.37c-3.24.71-3.7,1.13-.83,2.96.38.24.43.88.7.91.63.06,1.43-.46,2.19-.38,1.28.12,2.05,1.03,3.19.36v1.43s1.54-.82,1.54-.82c3.76.9,10.26-1.48,13.54-.44.85.27,1.51,1.88.14,2.48-3.32.94-5.75,2.12-8.04,4.8-1.05,2.25,4.14,3.2,5.65,3.29.96.06,1.7-.9,2.84-.3l-.48-.94c2.28.31,4.63-.81,6.6-1.15,1.12-.19,2.94.21,4.22-.14,2.35-.65,8.12-4.27,10.43-2.41,2.27,1.82-2.25,2.86-2.94,3.29-.52.33-.65,1.08-1.1,1.37-1.25.81-4.79,2.25-5.59,3.31-.74.97-.81,2.94-1.67,4.06-.05.69,1.6,1.85,2.15,1.91.43.04,7.98-.87,8.53-1.01,4.99-1.24,7.84-5.64,11.88-6.18.61-.08,1.56-1.21,2.04.62.09.34-.29,6.48-.38,6.93-.06.3-.82.32-1.2,1.25-.57,1.41-.1,3.21-.32,3.71-.57,1.28-4.72,6.19-5.81,7.72-2.32,3.25-4.47,6.6-6.95,9.7l.52,5c4.25,1.5,7.5-4.43,10.71-4.77.84-.09,1.36,1.52,1.63,2.14l-1.91.73c1.07,1.68-.15,1.26-.33,1.67-.32.72-1.04,3.8-1.19,3.95-.18.18-.93,0-1.16.21-3.12,2.84-4.69,6.77-8.98,8.85l-4.75,7.59c-.07.69,1.6,2.4,2.33,2.33,2.07-.19,6.1-3.31,7.29-5.18,1.24.08,2.54.52,2.28,1.97-.18.99-4.04,6.21-4.86,7.08-2.85,3-4.06,4.53-6.59,7.77-2.03,2.61-3.68,2.96-4.79,4.23-.28.32-.21,1.13-.58,1.53-.56.61-1.53.84-1.95,1.39-.16.22-2.07,4.61-2.15,5-.26,1.21-.4,4.56,1.37,4.63,1.85.07,1.87-1.8,3.24-2.88,1.07-.84,2.12-1.08,3.04-1.73,1.42-1.02,1.99-3.25,4.97-2.85.55,1.32-.68,2.42-.8,3.16-.1.63.44,1.33.25,2.17-.65,2.86-9.15,10.63-11.95,13.02-.67.57-2.56,1.05-3.59,1.89-1.87,1.52-3.48,4.35-5.65,5.47l.39.86c-.39.02-1.02-.11-1.31.09-.79.56-1.58,7.35-.59,8.45.44.34,2.91-1.95,3.41-2.4,3.47-3.08,5.79-6.55,11.24-6.11.8.54.34,5.12-.16,6.15s-2.08,2.31-2.62,3.22c-.63,1.07-1.69,5.26-1.87,5.51-.32.46-1.09.1-1.51.59-.8.93-1.99,4.6-3.24,5.68-.71.62-1.87.61-1.95.68-.1.09.85.85-.96,2.05-.28.19-.88-.18-.91-.14-.12.17-.57,2.9-1.09,3.91-.98,1.89-2.86,3.65-3.49,6.36-.09.4-.24,6.16-.16,6.47.2.71.9.92,1.57.79,1.59-2.18,2.66-3.77,4.54-5.59.28-.27.23-1.07.61-1.41,1.12-1,5.41-2.8,6.51-.79l-.31,4.81c-1.75,3.47-5.27,7.67-7.31,11.63-.3.58-1.04,0-.67,1.79h-1.19c.97,1.89-1.58,3.2-1.87,4.15-.7,2.27-.78,5.89-1.17,8.32-.14.86-.97,1.61-1,2.97-.03,1.48,1.78,3.72,1.72,5.38l2.05.08,3.8-7.5c3.19-2.95,7.58-8.77,11.66-3.68.32.87-.81.56-.94,1.03-1.81,6.62-5.31,12.69-5.68,20.34-.08,1.66,1.2,5.22-.51,5.7.29,1.59.87,3.09,1.28,4.16.87,2.29.71,3.1,3.96,2.69.12-1.35.17-3.1.52-4.38.09-.35,2.86-5.64,3.29-6.19.4-.52,1.07-.21,1.31-.45.3-.3-.09-1,.44-1.31.23-.14,2.83-.99,2.95-.9,1.6,2.39,1.9,4.98,1.35,7.8-.05.28-.69.2-.76.47-.65,2.54-1.23,7.24.37,8.99l-.47,1.39c1.76.75,1.19,2.93,1.81,4.57.19.51,2.13,4.19,2.34,4.33,1.06.73,3.85.11,4.18-1.47l1.19.47-.44,1.35c2.15.44,1.2,2.19,1.63,3.36.16.44,1.03.8,1.13,1.29.11.55-1.32,1.29-.27,2.87.2.3,1.02.34,1.22.93.27.8-.47,1.93.07,3.1,1.32,2.84,5.33,7.75,7.28,10.65.27.4,1.58,1.13,1.61,1.22.24.71-.29,1.3-.21,1.95.09.84.53,1.6.54,2.47.02,1.58-2.17,4.16-3.81,4.47-4.94.92-12.21,1.22-16.59-.93-.52,1.81-2.83.86-4.24.45l-.5.97c-1.64-1.83-.86-.42-1.5.01-1.18.8-6.44.18-8.22.7-1.63,2.44-4.86,3.62-6.91,5.46-2.8,2.53-1.91,5.13-1.14,8.52,1.74-.61,3.21.55,5.08-.33,1.02-.48,1.96-2.69,3.42-3.21l-.94-1.18c1.7-1.29,3.73-2.38,5.66-3.6.56-.35,1.06-1.25,1.46-1.41.76-.31,1.43.34,2.1.24.82-.13,2.84-1.48,3.53-.4,1.71,2.7-3.07,3.51-4.41,4.27-.79.44-.44,1.7-1.59,1.02l-4.79,4.35.43,2.63c4.06.93,4.95-.8,7.31-3.35.77-.83,2.08-.72,1.69-2.34,1.99.97,1.14-.23,2.11-.74.47-.25,1.81-.38,2.48-.61,1.23-.43,2.55-2.29,3.72-.55l.47-.95,1.09,2.28c-1.96,2.15-5.53,2.54-7.64,3.88-.46.29-.29,1.46-1.29,1.74l1.21,2.53.47-.95c.3,1.19,2.46.38,2.99-.08.1-.09-.34-.74.06-1.1,3.62-3.25,9.34-3.99,13.46-5.47,2.67-.96,8.97-1.85,12.42-1.88s7.67,1.74,11.39,1.65c2.58-.06,6.06-.75,6.34-3.91.24-2.68-6-8.71-7.28-11.5-3.6-7.86-4.54-15.98-4.09-24.47,0-.16-1.92-.5-.65-2.6.32-.52,1.63-.11,1.18-1.39-2.47-.4-.27-1.4-.4-3.27l1.35-.06c.2-.79-.68-.25-.85-.69-.13-.3.36-6.13.48-6.57.73-2.58,4.2-2.21,6.15-1.12.61.34,3.73,3.32,3.88,3.76.34.97-.19,1.48-.13,1.95.03.23,2.45,2.53,1.99,4l2.25,1.04c-.47-1.13.84-1.46.91-1.74.09-.34.09-6.38.06-7.05-.28-5.99-2.92-12.69-5.39-17.69-.09-.18-1-.25-1.23-.86-.48-1.31.17-2.74,1.62-3.02,1.33-.25,5.66-.03,5.01,1.82,2.31-.54,2.01,1.43,2.37,1.9.07.09.77-.38,1.14.03,1.28,1.41,2.62,4.66,3.41,6.53.11.26-.34.84-.22,1.03.21.34,1.56.17.89,1.46l1.38.04-.47,1.89c2.67-.61,1.25-2.79,3.32-3.56l-.95-.24.97-.78-.78-13.98c-1.28-3.32-2.73-6.58-4.31-9.44-.81-1.47-2.62-2.72-1.98-4.88,1.57-2.9,5.76-1.54,7.65.11.21.18,2.5,4.11,2.86,4.77,1.03,1.87,1.73,5.46,2.73,7.23.19.33.97.66,1.14,1.3,1.35-.93,4.21-1.24,3.21-3.24l.82-.27c-1.62-3.87.19-8.76-.95-12.74-.08-.27-.95-.6-1.37-1.58-.16-.37-.9-3.55-.86-3.82.42-2.69,4.63-3.6,6.39-1.9.14.13,1.93,2.39,2.31,2.88.96,1.24,2.27,5.2,4.19,5.06l4.58-7.12,1.38.44-.48-.94c2.23-.53,3.25-.4,5,.42,1.17,2-2.62,9.62-2.98,12.27-.13.96.17,6.06.36,6.99s1.01,1.29,1.1,1.67c.37,1.54.6,3.17.79,4.75,2.7.34,1.75-1.87,2.05-2.74.4-1.16,3.56-8.76,4.08-9.27.42-.41,1.07-.27,1.28-.47,1.58-1.51,3.81-4.23,6.15-4.57,2.52-.36,3.85.49,4.94,2.81l-1.43.24c-.06.62,1.44-.42.59,1.04-.91,1.55-2.75,2.98-3.53,5.02-.93,2.44-1.44,6.5-2.24,9.12-.41,1.33-1.32,1.78-1.35,1.9-.1.36.44,5.17.6,5.95.29,1.43,1.64,2.08.72,3.78,3.68,1.26,2.36-1.02,3.14-2.38.19-.32.92-.45,1.15-.81,1.99-3.21,1.35-3.64,4.85-5.38.35-.17.35-.71.6-.79,3.13-1.06,6.38-1.25,7.35,2.51-1.74.36-.39,1.08-.55,1.57-.02.05-.66.1-.86.41-1.78,2.82-3.35,5.55-3.99,8.63-1.01,4.91.16,8.99.88,13.8,2.44,1.45,2.37-2.03,3.13-3.42,1.4-2.55,2.76-3.67,5.3-5.15.61-.35.71-1.47,2.57-.57,2.58,1.25,1.45,2.14,1.96,3.72.24.76.97.51,1.08,1.35.34,2.73-1.1,5.48-.16,8.14l-1.21.76c.78,1.37-.49.39-.57,1.33l1.45.26c.19,1.04-.55,3.7-.34,4.28.22.61,1.11.49,1.26,1.01.24.84-1.44,6.07-.48,7.75l-.94-.48c-.43.63-.04,1.86-.12,2.14-1.34,4.89-5,9.82-7.78,14.17-1.8,2.82-4.66,5.6-3.95,8.98.03.14,1.91,1.99,2.04,2.06,1.27.67,5.31.81,6.72.65,1.76-.19,2.23-.94,3.45-1.32,1.91-.6,8.43-.19,11.32-.14,8.5.14,14,4.52,21.54,6.94.43.14.95-.19,1.31-.09.11.03.79,1.34,1.78,1.25,2.22-.19-1.9-4.31-2.26-4.55-.5-.34-3.04-.98-3.52-1.29-.85-.55-2.19-2.14-1.38-3.19.37-.52,1.32-.51,1.92-.48.82.05,3.76,1.25,4.51,1.75.7.47,1.65,1.28,2.38,1.78.42.29,2.58.95,2.98,1.24,2.03,1.51,1.9,4.24,5.73,3.84.6-.12.85-1.76.57-2.4-.22-.51-6-5.29-6.9-5.86-.59-.37-4.08-1.62-4.22-1.79-.26-.31-.03-1.42.19-1.86.91-1.82,5.71.38,6.99.99.61.29-.05,1.33,1.78.43l.04,1.38c.76-.3,2.41.69,3.1,1.19.41.3,3.62,3.37,3.75,3.59.22.38-.34,1.07-.18,1.34.09.14,2.65,1.56,2.94,1.65,1.21.37,2.31-.95,3.65-.61-.93-1.46.31-2.33.39-3.16.06-.61-.79-1.11-.86-1.84-.07-.68.57-1.4.25-2.11s-1.94-1.48-2.63-2.14c-6.13-5.87-11.01-6.01-19.21-6.43-4.61-.23-4.04-.2-8.07.85-.71.18-6.4.05-7.38-.08-5.78-.78-5.96-6.59-4.28-10.98.79-2.06,1.71-2.77,2.91-3.84.64-.57.72-2.41,1.28-3.33,3.06-5.09,4.62-7.17,6.07-12.94.16-.64-.17-1.47.03-2.29,1-4.12,2.89-5.99,6.34-2.48.15-.09,1.32-2.7,1.63-3.12.23-.31.72-.18.74-.22.17-.3-.77-.72-.78-1.16-.02-.89,1.51-3.8,1.61-4.35.13-.68-.33-8.94-.45-9.42-.05-.2-1.61-1.7-.44-3.34l-.85-.41c.72-2.29.79-3.4,3.45-2.93,4.72.83,4.64,4.76,6.54,8.07.17.3,1.68,1.66,1.75,1.79.21.45-.28.85-.33,1.28,3.55,2.5,1.88-2.34,4.22-2.81l-.94-.7c1.29-.7.36-1.57.46-2.3.05-.37.79-.26.86-.54.4-1.64-.79-3.41-.67-4.37.11-.87,1.3-2.84,1.21-2.97-.06-.08-.68.03-.75-.13-.7-1.48-.81-5.99-1.62-8.05-.16-.4-1.16-.88-1.37-2.07l.93-.68c-1.28.28-.74-1.47-1.14-2.26-.21-.43-1.94-2.75-2.1-3.31-.24-.84-.05-1.58.36-2.31l-.91-.9c.98-1.77,2.94-1.88,4.46-.76.53.39.16,1.18.31,1.44.03.05.72-.32,1.24-.08.92.42,4.33,3.71,4.67,4.37.47.92.25,3.61.76,4.22.07.08.72-.55,1.32.33.98,1.45-1.18,1.63.31,2.56l2.6-.28c1.56-2.12,1.41-3.84,1.6-6.12.04-.48.6-1,.64-1.5.11-1.56-3.11-9.48-3.96-11.21-1.52-3.1-4.24-5.81-6.53-8.25-1.61-1.72-3.17-1.84-3.45-4.6-.13-1.22.64-5.69,2.02-5.93,1.53.87,4.22,1.56,5.58,2.36.34.2,2.09,1.73,2.65,2.19.97.79,1.55,2.45,3.08,2.51.45-.07,1.18-5.29,1.12-5.95-.03-.28-1.5-.05-.47-1.41-1.47-.42-.57-1.53-.9-2.25-.48-1.06-2.6-3.01-3.39-4.3-.43-.7-.83-2.54-.94-2.62-.63-.49-3.74-.83-3.7-3.17-1.91-2.08-4.1-4.66-4.85-6.6-.59-1.51-.34-5.74-2.28-5.99,2.05-1.75-.92-2.46-.99-3.54-.1-1.59.36-4.78,2.54-4.46.28.04,4.4,2.58,4.92,2.97,1.23.92,2.82,3.22,4.07,3.97.67.4,1.94.02,2.75.12-.13-1.09.22-2.47,0-3.49-.08-.37-.9-.28-.88-.52.24-4.39-.54-2.71-2.29-5.15-.4-.56-.26-1.47-.57-1.95-.28-.42-1.06-.14-1.48-.61s-1.29-2.31-1.51-2.42c-.53-.28-1.39.03-2.15-.24-.91-.33-1.96-3-2.11-3.12-3.87-3.1-7.88-6.83-9.94-11.6-.54-1.26-1.33-4.66.36-5.07,1.35-.33.96.6,1.47.95,1.01.69,2.02.3,2.04,2.37l.94-.94c-.83,2.16,6.61,5.6,7.12,5.22.89-3.55-.68-7.92-2.38-11.04-.21-.39-3.5-3.78-3.75-3.91-.51-.27-1.16.41-1.82.14-.46-.19-1.41-2.36-1.67-2.61-1.22-1.18-4.67-3.4-6.12-4.56-1.65-1.32-4.31-4.55-5.54-6.31-.27-.39-2.35-3.6-2.39-3.82-.14-.68,1.01-1.22,1.41-1.33,3.22-.86,5.99,4.63,9.41,4.74,1.36.04,2.45-1.46,2.26-2.77-.22-1.51-4.02-5.47-5.1-7.2-.28-.45,0-1.09-.04-1.13-.34-.27-2.13-.35-2.29-.57-.05-.06.43-.55.31-.8-.04-.09-1.24-.38-.81-1.54l-.94.94c.05-1.78-2.09-1.35-2.75-2-.39-.38-1.35-3.36-1.54-4.17l-.9.45c-1.01-2.33-3.24-4.34-4.26-6.91-.37-.93,1.43-1.11,2-1.04,1.32.14,1.75,1.79,2.34,2.1.32.17,1.42.18,2.39.67.3.16.3.91.67.96,1.05.15,2.76-.7,4.12.02,1.36-1.12.42-2.98.51-4.1.04-.48.91-.87.74-1.15-.03-.04-.68.12-.95-.33-.6-.97-.87-2.69-1.61-3.76-.72-1.03-2.51-1.65-2.71-1.93-.33-.45.06-1.48,0-1.52-.23-.18-1.05-.03-1.59-.53s-.7-1.83-1.22-2.49c-.34-.44-1.7-1.3-1.73-1.41-.29-.85.83-2.24-2.03-2.31l.31-.81c-1.3-.2-.38-1.19-.71-2.29-.32-1.08-1.72-3.46-1.52-4.17.09-.32.98-.31.98-.54.01-1.15-1.66-1.63-.03-3.07-2.31-.06.36-2.44-.45-3.76,2.47-1.32,3.02.27,4.37,1.04.69.39,2.46.73,2.64.93.23.26-.03,1.09.13,1.23.17.16,2.24.04,3.18.39.19.07,2.72,2.06,2.49,2.51h.92c-.03-.52.08-.87.61-1.1,1.48-.63,9.29-.65,9.4-2.01-.61-3.39-2.05-2.3-3.49-3.12-.55-.31-.69-1.01-.98-1.18-1.88-1.1-3.86-1.62-5.45-3.1,1.01-4.38,2.36-2.16,4.62-1.63,3.33.78,7.53.85,10.69,1.72,1.12.31,2.23,1.38,2.92,1.43.94.07,5.61-1.25,7.54-.95.85.13,1.54,1.16,2.38.93,2.04-2.62.13-2.01-.67-2.61-.55-.41-.48-1.37-1-1.87-1.3-1.23-2.82-1.86-4.02-2.49-1.85-.98-5.55-1.4-5.45-4.41,1.44.01,3.62-.64,5-.27,3.17.84,5.14,1.55,7.95,1.87,2.91.33,5.43.92,8.41.29l-.48-.94,2.63-.95c.28-.4-2.72-3.81-3.11-4.03-.75-.44-1.72-.04-2.27-.34-.28-.16-.26-1.15-1.41-1.69-1.08-.51-2.8-.03-2.91-.12-.22-.18-.18-1.3-.63-1.77s-1.81-.47-2.25-1.3c.45-.68.91-.66,1.63-.74,2.5-.26,12.32-.12,13.99-1.21.41-.27.44-.99,1.12-1.3,1-.46,4.04-.23,5.07-1.01.11-.08,1.92-1.81,1.94-1.94.18-1.78-1.76-2.08-2.86-2.85-.35-.25-.43-.99-.55-1.08-.14-.09-.97.44-1.53.36-2.01-.28-2.51-1.22-4.1-1.13-1.88-1.19,2.74-3.8,3.81-4.17,3.06-1.07,6.72-1.31,9.34-2.4l7.22-7.01-.67-1.38-.43.91c-2.07-.27-5.56-.49-7.71-.3-1.62.14-3.61,2.22-4.47-1.28.04-.37.93-.43,1.18-.78,1.83-2.49,4.64-5.36,6.62-7.42,2.46-2.57,5.97-4.48,5.5-8.68-3.28-1.56-5.25.98-8.5.91-.06-.4-.24-.76-.25-1.18-.05-1.85,1.16-1.52,1.46-1.82,2.35-2.32,7.58-6.49,8.82-9.5.65-1.56.48-4.06,1.36-5.72l-.98-.73c1.74.17.67-1.2.59-2.29-.14-1.96-.54-4.44-.83-6.96-.09-.77-1.06-1.77-.63-2.54,2.2-1.06,2.02-3.46,4.87-3.43,2.08.02,9.55,1.82,11.77,2.52,1.49.47,2.82,1.72,4.45,2.2.76.23,5.67.73,5.88.52v-1.88c-2.81.1-4.45-3.03-6.79-3.81-.85.17.83-2.29.94-2.39.61-.57,2.05-.71,2.4-1.07.32-.34.19-1.2.82-1.78.36-.33,5.01-2.57,5.63-2.68,2.03-.37,4.07,1,4.73,2.86.42,1.21-.14,1.79-.14,2.9,0,.76.63,1.71.47,2.35s-2.22.8-1.39,1.7c2.47,2.68,4.64-7.15,2.97-8.9l-9.13-7.47c.35-.61.58-.49,1.07-.57,1.74-.29,3.77-2.36,5.44-3.49.47-.32,1.21.02,1.44-.15.69-.51,1.24-2.1,2.45-2.24ZM17.66,32.82c1.38.56,4.34,1.16,4.97-.63,1.24-3.5-7.21-4.27-8.4-1.11.72.61,2.38.48,2.83.74.3.17.41.92.6.99ZM409.52,30.15c-3.36-1.2-9.05-1.49-9.48,3.31,2.24.05,3.8.42,6.18-.34l3.31-2.98ZM23.7,40.09c1.88-2.73-7.51-2.93-8.99-2.34l.94.94h-2.84s1.77,2.36,1.77,2.36c3.84.42,5.63,1.19,9.12-.95ZM408.55,38.27c-3.58-1.71-6.83-1.44-8.03,2.78l3.09,1.27,4.89-2.28.05-1.77ZM193.52,44.93c-.24-.16-3.57.47-4.43-.6l-.98.98-5.88.02v1.42s-1.43-.48-1.43-.48c.3,2.82-3.6,2.41-4.61,3.94-.64.97-.55,4.16-2.02,4.15v.93c1.45-.16.43.6.68,1.42.81,2.62,2.57,1.64,3.54,4.05l-2.82,1.89,1.43.24-.95,1.42c1.64-.12,2.19.9,2.38,2.37.55-.17,2.16-1.98,2.36-2.08.68-.34,2.77-.48,3.93-1.23,1.89-1.22,4.46-5.53,7-5.71l-.46-.92c.64-.17,1.49-.25,2.04-.59s4.34-3.55,4.63-3.92c.13-.16.93-3.79.84-3.96-.09-.16-2.59-2.15-2.8-2.21-.71-.19-1.44.3-1.88,0-.3-.2-.34-.97-.57-1.13ZM238.57,45c-.68-.28-9.16-.22-9.75,0-.05.02-.12.54-.48.76-2.45,1.45-3.91,2.87-2.56,6.08,1.04,2.49,2.28,2.08,3.58,3.06,2.47,1.86,4.55,3.42,6.48,5.01,3.56,2.95,6.5,7.43,11.86,4.18-1.21-.84-1.03-2.56-1.67-3.55-.78-1.19-3.32-2.2-2.35-4.27,1.13-2.39,3.69-.02,4.3-2.37.48-1.86-2.49-2.24-1.23-4.76-2.06,1.08-2.21-.75-3.42-1.54-1.66-1.09-2.56-1.18-4.28-1.81-.32-.12-.37-.72-.49-.77ZM73.55,146.89c-2.43.15-1.99,1.92-3.11,3.29-.77.94-2.45,2.16-3.44,2.99l-.05,2.5c-.78.4-3.61.48-4.11-.22-1-1.39,1.56-3.34.03-3.82l-2.06,2.18c-.62.79-.47,2.45-1.96,1.61,0,1.27.46,2.16-.89,2.6l.42,1.2c-1.86-.52-1.99,2.67-2.67,4.22-.72,1.64-2.89,2.65-1.13,4.32h-1.43c.93,1.2-.42,1.75-.48,2.61-.02.29.84.13.96.57.31,1.11-.2,1.91,1.19,2.99,2.66-1.12,1.47-2.96,2.58-4.54.63-.89,3.78-2.3,5-2.58,1.56.39-.12,6.07-.13,6.97,0,.62.68,1.03.68,1.34,0,.46-1.76,1.7.48,2.55,1.65.62.85-.8,1.24-1.21.35-.37,1.02-.43,1.31-.84,1.37-1.93,2.29-4.92,5.21-5.48-.44,1.47,1.55,1.8,1.67,3.08.09.92-1.01,3.67-.72,4.04.85-.39,1.78-.51,2.63-.93,2.73-1.35,3.33-4.22,6.86-3.34l.12,4.15,2.4.6c.53-.82,1.62-.99.8-1.9,2.52-.89,1.9.44,2.54,1.23,1.09,1.34,2.36,2.6,3.39,3.99.74-.42.22-1.12.71-1.63,1.59-1.65,2.02-1,3.82-3.72,1.38-2.08,2.01-3.2,3.76-5.47,1.4-1.82,1.29-3.63,2.86-4.59-4.21-2.7-9.41-2.75-13.76-4.99-.19-1.28,1.91-2.47,1.92-2.64.04-.7-1.02-1.88-.01-3.04-1.64-.66-1.91.85-2.23.93-1.51.38-2.55.03-4.24,1.14-.61.41-.9,1.44-2.12,1.93-.86.34-2.29-.12-3.27.74l-.44-3.97,5.18-6.94c-3.84-.65-4.53,3.05-6.84,5.04-.24.21-.81.13-1.05.32-1.09.88-1.33,2.78-3.98,1.04-1.5-.99,2.16-6.89,2.38-8.3ZM87.04,326.98c-.35-1.26-1.41-1.68-1.46-1.78-.64-1.58-1.58-4.32-.69-5.86l-.94-.49c.9-1.48-.58-3.3-.35-4.71.05-.3.7-.15.76-.45.12-.59-.28-1.61.14-2.73.85-2.28,2.73-4.57,2.81-7.2,0-.28,1.71-.05.61-2.56-.25-.57-.97-.55-1.23-1.16-1.61-3.73-1.66-11.32-.7-15.2.72-2.89,3.41-3.32-.09-7.15-.54-.59-3.05-1.58-3.7-2.07-1.37-1.03-3.34-3.09-4.47-3.83-.29-.19-3.75.47-2.29-2.01-.87.04-1.6-.34-2.28-.82-3.93-2.76-7.68-5.9-11.35-8.69-.4-.31-1.04-.35-1.53-.49l.46-.91c-2.05.4-1.35-1.1-2.09-2.21-1.03-1.55-3.01-3.57-4.01-5.2-1.25-2.04-3.18-4.58-3.4-6.83l-1.42.47c1.1-2.03-.99-2.27-1.62-3.82-.35-.86-.27-1.84-.65-2.69-.86-1.94-2.78-3.87-2.11-6.24l-.85-.53h.94s0-.95,0-.95l-.9-.2.43-2.17-1.41-.03c-.42-1.56,1-4.11.97-4.93-.01-.29-.82-.25-.88-.49-.68-2.93-.18-6.34.13-9.3l-2.13-.93c-.72-1.11,1.47-.92.95-1.41-.41-.39-1.61-.84-2.18-1.62-1.81-2.51-3.29-11.15-3.44-14.35-.06-1.25.72-10,.99-10.84.29-.9,2.56-2.56,3.02-3.2.18-.24-.16-.99.13-1.45s1.4-.67,1.43-1.05c.01-.16-1.19-2.47-1.26-2.97-.22-1.6-.44-6.83,0-8.3.77-2.57,1.18-4.95,1.88-7.25.13-.42,1.3.16.36-1.66h1.43s-.48-1.14-.48-1.14c1.32-.35,1.48-3.35,2.12-4.07s1.6-.66,2.03-1.09.4-1.32,1.1-1.98c.88-.82,5.07-3.54,5.41-4.1,1.35-2.21,2.63-8.59,4.62-10.31.09-.08.58.32.72.21.69-.56,2.89-2.42,3.26-2.63,2.11-1.15,5.46-.97,4.76-3.88-.3-1.26-3.04-2.31-4.07-3.1-4.52-3.48-8.92-9.52-9.94-16.13l.91-.42c-1.69-1.68.39-4.91-.09-6.57-.33-1.15-2.3-1.62-3.07-2.39-1.99-1.98-5.08-7.9-4.9-10.49.05-.75.8-1.47.77-1.91-.02-.33-.68-.87-.75-1.86-.15-1.94,1.85-5,1.21-7.43-.27-1.03-1.25-1.13-1.72-1.76-.65-.87-2.95-4.03-3.14-4.71-.67-2.48.52-6.93.3-9.37-.03-.32-.87-.21-.95-.6-.1-.44-.13-3.75.95-3.01v-.46c-3.76-.49-7.66-2.9-11.51-2.28-3.93.64-7.29,1.68-11.3.56-.93-.26-1.84-.73-2.81-.9-1.37-.82,1.78-2.55,1.88-2.95.55-2.18-.46-1.15-.92-1.4-2.06-1.12-4.29-2.22-6.3-3.3-.56-.3-1.86-.24-2.68-.94-1.67-1.42-.45-2.83-.76-3.55-.54-1.25-5.65-2.03-7.1-2.49-.21-.06-1.3-1.29-2.62-.83l.45-2.12c1.36.07,1.97-1.03,2.24-1.17.81-.4,7.13-2.23,5.08-3.84s-10.1-3.23-3.13-6c2.02-.8,4.11-.98,6.11-1.72.15-.06.2-.61.53-.74,2.35-.91,5.65-1.11,7.69-3.13-4.45-5.45,2.46-5.89,6.45-6.37l.4.88c8-.29,16.9,4.21,24.88,5,2.18.21,5.38-.79,7.61-.87,12.6-.49,21.18,3.3,30.15,11.4.46.41,3.97,3.12,4.11,3.36.44.73,0,1.61.24,2.04.17.31.95.44,1.15.81,2.74,4.98,2.23,8.53,3.81,13.51.12.39.88.37.94.69.19.99-.7,2.21-.51,3.17.07.35.96.27.99.61.37,3.77.41,6.45,2.35,9.79.8,1.39,1.53,3.15,2.16,4.14.63.98,2.67,1.64,2.65,3.75l.89-.42c.8.93.48,3.09.56,3.26.14.3,4.74,4.2,5.02,4.38.56.36,3.28.68,3.58.86.47.28.6,1.24,1.39,1.6,1.55.69,5.51.98,7.42,1.61.96.31,1.58.83,2.21,1.59l.25-.93h.93c-.07,1.28,1.29,1.39,2.38,1.4l-1.22-.92.28-1.45c-1.88-.54-6.83-.69-6.12-3.47,1.16-1,2.59-2.42,3.74-3.33.47-.37,4.62-2.74,4.79-2.98.32-.47.18-1.41.57-1.94.56-.75,3.39-1.37,3.18-3.45l-3.54.51-.46-.93c-1.64,1.58-7.78-1.84-6.44-3.37l4.61-2.36c2.92-.29,2.81-2.94,3.89-3.99.52-.51,1.2-.2,1.43-.34.07-.04-.38-.94-.02-1.52.3-.49,3.55-2.01,1.5-3.45-.79-.55-5.5,1-7.62-1.39-1.82-2.04,1.07-2.65,2.39-3.79,1.48-1.29,5.03-4.8,6.01-6.37.62-.99.47-2.38,1.57-3.36-1.61-.73-6.45-4.76-7.13-6.05-.49-.94-.04-2.01-.42-2.63-.33-.54-1.5-.68-1.74-1.73-.16-.7.62-1.23.59-1.69s-.88-1-1.02-1.61c-.17-.76.44-1.58-.08-2.81-.37-.86-2.75-.87.33-2.8.6-2.39-1.2-2.35-1.94-3.36-1.4-1.9-3.27-5.21-4.26-7.37-.13-.29-.75-.27-.84-.57-.08-.25.36-3.71.49-4.16,1.77-6.07,7.92-2.12,11.51-2.48,1.21-.12,3.94-1.21,4.88-1.62,2.08-.9,2.78.53,2.94.42.04-.03-.11-.88.31-.97.82-.19,2.51.65,3.75.56.89-.06.46-.92,1.37-1.04,2.82-.37,14.93,1,17.49,2.04,2.12.86,3.44,2.38,5.22,3.51.21.13.99-.7.82.64l.7.02.54-.98c3.64.84,6.75-1.3,10.62-2.18s8.31-2.53,13.14-2.42c4.12.1,8.84.32,13.26,1.22.61.12.64.84.88.91,1.74.54,4.49-.18,5.93-1.3l-.23,1.44c1.65-1.47,4.98-2.18,7.1-2.18,1.69,0,6.25,1.55,6.67-.24,1.19-.1,1.64,1.26,1.88,1.35.81.27,2.92-.08,4.14.25,2.33.63,6.21,1.75,8.44,2.57,1.38.51,3.48,2.37,5.06,2.41.7.02,1.1-.51,1.58-.6,1.94-.35.93-.31,1.78-.66,4.74-1.95,8.06-4.13,13.68-5.26,6.6-1.33,11.01-.71,17.58.65,2.28.47,4.29.89,6.98,1.29,2.55.38,11.59,1.59,9.52,5.64-.08.16-1.52,1.2-1.91,1.62-.72.77-3.23,3.03-3.51,3.51-1.66,2.89-2.35,8.47-1.83,11.63.13.79,1.04,1.31.87,2.23h-1.43c1.17,2.28-.53,2.73-.53,4.71l-1.37.04c.99,1.65-.02,1.19-.28,1.61-.24.39-.12,1.04-.25,1.15-.36.31-1.4-.15-1.76.17-.27.24-.83,2.65-1.61,3.07-.21.11-.79-.35-.82-.31-.08.11.11.82-.17,1.24-.32.48-2.23,1.74-2.25,1.89-.17,2,4.92,4.42,5.88,6,.6.99.62,2.13.93,2.6.37.57,2.84,2.28,3.44,2.95.38.42,1,1.14,1,1.69l-.99,1.51c-3.35-.08-6.04-2.37-8.8.17l.23.88.61-.31c1.76,1.36,1.7,3.42,2.64,4.95.12.2,2.7,3.17,2.97,3.44,1.69,1.74,5.38,2.83,3.92,5.69l-8,1.49v1.41s.87-.42.87-.42c.59,3,2.43,3.32,4.04,4.76,1.52,1.36,8.85,8,10.49,7.79.67-.09,1.45-1.14,2.18-1.46,1.23-.54,4.3-.45,5.53-1.8.25-.28.06-.92.23-1.15.16-.22,2.04-1.43,2.88-2.63.89-1.28,2.91-5.74,3.65-6.63.66-.8,1.9-1.14,2.55-2.25.24-.41-.01-1.18.26-1.56.34-.48,1.28-.56,1.43-1.11.2-.72-.54-1.59-.47-2.26.04-.31.9-.24.99-.61.15-.66-.62-2.18-.39-2.71.26-.6,1.03-.61,1.32-1.14.6-1.11.2-3.1.6-3.8.17-.3,1.31-.41,1.59-1.51.87-3.35,1.77-7.8,3.16-11.52,1.11-2.96,5.64-11.45,8.15-13.21.71-.5,1.57-.27,2.04-.56s.59-1.67,1.46-2.23c1.3-.85,4.03-1.2,5.31-1.77,2.65-1.17,5.65-3.11,8.24-4.02,3.08-1.08,7.69.12,10.51-.51.24-.05.06-.8.92-.88,3.59-.34,11.1,3.32,15.22,3.17,1.83-2.39,4.36-2.44,6.39-3.44,2.2-1.08,1.98-1.65,4.99-2.64.25-.08.16-.79.52-.83,1.62-.22,8.13.25,9.73.67.86.23.78.87,1.25,1.22,1.03.78,2.29.41,2.02,2.84h-1.07c-1.32.79.35,1.45.4,1.54.15.25-.23.86.15,1.08,1.01.58,4.17.63,5.59,1.09,1.55.51,10.2,4.46,10.4,5.74.3,1.99-5.8,1.6-5.52,4.02,1.96,2.87,9.18,2.26,7.19,6.66-.41.55-4.83.53-5.88.85-.93.29-2.12,2.01-3.66,1.8l.06.9.9.35c.97,3.7-7.19,4.65-9.03,7.07-.27,1.11,3.71,2.67,1.9,4.25-.22.19-4.94.98-5.67,1.04-2.79.23-6.84-1.11-9.26-.77-1.2.17-3.58,1.83-4.91,2.2-2.48.7-5.43.38-7.93,1.07-.18.27-1,6.06-.97,6.44.05.62.69,1.23.73,1.92.03.45.05,4.85-.02,5.1-.09.3-.66.23-.89.71-.15.33.05.97-.19,1.36-.39.62-2.14,1.9-2.65,2.9-.63,1.22.08,2.72-1.47,3.18l.02.7,2.27,1.65c-1.55,2.18.15,4,.14,6.2,0,1.15-1.32,6.15-1.79,7.24-.41.93-1.57.03-.62,2-.93-.58-4.6,3.78-4.71,4.1-.3.9.52,1.89.43,2.76-.07.68-.82,1.17-.93,1.94-.34,2.41-.42,6.09-2.03,8.4-.53.77-1.14.94-1.76,1.53,1.87,1.87-.45,2.52-1.26,3.69-.74,1.08-3.23,4.81-4.33,5.56-2.22,1.52-4.81,1.03-2.43,5.14,0,0-1.5,2.52-1.92,2.8s-3.37.98-4.21,1.26-7.57,2.1-7.57,2.1l-.84,4.63s-2.81,3.23-3.79,3.23-4.63.7-5.19.7-2.95,2.95-2.95,2.95c0,0-2.81,3.37-3.23,3.65s-5.89,3.23-6.87,3.51-7.85,2.24-7.85,2.24l-1.54,1.82-4.43.82c-.55,1.35-1.12,2.76-1.61,4.13-2.97,8.31-.3,19.1,2.64,27.54.55,1.58,1.47,4.14,2.31,5.43l-.42,1.09,1.16.49-.26,1.45c2.72-.52.46,2.59,2.82,2.91l-.45,1.36,1.37.04c-.36,1.82.67,1.67,1.15,2.46,1.13,1.83,3.01,4.99,3.48,6.99.18.78-.28,1.75-.23,1.85.09.15.89.16,1.18.74.22.44-.31,1.98-.23,2.1.15.23,1.27.35,1.58,1,.19.39-.37,1.31-.25,1.44v.4s-.28,4.58-.28,4.58l.65,3.74,1.4,2.06-1.22,2.81.09,3.83,1.4,4.3.75,2.81-1.31,2.34,1.87,3.37s1.87,1.03,1.78,1.31-.56,3.55-.56,3.83,1.31,10.85,1.31,10.85c0,0,3.74,4.68,4.02,4.68s.65.75.65.75l4.4,3.91c-.3.3-.77.46-1.2.47l.86,1.82c-.07.1-.74,0-.85.38-.21.74,2.49,6.86,2.6,8.65.11,1.83-.01,6.62-.6,8.43-.31.96-.88,2.02-1.37,2.92-.28.51-1.08.59-1.06.78.16,2.33,3.97,6.85,4.06,8.58.02.39-.6.95-.57,1.39.26,3.39,2.25,7.51.21,10.91-.27.46-.76,1.06-1.07,1.56s-1.17,1.44-1.73,1.8l.02.7.81.08.68,3.2c.99-.15,2.08-.04,3.04-.33,8.84-2.62,17.89-2.94,27.46-2.22l5.44,1.7.04,1.37-1.42-.47c1.25,2.9-2.58,3.98,2.22,4.55,1.34.16,3.26-.39,4.65-.31,5.64.33,10.01,1.44,15.08,3.96,3.96,1.96,8.62,4.32,3.84,8.81l-3.96,1.73c.85.21,1.69,1.29,2.14,1.55.56.32,2.63.65,3.08.81,2.66.93,11.48,3.31,12.84,5.34,1.46,2.19.98,4.96,1.4,7.25l-1.42-.47c-1.18,1.41,5.17,5.49,6.11,6.46.88.89,2.11,2.44,2.56,3.6.23.58,1.61,5.98,1.58,6.3-.04.48-.95.88-.72,1.79.13.5.9.8.91,1.54,0,.29-.88.16-.98.56-.04.18.07,3.55.11,3.73.07.33.96.03.87.9-.6,6.11-9.16,7.18-13.9,5.37-3.05-2.71-5.73-6.33-9.59-7.97-6.65-2.83-7.22-.15-12.86,1.17-2.43.57-5.54.24-8.02,1.25l-.27-.96h-.93s-.29.95-.29.95l-6.98-.49c-1.74,2.64-2.94,6.06-5.95,7.55-2.04,1.01-8.96,2.83-11.45,3.14-1.3.16-3.98.66-4.05-.72l-.3.84-2.78.11.31,3.11c-.16,1.04-3.46,1.38-4.37,1.4-1.42.02-3.05-1.06-3.3-1.12-.5-.14-2.4,1.02-3.33.82-1.28-.27-1.83-1.87-2.38.08-2.37-1.16-4.33-.96-6.87-.5.58,6.18,5.93,10.49,3.79,17.07-5.29.79-8.92-4.36-14.14-2.76-.4,1.47.04,3.12-1.39,4.18-2.19-.07-4.44,1.14-6.28-.46l-.24.94-3.08-1.89c-.3,1.66-4.42,1.33-6.18,1.65-.6.11-1.02.86-1.65.97-4.13.75-9.32-.25-13.36-1.59-1.97-.65-6.07-2.79-8.1-3.39-.94-.28-7.91-1.44-8.53-1.13-.75.36-.79,1.2-1.37,1.52-1.77.99-5.55,2.23-7.55,1.96-1.77-.24-2.9-1.63-4.32-1.88-4.04-.72-7.14.49-11.58-1.76-.74-.38-7.08-4.97-7.35-5.36-.12-.17-1.52-2.51-1.65-2.76-1.02-1.95-1.14-4.1-.81-6.18.01-.08.65-.1.68-.31.27-1.69-.76-3.81-.35-5.61.07-.29.93-.56,1.28-1.21.97-1.8,4.09-8.22,4.29-9.81.36-2.87.28-3.44.13-6.22-.08-1.4,1.02-4.91-.4-5.02-.29-.9-.8-4.41-1.21-5.48-.45-1.16-2.94-2.72-3.35-3.41-1.23-2.07-.68-3.47-3.5-5.69-4.52-3.56-6.72-4.44-9.55-9.9-.28-.55-.11-1.65-.47-2.2s-1.38-.17-1.47-.27c-.27-.28.5-1.53.39-1.82-.02-.06-.71-.08-.86-.4-.69-1.44-1.84-5.21-4.01-4.92-.25.03-.26.72-.38.77-.38.17-.81-.22-1.31.39-.7.85-1,2.9-1.1,3.03-.29.36-1.24.57-1.77,1.28s-.11,2.11-.56,2.54c-.2.19-.9,0-1.17.19-1.04.77-3.18,5.46-4.06,6.38-.5.52-1.45.4-1.99,1.12-.53.71-.43,1.99-1,2.8-.75,1.06-2.54,1.18-2.93,1.58-.49.5-.28,2.25-.72,2.64-.24.21-1.06-.04-1.22.14-.25.27.07,1.18-.22,1.71-.77,1.4-4.65,2.49-4.18,4.37l-1.37.04c.25.64.59,2.46.43,3s-1.74,1.93-2.07,3.89c-.25,1.48.64,2.71.57,3.71-.06.8-.84,1.65-.79,2.46.02.42,1.25,3.15,1.19,3.79-.04.46-.72.81-.72.95,0,.3.96.49,1.24.89,2.17,3.05,2.65,7.22,5.37,10.02-2.87,1.31-.59,3.93-.44,5.9l1.39.27c-1.48,1.38-1.17,3.82-1.94,5.56-.11.25-2.9,3.53-3.29,4.06-1.6,2.13-2.07,2.36-4.75,3.69-.39.19-1.05-.22-1.31-.1-.57.27-2.92,2.43-3.77,2.6-.39.08-6.95-.29-7.93-.41-5.38-.69-10.65-3.07-16.55-1.85-.57.12-4.27,1.94-5.38,2.19-1.87.43-5.89.32-7.28.84-1.57.59-2.41,2.48-4.48,1.2l-.46.93c-7.19-.26-9.95-.32-16.3-2.76-2.95-1.14-2.91.57-4.72.82-.74.1-1.32-.41-1.76-.4-.33,0-.24.78-.5.85-2.33.65-4.18-.94-4.05-3.21-5.41.5-9.46,5.79-13.67-.3l2.41-13.33.25-6.24,3.09-6.17,4.21-3.37,5.89,1.68,6.45-8.7,11.22,5.33,7.85-2.24-.84-6.73-.84-1.68-5.89-2.24-4.49-5.33-3.37-5.05-5.61-2.52-1.96-7.85-9.26-7.57-12.06-.56-1.12-7.29-.84-6.45-4-3.75ZM117.15,162.64c-1.33-1.21-4.32,1.69-4.22,3.23l-.46-.94h-.94c-.6,2.2-3.97,2.88-3.34,5.22l-.87-.4c-.33,1.75-2.16,2.53-2.95,3.46-2.42,2.86-4.52,6.69-6.77,10.07-.25.38-1.11.45-1.49,1.11-1.74,3.02-1.04,12.21-.62,15.74.16,1.3,1.7,2.89.37,5.13,1.13-.69,2.12.77,2.31,1.78.24,1.32-.59,1.64-.66,2.26-.15,1.29,1.11,2.43,1.15,3.3.11,2.06-1.23,5.87-.25,8.58.18.49,2.12,1.41,1.73,3.06,1.34.29.66-.54,1.27-1.45.12-.18.91-.24,1.06-.74.2-.69-.53-1.55-.46-2.25.02-.17,1.3-2.31,1.59-2.79,2.24-3.73,5.56-6.33,6.98-10.61l-.49-1.35c2.19-2.76,4.31-7.52,5.6-10.8.13-.34-.54-.96-.33-1.27.31-.46,2.14-.09.91-2.2l.95.24-.92-1.63c.8-1.32,1.89-3.89,2.16-5.33.6-3.15,1.11-10.37,1.16-13.69.05-3.51-1.03-4.94-2.46-7.73ZM89.68,187.7c-1.64.3-2.81,1.08-2.38,2.85-1.7-.96-1.48,2.95-3.8,2.38l.48.94c-4.24.52-2.04-4.62-4.99-5.66-.66.06-3.84,9.82-7.24,6.51-1-.98.91-4.45-.81-4.63-.26,1.8-1.95,1.86-2.18,2.18-1.23,1.71-1.45,5.04-2.78,6.61-1.71,2.02-2.66.06-3.45-1.37-.31-.55-.89-2.3-1.22-3.01-.25-.53-.64-.94-1.05-1.33l.95-1.18c-.88-.66-4.12,2.22-4.21,2.46-.25.65,1.08,1.15-.48,1.56,1.02,1.5-.24,1.04-.72,1.7s-.3,1.88-1.48,1.89c-1.96.02-3.52-5.97-2.61-7.61-2.36-.08-1.54,1.25-1.93,1.99-1.19,2.28-2.03,6.83.01,8.75l-.39.89c1.13,3.78,2.84,7.41,4.16,11.43.62,1.87.41,4.82.13,6.77.61.43,1.72,1.58,2.23,2.25.33.42.43,1.46.58,1.56,2.86,1.88.16-2.79.15-3.03-.02-.33.86-2.39,1.02-2.93.13-.45-.33-1.09-.06-1.56.84-1.44,3.49-1.86,4.55-.26.11,1.66,2.16,7.17,4.28,4.76.12-.14,1.26-3.24,1.28-3.42.09-.62-.69-1.02-.71-1.4-.03-.95.5-1.98.34-3.01h3.29s.97,6.16.97,6.16l3.78.47c1.1-2.39.24-9.27,4.93-6.65.34.19.36,2.54,2.88,1.95.57-.13,2.93-10.37,6.01-.56l3.28-.44c-.66-1.66.62-2.87.98-4.47l-.98-.73.94-.47c-2.35-.33-1.22-2.77-1.43-3.99-.23-1.36-1.76-3.98-2.13-5.51-.8-3.26,0-5.96.18-8.77.07-1.13-.57-2.81-.41-4.04ZM95.37,225.18c-1.92.11-2.48.88-3.51,2.2-.17.22-.7.15-.73.2-.1.16,1.52,2.81-.36,3.31-2.43.64-5.69-2.83-6.3-2.38-.27,1.23-.59,2.46-.83,3.7-.1.52.3,1.12.26,1.3-.06.31-.59.21-.65.34-.17.38.28,1.05-.49,1.27-1.88.54-2.88-.54-3.06-2.33-2.17.35-1.36,2.06-.65,3.74.55,1.28,1.36,2.51,2.58,3.18-2.1,7.12-4.98,1.37-6.98,1.2-1.57-.14-.86,3.78-.54,4.82s2.27,2.82,2.29,3.01c.06.58-.69,2.09-1.12,2.41-3.24,2.41-5.89-4.96-7.75-5.01-2.11-.05-.16,4.02.36,5.25.76,1.81,3.07,4.4,4.64,5.89,2.01,1.89,3.65,4.8,6.71,4.94l-.46,1.37c3.37.73,3.51,6.11,7.38,3.86.27-.42-.2-1.1-.1-1.59.47-2.34.35-2.2,1.62-3.73.16-.19-.46-1.56-.35-1.97.09-.33.79-.32.88-.68.61-2.31.87-3.86,1.68-6.14,1.19-3.36.34-3.95,2.49-6.88.5-.68,1.03-4.15,2.18-5.01,2.81-2.11,1.9-3.17,3.58-6.04-1.02-1.41.45-1.07.56-1.5.09-.34-.76-4.1-.97-4.53-.41-.84-2.69-2.45-2.37-4.17ZM353.06,338.61c.77-.79,6.94-.03,8.1-.21,1.36-.21,4.94-2.2,2.94-3.48-3.41-2.19-6.05-3.42-10.3-2.94-1.8.2-2.18.32-4.29.41-3.45.15-11.42,3.65-14.4,5.21-.67.35-2.12.59-2.32.73-.27.19-2.45,2.65-2.5,2.89,1.89.48,1.89,3.43.98,4.78-.08.12-1.93,1.87-2.05,1.95-.13.09-.5-.26-.71-.17-.11.05-.12.7-.45.77-2.13.41-5.14-.38-6.05,2.86-.32,1.13,1.07,4.24,2.1,4.99-5.92,2.75-9.3,4.04-3.86,10.35-1.73,3.98-7.56,2.26-7.78,7.42-.06,1.37,2.38,2.15,3.23,2.86.73.61.9,1.97,2.26,1.92-.99,1.72-.92,2.89-3.28,2.88-.25.29.01,1.86.17,2.38.15.48,2.6,3.18,3.01,2.44,2.62,4.22,7.4,6.27,9.66,10.72,3.16.09,5.68,1.31,8.47-.88.33-.44-1.26-1.91-1.61-2.17-1.37-1.03-3.76-2.09-5.42-2.64l-.08-1.82c2.15.79,1.69-.09,3.31-1.19l-5.24-4.74c.67-2.48,3.5-1.4,5.24-2.65-1.26-2.99-7.14-4.42-2.12-7.08l1.17.94c-.26-1.28,1.03-.77,1.35-1,.11-.08-.27-.74-.14-.9.78-.93,3.63-.38,3.92-.59.1-.08,1.45-1.95,1.48-2.08.4-2.02-5.59-1.8-6.77-2.54-1.32-2.32,2.64-2.38,3.81-3.01.18-.1.25-.62.51-.76,1.78-.97,3.66-1.71,5.33-2.88.57-.99-5.9-3.1-6.58-3.37-.8-3.61,3.71-3.8,6.11-3.26l-.48-.94c1.83.78,3.06-.3,4.76-.75,1.14-.31,2.76.68,2.84-1.62-2.09-.1-5.25-.65-5.11-3.23.58-.25,1.11-.66,1.69-.9,1.34-.56,6.56-1.93,7.99-2.02,2.03-.13,4.08,1.04,6.14-.46l.12-1.85c-1.75-1.53-5.86-1.65-5.13-4.35ZM388.55,353.47c-3.35-.41-7.04-.61-10.35.07-.97.36,1.03,1.89,1.13,1.96,1.69,1.21,1.52.12,2.86,2.37.23.38,1.83.16-.08,1.49-3.67,2.55-8.04-1.09-11.95.66-.28.39.75,2.84,1.05,3.1.89.78,4.38,1.2,3.34,3.84-.18.46-4.11,1.75-4.75,1.84-1.74.25-4.86-.82-6.34.98-1.68,2.03,3.15,3.49,4.05,4.43.78.81.23,2.34,2.14,1.89.77.68-1.32,1.55-1.81,1.74-1.38.54-2.96.64-4.36,1.12l.4.86-1.35,1.25c1.01,1.32,1.43,1.57,3.07,1.67,1.98.12,9.02-.82,11.05-1.3,2.91-.69,10.86-4.24,12.56-5.5.79-.59,2.55-.74,1.67-2.12-.08-.13-.72-.22-1-.62-.91-1.29-1.84-2.61-2.68-3.96.33-1.49,7.94-1.46,9.49-2.63-.59-1.19-2.4-.31-1.9-2.37-.92,1.01-3.46-.99-3.35-2.09,2.24-1.83,5.19-2.07,7.82-3.1l.27-.97c-2.18-1.31-3.91-3.53-6.58-4.01-.97-.18-2.98.32-4.02.17-.31-.04-.33-.74-.4-.75Z"/>
      <g>
        <path d="M262.36,170.22c1.21,1.97,5.18,5.68,7.52,7.51,2.52,1.97,2.39,3.15,4.15,6.02,2.57,4.18,3,2.97,4.03,8.37.13.69.55-.78.49,1.93,0,.27.71.28.89.67,1.55,3.36,1.66,9.74,2.47,13.57.49,2.33,2.6,5.87,3.77,8,.3.55,1.33.03.94,1.29h-1.43s.48,1.42.48,1.42l-2.15-.35c-2.36,1.49,1.19,4.19,1.22,4.46.06.63-.36,1.31-.2,2.44.29,1.98,1.56,2.63,1.6,2.8.28,1.37-.29,2.78.96,4.18l-1.91.72.5,1.63-.99.5.89.29c-.72,2.15.27,1.72.37,1.99.79,2.12,2.22,6.28,2.53,8.66.02.19-.78.14-.92.56-.42,1.27.46,3.59-1.59,3.86-1.92-1.77-4.16-2.95-6.33-4.37-.88-.57-1.77-3.02-3.49-1l5.21,12.34c-.57,3.31.07,6.55-.23,9.95-.27,3.07-2.75,2.38-4.4.62-.09-.09.32-.63.23-.74-.35-.4-1.49-.87-1.7-1.45-.36-.96-.34-3.31-.67-3.77-.58-.79-5-3.94-5.54-3.44.03,1.36-.93,2.85-.88,4.17.06,1.6.32.86.09,2.78-.11.9,1.03,1.78-.63,1.6l.86.56c.64,3.47-.47,6.81-.9,10.31-.06.1-2.02.47-2.21.37-.17-.08-2.27-2.69-2.36-2.85-.15-.28-.74-3.21-1.06-3.92-.44-.98-2.33-3.83-3.21-3.99-.38-.07-.91.3-1.31.23-.48-.08-.92-.74-1.37-.67-1.92.31-.77,7.1-.88,8.75-.04.62-.54,1.07-.61,1.68-.33,3.13.96,6.24-3.78,6.6-.09-.72-1.09-1.55-1.11-1.65-.3-1.27-.46-4.38-.87-5.83-.84-2.97-3.41-5.88-6.34-6.75.44,1.14-.75,1.36-.88,1.75-.32.91-.03,3.6-.17,4.19-.07.28-.78.18-.85.55-.44,2.2-.16,4.41-1.21,7.04-.8,2-3.77,7.98-6.39,5.14-.37-1.46.43-3.35.34-4.61-.22-3.01-1.74-8.8-3.68-11.32-.44-.58-1.29-1.57-2.08-1.34-.38.11-2.21,4.4-2.42,5.11-.79,2.71-.04,5.77-1.09,8.98-.23.7-1.52.87-1.09,2.5l-1.37.04.43,1.34c-1.31.04-.94,1.49-1.69,2.01-.53.37-3.01,1.07-3.65.87-1.13-.35-1.24-2.38.17-2.57-1.21-1.32-.86-3.85-.94-5.71-.17-3.85.26-5.67-1.39-10.1-2.17-5.85,1.77-12.02,1.3-17.44-.01-.12-.3-.76-.54-1.79-.14-.63-1.27-1.45-.73-2.17.16-.21,1.07.28.87-.52l-.99-.29.48-1.41c-1.78-.97-1.23-3.76-1.02-5.31.16-1.18-.4-3.18,1.86-3.38,2.02-.17,1.57,2.81,1.71,3.16.06.15,2.11,1.49,2.18,1.61.05.1,0,.62.48,1.71,1.47,3.31,1.29,4.47,2.04,7.35.19.73,1.81,2.14,2.28,2.95l-.94.7c2.7-.31,2.03,4.74,4.74,3.47.23-1.98,1.9-3.43.46-5.12l.89-.46c.11-1.24-.81-3.5-.79-3.74.04-.52.78-1.1.76-1.5-.02-.53-1.34-1.15-1.57-1.66-.12-.26.76-1.23.32-2.61-.58-1.83-1.69-3.58-2.56-5.61-.51-1.2.79-1.63-1.29-2.46l.95-.47c-1.38-.74-3.13-2.43-1.08-3.19l-.34-.84c2.44-.42,5.6,1.03,4.75,3.79l1.79.1c.75.79.12,2.07.2,2.2.13.2,1.8.84,2.31,1.72.35.61-.07,1.18.22,1.65.46.74,3.22,3.17,3.38,3.5,1.19,2.39.55,2.21,2.56,4.82,1.02,1.33-.48,1.54,2.34,1.67.27-1.68.62-3.38.75-5.08.12-1.46-.81-3.9.68-4.17-2.06-2.04.02-3.83-2.11-5.74-.93-.83-1.87-1.68-2.59-2.96-.82-1.45-4.56-9.35-3.37-10.53,3.14-.68,4.19,2.06,5.92,3.81.39.39,1.18.32,1.71.81.62.58,4.94,8.26,6.29,10.15.31.43,1.99,3.61,2.22,3.74l2.83-3.56c.23-1.03-1-.38-.99-1.39,0-1.16.76-2.23,1.03-3.33l-.89-.36c-.56-5.19-2.78-10.5-6.43-15.41-.27-.36-1.5-1.04-1.57-1.24-.5-1.23-.33-2.86-1.58-4.13.79.03,1.28-.86,2.05-.86,2.66.01,8.92,9.53,11.66,10.89l-.42,1.34,4.23-.04c-.07-1.4.26-3.18.08-4.5-.12-.89-.93-.6-.99-1-.09-.6.03-4.13-.09-4.31-.15-.22-.88-.29-1.22-.92-2.02-3.69-4.77-8-6.89-10.95-.74-1.03-2.98-1.35-1.8-2.92l-1.38-.99,3.3-1.41c-.37.47.92,2.21,1.05,2.24.4.1.76-.47,1.24-.25.96.44,2.95,2.69,4.03,3.34.92.55,7.58,3.94,7.93,3.67.46-.84-.28-5.68-.71-6.17s-1.26-.3-1.69-.79c-.48-.55-1.73-4.04-2.37-5-1.83-2.75-4.71-5.03-6.34-7.02-.27-.33.94-1.28-1.22-.95l.94-.94-1.82-.08c-.02-1.12-2.17-3.4-.31-3.73,2.07-.37,3.58,1.72,5.29,2.79.61.38,1.77.4,1.99.64.26.29-.02,1.07.11,1.3.05.09,1.78-.44,2.12-.37.14.03,1.22,2.1,2.4.39.14-.21-.3-4.75-.38-5-.24-.73-3.42-3.43-3.52-3.66-.24-.58.36-1.87.08-2.27-.38-.54-1.13,0-1.63-.25-1.65-.83-2.76-3.1-4.77-3.59l.46-1.36c-2.13.44-1.33-1.24-2.05-2.24-.99-1.37-3.19-.7-1.21-3.89,3.95-.39,6.54,1.9,9.65,3.79.44.27,1.1-.02,1.14.04Z"/>
        <path d="M172.91,167.67c.06.12.54.09.76.11v.7c-.18.43-4.24,3.66-4.91,4.55-2.25,2.94-5.06,6.68-7.26,8.97-.4.42-2.13,1.67-2.24,1.9-.23.47-.96,4.85-.76,5.23l2.88-.2.69-1.73c2.81.88,1.66,0,2.89-.86,1.17-.82,3-.95,3.74-2.45,4.07,2.1,1.34,2.94-.06,4.88-2.85,3.95-6.34,8.98-9.69,12.57-.54.58.02,1.97-1.87,1.55l-.32,4.53c.75,1.33,2.53,1.08,3.75.64.57-.2.09-1.52,1.79-.43v-1.44s1.15.48,1.15.48c-.09-.87,1.93-1.02,2.06-1.12.67-.53,1.33-1.9,2.03-2.43,1.45-1.1,3.39-1.92,4.73-3.31,1.22.05,2.88.69,2.57,2.11-.25,1.12-1.21,1.62-1.45,2.03-3.57,6.32-7.85,8.78-10.33,17.12-.59,1.99-1.59,2.8-.72,5.15l1.4,1.81c-.19-1.97,1.95-2.24,3.14-3.49,2.91-3.08,5.87-7.19,9.05-9.47.35-.25.45-1.13.84-1.18l3.11,1.58c.17.4-.74,0-.93.57-2.95,8.67-11.17,16.37-9.3,26.18.25,1.34-.54,2.19,1.46,3.38,1.33-1.63,1.81-3.61,3.34-5.21,1-1.04.54.1,1.61-1.67,3.25-5.36,4.63-6.14,8.38-10.33.13-.14-.26-.85.16-1.07.82-.43,1.85.17,2.18-1.19l1.44.49c.1,1.36.2,2.72-.74,3.79l.95.47c-1.79.09-1.4,1.88-2,2.98-3.96,7.28-5.74,6.82-5.21,16.13.07,1.2-.63,3.24.7,4.48,1.56,1.45,4.91-2.4,4.67-4.09l1.3-.08-.15-.92,1.16-.47-.93-.68c.2-1.14,1.06-1.49,1.24-1.82,1.88-3.47,3.36-4.74,5.54-7.96.38-.56.96-2.96,1.38-3.2l3.22-.1c-.28.69.48,2.59.39,2.77-.06.12-2.05,1.37-2.15,1.62-.35.88-.14,3.57-.73,4.06-.3.25-1.15-.02-1.3.1-.14.12.29.84.21,1.14-1.13,3.98-1.48,7.35-1.16,11.4.08,1.05.51,5.78,1.24,5.97,2.3.61,5.35-5.41,5.71-7.47.13-.72-.37-1.84-.21-2.22.25-.59,1.03-.6,1.31-1.15.89-1.74,1.26-2.89,2.26-4.71.76-1.38,1.55-2.66,1.99-4.19l1.45-.21c-.08,1.36,1.4,3.48,1.4,4.51,0,.64-.92,2.9-1.1,3.81-.66,3.22-1,4.63-1.03,8.08-.03,4.3,3.76,11.46,1.67,15.98-.26.57-1.01.51-1.22,1.06-.64,1.67.51,10.18.19,12.84-.07.59-.84,3.51-1.14,3.59-2.2.56-4.14-.99-5.29-2.75-2.31-3.5-2.65-7.35-3.06-11.15-.02-.19-.78-2.71-.94-3.33-.13-.5-1.66-2.62-2.08-2.71-.45,0-2.5,2.06-2.57,2.21-.5.99-.25,2.11-.51,2.63-.34.68-1.69,2.05-2.01,3.21-.37,1.36-.03,8.09-.38,8.48-1.39,1.54-5.58-1.94-6.08-3.17-.44-1.09-.02-2.11-.14-2.72-.13-.68-1.74-4.06-1.78-4.32-.24-1.63.39-4.47-.43-6.15-.57-1.17-1.84-1.06-1.49-2.58-1.1,2.04-2.67.57-3.82,2.59-.74,1.31.17,2.52-1.85,2.18l-.97,10.52c-1.3,1.46-1.83.65-2.81-.41-.44-.48-3.03-7.37-2.8-7.71.08-.12.72.02.78-.28.09-.45-.97-8.77-1.34-9.05-1.78-.28-3.29-.17-4.97.41-.33.12-.09,1.11-1.15.36-.57.78-.42,2.45-.58,2.97-.12.39-.79.27-.88.65-.37,1.52.29,7.03-3.1,4.93-3.48-2.15-2.15-10.76-1.86-14.27.1-1.21-.88-1.7.7-2.15-.7-1.18-.9-1.69-.5-3.08-2.84-.63-3.29,1.05-4.93,2.68-.26.26-.97.04-1.27.46-.84,1.15-1.11,4.65-1.5,5.3-.16.26-.99.33-1.33.8-.16.22-1.37,2.74-1.64,2.63-.38-.48-1.18-.91-1.42-1.43-1.64-3.65-.94-6.71-2.13-10.19.23-.47,1.15-.52,1.31-.78.24-.37.43-5.63.61-6.27.1-.35.84-.25.9-.6.08-.48-.48-2.22-.33-2.78.07-.26,2.86-2.68-.13-2.41-3.38.31-2.69,2.35-5.16,3.85l-2.73-1.44c-.22-1.01.63-2.62.59-3.33s-.65-1.25-.64-2.57c.01-1.76,1.47-3.34,1.59-4.28.21-1.6-1.14-3.1,1.14-3.36-2.12-2.37.13-3.03.29-4.01.07-.42-.51-1.43-.28-1.67.05-.05.79.11,1.4-.34,1.65-1.24,1.42-4.38,3.81-4.89l-1.65-1.42c-5.58,4.88-4.88,2.33-4.22-2.84.6-4.68.52-6.54,3.4-10.06.16-.19-.19-4.03.11-4.36,2.94-3.49,2.52-10.2,4.38-14.24.34-.73,1.14-.65,1.24-.82.13-.2-.53-.8-.32-1.26,2.21-4.84,5.83-9.13,9.7-13.1,1.35-1.39,2.78-2.62,4.56-3.8,3.63-2.39,4.92-2.97,9.06-3.61.14-.02.41-1.24,2.45-.95,1.48.21.67.89.89,1.32Z"/>
      </g>
      <path d="M374.38,37.8c.48.67-.85,7.66-3.29,6.59-.43-2.84.59-4.85,1.42-7.12l1.87.53Z"/>
      <path d="M52.55,39.76c.96,1.03.48,2.6-.36,3.49-.66.7-1.37-.14-1.66,1.13-2.49-.89.21-6.57,2.01-4.63Z"/>
      <g>
        <path d="M221.07,64.88c-.61,1.09.08,3.21-.15,3.94-.19.6-.92,1.17-1.32,1.82-.28.45-.2,1.33-.47,1.64-.15.18-3.62,1.83-4.17,1.53-.37,6.09,7.74,8.02,9.03,1.43l2.62,1.41c.28,2.77-2.93,3.76-3.9,4.92-.4.48-.77,2.35-1.19,2.59-.51.3-5.2-.93-6.72-.69-1.09.17-2.01,1.14-3.31,1.12-1.1-.02-3.58-.99-4.78-.78-.32.06-.3.74-.39.76-2.43.51-2.82.55-4.45-1.47-1.46-1.81-.89-1.47-2.79-3.09-1.75-1.49-2.77-4.48.08-4.7,1.07-.08,2.5,4.27,4.68,4.26.85,0,.67-.81.79-.84.33-.1.83.29,1.28.07,1.96-.94,1.62-2.4,3.36-3.31-1.08-1.7-4.03-1.57-3.33-4.01l-2.16-.47c-.48-2.55-1.54-5.41.28-7.76.39-.5,3.02-1.52,3.29-2.95,3.12.57,6.53-.32,9.51.94,2.06.87,2.36,2.74,4.2,3.65Z"/>
        <path d="M190.12,54.7c-.35.7-2.79,1.47-2.21,2.97l-1.36-.45c-.58,2.88-2.65-.27-3.15,1.88l-.7-.02c.2-1.2-1.21-.83-1.66-1.4-2.49-3.13.91-9.18,4.82-9.38,2.02-.1,4.81,5.31,4.26,6.41Z"/>
        <path d="M239.51,49.76c.5.67-.59,1.23,1.32,1.22l1.2,4.03-4.92,3.04-4.36-3.67c.26-1.64-.19-3.73,1.4-4.79,1.22-.82,4.37-1.12,5.35.18Z"/>
      </g>
    </g>
  </g>
</svg>