<?xml version="1.0" encoding="UTF-8"?>
<svg id="_Слой_2" data-name="Слой 2" xmlns="http://www.w3.org/2000/svg" viewBox="0 0 207.24 318.83">
  <g id="_Котёнок" data-name="Котёнок">
    <g>
      <path d="M9.68,107.7l-.88-1.33c3.84,1.21,5.49-3.44,8.8-1.9.81.38,1.41,1.6,1.88,2.34l-1.74.05c.27,1.79-1.62,2.04-1.31,3.2.43,1.6,1.61,2.88,3.29,2.99,1.45.09-.06-1.13.2-1.32.13-.09.87.2,1.23-.11.52-.43,1.09-3.24,2.08-3.94l4.43-.82.71,1.04-.88,4.93.89-.22-.45,1.78h1.34s-.89.89-.89.89c2.49-.41,1.43.57,1.87,1.21.87,1.27,3.36.08,4.11.1.35,0,.03,1.48,1.14.91l-.32-.8.71-.29c-.96-1.56.19-.66.5-1.57l-.88-.21c.85-1.22,1.1-3.01-.45-3.58.82-1.99,6.29-.82,4.9,1.54,1.28.26,2.69.81,3.01,2.12.29,1.19-.48,2.18.99,2.57l-.02.66c-2.7.63-.32,3.04-1.77,4.9,1.1.15,1.14.04,1.53-.84l1.14.4-.45-.88c2.17-.9,1.88.27,3.55.46-1.23,1.79,1.43,4.67,1.37,5.54-.01.21-.86.19-.91.49-.19,1.26.55,4.08-.86,5.66-.43.48-1.28.31-1.62.74-.26.33.16,1.04,0,1.37-.46.97-2.36,1.5-2.78,1.81-.07.05.15,1.25-.52,1.7,1.25,1.13,2.65.78,4.27.1.13-.05,2.22-1.42,2.3-1.53.18-.25-.02-.92.19-1.12.26-.24.91,0,1.15-.15.11-.07.07-2.26.32-2.6s1.09-.35,1.12-.72c.04-.43-.65-1.33-.5-2.11.08-.38.98-.48,1.32-1.01.85-1.3,1.2-4.54,3.45-1.85.09.11-.21.51-.13.65.74,1.23,1.86,2,1.89,3.93.03,1.82-2.6,7.65-5.17,5.99l1.75,3.33c3.11.33,2.79-1.46,3.81-2.45.43-.42,1.21-.32,1.45-.55.59-.57,0-2.06.21-2.45.07-.13.64-.18.78-.44.6-1.15.89-2.39,2.02-3.24l2.38,2.76.09,5.86-.91.48c1.09,1.39.65,2.81.36,4.4l-5.2,4.39.39,1.7c1.52-1.01,1.02.17,1.97.48,1.53.5,3.15.12,4.7.4-2.71-2.36.19-4.04,1-5.91.3-.7-.09-2.08.99-2.96.21-1.32.77-9.51,1.19-9.77,2.25-1.38,3.82,1.9,4.82,3.3l-.88.86.9,1.35-.85.4c-.02,1.71,1.3,2.11,1.28,2.25-.08.6-.71,3.11-1.27,3.11l.4,1.14c-1.11-.79-.7.41-1.77.45l.88.66c-1.69.62-.91,1.24-1.04,1.46-.21.38-1.26,1-.82,2.26l-3.03.96c-1.09,1.53,3.75,1.49,4.57,1.31.19-.04,3.07-2.06,3.2-2.2,2.02-2.24,2.2-7.26,2.98-10.17,1.51-.58,2.46-.06,3.87.43-.5,1.73.65,4.88.41,6.28-.32,1.88-5.24,8.36-6.9,9.13-.86.4-2.06.39-3.11.91-1.22.6-2.28,2.48-3.69,1.87-.79,3,2.39,3.25,4.67,3.15,3.44-.16,6.24-2.62,9.31-3.58.84,1.31,1.73,1.98,1.38,3.55l-1.12-.45c.29,2.69-.36,1.37-1.44,1.79-.42.17-.34.8-.65.87-1.07.26-3.89-.46-5.27-.36l-.3.66-.76-.28c.22,1.85-1.15,1.43-1.67,1.9-.37.33-.43.93-.8,1.24-.21.18-2.04.12-1.91,1.97s5.41,1.2,6.7,1.55l.32,1.11-3.13,1.12.46.88h-1.35s.45.88.45.88l-3.1,1.37.33.77c-1.54.62-1.45,3.12-2.37,4.54l1.13.89c-.14-1.6.82-.41,1.48-.58.92-.24,1.38-.86,2.75-.96.5-.04,3.91-.14,3.34,1.1-1.19-.9-1.5,1.36-2.64,1.61-.77.17-1.54-.25-1.74-.18-.14.05-1.63,1.98-1.87,2.33-.88,1.27-.25,2.48-2.24,2.74l.04,2.39.88-.88c-.09,1.82,3.2.57,4.59.57.52,0,3.26,0,2.97.96-.2.74-3.24,3.15-4.02,3.56-1.74.92-4.91.37-5.32,3.81l-.87-.44-.49,2.83c2.85,1.96,5.28-3.31,8.5-1.94.2,3.16-2.66,2.85-3.12,5.34l-.44-.89c-.74-.62-1.51,5.39-2.22,5.57,1.41-.09-.06,1.43,1.12,1.12,1.79-.47,2.53-2.48,4.64-1.32.28,3.36-1.92,3.43-3.75,4.87-1.31,1.03-2.18,2.41-3.8,2.9l.88.66c-1.18-.04-1.11,1.54-1.78,2.23,1.78.34,3.31-.08,2.69,2.38-.27,1.07-2.33.21-2.85.36-1.61.46-1.45,3.2-2.08,4.53-.13.27-.82.27-.89.62-.17.86.18,1.94.52,2.75l1.72.28-3.88,5.82,3.37,2.25c.31,2.44-1.6,3.86-1.3,6.2.06.49,1.52,1.43,1.14,2.91l1.14.19c.06,1.82-1.17,2.85-1.23,3.12-.18.76.32,2.6-.51,3.59l1.07,1.52.44-.89.23,1.78c.11.12,1.81-.69,2.24.33.07.16.72,3.27.7,3.44-.05.42-.72.75-.64,1.26.12.69,1.52,1.44.42,2.79l.85.46-.35,1,.81.31c-1.21,1.69.72,3.2.33,4.89-.09.37-.73.13-.79.21-.67.91.76.85.8,1.09.04.22.01,4.19-.05,4.4-.23.81-3.69,5.45-4.62,5.99-2.85,1.66-4.46.6-6.51,1.14-.62.17-1.07.82-1.65,1-.69.22-1.16-.18-2.01.16-1.33.55-5.4,5.42-4.9,6.69.94,2.36,2.61,1.74,4.24,2.68-.15-.84,2.2-3.84,2.8-4.14.81-.4,2.41.13,2.5.05.2-.19-.26-.99.49-.8-.01,1.87,2.36.33,3.11,1.55-.37,1.72-2.33,1.9-2.99,2.6-.48.5-1.05,3.05-2.79,2.53,1.07,1.62-.34,1.19-.45,1.63-.1.41.37,4.29.55,4.73.35.84,2.57,1.78,2.58,2.98h.43c-.27-1.61,1.59-.2,2.56-1,.63-.52.74-2.5,1.14-2.9.31-.31,2.49-1,2.78-2.34h.88s.42.84.42.84c2.25-1.1,1.5.6,2.3,1.71.91,1.28,2.56,1.34,1.51,3.69,7.31,1.71,6.12-3.44,7.13-8.46.76.38,2.51.24,3.01.55.46.29.39,1.8,1.8,1.38l.52.74-.08-2.02-.8-.64.82-.2c-.18-1.16-.45-3.32-.32-4.42.2-1.58,1.24-2.71.82-4.06l.89.22-.45-1.33c2.02.7.76-2.09,2.45-1.34,1.21.54.64,4.86,3.12,5.33,1.29-.12,2.74-8.73.73-9.55l.39-1.12c-1.83.88-1.93-3.64-1.84-4.69.07-.83.79-.63.83-.73.13-.31-.74-1.71.56-2.58-1.58.04-1.05-1.26-1.38-1.88-.4-.73-1.76-1.05-.42-2.84l1.8-.18.04,1.28c.85-.9,2.85,2.95,3.04,3.5.58,1.66.48,3.37.48,4.75,0,.27.67.21.78.48.43,1.07.86,2.61,1.03,3.78h2.66c-.78-1.72.92-5.74.37-7.34-.04-.12-.96-1.01-1.35-2.16-1.29-3.85-5.39-9.92-8.2-12.47-.39-.35-1.52-1.4-1.52-1.87.88-1.08.89-2.37,2.47-2.38,2.05-.01,1.39,1.46,1.61,1.65.26.22,1.08-.08,1.61.18.2.1,3.09,2.88,3.17,3.09.14.4-.32.81-.3,1.03,0,.11,1.11,1.09,1.14,1.18.19.5-.44.11.38,1.46.44.73-.07,1.45,1.53,1.14-1.16,1.69,1.74,3.13,2.68,1.44.22-.86.28-2.03-.05-2.86-.15-.37-.7-.43-.81-.72-.68-1.89-.51-3.81-1.83-5.21l.89-.42c-.16-.76-1.29-3.05-1.31-3.6-.06-1.36.73-4.52.65-5.78-.11-1.65-1.55-3.68-1.79-4.9-.08-.41.43-1.3.21-1.52-.18-.18-1.92.11-1.77-1.36-1.51-.22-.25,1.4-2.24.69-.25-.09-2.39-1.18-2.53-1.29-.15-.12-.11-.68-.31-1-.29-.46-1.61-.55-.05-2,2.33-2.18,5.49,3.43,7.59,4.04l.27-.81.99.34c1.85-1.35.5-1.41.51-2.86,0-.78.63-3.11.56-3.27-.02-.05-.66-.11-.75-.41-.86-2.89.05-2.48-3.13-3.92.34-3.04,3.06-1.42,4.08.58,1.39-.69.43.1.94.83.78,1.12,4.65,3.21,4.91,3.83,1.17,2.75-1.45,3.82-2.07,6.14-1.16,4.28,2.11,3.57,3.5,5.8.26.42-.21.93-.1,1.23.03.09.63.07.71.37.15.55-.44,2.46-.21,2.86s.97.05,1.16.22c.3.27,1.55,2.56,2.3,3.18.16.13.75-.33,1.03.12.06.09.3.99.63,1.69.43.91-.59,1.54,1.72,1.98.14,2.51.73,1.25,1.31,1.77.38.35.2,2.09,2.14,2.03,1.37-2.28,2.76-2.22,5.03-1.17.07,1.44-.2,3.69.16,4.97.4,1.43,3.21,2.59,2.13,4.32l3.14-.69c1.01,2.87,3.1,2.06,2.45,5.62-.44,2.43-2.65,2.19-4.58,1.41-1.21-.49-6.88-5.23-7.84-6.3-.5-.56-.22-1.28-.3-1.37-.04-.05-.73.47-1.3.23-1.42-.58-2.54-2.63-3.39-3.35-.68-.57-3.36-1.66-4.33-2.03-4.13-1.57-3.1,2.36-3.47,5.31-.17,1.33-1.33,1.63.03,2.94-1.69-.14-.59,2.43-.89,3.72-.04.16-1.26,1.79-1.41,2.23-1.39,3.98-2.11,4.46-4.55,7.23-2.9,3.3-5.17,7.62-7.79,10.59-.51.58-1.8-.22-1.38,1.62l-.88-.45c-.24.8.02,4.01-.21,4.45-.53,1.01-2.04.35-1.33,2.24l-1.58.66.89.44c-1.66,2.27-3.13,3.54-5.82,4.41-.94.3-1.47.68-1.57.69-.98.15-3.97-.47-4.86-.35-.27.04-.15.69-.49.78-1.48.39-3.32-1.28-4.52-1.65-.64-.2-5.33-1.03-5.62-1s-.5,1.37-1.92,1.69c-.63.15-5.04.17-5.59,0s-.88-.86-1.22-.95c-1.03-.28-3-.32-3.76-1.19-.53-.6-.74-1.61-1.15-2.34-.16-.28-.83-.29-.89-.63-.18-1,.45-1.86.41-2.61,0-.15-.87-2.66-.96-2.78-.22-.27-2.73-1.06-2.96-1.23-.74-.53-3.22-3.21-3.56-4.04-.53-1.27-.29-3.01-.63-4.08-.03-.09-.74-.08-.77-.36-.05-.49.48-1.07.36-1.42-.04-.13-1.68-1.65-1.77-2.22-2.59.86-3.54-2.24-5.28-3.84-1.15-1.06-3.1-1.02-2.19-2.94l-.88.45c.84-1.66-.23-1.26-.29-1.44-.09-.24.21-.56.12-.67-.98-1.27-1.97-.65-2.41-1.1-.37-.38-1.59-2.92-1.95-3.38-.07-.09-.66.21-.81.06-1.13-1.24-2.54-2.67-2.16-4.41.16-.75.54-.94.82-1.53-1.3.46-1.93-1.49-2.41-2.64-.11-.27.21-.86.15-.89-.22-.14-.88.19-1.34-.31-1.09-1.18-.26-3.88-1.76-5.29,1.68-.44.51-1.33.68-2.23.28-1.49,2.78-4.24,4.13-5,1.8-1.02,8.19-3.02,9.99-2.31.32.12.3.68.58.75,1.23.32,4.14-.78,5.79.54.65.52,1.08,1.65,1.17,1.71.16.1.89-.54,1.52.02.37.33,2.09,3.01,1.98,3.62l.88-.88,3.69,5.66c2.02.66,4.53,1.71,5.99,3.35.1.11-.27.56-.19.68.58.85,2.45,1.31,1.21,3.22l1.33-.45,1.79,4.46.49-.82.84.38c-.46-1.44.86-2.06,1.14-2.9.24-.72-.57-2.39.2-3.33l-1.33.45-.04-1.3c-1.27.64-1.03-.62-1.35-.87-.22-.18-3.38,1.99-2.2-2.5.42-1.59,1.57-2.69,1.19-4.41-.28-1.26-2.73-2.98-2.87-4.59-.08-.91,1.2-1.29,1.5-1.94.44-.93-.19-1.94.12-2.92.29-.9,1.04-.35.98-1.07l-3.52-.04c-1.35-3.17,1.77-5.31,1.56-8.21-.09-1.24-1.76-1.95-1.86-2.64-.06-.38.2-4.31.29-4.9.23-1.44,2.97-3.51,3.1-5.4.01-.23-.86-3.52-.99-3.66-.19-.22-.9-.12-1.2-.34-1.29-.89.32-1.27.58-1.97.41-1.13.62-2.8,1.2-4.11.29-.64,1.14.05.48-1.62l.82-.08c-1.38-.69-1.27-2.92-1.4-3.05-.28-.3-1.49-.3-1.69-.56s-.08-6.14.87-6.41c-2.03-.65.09-2.98.28-4.84.02-.23-.22-4.23-.28-4.45-.08-.33-.85-.34-.9-.5-.33-1.26.67-1.04.76-1.2.13-.26-.39-.77.09-1.49.63-.96,1.78-.86,2.17-1.24.19-.19.06-.77.25-1.03.28-.38.96-.38,1.14-.9.56-1.61-1.31-3.57-1.07-4.65.04-.19,1.36-3.09,1.6-3.62.27-.59,1.6-1.96,2.03-2.68.2-.34-1.11-1.01,1.04-.78l-.89-.88.92-.25-.5-1.29.91-.25-1.76-2.03.88-.86c-1.84-.2-.71-3.67-.9-3.78-.17-.1-.94.17-1.23-.08-.22-.19-.29-1.33-.59-1.88-.71-1.25-3.01-4.27-.85-4.73l-.21-.44c-1-1.19-2.01-.48-2.91-.72-1.73-.46-2.62-1.18-3.88-1.96-.91-.56-2.77-1.19-3.36-1.75s-.76-2.21-1.33-2.57c-.4-.26-1.2-.1-1.89-.56-1.28-.85-2.3-2.61-2.95-3.07-.16-.11-1.71.85-2.42.83-.47-.01-2.5-2.7-2.89-3.34-1.08-1.78-.47-2.94-.87-4.81-.08-.36-.76-.36-.88-.62-1.02-2.37-.58-4.53-1.21-6.7-.07-.25-1.75-1.98-1.88-2.26-.58-1.22-.88-4.26-1.01-4.46-.42-.66-3.03-1.59-3.79-1.99-.27-.15-.34-1-.76-1.07-.46-.07-1.42.42-2.6.23-2.36-.39-2.29-2.83-4.78-2.59l.88-.88c-1.37-.38-3.78-1.92-4.46-3.12l-.66.88c-1.12-.49-2.61-1.88-3.77-2.01-.62-.07-.98.6-1.59.67-2.55.31-3.48-3.9-5.1-5.07l.44-6.06ZM2.48,103.13c-.44,0-.61-1.93-.61-1.93,0,0-1.58-1.93-1.84-2.19s1.93-3.77,1.93-3.77l1.67-4.65s1.75-2.28,1.84-2.89,3.86-3.16,4.12-3.42,5.96-.96,5.96-.96l3.51-.7,7.01-2.56,12.95,4.14.05,1.27c1.41-1.01,2.88,1.42,4.23,2.11.52.27,3.27,1,3.74,1.23,1.1.52,2.79,2.95,3.67,4.16,1.19-1.21,1.79,2.78,2.21,3.12.39.32,1.58-.18,2.1.13.25.15.39,1.87,1.17,2.1.46-.9,1.65-.32,1.9-.47.21-.13.3-.77.59-.97,1.8-1.23,3.03-2.39,4.64-3.84l.66.89c.02-.49-.18-1.02.28-1.4.79-.65,6.35.24,7.43-.02.96-.23,2.32-2.56,3.87-2.14.26,1.67-1.62.86-2.11,1.44l-1,2.11c1.71-.03,2.02,3.41.9,4.24l2.44,2,.66-.88.92,1.13c-.16,1.41-5.07,5.16-6.06,5.01-1.6-1.56-2.71-3.52-3.32-5.71-2.21.93-3.87.5-3.55,3.57l.88-.45c-.89,1.86.23,1.02.59,1.88.82,1.93,1.43,6.19.82,8.21-.17.57-.71.58-.82.85-.33.79-.46,4.31-2.22,1.62-.43-.65-1.41-1.58-1.44-1.69-.28-1,1.35-2.69-.75-4.13-1.99-1.36-1.82.14-2.28.38-3.62,1.9-3.19-.12-4.67-3.26-.77-1.63-.97-1.22-1.43-2.05-.23-.41.21-1.73-.39-2.56-.73-1.03-3.87-2.4-4.38-3-.2-.23-.23-2-.96-2.79-.22-.24-.86-.05-1.22-.43-.87-.94-1.75-3.46-3.07-2.85l-.03-1.3c-2.01,1.21-1.73-.38-2.55-.9-2.52-1.62-5.62-1.62-8.32-2.25-1.36-.32-4.15-1.58-5.4-1.73-.18-.02-.16.73-.54.84-3.44,1.06-6.47,1.39-9.69,2.36-.23.07-.13.65-.5.75-.65.17-2.81-.1-3.51.44-.74.57-2.1,3.48-3,3.94-.6.31-1.38-.02-1.68.12-.07.03.3.82.09,1.6-.39,1.44-1.19,2.59-1.51,3.48,0,0-3.57,2.81-4.01,2.81ZM24.37,78.76c.16-.14-.36-1.07.44-.89M207.24,98.67c-1.45-.84-.46,1.6-2.13,1.47l.88,1.11-1.29.73.42,1.49-1.34.23.88,1.1-1.78.23.35.8c-1.74.37-1.09,2.58-1.49,3.61-.96,2.43-3.94,5.12-5.86,6.25-4.16,2.45-5.48,2.54-10.11,2.68-.27,0-.22.87-.53.93-.72.14-1.61-.45-2.51-.38-2.54.2-5.4,2.26-5.67,4.81l-.87-.43c.31,1.24-1.2,2.21-1.32,2.56-1.44,4.28,1.23,9.39-1,13.4l-.82-.38c.86,1.9-.09,1.08-.63,1.76-.22.28.04,1-.29,1.5-1.1,1.65-4.28,5.09-5.34,5.83-.37.26-.87.27-1.31.27l.45.87-4.9.9,1.35,9.1-.91.47c2.3.94,0,1.62.03,1.75.07.59.69,1.49.76,2.37.1,1.17-.48,1.97.11,3.44s2.48,1.4,3.48,4.57c.39,1.23.53,1.59.92,2.69.52,1.47.25,4.04,1.83,4.11l-.89.44.91,1.57c.22.75-.79.57-.89.94-.04.15-.02,3.08.07,3.21.14.21,1.16.31,1.5.97.32.61-.18,1.32,0,1.79.22.58,1.52,1.19,1.73,1.74.3.79-1.55,4.21.63,5.11l-.4,4.43-.87.71c1.5-.23.15,1.51,1.46,2.55.52.42,2.57.7,2.54,1.24,0,.14-.92.61-.81,1.25.05.33.7.78.8,1.44.26,1.65-.06,5.56,1.79,6l-.88,1.32.93.27-.52,1.72.89.44c-.93,2-1.73,4.78.47,5.82l-.89.66.81.09c.18,2.67.69,4.09-1.26,6.39,2.52,1-.4,3.37-.38,4.43.02,1.31,2.42,4.17.39,4.25v.43c1.57-.21.66,2.34,0,3.11l.88.23c-1.33.76-.13,1.98-.49,3.06-.21.65-1.99.66-1.3,2.51l-.88-.45c-.22.24-.92,5.88-.82,6.46.06.33.86.32,1.17.97,1.02,2.14.84,5.35,2.76,7.05-2,.92.08,3.36.53,4.84.37,1.2-.05,3.28.15,4.49.12.75.98,1.5,1,2.33.02.63-.83,2.96-1.71,3.07l.47,1.52h-1.34c.57,1,.48,1.71.34,2.78-.08.58-1.04,2.51-1.38,3.32-.07.17-.81.13-.74.34.11.35.76.78.75,1.35,0,.7-1.49,1.81-1.2,2.9l-1.33-.45.44,1.33c-2.03-.39-3.42,1.47-5.35,2.02-.59.17-1.26-.28-1.3-.23-.09.1,0,1.15-.66,1.82-.13.13-3.07,1.59-3.25,1.64-.57.17-1.05-.31-2.04.13s-2.63,1.85-2.54,3.07l-.88-.88c.25,1.1-1.01.73-1.24,1-.25.29,0,1.03-.14,1.16-.13.12-2.87.66-3.05.52.19,1.86-2.03,2.86-2.71,3.87-.43.64-.43,1.76-.93,2.53-.18.28-2.09,2.1-2.14,2.34-.12.67.75,2.47.21,3.28h-1.57c.81,1.95-.25,1.74-.29,1.88-.08.25.22.57.13.68-.68.87-1.87,1.72-2.96,1,.97,3.57-4.17,3.66-6.21,2.25.47,1.65-3.28.14-3.15-.91h-.43c.22,1.46-1.76.98-2.16,1.44l-.09,1.22-5.03.49-.29-.91-.44.57c-1.08,1.04-1.92-.3-1.78-1.47l-1.12.39c-.37-.91-.68-.96-1.69-.81l-.31-1.36-.88.88-.46-1.77-.88.88c-.83-2.41-2.6-1.62-4.25-3.55-.5-.59-1.6-2.76-2.08-2.98-.21-.1-.76.27-1.2.06-1.37-.64-2.56-2.57-2.97-3.99-.67-2.34,1.07-5.9.64-8.49l-.83-.41c1.06-1.01,1.21-3.62,1.92-4.55.41-.54,2.37-1.31,3.08-1.91,3.68-3.15,2.6-3.15,7.17-4.51.4-.12.15-.9.94-.89,1,0,4.38,1.6,4.67,2.52.21.7-2.48,3.57-3.22,3.88-1.15.48-3.52-.09-4.98,1.19-1.87,1.64-4.3,4.58-4.61,6.92-.02.16-.01,3.07.05,3.21.02.05.47.19.72.51.66.87.2,1.84,2.42,1.42.98-.37,1.32-3.02,1.44-3.15.32-.36,1.38-.51,2.09-1.33.42-.48.44-1.33.76-1.55.82-.56,5.83-1.23,4.92,1.13l.88-.45c.52,1.77.32,3.36-.43,5.04-.13.29-.8.29-.83.35-.23.41,1.43,1.63-.95,1.29l1.34.44-1.33,1.55c1.2.64.33,1.49.44,2.14.06.31.6.32.71.51.22.39.14.94.46,1.17,3.91,2.95,4.41-3.21,5.81-5.71.23-.41.7-.47.86-.66.11-.14-.13-.63,0-.77,1.24-1.46,3.23-.33,4.01,1.09l-.73,4.02.68-.14.21.82-.88.44c2,1.85,3.89,1.67,5.65-.55.09-.11-.24-.5-.16-.66.06-.13.65-.15.83-.73.39-1.28.18-4.34.84-5.33.37-.55,1.11-.76,1.48-1.22,1.94-2.39,1.27-2.77,5.17-2.19l-.38-.82c1.91-.43.67-1.45.78-2.97.08-1.04,1.04-2.13.95-3.33.85.13,2.27.79,2.3-.31l.8.31.47-2.87-.91-.47,1.34-.89c-2.43.03-1.37-3.45.88-3.34l.22,1.34,3.79-1.56-.87-.5c0-2.53-.37-4.07.09-6.64.04-.24.66-.15.71-.43.25-1.47-1.32-5.27.94-5.64-.83-1.81.3-1.11.63-1.71.49-.88.24-2.49,1.63-2.9-2.78-1.89-.36-4.04-1.07-5.82-.21-.52-.84-.5-1-.74-.52-.8-.52-.69-1-1.31-.26-.33.54-1.05.3-1.6-.04-.08-.48-.1-.6-.3-.81-1.33-4.31-3.79-4.57-4.32-.11-.23.47-.75.29-1.17-.94-2.21-4.41-3.2-5.04-4.1-.29-.42-.1-1.19-.38-1.64-.79-1.24-2.96-.88-2.51-3.26.42-.56,3.28.49,3.88.79,1.11.55,2.59,1.96,3.62,2.65.58.39,1.29.15,1.33.2.1.12,1.56,2.42,1.62,2.57.17.42-.35,1.22-.2,1.34.13.11.9-.16,1.21.1.24.2.22,1.02.55,1.46,1.02,1.35,1.75,1.5,1.76,3.57l4.49.43c.09-1.51-1.6-2.81-1.66-2.98-.14-.42.43-2.05-.27-3.34-.29-.54-2.2-1.74-2.72-2.38-1.2-1.46-2.31-3.01-3.52-4.49-1.31-1.6-.54-2.16-3.86-1.74l.45-.88-3.91-.55-2.78-6.58-.87.44c-.4-2.07-.28-3.63-1.38-5.54l.92-.69c-1.91.36-1.46-1.27-1.9-1.68-.36-.33-1.61.38-1.22-1.43l-.87.44c.09-2.1-3.33-2.67-4.1-4.8-1.09,1.02-1.31-1.99-1.27-3,.1-2,2.15-1.95,3.17-.44.29.43-.02,1.02.03,1.05.43.34,2.81.58,3.38,1.09.1.09.92,2.01,1.15,2.36.24.37,1.02.44,1.15.9.26.91.1,2.07,1.04,3.62.38.62,1.81.17.77,2.34,1.25-.08,2.77,1.01,1.78,2.23.7-.39,3.21,1.96,3.44,2.36.7,1.18,1.38,2.66,2.96,3.7,1.62,1.07,3.41.61,4.25,2.63l1.81-.25c-.57-.78-.33-2.72-.5-3.25-.09-.31-1.83-1.82-1.36-3.34-2.51-.18-5.79-.38-7.68-2.3-.12-.12.12-.54,0-.77-.06-.11-.64-.08-.69-.42-.13-.86.12-3.29.03-3.86-.02-.16-1.7-1.57-1.9-2.26-.34-1.22.45-3.68-1.66-2.95l-.93-3.11c-1.26.95-2.57-.53-1.78-1.78l-.89.22c.1-1.21.39-2.64,1.99-2.46.26.03.24.7.56.92,1.16.82,1.55,1.51,2.71,1.87l.09,1.25,1.33-.45c-.1,1.2.46,2.25,1.01,3.25,1.7,3.06,4.15,4.97,7.75,5.82l3.27,3.4c1.04-.32.59-2.3.73-3.13.05-.29.74-.6.59-.86-.02-.04-.58.13-.85-.35-.56-.99-.41-2.66-.53-2.74-.16-.11-.79.06-1.12-.19-2.21-1.66-3.63-2.12-5.67-3.5s-2.64-3.56-3.62-5.15c-1.37-2.21-3.46-5.55-5.41-7.15-2.55-2.1-5.41-3.5-7.82-5.13-.9-.61-2.99-.82-2.57-2.3,1.91-1.58,5.42-.94,7.31.27.53.34.61,1.25,1,1.31.67.11,2.12-.77,3.14.09.66.55.98,2.65,1.15,2.9.75,1.1,5.04,3.87,5.56,4.63.08.12-.35.61-.28.73.17.24,1.41.53,1.7,1.2l-1.33.66c2.39-.25.81.61.89,1.52.02.23.57.25.7.46,1.03,1.62.91.78,1.41,1.26.27.25-.02.95.38,1.26,1.3.99,4.63.55,4.64-1.15,0-.18-2.37-1.94-1.79-2.9-.77,1.08-2.73-1.11-3.24-1.89-1.29-2-1.02-4.61-1.22-4.76-.15-.11-.87.17-1.21-.12-.83-.69-.89-3.31-1.41-4.16-.89-1.44-4.77-1.81-3.15-4.19-1.57-.04-4.25-.24-4.03-2.22-1.24-.12-7.05-.81-7.88-1.18-.58-.26-.61-.91-.99-1.2-.29-.22-2.08-.26-1.75-1.81.25-1.17,5.95-1.77,7.08-1.42.82.26,8.06,3.58,8.37,3.94.22.27.08.85.1,1.21,1.68-.71,2.93,2.29,4.2,3.14.85.57,2.15.05,2.05,1.29,1.3-.71,2.53-1.46,2.67-3.08l.86.44.23-1.8c-1-1.77-4.94-1.12-5.1-1.34-.12-.15.15-.88-.12-1.21-.17-.2-.84-.08-1.04-.27-2.39-2.35-1.3-1.09-3.4-2.07-.81-.38-2.78-2.86-2.89-3.83-.29-2.41,1.6-2.08,3.24-2.81l.63.86c.04-1.04-.48-2.4.89-2.23-2.16-1.16-.53-3.35-3.07-4.18-1.2-.39-4.69-1.01-5.35-1.37-3.44-1.89-6.06-5.69-10.23-6.66-.59-.14-1.19.29-1.79.19-.36-.9-.76-2.52.31-3.12,1.16-.65,7.6.22,9.19.41l.7-2.18c-1.63,1.13-2.15-1.42-2.79-1.66-.49-.19-1.26.22-2.18-.14-.54-.21-1.96-1.79-2.43-2.12-.76-.54-1.93-1.13-2.84-1.42.81-1.29,1.21-2.1,0-3.34l.88-.66c-1.37-.58-1.18,1.04-1.94.85-1.68-.43-1.26-1.56-1.76-2.07-.2-.2-.83-.03-1.22-.41-.49-.48-1.82-4.18-2.02-5.04-.52-2.3-.43-8.75,2.7-8.75,1.97,0,1.08,1.69,1.29,2.5.83,3.12,2.21,5.31,3.08,7.68.51,1.39.69,2.46.51,3.93l1.37.37.21,1.83c1.68-.96,2.18.77,2.51.86s1.47-.29,2.15-.2c.81.11,1.52.87,2.46.67v-1.34s-.88.45-.88.45c-.32-1.09-.66-2.27-1.04-3.33s-.55-1.56-.94-2.95-1.65-2.26-.85-3.97c.79-.4,1.71-3.3,2.59-3.12.28.05,2.75,4.03,3.1,4.71.43.83.71,2.29,1.12,2.98.28.47,3.84,4.55,4.13,4.65,1.61.52,3.91-.26,5.67.58l-.93-1.15.49-1.52-2.23-.45.45-1.33c-1.93.54-1.51-2.04-2.38-3-.31-.34-2.88-.91-2.13-2.31l-1.29-.04c1.09-1.6-.37-1.21-.43-1.6-.31-1.97.86-6.8,2.21-8.42l1.29,1.49c.34,2.45,2.61,4.12,3.95,5.96.07.09-.7.91,1,1.47l-.89.44c.87.35,1.06.55.9,1.56l1.13-.4.41.85c1.13-.59,2.07-1.42,3.35-.9l-.44-1.34c1.62,1.37.48-1.74.2-2.21-.09-.15-2-2.49-2.2-2.72-.34-.38-.97.03-1.04-.05-.12-.13-1.76-2.79-1.84-2.95-.52-1.06-.35-3.85-.87-5.15,1.9-1.81,3.43-.08,4.55,1.52.92,1.3.6.5,1.45,1.3,1.43,1.34,2.57,2.86,4.42,4.04,1.96,1.25,2.67-3.41,2.46-3.56-.14-.1-.89.19-1.24-.11-.19-.16-.06-.81-.26-1.05-.62-.75-1.76-1.28-1.65-2.62l.92-.68-.77-.08c-1.24-1.62,3.11-2.26,4.32-1.71.88-2.35-.44-1.75-.79-2.3-.75-1.18,1.17-3.67,1.27-4.8,1.44.52,2.76-.89,4.43-.02-.27-1.99.57-2.81-1.71-3.2.52-2.01-1.47-1.79-1.79-2.9-.6-2.11,1.43-4.23,3.63-3.62,1.51.42.68,1.63.77,1.69.35.22,2.04.04,2.71.28.81.29,1.38,1.03,2.18,1.3,1.34.46,2.75.24,3.97,1.09.23-1.81,2.83-.98,2.29-3.29-.12-.52-1.26-.36-1.7-.81-.31-.32-.3-1.04-.61-1.4-1.44-1.69-2.55-1.58-.53-4.32.87.21,2.19,0,2.97.2,2.98.75,3.86,4.09,6.53,5.36.53.25,1.43-.76,1.36.68.52-.52,1.94-.75,2.23-1.15.42-.58.26-5.75-.12-6.5-.73-1.43-5.78-4.29-5.19-5.9l.78-.42-.4-1.13h1.34s-.45.88-.45.88c2.2-1.29,3.41,1.82,4.07,2.16.16.08,1.84-.71,2.16-.38.21.22-.43,1.48.45,1.34-.24-1.69.94-.35,1.28-.51.06-.03.01-.72.62-.96.38-.15,1.14.16,1.18.1.24-.42-.26-1.21.92-1.5l-1.77-2.69.89-.44c-2.07-1.98-3.64-2.86-2.64-5.98,2.09-.5,2.85.97,4.86.87l-.45.88,2.68.9-.45.88M45.65,265c-.3-.16-4.89,1.15-3.92,2.57l-.88-.45c.21,1.67-.59,3.69-1.34,5.13l.89.5v1.5s-.89-.45-.89-.45l-.02,1.11c1.73.5.79,1.45,1.12,1.99,1.2,1.96,3.24,1.2,2.94-1.28l5.44-.49c.51.14,1.02,2.07,1.94,2.65.14.09,3.16.6,3.27.47.09-.1-.18-.91.09-1.22s1.46-.13,1.89-.99c.21-.42-.29-1.88.68-2.47l-1.32-.22.45-1.33h-1.34s.45-1.34.45-1.34c-1.29.26-1.4-.44-2.01-1.34l-.64.03c-.42,2.39-.92.12-1.54-.5-1.03-1.02-3.13-1.9-2.94-3.54-1.87,1.03-1.97-.16-2.31-.33Z"/>
      <g>
        <path d="M144.97,0l.23.79c2.02-1.21,1.87.22,2.63.78.37.27,1.03.18,1.4.6.77.87.15,1.88.27,2.38.04.18,1.82,1.48.86,2.95l1.33.02-.44,2.22.88-.89c-.35,1.5.6,2.53.86,3.82.12.59-.32,1.38-.05,2.23.31.96,1.95,1.06.11,3.53,2.49.81,4.23,4.86,3.24,7.25-.22.54-.93.55-.95.6-.27.76.43,3.95-.35,3.59l-.63,1.46.89.44-.89,1.56.88-.45c.18,1.05.33,2.51.77,3.46s2.13,1.89,2.23,3.96-2.99,4.85-.3,7.5c-.59-.03-1.17,1.83-1.24,2.32-.11.84.93,1.74.77,1.91-.14.16-1.06-.37-.89.45l.89.22-.89,1.11c1.46.02,2.37,4.94,2.14,5.92-.18.77-1.08,1.47-1.08,1.88,0,.24.54.62.51.88-.34,2.39-1.04,1.77,1.09,4.02l-1.67,1.31,1.12,2.7-1.64,1.15.41,1.3-.82-.39c-.42.53-.77,2.2-1.08,2.49-.37.34-1.31.05-1.59.85-.74,2.08.51,6.06-1.39,7.97,1.73.44,0,2.71-.02,3.99-.02,1.35.85,3.57,2.44,3.37,1.03-1.57,3.31-2.45,4.8-3.6,1.18-.91,2-2.59,3.51-3.29s3.35-.37,4.41-.94c.66-.35.62-1.28,1.23-1.54,1.86-.8,4.25-.18,5.57-.45.18-.04.32-.75,1.59-1.09,2.03-.53,5.62.43,6.97.12.18-.04.28-1.56,1.1-.81.17.15-.67.62-.18.88,1.16.6,7.01,1.96,7.22,2.31.33.53.36,3.62-.93,3.38-3.9-.13-7.72-.21-11.6-.5-.49-.04-1.04-.52-1.79-.58-1.76-.14-3.73,1.55-3.86-.59-.64-.21-.33,1.74-1.33.89-.27-.24,1.31-1.66-.44-1.33.02.7-.13,1.32-.66,1.83-.66.64-4.91,1.89-5.91,2.29-.79.31-2.56,4.28-4.13,3.01l.45.88-1.73.06c-.08,1.9-1.3,1.48-2,2.22-1.84,1.94-2.63,4.43-3.65,5.76-.48.63-1.47.58-1.87.98-.53.53-.68,2.3-1.04,3.12s-1.5,1.45-2.01,2.08c-.61.76-1.23,3.17-2.63,2.72l-.44-.9c-.81,1.64-1.74-.15-1.99,0-.03.02.08.54-.18.71-.31.21-.87.11-1.02.29-.59.65-2.36,2.62-2.77,3.36-.46.84-.75,4.09-2.73,2.92v-1.5s-2.66-.01-2.66-.01l.45-4.43c-1.32-.19-3.98-.47-5.05.4-.6.49-.14,2.18-2.07,1.82l.89.66-4.62,5.1c-.48-.08-1.41-1.41-1.43-1.97-.02-.34,1.57-3.54,1.72-3.68.35-.34,1.29-.2,1.8-.56.79-.54,2.05-1.87,2.98-2.46.16-.37-.85.12-.94-.86-.45-5.04,3.93-2.57,5.56-4.29,1.16-1.23,1.35-2.81-.63-2.86-.15-2.1-2.82-2.45-4.23-3.32-.64-.39-4.37-2.6-4.54-2.81-.37-.44.34-1.63-1.45-1.22v-1.33c1.18.47,1.25-.95,1.95-.91,1.77.11,3.59,1.98,5.57,1.87l.05,1.27c1.62-1,1.41.4,2.04.85.67.48,2.71,1.63,3.09,2.27.28.47-.2,1-.09,1.23.19.41,2.47,1.57,2.53,1.43l.07-1.27,1.26-.08c-.57-.88-.41-3.35-.67-3.98-.17-.4-.8-.73-1.06-1.2-.31-.57-.38-1.62-.6-1.84-.26-.26-1.11-.18-1.54-.44-.6-.36-1-.92-1.51-1.19-.74-.4-1.96.11-1.75-1.13l-1.1.89c-.49-1.9-2.47-.48-3.66-.57-.63-.05-1.04-.6-1.58-.63-1.65-.1-3.9-.36-5.46.1-.6.18-4.93,3.74-4.99,4.05s.21.74.33,1.04c-1.84-.08-3.14,1.57-4.91.9l.45.88c-4.67.55-7.97.36-12.21-1.83-.48-.25-.63-1.06-.8-1.15-.13-.07-2.51-.74-2.81-.8-1.19-.24-2.7.65-3.87,1.15-.33.14-.35.76-.67.83-1.27.29-3.06-.19-4.39-.02-.78.1-.59.74-.99.89-2.64.97-3.93-1.02-6.33-1.31l.45-.88c-.17-.13-.83.34-1.35.18-.27-.09-2.48-1.2-2.21-1.74,2.55-1.67,2.02-3.77,5.66-2.54.8.27,2.87,1.36,2.81,2.32,2.66-1.18,4.62-1.45,6.67-3.79.45-.52.23-1.73,1.32-1.56l-.88-.88.9-.23c-.2-2.35-5.13-4.67-2.88-6.89.09-.09,2.06-1.39,2.19-1.37.97.17,1.3,1.17,1.85,1.28.89.18,1.68-1.07,3.14-.49s2.04,1.75,1.48,3.24l.45-.89.88.67c-2.08,1.22-2.84,2.97-2.7,5.38.06.97,2.87,4.26,4.05,3.3l-.45.88c.61.34,2.06-.06,2.39.03.76.23,2.87,1.07,3.62,1.22.14.03,2.71.09,2.83,0,.21-.15.28-1.15.97-1.49.6-.3,1.73.68,1.78-1.1l.48.84,2.19-.4-1.29-2.36c1.61-5.41,7.35-5.5,11.65-7.42.33-.15.34-.97,1.18-1.18,1.83-.45,3.06.96,4.94.26l-.45-.88,1.59.41.27-.73.8.32-.51-3.06-1.71-.06.42-2.91c1.61,0,3.13.38,4.25-1.1l.66.88.06-.79c1.49.21,4.42-.05,5.54-.98.79-.65.38-1.87,2.42-1.35l-.45-1.33c-.89.05.04,1.3-1.33.88l-.25-.91c-3.06.99-5.82-2.56-7.73-4.71l.85-2.18c1.31-.79,3.86,1.32,2.68-1.54l2.23.88-.89-1.33,1.33-.44-.8-.22c.78-2.51-1.9-2.07-3.09-2.59-.15-.06-.19-.6-.45-.75-2.44-1.39-5.82-2.58-5.5-6.03.14-1.48,1.42-1.88,1.08-3.23-.62-2.52-5.09-6.53-5.1-8.35,0-.82.78-.57.84-.87.78-3.78,1.3-7.29,2.92-10.76.44-.93.91-2.53,1.16-2.99s.99-.14,1.24-.4c.41-.43.47-.64,1.26-1.39,1.78-1.7,2.02-3.62,2.51-4.19.21-.24,1.16-.11,1.72-.74.33-.38,1.24-2.49,1.47-2.81.96-1.33,4.32-2.41.26-3.24l.45-1.33c-1.15-.98-4.87,5.03-5.89,5.65-.16.1-.73-.35-.76-.31-.34,2.8-5.14,2.57-4.04,6.21-2.36-.53-2.47,2.13-4,2.7l.88.88c-1.33-.12-.93,1.43-1.36,2.33-.68,1.43-1.25,1.44-1.5,3.84-.22,2.15,1.05,8.47-2.17,8.39-1.23-.03-2-2.97-1.91-4.12.07-.9,1.03-1.57.68-2.6-.15-.44-1.59-.86-1.57-2.09-3.73-1.37-1.54.51-2.42,2.35-.34.71-1.95,1.45-2.2,3.26l1.33.22c-.23,2.01-2.04,3.83-4.03,2.51-1.09-1.55.12-4.07.32-5.76.16-1.29-.93-2.42.59-2.75-.98-.74-.98-1.04,0-1.79l-.91-.45c1.89-4.05.35-4.55-3.54-3.33,1.22,1.42.37,3.66.26,5.39-.09,1.37.77,3.49-.71,3.74l.84.27-1.28,3.51-.88-.88c-1.25,3-2.19.79-2.48-1.2-.45-3.13.02-7.33,0-10.16,0-.26,1.38-1.79-.76-1.89s-1.35,1.19-1.8,1.97c-.22.39-1.4,1.45-1.64,2.15l.88.66c-1.72.04-.85,1.61-.97,2.77s-1.34,1.9.08,2.8l-.89.44.91.47c-.79,1.37.82,4.66-1.69,4.37-2.81-.32-2.86-5.04-3.25-7.39-.68.02-.92-2.45-1.74-1.68-.12.11-1.2,2.59-1.27,2.88-.39,1.74,1.87,5.25-.25,6.95-1.62,1.3-4.46-.7-3.38-2.27l-1.31-.03-.04-1.48.9-.49c-1.17-2.55-2.23-1-4.2-1.17s-1.36-1.03-2.09-1.9c-1.47-1.75-4.82-5.73-5.64-7.51-.08-.18-.02-3.22-.25-3.79-.09-.23-2.83-3.9-3.07-3.98-.72-.23-1.86,0-2.07-.2-.14-.13.1-.86-.15-1.16-.17-.21-.84-.09-1.04-.29-2.94-2.86-3.63-3.16-6.98-4.89-1.14-.59-3.21-1.54-4.49-1.13-1.84.59-1.21,6.66-.06,7.97.54.62,1.35.57,1.71.87.48.4.05,1.59,1.17,1.37l-.89.44.89,2.67-.88-.45c.46,1.84-.97,1.08-1.38,1.61-.72.93-2.52,6.94-.95,7.52-.41,2.73.58,5.99,1.88,8.47l-.88.66c1.61-.03,1.22,2.87,1.65,3.89.5,1.19,2.16,1.01,2.21,3.2.11,5.41-3.21,6.41-7.88,5.37-.1-.11.3-.78.21-1.07-.9-3.18.22-6.4.17-9.77-.03-2.03-.61-8.88-1.11-10.9-.25-1.01-1.02-1.06-1.01-1.16.12-1.19,1.36-2.07-.03-3.35l.9-.66c-.72-1.61-.99-3.82-1.12-5.61-.06-.82.44-1.92.4-2.89-.1-2.4-2.08-6.09-1.52-9.3.09-.5,1.66-3.5,2.09-3.77s3.42-.61,3.94-.55c.21.02.41,0,.56.18l.1.76c.21.14,1.12-1.54,2.21,0l1.34-1.33-.44,1.33c.2.15,4.16.02,5.02.18,1.81.33,6.28,1.46,8.05,2.06,2.47.83,3.6,2.41,5.88,3.09l-.24,1.32c1.84-.24,2.15,1.8,2.79,2.54,1.53,1.75,2.04,2.23,4.09,3.28,1.03.53,2.46,3.08,3.35,0,.46.61,2.8.93,3.33.72.74-.29,1.03-1.14,1.55-1.36,1.67-.72.97-.17,2.69-1.34.59-.4,3.23-.02,3.77-1.57l.44.89c.96-1.26,5.41-2.15,6.6-1.35.65.43-.26,1.64,1.86.02l.71,1.28c1.76-1.25,2.66.7,3.79.81.6.06,1.27-.41,2.07-.26.74.13,3.77,1.7,4.08,2.55.99-.65,2.48-.08,3.36-.63.36-.22,4.58-3.64,4.75-3.91.32-.5.05-1.52.56-1.9.69-.53,1.8.41,2.87-.22,1.75-1.03,4.23-5.79,5.65-6.43.48-.22,1.05.22,1.23.12.13-.08,2.01-2.11,2.16-2.12,1.05-.08,1.71.62,3.22-.38ZM147.4,16.24c-.26-.44.02-1.07-.39-1.16-1.7.88-.94,2.51-1.14,3.27-.09.33-.8.24-.85.56-.06.41.28,1.73.19,2.62-.08.73-.77,1.38-.68,2.16.03.25.62.28.73.48.23.39.12.92.46,1.19.31.24,1.04.16,1.41.5.1.09.78,2.44.74,2.56-.1.31-.61.63-.76,1.05s.05.87-.06,1.09c-.08.16-1.51.92-1.28,2.26-2.13.08-.8.28-.8,1.13,0,.17-1.37.57-.89,1.61l-.88-.45c.08,1.17.3,1.68-.9,2.01l.89.44c-1.51.41-.98,1.42-1.29,1.79-1.08,1.27-3.55,2.31-3.65,4.15l-1.74.07.34.82c-1.74-.19.86,2.65,1.89,3s6.48-.49,7.01-1.25c.37-.54.26-2.28.6-3.1,1.88-4.54,4.29-7.89,4.24-13.48,0-.99-.65-1.41-.73-1.81-.03-.16.67-.14.97-.84.25-.58.52-4.66-.55-4.52,1.06-1.76-.18-1.33-.39-1.87-.32-.86-.76-2.37-.49-3.22-2.06.82-.95.18-1.38-.5-.22-.36-.59-.43-.67-.57ZM132.87,81.3c-1.06.32-1.84-.62-2.58-.54-1.78.2-4.34,1.73-6.17,2.26-.85.24-3.93-.11-3.59,1.3.35.52.86.65,1.42.8,2.13.6,7.45.27,8.99.87.65.25.7,1.4,1.57,1.48.62.06.98-.72,1.92-.63s1.75.87,2.56,1.28v-1.34s1.56.89,1.56.89l.43-.82,2.28-.05.63-2.25c-1.48.82-1.02-.72-1.48-1.19-.28-.28-2.74-2.05-2.95-2.11-.52-.14-1.12.24-1.55.13-.69-.17-2.02-.92-2.7-.75-.27.07-.22.63-.34.66Z"/>
        <path d="M119.55,52.15c.11.05.07.59.17.65.25.13.83-.38,1.24-.12.76.48.38,2.07,2.23,1.15l-.45,1.33c2.01-.41,1.26,1.76,2.67,1.79l-.88.88,1.75.05.05,1.24,1.76.05c-.87,1.62,1.7,2.29,1.8,3.33.25,2.51-4.87,4.35-6.49,6-.73-1.38-1.97-1.06-1.11-2.65l-.82.39c-1.27-2.83-2.56-.84-2.21,1.52.18,1.25,2.41,1.88,1.66,3.84l-5.31.3c-.69-.6-.33-2.19-.85-3.07-.42-.7-2.79-1.65-2.61-3.58.04-.43,2.96-5.09,3.46-5.46.91-.67,1.32-.14,1.49-.23.46-.23.71-1.15,1.63-1.06-.22-1.16-2.4-1.9-3.42-1.91-.58,0-.96.64-1.25.63-.33,0-.71-.71-1.25-.65-1.61.17-2.25,3.47-3.86,2.15.84,1.69-.19,1.2-.32,1.56-.52,1.49-1.06,1.98-1.41,2.81-.61,1.45-.64,5.99-3.06,5.13-.1-.04-1.58-1.4-1.63-1.5-.82-1.67-.45-4.19.22-5.86,1.03-2.52,4.55-6.81,7.11-8.15.44-.23.96.19,1.21.08.09-.04.15-.6.43-.71,2.64-.95,4.23-.03,6.55.35.43.07.98-.52,1.48-.29Z"/>
        <path d="M84.02,56.04l-.67.46c1.69.53.76.77.67,2.22,1.38-.16,1.68-.14,2.23,1.12l-1.33-.67-.02,1.1.94.5-.44,1.32.87.45-.47,1.08,1.34.02c-.44,2.14,1.3,4.2-.3,6.27-2.84-.44-5.57,4.07-7.65,1.46.44-2.56,2.45-3.34,1.03-6-3.78-1.09-5.52,1-7.13,4.07-4.38-1.52-1.6-3.97-2.44-7.32l.87-.48-.4-1.13c1.77.88,2.07-1.11,3.56-.9l-.45-1.33,2.42-.43.23-.9c-1.59-1.16-2.48-1.41-4.51-1.25-2.32.18-3.6,2.48-6.6,2.13-.39-1.19.62-.76.77-.96.07-.09-.35-.94.15-1.86.18-.32,2.05-2.15,2.37-2.34,2.11-1.27,5.59-2.02,7.9-1.36.99.28,4.4,1.78,5.3,2.3.14.08.68,2.06,1.76,2.44Z"/>
        <path d="M61.47,72.37c1.01,1.63,2.6,4.43,4.45,5.34,2.67,1.31,2.8.29,4.51.37,2.63.13,5.18.81,7.8.86.79.08,2.12,1.89,1.75,2.44-4.54,2.79-9.58.64-14.33-.51-.4-.1-.74-.47-1-.78-.37,1.47-.9.45-1.57.71-.35.14-.61.72-1.08.87-.87.29-2.62-.38-2.49,1.08-.88-1.24-2.08-.33-2.55-.53-.1-.04-.12-.5-.28-.6-1.38-.78-1.91-1-1.63-3.05.07-.54,5.21-1.31,1.36-3.16l.89-.22c.19-.73-.77-.21-.9-.73-.58-2.35.41-5.09,3.13-4.17l.21-.88c2.05.62.99,1.79,1.71,2.96Z"/>
        <path d="M116.97,100.58c.07.11,1.58-.79,1.73,1.2.05.66-3.35,3.23-3.96,3.44-.96.34-1.17-1.1-1.6,1.18-1.01.8-1.74-.62-1.96-.47-.77,2.2-4.3,2.21-6.03,4.03-.76.22-.54-.77-.95-.88-.25-.06-.64.38-1.28,0-.85-.49-1.88-2.14-2.02-3.14l-.84.42c.18-1.27-1.03-1.57-1.31-2.13-1.18-2.37,1.78-3.98,3.78-3.03.46.22.44.9.98,1.14,1.14.52,3.17.52,4.38.09.2-.07,3.15-2.16,3.56-2.47s1.62-2.02,1.83-2.06c.27-.05,3.54.1,3.69.2,1.01.7-.23,2.11,0,2.47Z"/>
        <path d="M80.47,84.11l.36,2.01c-1.83,2.25-2.12.74-3.7.61-1.15-.09-2.17.54-3.1.48-1.7-.1-1.68-.06-3.13-.05-.75,0-2.56-.46-3.14-.24-.84.31.25,3.03-4.05,3.38-1.55.13-6.42-.12-6.82-2.01-.24-1.14,1.58-1.28,2.06-1.66.36-.28.44-.98.77-1.22,1.31-.97,5.44.16,7.62-.18s6-1.85,8.01-1.77c1.7.07,3.35.9,5.11.65Z"/>
        <path d="M66.51,19.29c1.27.55,2.77,2.01,2.85,3.81l1.33-.24c1.25,3.31,6.77,6.62,3.98,10.26l.89,1.11c-2.88-.02-3.47-2.11-4.88-3.7-.37-.41-1-.12-1.35-.62-1.08-1.53-1.9-4.09-2.7-5.57-.61-1.13-2.83-1.89-1.35-4.16-.92-.36-.98-.47-.85-1.52.93-.25,1.44.37,2.07.64Z"/>
        <path d="M152.76,256.27c3.43,2.44,3.98,3.6,5.64,7.38.16.35.85.36.86.61.02.43-.77,2.4-1.12,2.4-.6-.75-1.54-.98-2.29-1.51-.66-.47-1.65-1.56-2.27-2.04-.94-.74-2.09-.68-2.41-2.62l-.81.39c-.33-.98-.51-3.24-1.34-3.74-.2-.12-.76.2-.84.1-.1-.12-.01-.68-.23-1.07s-1.21-.45-.72-1.96c1.69-.09,3.1.19,4.58,1,.49.27.61.83.95,1.07Z"/>
        <path d="M93.28,245.01c.1.05.05.61.31.66.36.07,1.32-.49,2.02-.09,1.21.68,1.78,3.13,4,2.85-.66,1.56-1.21,3.51.89,4.01l-.89.44c.97,1.67,1.17,1.72-.67,2.66-.74-.28-.2-1.17-.31-1.25-.26-.2-1.03-.12-1.47-.5-.82-.71-4.43-3.41-4.57-3.67-.33-.6.06-1.57-.1-2.28-.07-.33-.69-.31-.74-.42-.57-1.21.02-3.17,1.54-2.4Z"/>
        <path d="M138.84,174.01c.15.1,1.77-.45,2.62-.23,1.87.47,1.18,2.9,1.78,4.44-3.7,4.26-6.44-1.63-9.8-3.27l.83-.47-.21-1.76c.86-.8,2.51-1.04,3.53-.4.92.57,1.08,1.59,1.24,1.7Z"/>
        <path d="M65.32,29.34c1.62,2.55,5.08,4.55,7.82,5.76v2.29c-.24.43-1.95.16-2.57.43-.47.2-.21,1-1,.89-1.26-.18-1.11-1.14-1.72-1.66-1.36-1.14-2.12-1.2-3.18-3.3-.2-.4.17-.88.05-1.22-.03-.1-.55-.03-.62-.31-.34-1.51,1.11-1.48.33-2.67l.89-.22Z"/>
        <path d="M123.55,173.29c1.17.64.18.09,1.6.34,2.23.38,2.1.81,3.42,1.92.72.61,1.95.16,1.76,1.82-.15,1.32-2.67,2.56-3.81,2.28-1.76-.43-5.1-3.48-5.43-5.4.39-.71,1.72-1.36,2.45-.96Z"/>
        <path d="M112.51,179.4c.86,1.49,1.85,3.41,3.57,4l-.88.88,1.27,1.49c-.26,1.4-3.57,1.84-4.53,1.58-1.5-.41-2.87-3.96-2.53-5.42.07-.31.59-.31.72-.51.54-.87-.3-1.5,1.96-1.15l-.45-.88h.89Z"/>
        <path d="M134.08,225.03c.42.35,2.58,2.66,2.67,2.89.15.35-.22.9-.15,1.06.17.39.7.3.74.5.15.76-.05,2.05.1,2.9-.85-.48-1.62.1-2.45-.4-2.01-1.21-3.55-3.35-4.39-5.28-.06-.14-1.13-.05-.72-1.22l3.8-1.07c.22-.01.2.45.39.61Z"/>
        <path d="M74.2,119.77l-.38,1.23c3.37.79,1.67,5.98-.71,6.1-.83.04-2.84-1.97-2.9-2.33-.18-1.12.63-1.63.72-2.38.17-1.36-.71-2.89.86-4l2.41,1.38Z"/>
        <path d="M94.04,104.8c-.48.41-.54.92-1.56.68l.45.88c-1.54.59-1.8-.73-1.91-.77-.43-.16-.76.27-1.44-.08-1.77-.93-2.93-2.66-.53-3.73.7-.31,1.46.12,1.58.04.2-.13.15-.84.71-1.07,3.08-1.24,5.16,1.95,2.69,4.05Z"/>
        <path d="M61.44,60.69c-.12.05,0,.65-.76.74-3.36.38-2.3-1.43-4.64-2.92.79-.86,1.65-3.08,2.85-3.16l3.33.93c.94,1.49.43,2.66.23,4.27-.27.34-.73.03-1,.15Z"/>
        <path d="M134.97,204.59c1.45,1.26,1.62,1.27,1.62,3.47-2.6,1.5-2.15.39-3.17-.37s-3.78-1.82-2.71-3.16l-.83-.87c.8-1.35,2.81-1.18,3.99-.43.55.35.7,1,1.1,1.36Z"/>
      </g>
    </g>
  </g>
</svg>