<?xml version="1.0" encoding="UTF-8"?>
<svg id="_Слой_2" data-name="Слой 2" xmlns="http://www.w3.org/2000/svg" viewBox="0 0 266.85 304.33">
  <g id="_Козлёнок" data-name="Козлёнок">
    <g>
      <path d="M132.96,5.3c-.27-2.18-1.53-.94-3.03-.91-8.54.19-12.36-.3-19.91,2.66-2.04.8-4.01,2.74-6.52,2.52l-.04,1.36-.91-.46c.29,2.38-1.96,1.8-2.72,2.44-.13.1-1.78,2.39-1.88,2.55-.58.99-.75,2.44-1.51,3.42,3.49.42,6.08,2.79,9.55,2.85.42-1.84,2.19-1.76,1.68-3.78-.32-.34-3.11.73-2.8-.7l3.38-3.89c2.82.62,5.58-.5,8.06,1.33l3.32-3.77c1.88.56,3.72,1.75,5.63.48l-.27-1.41c.31-.26,5.67.18,6.82.03s2.95-.71,5.14-.95c.96-.11,1.58-.92,2.54-.49l-2.93-3.42-2.49-.77-.21.89-.91.02ZM52.87,158.41l-.91.18-.46,1.65c-1.23.4-1.21-1.26-1.41-1.4-.35-.24-1.65.9-2.55.98-1.14.09-2.24-.56-3.18-.43-3.02.42-7.24,2.32-10.18,3.35-1.94.68-5.65,1.45-7.53,2.4-.4.2.02.96-.1,1.08-.42.46-2.43,1.35-2.56,1.61-.72,1.39-1.34,4.75-1.88,6.27-.21.61-.8.65-.87.81-.56,1.33-.99,3.53-1.56,4.66-.08.16-2.28,2.46-2.44,2.53-.23.1-.86-.33-1.27-.09-1.61.93-3.76,1.84-2.85,3.97-2.07-.41-1.26,1.27-1.96,2.51-.34.61-1.23.69-1.33,1.1-.18.77.18,1.77,0,2.63-.07.32-.79.32-.89.69-2.09,7.81,2.06,12.53,2.76,20.01.14,1.52-.4,7.96.56,8.57,2.03.52,3.5.38,5.05-1.12.43-.41.37-1.12.64-1.45.42-.51,1.37-.5,1.64-1.41.13-.43.47-3.51.5-4.16,0-.22-.8-.14-.88-.51-.4-1.81-1.08-7.1-.93-8.8.04-.44,1.76-4.46,2.1-4.46,2.04,2.17-.36,4.07.25,6.68.08.34.89.26,1.08,1.33.25,1.37-.45,3.33-.2,4.83l1.43.26-.95.76-.46,3.44h1.4c-.73-3.55,3.13-2.03,1.36-6.18-.14-.32-.71-.35-.85-.74-.19-.56-1.04-3.71-1-4.01s.75-.26.93-.67c.42-1-.08-2.81.03-2.9.14-.11.93.14,1.27-.1,1.41-.97-.3-8.53,2.69-5.98.85.72,2.09,5.73,2.83,6.07l1.91-2.77c.89-2.41-2.02-4.1-1.68-6.31.08-.55,1.14.06.93-.74-3.03.16-1.88-4.71.93-2.11-2.03,1.39.91,2.49,1.29,3.17s-.34,1.65,1.07,1.98l-.95,1.63c2.3-.59.57,1.61,2.34,1.4-.79-1.28.32-2.18.32-3.42,0-.41-.65-3.91-.78-4.21-.27-.62-1.39-.16-1.79-1.08-.24-.55.3-4.59.36-5.58.04-.62-.4-1.17-.4-1.42,0-.34.87-.28,1.11-.66.39-.62.11-1.45.34-2.04.27-.7,1.42-.73,1.32-1.71l.94.25c1.18,1.85-.61,3.73-.36,5.47.03.22,1.03,3.62,1.75,2.69-.76-1.73.81-2.4.9-2.7.54-1.86,1.18-4.75.06-6.45l1.62-1.62c1.72-.46,1.11,5.24.73,6.26l1.84.76c-.63-1.81,1.14-2.61,1.37-3.17.35-.82.78-3.48,1.02-3.79.04-.05.67.26.87.11,1.11-.82,1.67-2.29,3.28-2.03-1.02,1.02-2.6,6.62-2.31,7.66.31,1.11,2.35.73,3.24.76-1.9-3.18,1.98-3.08,1.88-6.09l1.39.48.45-1.69c1.58.71,1.34-1.05,2.59-.65,1.78.58-.7,2.05-.72,2.18-.1.75-.22,3.2-.29,4.22-.09,1.27.51,2.5-.16,3.88l1.81-.09c.18-1.11.95-1.95,1.48-2.94.22-.41.04-1.07.09-1.1.25-.17.86-.07,1.25-.36s.45-.91.63-1.03c.22-.14,2.11.21,2.69-.1-.38,1.01.83,2.21.73,2.84-.1.68-1.17,1.92-1.46,2.79-.31.93.42,1.86-.67,2.79,3.66,2.35,3.35-1.61,5.14-2.51.52-.26,2.09,0,2.82-.3l-.93-1.4c1.87.4,1.16-.78,1.56-1.23.48-.55,2.32-1.84,2.51-2.16.17-.28.18-6.3-1.93-5.5-.69.17-.52,1.42-.88,1.75-.22.2-.94.02-1.13.25-.33.4-2.58,5.34-3.88,4.08.85-2.02,1.27-4.2,1.9-6.21.18-.56,1.38.05.41-1.92l1.47-1.92c-1.62-.37-.46-1.61-.73-3.02-.22-1.09-1.74-2.75-2.61-3.51-.51-.44-3.02-1.66-3.13-1.8-.26-.31,0-1.08-.15-1.22-.28-.27-1.37.07-1.97-.08-.35-.08-.26-.75-.68-.89-2.15-.69-4.1-.18-5.42-.5-.39-.09-.11-1.62-2.38-.43l-.31-.94ZM176.62,192.43c-.28-.65.11-1.46-.36-1.75-.76.34-1.27,1.96-1,2.59s1.01.55,1.13.75c.15.24.98,3.97,1.56,5.16.27.56,1.49.23.43,1.56l1.39.23-.93,1.4,1.4-.47c-.56,2.26,2.16,1.76,1.63.02-.29-.93-1.76-5.37-2.09-5.78-.5-.63-1.25-.21-1.4-.34-.13-.11.35-.9.19-1.4-.26-.79-1.89-1.86-1.94-1.99ZM137.83,204.55c-.55-.97-.97-2.21-2.06-2.64-.52,2.76.41,3.49,2.33,5.15-.15-.71.49-1.53.48-2.07,0-.32-.66-.28-.75-.44ZM186.63,211.47c-1.92-.72-3.86-1.69-5.96-.93l-1.39,3.77c1.94.53.47,1.99.61,3.23.2,1.78,3.12,4.89,3.53,6.23.22.74-.07,2.18.14,2.43.14.16,2.22.79,3.55,2.09.13.12.29,1.71,1.79,1.54,2.38-.27-.45-3.37.47-4.52.57,1.28,2.29,2.1,2.93,3.14.86,1.39,1.88,4.29,2.39,5.68,1.26,3.4.24,2.51.16,3.58-.15,2,.29,4.89.4,6.97l-.96.3c1.73.63-.44,4.19-1.04,4.6-.2.14-1.66-.34-2.39.05-.4.21-.97,3.03-2.66,2.36l.48.93c-2.71-.88-1.94,2.02-2.5,2.71-.17.2-3.63,2.06-4.33,2.62-.79.64-2.31,1.9-2.98,2.51-1.73,1.59-2.87,5.08-6.1,4.82l-.02,1.85c-2.2-1.01-1.47.12-2.53.55s-3.57.28-4.84.67c-1.9.59-6.74,2.47-8.11,3.65-1.18,1.01-1.99,3.78-3.7,2.61.45,1.89-.9,1.15-1.29,1.53-.36.35-.19.51-1.32,1.47-1.47,1.24-2.96,2.66-4.45,3.77-1.19.89-5.01.64-5.37,1.16-.56.8-.27,2.23.47,2.86,2.08,1.8,4.96,2.36,7.57,1.45.79-.27,6.11-3.44,6.61-3.93.57-.56-.1-2.54,1.95-2.5,2.42.04-.77,6.5-1.7,7.72-1.62,2.13-5.16,4.95-7.88,5.15-.73,1.2-.03,2.32,1.21,2.6.31.07,3.51.17,3.86.13,2.01-.23,7.37-2.45,9-3.62,2.81-2.01,2.32-2.74,3.48-5.29.13-.3.82-.31,1.1-.92.64-1.41.83-3.48.8-5.04,1.77-.37.6,1.85.72,2.88.09.78.68,1.53.71,2.52.05,1.61-.93,3.57-.49,5.36.79-.44,4.53-4.18,4.63-4.51.25-.82-.4-1.77-.38-2.69.02-1.13.97-2.23-.04-3.56l1.39.34c1.2,3.11,1.75,5.72,1.89,9.02,2.82-3.2,4.25-7.05,2.34-11.23,3.66-.34,3.63,5.32,3.27,7.95h1.39c.45-3.1,1.62-4.88,1.24-8.11-.21-1.76-2.71-7.16-2.64-7.55.44-2.4,3.19,1.83,3.72,2.35,2.27,2.24,4.51,3.32,4.25,7.24h1.4c.34-.33-.86-8.35-1.86-9.14.04-.79,1.97-.58,2.45-.27.89.59,1.8,2.86,3.16,2.84-.95-1.81.05-3.24.02-4.89-.03-2.14-1.84-3.86-.95-5.87l5.14,7.49c.49-3.83.65-6.51-.86-10.11-.21-.49-.64-.63-.67-.68-1.67-3.46,2.18-1.35,3.43.36.2.28.89,3.52,2.32,2.47.22-.16.06-1.68.14-1.78.31-.38,1.49-.36,1.28-1.26-1.69-.45-.55-1.09-.7-1.88-.3-1.57-1.81-4.31.21-4.91-.35,1.48,1.21,1.6,1.58,2.8.15.48-.25,1.2-.14,1.35.64.85,2.2.34,2.61-.51.11-.22-.2-.65-.12-.95.14-.56.72-.98.74-1.52.01-.51-.64-.99-.66-1.42-.11-2.24-.19-4.06-.73-6.3l1.66.46c-.62,1.84,2.03,2.16,1.62,4.69,1.95.42,1.7-1.52,2.78-2.61l-.06-.61-.85-.07c1.08-.93.48-2.19-.13-3.4-.33-.66-1.03-.75-1.11-.91-.69-1.34-2.03-5.13-2.07-6.66,0-.32.02-.63.02-.95.17-1.25,1.99,1.45,2.37,1.78.68.59,1.77-.05,1.38,1.72h1.39s.5-2.07.5-2.07l-.96-.27c-.44-1.44.87-.45.93-1.39l-1.41-.25.48-1.16-2.35-.47.47-1.4c-2.17.8-.23-1.65-2.34-2.11l.71-1.16c1.22.41,5.46,5.41,6.32,4.67v-2.34s-1.36.45-1.36.45c-.68-2.56-1.54-3.01-3.81-4.03l.02-1.57,2.33,1.4c.02-3.37-4.44-3.21-6.63-4.24-1.45-.68-3.66-2.93-5.46-2.35-.73-2.42-4.52-1.36-6.63-2.3-.1-1.4.89-1.88,1.86-2.57l-.46-1.18-1.4.48c.27-1.88-1.77-2.57-3.28-1.87v-1.41c-.12-.13-1,.62-1.59.45-.15-.04-1.97-2.08-2.28-2.22-.2-.09-.65-.07-1.44-.37ZM175.25,60.89c.03.11.6,1.04.93,1.84.11.27,1.35-.09.3,1.55h1.41c-1.15,2.04,1.53,5.35.33,6.89-.5.64-2.09.71-1.74,2.48l-2.59-1.39c-.05,1.15-3.41,1.54-3.96,1.17-.31-.21-.29-.93-.69-1.09-.33-.13-6.21-.95-7.04-1.02-2.13-.16-6.27-.48-7.74,1.16-1.09,1.22-1.56,4.48-3.26,3.98l.47,1.12c-1.1,1.66-3.37,4.43-2.83,6.09l-1.42,1.02.97,1.85-.93.46.94,1.16-1.2.44.3,1.61-.98.52c1.37,1.21,2.28,4.62,0,4.93l.04.89.9.27c-.84,1.51-1.56,3.39.34,4.18l-.35,1.68.92-.46.49,1.17-.96.46c1.14.87.86,3.34,1,3.46.11.09.74-.04,1.15.23.73.47,4.15,2.56,4.31,2.76.23.27,0,1.03.16,1.19.14.13,2.99.58,3.65.61l.07,1.29c.48.5,2.87-.33,3.51-.23,1.48.24,4.3,2.98,6.24,2.21.67,1.69,3.34,3.86,4.81,5.04.33.26,1.54-.66,2.44-.37.55.17.58,1.07,1.12,1.36,2.21,1.16,10.29,2.43,12.44,1.87.18-.05,2.32-1.38,2.5-1.41.48-.1,1.18.43,1.92.17.59-.21.52-1.08.85-1.09,4.62-.11,8.68-.93,13.99-.46,2.92.26,6.24,1.37,8.54,1.83,4.57.93,8.11,1.77,12.86.84,2.89-.56,2.66-1.24,4.33-2.7.6-.53,1.6-.64,1.99-1.06.41-.44,1.11-2.64,1.12-3.36.01-.57-.79-4.44-1-5.04-.38-1.12-4.17-2.65-5.39-2.06-1.71.82-2.44,4.22-4.28,5.45-.64.62-3.29-1.77-3.36-1.96-.1-.25-.09-1.88-.7-3.02-.8-1.5-2.95-2.32-2.64-4.14l-.93.23c.93-1.61-1.04-2.42-1.19-3.5-.9-6.44,4.25-14.4,10.78-15.54.69-.12,1.57.23,1.9.15.56-.13.48-1.12,1-1.26.51-.14,3.46-.11,4.03.02.38.09.17.95,1.01.98,2.57.09,1.72-1.81,5.5.44.53.31.65,2.3,1.55-.07l4.14.94.29,1.43,1.4-.93.28,1.39c.34-.1.83-.37,1.16-.22.25.12,3.05,3.49,3.7,4.1.89.84.97,1.03,1.53,1.61.32.33,1.18.16,1.54.57.49.57.57,4.18.68,4.86.05.31,1.49,1.73,1.46,4.31-.03,2.46-2.24,4.8-1.81,6.88.62,3.04,1.68,2.48,3.43,3.84.9.71,1.65,1.84,2.92,2.25l-.37,11.13-1.35.27c.47,1.24.05,2.51-.52,3.63-.09.18-1.14,1.66-1.26,1.97-.36.88-.16,2.68-1.54,1.62-.19,2.41-5.32,4.53-6.53,6.45-.31.49-.6.88-.49,1.51.57.02,1.24.08,1.74.36l2.9,4.19-.92,2.21-.55,5.35,1.11,3.32,1.48,2.21,2.77,2.77-.92,2.58.74,3.87-1.3,5.21c-.29,1.34.83.1.92.22.73.98-.95.94-.95,1.18.02.71.87,1.3,1.09,2.2.1.39.3,3.7.24,3.89-.12.39-.83.35-1.04.71-.53.94-.02,2.31-1.67,2.35l.92,2.32-1.4-.47c-1.07,1.17,1.03,3.55.92,3.73-.03.05-.83-.12-1.08.6-.19.56.2,1.18.12,1.46-.05.19-1.68.91-.91,2.65l-.83-.34-.39.84-2.05-.5c1.1,2.6-2.1,2.61-2.23,5,0,.7,2.25,3.56,2.87,4.19,1.7,1.76,5.35,4.34,7.36,5.98.91.74.6,2.17,1.83,1.2l.09,1.33,1.3.11c-.16,2.44.95,4.91,1.35,7.37.15.93.56,2.48.58,2.64.17,1.39-.44,2.48-.46,3.34,0,.2,1.25,1.98,1.33,3.28.09,1.5-.71,2.89-.69,3.68.03.99.77,2.16.73,2.8-.01.27-.86.22-.95.58-.62,2.56-.06,7.99-1.33,10.74-.21.45-1.31,2.3-1.64,2.85-.91,1.51-3.33,2.41-1.76,4.63l-.92.48c.94,3.22,1.1,6.41,1,9.76l-1.44.26c1.59,2.72-1.22,5.61,0,8.42l-1.36.04c.61,1.27-1.06,1.3-1.46,2.55l.96.92-2.37,2.85.48,1.6c-1.81-.4-2.12,2.57-3.13,4.1-.99,1.49-7.95,6.35-9.52,6.92-.5.18-1.19-.24-1.32-.15-.22.15-.23,1.1-.83,1.27-.51.15-1.24-.36-1.82-.33-1.43.08-5.45.06-6.47.45-.57.22-2.39,2.66-3.22,3.32-2.91,2.29-9.3,4.16-12.83,4.51-3.67.36-6.09,1.08-9.3-.9-2.64-1.63-5.18-6.73-5.69-7.05-.73-.46-1.92-.22-2.66-.52-.65-.26-.64-1.05-1.15-1.31-1.81-.95-4.21.79-4.31-3.73,2.08.58,3.8-.59,5.72-1.45.55-.24.12-1.5,1.76-.43.16-.53.29-2.01.59-2.26.57-.48,1.99.72.82-1.48,1.19-.02,3.6-1.3,4-2.36.28-.72-.28-1.2-.25-1.58.03-.34.89-.21.92-.56.43-4.04.89-2.4,2.39-5.05.38-.67.31-1.76.54-2.05.99-1.2,7.61-2.56,9.53-4.04,2.1-1.61.85-1.79,1.43-3.44.8-2.24,4.79-4.56,6.11-5.87,1.5-1.5,1.08-2.92,1.17-3.07.14-.21,1.1-.23,1.27-.82.16-.53-.38-1.27-.34-1.82.27-3.68,1.64-10.05.83-13.48-.08-.34-.79-.29-.89-.68-.52-1.97.18-4.57-2.6-4.83-3.47-.33-2.82,1.84-3.21,3.93-.13.73-1.85,1.79.16,1.72l-.93,1.39c1.74-.16,1.67,6.74,1.28,7.39-.11.19-.88.39-1.22.86-1.17,1.63-3.06,2.86-3.25,3.13-.2.29.02,1.04-.16,1.19-.26.22-1.12-.05-1.68.21-.53.24-1.08,2.3-2.48,1.74,1.13,1.96-.02,1.59-.3,2.05-.27.46-.11,1.12-.19,1.21-.15.18-.96-.54-1.64-.04-.97.71-2.44,3.33-3.29,4.22-1.44,1.5-2.05,1.7-3.15,3.19-.75,1.02-1.36,2.19-2.65,2.02.14.42.55.92.25,1.38-2.09,3.18-5.87,7.1-7.72,10.66-.34.64-.27,2.06-.61,2.37-.24.21-1.07-.04-1.22.13-.29.31.16,1.38-.13,1.75-.11.14-1.07.19-1.56.55-.96.71-3.44,2.94-4.06,3.18-.33.13-1.14-.57-1.33-.38-.22.22-1.51,3.43-2.72,4.2-.25.16-5.19,2.11-5.56,2.15-.82.09-2.31-.32-2.65-.22-.5.14-3.07,1.58-4.34,1.71-.75.07-2.45-.72-2.93-.27-.14.13-.02,1.06-.51,1.57-.41.43-1.39.49-1.85.97l-6.26-.4s-3.04-.42-3.74-.42-7.61,1.52-8.16,1.52-5.26.83-5.67.97-1.52-4.01-1.52-4.01l2.49-2.77,5.12-3.87s-4.57.28-4.98.28-5.26.14-5.67.14-1.8-2.91-1.8-2.91l.14-6.64,3.04-.83,2.35-3.87,4.98-2.63,4.84-1.52,2.77-3.04,3.94-3.1.8.11.51-.99c1.7,1.37,1.87.18,3.58-.16,1.17-.23,2.82-.26,3.9-.54,2.7-.71,3.4-1.12,5.59-2.86,1.11-.88,2.47-1.37,3.36-2.01,3.07-2.19,4.52-5.47,7.46-8,.62-.54,2.54-1.73,3.03-2.19.48-.46,1.35-1.02,1.4-1.09.81-1.14-1.12-.64-.93-1.39,2.59.53,1.54-.87,1.98-1.3.22-.21.89,0,1.16-.24.61-.53,1.1-2.28.61-3.15l.93.48c.7-2.65-2.02-4.43-3.9-5.92-5.49-4.35-8.36-5.66-12.31-10.93-1.83-2.44-2.45-3.78-3.4-6.45-.54-1.52-.64-3.6-1.51-5.18-4.63-.56-8.69,1.45-12.85,3.13-.58.24-.67.82-1.03.96-.91.34-5.11.68-5.27,1.27l-4.14-.67-5.53.83s-2.86-1.29-3.14-1.29-4.61-.65-4.89-.65-3.51,2.03-3.51,2.03l-4.15,1.58-3.06-3.99-5.88-.92c-.37.07-.32.71-.57.78-2.2.67-3.62,1.39-5.7,2.18-.25.1.18,1.19-1.54.3l-.03,1.37-1.85.04c-.33,2.77-.99,5.85-1.68,8.64-1.95,7.95-2.56,10.46-7.05,17.3-.74,1.12-2.03,4.53-3.44,3.55.43,1.85-.94,1.2-1.64,1.86-.52.5-.59,1.73-.74,1.85-.06.04-.83-.36-1.39-.24-.9.2-.9,1.02-1,1.07-.42.21-3.48-.25-5.24,1.03-.44.32-.13,1.09-.39,1.34-.24.23-.92.02-1.18.2-.11.07-.85,2.32-.89,2.54-.18.92,1.06,1.96-.49,2.15l.32.8c-2.5.17-1.44,1.17-2,2.23-.48.91-2.4.71-1.26,2.48h-1.41s.26,1.43.26,1.43c-.21.42-2.07.4-2.5.62-.11.06-1.67,1.64-1.8,1.66-.13.02-2.54.05-2.67.03-.33-.04-.32-.77-.68-.92-.34-.15-7.03-.89-7.39-.8-.6.15-.48,1.17-1,1.28-.53.11-1.27-.37-1.79-.28-2.24.36-1,1.6-1.58,2.37-.85,1.13-4.34,2.45-5.76,3.08-.34.15-.37.74-.7.84-.59.17-3.2-.64-3.42-.41l-.07,1.31c-2.72,1.6-4.92-.75-6.82-.73-.88,0-1.42.8-2.15.7-.84-.11-4.97-2.53-5.38-3.29-.2-.36.55-1.85-.56-2.49-.69-.3-1.38.31-2.06.22-5.79-.81-6.44-3.67-8.72-8.37,1.6.45,3.48-1.1,4.55-1.28.57-.09,1,.35,1.06.34-.05-.35-.11-1.08.07-1.33,1.51-.33,2.57-1.4,3.83-2.06.43-.23,1.13.1,1.19.04.15-.17.72-2.2,1.12-2.88,1.27-2.2,2.75-4.53,3.93-6.58.33-.58.66-2.24,1.25-2.96,1.92-.86,3.7-2.23,5.7-2.96,2.12-.77,3.64-.99,5.74-1.75.79-.28,2.34-.33,2.81-.71.28-.22,1.01-2.12,1.52-2.8,1.28-1.69,1.33-1.91,2.13-3.34,1.02-1.85.5-.88,1.49-1.44.14-.08,0-.56.83-.75,2.66-.63,3.08-.52,5.76-1.69.76-.33.27-1.2,1.03-1.09l-2.41,4.6-2.27.08c.81,2.77-2.95,8.61-6.01,7.61l-.33.84c-3.97-1.04-6.38,1.42-9.22,3.27-1.37.89-1.53.95-2.41,2.11-1.61,2.15-2.31,2.69-3.26,5.23-.09.25-1.15-.07-.3,2.01-1.75-.33-2.65,2.15-3.7,3.09-.94.84-2.34.22-1.92,2.07-1.77-.91-1.2.23-1.76.42-1.65.56-3.17.67-4.79.98.4,2.63,2.06,2.63,3.99,3.75l.23-.93c1.13-.61.85.92,1.17.95.85.08,1.25-.6,1.88-.73,1.57-.34,3.16-.62,4.62-1.43.42-.23.99-.16,1.12-.27.13-.1-.72-1.64,1.03-.86-1.24-2.51.68-3.69.48-6.08l3.74-.26,2.27,3.31c-1.83,1.16-.59,2.68-1.23,4.3-.07.17-1.64,3.04-1.81,3.28-1.54,2.21-4.27,3.23-6.71,3.41l.02,2.32c1.96.94,3.22-.17,4.48-.31.7-.08,1.5.49,2.21.36.22-.04,2.85-1.66,3.45-1.84.93-.27,1.61.43,2.21.42.28,0,.26-.68.38-.75.25-.13.7.13.82,0,.47-.48.44-1.22.75-1.56,3.05-3.17,3.78-4.02,5.75-7.93.38-.75,1.47-5.42,3.1-3.36,1,1.26-.13,4.26.23,5.85l.93.23c.41-1.92,2.57-2.01,1.41-4.21l1.42-.3.45-4.85h1.4c-.76,1.77.87,2.47.92,2.67.13.53.27,2.56.25,3.2-.03,1.1-1.74,3.95.69,3.96-.4-1.21.79-1.35,1.03-2.06.3-.89-.06-1.69.09-2.28.66-2.59,1.72-4.84,1.22-7.82,1.42-1.66,1.82,5.28,1.68,6.08-.26,1.48-2.28,3.51-.05,4.52.61-.15,1.47-.34,1.92-.75.53-.48,2.02-3.33,2.04-4.07.08-2.42-1.73-3.75-.61-7.12.68-2.06,2.38-1.39,3.41-2.8,1.27-1.73.97-4.12.97-6.16,1.79,1.15,1.24,3.44.93,5.14,5.17.43,3.22-4.44,3.04-7.47-.03-.55.53-.95.5-1.18-.06-.6-1.28-1.27-.51-2.13,1.34-1.39,1.11.34,1.63.68.25.16.83-.2.89-.13.11.13,1.28,2.89,1.32,3.05.18.78-.13,3.41-.32,4.35l1.87.49c.4-1.65-.12-3.19,0-4.91.22-2.94.94-4.99.17-8.21-.11-.44-2.46-3.34.29-2.55,1.78.51,1.13,1.58,1.45,2.17.68,1.24,1.54,3.39,1.66,4.85.04.56-.95,1.32-.76,2.09l1.87.47c-.67-1.5.27-2.66.35-3.61.14-1.62-.66-3.29.59-4.81h-1.41c1.09-3.1-.63-5.48-.93-8.43.26-.29,2.18,1.4,2.24,1.52.16.35-.29.97-.09,1.29.64,1.03,1.93,1.87,2.08,3.27l1.18-.47-.26-5.8c-2.04-.64.66-1.84-1.42-2.42l.48-4.09,2.35-1.97-.96-.49.5-2.08c.79-.73,3.66,3.06,3.85,3.87.24,1.03-.51,1.93.59,2.67,4.89-2,4.89-8.51,2.12-12.4-.31-.93.63-.8,1.15-.69,2.23.5.98,1.62,1.38,2.8.14.42,1.66,3.91,1.81,4.08.36.4,1.94.82,2.19.58-.42-1.04.84-1.45.86-1.61.15-1.22-.5-4.44-.39-5.55.03-.31.75-.31.92-.67.8-1.71-.52-4.62-.44-6.65,2.99.15,3.14,3.63,4.44,5.63l-1.16,7,1.62.03c0-1.05,1.03-1.43,1.07-1.52.14-.37,0-.44.42-1.46,1.33-3.18,2.44-9.12,1.94-12.73-.03-.19-1.43-2.26-1.64-3.35-.21-1.12,1.34-1.6-.96-1.64l-3.86-6.94c2.73-.32,2.45,1.13,3.28,1.98.39.39,2.8,2.78,2.82,3,.15,2.09,1.21,3.55,2.38,5.87.16.33,1.28,1.98,1.32,2.13.5,1.8.72,5.04.46,6.86l.98.52c-1.58.23-1.41,2.95-.24,3.03.55.04.37-1.15.54-1.4,2.42-3.56,2.76-9.22,2.02-13.79-.18-1.11-2.12-2.23.48-2.59l2.11,4.21c1.88-2.52-.58-5.15.22-7.67-1.58-.01-.26-3.4-.49-3.53-.22-.13-.94.11-1.26-.12-.35-.25-.27-1.15-.74-1.64-2.09-2.18-4.95-4.08-7.78-5.01-.61-.2-1.36.69-1.53-.61l-.83.33-.03-1.59c.12-.49,3.06-.8,3.47-.72.35.06.32.74.65.87,2.61,1.03,6.3,1.68,6.68,5.18,2.01.32.36-2.76-.02-3.4-.99-1.67-.28-.87-.54-1.67-.06-.19-2.96-1.6-2.27-2.87l-.91.45-.97-2.79-1.39.26-.46-1.67,3.42-.46c.54,1.1,1.32.64,2.35,1.48,1.77,1.43,4.33,7.29,4.76,7.42.23.07,1.2.16,1.18-.28v-2.07s2.32,0,2.32,0c.45,2.22.35,4.96,1.18,7.05.65,1.65,2.81,2.02,1.64,5.12l-2.33-.46-.02,1.64,1.43.24-.36.84,2.22,2.24,1.65-.65c1.37.37,1.63,3.4.46,3.65-.95.2-.89-1.08-1.26-1.29-.48-.27-3.25-.63-4.11-1.04l.07,2.76c1.82-.27,1.09.9,1.44,1.31.29.34,1.29.18,1.8.79,1.37,1.62,1.37,4.52.42,6.37-2.57-.06-1.88-2.92-3.24-4.39-.41-.45-1.11-.18-1.33-.41-.5-.56.29-1.56-2.44-1.76.17,1.07-.08,1.25-.95,1.64v.69c1.78.56,3.19,3.16,4.49,4.21.81.66,2.35.24,2.81,1.87.09.31.17,2.54.09,2.7-.08.15-.68.18-.83.45-.33.6-.28,1.6-.58,1.91-.49.49-2.26-.03-1.75,1.98l4.71-.2,2.56-2.62c.79-3.16,3.09-6.98,3.83-10.66.15-.73-.55-3.26.37-3.35,1.25-.12,1.72,2.36,1.88,3.25.52,2.76,1.39,7.8.66,10.42-.11.38-.83.35-.83.56,0,.39.68,3.11,1.1,3.06l.78-1.3.84.37c.54-1.83,1.23-3.46,2.07-5.44.06-.15.59-.21.71-.54.82-2.36.11-6.4,1.46-8.99,1.08-1.08,1.29,2.92,1.44,3.38.12.36.75.33.86.71.77,2.56-.03,6.73.03,9.48l2.05-.43c1.23-2.25,3.78-5.76,3.94-8.35.09-1.55-1.72-3.74.33-5.24.79.36.23,1.05.39,1.29,1.6,2.43,4.05,5.4,3.8,8.75-.07.88-1.84,2.1,1.19,2.12-.9-1.9.5-2.1.8-3.11.26-.88-.07-3.53-.37-4.49-.72-2.32-1.53-5.46-2.53-8.07l1.93-7.5c.04-1.26-1.37-1.28-1.88-2.08-.47-.73.33-2.84.2-3.76,1.99.32,3.12,2.15,3.98,3.74.36-.18.47-1.28.45-1.64-.02-.32-1.51-4.75-1.64-5.01-.28-.59-1.85-1.43-2.18-1.92-.29-.44-.4-1.06-1.08-2.06-.29-.43-.3-1.31-.53-1.47-.59-.43-2.17.67-1.81-.99,1.76-.98,2.21.3,3.32.66.8.26,1.12,0,2.16.58.15.08,2.42,2.23,2.49,2.38.62,1.32-.14,5.85,3.15,3.09-.61-1.29.21-.92.51-1.49.57-1.07,1.28-3.3,2.4-3.36l-.93-2.1c1.3-1.5,3.25,3.5,3.29,4.25.07,1.25-1.07,1.81-1.32,2.86-.55,2.32-1.27,7.86-1.31,10.2-.01.86.9,2.82.75,3.98l1.63-1.86,1.64,2.1-1.35.96c.77,1.44-.2,3.89.17,5.13.25.84,1.13,1.04,1.43,1.66.06.13.31,2.23.41,2.45.42.93.62,2.07,1.68,1.74-1.08-1.69.27-1.26.37-1.63.14-.51-.51-3.38-.37-3.52l2.61.45c.15.22-.19,4.54-.13,5.32.03.44.82.96.83,1.93,0,.67-.5,1.34-.5,1.85,0,.27,3.3,2.36,2.34,4.49l1.87-1.17c.16-.4-.82-.04-.94-.53-.06-.24-.36-4.67-.32-5.02.07-.7.95-2.33,1.73-2.63.98,3.33,1.5,7.36,1.41,10.76,1.09.31.79-.28,1.07-.59,1.19-1.32,1.52-2.25,1.27-4.09h1.87c-.66,2.35.69,2.13,1.13,2.79.15.22.21,2.5.56,2.85.57.57,1.9.44,2.29,1.84,1.26-.59-.12-2.09.45-2.8,2.78-3.45,1.51,6.68,4,5.15-1.03,1.21.85,3.73,2.11,4.2,1.75.66-.64-3.12-.7-3.55-.18-1.22.41-2.29.46-3.47,2.38.22,2.65,2.15,2.34,4.19l1.4.02c-1.29,3.68,2.42,2.4,1.4-.94l1.91.22c.09,2.44,2.82,3.92,4.03,5.54.39.53.4,1.12,1.49,2.47.32.4.28,1.23.65,1.49.68.48,1.56-.7,1.34,1.92,1.86-.3,1.06,1.08,1.62,1.5.35.26,1.36.21,1.53.47.26.4-.1,1.38.04,1.94.12.48.95.46,1.16.83.85,1.51.77,2.15.83,3.48.36,8.04-.83,14.24-2.86,21.58l.9.88c-.82,1.36-.87,4.2-2.01,5.27-2.54,2.36-3.75,3.52-6.99,5.76-2.53,1.75-6.68,4.28-8.82,6.43-.45.45-1.7,2.43-2.19,2.94-.74.76-4.12,3.14-4.22,3.39-.28.71.28,2.37-.24,3.72-.37.95-3.72,3.91-1.45,4.54.88.25,3.05-.72,4.38.03l-.47-1.4h1.41s-.48-1.41-.48-1.41l1.37-.03.1-1.81,1.26-.13.09-1.32,1.89.25c-.09-2.17,2.59-2.09,3.14-2.74.24-.28,1.64-2.6,1.8-2.71.99-.69,2.15.13,2.77-2.29,1.89.23-.54,2.84-.59,3.1-.6,3.09-.32,4-2.16,7.03-1.96,3.22-4.34,6.42-8.48,5.79l.23.93c-1.61-.56-3.91-.62-4.61,1.24-.73,1.93.46,1.33,1.14,1.75,1.86,1.17,1.49.37,3.14.75.58.13,1.23,3.32,2.9.02l.93,1.38c.93-.08,2.56-1.67,2.72-1.74.45-.19,1.01.28,1.6,0,2.93-1.4,7.61-5.92,10.31-6.11,1.16-.08,2.28.62,3.54.37.28-.06,3.67-3.62,3.96-4.07,1.37-2.08,2.14-5.8,3.16-8.12l1.63.02c.13,2.57-.92,5.84-.95,8.18-.01.96-.27,1.37.95,1.18l.59-2.26,1.3-.08-.51-1.59,1.01-.56c-.73-2.94.49-5.68.46-8.86-.01-1.41-1.43-5.94.73-6.27,1.16-.17,2.26,4.45,2.41,5.47.55,3.69.23,8.08.11,11.82.65.72,1.95-1.75,2.2-2.24,1.01-1.98,1.41-3.76,1.76-5.48.17-.82.75-1.37.71-2.29-.1-2.41-1.96-6.05-2.85-8.32-.74-1.89-1.79-4.57-2.9-6.81-.13-.27-.99-.32-1.19-.89-.3-.85.01-2.06-.07-2.99,3.55-.25,4.36,4.51,6.84,6.29,2,2.57,1.46,5.4,3.45,8,.25.34,1.37-.93,1.38-1.01.03-.2-.38-3.66-.47-4.03-.62-2.68-3.55-9.91-5.11-12.66-.17-.3-2.11-2.14-2.31-2.56-.38-.78-.92-2.43.2-2.73.76-.46,2.98,1.79,3.51,2.49.32.42.24,1.22.51,1.62,2.61,3.92,1.92-2.49,3.71-3.12-1-.65-3.8-5.01-4.33-5.25-.2-.09-.79.38-.82.33.44-1.69-1.64-1.47-2.49-2.83l-.79-1.85c1.78-.71,2.25.71,2.72.88,2.9,1.03,4.47,1.6,6.41,4.27.65.14,1.05-.42,1.07-1.07,0-.22-1.56-3.33-1.79-3.74-.65-1.11-5.45-8.5-5.9-8.81-.83-.58-3.45-.63-2.99-2.77.25-.26,3.65.96,4.2,1.28,1.92,1.11,3.41,3.94,5.35,5.58.7.59,1.7-.5,1.22,2.5h2.35c.41-.41-1.07-6.57-1.48-6.94-.08-.07-.7.29-.87.14-.44-.38-.4-1.18-.77-1.58-1.89-1.98-5.93-3.76-7.03-5.36-.22-.32-.13-.85-.15-1.25l-1.16.94-.24-1.4c.18-.18,4.18.36,4.88.62.24.09,1.56,1.37,1.82,1.49.94.45,4.58,2.22,5.18,2.12.84-.54.63-2.69.28-3.4-.28-.58-.99-.56-1.15-.82-.23-.37.27-.9.11-1.29-.06-.14-2.16-1.7-2.39-1.83-3.38-1.94-6.59-2.56-10.28-2.97-.2-.02-.62-1.47-1.72-.95l.79-1.42,8.81.59c.08,1.2,3.51,1.31,3.04.14-.22-.53-2.46-3.52-2.97-3.82-1.62-.97-3.58-.22-4.31-1.99-2.05.46-3.81-1.21-6.06-1.88-.51-.15-1.09-.82-1.42-.82-.44,0-.8,1.07-1.62.78v-1.41c-1.08.59-2.26.3-3.38-.04-.34-.1-.29-.65-.68-.84-.12-.06-2.11.75-1.55-1.22.31-1.08,4.68.23,3.68-2.74-.29-.88-2.61-1.55-3.22-2.42l.93-1.16c-3.34.19-2.9-.43-3.89-2.56-.41-.89-.71-1.9-1.04-2.57-.76-1.51-2.08-2.64-3.02-4.01-.43-1.41,3.56-.32,3.68-.16.22.29-.1,1.16.19,1.67.41.72,2.54,2.1,3.03,3.3.41.99.31,2.31.14,3.36,1.09-.39,1.44.89,1.71.95,2.55.57,1.64.48,3.38,1.19.57.24,3.52.92,3.77.69-.4-.53-.06-2.13-.13-2.25-.08-.13-.68-.23-.98-.6-.52-.65.06-1.76-1.7-1.36v-.93s.93,0,.93,0l-3.27-4.44c1.47-1.93,2.48,1.12,3.26,1.78,1.69,1.42,2.63.87,4.66,1.23l.51-1.14-.95-.51.4-.89c-1.75-.6.04-2.5-1.82-1.88-.63-1.83-2.37-2.96-3.32-4.66-.42-.75,0-1.28-.04-1.42-.15-.42-2.16-1.05.57-2.58.88,2.54,5.02,2.49,7.02,4.01l.94-.5-2.31-5.07c-2.58-1.43-3.72-4.18-5.11-6.67-.83-1.49-2.44-2.69-1.93-4.87l3.58,3.2,7.88,4.3c1.31-1.57-.96-3.2-.48-5.17-1.75-.47-1.11-1.72-1.21-1.8-.74-.62-3.24.2-2.52-1.48-1.2-1.42-3.24-1.37-3.44-1.46-.31-.16-2.09-2.19-1-2.73-.84.34-1.89-.44-1.87-1.17.04-1.69,5.09,1,5.38,1,1.01,0,1.71-2.23,3.03-1.7.74-.79-2.57-4.66-4.21-3.27l-.04-1.35c-3.23-.58-6.94-3.1-6.51-7.08,1.96.93,6.15,1.76,7.49-.46l-1.19-.45c.61-.86-.95-2.64-1.64-3.07-.41-.26-1.04.18-1.4-.04-.28-.17-.24-.85-.84-1.1-1-.44-2.71-.9-3.83-.97l.47-.93c-2.27-.66-5.49-1.74-4.45-4.69,1.13.49,2.15,1.22,3.48,1.18.87-.03,1.31-.81,2.22-1.04.85-.21,2.21.52,3.1.33.36-.08.27-.84.65-.93.64-.16,1.5.15,2.15-.11.14-.05,2.35-1.19,2.45-1.28,1.06-.93.28-1.62.21-2.83-.76-.2-.27.62-.57.81-.44.28-1.12,0-1.6.29-.32.19-1.79,1.67-1.91,1.69-1.89.4-4.47-.73-6.21-.45-.13-4.79,4.18-3.02,6.67-3.77,1.06-.32,3.04-2.57,3.25-2.64.29-.1.86.35,1.3.12.3-.16,3.9-5.15,2.82-5.88l1.4.46v-2.34c-2.19,1.8-4.63,3.59-7.48,3.75-1.17-3.51,1.76-2.94,2.71-3.85.35-.34.27-1.13.53-1.47.21-.27,2.23-.85,2.37-1.59.2-1.03-.19-3.66-1.16-4.33l-.28.85-1.35-.39v1.41c-.5.62-2.4-1.51-1.72-2.71.09-.16.74-.27.94-.61.82-1.43,1.47-2.84,2.19-4.32.13-.27.72-.33.76-.43.59-1.42.39-4.55-.03-6.03-.32-1.12-.45-.25-.89-2.44-.46-2.31-2.47-5.15-4.99-5.46.83,2.31,1.91,4.61,2.23,7.25.35,2.89-.65,3.96-1.53,6.33l-1.6-.51c.48-1.49.28-3.06-.57-4.36-.33-.5-1.05-.57-1.32-1.13-.5-1.07,0-2.55-.37-3.68-.5-1.5-4.09-4.16-5.68-4.91l.42-.87-1.4.93c.12-1.39-1.17-1.01-1.99-1.43-.34-.17-.37-.75-.48-.79-.72-.32-4,.85-4.92,1.15-.57.19-.48.94-.88,1.04-.55.14-1.95-.44-2.85.16-.45.3-.65,1.58-1.21,2.07-.4.34-1.36.18-1.72.85,1.16,1.14,1.75.19,2.68-.05.33-.09.82.25.98.16.19-.11,1.42-2.17,2.2-2.13.34.01.73.9,1.15,1.06.46.18,1.63.69,1.73.72,2.98.7,6.24-.82,7.65,3.51.15.75,0,.76-.68.68-1.53-.19-3.23-.31-3.79-1.87-1.83,1.44-3.75.98-5.74,1.75-3.77,1.46-4.1,4.21-5.25,7.63,1.39.31,1.1-1.3,1.54-1.73.13-.13,3.06-1.48,3.41-1.53.48-.07,6.01.34,6.43.45.42.11,1.13,2.3,3.13.95-.94,1.89.57,1.49.84,1.96.3.52-.04,1.32.11,1.91.1.4.78.29.89.64.15.49-.3,2.46-.31,3.19-.05,2.3.23,5.89-1.22,8.05-.98,1.46-5.07,5.04-6.48,5.66-.3.13-.78-.43-1.22-.28-.12.04-1.16,1.84-1.48,2-.45.23-1.08-.25-1.55-.12-.69.19-.95,1.1-1.98,1.31-.9.18-4.61.17-5.53,0-1.3-.24-3.4-1.05-5.61-1.39-.27-.04-4.11-1.85-4.37-1.9-7.69-1.26-15.99,1.72-23.8,1.92-1.46.04-1.9-1.07-2.4.47-1.61-.78-4.59.11-5.64-.65-.62-.45.61-1.28-1.78.16l-.25-1.39c-2.07.91-3.87-1.61-4.56-1.86-1.19-.41-2.96,0-4.1-1.34-2.48,1.56-.1,4.71.25,6.93l.9-.46.47,1.63c-1.03,1.2-3,.14-3.5-1.17l-1.17.93c.31-1.49-1.2-1.98-1.62-2.84-.28-.57-.28-2.99-.36-3.13-.1-.17-2.62-2.72-2.8-2.79-.35-.14-1.92.41-2.61-.27-.56-.56-1.02-3.54-2.91-2.21l.47-1.4c-3.78.01-2.8,1.76-1.21,4.02.29.41,1.49,1.13,1.52,1.22.49,1.24-.32,2.62-1.88,2.26-.13-.03-1.87-1.76-1.94-1.88-.08-.14-.44-2.22-.75-2.91-.3-.68-1.3.02-.43-1.78-2.12.61-2.41-4.19-1.87-5.62h-1.41s.48-1.4.48-1.4l-1.69-.46-.42-1.82c-2.37,0-1.66.9-2.25,1.64-1.48,1.85-.87,1.09-1.75,3.1-.23.53-1.36.11-.87,1.24,2.45.9,1.54,3.88,1.93,5.43.07.29.79.18.85.53.04.3-.15,4.53-1.18,3.91-.75-.64-.44-2.04-1.64-1.88l.93-.69c-.36-.47-1.1-.55-1.42-1.04-.47-.72-1.96-5.63-1.85-6.43.23-1.58.63-3.8.4-5.64-.15-1.21-1.67-5.36-1.61-6.08.05-.55.92-1.32,1-2.08.06-.55-1.1-2.03-.27-3.31l-2.29.07c-.09.36.01.86-.2,1.15-.7.94-3,2.69-3.58,3.82-.48.92-.25,2.79-.7,3.41-.62.85-2.48-.58-1.31,3.24.36,1.18,1.48,2.08,1.51,2.21.52,2.48.41,5.52-.4,7.89-.23.68.16.8-.98.67.21-1.65-2.53-3.74-2.73-5-.08-.49.6-.98.63-1.59.24-4.83.49-5.49,1.56-10.06.47-2.03.48-4.92,1.01-6.91.1-.37.61-.35.93-.32-1.99-1.54.34-3.17.31-3.97-.01-.33-.74-.78-.8-1.38-.02-.2,2.94-1.55,1.89-3.06-1.63.17-.52,1.53-2.8.47l.47,1.4c-1.84-.47-1.8.71-2.52,1.26-1.24.95-3.6,2.81-4.45,4.76-.68,1.55-1.62,4.68.85,4.31-.28,1.73.06,4.07-.47,5.69-.08.24-1.68,2.21-1.75,2.36-.24.47.55,1.13.38,1.29-1.2,1.12-1.46-1.16-1.54-1.24-.32-.36-.95-.47-1.22-.9-1.49-2.34.65-7.42,1.22-9.93.61-2.72.94-4.98,1.26-7.38.06-.42,1.52-2.15,1.64-2.44.81-2.07,1.07-5.08,2.87-6.49l-.47-1.3-.94-.28-.24,1.43c-1.03.13-3.19,2.08-3.83,2.95-.32.44.08,2.26-1.57,1.03-1-.74-1.63-10.33-.44-11.96,1.25.77,1.08,2.87,3.06,2.8l1.03-.76c-.74-1.29.52-1.03.57-1.39.21-1.51-.3-6.57-1.49-7.53-.15-.12-.71.3-1.04-.11-.29-.36-1.18-2.9.21-2.61l-.93-1.64c.86-.3,1.93.51,2.54.47.13,0,.6-1.63,2.15-.95.48-2.71-2.74-1.95-3.91-2.4-.26-.1-1.69-1.41-2.55-1.44l.37-8.8c2.74.19,1.95,1.23,2.44,1.77.24.26,1.05-.04,1.35.38.15.22,1.28,3.27,1.42,3.39.36.3,1.39-.15,1.75.15.11.09.02.83.39,1.31.75.97,3.35,2.17,4.48,3.27.49.48.35,1.31.8,1.66,1.68,1.28,11.87,4.28,14.2,4.93.43.12.29.96.56.95,1.15-.03,3.36-2.77,3.76.48,1.98-.18,4.08.16,6.04-.05.86-.09,3.5-1.15,4.61-1.24l11.56.32c.78-.84-2.88-4.92-1.87-6.54l-1.4-.02c.16-.86.35-1.56-.03-2.42-.47-1.1-4.32-6.83-5.68-7.29-.34-.11-.81.45-1.22.29-.44-.18-1.92-2.3-1.12-3.11-3.13-1.85-6.11-5.36-9.69-5.8l-.09-1.27c-2.06.32-1.54-1.54-3.41-.48-3.92-3.32-16.13-2.74-21.48-1.8-1.2.21-2.11,1.19-2.97,1.3-1.31.17-1.76-.7-2.31-.75-1.26-.12-2.38,1.18-4.42-.71l.38-1.29c-1.26.09-1.04-1.61-1.42-1.86-.36-.24-1.21.1-1.68-.16-.36-.21-.63-1.61-1.2-2.09-.49-.42-3.08-.81-2.12-2.42.83-1.4,2.39-.2,2.89-.19,2.8.05,4.25.37,6.88,1.84.47.26.23,1.64,2.08,1.07.55-1.51,2.31-2.09-.17-2.83l.44-1.08-.93-.48c1.56-5.71,5.97,1.27,8.64,1.14l-.7-3.74c1.13-.29,2.78-.32,3.62.62.22.25-.08.82.69,1.43.93.74,2.39.44,3.4,1.24.52.07.84-2.35.25-2.82l1.59-.42,4.73,3.69.23-.93h.94s.22.93.22.93l.47-.94c.49,1.58,1.34,1.01,1.64,1.21.35.23.35.91.54,1.07.33.27,1.37-.52,1.99-.46.52.06-.05,1.19.74.98l.24-.93c1.02,1.75,3.29,3.03,5.38,2.8l-1.25-4.11c-.99-.27-.86-1.64-1.05-1.74-.76-.41-2.52-.99-3.35-1.4l.04-1.16-1.83-.07c.22-.4-3.37-4.08-3.66-4.15-1.32-.31-4.81-.55-5.85-.96-2.94-1.16-9.71-1.37-13.27-.95-.86.1-.61.83-.9.89-2.44.51-3.69-.02-6.65,1.18-.27.11.09,1.35-1.55.3l-.02,1.37c-2.87-.74-2.53,1.42-3.4,2.24-.25.24-.89.14-1.06.32-1.47,1.6-3.53,3.74-3.48,5.92-2.83.25-4.14-2.35-5.99-3.24-.73-.35-2.06-.13-2.76-.65-.49-.36-.64-1.51-1.05-1.89-1.45-1.35-3.51-2-5.16-2.41-.66-.16-1.22-.85-2.05-.74-.26.04-.28.65-.49.78-.42.26-1.14.03-1.25.44-.15.58.2,1.5.03,2.23-.08.35-.87.28-.94.64-.15.78.49,1.98.01,2.95,2.19.27,3.54-2.33,5.86-.94.59,1.28-2.62,3.13-.92,6.08.6,1.03,3.03,1.61,2.55,3.29-2.31,0-4.34-1.81-6.55-.93v-1.41s-1.4.48-1.4.48c.37-1.82-.73-1.29-1.53-1.88-.31-.23-.28-.74-.71-.91-1.22-.49-5.22-.59-6.65-.49.05-.82-.15-1.77.01-2.56.34-1.62,1.56-1.08-.02-3.05-1.26,2.03-1.51.87-2.68,1.25-.44.14-3.73,3.03-3.99,3.12-.7.25-1.1.11-1.74-.16-.61,3.79,2.31,4.23,5.38,4.21l.23.93c-1.24.56-1.42,1.2-3.04,1.16-1.75-.05-1.65-1.11-1.95-1.16-1.37-.23-3.09,1.61-3.45-.91-2.35.58-1.22,1.48-1.49,2.21-.04.1-1.56,1.02-1.62,1.17-.73,1.73.43,1.56.74,2.14.56,1.07.73,2.99,1.91,1.96-.28,1.57.94,1.41,1.42,2.33-.88-.18-1.01.89-1.4,1.12-.35.2-.9-.21-.92-.17-.14.24.15,1.1-.14,1.75-.06.14-1.74,1.8-2.04,2.19-5.58,7.28-8.85,15.5-12.82,23.32-.51,1-3.12,1.48-.93,3.78.96,1.01,3.1,1.6,4.39.76.93-.61,1.67-2.12,1.74-3.23,1.11.87.8-.37,1.22-.48.4-.1,4.46.19,4.62.44l-.26,3.78-3.27-1.4c.42,1.35-1.77,2.58-2.81,1.87.85,3-5.79,4.28-1.9,6.37l-.44,2.06c1.7-.23,6.09,2.28,7.63,1.89.56-.14,2.73-3.98,5.28-1.44,1.12,1.57-5.6,4.92-4.48,7.51,2.13-.6,6.03-.06,7.29-1.88,1.99,1.08,1.32-.07,2.35-.86,3.88-3,3.85-1.57,7.44.86,2.33-3.88,1.85.87,3.82.89,1.06-.53,2.37-1.68,2.03-2.91.21-1.86,4,3.14,4.67,2.49l.95-2.12-.95-.46,1.18-1.18c-.07,1.74.94,1.05,1.51,1.54.07.06.93,1.31.97,1.4.14.36-.57,1.69,1.03,2.21-.22-1.22,1.1-.7,1.42-1.24.53-.88.24-2.26.26-3.21,0-.32.49-.69.46-.91-.07-.67-1.25-1.83-.73-3.06,1.48.27,2,3.2,2.48,3.63.27.25,1-.04,1.31.4.12.16,1.1,3.66,1.12,3.86.13,1.07-.65,5-2.28,4.73-1.61-.27-.6-2.31-.83-2.69-.11-.18-.81-.2-1.07-.58-.38-.54.08-1.51-.73-1.39.37,1.55-1.49,2.01-2.18,2.96-1.11,1.52-1.57,1.78-1.98,2.27-.21.25-.96,2.42-1.48,2.93-3.08,3.03-2.02-3.9-2.34-5.57-.15-.76.32-.83-.92-.71.11.53-.83,2.38-1.08,2.67-.25.3-5.24,4.57-5.59,4.72-.46.19-1.04-.44-1.23-.31-.15.1-.16.8-.52,1.06-.22.16-.79-.19-.87-.09-.18.22-.07.94-.34,1.25-.76.88-2,.77-1.61,2.39,1.05-.3,1.75.28,2.08-.89l1.67.42-1.3,1.6.37,1.67c1.54-1.6,2.38-.24,4.14-.04l2.16-2.29c1.44,1.68.28,4.35-1.61,4.97-1.04.34-3.93-.05-5.65.49-.48.15-3.54,2.35-3.63,2.6-.54,1.53.92,4.62,1.3,5.98,1.5.13,2.27-1.45,3.31-2.08.43-.26,1.1-.12,1.47-.3.45-.22.38-.91.6-.91,1.82,0,1.11,1.66,1.22,2.05.06.23,1.64.9.89,2.65,1.22,1.3,2.55-3.84,4.51-4.16.32-.05,2.03.93,2.07,1.19.36,2.24-2.06,1.99-2.32,2.78-.26.78.12,1.85-.06,2.67-.05.21-1.62.7-.93,2.19-1.29-1.36-1.45-.27-2.08-.24-2.75.11-1.35.23-2.49.67-2.17.83-2.49-.26-4.7.93-.65.35-2.99,1.24-3.27,1.53-.12.12.24,2.96-1.49,2.74v.92c1.37-.2,1.18,1.94,2.1,2.34h.68c.63-2.8,2.61-.32,3.53-.2.78.11,1.59-.9,2.01-1.16.27-.16.97.07,1.37-.16.57-.33,2.36-3.84,2.54-4,.45-.4,2.31.3,2.29-1.49l1.84,1.15-.84.29c.91,1.8,0,2.69-.62,4.24-.11.27-1.77,3.36-1.93,3.51-.16.16-3.62,2.02-3.9,2.03-1.15.05-1.78-1.19-2.99-.95.48,2.23-3.09,2.36-3.29,3.14-.23.9-.07,2.52-.18,3.57-.13,1.24-1.05,2.12-.28,3.59,1.5-1.58,2.8-.32,4.68-.46l-.47,2.8c2.42.3,2.51-2.56,2.96-3.17.19-.26.95-.37,1.26-.78,1.06-1.37.85-3.07,3.26-2.6v4.22s-.93-.48-.93-.48c.44,1.97-2.09,1.92-3.4,2.81-1.35.91-5.11,3.52-5.96,4.6-1.26,1.58-2.38,2.69-1.41,4.77l2.8-1.41c-.23,1.68.44,2.5,2.07,2.83l1.88-2.38c2.64-.75,4.51-2.93,6.61-4.65l1.12.72c-.43,3.7-2.3,6.01-5.64,7.41-.54.23-1.71.25-1.78.33-.19.2.13,1.14-.16,1.7-.18.35-3.05,2.44-3.13,2.81-.17.74-.24,2.61-.21,3.46.01.5-.06,2.36.65,2.28.45-2.9,3.34-4.55,5.35-6.38.23-.21.92-.07,1.1-.28.28-.34,0-1.09.14-1.26.09-.12,2.61.05,2.77.68l-.95,2.56-.91-.45c.42,1.9-.92,1.15-1.3,1.51-.36.36-1.7,2.56-2.22,3.16-.48.56-1.27.75-1.51,1.07-.71.94-.11,3.5-.61,4.67-.26.6-1.1.06-.92.81,1.82.32,1.04-.21,1.37-.71,1.15-1.73,4.52-2.97,3.78-5.82,1.89.37,1.13-.84,1.52-1.3.53-.62,6.85-4.88,7.74-5.23,1.39-.53,3.52-1.23,2.91,1.03-.14.5-4.58,2.37-3.28,3.6l-1.37.03-.05,1.85-.93-.48c.82,1.96-.42,1.6-1.27,2.51-2.3,2.47-5.19,9.76-5.64,13.77-.2,1.81.09,1.07-.44,2.7-.36,1.09-.61,2.3-.67,3.46l-1.35.04.48,1.4-1.3.08c-.54.47.04,2.98-1.5,2.74l.92,1.16c-1.24,1.16-3.29,2.02-2.81,3.98l-.93-.47c.27,1.21-1.35,4.44.46,4.22l-1.2.9.27,1.43c-2.79-.38-1.57,4.43-1.9,6.3-.23,1.27-.63,2.64-.91,4.15-.07.36-.81.25-.93.66-1.04,3.68-.62,1.65-2.96,3.85-.61.57-.56,2.21-2.2,2.37-.62-2.02,2.28-4.28,2.57-5.55.28-1.22-.63-4.44-.55-5.86.04-.74.64-4.9.79-5.61.08-.36.9-.29.88-.51-.27-3.8-.09-1.81,1.27-4.13.87-1.5,1.4-2.5,2.3-3.6.27-.33,2.57-1.29,2.9-2,.42-.89.05-2.55.09-3.59-.59-.48-1.66.02-2-.07-1.53-.43-1.17-.43-3.37-.7-1.2-.15-6.69-2.4-8.28-3.03-.36-.14-.36-.92-.63-.92-1.13,0-1.74,1.54-1.64-.88-1.34.67-1.11-.71-1.42-.93-.19-.13-.97.59-1.27.37-.14-.11-.18-.75-.6-1.08-.65-.51-1.74.1-1.37-1.68l-.92.47v-1.41c-1.88.86-3.04-.52-4.81-1.09-1.41-.45-2.98-.08-4.33-1.72-.07,2.08-3.92,3.44-4.68,1.4-.19,1.3-1.97,1.35-2.12,1.72-.66,1.53.25,5.89,0,7.35-.07.38-.87.31-1.07.87-.16.47-.3,3.3-.51,3.62-.25.38-1.03.49-1.21.75-.51.74-.97,2.18-2.35,2.8-.82.37-1.35-.23-1.77-.14-.33.07-1.16,2.13-1.33,2.23-.74.42-3.57.85-4.24,1.54-.2.21-.06.82-.27,1.09-.7.93-1.79.32-.76,2.7-1.47.45-.42,1-.77,2.06-1.28,3.8-3.1,4-5.42,7.08l-1.27-.37c-1.74,3.18-6.95,2.95-10.02,3.41-.73.11-1.65.98-2.65,1.02-.83.03-.96-.79-1.67-.99-1.34-.38-3.18.87-3.7.71-.45-.14-.52-.96-.91-1.25-.9-.69-1.76-.15-1.72-2.71l1.37-.26c-.51-1.66.81-2.9.96-3.98.03-.24.1-3.9.07-4.19-.13-1.52-1-4.71-1.04-6.1-.02-.88.94-.44,1.03-1.36.23-2.42-.92-7.95-.53-10.25.05-.32.83-.23.94-.64.13-.5.92-3.59,1.08-3.79.7-.92,1.56-.09.81-2.89h1.41c-.4-2.05-1.2-.85-2-1.36,0,0,1.01-5.41,1.29-5.96s6.92-3.87,7.33-4.01c.42-.14,1.66-2.63,1.8-3.04.14-.41,1.8-5.26,1.8-5.26l-1.94-3.74,4.98-5.53,4.57-3.46s4.98-.69,5.81-.83c.83-.14,7.33-1.8,7.33-1.8l5.67-3.18,9.68,1.94,4.7,1.11,6.09,1.52,3.46-3.18-1.66-3.04-.87-3.71-.48-.93,4.22-.48c.66-.78-2.2-3.15-2.81-3.51l.93-1.16-1.39-.71c1.62-1.01.42-2.35.65-3.55.16-.84,1.03-.89,1.08-.99.1-.21-.32-1.64.12-2.41.28-.5,1.02-.17,1.28-.42.5-.47.39-2.44,2.48-2.24.28-.36-2.59-2.72-2.67-2.9-.1-.22.23-1.87-.17-2.83-.2-.49-2.26-1.05.06-2l-1.35-2.42c.78-1,.6-2.2.89-3.08.14-.43.85-.33.91-.67.18-1.02-1.01-2.01.94-2.76-1.1-1.87.2-1.42.43-1.95.48-1.14.65-2.47,1.38-3.56-1.03-2.28-3.75-3.3-3.23-5.92-1.18-.57-.78.9-1.22.97-.18.03-3.13-.14-3.6-.19-.9-.1-1.97-1.61-3.59-.31.55-.92-1.83-2.9-1.87-3.15-.08-.46.39-.99.2-1.55-.05-.13-1.33-2.29-1.44-2.37-.91-.65-2.69-.33-3.22-.53-.28-.1-.23-.73-.8-.97-.94-.39-2.17-.45-3.15-.83.5-3.6.04-6.23-2.73-8.62-.16-1.3.83-3.16.86-3.75.02-.32-.86.03-.99-.9-.43-2.92.93-3.13.99-3.4.18-.87-.44-1.81-.21-2.51.54-1.58,3.71-5.95,4.38-7.39,2.34-5.03,6.74-13.31,10.15-18.35.45-.66,1.72-.01.69-1.85l.9-.49c-4.15-.79-1.29-2.71-.95-4.47.36-1.91-.36-4.61.03-6.44.05-.23,2.67-3.2,3.08-3.57,1.13-1.01,1.75-.95,2.7-.98.35-.01.22-.83.6-.92,2.45-.63,3.82.78,5.49-2.35.07-.13.43-2.09.67-2.65.2-.47,1.42-3.2,1.57-3.31.13-.09.85.18,1.45-.1.76-.35-.15-1.26,2.86-.9.53.06,3.25,1.22,3.45,1.46.46.55-.69,2,2.06.77,2.07-.93,3.55-5.6,4.63-7.42l.9.46c-.2-2.55,1.94-1.81,3.14-2.5,7.69-4.4,14.5-7.15,23.34-9.87,1.18-.36,3.19-.32,4.53-.78.35-.12.7-1.4,2.17-.95l6.22,1.25,7.93.37,3.69,2.21,4.43,4.06,11.25,1.85,4.24,7.19,3.69,9.41s2.4,7.38,2.95,7.38,6.09,4.06,6.09,4.06c0,0-4.8,5.53-3.69,6.09,1.11.55,2.58,9.04,3.51,9.22.92.18.48,7.71.48,7.71Z"/>
      <path d="M147.81,49.43c.11.06.08.64.47.77,1.65.56,4.1-.59,4.34,1.9l1.16-.94.49.96c1.83-1.12,1.51.19,1.76.28,3.75,1.48,3.74,2.62,6.56,5.62.41.43,1.17.35,1.75.95,1.13,1.18,1.76,3.19,1.84,4.81-.99.27-1.24-.88-1.86-1.11-.5-.19-1.22.14-1.75-.13-.32-.16-2.02-1.85-2.25-1.9-1.44-.35-3.35.93-3.49.81-.17-.14.38-1.12-.47-.93l-.48,2.33-.7-.94-1.4.87c-.97-.93-1.77-2.32-3.04-2.93-.64-.31-1.35.84-2.11-1.2-.96.83-1.8,1.54-1.65,2.94.11.54-.84.42-1.15.34-.29-.07-2.97-4.27-3.8-4.66l-2.29.93-.47-.96-1.4,1.29c-.28.02-1.21-.57-1.46-.82-.9-.9.59-1.62-1.53-1.44.48-1.07-1.31-2.52-2.4-2.31l.45-.9-1.61-.52-2.58-4.19c1.34-.73,2.23.37,3.01.41,2.51.13,14.49-.18,16.06.66Z"/>
      <path d="M93.95,50.4c1.2.75,3.69,3.56,1.32,4.52-1.63-3.12-4.51-2.86-7.46-1.84-1.92.67-4.94,2.01-1.69,3.47,2.35-1.85,4.2-2.22,6.8-.22s.45,2.94,2.35,4.67l.91-1.76c2.94.49,8.26,1.2,5.4,5.03-.72.17-.25-.61-.8-.91-1.58-.83-4.94-1.41-5.97.37l-1.17-.41c.73,2.15-4.76,3.09-5.78,2.75-.13-.04-1.82-1.7-1.92-1.84-.09-.12-1.12-1.91-1.38-2.35-.54-.9-.55-2.07-1.46-2.77-.05,1.21-1.64,1.01-2.01,1.53-.22.3.02,1.09-.12,1.22-.31.29-1.8-.11-2.48.04-.54.12,0,1.15-.76.95-1.3-3.82,3.18-3.85,2.34-7.02l.93.48c-.87-1.92.36-1.37.84-1.96.09-.11-.33-.62-.24-.74.75-.91,1.96-1.09,2.1-1.2.3-.22.38-1.02.79-1.27,1.26-.8,3.26-.49,3.45-.57.1-.04-.11-.74.75-.85,1.25-.16,4.2,0,5.27.67Z"/>
      <path d="M110.22,79.06c.57.54,3.33,4.16,3.34,4.84,0,.89-.83,1.03-1.1,1.77-.71,1.98.1,1.09-1.37,3.1-.55.75.64,1.71-1.78.83-.42-1.12-.09-2.24-.35-3.43-.06-.29-.79-2.21-1.27-2.24.7,1.93-.74,2.19-1.01,2.99-.6,1.77-.9,3.63-1.35,5.43-1.5.42-1.25-1.2-2.74-.96-.4-2.85,3.22-4.36,1.35-7.45h1.88c0-2.68-.92-4.43,1.21-6.57,1.78.23,2.1.64,3.2,1.68Z"/>
      <path d="M235.38,168.77c1.83,1.82,5.79,7.65,3.39,9.89-.74.69-1.46-.23-1.44.99.03,2.11.92,4.59,2.84,5.68-.64,1.83-.92,3.69-2.59,4.87-.17-1.34-.19-3.06-.74-4.31-.37-.85-2.76-3.26-3.15-3.96-.61-1.11-.11-2.32-.18-2.42-.22-.32-2.75-1.17-3.19-2.18s.67-.54,1.03-.57c2.56-.24,1.41.58,2.51,1.22.89.53,2.12.65,3,1.46-.03-1.51.77-2.66.27-4.23-.56-1.79-7.21-5.9-1.76-6.43Z"/>
      <path d="M102.38,120.61c3.54,3.18-2.23,7.94-2.67,11.08l-.92-.47c.01,1.36-.36,2.14-1.88,1.88-.14-.92-.14-2.62-.48-3.38s-1.83-1.02-1.36-3.35c.07-.35.75-.22.87-.6.06-.2-.29-.73-.13-1.09,1.31-3.07,1.86-4.31,4.16-.95,1.42-1.04.76-2.27.7-3.73.64-.08,1.26.21,1.72.62Z"/>
      <path d="M236.27,160.4c2.43.85,3.94,4.43,4.86,6.5.2.44.88.41.91.67.12.94-.76,1.62-.77,2.29,0,.31,1.32,1.78-.44,2.56-1.6.71-.78-1.4-1.94-1.53-.15-1.58-1.14-3.34-2-4.81-.6-1.03-4.17-4.92-3.31-5.82.91.01,1.78-.16,2.68.15Z"/>
      <path d="M108.1,103.65c.65,2.29,1.96,3.75,1.22,6.31-.31,1.08-1.26,1.79-1.45,2.53-.22.84.67,2.68-1.59,2.83v-1.41s-1.4.47-1.4.47l-.97-5.8.96-.57-.39-.89c1.49-.51.65-1.67.93-2.98l2.7-.48Z"/>
      <path d="M153.48,176.71c.16.15.05.95.31,1.31.41.54,1.23.31,1.66.8,1,1.12,1.03,4.04,1.4,5.42.11.39.81.34.89.67.59,2.46-.03,3.03-2.11,3.88l-2.27-4.73c-.18-2.13-1.43-4.75-1.69-6.74-.15-1.14,1.57-.82,1.8-.61Z"/>
      <path d="M185.27,142.6c.14.08.09.77.39.79,3.54.25,5.6-.34,8.25,3.16l.83-.35c-.5,1.35,2.07,2.34,1.88,3.5-.13.8-1.09.68-1.76.38-.28-.13-4.84-3.18-5.02-3.42-.27-.37-.24-.94-.25-1.4-1.5,1.06-2.14-.32-3.36-.61-1.77-.42-4.24-.81-5.99-.8-1.37-1.44,4.42-1.61,5.03-1.26Z"/>
      <path d="M227.68,194.71c.77.5,2.14,1.53,2.79,1.9.52.29,1.34,0,1.64.23.18.14.48,2.2,1.49,2.5l-.9.89.44,1.67c-.18.18-2-.29-2.44-.5-1.03-.49-5.69-4.89-5.96-5.93-.16-.62.01-1.35-.02-1.99,2.14-.64,2.23.74,2.97,1.23Z"/>
      <path d="M75.7,81.26s.15.5.56.76c.58.37,1.36-.53.62.9l1.3.78c-.81,1.33-2.24,1.17-3.39,1.67-.64.28-.4,1.96-2.69-.03l-.24,1.4-3.5-2.1c.85-1.78,2.25-3.71,4.44-3.78.15,0,2.75.35,2.89.39Z"/>
      <path d="M117.42,117.73c2.14,3.02,3.9,6.06,1.75,9.66-4.48-.64-2.22-2.4-2.61-3.82-.09-.32-.77-.24-.88-.66-.44-1.54-.72-3.19-.93-4.76l2.68-.42Z"/>
      <path d="M112.82,190.21c.09.13-.71,2.74-.9,2.97-.5.63-2.26.17-1.94,2.16-2.78-1.15-3.05,3.33-6.06,2.35-.81-.75,2.52-5.88,3.57-6.5s1.54-.06,1.94-.2c.06-.02.02-.61.8-.83.87-.25,1.72-.17,2.58.06Z"/>
      <path d="M143.63,179.06l-.83-.1v-.92s.88-.21.88-.21l-.43-1.2c4.06.4,5.6,7.16,4.23,10.55-1.97,1.85-4.32-6.58-3.85-8.12Z"/>
      <path d="M108.09,131.75c.9.35,2.49,4.37,2.34,5.71-.34,3.09-1.39,1.78-2.09,2.64-.31.38.64,1.96-.89,1.88l-1.97-2.8,1.73-5.4-.93-.92c.49-.46,1-1.43,1.81-1.11Z"/>
      <path d="M196.56,133.62l.06,1.81c-1.75.69-2.26-.68-2.49-.78-1.3-.55-4.17-1.32-5.73-1.55-1.91-.28-3.83,1.25-4.41-1.88,1.55.51,2.82-1.42,3.98-1.39,1.85.06,6.48,3.52,8.6,3.78Z"/>
      <path d="M166.98,177.27c.49.52,2.17,3.6,2.34,4.42.32,1.47-.31,3.29-.32,4.77h-1.4s.47-.93.47-.93c-.7.61-2.79-2.02-2.82-2.21-.11-.74.41-1.52.32-2.18-.18-1.3-1.85-7.36,1.41-3.87Z"/>
      <path d="M126.57,155.87c.11.26,1.1-.03.75,1.74l-1.63,4.03-3.5.94c-.61-1.46,1.34-3.41,1.39-3.6.38-1.65-.42-3.95.49-5.75,2.31.09,1.9,1.28,2.51,2.65Z"/>
      <path d="M238.15,155.22c.12.08,1.92,1.99,1.98,2.12.56,1.13.47,3.05-.68,3.83-1.47-.38-1.76-2.25-2.23-2.67-1.56-1.4-6.67-.95-3.86-4.8.94,1.19,3.67.79,4.79,1.52Z"/>
      <path d="M191.63,139.01c.8.53,1.69.96,2.65,1.11.96,1.29-5.25.71-6.07.23-.37-.22-2.45-2.39-3.15-2.56-.89-.21-2.01.1-2.95-.02v-1.4c2.9-.32,5.98-.04,8.56,1.52.58.35.73.96.96,1.11Z"/>
      <path d="M121.22,146.26c-.6,1.34.69,2.05.52,3.41-.11.86-.93,1.38-1.22,2.14-.21.57-.53,1.37-.66,1.76-.35,1,.68,2-1.34,1.4l-.31-.82-1.17.94c-.22-2.02,1.13-3.84,1.65-5.63.26-.9.52-1.41.58-1.62.07-.25-.33-1.5.11-2.11l1.84.53Z"/>
      <path d="M125.74,125.34c.23.14.76.8,1.1,1.03-.71,1.33.18,2.16.4,3.33.29,1.52.56,1.69.58,1.81.31,1.42-1.49,2.76-.49,4.39-2.23.23-.52-2.35-.95-2.79-.13-.14-1.08.29-1.41-.31-.38-.69-1.24-4.79-1.26-5.65-.01-.76,1.17-1.37.34-2.47.78-.2,1.14.34,1.68.67Z"/>
      <path d="M111.78,92.99c.27.31,1.72,3.2,1.74,3.63.04,1.31-.57,4.57-2.33,4.18l-2.09-3.93c.03-2.09.86-3.02,1.62-4.49.25.37.79.3,1.06.61Z"/>
      <path d="M99.25,152.28l-1.4-.47c.81,3.07-3.42,5.67-3.52,1.62-.02-.68,1.88-3.97,2.35-4.43.57-.57,1.94-.46,2.33-1.86,1.65,1.45-.39,3.53.23,5.14Z"/>
      <path d="M187.54,161.37c1.43,1.19,3.06,3.01,2.99,4.96h-1.41s.48.93.48.93l-1.82-.05c0-2.84-.77-1.95-1.95-3.44s-.54-3.55-3.26-3.06c1.45-2.13,3.51-.55,4.97.66Z"/>
      <path d="M102.45,37.21c1.19,1.84,4.48,2.78,4.29,5.53-3.69,1.54-9.9-4.23-4.29-5.53Z"/>
      <path d="M162.38,187.32c-.06.09-1.35.74-1.59.09.49-1.71-1.54-3.39-1.61-3.63-.09-.31-.55-3.41-.52-3.59.07-.4,1.66.01.5-1.69,3.06.03,4.19,7.33,3.21,8.82Z"/>
      <path d="M98.31,137.79c-.61,1.21-.2,2.68-.47,3.88-.09.38-.87.24-.86.54.01.28.49.67.33,1.08-.21.54-3.14,2.46-4.14,1.49-.67-.96,1.61-3.14,1.71-3.38.17-.39-.35-1.39.33-2.54.18-.3,1.28-.94,1.54-1.58l1.57.51Z"/>
      <path d="M100.65,159.78c.17,3.78-1.73,6.44-5.62,6.08-.61-.52,3.93-7.38,5.62-6.08Z"/>
      <path d="M135.02,135.25c.08.15.58.23.72.55.85,1.98-.34,2.89.02,4.75l-1.31.08-.31,1.34c-1.4-2.43-1.49-6.86-.47-9.36.87.66.91,1.75,1.36,2.63Z"/>
      <path d="M187.16,152.42c.18.2-.02.89.22,1.15.2.22.88.08,1.09.29,1.17,1.16,2.76,2.66,2.06,4.51l-4.32-3.89-4.57-2.19c-.03-.85-.24-.98.69-.93.67.04,4.62.84,4.83,1.07Z"/>
      <path d="M96.91,114.84c-.3.78.11,2.95-.03,3.44-.09.33-.73.32-.77.44-.1.38-.13,3.58-1.3,3.14-1.43-.73-1.84-3.52-1.18-4.77.25-.47.87-.51,1.1-.84.55-.76-.3-1.5,2.18-1.41Z"/>
      <path d="M144.15,136.87l.12,1.29,1.33.08-.41,1.18c1.22.09,1.04,3.59.17,3.97-.77-2.55-3.89-3.41-4.45-6.08l3.24-.44Z"/>
      <path d="M95.75,109.52c-.49,1.29-1.16.88-1.55,1.21-.18.15-.08,1.81-1.85,2.14-2.1.39-1.01-1.48-1.51-2.68.54.04,2.34-.84,2.64-1.1.23-.19.05-.92.27-1.13.34-.31,1.27-.03,1.5-1.09l1.1.76c.05.72-.39,1.28-.62,1.89Z"/>
      <path d="M112.77,155.98c-1.92-.41-1.83.63-3.22.98-1.56-2.8,1.23-3.23,1.4-5.62,2.34.96,2.58,2.31,1.82,4.63Z"/>
      <path d="M115.06,138.79c.19.28.25,4.73-1.54,4.59-1.8-1.8-.83-3.59-.22-5.61.36.31,1.67.87,1.76,1.01Z"/>
    </g>
  </g>
</svg>