<?xml version="1.0" encoding="UTF-8"?>
<svg id="_Слой_2" data-name="Слой 2" xmlns="http://www.w3.org/2000/svg" viewBox="0 0 361.57 438.98">
  <g id="_Крокодил" data-name="Крокодил">
    <g>
      <path d="M298.53,11.68c3.44.44,7.16,3.44,10.41,4.57,1.6.56,3.27-.61,4.1,1.98,2.66-1.07,2.8-3.98,3.99-5.75,1.02-1.52,4.43-5.56,5.84-6.45.47-.29,6.3-1.14,7.07-.99.66.13,1.55.35,2.06.79,1.96,1.69.64,10.52.95,13.56.18,1.72,1.08,5.39,3.01,5.41,2.77.03,2.34-1.34,3.55-2.11.26-.17,3.8-1.76,4.2-1.89,5.28-1.71,11.04-.5,12.96,5.15-2.65,3.35-5.16,5.1-6.61,9.36-1.85,5.43-.81,9.37-.04,14.78.22,1.57.14,3.29.45,4.67.81,3.53,1.04,2.91.16,6.78-.61,2.67-1.69,6.64-2.82,9.71-2.08,5.65-6.77,9.48-7.95,14.85-.13.59-.41,2.14-.37,2.61.06.72,2.54,3.61,3.26,4.21,1.18.99,2.01.68,2.61,1.12.95.69,1.44,2.11,2.6,3.03,3.05,2.42,13,1.96,8.39,8.46-1.11,1.57-5.52,3.68-5.15,5.11.2.76,4.45,3.15,5.17,3.77,3.19,2.73,6.93,6.68,4.35,11.06-2.75-.01-5.26,1.78-7.63,1.38-1.35,2.8,2.01,3.93,3.19,5.91,1.43,2.41,1.98,7.13.08,9.31-1.35,1.55-4.97,2.14-5.18,2.33-1.85,1.63.63,3.35.93,5.17.43,2.65-.11,5.98-1.5,8.29-1.02,1.69-3.01,2.16-3.84,4.56-.78,2.26-.23,4.43-.42,6.24-.52,4.89-.25,9.32-6.51,9.2-2.48-2.48-3.98-5.62-5.15-8.88-1.89-5.29-1.81-12.05-3.57-17.21-.53-1.55-.5-3.25-1.91-4.59-1.06-.66-4.68,3.07-5.82,3.83-.28.18-1.93,1.32-2.13,1.12-.46-2.14-1.04-4.19-1.23-6.4-.16-1.92,1.24-9.15-1.82-9.37-.21-.02-.59.54-.91.55-.74.02-1.29-.3-2.23-.13-.84.15-2.12,1.53-3.59.77-.24-.15-.92-3.81-.86-4.33.15-1.36,1.4-1.37,1.72-2.06,1.34-2.92.96-11.24-.91-13.79-1.81-2.47-4.55-2.86-6.29-4.89-3.22.71-6.09-.33-8.93,1.72-6.8,4.89-10.53,15.48-9.57,23.62,1.63,13.86,6.83,24.81,16.35,35.48.69.77,5.72,5.84,6.33,5.97,1.71-3.56,5.99-7.14,8.82-2.69,2.39,3.76.27,8.83,2.55,12.85.17.3,2.49,2.86,2.67,2.95.74.36.65-.36.82-.59,1.57-2.15,1.22-3.62,4.07-4.81,1.39-.58,3.46-1.3,4.7.01,1.69,1.78,1.58,12.17,2.38,15.4.7,2.82,3.5,5.26,5.99,6.58,1.96.02,1.89-1.4,4.21-1.35,4.47.09,5.4,4.94,7.13,7.89.32.55,1.24.62,1.36,1.08.74,2.87-2.29,5.88-2.27,8.33.02,2.25.76,5.92.85,8.43.52,15.89-.19,31.4-.02,47.3.04,4.2.24,5.57-.87,9.81-2.99,11.36-9.02,25.61-18.95,32.81-1.98,1.44-8.18,3.61-9.04,4.55-2.03,2.23-.55,4.8-5.03,5.7s-8.88-.4-13.3,1.27c-2.13,4.39-1.26,6.98,1.42,10.82,6.66,9.55,9.71,6.96,11.61,20.69.64,4.6.54,8.07.45,12.61-.09,5.1.13,7.97,1.35,12.69,1.16,4.51,4.92,13.19,8.67,15.94,3.44,2.52,2.68,1.67,5.66,4.88,2.3,2.48,7.5,6.01,6.82,9.97-.06.34-.74.33-.95.66-3.14,5.09-7.95,5.86-13.51,4.03-1.25-.41-1.73-1.53-3.11-1.62-1.84-.11-3.8,1.49-5.54,2-5.5,1.59-7.93-.99-12.25-3.8-1.38-.05-4.48,3.21-4.77,3.26-4.5.79-12.26,1.81-16.79,1.42-2.34-.2-6.57-1.73-8.84-1.83-2.99-.13-9.87,2.74-12.18,4.63-2.33,1.9-4.5,7.62-6.63,7.83-3.23.32-2.85-1.92-3.49-3.74-.13-.38-.82-.37-.89-.69-.28-1.28.61-2.62.16-3.75-1.09-2.78-5.52-.51-7.57-.95-.29,1.37-1.71,1.18-2.45,1.96s-.95,2.67-1.73,3.55c-1.04,1.16-3.24,1.87-4.81,1.6-2.76-2.35-3.06-6.33-2.21-9.69.31-1.23,1.75-1.89,1.75-2.03.03-1.65-1.18-3.93-2.81-4.55-.65-.25-5.04,0-5.77.16-.17.04-1.75,1.15-2.92,1.36-1.28.24-4.75.63-5.84.29-2.16-.68-1.41-1.59-1.65-2.82-.36-1.86-.52-2.47.41-4.55.38-.85,5.83-8.03,6.57-8.64.48-.4,8.21-4.92,8.72-5.09,1.44-.46,3.33-.3,4.79-.83,1.33-.48,2.43-1.86,4.16-2.04.64-1.34,1.91-2.83.75-4.23-2.44-2.95-8.63-1.22-10.04-4.24-.27-.58-.69-2.47-.59-3.07.05-.28.66-.34.89-.71,2.53-4.16,6.07-5.46,11.04-5.2,3.58.19,8.07.34,11.97,1.12,1.76.35,6.66,1.83,8.26,2.51,2.77,1.18,5.96,6.01,8.81,5.97.61,0,3.43-1.23,3.67-1.77,2.02-4.53-1.46-8.58-5.2-10.53-6.5-3.39-17.81-5.48-25.16-5.33-1.63.03-3.61.96-5.6,1-4.93.11-12.58.05-17.11-1.22-3.26-.92-8.28-4.26-9.9-7.37-5.04-9.71-3.05-22.53-14.94-28.6-10.54-5.39-19.17.24-26.88,7.23-1.09,4.89-7.29,14.73-6.19,19.51.31,1.35,3.4,7.68,4.24,9.11,3.63,6.14,15.33,15.14,21.98,17.34,2.87.95,7.24-.54,6.77,4.25-.26,2.67-1.51,2.05-2.79,2.73-3.05,1.61-14.47,3.8-17.97,2.11-.51-.24-.59-1.02-.75-1.09-.72-.28-3-1.04-3.75-1.21-5.82-1.32-5.55,3.78-10.89,4.71-3.5.61-9.29-3.11-13.31-3.4-2.37-.17-2.26,1.65-2.9,2.46-.08.1-.62-.2-.86-.05-5.85,3.59-9.86,2.08-15.94-.08-.64-.23-1.3-1.04-1.72-1.1-.34-.05-5.05,1.94-6.46,2.07-1.08.1-4.81-.87-5.22.7-2.56-.63-7.52,1.05-9.8,2.29-2.91,1.58-6.32,7.42-6.63,10.62-.15,1.56,1.48,5.95,1.18,7.3-.22.99-1.07,1.36-1.61,1.96-.2.23-.09.89-.28,1.07-.8.74-4,1.28-5.16.97-.23-.06-3.94-2.05-4.22-2.24-2.41-1.67-4.96-6.17-8.54-6.34-.29-.01-.74.5-1.15.54-4.4.47-6.19,2.69-8.92,6.15-1.51,1.92-.29,1.45-2.91,3.39-.91.67-1.1,2.05-3.19,1.59-.71-.16-4.54-3.95-5.01-4.74-.5-.85-1.34-3.17-1.49-4.16-.48-3.3,2.12-4.4-.06-8.23-1.56-2.74-7.44-.86-9.76.38-3.55,1.9-4.1,6.58-9.06,7.37s-7.41-1.24-8.08-5.99c-.34-2.39.39-8.75,1.73-10.73,2.67-3.97,5.09-8.33,8.35-12.09,1.66-1.92,8-6.22,5.62-9.02-1.77-2.08-9.17-2.55-12.14-4.25-1.99-1.14-4.13-4.46-3.58-6.77.34-1.4,3.17-5.22,4.51-5.82.77-.34,1.84-.09,2.23-.33.23-.14.44-1.62,1.24-2.28,1.78-1.47,8.39-1.82,11.2-2.37,1.47-.29,3.63-1.44,5.01-1.6,2.25-.25,11.1,2.1,12.08.67.16-1.05-.15-2.13-.62-3.06-.4-.8-3.66-1.99-4.93-3.26-3.25-3.24-.21-8.8,4.4-9.02,1.07-.05,3.09.64,4.35.74.59.05.93-.67,1.54-.59.94.13,9.4,2.85,10.24,3.34,6.48,3.8,10.08,10.49,15.19,15.47,3.46,3.37,10.33,5.03,14,1.12,3.13-3.34,3.55-7.6,4.27-11.73,2.41-13.76-.16-16.29-3.7-28.54-.99-3.44-1.37-7.06-.49-10.53.26-1.02,3.32-8.21,3.97-8.83,1.04-1,.4-.03,1.41-1.46,2.89-4.07,2.82-3.07,6.45-5.24,5.24-3.14,8.38-4.1,13.71-6.46,4.43-1.97,8.21-3.82,10.31-8.43-1.94-1.6-3.75-3.35-5.75-4.94-1.09-.87-.92-.47-2.11-1.36-6.64-4.98-10.74-11.15-15.63-17.5-.97-1.26-2.35-1.85-2.76-3.09h-.66c-1.23,2.14-3.64,1.13-5.17,1.49-4.88,1.14-10.23,1.53-15.48,2.17-1.85.23-4.44.99-6.07,1.01-4.64.06-8.36-2.35-14.01-.69-5.63,1.66-4.9,10.96-3.95,15.38.51,2.38,2.28,5.39,2.34,8,.11,4.38-2.43,12.41-8.19,10.51-1.11-.37-1.6-1.18-2.69-1.54-2.45-.82-6.19-.91-8.56-1.49-1.58-.39-4.07-1.94-5.63-2.12-1.01-.12-4.44.72-5.53,1.06-.42.13-5.39,5.58-5.91,6.37-1.89,2.89-2.75,7.19-4.54,10.35-1.97,3.47-5.62,4.83-8.55,1.62-1.5-1.64-3.75-7.55-4.13-9.84-.33-2.02-.37-12.73.07-15.12.24-1.28,1.47-1.24-.18-1.63,2.09-5.62-6.55-5.65-10.1-4.83-.27.06-.07.75-.91.85-7.62.87-11.21-5.47-7.6-11.82.89-1.57,3.2-3.94,4.51-5.32,3.42-3.61,10.11-7.11,7.9-12.79-2.75-.12-5.19-1.1-7.77-1.82-.6-.17-1.22.29-1.68.2-1.96-.38-5.14-3.17-5.35-5.35-.53-5.58,3.17-6.61,6.32-10,2.02-.12,3.4-1.2,5.65-1.7,5.98-1.34,13.94-1.92,20.07-2.3,1.14-.07,3.23.77,4.27.18.3-.64.96-1.36,1.04-2.04.17-1.41-.79-3.53-.8-4.53-.02-2.49.7-10.35,1.36-12.65.05-.18,1.84-2.88,2.05-3.1,2.62-2.93,6.4-.65,8.62,1.61l-1.43.96c.04,2.69-.92,5.05.4,7.55.62,1.17,3.98,5.17,5.09,6.13,4.43,3.86,7.37,4.25,13.06,2.98,2.04-.45,6.18-2.19,8.12-3.16,2.3-1.15,13.61-7.94,14.96-9.36.34-.36,1.77-2.55,1.79-2.78.03-.59-3.75-6.15-4.38-7.63-1.24-2.9-1.27-4.48-2.84-7.46-.37-.7-.38-1.97-.69-2.34-.47-.57-3.12-.86-4.06-1.32-.43-.21-2.01-1.27-2.49-1.62-5.14-3.72-4.36-9.32-5.56-14.91-4.14-.21-7.87-3.03-9.05-7.11-.67-2.33.19-7.38-.57-9.69-.85-2.59-4.34-3.01-5.2-8.41-.19-1.22.43-5.51.33-5.89-.08-.28-2.03-3.41-2.28-3.96-.47-1.04-.43-2.36-.98-3.51-.87-1.82-4.82-2-6.63-2.73-2.03-.82-4.5-3.07-6.81-4.05-3.13-1.33-7.55-1.84-10.69-1.56l-.43-.9-.69.02c.19,1.53-1.39.6-2.34,1.16-1.24.72-1.87,3.51-2.72,2.68-3.7,4.04-9.95,9.66-13.86,2.65-1.08-1.94-1.95-4.42-1.57-6.63.9-5.27,2.84-5.5,4.91-8.9,1.57-2.58,3-6.91,4.39-9.3.35-.6,1.25-.88,1.56-1.83.94-2.91-1.49-4.47-3.9-5.3-4.68-1.61-8.89,1.64-13.97-1.09-.37-.2-2.74-2.48-2.84-2.81-.25-.84-.24-3.66-.13-4.61.05-.41,3.83-6.47,4.28-6.96,3.12-3.35,8.38-3.81,12.08-5.71.3-.15,3.74-2.35,3.92-2.5.62-.5,3.04-3.28,3.27-3.9.66-1.79-.59-2.26-1.01-3.07-.15-.29.08-.97-.18-1.34-2.45-3.48-9.06-4.23-12.19-6.8l-1.61-4.89c.92-3.67,4.09-4.61,7.38-5.53,4.63-1.3,10.85-1.94,15.65-1.58,2.19.17,4.41,1.37,6.56,1.84l.27-.95h.92s.31.93.31.93c3.62-.03,7.2,2.2,10.69,3.27,1.72-3.45,1.03-7.11,2.63-10.72l1.83-.05c-.21-.57-.95-1.02.23-.94,4.13.26,10.69,4.02,13.19,7.18,3.17,3.99,3.16,8.43,5.93,12.51.09.13-.34,1.29,1.01,1.4.12,0,.18-.61.42-.75.39-.23,1-.05,1.21-.52s1.09-2.91,1.19-3.39c.19-.88-.23-1.84.02-2.87.59-2.39,2.21-4.02,4.7-2.33.59.4.19,1.11.33,1.33s.89.22,1.15.89c.41,1.03-.18,2.74,1.72,2.96.8-.02,3.63-1.97,4.01-2.67.85-1.57.03-3.41,3.05-3.46.14,0,2.22,1.35,2.33,1.44,1.96,1.62,3.33,5.23,6.46,5.19,1.39-.31.65-6.11,1.74-7.52,1.16.57,2.3-.06,3.36.09,2.27.32,6.26,5.63,7.33,5.78,2.91.43,1.67-5.08,4.04-5.4,3.39-.46,5.45,2.62,5.86,5.6,3.78.7,5.2-4.71,9.23-2.91,1.15.51,1.21,1.56,1.65,1.86,1.73,1.15,6.36,1.71,6.88-1.05.33-1.74-.35-3.9.43-5.77-.62-1.09-4.67-1.04-5.71-.46-.62.34-.72,1.07-1.14,1.34-1.98,1.26-5.5,1.21-7.54.4l.31-6.63c-4.05-6.35-9.84-1.16-14.85.83-.96.17-3.3-.73-3.35-1.88l2.36-7.24c-1.15-.99-11.13,4.67-13.62,3.45-1.98-2.3.43-7.48,1.77-9.77-1.46-2.32-3.48-4.52-4.42-7.16-.61-1.7-1.03-7.9-.79-9.7.37-2.73,3.01-4.87,4.1-7.14,4.7-2.6,7.91-4.81,13.21-5.35.29-.03.16-.72.52-.83.22-.06,4.29.47,4.51.54,1.42.43,5.11,3.95,5.89,5.39.73,1.35,1.13,5.67,1.89,6.36,1.63,1.47,3.76.64,5.44.73.79.05.65.83,1.05.95,3.58,1.08,13.82.72,17.64-.1.25-.05.25-.72.57-.77,1.15-.19,2.06.15,3.4-.28,2.41-.76,6.8-4.79,9.72-5.73s8.01-1.38,11.16-1.28c.62.02,1.35.72,2.33.76,1.11.04,2.12-.63,3.23-.5,4.91.55,12.17,5.17,16.69,7.21,6.56,2.96,13.51,5.76,20.14,8.89,3.17,1.5,3.9.21,4.78.35.97.16,1.14,2.07,2.47-.55,4.37,1.16,14.31-2.22,16.76,2.87.26.54,2.03,4.71,2.09,4.98.05.24-.51,4.43-.62,4.82-1.35,4.9-8.48,10.08-7.17,14.63.67,2.31,8.36,6.31,10.7,7.09.98.33,1.92-.05,3.56.65,3.73,1.59,6.03,5.44,4.6,9.46-.1.27-1.51,2.84-1.62,2.96-.2.22-4.35,3.44-4.61,3.57-.6.29-1.44.04-1.97.32-5.71,3.06-5.27,10.54-2.52,15.55,1.9,3.46,3.04,2.07,4.9,3.52.67.52,2.16,2.94,2.29,3.82.05.34.05,3.69-.06,3.84-1.12,1.58-6.45,2.67-6.85,3.01-.2.17-2.55,4.4-2.61,4.68-.18.75-.63,3.92-.74,4.84-.22,1.84-.04,3.36.42,5.15,1.37,5.32,8.46,8.72,6.03,14.62-1.66.55-2.43.25-3.91.2-2.48-.08-1.3-.36-1.85-.48-.96-.22-5.1.49-6,.96-.84.44-2.46,3.57-2.58,4.45-.27,2.01,1.51,9.75,2.29,11.94.53,1.5,3.23,3.71,3.9,5.1,1.91,3.99-1.68,5.5-5.02,4.45-2.34-.73-6.76-6.39-8.14-6.78-4.9-1.36-3.08,11.2-1.88,13.61,1.62,3.25,6.81,5.77,6.46,9.49-.55,5.85-8.61,3.69-10.22,5.02-.13.11-1.44,2.64-1.5,2.95-.74,3.89,2.12,7.3,4.96,9.49,3.24,2.49,5.14,2.69,8.08,4.11,2.41,1.16,5.02,2.57,4.67,5.53-.27,2.34-2.12,2.03-3.83,3.18-3.28,2.21-5.73,3.18-3.12,7.51.65,1.08,4.59,3.32,5.84,3.67,1.1.3,1.82-.15,2.66.09,1.22.34,8.46,2.22,8.81,2.52.77.68,1.02,1.67.92,2.69-.41,4.24-6.82,3.53-5.42,9.8,1.2,5.39,8.68,5.6,13.16,5.23.74-.06,1.35-.81,2.31-.73,2.16.17,1.56,3.96,2.42,5.64-1.08,2.86-4.9,2.12-5.35,5.48-.13,1.01.68,4.07,1.3,4.93,1.35,1.88,7.02,3.7,9.27,3.97,3.79.46,9.08-4.21,9.37,2.36.18,4.29-5.14,3.54-5.41,6.04-.36,3.35.59,2.75,1.98,4.39.43.51.47,1.29.86,1.71,2.19,2.36,7.72,2.29,10.14.35,1.24-1,1.61-3.47,1.9-3.69,1.83-1.43,4.2-1.37,5.63.55,1.77,2.36.12,5.34,4.12,7.46,4.17,2.2,8.39.2,11.3-2.99l.45-5.44c3.19-1.99,6.82-1.06,7.7-5.58.05-.25-.7-4.43-.84-5.06-1.24-5.58-4.79-16.9-8.25-21.14-2.75-3.37-8.21-5.02-12.45-5.04-1.07,0-1.73.13-3.11.12-2.13-.03-4.23.27-6.36.28-.5-2.67-2.42-5.04.09-7.29,2.46-2.2,10.75.74,11.02-5.21-1.71-.78-3.92-3.53-5.52-4.08-.57-.2-3.99-.98-4.58-1.04-3.53-.35-6.79,1.9-7.53-4.21-.46-3.78,4.6-2.59,6.94-3.39.24-.34-1.17-2.78-1.56-3.11-.22-.19-4.98-2.4-5.26-2.46-3.28-.74-6.26.13-9.52.41-.36-2.16-2.43-2.9-2.2-5.13.51-4.91,3.57-2.71,6.59-3.88l3.05-2.4c.03-1.31-2.27-4.32-3.28-4.73-.82-.33-1.64.39-2.49.27-.32-.05-.28-.73-.55-.82-.78-.26-2.4-.27-3.01-.83-.39-.37-2.68-3.82-2.75-4.35-.43-3.05,3.54-3.58,4.63-5.94.99-2.15-2.52-10.13-3.18-12.8-3.39-13.69-3.98-32.47-.38-46.13,2.4-9.13,13.96-20.85,21.53-26.53,7.84-5.88,18.47-9.7,22.98-18.7,1.89-3.78.85-12.49-2.4-15.41-2.85-2.55-10.27-4.14-13.91-3.16-.99.27-5.44,2.51-5.87,3.2-.16.26.32.9.14,1.32-1.05,2.5-4.69,4.22-6.51,1.38-1-1.55-2.03-9.31-1.43-10.98.34-.94,1.31-1.23,1.65-1.87,1.08-2.07,1.62-4.89,3.31-6.51,1-.96,4.49-2.14,1.8-4.23-.63-.49-5.87-2.51-6.69-2.45s-3.14,1.1-4,1.53c-1.49.74-3.84,3.59-5.67,2.71-3.23-1.55-.85-8.91.76-11.37,4.22-6.44,9.33-8.62,16.57-10.59,1.27-.34,1.58-.7,1.69-.71.83-.12,2.36.86,3.46.49,1.08-1.08-2.6-6.63-.7-6.54,1.36.06,2.37,5.3,1.64,6.54,2.45.22,5.34-.3,7.72,0ZM119.19,10.13c-1.07-1.13-2-4.14-3.45-4.78-.56-.25-2.79,1.1-3.05,1.65-.84,1.73-.24,6.61,1.66,7.71.88.51,7.75,1.94,8.41,1.44,1.31-.99-.72-1.8-1.11-2.58-.26-.52-.03-1.32-.32-1.96-.44-.96-1.91-1.23-2.14-1.47ZM111.33,17.02c-.56-.39-1.19-.54-1.66-.91-.96-.77-.52-1.84-2.32-1.96-.61-.04-1.65.36-2.34.39l-.55,3.39c2,1.29,3.09,3.15,1.41,5.2,1.34,1.17,2.18,1.88,4.16,1.37,1.61-.41,1.63-2.84,4.29-2.06-.25,1.17.52,2.45.45,3.49-.08,1.21-3.08,4.87.7,4.86,3.13,0,4.26-2.6,6.77-3.63.07,1.09,1.17.91,1.41,2.04.26,1.23-1.33,3.24-.71,4.73.31.69,1.26,1.1,1.95,1.14,3.67.21,3.92-4.88,5.96-4.55,1.38.22,2.11,1.7,2.05,3.01-.1,1.89-2.3,2.94-1.25,5.3,1.7-.87,4.17.51,5.78-.46.49-.29.17-1.03.42-1.3.22-.23.92-.07,1.12-.26,1.13-1.08,1.65-3,3.64-.29,1.81,2.47-.9,4.49-.42,5.6,1.17,1.43,3.5,3,5.27,1.74,1.18-.84.33-3.82,3.49-3.04,3.67.91.48,6.4,3.19,7.6,1.39.62,3.01-.5,4.49-.68.56-.07,1.44.46,1.54.39.32-.2.4-2.32,2.54-1.86.22.05,2.54,3.29,2.65,3.55.51,1.18-1.37.07-1.39.93,1.31,3.35,3.19-.04,5.75.53l2.19-1.23c-.28,1.52,1.31,1.84,1.6,2.33.08.13.74,2.78.77,3.03.23,1.74.26,5.14-.67,6.65-1.07,1.75-4.19,3.14-6.19,3.4-6.94.9-15.19-.53-21.97-.89-9.23-.5-23.56-2.15-32.32-.97-1.47.2-1.74,1.15-2.31,1.25-.42.07-1.04-.48-1.54-.2-.09.05-1.34,1.35-1.38,1.44-.41.85-.2,4.3.32,5.18.63,1.06,3.59,1.6,4.5,2.64l.67.02c1.37-6.69,4.63-.74,7.3.42,1.18.51,2.46.57,3.66.99.33-.03,1.81-3.27,2.38-3.75,2.45-2.08,6.3,2.89,8.43,2.83.58-.49,2.89-.43,2.98-.55.59-.76-.07-2.67,2.52-2.2,3.01.54,4.71,3.8,6.82,3.86,3.6.11,2.08-2.18,4.98-3,1.82,1.64,3.59,4.03,6.11,4.21,4.16.3,3.06-2.24,4.77-2.75.58-.17,3.83.29,4.47.51.34.12,4.72,4.76,5.04,5.26,1.98,3.03,1.25,6.47,1.37,9.86.04,1.01.71,1.66.75,2.34.03.38-1.77,4.97-2.13,5.62-2.45,4.4-5.29,7.25-9.97,9.22-9.33,3.93-30.19,8.3-36.86,15.1-1.1,1.12-2.1,2.59-3.27,3.86-2.35,2.56-5.1,5.81-7.49,9.12-1.5,2.08-3.51,2.42-1.32,5.7,1.84,2.75,5.16,4.75,8.24,5.82s4.41.45,7.09-1.6c2.72-2.08,1.87-2.97,3.01-4.73.35-.54,2.68-2.67,2.8-3.07,1.31-4.33-5.22-3.63-7.64-4.57.57-2.77,5.33-1.31,7.24-1.4,1.66-.08,3.67-.7,5.23-.76,3.26-.14,4.76.86,8.67-.32,6.1-1.84,4.96-4.27,7.51-8.89.35-.64,1.13-.73,1.22-.89.13-.22-.64-2.75.53-3.46.76-.54,8.75,1.44,11.01.79.31-.09,5.21-3.29,5.4-3.55,1.15-1.59,1.3-3.47,1.88-5.02.12-.31.72-.36.88-.76,1.67-4.25-2.93-2.33-4.17-5.23,2.93-.46,10.22-.29,12.37-2.38,1.67-1.62,2.16-6.92,1.57-9-.88-3.07-7.22-1.36-8.29-2.94-.61-.9-.26-2-.54-2.65-1.38-3.2-1.85-2.01-1.88-6.16-.01-1.42-1.06-2.65.76-4.02l1.4,2.8c.61,1.8,1.31,8.21,4.71,5.66,3.08-2.3.25-5.48.26-7.79,0-.5.9-3.29,1.63-3.46,2.23-.39,1.01,5.6,2.14,6.91l2.92.57c1.71-2.19-1.05-4.97,1.44-6.58.48-.31.35-.75.95,0,.94,4.02,1.58,8.36,4.74,11.25,1.7.31,1.75-1.01,3-1.69-.63-1.09-.67-2.62-1-3.58-.15-.43-.84-.34-.91-.68-.09-.44.04-3.84.7-3.87,2.3.68,2.49,3.04,3.54,4.31,2.81,3.41,7.16,5.94,8.9.14-.12-1.7-5.25-2.87-5.39-6.38-.08-1.87.63-4.49,3.03-3.01.42.26.64,1.2,1.17,1.64,2.07,1.7,5.11,2.92,6.36,5.12,1.84-.45,3.34-1.14,3.51-3.22.15-1.77-7.32-5.73-7.75-8.25-.12-.68-.16-1.9.44-2.33.67-.55,1.12-.1,1.68.24,1.57.95,5.89,4.55,7.22,4.89.19.05,3.72.25,3.91.21,1.74-.38,1.72-3.68.12-4.64-.89-.54-1.83-.31-2.58-.7-2.5-1.31-4.89-3.28-7.86-4.08-.48-.84-.54-2.42.34-2.96.78-.48,7.68,3.67,9.14,4.23,1.22.47,9.28,2.49,10.08,1.93,3.29-4.06-1.6-5.8-4.77-7.35-3.42-1.68-7.34-3.1-10.82-5.1-.4-.23-.48-1.32-1.73-.94l-.02-1.39c2.99-.8,4.12,2.1,6.8,1.88,4.75-.39,4.12-4.95.34-6.91-1.27-.66-7.41-1.89-7.14-3.15.33-1.54,2.95-.98,3.89-1.19.34-.08.26-.77.66-.9,1.75-.55,5.74-.07,7.47-1.12.77-.47,5.03-4.73,4-5.87l.84-.52c-2.41-2.12-3.77-1.49-6.78-1.2-2.54.24-4.43.97-7.51.75-16.11-1.17-29.98-14.86-44.99-15.44-4.63-.18-11.4,3.44-15.53,5.08-3.02,1.2-10.89,2.67-14.34,2.86-9.07.5-13.25-1.62-21.11-2.34-4.72-.43-7.93.62-12.56-2.63ZM290.73,19.09c-.58.38-1.12-.65-1.58-.68-.19-.02-3.07.21-3.73.26-4.72.3-5.59,1.46-8.9,4.71-.42.47-.28.93-.02,1.43.43.81,10.73,3.73,12.56,4.3.88.27,1.55,1.01,2.49,1.3,3.71,1.13,8.75.24,11.66,3.74l-.26,1.4c-4.24-.36-6.91-2.23-11.39-.91-4.95,1.46-6.49,4.14-8.89,8.26-.16.28-.78.38-.93.62-.14.22-.92,4.94-.74,5.13.85.16,1.46.31,2.35.25,1.95-.14,5.96-3.04,8.25-3.36.43-.06,5.8.28,6.48.41,1.55.29,11.52,6,12.41,7.15.19.25,2.6,5.45,2.67,5.76.69,2.99.12,8.55-.86,11.45-.13.39-4.78,5.86-5.27,6.29-1.23,1.07-3.15.87-3.47,1.2-.25.25-.16,1.11-.55,1.54-3.13,3.44-11.69,7.09-16.1,10.14-17.91,12.38-24.03,29.46-22.56,51.19.89,13.1,3.42,24.99,8.91,36.75,6.72,14.38,15.71,30.05,26.92,41.4.42.43.37,1.35.95,1.86.64.57,2.64.92,3.29,1.86s.21,1.92.54,2.51c.08.14,1.51.86,2.17,1.81,9.82,14.11,13.56,34.6,6.83,50.23-.51,1.17-2.09,3.97-2.88,5.08-2.34,3.31-8.29,4.06-7.1,9.15.24.75.88.8,1.57.81,2.09.04,7.53-.59,9.22-1.6s9.45-10.68,10-12.46c1.15-3.79-1.62-3.96-2.04-6.46-.38-2.25,2.46-4.31,4.02-5.72.5-.45,1.61-.71,1.85-1.08.61-.93.82-3.06,2.15-4.4,1.65-1.66,4.73-1.75,5.48-2.71.43-.54,1.41-3.37,1.54-4.11.66-3.65-1.51-2.46-2.84-3.76-2.93-2.87,2.09-8.02,1.63-10.35-.35-1.76-4.43-4.2-4.8-4.97-1.53-3.12,2.46-4.47-.91-7.98-.72-.75-2.84-1.73-2.99-1.95-.22-.32.46-5.24.15-6.45-.17-.67-1.43-2.58-1.97-2.83-1.06-.48-2.11.41-3.06-1.52-1.45-2.96.11-2.57.02-3.77-.01-.14-.95-2.53-1.04-2.64-.78-.95-3.58-2.32-4.85-2.45l-1.74-6.45c-.59-1.15-1.98-.78-3.01-1.23-2.27-.98-3.32-4.48-3.51-6.77-1.63-1.13-4.03-.37-5.43-1.59-2.6-2.27-.78-3.71-1.62-5.41-.2-.41-1.85-1.38-2.38-2.04-2.23-2.82-5.5-6.76-6.7-9.09-5.52-10.77-10.41-18.58-12.72-30.77-1.09-5.75-.23-13,.68-18.02.63-3.46,5.03-11.54,7.8-13.77,9.37-7.55,19.73-7.02,26.89,3.02,1.32,6.06,2.49,12.32.24,18.24,8.39,3.47,14.89-9.12,12.75-16.16.61-1.14,1.9-.65,2.88-.25.84,2.41,3.91,4.03,2.7,6.84,1.32.28.29,1.69.36,3.27.06,1.21.12,3.29.79,4.3.12.19,1.55,1.85,1.66,1.91.15.08,2.93-.26,3.28-.39,1.89-.7,1.47-3.5.39-4.91-.31-.41-1.06-.51-1.28-.81-.45-.6-1.86-2.78-1.8-3.39.21-1.98,3.88-2.5,3.56-5.54l-3.16-2.31c-.36-1.53-2.54-2.94-2.87-4.43-.26-1.2,1.76-3.44.86-5.38s-5.16-1.66-6.98-1.32c-1.13-1.14-.37-3.5-.72-4.18-.13-.25-3.96-3.13-4.49-3.41-4.06-2.18-14.43-4.25-18.97-3.64-1.33.18-4.32,1.37-5.6,1.89l-.31-.82-.86.36c-.42-1.93,1.11-1.66,1.99-2.35,3.76-2.99,10.13-5.07,14.16-8.41,2.21-1.84,4.16-5.29,6.34-7.24,2.33-1.17,4.42,3.23,5.45-.37.83-2.89-1.15-5.48-1.27-8.28,2.06-.66,5.44.79,6.34-1.87,1.16-3.43-2.03-5.76-1.67-7.67,2.1-1.99,4.75-8.03,4.13-10.85-.06-.26-.76-.22-.81-.58-.96-6.93-2.15-15.25-5.82-20.76-1.82-2.74.03-3.05-.77-6.05-2.01-.23-2.26,1.33-3,2.64-.13.23-.78.13-.73.39.06.3.72.73.72,1.39.02,2.16-.61,4.77-.24,7.02s2.54,6.55,2.65,8.53c.03.65-1.17,3.82-1.51,3.92-.94.23-2.71-1.88-3.05-2.56-4.53-9.27-10.76-17.41-21.75-20.13-1.02-.25-7.37-1.34-7.89-1.19-.37.1-.29.8-.38.85ZM33.65,58.2c-1.58-.66-3.73-.79-5.15.25l-.23,2.78c4.3,1.2,7.84,4.7,12.52,4.25l.31-3.26c-1.34-.14-2.1-1.58-3.09-2.07-.94-.47-3.36-1.53-4.36-1.95ZM96.25,64.85c-.31-.3-.4-.83-.84-1.02-1.48-.63-4.18-.57-5.6.36-4.64,3.06-6.74,17.95-5.8,23.01.23,1.25,1.07,1.15,1.27,1.61,2.24,5.2,3.95,6.86,6.53,11.26,3.06,5.23,4.93,11.96,10.13,15.51,1.72,1.17,6.08,3.66,7.82,4.53.13.07,2.56.55,2.8.54.45-.02,4.54-1.11,5.15-1.33,1.38-.48,7.19-4.62,9.13-5.59,9.36-4.67,21.48-7.22,29.72-13.61,1.37-1.06,2.79-3.24,3.79-4.07.3-.25,1.01-.04,1.21-.16.06-.03-.24-.61-.14-.92.69-2.05,1.37-2.92,1.07-5.33-.24-1.91-1.76-1.9-2.63-3.55-2.67-.68-5.74,2.85-6.45,2.87-.87.02-2.72-.38-3.49-.78-.64-.33-3.41-2.95-3.64-3-3.64-.81-4.03,3.91-8.45,1.51-.78-.42-.95-1.24-1.16-1.35-.55-.31-2.12-.66-2.93-1.41l-4.68,3.12c-1.85-.51-6.12-3.02-7.6-1.73-.38.33-.43,1.12-1.08,1.49-.12.07-2.47.47-2.68.42-1.16-.3-1.64-1.13-2.52-1.78-1.89-1.4-.64-.73-1.29-1.45-2.8-3.15-4.55,2.75-7.05,1.9-1.64-.55-2.05-2.62-3.82-2.87.77-5.84-1.55-3.85-5.09-5.68-4.54-2.35-1.49-6.17.92-8.76-.85-1.67-1.31-2.46-2.63-3.72ZM51.83,74.18c-1.46-1.85-5.53-5.12-7.98-4.74-.71.11-1.41,1.81-2.55,1.7,1.02,1.09,1.02,3.09,1.55,4.06.34.62,2.83,2.64,3.71,4.01.81,1.26,5.66,9.74,2.25,9.98-.88.06-4.68-3.65-6.12-4.25-1.85-.76-10.31-2.62-12.5-2.95-.51-.08-.95.57-1.32.57-3.74.01-9.66.09-6.71,5.59,1.03,1.93,6.54,5.62,8.67,6.21,2.45.67,4.44-.23,7.57,1.05,3.3,1.35,8.89,2.23,8.51,6.6-2.51-.91-1.91.05-2.71.43-.38.18-1.05.04-1.48.29-1.26.73-1.66,2.89-2.34,3.66-.4.46-1,.1-1.61.87-1.4,1.76-1.43,7.71,1.16,7.16,2.16-.46,2.53-1.96,3.45-2.58,2.21-1.49,6.19-3.84,8.85-3.6s7.5,3.05,9.61,4.82c3.08,2.59,5.19,5.43,7.35,8.56,2.96,4.29,4.71,7.65,7.97,11.92,2.78,3.65,5.21,9.89,10.43,4.71l4.73-6.75c.1-.05,1.67.98,1.86,1.19.65.71.09,1.83,1.17,1.61,1.43-1.64,2.4-4.06,4.93-3.74-.32-5.44-4.5-3.24-7.96-1.87-.3-1.96-1.07-5.58.94-6.81,1.01-.61,1.81.52,2.58-.2,1.45-2.44-4.38-6.69-5.65-3.26-2.23.26-3.89-4.72-1.84-5.64,1.42-.63,1.11,1.41,1.63.93,1.59-1.53.64-3.9-1.38-4.49-2.55-.74-4.71,1.93-5.54-3.64l1.8-1.47c-.89-.84-1.58-3.85-1.99-4.33-.11-.13-1.99-1.03-2.44-1.53-1.86.98-3.32,2.07-5.58,1.86s-3.32-2.6-5.78-2.91c-2.18-6.72-3.64-13.76-7.87-19.52-.49-.72-2.85-1.07-3.06-.17.13,1.53.23,3.5.62,4.95.67,2.43,3.54,4.74-2.18,3.69-1.07-3.83-2.33-8.92-4.74-11.98ZM65.98,69.38c-2.3-1.07-4.15,1.69-1.95,4.07,1.99,2.14,3.74.18,3.51-2.09-.03-.29-1.45-1.92-1.56-1.98ZM77.81,71.6c-1.85-.16-2.26,1.2-3.16,1.89-.34.26-1.02.22-1.38.58-.31.31-3.36,4.51-3.46,4.79-1.93,5.42,1.6,9.2,4.97,12.86,1.14-1.53.48-3.53.81-5.27.26-1.4,1.26-2.71,1.56-4.06.78-3.51,1.44-7.28.67-10.8ZM231.62,77.88c-1.38-.83-3.02-1.28-4.73-1.22-1.73.52-4.14,5.37-3.77,7.11.15.72,2.74,4.87,3.34,5.59,1.77,2.16,7.42,1.94,8.43-.89.84-2.37.59-7.12-1.16-9.05-.09-.1-1.89-1.41-2.1-1.54ZM219.99,83.91l-5.64-1.5c-2.61,4.06-7.32,2.59-5.26,8.85,1.5,4.58,3.67,7.22,8.77,5.49,2.82-.96,2.92-2.7,4.85-4.57.23-.54-2.2-7.88-2.72-8.28ZM205.61,89.86c-4.17-1.51-9.12-1.54-13.52-1.35-1.8,3.24-1.58,6.14-1.85,9.67,2.29,1.86,3.22,2.53,6.25,2.79,3.14.27,6.17-.59,9.03-1.82l.08-9.29ZM222.74,113.91c.92,1.17.9,1.8,2.58,2.85,6.07,3.79,7.22-1.97,7.68-6.77.26-2.72.04-7.34-1.54-9.72-2.6-3.93-9.54-2.01-11.74,1.62.28,5.27-.33,7.77,3.02,12.02ZM214.4,102.59c-1.33-1.45-9.57,1.32-11.37,2.24-.2,4.54-3.21,8.94-1.21,13.39,1.49,3.32,10,3.61,12.44,1.58.49-.4,2.92-4.24,3.03-4.93.29-1.79-.79-7.83-1.42-9.67-.13-.37-.68-.4-.86-.74-.29-.54-.2-1.43-.61-1.87ZM197.58,106.3l-11.06-2.78c-4.21-.46-5.6,5.75-6.71,8.88-.14.39-.68.34-.81.7l-.43,2.17c1.42,2.85,2.54,4.66,5.81,5.45,8.72,2.1,13.53-6.81,13.21-14.43ZM180.18,123.23c-.26-.34-3.51-2.12-4.05-2.26-2.7-.7-10.64-1.51-13.31-.68-3.56,1.11-3.58,2.89-4.82,5.97-.21.52-.91.59-.95.67-.08.17-.14,3.47-.05,3.79.57,2.01,4.44,2.79,6.28,3.09,4.61.74,8.58.34,12.7-1.94.87-1.3,1.61-2.93,2.47-4.21,1-1.49,3.24-2.39,1.72-4.41ZM221.38,141.22c.26-.57.06-1.26.27-1.83,1.33-3.5,1.32-7.52.79-11.38-.48-3.51-1.44-4.62-3.26-7.51l-3.65,1.34c-.83,2.34-8.02.75-8.54,3.34-.39,1.97-.32,9.09.06,11.19.25,1.38,1.75,3.7,2.76,4.73,2.54,2.58,5.14,4.52,8.67,2.58.47-.26,2.77-2.23,2.89-2.48ZM65.82,123.85c-1.57-1.94-1.55-2.6-4.38-2.63-1.01,3.14-.33,11.15,4.35,9.73,1.42-.43,2.01-4.94,1.22-6.16-.31-.47-.92-.61-1.18-.93ZM201.75,124.14c-2.92-2.04-11.78.03-15.21.49-2.4,5.67-8.72,13.96-1.48,18.77,4.4,2.93,12.17,3.09,15.37-1.48,2.15-3.07,4.03-11.31,3.08-14.85-.04-.17-1.62-2.83-1.76-2.93ZM154.75,135.57c-.48-.5-.67-1.2-1.32-1.72-2.44-1.95-2.72-.19-4.68.04-1.83.22-4.81-.92-7.45-.49-2.86.47-3.83,3.39-4.72,5.83-.29.8-1.33,4.19-1.39,4.84-.21,2.09.42,3.99,1.71,5.59l9.95,1.03c3.71-1.68,8.56-6.17,9.56-10.11s.48-2.81-1.65-5.02ZM336.92,134.8c-1.38.43-.53,4.74,1.39,4.2,1.4-.44.49-4.79-1.39-4.2ZM177.24,138.36c-.52-.94-.59-1.91-1.36-2.63-.67,1.43-2.14.44-2.49.58-.06.03-.06.7-.43.78-1.75.38-3.87.78-5.55.14l-1.12,1.29c-.36-2.33-4.54-1.47-5.8.05-1.06,1.28-2.35,7.85-2.14,9.51.06.47.61,1.98.88,2.28.31.35,5.43,2.61,5.87,2.63,1.05.05,1.95-.92,2.85-1.12,1.55-.34,4.33.53,6.14-.4.22-.11,2.89-2.77,3.16-3.16,1.63-2.26,2.45-4.84,1.63-7.57-.05-.15-1.49-2.14-1.64-2.41ZM70.53,140.13c-1.91,2.93-.89,9.74,3.65,8.61,2.55-.63,3.55-3.73,2.96-6-.13-.51-2.51-4-2.92-4.14-1.36-.45-2.97.42-3.69,1.53ZM125.09,149.78c-3.86-1.42-9.05-2.73-12.34-5.22-.76-.57-1.43-2.4-2.34-2.24-2.73,2.14-3.44,5.7-4.66,8.6-.12.28-.6.31-.73.63-.77,1.97-1.6,3.55-.07,5.49,1.22,1.54,8.57,5.77,10.36,5.62,1.89-.16,5.49-3.02,6.53-4.69.38-.61-.09-1.87,1.4-2.78l1.85-5.42ZM84.67,145.72c-.51.2-2.24,1.78-2.43,2.2-.52,1.16,1.51,6.73,3.77,5.87,2.4-.92,3.81-10.04-1.34-8.07ZM192.38,149.15c-1.81.84-7.97-1.55-10.34-1.21-1.78,3.79-5.14,6.41-8.99,7.92-.98,6.37-1.81,12.81,3.83,17.26,1.67.85,6.86.58,8.69-.09,1.98-.72,2.71-2.45,3.71-4.14,1.21-2.04.89-4.04,1.54-6.51s2.62-4.79,3.39-7.38c.69-2.29,1.02-4.24.62-6.62-1.8-.71-2.26.69-2.46.78ZM211.55,150.38c-.19-.15-4.19-1.84-4.43-1.9-1.95-.44-5.19.47-7.25.37-1.44.84-1.24,2.26-1.79,3.36-.17.33-.71.39-.85.74-1.67,4.03-.38,7.56-.97,11.77,1.81-.38,1.18.97,1.87,1.63,2.06,2,9.69,7.38,11.9,3.52.6-1.05,2.18-7.24,2.32-8.65.24-2.43.19-3.83.6-6.47.16-1.06-.57-3.73-1.4-4.38ZM135.74,152.22c-.19-.1-3.97-.43-4.26-.42-.34.01-4.12.62-4.3.74-.44.28-1,1.09-1.25,1.58-.48.92-3.4,7.83-3.5,8.59-.17,1.36.25,3.85,1.39,4.72.61.47,1.48.36,1.84.63,3.49,2.62,6.59,5.42,11.37,3.92,2.76-.87,2.09-1.9,3.5-3.73.48-.62,1.94-1.84,2.54-2.59.1-2.12,4.74-11.72,3.56-12.61-1.58-.28-3.79,1.43-4.92,1.37-.58-.03-1.7-.85-2.62-1.08-1.97-.49-1.76-.24-3.34-1.12ZM168.63,155.39c-1.56.07-3.54-.45-4.94-.49-3.61-.09-4.26-.17-7.63-.66-.67-.1-3.86.03-4.4.31-3.99,2.05-5.83,11.6-3.57,15.42.12.2,2.24,2.54,2.4,2.61.76.3,1.59,0,2.36.22.88.25,1.18,1.42,2.06,1.69,2.91.89,8.92-1.64,10.71-4.08.99-1.35,3.01-5.68,3.01-7.29v-7.72ZM83.76,166.02c.7-.76,1.47-4.67.88-5.51-5.81-2.71-6.3,2.91-4.48,7.05.2.18,3.33-1.25,3.6-1.54ZM107.16,162.08c-.84-.3-3.51-.6-4.24-.16.04,1.43-1.13,1.97-1.31,2.53-.93,2.88-1.57,9.43-.48,12.3.3.8,5.23,3.06,6.18,3.25,4.19.83,8.68-2.54,9.97-6.45.29-.88,1.18-4.6,1.2-5.32,0-.19-.63-.1-.86-.56-.19-.39.23-1.19-.29-1.57s-2.21-.32-3.02-.64c-2.33-.91-5.47-2.77-7.16-3.38ZM140.54,175.98c-.28-.28-6.61-.09-7.88-.32-4.41-.79-6.36-5.14-8.84.7-.36.85-2.24,6.17-2.25,6.86-.01,1.39.5,3.87,1.42,4.93.2.23,4.47,3.55,4.73,3.69,2.78,1.48,6.76,1.17,9.18-.87.89-.75,3.96-6.9,3.93-7.73-.01-.33-.69-.81-.75-1.42-.09-.9,1.05-5.26.46-5.84ZM152.07,176.17c-2.89-1.23-4.58-2.93-6.78-.34-2.77,3.25-1.47,5.74-1.55,9.23-.03,1.08-.67,2.08-.69,3.25s.67,5.61,1.07,6.8c.37,1.09,5.25,6.63,6.27,7.31.46.3,4.28,1.13,4.84,1.06.26-.03,4.19-2.6,4.37-2.81.21-.25,1.38-2.95,1.51-3.41,1.18-4.32.34-9.25.46-13.55.03-1.04,2.12-4.47.15-5.38-.97-.45-4.92-.16-6.34-.48-.2-.05-2.8-1.47-3.3-1.68ZM195.67,175.21c-.57-.23-3.66-.09-4.11.13-3.06,1.49-2.61,9.09-1.34,11.59.65,1.28,5.78,5.88,7.17,6.41,3.2,1.24,7.13,1.27,10.51.84.73-2.61-1.06-4.79-.05-7.55l-1.54-7.36c-2.76-2.55-5.1-2.95-8.66-3.57-.64-.11-1.42.24-1.63.2-.28-.06-.21-.64-.34-.69ZM171.61,196.41c2.54,1.74,11.68,2.45,13.63-.3,2.55-3.58.1-8.66-.19-12.44-.1-1.35.93-4.62-.52-5.56-.82-.26-1.79-.62-2.63-.69-2.26-.19-4.96-.1-7.32-.23-2.99-.17-6.83-2.02-8.05,1.83-.22.68-.79,3.48-.9,4.25-.58,4.11-.45,6.44,2.3,9.58.67.77,2.96,3.07,3.68,3.57ZM111.46,183.52l-8.84-.98c.66,3.12-.79,5.99.47,9.36l2.06-.53,6.73-6.71-.42-1.13ZM124.9,193.97c-1-.6-1.96-1.35-2.91-2.03-3.57,1.06-4.32,8.74-2.27,11.19.61.73,2.67.97,3.6,1.47.22.12,1.55,1.27,1.67,1.31,4.97,1.72,11.7.15,12.19-5.94.43-5.37-4.46-3.2-7.96-3.97-2.16-.47-2.76-1.09-4.31-2.02ZM213.23,204.89c-.23-.44.24-.94.08-1.32-.74-1.77-2.89-4.41-4.77-4.99-1.71-.53-3.48-.05-4.97-.18-2.29-.19-4.86-1.15-7.36-.14-.93,1.29.06,4.86.83,6.16.42.71,1.32.8,1.49,1.37.14.47-.31,1.1-.13,1.59.23.65,7.19,6.04,8.06,6.42.78.34,6.95,1.04,7.36.6,1.25-2.15,1.62-4.81.67-7.16-.18-.46-1.07-2.01-1.25-2.34ZM144.62,201.94c-.17-.12-.65.16-1-.2-.5-.51-2.05-3.26-2.37-3.27l-3.42,8.29c.64,5.63,2.72,9.65,8.83,6.48,1.16-.6,2.75-2.12,3.08-3.39.16-.61.23-4.36-.06-4.84-.15-.25-4.08-2.37-5.05-3.06ZM178.59,215.16c1.72.89,6.62,2.45,8.48,2.43,2.37-.02,4.1-.63,5.15-2.81,2.17-4.51-.35-11.3-2.99-15.19-.47-.35-.93-.09-1.41-.02-1.77.26-7.22,2.6-8.19,2.6-.73,0-1.34-.7-1.98-.8-1.73-.25-3.5-.31-5.22-.55-1.33,2.21-.06,3.42.29,5.02.21.98.07,1.87.39,2.91s4.71,6.02,5.48,6.42ZM166.71,204.58c-2.44.11-5.3,3.36-6.4,5.47-.47.91-1.19,2.51-.99,3.52.59,2.9,3.65,4.23,5.56,6.18,1.11,1.13,2.46,3.65,3.48,4.47,2.87,2.3,6.76-1.95,7.52-4.72.97-3.52-1.2-2.95-3.05-4.9-2.67-2.8-4.51-6.54-6.13-10.03ZM120.3,218l1.9-8.95c-.27-1.38-4.42-3.18-5.69-3.99-1.86,2-8.5,5.42-7.73,8.52.42,1.66,3.46,1.71,4.72,2.23,1.14.47,1.85,1.03,3.64,1.6.98.31,1.93,1.67,3.16.59ZM135.76,219.42c1.04-1.83-.07-6.35-1.3-8.1-2.83-4.01-8.52-1.46-9.27,2.81-.37,2.09.72,4.95,1.97,6.6,1.33,1.76,2.05,1.76,4.21,1.54,2.34-.24,1.84-.76,3.06-2.08.34-.37,1.2-.53,1.33-.76ZM207.96,217.65c-3.93-.85-7.76-1.58-11.43-3.3l-1.31,3.23-1.34.32c-.34,7.35,5.55,13.79,12.45,15.69,2.08.57,5.14.87,5.74-1.77.12-.52.13-5.43.01-5.89-.35-1.34-3.63-5.95-4.54-6.96l.42-1.33ZM124.16,223.27c-3.7-1.77-7.9-1.69-11.63-2.66-3.38-.88-5.6-3.61-8.48-4.16-3.03-.58-4.75-.07-7.51.96-7.47,2.79-16.87,8.1-23.39,12.66-.58.41-.74,1.19-1.11,1.45-.65.46-3.17,1.41-3.96,1.48-2.24.21-6.85-3.19-9.92-1.79l-.07-1.32c-3.02-.79-5.06-2.27-8.35-1-.41,3.67,3.16,5.46,5.88,6.95.98.54,2.27.47,3.19,1.04.69.42.66,1.79,2.13,1.36l-.52,2.75-13.16-.03c-5.74-1.72-10.4-5.44-16.64-3.97-.22,1.13-1.46.79-2.16,1.31-2.59,1.94-3.81,6.9.52,6.82,2.93-.05,7.34-1.07,10.51-.99,1.57.04,3.53,1.14,5.06.67.22,2.51-.11,1.45-.68,1.69-4.61,1.92-8.05.58-12.24,3.18l-10.4,9.27c.67,2.66-.85,4.39,1.14,6.87,1.03,1.29,3.45,1.42,5.08,1.41,3.55-.04,7.32-3.01,10.38-4.8,2.24-1.31,4.76-2.29,6.83-3.24,1.47-.67,2.62-1.19,3.62.37-2.41,1.52-3.23,4.66-4.75,6.94-2.61,3.91-5.5,6.19-6.04,11.3s3.19,6.31,7.2,4.35c.13-.06,2.13-1.49,2.22-1.6,1.3-1.47,2.77-5.64,4.02-7.59,3.35-5.22,6.89-7.77,11.18-11.75,1.65-1.53,2.41-3.63,4.83-4.31l-.38-.83c2.31-.22,3.88-3.71,5.65-4.9,5.17-3.46,18.22-6.7,24.51-8.26.68-.17,1.26-.81,1.94-.91,1.26-.17,4.98,1.26,5.57,2.34.74-1.14,2.32-.97,3.2-1.49,1.69-1,3.01-5.63,4.21-6.79,2.41-2.36,8.25-1.18,9.58-3.06.86-1.21.4-4.94.67-5.75.08-.24,2.61-2.7,2.25-3.97ZM147.42,220.13c-.2-.24-3.52-2.98-3.74-3.08-2.72-1.18-4.7,1.45-4.52,4.07.14,1.99,1.37,1.7,2.44,2.6.5.41.66,1.18,1.01,1.44,2.89,2.13,6.57-2.96,4.82-5.03ZM188.68,221.47c-4.61-1.29-6.9-.24-8.44,4.32-.26.76.14,1.52.06,1.85-.09.36-.83.11-.94.97-.29,2.15.24,6.28,1.19,8.25,1.16,2.4,8.15,6.61,10.79,6.56.89-.02,4.7-.52,4.87-1.24-.81-2.77.45-3.6-.95-6.36-1.1-2.18-.33-1.46-.7-3.21-.58-2.75-4.28-5.88-5.43-8.54-.39-.89-.3-1.69-.43-2.6ZM133.85,232.95c1.25-.92,1.68-3.51,1.29-4.99-2.15-8.17-14.37,1.47-6.72,4.85,1.46.65,4.05,1.15,5.43.14ZM229.68,233.38c-1.59-2.64-1.84-1.42-4.41-2.4-2.39-.91-8.4-4.81-9.28-.8-.16.75.31,4.11.63,4.77.94,1.93,9.17,3.58,11.02,3.11,1.14-.29,2.94-2.94,2.78-4.18-.04-.29-.63-.31-.75-.5ZM174.11,230.41c-.77-.63-5.67-.03-6.51.35-.33.15-2.2,2.17-2.6,2.3-1.69.54-4.39.29-6.16.05-.72,3.37-1.84,5.48.16,8.69s7.97,6.78,11.76,6.68c3.23-.09,5.65-.51,5.87-4.37.11-1.9-.13-10.17-.78-11.44-.07-.14-1.63-2.16-1.74-2.25ZM210.64,237.9l-7.82-1.79c-2.38,2.83-4.7,7.12-3.84,10.88,2.2,9.65,8.48,14.32,18.46,12.78,1.53-1.53,2.04-4.6,1.64-6.67-.86-4.46-5.17-8.2-7.05-11.7-.42-.78-.81-3.05-1.39-3.51ZM122.96,242.21c1.78-1.22,4.69-3.55,1.53-5.04-1.3-.61-3.32,1.11-4.49,1.3-.9.15-2.45-.75-3.13.22-1.89,2.72,2.5,5.45,5.5,4.2.41-.17.43-.57.58-.68ZM153.18,248.08c.05-1.97-.84-9.63-2.66-10.21-2.03-.65-1.26.43-1.73,1.12s-1.01.86-1.35,2.07c-1.04,3.73,2.07,7.12,5.73,7.02ZM234.47,244.96c-3.8-3.57-11-4.09-11.97,1.99-.63,3.94.12,2.79,1.93,4.43.57.52,1.67,2.09,2.15,2.3.94.41,7.12,1.63,8.37,1.7,2.92.15,5.99-.3,7.35-3.13,2.38-4.95-3.63-2.99-6.39-5.08-.73-.55-.81-1.6-1.44-2.2ZM183.48,244.46c-.46-.19-2.75-.05-2.93.29.32,4.11-2.63,6.54-1.49,10.45.42,1.45,2.98,5.51,4.41,5.88s3.04.77,4.5,1.11c3.15.74,10.27,2.04,10.38-2.64.06-2.33-1.94-8.04-3.52-9.84-2.91-3.32-6.95-3.09-10.86-4.49-.32-.12-.38-.71-.5-.76ZM144.15,249.15c-.14-.16-1.22-.66-1.26-.61.15,1.93-1.39,5.06-1.37,6.8,0,.72.82,6.05,1.01,6.89.57,2.56,4.2,6.92,6.59,7.93.95.4,1.77-.09,1.96-.03.3.1.03.91.9.91,1.51,0,2.93-.75,3.57-2.13.99-2.11.34-3.69,0-5.7-.16-.93-.13-2.61-.26-3.71-.1-.89-.64-1.88-.43-3.03-.44-.58-4.95-.88-6.23-1.54-.12-.06-1.95-1.49-2.04-1.59-.88-.95-1.7-3.4-2.45-4.21ZM175.18,252.76c-4.67,1.06-9.03-2.83-13.46-2.01-2.03.97-2.52,8.73-1.77,10.92.81,2.33,4.26,6.47,6.54,7.49.46.21,5.4,1.56,5.81,1.6,3.87.35,5.36-2.48,5.12-6.03-.29-4.21-3.76-7.32-2.23-11.97ZM250.37,264.16c-.83-.97-2.01-3.06-2.16-3.2-.28-.25-3.84-2.47-4.08-2.51-.31-.05-3.61.3-4.03.4-.38.09-.31.77-.55.85-.28.09-2.1-.62-3.17-.32-.7.2-2.45,2.4-2.55,3.03-.15.89,2.12,6.31,2.85,7.04,2.15,1.17,4.13,2.73,6.48,3.55,2.96,1.03,9.89,1.82,12.52.09,2.96-1.94-2.44-5.09-3.71-6.53-.65-.74-.97-1.68-1.6-2.41ZM231.05,270.38c-.46-.72-.41-1.78-.91-2.61-1.77-2.91-2.53-4.13-6.26-4.51-1.84-.19-2.82.95-4.27,1.08-.67.06-3.79.12-4.35.06-3.08-.33-6.71-2.59-9.62-.12.25.93,0,2.32.16,3.11.65,3.19,4.69,9.1,7.18,11.54,3.89,3.8,16.15,6.81,21.19,4.39,2.67-1.28,2.74-3.98,1.97-6.58-.45-1.51-4.07-4.77-5.08-6.36ZM334.78,264.96c-6.48-.44-8.73,7.15-5.61,11.87,2.41.82,2.01-1.49,4-1.59,2.36-2.88,2.41-6.79,1.6-10.29ZM200.78,266.47c-1.56-2.16-4.67.31-6.63.35-1.54.03-5.29-1.13-7.12-1.34l-2.74,1.29c-.49,6.6,1.73,12.6,7.78,15.69.56.29,3.91,1.64,4.6,1.85,6.98,2.15,10.6-1.14,7.98-8.25-.13-.36-.81-.44-.93-.7-1.11-2.62-1.1-4.65-2.33-7-.32-.61-.26-1.4-.61-1.88ZM165.16,271.68c-1.18-.58-2.44-1.79-4.03-1.41.06,1.19-1.81,2.77-1.85,2.94-.45,2.03-.1,4.54,1.19,6.21,1.65,2.14,5.92,6.59,8.31,8.07,5.54,3.42,18.82,7.38,16.58-3.94-.5-2.51-2.23-2.48-3.44-3.81-1.45-1.58-2.2-3.68-3.56-5.31-2.94-.22-6.1-.42-9.01-1.04-2.08-.44-2.69-.98-4.17-1.71ZM60.02,271.01h-2.34c.55,1.9-1.05,4.46,1.63,5.15l.7-5.15ZM263.94,278.69c-1.56-.81-2.74-1.6-4.53-1.83-1.46,1.25-7.31,1.26-8.18,2.08-1.67,1.57.91,6.12,2.24,7.33.13.12.61-.12.81.02,4.49,3.36,10.71,5.37,16.56,4.81,3.9-.38,6.39-2.07,7.11-6.07-1.48-1.89-3.18-1.32-4.65-1.87-3.59-1.35-6.16-2.8-9.37-4.48ZM332.78,290.99c.15-.17,2.31-3.72,2.37-3.94.87-3,1.21-8.37-3.37-6.66-3.73,1.4-9.46,7.89-12.12,11.06-.94,1.12-2.86,1.54-2.1,4.04s3.32.92,3.9.97c.45.04.84.76.94.75.38-.02.54-1.16.77-1.3.14-.09.88.33,1.34.17,3.58-1.2,3.86-1.45,6.37-3.93.51-.51,1.44-.66,1.89-1.17ZM248.84,288.63c-1.84-1.92-2.85-5.41-6.01-5.96l-.76.26c-.74,2.98-6.27,4.57-9.13,4.88-3.35.36-7.55-1.24-9.02,3.01,3.13,5.57,7.49,8.68,13.14,11.14.42.18.38.8.71.88.83.2,4-.77,5.1-.89,1.64-.18,2.91-.3,4.61-.53,2.06-.29,5.01.02,7.08.45,1.49-1.13,4.9-3.69,4.4-5.71-.21-.85-8.57-5.9-10.12-7.53ZM214.97,284.12c-.88.61-2.03-.2-2.8.2-1.58.82-1.62,3.37-5.05,3.88-.87.13-5.36.09-6.31.03-2.2-.15-6.5-2.27-8.05.13-.3.46-.25,1.23-.53,1.81-.23.47-.93.81-1.04,1.27-.65,2.98,7.22,7.49,9.6,8.5,3.87,1.63,13.61,3.92,17.63,3.8,3.14-.09,4.92-1.39,4.29-4.65-1-5.16-6.26-6.27-7.72-12.41-.19-.79.04-1.73-.03-2.55ZM294.43,299.47c.21-.13.39-.89.88-1.23.76-.53,2.54-1.59,2.99-2.17,1.02-1.3,1.6-8.69.02-9.37-1.91-.06-4.06.58-5.88.69-3.67.21-5.71-.54-8.92,1.37-2.46,1.47-4.47,4.04-7.26,5-.34.67,1.32,4.63,1.53,4.79.32.25,1.16-.08,1.66.21,4.84,2.84,8.35,2.93,13.73.66.4-.17,1,.22,1.27.06ZM274.16,301.71c-.72-.6-3.51-3.7-4.18-3.54-1.59,3.09-4.31,4.7-7.26,6.32-.39,1.32.66.97.82,1.4,1.35,3.48,1.15,2.62,3.68,5.09,7.17,7.01,12.35,7.04,21.93,5.23.7-.13,1.5.37,2.62.01,1.27-.41,3.7-4.46,3.52-5.46-.63-3.36-6.36-2.77-8.78-3.39-2.99-.76-6.83-2.91-9.76-4.22-1.38-.62-.72.12-2.58-1.46ZM311.71,305.49c.76-.76,1.45-2.12,2.42-2.87-1.61-2.84-2.38-3-5.26-3.53-.54-.1-1.09-.73-1.46-.74s-6.07,1.53-6.87,1.83c-.73.27-1.76.5-2.25,1.12-1.8,7.84,5.26,6.07,10.44,6.61.18-.05,2.63-2.07,2.98-2.41ZM332.86,302.45c-.07-.11-1.82-.89-2.25-.74l-14.72,6.79c-2.48,4.13,1.59,6.36,5.47,5,.7-.25,1.04-1.06,1.62-1.23.71-.2,1.47.34,2.02.15.47-.17,6.74-6.19,7.14-6.89.46-.81,1.29-2.19.72-3.09ZM132.75,305.01c-1.03-.64-1.44-2.19-3.7-2.21-.79,0-.59.76-1.04.94-.77.31-1.45.12-2.44.75-1.39.89-6.19,6.96-6.64,8.36-1.02,3.18-.75,4.9,0,8.1.91,3.95,3.02,8.06,3.8,11.21,1.9,7.67,1.45,17.54.91,25.69-.17,2.56-.25,1.56-.44,2.41s.39,2.13-.01,3.61c-1.06,3.91-7.07,7.82-10.74,8.86-6.84,1.93-13.35.16-18.6-2.93-6.16-3.63-8.2-9.63-13.95-14.04-.49-.37-.54-1.32-1-1.44-2.16-.54-1.18.41-1.35.99-1.01,3.42.06,1.76.26,2.61.19.8-.16,1.84.02,2.72.62,3.16,4.97,6.35,7.01,8.91.48.6,1.95,2.39,2.18,2.73,1.14,1.72,2.62,5.46,0,6.36-1.8-.57-3.18-2.58-4.66-3.34-5.68-2.91-10.88-3.82-16.85-5.07-.13-.03-1.81-1.68-1.99-1.73-1.86-.45-10.22-.46-11.8.54-3.25,2.05-.61,4.01,2.18,4.67,4.92,1.16,9.02,3.53,13.72,4.62,2.07.48,4.71.14,6.46.58.22.05.42.17.64.21.82,1.03.14,1.59-.92,1.88-3.59.99-8.92,1.68-12.17,3.04-.91.38-4.38,2.52-5.69,3.22-.42.23-2.99,3.39-3.63,4.09-1.2,1.3-1.99.66-1.6,3.42.35,2.51.86,2.67,3.45,2.68,2.77,0,8.25-1.9,11.23-2.82,3.98-1.24,7.69-3.27,11.8-4.05,1.89-.36,10.12-1.35,10.88.57.39.6-.92,1.91-1.4,2.24-2.73,1.88-8.95,5.02-10.75,7.65-.28.41-2.53,4.21-2.64,4.45-.07.16-.49,3.11-.48,3.34.12,2.4,2.22,4.07,4.59,3.78,1.84-.22,1.65-1.29,2.29-2.19,4.4-6.22,7.89-13.66,15.68-17.2,1.84-.84,7.25-1.77,7.97-2.31,2.32-1.76.81-5.32,3.94-4.68-.24,1.63,2.68,4.9,4.09,5.03.85.08,3.58-1.64,4.83-.84l.94-5.62c.85-.05.57,1.3,1.01,1.77.22.23,5.55,1.53,6.11,1.41,1.62-.33,6.04-2.89,6.69-4.62,1.01-2.73-2.2-7.73,1.59-8.82,1.98,4.15,6.36,3.52,8.19-.55,2.07-4.59-1.4-5.19-2.95-8.56,2-2.56,2.79-.27,4.31.07,3.22.73,7.35-6.48,5.49-8.08-.18-.16-.91.07-1.28-.13-2.17-1.2-4.33-3.94-5.68-6.04-.81-1.26-.54-3.03-2.34-3.54l1.57-6.47c-.47-.8-4.76-1.75-5.73-2.46-.16-.12-2.43-2.8-2.47-2.99-.79-3.69,1.09-6.61,1.74-9.85.38-1.91.1-3.87.59-5.73-2.63.05-3.98-.64-6.26,1.38l-1.13-1.22c-.19-1.78,1.31-1.35,1.66-1.69,1.32-1.27,1.54-1.53,3.2-2.88,1.26-1.03,1.8-2.65,3.06-3.71,1.02-.86,5.28-2.48,3.86-4.1-.88-1.01-4.11-2.02-5.62-2.94ZM160.99,305.33c-.2-.2-3.01-1.36-3.47-1.44-3.07-.56-5.71-.38-6.67,2.99-1.09,3.85,2.4,5.08,4.63,7.47,1.73-.75,4.3-.53,5.4-2.16,1.02-1.52,1.5-5.48.11-6.85ZM235.91,313.01c.08-.17.11-3.4.04-3.73-.94-4.55-11.87-1.28-13.9,1.35-.84,1.09-1.3,5.16-.92,6.4.37,1.18,5.83,5.05,7.27,5.37,3.04.68,4.38-1.53,5.54-4.1.89-1.96,1.08-3.48,1.96-5.3ZM248.39,319.92c1.89-1.01,2.91-1.96,3.65-4.12,2.01-5.87-7.51-10.39-9.57-6.29-.69,1.37-.65,7.98-.25,9.39.07.24,1.47,2.17,1.6,2.19.89-.46,3.68-.37,4.28-.61.09-.04.12-.47.29-.56ZM146.99,312.32c-3.25-.26-5.5,1.17-7.74,3.24l-.14,6.61c.85.37,1.42,1.58,1.9,1.91.61.42,4.99-.46,5.51-.76.31-.18,3.86-5.51,4.07-5.99,1.34-3.07-2.34-2.74-3.6-5.02ZM172.12,320.39c.58-.44,3.37-3.89,3.39-4.19.07-.86-1.29-3.24-2.49-3.38-4.52-.52-8.22,9.75-1.45,8.28.35-.08.37-.57.55-.71ZM305.5,321.75c1.16-1.15,2.81-2.3.92-3.89-4.63.7-8.7-.54-13.28,1.37-.31,3.9,7.33,4.62,10.01,4.19,1.6-.25,1.48-.82,2.34-1.67ZM150.97,321.68c-.61,1.52-.33,6.88.59,8.29.55.83,3.8,1.8,4.76,1.77,4.23-.17,5.27-11.33.74-12.41-1.15-.27-3.18-.32-4.15.33-.12.08-1.89,1.89-1.94,2.02ZM241.02,325.5c-.69-.45-2.56-1.29-3.29-1.08-1.91,2.96-5.88,2.1-8.16,4.71-.1,3.76.82,11.72,6.09,11.03,3.02-.4,4.49-1.87,5.71-4.59,1-2.23,1.92-8.59-.35-10.06ZM214.63,338.76c1.27,1.33,6.15,1.41,7.32-.62.54-3.18,4.08-6.37,2.73-9.64-.14-.35-1.58-2.4-1.76-2.51-.67-.4-1.35.17-2.04.1-.39-.04-.74-.7-1.26-.58-.19.04-3.14,1.88-3.27,2.01-1.59,1.61-3.38,9.5-1.72,11.24ZM144.59,334.98c1.02-1.12,1.98-3.5,1.36-4.97-.5-1.2-2.5-1.49-3.51-2.14-1.44-.93-1.78-2.65-4.23-1.88-1,.67.07,1.73-.07,2.34-.04.18-1.52,1.1-1.96,3.04-.69,3.06.29,5.05,3.42,5.9,2.02.55,3.66-.83,4.99-2.29ZM256.97,327.79c-1.04-.83-6.42-3.02-6.49-.67l-.86-.41c.83,1.96-.57,4.51-.45,6.3.06.89,1.88,4.77,2.58,5.38.88.77,3.99,1.74,5.14,1.68,2.81-.16,4.25-5.06,2.94-7.43-.32-.59-1.06-.69-1.17-.87-.25-.4-.14-2.75-1.68-3.98ZM153.08,341.33l-7.17.36c-.5,2.81-3.32,6.82-.91,9.36.55.57,1.17.6,1.74.97.31.2.3.83.67.91.56.13,2.43.16,2.86-.09.66-.37,4.11-7.35,4.08-8.37s-.8-2.23-1.28-3.13ZM231.89,354.42c.13-.22.91-.16,1.16-.76.73-1.79-.58-6.42-1.94-7.74s-6.89-2.39-8.07-.37c-.1.17-.97,3.51-1.02,3.89-.3,2.14,1.61,10.29,3.96,10.51,2.53.23,2.62-.97,3.73-1.86.61-.49,2.1-1.22,2.34-1.86.22-.57-.44-1.34-.15-1.81ZM248.42,358.76c1.74-1.45.55-.96.75-2.71.4-3.6,1.72-7.03-.76-10.14-.14-.18-3.79-1.67-4.18-1.67-1.26,0-4.39,1.1-4.81,2.47-.13.44-.61,3.67-.6,4.13,0,.26,1.53,4.62,1.68,4.88.17.31,3.53,3.42,3.94,3.54,1.71.53,2.73.53,3.99-.51ZM259.75,348.88c-2.96-1.45-3.73-.18-5.97,1.06-.11,3.61,2.02,7.22-.09,10.82l-5.48,3.63c.43.52.9.96,1.45,1.35,2.55,1.77,9.55,1.54,13.26,2.2,3.39.6,12.41,2.63,14.74,4.45,4.84,3.77,7.46,15.99,7.43,21.97-.01,2.2-.33,5.62-2.91,5.86-3.14-2.16-3.78-4.88-8.49-4.26-.86.11-.61.87-1,.96-2.96.71-2.13-.6-2.64-1.21-3.94-4.6-6.63-6.36-12.49-8.38-2.52-.87-6.39-.69-8.67.69.43,3.26,3.56,5.48,6.35,6.68,2.03.87,5.08,1.14,6.96,2.03,2.03.96,6.01,3.9,2.16,5.18l-7.67-2.38c-5.04-.13-10.42,1.69-14.53,4.69-2.3,1.68-5.45,3.73-3.76,6.86.9,1.66,2.42.79,3.44.89,5.38.55,13.56-.08,18.64-2.08.63-.25,3.28-1.5,3.76-1.75.64-.32,1.29-1.44,2.6-1.73,1.4-.31,2.57-.06,2.9,1.51-.63,3.08-3.8,2.83-5.74,3.98-2.14,1.27-6.93,8.82-2.5,9.41,1.84-2.6,4.56-4.15,7.13-5.82,4.69-3.06,5.95-2.59,10.41-4.35,1.23-.49,2.08-1.57,2.22-1.58,1.26-.13,3.57,2.01,6.82.92,1.97-.66,3.44-2.66,5.09-3.91.74-.56,2.28-.5,3.43-2.18,2.06-3-2.89-3.02-.2-6.14,1.62-1.88,6.47-1.46,6.97-3.5.57-2.34-2.46-2.04-2.58-3.17-.06-.53.52-1.4.52-2.05-.01-1.36-.66-3.65.03-4.75.24-.39,1.28-.77,1.84-1.43,3.42-4.05-1.52-2.81-2.48-4.28-.15-.22.29-.98.04-1.62-.96-2.51-2.55-5.84-5.72-4.83-1.41-4.08,4.32-5.33,5.06-8.31.41-1.67-1.83-3.18-3.2-2.75-1.62.52-3.43,5.39-6.07,4.97-.21-3.25-2.17-7.13-4.23-9.6-.6-.72-8.44-7.01-9.08-7.29-1.3-.56-5.27-.83-6.25.15-.33.33-.28,1.07-.55,1.41-.78.98-1.84,1.26-2.09,3.11-.34,2.44,5.37,12.5-1.64,7.74-3.73-2.53-2.03-5.13-3.2-8.5-.23-.67-3.49-4.39-4.01-4.65ZM235.28,364.88c.75.37,1.49,1.31,2.49,1.53,1.66.37,6.6.44,7.66-1.04,2.35-3.28-4.68-5.95-6.8-7.11-1.03-.17-5.77,3.93-5.88,4.35-.63,2.41,1.18,1.33,2.12,1.67.28.1.27.53.41.6Z"/>
      <path d="M179.7,22.17c.18.08.16.75.37.72.37-.05.97-.63,1.59-.67,3.45-.22,4.69,6.92,7.91,8.05,1.73.61,2.7.45,4.61,1.72,1.51,1.01,6.57,6.52,2.17,4.8-1.17-.46-2.24-.95-3.76-1.67-3.07-1.46-5.44-3.41-8.19-.98-.75.66-1.51,3.45-2.87,4.04-.17.07-3.4.92-3.59.91-.63-.04-3.39-.39-4.09-.53-4.31-.84-6.89-5.69-5.68-9.76l-.98-.5c1.21-5.62,7.27-8.54,12.5-6.12ZM177.75,24.01c-.43,0-2.45,1.34-2.78,1.74-2.31,2.82-.37,9.31,3.6,7.36,3.55-1.75,1.91-9.12-.82-9.1Z"/>
      <path d="M180.68,59.78c-.35.38-2.84,1.33-3.15,1.06,0-1.7-1.09-7.29.77-7.91,2.86-.94,3.91,5.23,2.38,6.85Z"/>
    </g>
  </g>
</svg>