<?xml version="1.0" encoding="UTF-8"?>
<svg id="_Слой_2" data-name="Слой 2" xmlns="http://www.w3.org/2000/svg" viewBox="0 0 430.41 443.19">
  <g id="_Лев" data-name="Лев">
    <g id="_Лев-2" data-name="Лев">
      <g>
        <path d="M71.04,74.89l-1.54,3.31c-1.31.83-2.77-1.86-2.15-2.84.72-1.13,2.59-.93,3.69-.47Z"/>
        <path d="M240.76,236.25c-.51-1.6-2.71-2.4-2.46-4.36,1.34-1.28,6.46,3.8,2.46,4.36Z"/>
        <path d="M139.79,195.32h-3.41c-1.18-1.57,4.15-4.47,3.41,0Z"/>
        <g>
          <path d="M305.1,305.52c-1.44.77-4.62-2.29-5.85-3.16l2-3.76,2.64-4.78c2.66.63.65,3.36,2.1,5.11l-.89,6.59Z"/>
          <path d="M301.64,279.23c.73.45.2,3.02.36,3.79.47,2.34,3.26,5.37-1.28,5.43-.11-2.12-2.25-1.98-1.95-4.84l2.22-1-.76-3.41,1.41.04Z"/>
        </g>
      </g>
      <path d="M257.17,440.41c.12.01.25.03.37.04,3.49.31,5.69-.84,8.78-.85,6.01-.01,13.13,1.33,19.03,1.21,13.39-.25,27.27-1.63,40.48-.69,12.06.86,23.9,1.98,35.6,2.9,1.5.12,4.94.61,5.35-.97l.52-10.03c-2.47-.6-5.02-3.64-3.41-6.05.47-.71,1.25-.77,1.54-1.13,2.7-3.35,6.42-6.4,8.45-10.34.81-1.57.96-3.3,1.69-5.12.63-1.57,2.41-3.4,2.65-4.66.09-.46.45-4.5.41-4.73-.59-2.88-2.58-8.6-3.73-11.88-.4-1.14-1.84-1.96-1.79-4.34.06-2.79,1.49-1.65,2.21-2.02,2.09-1.07,6.19-2.37,7.55-3.58.72-.64,4.16-5.38,4.45-6.11.12-.32-.19-2.83.07-3.54l-6.06-3.67c.19-1.2-.91-2.48-1.03-3.16-.52-2.91,2.2-8.78.89-11.58-1.95-4.18-5.48-6.19-9.33-8.26-.55-.29-1.33.14-2.09-.29-.14-.08-2.27-2.08-2.29-2.24-.26-2.49,2.29-4.06,3.08-5.69.26-.54,1.27-6.36,1.26-6.93,0-.49-.74-2.96-.97-3.33-.57-.91-1.38-.6-1.74-.94-.29-.28-.28-1.23-.84-1.83-.36-.39-4.39-3.93-4.67-4.08-.58-.33-1.47.25-2.09.05-3.83-1.22-7.47-3.12-11.83-3.72-2.2-.3-4.71-.69-6.55.5,1.52,2.44.69,5.1.94,7.73-4.36,1.03-5.71-1.15-8.25-3.65-.64-.63-1.49-.99-1.96-1.47-.86-.88.16-2.13-2.4-1.72.2-2.92-1.21-2.61-2.42-4.17-.65-.84-1.11-2.96-1.65-3.47-.91-.87-2.12-1.06-2.77-2.93-1.77-5.08-3.11-10.99-3.21-15.94-.05-2.31-.57-5.06-.27-7.36.11-.83.73-.6.96-1.09.53-1.15.85-3.07,2.48-3.72.65-.26,1.34.83,1.69-.75.62,1.01,2.9.43,3.08.56.23.17.27.91.59,1.13.71.48,11.15.37,12.93.25,5.43-.37,10.35-2.63,15.2-3.85.7-.18,2.66.06,3.84-.29,2.2-.66,10.09-6.01,11.96-7.77.91-.86,1.36-2.58,1.49-2.67.14-.1,1.2-.05,2.66-1.49,2.06-2.03,6.27-7.88,6.9-9.53,2.29-5.92,2.61-9.72,3.35-15.58.43-3.36,1.32-6.12.24-9.77-.41-1.37-1.63-1.99-1.84-2.47-1.07-2.41-.65-6.47-1.5-8.86-.68-1.93-3.96-4.13-4.98-5.88-2.47-4.26-2.6-9.22-6.63-13.75-3.41-3.83-6.4-5.89-9.8-10.45-2.52-3.39-3.35-4.03-6.36-6.79-.94-.86-1.15-2.67-1.65-3.36-2.28-3.16-6.02-4.36-8.45-7.75-2.03-2.82-3.67-8.45-3.9-12.08-.15-2.41.22-6.91,2.68-8.1.3-.14,6.16-1.33,6.48-1.26.34.07.31.83.4.87.26.12.88-.39,1.49-.25,3,.73,6.93,3.46,9.5,5.57,2.37,1.95,2.35,3.61,3.92,5.78-1.57,8.11,2.78,21.49,10.58,24.88.74.32,3.43.7,4.17,1,4.96,1.95,8.72,2.74,14.36,2.12.72-.08,3.17-.41,3.79-.54.62-.13,6.02-3.08,6.57-3.48.18-.13,1.43-1.91,1.51-2.15,1.1-3.55-1.64-2.7-3.66-3.93-.36-.22-3.76-5.26-3.87-5.58-.05-.14-.2-2.83-.18-2.97.06-.35.85-.26.97-.67.36-1.25-.07-3.13.79-4.49.83-1.31,5.06-5.3,6.44-6.34.42-.32,1.43-.19,2.06-.78.19-.18,3.02-3.87,3.15-4.11.23-.42-.27-1.11-.14-1.62.2-.78,1.73-1.9,2.11-3.26.27-.96,1.09-3.96,1.2-4.69.05-.36-.92-6.41-1.08-7.17-.09-.43-2.52-6-2.8-6.46-.6-.99-4.42-3.85-5.37-3.15-.08,1.18-1.96,4.58-2.93,5.07-.5.25-6.27.32-6.95.16-.24-.06-4-1.75-4.18-1.9-.08-.07.27-.73-.05-1.15-1.59-2.09-8.37-8.35-10.67-9.46-2.69-1.3-4.05-1.16-6.73-2.92-1.06-.69-8.58-.58-10.51-.81-1.85-.22-1.9-1.27-4.71-.85-4.99.74-10.32.71-15.49,1.34-6.36.77-3.42.44-7.72,3-1.64.98-4.49,2.51-6.32,3.26-.78.32-1.45-.1-1.69.02-.13.06.06.9-.81.88-2.32-.06-2.94-1.61-2.65-3.63.51-3.46.92-2.57,3.06-4.31,2.85-2.32,4.81-3.07,7.91-4.97.34-.21.43-.87.69-1.02,2.59-1.41,12.13-1.03,15.35-1.24,1.73-.11,3.95-1.12,5.85-1.02,5.02.27,12.94,1.91,17.53,2.99,1.46.34,2.54,1.35,4.44,1.46.98.06,1.83-.54,2.38-.52.29.01.23.89.6.98,1.29.32,3.6-.07,5.3.19.92.14,3.33,1.18,3.79,1.17.99-.02,2.57-1.34,4.3-1.52,1.75-.18,5.41.55,6.92.13.31-.09.62-1.08,1.5-1.45,3.91-1.66,5.35-3.24,8.62-5.48,1.93-1.32,2.11-2.64,4.83-1.82l.02-1.44c1.81.35,7.79,1.17,9.15.36.26-.15.52-1.36,1.08-1.6l-.93-.44c.37-.54.43-5.72.31-6.05-.05-.13-1.05-.65-1.43-2.19-.21-.85.25-1.74-.13-2.29-.23-.32-.97-.36-1.12-.59-.09-.14.33-.63.23-.76-4.15-5.08-11.47-7.89-16.82-10.34-.65-.3-1.48-.06-1.83-.21-2.27-.98-.21-5.19.08-7.12.26-1.78.24-3.97.32-5.46.19-3.26-.3-1.73-.55-2.67-.17-.6-.02-2.54-.22-3.18-2.13-6.9-6.54-13.74-12.56-17.67-5.63-3.68-11.5-4.43-18.23-4.69-4.2-.16-8.44.19-12.64-.01l-.76,1.77c-1.9-.63-1.94.55-2.35.68-2.05.65-4.63,1.17-6.56,2.1-9.13,4.39-11.26,11.01-13.31,19.61-.35,1.46-2.19,8.39-2.16,9.27.02.66,1.52,3.54,1.93,4.4-2.25.5.47,1.75.47,1.99,0,.46-.47,1.04-.36,1.77.32,2.14,1.77,4.63.08,6.19-1.68,1.56-1.97.39-3.31.59-8.5,1.25-11.64,2.54-18.64,6.24-1.39.74-1.77,2.26-4.1,1.99l.5,1.45c-1.87-.4-2,1.46-2.79,1.98-.6.4-1.63.33-2.36.93-.97.8-.84,1.93-1.4,2.77-.65.97-1.89,1.07-2.09,1.28-1.36,1.36-1.33,3.16-1.79,4.13-.6,1.27-3.48,4.62-3.63,5.85-.09.76.42,1.45.28,2.21-.14.82-2.39,2.82-2.74,4.65-.19,1,.73,1.34.68,2.09-.14,1.82-1.35,4.47-1.48,6.77-.29,5.15,2.72,13.84,3.62,19.31.12.73-.49,1.38-.14,2.52.16.53,1.53,1.24,1.91,1.79,7.14,10.51,14.34,21.42,23.6,30.19.63.59,3.15,1.84,3.77,2.43,4.34,4.16,8.24,9.96,11.19,13.5,1.93,2.32,5.21,4.93,6.61,7.49.25.45-.11,1.19-.05,1.24,4,2.91,5.42,6.94,8.07,10.77.44.63,2.63,2.26,2.93,3.1.26.73-.35,2.51-.23,2.68.58.85,1.53.43,2.04,2.95,1.53,7.46.97,16.36-5.01,21.6.62,1.73-3.92,5.49-5.31,6.25-.67.36-10.76,3.09-11.57,3.17-1.07.11-7.87-1.34-8.88-1.92-2.85-1.66-5.14-4.54-7.81-6.6-.61-.47-1.78-.41-2.62-1.18-.79-.74-.75-1.8-1.06-2.11-.18-.17-2.64-1.45-3.99-2.59-3.05-2.56-3.98-3.67-7.79-5.89-2.63-1.54-5.71-6.13-8.94-7.24-4.59-1.58-2.73-1.82-5.53-3.6-1.62-1.03-4.92-1.92-6.39-2.8-6.66-3.97-2.74-4.93-1.54-9.53.28-1.09-.08-3.04.19-4.22.09-.39,1.36-.54,1.35-1.63,0-.66-.69-1.13-.75-1.78-.18-1.99.85-3.81-1.93-4.54-.58-.15-4.58.17-5.16.32-.37.09-.38.77-.74.9-1.68.64-2.47,1.28-4.27.57-.37-.15-4.31-3.31-4.48-3.55-.2-.27-1.7-5.81-1.59-6.45.13-.75.9-1.31.97-2.01.16-1.68-1.24-5.02.49-6.82-1.64-.38-.43-1.11-.74-1.71-.17-.33-1.87-.91-1.96-2.17-.03-.44.65-3.01.82-3.11,2.25-.22,5.13-.57,7.25-1.29,1.38-.47,3.26-1.76,4.89-2.46,2.89-1.23,6.19-6.15,6.31-9.31.09-2.56-4.6-1.32-6.46-2.23-.71-.35-.74-1.1-1.17-1.37-1.35-.86-2.83-.19-3.9-1.54.82-2.83-.53-6.18-.12-8.89.35-2.29,2.51-3.42,2.95-5.61l.85.37c.35-.22,3.89-6.68,3.98-7.09.07-.34.09-5.45.04-5.73l-1.52-.52.52-5.12c3.09.67,8.13-3.13,9.92-5.37.93-1.17.84-.76,1.66-1.61.91-.96,1.04-3.1,1.43-4.13.19-.49.9-.53,1.1-.97,1.1-2.33-.32-10.48-1.19-13.05-.37-1.09-1.58-2.03-1.6-3.33.07-.7,1.37-2.18,1.89-2.85.87-1.12,4.38-3.98,4.54-4.27.6-1.07.32-3.52,2.39-4.54-.12-2.32,2.74-5.94-.51-7.07-1.28-.45-3.15-.16-4.41-.47-.85-.21-1.52-.84-2.31-1.16-.6-.24-1.51,0-1.6-.08-.16-.12-1.94-3.15-2.02-3.56-.7-3.67,1.5-6.28,1.42-7.79-.04-.71-.87-1.12-.86-1.87,0-.71,1.26-3.27,1.29-4.45.05-1.93-.8-4.5-1.23-6.09-.42-1.53-1-4.11-1.44-5.39-.17-.49-1.19-.86-1.2-1.7-.01-1,1.12-.92,1.48-1.6,1.54-2.83,2.09-5.21,3.64-7.94.9-1.59-.03-3.08,1.74-4.11l-1.47-.25c.29-3.59-1.74-8.19-5.85-8.78l.5-.96c-2.36-.26-5.09-.91-7.32-1.72-2.09-.76-6.46-3.47-7.2-5.47-1.51-4.11-1.96-4.21-4.81-7.61-.44-.53-.52-1.23-.92-1.79-6.78-3.34-10.53-4.62-17.64-1.05-1.58.8-2.88,2.37-3.71,2.87-.82.49-3.06.54-4.09,1.52-4.03-1.48-8.39-2.3-12.58-2.86-5.39-.72-6.35.28-11.5,1.27-5.58,1.07-10.16-.11-16.51,1.39-8.73,2.07-12.13,3.75-21.26,3.76-3.07,0-10.55,1.56-14.01,2.02-1.61.21-3.07.96-4.79.63-.54,1.43-2.59,2.15-3.13,3.18-.41.79-.57,5.07.72,5.58l-1,.94c1.17,1.2,1.59,4.72,2.11,5.5.18.28.89.33,1.08.62,1.13,1.7-1.71,5.01-2.09,6.72-.05.24,0,4.05.06,4.34.47,2.4,2.93,3.78,3.49,5.77.54,1.9-.22,4.58.02,6.6-1.63.2-2.68,2.4-4.03,2.8-.48.14-4.53,1.08-4.77,1.07-.63-.03-1.14-.8-1.46-.8-.33,0-.74.78-1.45.83-.31.02-.16-.9-.57-1-2.85-.67-4.5-.65-7.11-2.92-4.48-3.88-3.88-10.87.05-14.88-.04-2.86-7.85.8-9.14,1.52-4.27,2.39-5.84,7.78-6.39,12.37h1.46c-1.44,1.63.05,6.51,1.03,8.39.33.62,2.13,2.24,2.25,2.45.08.15-.15,2.2.76,3.18.24.26,4.32,1.7,5.13,1.95,3.16,1.01,6.72,1.14,10.16,2,.66.16.61.9.99,1.01,1.58.47,7.06-1.1,9.69-.25.9.72,1.87,3.39,1.47,4.46-.3.78-1.21,1.27-1.51,2.16-.45,1.32-.7,5.02-1.27,6.02-.85,1.48-5.37,4.4-3.97,7.04,1.06,1.99,3.16.34,4.69.62.33.06.36.77.73.93.75.32,2.19.55,2.72.99.22.19,1.39,2.69,1.5,2.82,2.33,2.75,4.93,1.45,3.67,6.61-.04.15-1.71,1.56-2.14,2.35-.32.58-.15,1.48-.37,1.8-.19.28-5.02,2.31-5.98,3.03-.67.51,1.63,1.91,2.34,1.84,1.28-.13,2.47-2.77,3.19-.22l1.02.32c-.06-4.03,2.94-2.26,5.04-2.43.16-.01,1.48-1.9,2.15-2.32,3.93-2.42,4.8-1.03,7.59-1.56.49-.09.61-1.19,1.03-1.55.59-.51,1.33.19,1.63-.02.33-.23.1-1.16,1.31-1.4.36-.07,4.18.12,4.43.21.64.25.7,1.78,2.17,1.27-1.28,2.24,1.08,4.24.39,6.48-.24.79-1.24,1.15-1.58,1.84-.82,1.65-1.42,4.43-2.98,5.8-.31.27-6.33,4.36-6.71,4.51-2.83,1.17-6.84-.17-7.17,3.8l3.19-.97.23.97h.72s.32-.84.32-.84l3.83-.13-.49-.95c.39-.54,5.18-1.07,6.14-1.38.75-.24,2.76-2.05,4.1-2.87,2.41-1.46,2.75-1.65,4.73-3.6.54-.54,1.83-.65,2.39-1.14,2.29-1.98,4.46-4.75,6.52-6.75,1.93-1.89,4.62-4.64,7.07-1.82,1.63,1.87.64,2.28.38,3.93-.19,1.24.96,1.71-.65,2.19l.49,1.45-.94.44c.9.93,1.03,1.79.58,2.98-.46,1.21-3.79,6.39-4.62,7.37-3.91,4.58-10.57,6.62-16.07,8.46-.34.12-.39.82-.44.84-.42.15-1.13-.64-1.77-.3-.1.06-1.5,1.67-1.55,1.78-.5.96,0,2.32-.53,3.19-.44.73-2.81,2.58-3.26,3.37-.31.55.07,1.48-.2,1.77-.17.19-1.01-.08-1.26.15-.24.21-.35,1.58-.87,2.33-4.27,6.11-7.68,5.09-12.79,8.15-2.17,1.3-7.83,5.92-9.39,7.84-1.69,2.08-4.96,8.27-5.17,10.61-.02.24,1.39,3.65,1.53,4.67.19,1.41-.28,3.55.06,5.08-.48,1.41-6.11.9-7.28.62-.59-.14-3.94-2.57-4.11-2.96-.17-.38.18-.89.02-1.3-.88-2.36-.75-2.54-1.12-4.58-.07-.4-.92-.27-.92-.54,0-.61.12-4.96.19-5.21.47-1.88,1.48-4.5,1.9-6.21.2-.82-.15-3.23-.08-3.39.43-.93,2.5-3.47,2.8-4.78l-.38-1.1.83-.28c-1.33-1.97.88-1.82,1.7-3.73,1-2.36.87-4.62,2.9-7.1.79-.97,2.71-2.02,3.29-2.84.41-.58-.11-1.2-.05-1.22.29-.14,1.14.18,1.57-.02.3-.14,2.45-1.79,2.7-1.9,1.94-.78,6.54-2.34,8.16-1.02.82-.35.24-1.13.39-1.35.31-.45,1.65-.34,1.31-1.56-1.93.77-2.7-.42-4.28-.84-.86-.23-3.56-.44-3.91-.71-.43-.33-.3-1.64-.73-2.2-.7-.93-3.91-2.76-5.21-2.08-1.33,3.05,1.93,4.44,1.45,6.96-.07.34-4.51,3.64-5.31,4.55-1.72,1.96-3.18,5.36-4.25,7.93-.35.84-1.41,1.67-1.57,2.38-.19.85.43,1.89.34,2.01-.11.15-.85.12-1.18.76-1.9,3.73-.28,6.5-4.12,11.11-2.53,3.03-7.74,6.35-11.81,5.6-.79-.14-5.19-1.99-5.61-2.42-1-1.02-.54-4.04-.69-4.51-.06-.2-1.56-.51-.9-2.19,2.02,2.13,3.33,1.57,5.63,1.53.17,0,.66,1.51,2.84.88.48-.14-.11-1.34,1.68-.52.26-1.26,1.74-1.37,2.27-2.4.16-.3,1.69-6.16,1.74-6.53.34-2.6-.84-5.5-.54-8.35.15-1.4.86-2.09.95-2.89.3-2.84-.84-2.63.5-6,1.43-3.6,1.44-4.62,3.82-7.55.4-.49.35-1.21.76-1.67,1.24-1.38,4.89-.97,6.69-1.61.54-.63-1.21-3.38-1.95-3.69-.57-.24-.88.88-1.96.59-.34-.09-5.2-3.3-5.37-3.58-.22-.36-1.98-5.36-1.97-5.77.05-1.69,2.29-3.78,2.5-5.54,3.12-.97,3.26,3,3.98,3.73,1.04,1.05,3.91.6,5.18.9,1.11.26,1.83,1.69,4.03,1.91.66.07,4.07-.32,3.84-1.46-.31-1.5-6.38-1.6-8.15-2.54-4.05-2.15-1.58-7.18-2.58-10.63l.98.72-.46-3.18c-2.03-.24-4.18.36-5.6,1.81-2.08.17-4.64,1.81-6.27,3.34-.64,1.73-1.76,3.28-2.11,5.18-.61,3.34,2.2,7.38-.75,10.29-.74-.27-1.72.09-2.36-.12-.33-.11-3.96-2.58-4.23-2.84-.4-.39-.61-2.01-1.4-2.79-3.46-3.45-8.7-6.81-12.21-10.84-.15-.18.49-1.6-1.66-1.35l.41-.88c-1.27-.09-1.49-1.48-2.03-1.87-1.14-.84-3.33-1.31-4.42-2.65-.81-.99-1.12-3.06-1.74-3.98-3.46-5.15-7.41-8.12-7.54-15.22-.15-8.65,4.72-9.11,5.95-15.23.18-.9.27-2.44.15-3.34-.12-.86-.86-.67-.98-1.08-.24-.83-.06-1.8-.36-2.55-.62-1.54-3.35-4.63-3.53-6.12-.51-4.14,1.45-4.12,1.8-5.91.17-.89.3-2.38.09-3.23-.08-.33-.73-.31-.9-.74-1-2.65-1.83-4.38-4.13-6.26-1.31-1.07-4.13-2.36-5.74-2.85-1.17-.36-2.03.69-1.82,1.82.24,1.33,2.23,1.71,2.3,4.55-1.72.43-.44,1.69-.75,3.05-.38,1.67-2.64,2.96-4.23,3.4-2.85-.81-2.48-3.47-3.6-5.26-.74-1.2-10.22-7.91-11.83-8.56-.31-.13-1.69-.67-1.8-.69-1.21-.27-2.95.07-4.3-.51-.03.04-.04.08-.07.12l-.67-.31c-.34-.77-1.64-.34-2.54-.82-1.49-.78-3.47-2.11-4.97-2.49-.99-.25-4.51-.92-5.15-.64-2.41,1.04,2.52,4.21,2.66,5.63-.04,1.05,2.72.88,2.21,1.69-.7,1.1-3.28,2.32-4.05,3.5-.93.09-4.25,1.25-4.75,1.93-2.34,3.18-.44,8.7-7,8.21-1.54-.12-3.76-.93-5.75-.57-3.74.67-11.52,5.95-14.01,8.92-1.1,1.31-1.95,3.43-2.93,4.84.73,1.09,1.67.79,2.7.29.41,1.65,1.3.4,2.41.64,2.72.59,3.65,1.33,4.76,3.84.15.34.61,1.67.81,2.18.49,1.3.56,3.9,1.51,5.1,1,1.26,4.55,1.13,3.35,4.24l-1.36.07c.56,1.78-2.62,2.66-4.04,3.9-2.57,2.25-4.19,5.05-6.55,7.41l1.03,2.78c1.28-.68,5.76-.32,6.96.16,1.51.6,4.93,8.61,7.32,10.56,1.99,1.62,5.68,3.61,8.14,3.7,1.69.06,5.67-.95,6.75-.75.16.03,2.16,1.77,2.33,2.15,1.33,3.1,1.32,6.09,4.86,8.32,1.35.85,4.21,1.73,5.84,2.22l-.49.97c2.29.12,4.66-.72,6.13,1.47.47,1.11-3.39,4.21-3.7,4.77-.71,1.27-1.5,5.85-2.06,7.17-.37.87-1.96,2.71-2.57,4.17-.5,1.19-.41,2.48-1.23,3.64,1.9.45.19,1.28.74,2.2.68,1.13,3.27-1.45,4.53-1.81,3.05-.88,5.04-.15,7.67,1.32,3,1.68,4.2,2.92,4.16,6.6-.01,1.17-.86,1.86-.86,2.81,0,.91,1.85,6.91,2.38,7.83,3.27,5.67,15.48,3.5,16.52,10.29.51,3.31-1.09,3.03-1.23,4.58-.15,1.66,3.1,2.87,4.53,3.39,3.86,1.39,10.87,2.72,14.97,3.02.95.07,2.11-.84,3.2-.3,1.21,1.62,6.04,4.19,5.86,5.9-.2,1.93-5.38,2.72-6.49,3.22-4.57,2.07-10.01,4.79-14.14,6.88-1.95.99-3.32,3.09-5.19,4.23-1.79,1.1-11.3,5.19-13.04,5.43-1.12.15-2.04-.67-3.41-.07-1,.44-1.17,1.51-1.47,1.53-.73.06-5.8.1-6.21,0-.38-.1-.32-.97-.61-.98-.68-.03-1.59.7-2.85.5-1.05-.16-2.22-1.59-3.61-1.58l-.09-1.36-.92.45c-.07-2.29-2.25-2.44-3.3-3.54-2.11-2.22-4.17-6.53-6.15-8.47-2.68-2.62-12.86-5.25-16.05-3.99-.42.16-.4.78-1.06,1-4.66,1.57-3.84.51-7.38-.6-1.92-.6-4.25.03-5.85-1.43-.46,1.82-1.62.24-3.11.77-2.6.92-4.45,3.42-6.2,4.54-1.94,1.23-5.1.73-6.01,3.24,2.46,1.98,5.12,3.81,8.17,4.72,1.38,4,.63,7.49-.02,11.49-3,.63-11.89,7-12.47,9.75-.13.6.41,1.32.31,1.51-.48.92-1.64,1.02-2.18,3.82-.3,1.54,2.31,12.08,3.24,13.07,2.43,2.59,3.64-1.17,4.61-2.22,2.04-2.2,6.58-3.51,8.22-.32.93,1.81-1.86,3.6-.55,5.63l9.92,2.52c1.68,1.47-1.26,4.68-1.6,6.7-.41,2.43.32,5.46,1.45,7.61.4.76,4.05,5.65,4.77,6.43.86.93,2.93,2.66,4.14,2.68-.09-2.42,1.22-2.33,1.73-3.15,1.01-1.64,1.56-3.89,3.53-4.77,4.1-1.83,8.82.73,13.09-.19.62-.14,5.12-2.37,5.5-2.68,1.09-.87,1.15-2.42,1.79-3.44.32-.51.96-.66,1.3-1.24,1.11-1.88.53-3.27,2.61-4.23,2.35-1.08,3.15-1.1,5.95-1.47.45-.06.96-.71,1.59-.77,3.49-.37,1.76,4.21,3.11,6.48.15.26,3.26,2.68,3.7,2.76,2.27.43,8.52.11,10.55-1,.66-.36.69-1.09,1.2-1.4.66-.39,1.21-.08,2.13-.72,1.26-.88,2.73-2.73,3.18-4.2,2.6.75,3.92,2.09,5.62,4.15.41.49.38,1.5.53,1.64.23.2,5.55.66,6.05.62.93-.08.66-1.04.99-1.04,2.72.02,4.72-.24,7.16-.97.37-.11,5.42-4.22,6.08-4.37,3.77-.87,9.58,1.55,14.78-.73.37-.16,6.42-4,6.69-4.3.3-.33-.07-1.02.46-1.34.56-.34,3.03-.92,3.79-.86,9.92.83,15.97,8.42,23.98,13.48,9.71,6.14,17.29,7.93,27.48,11.64,6.29,2.3,10.78,1.7,16.99,3.38,3.22.87,6.81,2.3,8.88,4.88.14.81-.72,3.14-1.18,3.87-.63,1-2.23,1.43-2.59,1.8-.48.49-.55,1.62-1.87,2.76-2.39,2.07-6.2,2.91-8.78,4.38-1.22.7-2.28,2.16-3.57,2.88-2.56,1.42-8.02,3.26-10.31,5.19-.62.53-3.07,4.83-3.55,4.99-.51.18-1.06-.46-1.58.08-.8.83-.57,2.45-.96,3.48-2.03-.07-2.06.91-3.38,2.24-.26.26-.99.05-1.3.47-.41.54-1.67,4.44-2.03,5.31-.35.83-.46,1.36-.74,2.04-.59,1.4-3.33,6.15-3.04,7.15l.97.54c-1.5,3.25-2.65,6.56-4.06,9.63-1.6,3.48-.53,4.16-1.22,7.01-.48,1.98-1.74,3.71-1.85,6.05-.05,1,.83,1.63.73,2.12-.1.51-1.1.92-1.31,1.63-.56,1.84-.49,6.35-1.1,8.65-.42,1.59-2.18,4.72-2.31,5.99-.15,1.39.76,2.1.87,2.84.03.25-.85.16-1.12.81-.44,1.08-.22,2.13-.97,3.41-.48.82-1.72,1.41-1.8,1.71-.41,1.61-.4,5.75,0,7.45-1.42.71-4.83.53-5.59,1.48-.92,1.14-.59,2.6-1.08,3.79-.41.98-2.71,5.46-3.34,6.4-1.94,2.87-8.43,8.98-12,7.33-.63-.29-1.41-1.73-2.09-2.22-1.62-1.18-4.91-4.13-6.16-4.78-1.91-1.01-5.4-1.07-6.63-2.38-1.16-1.24-1.59-3.87-2.4-5.18-.55-.89-4.84-4.58-5.33-4.75-2.28-.79-6.93-2.3-9.22-2.12-3.46.28-9.29,3.33-11.36,3.32-.95,0-1.25-1.21-2.35-1.38-1-.15-2.72-.28-3.91-.42-6.46-.76-4.49.48-8.97,1.67-1.78.47-2.59.56-4.16,1.08-1.35.45-3.56.46-3.63,2.81-.11,3.71,5.45,1.61,6.53,4.61.21.59-.38,5.56-.75,6.46-.69,1.7-6.14,4.4-7.91,5.26-2.07,1.01-4.13,1.29-6.16,2.24-3.48,1.64-7.18,7.03-7.56,10.84-.23,2.27.19,6.42,3.36,5.95,1.2-.18,1.46-1.3,2.25-1.71.99-.51,4.63.01,5.5.68.81.62,3.46,6.31,1.35,6.59l.43,1.24-1.47-.3c-.31,2.31-1.94,2.05-2.81,2.86-1.19,1.1-.18,5.7.84,6.86.13.15,2.96,1.99,3.31,2.18,2.96,1.55,7.73,1.92,11.09,2.08,22.84,1.1,48.24-1.38,70.6,1.08,3.67.4,3.06.27,6.76-.38,2.76-.48,4,.07,6.58.1,2.07.02,4.57-.65,6.81-.37.93.12.47.93,1.4,1.05,2.27.29,4.74-.55,6.84-.48,0,0,12.99-12.64,27.42-16.44.24-.06,4.51-.71,4.75-.69,1.43.13,3.25,2.4,5.52-.13,1.3-1.44-1.98-8.87-1.62-11.09,1.01-.03,1.5-1.02,1.88-1.27,1-.63,3.81-1.23,5.22-1.99,4.16-2.24,7.01-6.81,10.15-10.25.48-1.32-.34-2.53-.39-3.79-.05-1.21.85-1.8,0-3.31-.15-.27-.7-.36-.98-.71-.29-.37-.23-1.11-.61-1.46-.99-.89-3.65-1.11-4.26-1.42-.74-.37-5.78-4.64-6.33-5.3-1.59-1.91-.89-8.31.2-10.53,4.92-10.04,7.96-13.41,16.72-19.79,7.93-5.77,11.85-9.46,22.37-4.81,1.64.72,4.64,3.85,6.16,4.54.6.27,1.22.13,1.84.14l-.47.94c1.33,1.13,3.93,1.08,5,1.6.62.3.73,1.04,1.01,1.19,1.84.98,3.72,1.91,5.44,3.1l.72-.97.08.86c1.11-.67.8.49,1.23.58.84.18,1.77-.12,2.72.13,1.05.27,2.58,1.82,3.54,2.32,1.35.7-.38-1.39.97-.97,1.52.47.82,1.98,2.19.98-.34,1.4,1.46,1.87,2.63,2.97,1.36,1.28,3.22,2.71,4.39,3.92,1.93,1.99,2.5,5.65,5.67,5.8l-.5,1.46,1.36.08c-.2,2.35,2.35,3.47,3.01,4.69,1.87,3.4,4.1,10.74,4.89,14.41.08.38.96.32.95.53-.03.48-.68,1.41-.73,2.2-.18,3.15.73,9.63-4.36,9.56-2.92-.04-3.1-2.21-3.99-4.06-.28-.58-1.04-.54-1.1-.9-.12-.7.47-2.45.22-3.61-.85-3.97-4.25-4.48-7.18-5.88-.93-.45-5.73-3.31-6.09-3.38-1.1-.22-2.91.42-4.22.31-.95-.08-2.53-.99-3.48-1.04-1.42-.07-4.39.95-6.34.32-1.04-.34-.85-1.1-1.56-1.41-3.81-1.66-9.19-3.05-13.15-3.65-1.16-.18-1.89-1.46-3.53-.32l-.05,1.14c1.96,2.79,3.55,6.31,1.92,9.65-.09.18-2.07,3.11-2.2,3.26-1.11,1.32-3.99,1.81-5.07,2.73-1.27,1.09-1.14,3.58-3.46,4.37-1.3.44-2.05-.19-3.13-.08-1.98.2-5.81,2.1-6.53,4.05-.29.8.08.58.56.79,2,.85,2.9-.84,4.62-1,1.13-.1,2.45.61,3.69.38,2.27,3.2,1.16,2.73-1.08,4.22-.36.24-.45.93-.61,1.03-.17.1-3.12-.14-3.94.13-.54.18-.84,1.9-2.31,1.47l.49.95-2.43.5c-1.05-2.15,1.07-3.44,1.39-5.63-1.13-1.52-3.23-.02-3.85,1.09-.67,1.19-.22,2.24-.47,3.2-.14.53-1.1.44-1.38,1.15-.44,1.14.05,3.22-.12,3.76-.11.37-.92.27-.94.6-.11,1.54.62,2.8,1.02,4.01,1.9.99,3.43-1.47,4.57-1.64.32-.05,4.05-.16,4.26-.13,1.67.29,2.92,3.49,3.81,4.91.21.33.9.33.97.66l-1.6,7.15v6.63l6.69,4.79M85.86,40.36c.54.19.6.94.98,1.2.5.34,3.11,1.72,3.25,1.96.15.27,1.29,4.38,1.22,4.78-.11.67-.9,2.69-1.24,3.32-.32.59-2.56,2.6-2.83,3.1-.62,1.15-.59,3.06-.98,4.38-.27.89-1.47.37-.77,2.62-1.43.14-2.7,2.67-3.87,2.38-1.56-.39-2.85-7.77-1.81-9.37.3-.46,1.26-.51,1.44-1.14.04-.14-.02-2.69-.06-2.86-.06-.31-.85-.18-.87-.52-.14-3.28-.15-1.03-1.68-3.15-4.35-6.05,3-6.65,7.23-6.7ZM28.33,47.11c-.44-11.32,9.84-1.82,5.5,1.29-2.62,1.88-3.38-.49-5.5-1.29ZM119.35,140.49c.01,2.52-6.36,2.05-7.97,1.56-2.02-.61-2.78-2.72-3.14-2.81-1.14-.28-2.8.23-4.19-.09-.9-.2-1.43-1.04-2.45-1.25-1.02-.21-13.93,2.81-14.37,3.43-.19.27.03,1.02-.18,1.22-.14.14-3.21.94-3.82,1.08l.94-6c2.33-.57,4.05-3.57,5.43-4.44,1.21-.76,2.93-.41,3.97-.79.62-.23.75-1.73,2.66-1.81.72-.03,1.29.58,1.86.6,1.85.07,3.75,0,5.6-.25.24-.22-1.8-2.8-2.43-3.11-.36-.18-1.04.25-1.47-.06-1.77-1.29-1.84-1.26-3.94-1.98-6.29-2.15-11.86-1.7-18.18-2.35-1.12-.12-3.88-1.07-4.95-1.05-1.69.03-6.34,2.28-7.31.27-1.07-2.21.46-2.33.57-2.59.27-.65-.03-1.28.47-1.85.41-.47,2.77-1.45,3.53-1.62,3.98-.89,15.6,1.02,18.98,1.99,2.14.61,2.69.43,4.13.75.5.11.99.99,1.57.89,2.72-.5-2.1-3.83-2.61-4.23-5.62-4.32-12.66-8.11-18.39-11.38-1.64,1.07-.92-.41-1.98-.88-1.17-.52-3.04-.14-4.06-.42-.86-.24-6.46-2.7-6.73-3.18-.65-1.15.45-5.04-1.1-6.48,1.82-.38,1.23-2.4,1.96-2.95.56-.42,1.58.06,2.42-1,1.66-2.1-1.48-2.82-3-3.32-.93-.31-2.64-.33-3.49-.45-6.93-.94-8.29,2.16-14.21,3.59-1.23.3-2.03.78-2.48-.51l-1.17.5c.49-1.61-1.67-2.16-2.23-3.07-.39-.62-.77-5.24-.54-5.88.41-1.13,3.43-2.89,2.57-4.23-2.11-2.33-3.58,1.26-5.78.91-1.1-.17-4.89-3.08-3.75-4.3l1.45-.02c-1.27-1.89,2.89-2.13,3.31-2.57.2-.21-.12-.89.45-1.32,1.69-1.31,3.02-.38,4.17-.63,2.13-.46,4.01-1.67,6.35-1.32,2.45,2.17,5.9,2.83,9.08,3.47-.73,2.22,3.48,1.88,3.45.67,0-.19-.8-.62-.97-.98-2.92-6.19-5.41-4.37-10.12-6.41-.66-.29-.75-1.14-1.09-1.3-3.45-1.62-7.66-1.14-11.28-2.1-.42-1.77.88-3.97-1.4-4.81,1.83-2.4,4.09-3.88,5.57-6.4.11-.2.66-.19.69-.25.37-.87-1.76-1.6-.14-3.32.77-.82,1.78-.77,2.63-1.27,2.22-1.31,1.53-2.23,5.17-1.42.44.1,5.26,1.66,5.5,1.83.24.17,3.61,4.44,3.72,4.72.19.48-.24,1.26-.01,1.97.58,1.84,7.83,11.04,9.6,12.37,2.05,1.55,1.29.14,1.62-.54.11-.22.91.16.77-1.27-.22-2.16-2.02-3.68-2.6-6.15-.56-2.38-.66-4.08-1.28-6.22-.2-.69-.3-4.32-.51-4.53-1.5-.35-2.94,1.48-4.14,1.44-.36-.01-6.28-2.71-6.47-3.01-.25-.39-.02-1.25-.36-1.82-.38-.63-1.93-1.12-2.62-1.78-2.4-2.29-.55-3.48-1.53-6.21.08-.99,4.63-2.06,5.69-2.22,2.83-.44,5.93.86,7-2.49-2.78-.9-7.05-2.22-5.35-5.86l3.89.49s0-.07.01-.12l.46.17c.24.62,1.29.9,1.7,1.44.66.87.2,2.25.73,2.63,2.45,1.73,5.59,1.88,8.45,5.12,5.59,6.33,1.09,16.73,3.07,22.97.45,1.42,2.3,3.49,2.52,4.1.18.52.02,2.06.38,3.17.15.47,3.02,6.43,3.29,6.7.29.3,3.15,1.43,3.64,2.21.91,1.43,1.48,4.64,3.04,6.95.92,1.36,2.42,2.28,3.14,3.64.29.55-.49,1.42,1.44,2.77.43.3,1.21.08,1.29.16.06.06-.47.81-.39,1.17.14.58.97.59,1.19.93,1.48,2.32,5.06,5.46,7.36,7.17,1.25.93,2.82,1.08,4.05,2.16,1.63,1.42,1.42,2.9,2.19,4.18.19.31,2.32.6,2.99,1.13,2.06,1.62,4.06,4.43,5.74,6.2,2.88,3.03,5.78,6,8.57,9.1-.16,4.51-.44,9.25,1.39,13.48-1.38,2.49-4.51,1.47-6.31,1.96-.92.25-.97,1.62-2.33,1.32-.63,2.18,1.42,3.98,1.43,6.07ZM16.4,216.38c-2.32,4.2-7.55,1.09-9.53-2.01-.29-1.16,6.41-5.23,7.79-4.85.56.18.64.96.97,1.24,2.23,1.9,2.39,2.69.78,5.63ZM17.38,185.82c1.83-.99,3.01-1.85,5.42-1.02.59.41.69,3.13.38,3.62-.88,1.41-6.67-.01-5.8-2.6ZM36.17,243.1c-1.43,1.66-2.14-.2-2.58-.42-2.33-1.17-4.22-2.16-2.05-5.18.81-1.12,3.75-2.04,4.77-1.59.11.05.81,1.39,1.86,1.32.53.61-1.46,5.25-1.99,5.87ZM97.5,225.92c-.48,1.07-3.22,8.39-3.67,8.79-.22.2-.94-.01-1.2.23-.25.23-.02,1.01-.45,1.37-.93.78-4.92,2.72-6.01,2.2-1.1-.68-1.06-1.89-1.51-2.82-.17-.35-.74-.41-.76-.49-.79-2.35.81-2.37,1.12-3.01.17-.35-.08-1.6.21-2.34.22-.58,3.8-5.74,4.53-6.56,2.14-2.4,4.54-2.08,7.33-3.07.66.18,1.04,1.6,1.47,2.26.1.15.52.15.74.2v.64c-.58.87-1.34,1.64-1.78,2.61ZM118.19,224.48c-.06.15-.91.21-1.21.92-1.26,2.95-1.64,6.12-3.59,9.1-.92,1.4-2.95,4.36-4.83,3.02-.4-.28-.31-1.2-.62-1.56-1.14-1.33-1.97-1.25-1.6-3.72.24-1.64,1.06-6.01,1.74-7.44.71-1.48,2.14-2.29,2.58-4,.78-.77,1.82-.12,2.46-.31,1.83-.53,4.99-2.76,6.05-.31.05.22-.82,3.92-.97,4.3ZM118.7,213.04c-1.65.5-6.12,1.4-7.97,1.76-3.2.63-9.62-.9-12.14.9-1.92,0-13.25-.38-13.85.16-.04.04.32.7.14.93-1.24,1.55-1.95,3.18-3.12,4.49-.52.58-3.4,2.71-4.05,2.95-1.41.52-3.54-.09-4.95.14-1.91.31-4.98,2.47-6.44,2.52-.86.03-1.28-.63-2.15-.61-2.37.06-4.99,1.97-7.36,2.23-2.45,2.85-6.75,8.98-10.86,8.73-.17-.01-3.15-.95-3.3-1.03-1.92-1.07-1.35-2.83-2.63-3.8-.63-.48-3.43-.52-4.37-.7-.32-1.34-2.31-1-2.16-2.01.09-.62,3-4.58,3.45-4.86,1.21-.74,6.94-3.7,8-3.94.62-.14,2.72.24,3.77.12,1.27-.14,2.43-.83,3.83-.57l.87-3.1c-.88-.1-1.04-1.11-1.73-1.43-3.49-1.62-13.16-1.24-16.82.42-1.53.69-1.88,2.43-4.31,2.16-3.7-.4-1.86-2.81-3.61-5.2-.66-.57-5.68.29-6.09-2.2-.04-.22,2.23-3.69,2.42-3.81.92-.62,5.8-1.73,7.06-1.77,1.02-.03,7.07.27,7.65.55.58.28.61,1.06,1.2,1.34,4.19,1.95,7.12.92,11.12,1.33.81.08,5.19,2.02,5.61.47.01-1.76-3.01-3.07-4.38-2.68,1.75-3.97-4.21-5.17-6.47-7.78-1.18-1.37-1.98-4.18-4.25-5.11l-1.51.46c-.41.28.03,1.13-.01,1.16-1,.8-4.85.69-6.13.15-6.4-2.7.42-11.02,5.35-10.26.21.03,3.67,1.7,3.9,1.85,1.51,1.02,3.05,5.25,5.68,5.66,7.39,10.6,17.25,12.27,29.32,10.73,1.03-.13,2.02-.94,2.65-1.01,1.67-.19,3.15.77,5.28-.34.28-.14,2.22-2.15,2.38-2.19.38-.09.94.33,1.46.21,2.31-.5,10.37-4.74,13.2-6.22,3.36-1.76,7.71-3.36,11.43-5.51.71-.41,2.2-1.81,2.86-2.24.63-.41,1.42-.32,2.08-.64l.09-1.35.95.47,1-2.42.72.97c1.02-1.78,3.18-2.4,4.4-3.4,1.65-1.34,3.14-3.67,5.41-4.83,1.22-.62,6.02-2.28,6.96-1.46,1.02,1.92,1.2,4.42,1.85,6.18.93,2.54,4.28,4.48,5.86,6.11.25.26,2.49,4.25,2.5,4.61.02.98-2.85,5.72-3.64,6.81-3.63,4.96-8.37,7.04-13.29,10.16-.49.31-.78,1.22-1.64,1.79-2,1.34-4.22.03-6.25.56-.97.25-3.14,2.84-4.95,3.38ZM171.97,194.98c-.09.37-.82.3-.94.7-.44,1.51-.15,3.19-1.47,4.67-.86.97-3.59,1.52-4.26,1.96-1.66,1.1-3.44,4.27-5.85,3.35-2.9-1.11-1.93-2.21-2.63-3-.29-.33-3.03.68-3.56,1.04-2.13,1.49-2.51,4.35-2.88,4.69-.25.23-1.05-.13-1.36.41-.47.83.01,2.15-.17,2.75-.44,1.46-1.69,3.1-2.14,4.59-.26.86.09,1.96-.18,2.76-.21.63-1.1.67-1.23.9-.19.33.31,1.14-.88,1.89-.89.56-1.76-.06-2.66.41-.04-1.64-2.79-3.54-4.32-3.08-4.63,1.4-3.83,8.4-8.66,8.96-2.24.26-4.29-4.25-4.11-6.08.16-1.7,2.85-3.11,3.05-4.99,1.03-1.08,2.37-.07,3.4-.25.51-.09,5.04-2.97,5.59-3.45,1.95-1.72,4.39-6.76,6.62-7.99,2.46-1.35,2.87-2.21,5.12-4.52,1.46-1.49,3.47-2.81,4.71-4.94,1.41-2.42.7-1.02,1.96-2.4.66-.72.92-2.75,2.88-2.86,3.01,1.37.9,3.67,1.29,5.44.07.33,1.25.5.99,1.44,1.56,2.35,3.81-3.03,4.18-3.46,1.16-1.37,3.12-2.58,4.06-4.19l2.94.26c-.16,1.35.8,3.69.49,5.01ZM78.24,400.49c-1.18,1.13-3.32.16-4.72.59.02-.54-.37-1.25-.29-1.7.13-.79,2.31-2.71,2.83-2.63.72.12,1.83.6,2.28,1.22.52.7.54,1.91-.09,2.51ZM92.98,376.23l-.48-1.46,2.42.23.37,1.63c-1.14.68-1.66,1.85-3.28,1.55v-2.19s.97.25.97.25ZM197.74,363.32c-.04.32-.95.02-.94.92.01.92.63,1.81.53,2.91-.17,1.85-2.54,7.29-3.89,8.83v.72s.97.01.97.01l-.87.54c.55,4.13-2.8,7.65-6.93,7.75-.16,2.29,2.14.57,2.7,1.43,1.47,4.46-.98,3.97-2.93,5.9-.67.66-.86,2.11-1.76,3.11-1.87,2.06-5.79,1.5-4.88,5.12-2.16,1.05-4.94,1.22-5.32,3.94,2.99-.15,4.92.98,6.65-1.87l3.09,1.63c-1.31,1.37-.33,3.25-.47,4.31-.07.55-3.63,3.7-4.21,4.41-.51.62-.66,1.79-1.44,2.7-.55.63-3.98,3.38-4.1,3.7,3.12.7-2.81,2.98-3.69,3.14-1.12.21-2.92.23-3.69-.68-.27-.31-.45-3.8-.33-4.28.32-1.31,1.86-2.42,2.35-3.15.4-.59.26-1.69.61-2.01.23-.21,1.03.03,1.23-.16.17-.16.47-2.92,1.1-3.55-1.2-.93-1.89-1.99-3.67-1.77-.85,2-2.72,5.23-5.15,3.66.82-1.79,1.38-4.25-1.44-4.12l-.21,2.48c-3.47.07-1.91,2.8-3.46,4.34-.3.3-3.45,3.05-3.67,3.16-1.41.69-6.03,1.81-7.56,1.67-.8-.07-1.32-.89-2.39-.95-7.04-.34-13.62,1.43-20.51.21-2.74-.49-7.2-2.96-9.77-2.66-1.78,1.32-3.98,1.97-5.12,4.17-.33.64-.79,4.69.45,4.21,1.34,1.8-6.24,1.79-7.25,1.17-.36-.22-1.04-1.52-1.01-1.92,2.81-1.46,1.74-5.97,3.23-8.54.1-.17,2.57-2.74,2.76-2.8.34-.12.99.35,1.72,0,.85-.4.98-1.5,1.45-1.63,1.49-.41,7.62.46,7.97.27.45-.4.6-.92.73-1.48.19-.78-1.19-3.46-1.57-3.67-.84-.47-3.38-.63-4.64-1.12-5.08-1.96-5.31-2.57-11-1.88-.76.09-1.41-.43-1.8-.41-.32.02-.21.94-.57.98-.5.05-.72-.52-1.94-.05-3.54,1.34-1.14,4.09-1.14,5.68,0,2.57-3.89,3.53-4.67,1.23-.73-2.17,1.37-5,.14-6.74-1.05-1.47-5.26.92-6.59-1.22-.09-.14-.98-2.95-1-3.12-.17-1.61,1.64-1.96,2.28-2.9.41-.6.31-1.62.67-2.01.2-.22,2.81-1.15,3.36-1.27,4.38-.96,10.95-.83,15.15.68,1.78.64,4.23,2.98,5.47,3.49,1.78.73,6.01-.23,8.07,1.36l-.23-3.42c-3.54-2.68-6.56-6.92-10.98-8.03-2.77-.7-7.54.08-5.33-5.32,1.09-2.67,5.23-5.46,8.03-5.64,1.91-.12,4.09.61,4.86,2.45.49,1.16-1.09,4.32-.46,5.35.15.24.78.31,1.01.63.3.42.17,1.01.7,1.51.38.36,2.62,1.26,2.9,1.59.96,1.12.43,2.95,2.35,2.64l.3,3.38c.55.98,1.54-.56,2.42-.53.24.01.23.83.64.97,1.59.52,4.24.45,5.64,1.12.17.08,2.98,1.85,3.13,1.97.99.82,3.14,4.62,4.31,5.68.82.74,2.49,1.52,3.51.9.21-.13.3-.86.61-1.07,1.68-1.15,11.09-9.04,11.96-9.07,1.98,1.13,1.44-.16,2.04-.44,3.25-1.55,14.36-8.39,15.94-11.27.68-1.25.26-4.74,3.2-3.88l-.5-.97c.5,0,1.18.22,1.49-.32.27-.47,1.26-9.3,1.41-10.73.58-5.67,1.4-11.02,2-17.02.3-2.97-.12-5.43.99-8.62,1.08-3.09.27-3.83.51-6.98.03-.36.82-6.27.91-6.71.08-.4.93-.28,1.24-1.29.41-1.31.1-5.22.52-6.9.47-1.91,1.77-3.84,2.39-5.55.28-.78,0-2.06.26-2.81.67-1.87,4.82-6.18,6.32-7.93,1.25-1.46,2.75-5.12,4.99-5.04,2.06.07,4.38,2.08,4.75,4.08.55,2.91-.6,6.87-1.66,9.5-1.36,3.35-3.04,6.88-5.32,10.04-.49.68-1.83.69-1.28,2.61l4.39-.27,1.95,3.19c-.35-.04-.83-.1-.96.35-.92,3.02-.68,5.89-1.09,8.57-.3,2.02-1.19,3.18-3.25,3.34.43,4.04-2.77,6.74-3.96,10.18l3.41.5c.2.82-.66.31-.86.54-.29.35.9,3.03.8,4.03-.12,1.23-1.25,3.33-.33,4.59.29.4,2.48.68,3.09,2.79.05.16.17,3.25.15,3.42ZM203.03,402.22c-.58,1.92-1.41,3.69-3.49,4.26l-1.7-1.72c2.03-3.05,1.47-6.83,1.53-10.41,5.2-2.88,2.53,3.51,4.21,6.18-1.6.07-.34,1.01-.55,1.69ZM281.23,115.08c-.18,1.73-1.51,1.56-2.35,1.95-2.64,1.23-4.32.67-7.14.75-.35.01-.07.98-1,1.03-.53.03-4.1-.93-4.51-1.18-4.27-2.58-7.75-8.03-9.46-12.62-.86-2.3-1.86-4.14-2.9-6.46-.36-.8-1.28-5.68-1.28-6.59,0-.97.68-2.56,1.8-2.47l-1.47-2.19c1.2-.39.81-2.39,1.34-4.04.39-1.21,1.44-2.43,1.59-3.3.52-3.07-2.14-4.95,2.93-6.72.54-.19,1.23.26,1.92-.07.71-.33,5.99-5.36,6.18-6.1.28-1.08-.55-1.49-.6-2.21-.07-.85,3.4-4.63,5.06-3.03.33.32,1.94,3.6,2,4.14.13,1.07-.43,1.71-.42,2.28,0,.34,1.02.05,1.03.98.03,1.87-1.52,3.28-2.04,4.91-2.26,7.05-4.17,13.35-4.32,20.51-.07,3.53-.98,3.58.68,7.4,1.29,2.98,4.83,8.58,8.1,10.11,1.45.68,5.15.25,4.87,2.92ZM263.12,137.48c-.16,2.39-1.34,2.13-1.72,2.95-.71,1.54-.91,11.99-.17,13.55.29.61,1.16.65,1.57,1.49,1.07,2.17-.13,5.87-2.82,6.2-1.18-.09-3.28-2.57-3.23-3.83l-1.43.19c.22,1.06-.95,1.4-.96,1.5-.11,2.14,3.86,5.6.27,8.49-2.95-2.62-5.27-1.99-7.56-5.6-.46-.72-3.84-7.87-3.9-8.34-.13-1.16.17-3.59,1.03-4.33-1.75-2.88,0-2.55.44-5.14l1.94.5c-.58-1.92.7-1.81,1.15-2.52,3.2-5.11,2.66-10.08,4.44-15.39.03-.09.69-.14.75-.47.24-1.27-.51-2.59-.37-3.27.1-.44,1.41-2.34,1.64-3.71.12-.69-.54-1.82-.22-2.34.52-.84,2.86-.78,3.67-.44.12.05,1.8,1.45,1.96,1.7.68,1.11,1.66,4.53,2.21,6.1.6,1.72,1,1.89,1.26,2.53,1.32,3.17-.54,4.78-.7,6.35-.07.69.86,2.14.75,3.83ZM240.01,189.2c1.23-.09,3.97,3.28,4.51.45.04-.22-.62-4.24-.72-4.44-.43-.82-1.26-.92-1.46-1.25-1.17-1.9-1.82-9.34,1.13-10.06.24-.16.4-.09.61.06.11.08.03.64.16.72.24.15.86-.35,1.34-.09,1.89,1.06,2.47,2.72,3.85,3.76.92,3.27.33,7.11.77,10.13,1.18,7.97,4.39,14.58,8.41,20.65,1.1,1.67,2.53,3.48,1.99,5.43-.02.08-1.12,1.19-1.2,1.21-.73.16-6.51-.8-7.54-1.1-.91-.27-4.37-1.75-4.93-2.27-.51-.47-.35-1.25-.82-1.72-.63-.63-2.17-2.2-2.59-2.58-.25-.23-1,0-1.2-.2-.16-.16-.99-3.4-1.4-4.24-1.48-2.99-2.55-3.28-2.63-6.59,0-.17-1.77-.48-.89-2.93.24-.66,1.11-.65,1.27-.87.43-.6-1.32-3.9,1.35-4.09ZM251.08,9.87c.13-.25,3.68-3.89,3.91-4.05.12-.08,2.45-1.1,2.59-1.13.35-.07,4.2.03,4.48.13,1.41.51,3.5,5.93,2.97,7.78-.34,1.19-4.31,3.84-5.53,3.83-1.08-.01-1.65-.94-2.41-.98-3.18-.15-1.71,1.05-5.16-1.19-.24-.16-.85.15-.9.09-.71-.88-.53-3.42.04-4.48ZM161.47,65.66c-2.11-2.24-1.4-.2-1.99-.04-.67.18-2.06.03-2.85-.01-4.67-.29-10.28-1.76-14.88-2.63-1.24-.23-5.56-3.37-6.34-4.41-.59-.78-.57-1.7-1.03-2.42-.32-.51-1.01-.56-1.28-1.04-1.43-2.58.18-8.8,3.52-9.48,1.17.93.59,2.38.91,3.78.03.12.54.13.6.25.27.51-.55,1.49,1.66,1.34l-.97.72c.33.69,1.42.5,1.81.88,1.46,1.41,1.97,2.74,4.2,4.72.43.38.23,1.09.46,1.32,1.14,1.16,6.15,1.54,7.89,1.55,9.01.01,17.84-2.58,26.79-2.44.62.01,1.4-.55,1.96-.39.62.18.63,1.17.86,1.34.09.07,1.61-.34,2.22-.25,2.61.37,8.63,1.08,8.97,4.23,2.15-1.01,1.88,1.15,2.85,2.11.7.69,2.61.8,2.95,2.29l-1.46.24c1.9,4.92-2.83-.13-4.08-1.03-2.06-1.48-2.65-2.29-5.45-2.37-1.42-.04-4.45.4-6.21-.28-.45-.17-.38-.95-.64-.97-.9-.08-1.42.73-1.91.76-4.9.33-5.74-1.33-11.18.82-1.68.66-5.39.25-7.38,1.42ZM194.95,78.01c-1.08,1.52-9.8-1.09-11.35-2.18-1.47-1.04-2.54-5.6-1.59-6.81.37-.48,2.95-1.85,3.66-1.8.45.03,3.91.94,4.32,1.12,1.24.51,3.18,1.73,3.51,3.07l.9-.42c.09,2.37,1.53,4.67.54,7.03ZM212.05,97.28c-.7.26-4.45.59-5.16.52-.45-.04-.02-1.54-1.26-.98l-.24,1.46c-.63-1.09-2.32-1.24-2.75-1.51-2.07-1.27-2.65-2.62-3.63-4.86-4.13-.1-2.31,4.52-7.26,4.93-.24.02-3.18.02-3.35,0-.31-.04-.25-.69-.71-.94-.43-.23-1.26.1-1.82-.52-.85-.94-.55-3.91-3.64-3.43.13,1.72-1.05,2.65-2.16,3.72-.22.21-.94.07-1.14.3-.26.31-.01,1.07-.18,1.25-.63.64-5.49.56-6.24-.47-.17-.24.78-1.62-.55-2.59-1.1-.8-2.27-.3-3.24-.65-3.61-1.32-1.91-3.48-2.7-4.38-.28-.32-2.88-1.59-3.58-2.74-3.06-5.03-1.08-6.4,1.91-10.16.51-.64.59-1.7.97-2.17.61-.73,3.37-2.24,4.22-3.3,2.59-.28,2.23,1.9,2.45,2.18.08.1,1.09-.99,2.23.44.93,1.15.75,2.63,1.2,3.94,3.29-1.43,6.05,2.68,8.14,3.3,1.8.54,4.23,1.12,6.2,1.64,3.36.9,5.33.71,8.4,1.08,3.19.38,6.52,1.78,10.17,1.32.77-.1,2.87-.99,3.41-1.46,1.89-1.65-.53-3.88-1.78-5.06-1.52-1.44-4.64-2.22-3.36-4.71h-1.47c.77-1.2-.29-1.94-.54-3.16-.42-2.07-.03-1.35-.86-3.09-2.48-5.23-5.75-13.34-9.52-17.45-1.99-2.16-4.72-3.55-6.39-6.04-.83-.22-3.26,3.02-4.04,3.4-.6.29-6.1,1.09-6.34.87-.24-.22-.31-2.37-1.34.15-1.92-.54-3.85-1.23-5.68-2.02-.34-.15-.3-.69-.75-.91-.36-.17-1.23.1-1.95-.17-.26-.1-3.28-4.13-3.37-4.39-.22-.63.04-7.38.3-7.82.33-.56,1.16-.17,1.38-.39.26-.26,1.53-5.1,3.64-6.13.78-.38,1.78.17,2.57-.61.21-.21,1.58-2.76,1.58-3.09.03-1.33-1.96-1.74-3.09-1.72-.24,0-.2.74-.58.87-1.38.46-4.02,1.38-5.27.57-3.49-2.28-1.04-4.79-.13-7.75,1.2-.06,2.39-.46,3.57-.58,4.89-.5,8.08.56,12.2.79,5.06.29,8.95-.9,13.88.92.95.35,2.13-.51,2.73,1.69.73,2.67-3.49,4.05-2.65,6.97.81,2.79,4.33.58,5.53,3.76,2.09,5.54-5.02,6.38-2.56,12.31.6,1.44,2.09,1.67,2.22,1.91.1.17-.49.92-.2,1.39.39.63,1.63.63,2.11,1.1.49.47,1.12,2.58,1.58,3.42,1.01,1.85,2.06,4.05,3.02,6.37,1.16,2.79,1.72,5.86,3.36,8.36,1.57,2.4,4.22,3.99,5.87,6.29,1.03,1.43,2.56.92,2.3-.81-.43-2.95-1.95-8.57-3.15-11.5-1.2-2.93-4.6-6.46-5.02-10.07l-5.9-6.37c1-2.35,2.24-3.31,1.48-6.06,3.03-.92,5.46,1.22,8.13,1.77,3.67.76,12.4-.54,15-2.22,1.88,1.59,2.6-1.63,3.7-2.2,1.09-.56,3.05.14,2.91-1.73-1.85-.34-3.31-1.79-5.12-2.2-1.38-.31-4.43.12-5.43-1.72l-5.52,1.25c-1.59-.76-1.79-3.57-1.97-3.69-.26-.17-1.03.52-1.37.38-.8-.32-2-2.16-2.54-2.94-1.12-1.63-2.97-3.64-4.88-4.96-1.83-1.27-4.04-2.09-5.83-3.44,1.65-2.82,1.65-3.95,5.27-4.52,1.33-.21,8.44.2,9.62.61,1.32.47,2.29,1.97,3.81,2.09,2.2-.2,3.05-3.48,3.59-3.81.44-.27,4.7-.82,5.27-.74.54.08,1.57,1.02,2.34,1.35.54.23,1.24-.15,1.28-.09.13.23-.12,1,.11,1.32.35.46,1.49.31,1.97.64,2.33,1.62,3.8,5.51,4.8,6.03.56.29,3.09.65,3.86,1.1,1.2.7,3.67,3.58,4.83,4.86.44.49,1.93,3.99,2.97,2.25.28-.47,1.6-2.76,2.03-2.97.21-.1.93.46,1.5.29,1.32-.38,2.34-1.65,4.02-1.87,5.5-.72,9.91-.38,14.98,1.15,2.88.86,5.14-.03,6.13,3.63.83,3.06-1.69,2.92-1.86,5.47-.23.21-1.49-.35-2.09-.29-5.01.44-12.39,2.08-16.65,4.17-.75.37-1.62.56-2.32,1.01-.25.16-2.77,3.06-2.81,3.27-.19.98.41,2.09.88,2.92.24.42,2.9,3.82,3.12,3.94.65.36,1.72-.07,2.51.1.17.04,1,1.13,2.97.97.34-.03.22-.93.57-.97,1.12-.13.98.67,2.97-.4.52-.28,3.82-2.91,3.91-3.14.81-1.94-1.26-4.28-.36-6.37,1.36-.49,1.85-1.73,3.42-1.3l-.49,1.45c2.4-.27,3.18,2.72,2.42,4.5-.63,1.47-1.5,3.37-2.36,5.1-.08.15.38.7-.01,1.39-1.1,1.93-2.57,1.26-3.57,1.74-.48.23-.97,1.35-2.11,1.4-.18,0-.17-.86-.53-.95-4.74-1.14-3.27,3.66-4.45,6.2-1.73,3.71-3.67,3.73-7.36,3.11-1.31,3.29,3.06,7.36.31,10.56-.12.14-2.78,1.77-3.05,1.82-1.46.25-4.91-.11-5.41-1.65l-1.65.46c.97,3.23,2.65,6.85,1.41,10.33-.08.22-3.03,2.75-3.24,2.8-1.1.26-5.08.62-6.12.41-.81-.17-4.41-2.7-4.74-1.1-.34,1.64,1.26,2.15,1.35,2.42.52,1.49.1,5.51-.66,7.04-.7,1.41-4.72,4.53-6.21,4.32-.36-.05-.78-.63-1.16-.68-2.01-.24-3.72-.16-5.64-1.18-.82-.44-1.55-2.56-3-2.4-.82.18-.86,2.07-1.4,2.77-.2.26-4.83,3.88-5.13,4ZM191.33,219.56c-1.29,1.49-3.86.95-3.69-1.09.03-.4,3.89-2.11,4.21.01-.09.4-.25.77-.52,1.08ZM190.88,191.31c-2.91-.19-3.28-1.67-4.87-3.15-.11-.1-.67.32-.76.23-.08-.08-1.18-1.7-1.24-1.84-.35-.83-1.49-6.6-1.54-7.54-.22-4.3,1.52-11.18,2.38-15.39.21-1,3.76-6.91,4.3-7.2.61-.34,1.62.15,2.24-.2.17-.09.61-1.33,1.31-1.87.94-.73,5.48-1.55,5.61-2.2-.18-2.84-3.67-1.86-4.86-3.62,1.65.46,1.49-.97,2.18-1.46,1.52-1.08,2.72-1.69,4.61-1.99v-1.61s-1.06-.7-1.06-.7c-1.95.84-3.78.23-5.73-.1l.35-.86c-1.73-.03-.46-3.44.25-3.93.16-.11,3.12.18,3.92-.08.56-.19.46-1.1,1.16-1.37,1.06-.4,2.98-.14,4.13-.4,4.12-.91,9.94-5.45,12.65-8.31.59-.63.74-2.16,1.1-2.48,2.61-2.36,5.45-8.76,6.53-12.08.86-2.63.97-5.4,1.75-8.14.96-3.37,1.78-2.17,3.75-3.08.65-.3,1.08-1.45,1.78-1.59,2.89-.57,2.59,3.5,3.03,5.59.82,3.94.7,4.6.7,8.56,0,1.12.53,2.42.41,3.55-.11,1.03-1.01.73-1.4,1.55-.5,1.05-.69,3.73-1.05,4.31-.52.83-3.1,2.82-3.43,3.55-.55,1.22.23,2.34-.26,3.48-.79,1.85-5.28,5.14-4.45,6.63,3.36,2.48,5.06-2.16,6.75-4,.09-.09.52-.2,1.54-1.43,2.58-3.12,2.89-2.48,3.87-6.44.02-.09.67-.1.7-.32.26-1.78-.34-4.81.12-6.75.09-.37.89-.28.97-.67.19-.95-.37-3.73-.25-4.79.38-3.39,2.08-6.48,3.2-9.76.61-1.8.3-4.82,2.23-6.06.73-.47,2.06.1,2.86-.86.4.54,1.92,1.17,2.1,1.43.59.84-.68,3.66-.71,4.05-.03.39,2.41,6.2,2.63,7.41.75,4.02-.12,7.28.12,10.56.1,1.29,1.23,2.38.87,3.83-.2.8-1.28,1.55-1.59,2.36-.61,1.59-.67,3.74-1.42,5.65-.58,1.49-2.49,4.12-2.89,5.17-.34.88.38,1.71-.1,2.77-.11.25-3.56,3.68-3.79,3.83-.26.17-1.01-.35-1.99.13-5.68,2.78-2.43,4.93-3.25,8.42-.08.33-2.52.62,0,1.53-2,1.56-.78,4.15-.98,5.81-.1.83-.77,1.46-.86,2.11-.27,1.8-.25,3.7-.6,5.5l-.97-.49.45,1.74-.94.5c-1.48,6.94-5.49,12.89-7.98,20.23-.29.84-1.08.92-1.17,1.18-.31.9-.15,8.2.18,9.46.36,1.38,4.08,5.49,4.01,6.51-.03.37-.42.86-.44,1.32-1.89-.92-4.7,1.33-6.54.77-.31-.1-4.9-3.6-5.16-3.91-.78-.95-.5-1.74-.79-2.2-1.85-2.91-3.53-4.67-3.49-8.54.01-1.45,1.62-4.8,1.33-5.78-.38-1.25-4.32-1.6-.88-4.9,1.95-1.87,3.59-3.67,5.02-6.19,2.98-5.25,5.04-10.12,6.59-15.45,1.26-4.32.59-9.18,1.73-12.8.59-1.87,1.46-1.28,2.07-1.66.39-.24,1.78-1.02,1.6-1.48-.84-1.33-1.67.09-2.68.05-1.57-.06-3.16-3.84-3.93-5.17l-4.12.78c-.86,3.14-4.93,3.79-7.79,4.58-.29,1.28.33.76.71,1.01,1.39.91,3.52,1.49,4.16,2.63-.75.95-2.07,1.73-2.56,2.85-.85,1.92-1.25,3.67-2.25,5.61-4.84,9.37-15.08,14.33-15.92,26.89-.18,2.76,1.74,7.05-3.27,6.73ZM198.27,231.69c-1.9-.64-2.08-3.65-3.86-3.22-.82-.72,3.83-2.61,4.64-2.97.56-.25,1.31,0,1.47-.07.56-.26,1.88-1.75,2.32-1.98.24-.12,1.95-.34,2.17-.21.29.17-.16,1.46,1.59.35l.47,1.76,1.46-.27c.12.73.52,1.42.53,2.18.01,1.32-.72.38-1.35.82-.36.26-.4,1.31-.87,1.84-1.92,2.13-5.99,1.54-8.57,1.77ZM213.81,383.65c1.1.61,3.87,5.65,2.53,7.2-2.83-.89-2.65-2.72-3.47-4.97-.15-.41-.73-.36-.86-.73-.45-1.22.4-2.28,1.8-1.51ZM354.12,385.96c-.35-.75-.11-1.68-.52-2.4-.98-1.72-5-2.6-2.65-5.87.8.6,2.02.69,2.74,1.16.96.63,2.87,2.89,2.12,4.2h1.96c-.54.86,1.47,3.14,2.39,3.46-.54,3.34-4.99,1.67-6.03-.55ZM380.68,174.35c-.86.44-4.57-1.26-4.88-1.79-.91-1.54-.63-5.87,1.86-4.44.41.23.85,2.09,1.23,2.66.67.98,2.21.98,1.79,3.57ZM404.11,89.3c-.73.52-.92,1.47-1.1,1.57-.62.35-1.61-.15-2.24.2-1.56.85-.84,6.12-1.4,7.21-1.28,2.48-5.9,2.45-7.97,3.27-1.13.45-1.39,1.55-2.16,1.64-6.22.74-16.05,0-22.36-.62-1.27-.13-1.25-1.26-1.65-1.35-3.51-.75-8.64-.4-13.15-1.31-.93-.19-1.42,1.08-1.87-.65h-.72s-.21.92-.21.92c-3.37-1.47-6.08.89-8.84,1.48-4.77,1.03-8.7,1.07-13.5,3-.56.23-2.39.8-2.51.89-.46.33-.16,1.15-.39,1.38-.31.31-1.41.25-2.18.79-1.47,1.03-4.68,6.36-5.68,7.02-.42.27-1.2.04-1.31.12-.06.04.43.76.26,1.44-.57,2.33-1.88,4.79-2.17,7.16-.1.83.3,6.63.42,7.73.61,5.88,2.19,11.14,6.69,15.27,2.26-.01,1.64-1.95,2.25-3.45.27-.67.97-1.04,1.2-1.68.24-.67-.54-2.13-.28-2.49.18-.24,1.05-.36,1.43-.81.49-.57.12-1.59.48-2.3.19-.38,1.89-2.07,1.92-2.22.26-1.4-.82-3.99,2.44-3.07-1.07-1.42,4.65-8.07,5.53-8.58,4.15-2.4,9.09-4.16,13.72-5.35.97-.25,3.08.56,4.55.45,4.61-.36,3.44-3.3,9.48-1.02,2.55.97,3.79,1.67,6.98,1.8l.93-.93c1.21.87,3.41,2.45,4.64,3.07,3.01,1.53,5.81,1.78,8.06,4.72.87,2.07-8.21,1.01-9.3,1.03-.45,0-1.61-.37-1.18.67.06.15,2.28,1.85,2.6,2.04.85.49,3.07,1.04,3.99,1.61,1.6.99,5.09,4.73,5.42,4.91.6.34,2,.23,2.93.65.79.36,1.13,1.96,1.28,2.09.56.49,3.23,1.36,3.62,1.77.41.44.15,1.93,1.61,1.81-.41.42-1.46,1.71-1.75,1.88-2.87,1.72-5.69.29-8.28-.4-.44-.12-1.11.37-1.47.31-.45-.07-4-4.01-4.79-4.53-.92-.61-4.99-2.46-5.96-2.62-1.53-.26-3.42.75-5.07-.5l.71,2.01,1.7-.04c-.13,1.45,1.08,1.65,1.47,2.32.17.29-.13,1.13.09,1.48.52.8,3.32-.44,2.26,2.66-1.12,3.28-4.79,1.47-6.83.68-.46-.18-1.25.14-1.29.1-.28-.28-.2-1.39-.66-1.78-.53-.45-2.15-.33-2.91-.65-.37-.15-.37-.69-.77-.88-6.77-3.18-14.77-6.3-22.39-3.07-4.4,1.86-8.53,4.93-8.36,10.03.06,1.68,1.61,10.44,2.35,11.29,3.3,3.77,1.77,3.66,3.6,6.89,3.37,5.95,12.21,11.98,16.57,17.31,1.24,1.52,2.15,4.2,3.39,5.63.64.74,2.41,1.38,3.01,2.61.38.77-.17,2.37.39,3.25.7,1.09,4.61,2.64,5.45,3.55,2.35,2.56,5.43,9.17,7.22,12.33,1.53,2.7.71,1.49,1.45,3.89.29.95,1.5,1.26,1.77,2.18.78,2.68,1.85,14.42,1.57,17.42-.13,1.4-1.81,5.74-1.91,6.82-.35,3.61-1.03,6.69-3.15,9.53-1.88,2.52-4.15,3.75-6.11,6.16-.63.77-.94,2.1-1.72,2.94-2.03,2.2-6.09,1.59-6.57,2.21-.28.36.13,1.38-.55,2.09-.4.42-3.45.61-4.08.77-.42.11-.35.78-.57.83-2.22.48-5.46-.95-6.6-.68-1.14.27-1.68,1.62-3.2,1.77-1.92.19-3.89-1.11-5.39-1.29-1.28-.15-6.26-.34-7.28-.21-.95.13-.66,1.05-.93,1.02-.65-.07-1.21-1.22-1.39-1.3-2.53-1.22-5.17-2.78-7.33-3.27-2.74-.61-7.62-2.73-8.12-5.68-1.41,1.64-2.99-.15-4.35-1.28-.84-.7.03-1.55-1.98-.68l.43-.9c-1.51-.13-2.91-3.51-4.37-2.2-2.43,2.18,2.41,3.83.06,6.73.16.64,1.31.59,1.74.95,1.32,1.12,4.42,7.56,4.83,9.33.25,1.09-.29,1.76-.73,2.66h1.96c-.02,2.75.68,5.73,1.12,8.52.04.26.76.21.8.56.47,4.29-.76,9.71,1,13.61l-.98.47c2.24,2.71,1.53,7.07,2.26,9.9.56,2.15,4.21,4.96,4.53,5.87.76,2.15-.33,2.93,2.13,5.31.45.44,2.96,1.56,3.29,1.93.76.84,1.15,2.9,1.91,3.73,1.26,1.4,5.43,2,5.66,4.26,2.22-.76,4.7.7,6.38.79,1.02.06,2-.65,2.93-.66,1.57-.01,3.51.55,5.07.12,1.62-.45,3.85-4.27,6.1-4.23.45,0,3.5,2.07,3.58,2.29.24.7-.02,1.85.17,2.76.13.68.75,1.11.75,1.98,0,.53-1.15,3.33-1.61,3.73-.45.4-1.07.12-1.22.27-.49.46-.21,1.5-.78,1.7-1.31.48-4.8.38-6.19-.05l-4.2,3.68,1.21,1.22.48-.98c1.24,1.71,3.61.31,4.77.95.29.16,3.83,4.07,4.11,4.55.13.22-.36.74-.3.81.1.12,1.09.19,1.57.53,2.74,1.91,5.63,6.26,6.81,9.4.23.61.63,1.18.17,1.84-2.51,3.56-8.07-4.12-10.16-5.02-1.38-.59-2.83-.35-4.26-.36-.03,1,.27,2.02.77,2.88.51.87,2.98,3.07,3.98,3.16,1.38,3.06,4.17,2.27,6.29,3.4,2.53,1.36,6.03,6.63,7.05,9.31.62,1.65.06,2.6-1.27,3.68-2.08,1.68-4.22,1.53-6.67.82-2.04-.59-5.52-3.13-6.9-4.77-.63-.75-.28-2.29-1.78-1.41.86-2.62-1.56-2.87-2.26-4.07-2.08-3.63-4.27-8.08-5.45-11.88-.25-.81-1.39-1.95-1.41-2.35-.02-.51.84-1.19.85-1.91,0-.2-1.92-1.8-2.28-3.17-.5-1.88.62-5.3.25-6.54-.15-.5-2.44-1.91-2.7-2.38-.22-.38.06-1.54-.81-2.67-3.55-4.6-8.72-8.26-13.93-10.2-1.89-.71-3.08-2.62-4.94-1.37-1.7-1.1-1.32-4.43-1.98-5.34-1.52-2.1-.67-.99-1.56-3.11-.06-.16-1.85-1.79-2.12-2.53l-2.37.96c-.54-.12-1.8-5.81-2.83-2.35-.61,2.07-1.13,4.17-.35,6.24-5.27-.61-3.56,3.31.15,2.43.42-.1.37-1.26,1.55-1.25,1.53.01,2.42,1.09,3.56,1.82-.76,1.36.12,2.44.14,3.61.02,1.54-1.57,1.99-1.27,2.66,1.91,2.76,4.29,1.91,6.11-.49.24,2.14,2.3,1.52,4.04,2.57,2.29,1.38,1.66,2.88,2.44,4.13.21.33,1.37.65,2.02,1.63,3.58,5.39,3.41,11.42,5.63,16.28.23.51.99.91,1.28,1.73.32.92-.22,2.62.18,3.57.24.56,1.07.21,1.31.46,1.47,1.51,3.02,2.9,3.54,5.04,1.02,4.26-.06,3.19,2.49,7.38,1.78,2.92,1.4,5.73,1.22,9.16-.02.37-.47.68-.71.96l3.32,3.45c.22.84-1.24,3.37-1.2,4.35.05,1.29,2.13,1.91,1.78,3.82-.06.31-1.34.33-1.46,2.06-.09,1.38,1.22,5.6,2.4,6.25.61.34,3.23.37,3.95.54,1.97.47,3.9,1.07,5.82,1.7.42-1.69-1.98-2.54-2.3-3.05-.37-.58-.14-1.69-.59-2.46-.22-.38-1.01-.49-1.39-1.16-.72-1.26-.47-3.51,1.13-3.57.17,0,.2.74.38.81.58.23,1.31.1,1.65.33.83.57,1.27,1.84,1.77,2.62,3.02,4.67,5.75,11.22,5.23,17.45-.26,3.09-1.89,3.75-2.36,4.97-.37.95.28,2.76-1.56,2.6-.56-1.14-.22-3.34-.93-4.19-.48-.58-1.54-.55-1.98-.94-.94-.84-.33-2.75-2.95-2.18.84-1.79-.4-2.85-2-3.6-6.15-2.89-1.89,4.59-2.7,6.9-.38,1.08-1.05,1.42-1.35,2.06-.2.43.31,1.11.14,1.37-.15.23-1.05.31-1.41.8-.46.64-1.21,2.91-1.55,3.1-.2.11-4.12.49-4.47.45-1.08-.12-1.46-1.23-3.25-.64-1.93.63-1.68,2.71-2.55,3.57-4.61,4.58-15.14,4.21-21.39,4.81-4.38.42-7.79,1.73-12.55.42-4.49-1.24-4.11-5.06-8.63-6.03-2.65-.57-7.13.21-8.26,2.92-1.13,2.72,2.7,2.73-2.63,6.13-.38.24-.43,1.03-.88,1.16-.96.27-4.6.25-4.95-.81.27-1.75-.43-3.83-.5-5.33,0-.23.79-.13.9-.55.52-1.99.88-7.3,2.22-8.92.17-.21,4.24-2.48,4.7-2.61,1.7-.49,3.22-.03,4.47-.33.38-.09.33-1,.58-1,.65,0,1.27.73,2.01.83,1.41.2,3.63.19,5.04-.07-.5-1.01-1.51-1.54-2.14-2.26-.3-.34-.2-1.16-.37-1.32-.16-.15-3.38-.43-4.41-.71-4.12-1.1-7.14-4.69-11.7-2.13-1.9,1.07-6.55,4.55-8.19,4.96-.76.19-1.61.03-2.39.22-1.47-5.15,2.95-9.52,5.31-13.63l-2.31-.17c-.85.39-.45,2.34-2.77,2.04l-3.19-2.61c2.35-1.76,1.86-4.24,5.18-4.61,2.79-.3,3.7.76,5.77,1.46,5.49,1.86,7.58,2.81,12.28,5.76.9.56,4.47,2.63,5.2,2.44,1.74-.45,1.29-3.6.34-4.56-.85-.85-4.9-3.26-6.23-3.99-2.97-1.63-2.45-.68-5.6-1.25-.51-.09-3.74-1.41-3.79-1.61-.26-.98.9-2.56,1.64-3.01.47-.29,1.25,0,1.67-.26.47-.28.79-1.88,1.2-2.23.1-.08.55.33.76.24.12-.05.11-.73.45-.8.69-.14,3.37-.39,4.09-.35,3.68.18,10.59,6.44,11.54,9.97.31,1.15-.03,2.25.39,3.51.44,1.33,7.28,7.81,7.83,7.81.5,0,1.15-.52,1.87-.47,4.09.26,6.09,6.17,8.78,6.26,6.06.21,8.32-3.4,7.65-9.13,2.56-.29,3.08-3.44,4.84-4.67.62-.43,1.59-.16,2.17-.73.41-.41,1.62-10.6,1.3-11.53-.27-.77-.94-.72-1.2-1.31-1.82-4.05-1.86-9.48-4.45-12.91-.98-1.29-2.6-3.49-4.2-3.55l.44-1.4c-1.27-1.59-2.33-2.92-3.86-4.67-.55-.63-.72-1.77-1.07-2.09-.58-.54-1.85-.35-2.22-.71-.3-.3-.23-1.59-.85-2.32-.62-.73-1.79-.72-2.4-1.5-.59-.74-1.93-3.74-.27-3.63-1.21-1-2.23-.88-1.46-2.66-1.89.71-3.38-3.87-4.22-3.94-.63-.05-1.43.43-2.24.4-2.83-.12-2.73-1.83-4.58-3.24-4.34-3.3-9.6-5-14.81-6.14-3.6-.79-12.09-7.02-14.91-9.73-3.07-2.96-4.81-4.97-6.29-9.3-1-2.92-.34-2.32-2.13-5.45-1.4-2.46-1.42-4.78-2.01-7.18-.12-.49-1.48-.02-.98-1.29l.97.5c-.41-1.43-.17-3.8-.47-5.02-.07-.27-1.95-1.12-1.88-3.53,0-.21.54-.19.68-.42.23-.38.17-.99.34-1.14.6-.53,2.03.63,1.32-2.79-.43-2.06-3.01-1.63-2.69-4.42.15-1.3,1.73-1.91,1.66-2.82-.88-2.19-3.15-2.3-2.86-5.21l-.96.97c.32-1.89-.47-3.29-1.03-4.98-.57-1.71-1.06-4.26-1.74-6.15-.85-2.37-3.03-5.1-3.92-7.31-.42-1.04-.1-2.38-.19-2.47-.25-.25-1.69-.4-2.35-.82-1.06-.69-1.67-2.23-2.66-2.93-.92-.65-7.7-3.16-5.66-5.09l.97.49v-2.93c-.37-.42-2.93,2.38-4.99,1.86l-10.61-4.79,1.95-4.87c-1.14.59-2.14-.28-3.19-.26-.88.02-3.87.99-4.78.73-.36-.1-.23-.91-.62-.94-.29-.03-.72.46-1.06.35-.75-.25-3.04-3.07-3.81-3.72-1.17-.99-1.73.29-1.65-2.49,2.86,1.31,2.32-.46,3.4-1.19.36-.25,2.03.23,2.81-.4.69-.55.79-2.67,1.22-3.17.34-.39,1.28-.3,1.7-.74.7-.73,3.1-4.42,2.08-5.23l-1.95.49.49-.97c-2.81.28-4.93-2.49-7.32-1.95-.75-1.89.8-2.43.85-2.58.17-.48-.26-.98-.11-1.34.83-1.99,7.85-2.78,8.53.74.47,2.41-2.16,6.18,1.46,6.12l-.5.96,3.8,1.08,2.06,5.26.87-.37c1.4,2.95,3.78,1.87,5.88.29l-.37-2.06c-2.16-.03-2.23-1.53-3.31-2.15-.73-.43-4.45-1.46-5.4-1.68-.46-.1-.59.64-.63-.61-.11-3.49,2.84-3.54,3.4-5.02.42-1.1-.13-2.41.24-3.01,1.34-2.16,11.18-2.01,10.51,3.12-.23,1.76-2.21,2.44-2.92,3.95,1.6,2.07,6.21.18,7.17-1.36,2.19-3.52-1.53-6.95,5.89-5.91,1.43,1.21,4.11,2.09,3.87,4.27-.14,1.3-2.18,2.17-1.82,3.47.6,1.06,1.76.52,2.58.76.44.13.36.97.61.98.51.02,2.26-1.01,3.12-1.28.95-.3,2.04,0,2.95-.48.5-.26,2.64-3.17,3.07-3.48,1.86-1.36,8.75.13,10.96.69,6.7,1.67,14.54,4.91,20.27,8.03,5.05,2.75,9.87,6.75,15,9.84,1.43.86,3.95,1.35,4.97,2.24.27.23,2.42,2.9,3.22,3.73,1.28,1.33,3.35,4.52,4.56,5.35.47.32,2.91.79,3.54,1.16,1.49.88,2.14,2.38,3.02,2.83,1.56.8,5.17.37,7.56,1.22,3.88,1.37,1.99,1.98,6.55,1.5,4.08-.43,8.38-.11,11.66-2.09.94-.57,2.14-2.01,2.67-2.25.59-.27,1.33.28,1.4.23.16-.11.23-1.61,1-2.13.28-.19,3.16-.31,3.3-.39,1.56-.91,3.26-4.14,4.17-5.09.32-.33,1.14-.22,1.57-.64.8-.78.2-2.43,2.2-1.96.14-.11-1.02-1.47-1-2.15,0-.2,1.93-1.95,2.33-3.1,1.27-3.64.06-6.16-.36-9.66-.24-2.04-.44-6.75-1-8.62-.13-.43-2.12-3.98-2.37-4.64-3.15-8.27-9.74-11.39-13.72-18.35-.41-.71-.33-1.85-.55-2.14-.29-.39-1.54-.31-2.18-.76-1.46-1.03-2.59-3.9-3.8-5.23-2.03-2.25-9.9-8.65-10.88-10.33-2.52-4.29-5.08-6.88-8.58-10.67-.27-.3-.18-1.07-.44-1.3-.67-.59-1.89.82-.86-1.51-3.26-.86-3.34-3.46-4.66-5.38-1.8-2.62-5.61-5.04-6.79-8.33-.36-1.02-.19-3.51-.7-4.67-.59-1.35-1.79-1.44-2.48-2.38-.21-.29-3.11-6.1-3.2-6.46-.63-2.58.03-8.08-.48-9.49-.37-1.02-1.11-.7-1.22-1.6-.15-1.2-.08-3.63.06-4.88.4-3.39,2.46-9.85,4.19-12.96,1.17-2.1,6.28-7.82,8.12-9.6,3.53-3.44,10.57-7.86,15.72-9.44,4.76-1.46,9.45-3.05,14.12-4.5,4.2-1.3,4.49-.37,8.32-.78.93-.1.47-.94,1.41-1.06,3.09-.39,8.47.7,11.15.05.57-.14.57-1.19,1.08-1.47l.72.97.77-1.4c1.21.1,4.81.52,5.76.29,2.19-.52,4.46-2.69,6.17-4,1.35-1.03,2.45-.2,3.15-2.7l.72.97c-.06-1.36,1.49-2.11,1.9-2.85.9-1.63.59-4.03,2.5-3.5-.75-4.79.22-7.47-2.44-11.81-2.09-3.41-5.05-5.44-8.77-6.94-1.87-.75-5.45-2.43-7.57-2.25-1.19.1-2.48,1.11-4.04,1.36-1.32.2-2.78-.45-4-.13-.73.19-4.87,2.73-5.19,3.36-.37.72-.24,1.59-.73,2.46-1.32,2.34-3.22,2.04-3.67,5.02-.07.49.45,8.95.6,9.4.33,1.03,1.43,1.45,1.51,1.6.19.37-.22,1.23.46,2.28.79,1.24,3.22,1.65,2.58,3.65-.32.99-2.59.55-3.54.83-.97.28-3.26,1.67-4.08,1.3-.15-.07-2.29-1.93-2.52-2.23-2.21-2.83-1.16-2.89-1.74-5.47-.52-2.36-1.83-3.55-1.22-6.56.22-1.12,1.35-1.47,1.48-2.47.18-1.43-1.22-1.94.49-2.47-2.56-1.97,5.62-15.25,6.38-15.7.14-.09.82.43,1.37.17.49-.23.88-1.07,1.54-1.43,4.96-2.69,7.21-1.81,12.27-2.84,1.83-.37,3.97-1.4,5.96-1.34.47.01,8.39,1.89,9.02,2.18,1.19.53,6.68,4.37,7.63,5.29.94.91,4.14,5.19,5.04,6.54,2.44,3.63,3.43,8.31,2.93,13.05-.22,2.06-1.4,3.8-1.8,5.51-.72,3.07.1,7.35-2.36,10.32-.74.89-2.23.94-2.83,1.44-.48.4-.35,1.24-.84,1.7-2.03,1.89-5.06,3.11-7.78,2.24.4,1.92-.75,1.19-1.29,1.61-.39.31-.42,1.03-.97,1.23-1.7.61-5.14-.47-7.17.56l-.32,1.47,1.46-.48-.49,1.46c2.26-.32,5.05.99,7.11,1.02.91.01.42-.93,1.39-1.05,2.41-.31,6.56.71,8.23.44,1.95-.31,8.97-4.78,10.18-6.68l1.34.4,1.36-2.43,5.51.03c.04,3.47-2.83,2.75-4.84,4.18ZM362.39,70.27c-.05-1.09.64-5.99,1.08-7.08.56-1.39,1.57-2.01,2.06-2.82.36-.6.22-1.71.5-2.21.87-1.52,8.62-2.8,10.24-2.05.31.14,1.74,1.48,2.26,1.91,1.62,1.3,2.77,1.99,3.41,4.05.66,2.15.36,6.88-.92,8.78-.2.3-4.68,4.71-5.11,5.02-3.88,2.76-3.58-.18-6.34-.42-1.21-.11-1.64,1.15-2.55.7-1.2-2.17-4.51-3.31-4.64-5.88Z"/>
    </g>
  </g>
</svg>