<?xml version="1.0" encoding="UTF-8"?>
<svg id="_Слой_2" data-name="Слой 2" xmlns="http://www.w3.org/2000/svg" viewBox="0 0 415.64 453.95">
  <g id="_Медведь" data-name="Медведь">
    <g>
      <g>
        <path d="M119.61,31.27l.02-.96.96-.02c.13.68,1.56,2.33,2.01,2.63,1.63,1.07,2.94.02,1.92,2.27l1.21-.82c2.23,1.56,5.1,2.51,7.9,2.72.6.05,1.55-.42,1.62-.37.12.08.28,1.06.76,1.47.91.78,3.05-.8,2.74.93l.74-.99c.63-.07.93.68,1.45.76,2.63.39,6.46-.24,8.35,1.7.52-1.54,3.49-1.33,3.92.49,1.04-2.61,2.66-.19,2.94-.1s4.77.42,5.48.48c1.01.08,1.67-1.03,2.77-1.24.6-.12,5.07.17,5.48.85l1.03-1.89,4.31.36,1.08-1.92,2.45.47,1.92-1.44.51,1.04,3.67-1c.39,1.55-.91,2.54-1.75,3.66-.26.34-.13,1.02-.28,1.15-.54.46-5,1.21-4.43,2.94l-1.38.1.49,2.45-.89-.4c-.58,2.22-2.28,1.26-3.29,1.47-.85.17-3.11,1.4-4.92,1.82-2.47.58-4.34.87-6.83,1.03-2.42.15-3.28,1.46-3.48,1.47-.82.04-1.91-.76-3.37-.5-1.08.2-1.44,1.24-2.07,1.4-1.98.5-7.68-.24-9.62.06-.21.03-1.83,2.19-3.77.99l.49,2.46c2.11-.92,4.36,1,6.12,1.71.58.23,5.28.85,3.69,1.96-1.67,1.16-6.53,1.91-8.53,1.23l-1.01,1.33-3.21-.84v1.47s-1.47-.98-1.47-.98v1.47c-2.15-1.22-2.86,1.18-4.41-.5v1.47s-1.71-.99-1.71-.99c-1.2,2.63-2.36,1.34-4.59,2.07l-.08,1.37-1.62-.91c-1.32.1-1.58,1.57-1.89,1.77-.14.09-2.64.27-3.34.47-.94.26-1.43,1.44-2.94.64l.49,1.46-2.45-.48c.29.97,1.52.05.63,1.7l.35.51c1.56.65,3.28-1.85,3.68.23.79-1.15,1.92-.95,3.16-1.04l.03-1.41,2.65.53.53-1.02,1.22.98v-.98s.98,0,.98,0c0,1.49,2.17.09,1.43,2.9l-1.33.13c-.98,1.39-5.67,5.32-7.59,6.13-.78.33-1.65-.05-2.22.25-.52.27-1,2.64-1.16,2.77-.4.31-1.51-.16-1.83.15-.13.13-1.26,2.2-1.7,2.67-1.16,1.25-1.57,2.24-3.25,1.18l.48,1.96-1.95-.49c.49,1.45-1.38,1.86-1.49,2.32-.15.6.25,1.69-.07,2.04-.09.1-2.17,1.09-2.35.55.5,2.3-2,.63-1.49,2.93l-.96-.49c.47,1.44-2.24,2.84-3.44,2.95l.5,1.47-1.48.25c1.96.66,1.19,1.64-.48.73.2,1.22-.73,2.26-.98,3.2-.52,1.98,2.16-.7,2.3-.73,2.61-.54,1.85-.61,3.21-1.13.92-.35,4.35-1.5,4.96-1.37,1.53,1.34-.02,3.54,1.05,4.94.82-.34,1.69-2.72,1.83-2.83.67-.55,1.86.69.96-1.29l1.63-.74c-.15-1.3.45-2.61,1.93-2.53.37.02-.01,1.54,1.25,1.01l-.49-1.96,1.43.46c.57-2.23,3.32-3.07,5.44-2.91v-1.96s1.47.98,1.47.98c-.19-2.2-2.58-.62-.49-2.94-.83.22-1.69-.73-2.22-.77-1.04-.08-5.42,2.16-6.11,3.21l-1-2.2c1.68-.37.33-.89.6-1.63.04-.11.61-.1.66-.22.49-1.1.53-1.93,1.94-2.81l1.21.97c-.41-2.18,1.77-1.89,2.33-2.58.28-.34.11-1.28.6-1.6,1.39-.93.54.37,2.12-1.52,1.31-1.56,3.32-.13,5.25-.18v-1.97c1.98,1.11,5.37-1.3,6.13.99l1.22-.99v1.48c1.66-.99,3.57-.75,5.39-.49l.5-6.87,1.68.52c0-1.03,2.07-1.09,2.92-.98.38.05.25.72.54.84,4.8,1.84,7.59,2.94,11.9,5.98,1.55,1.1,3.25.56,3.07,3.46l.89-.41c.67,1.34,1.66,2.51,2.26,3.9.14.31.71,1.65.73,1.76.17.78.56,5.09-1.1,4.98-1.68-.11-.91-1.11-1.31-1.63-.77-1.01-2.31-1.9-1.48-2.71l-3.38-.59-.08-1.36c-1.89.01-3.78.86-5.38-.51l-.49.98-.49-.98c.16,1.06-.61,1.09-1.48.98l.02.71c1.03.58.73,2,1.1,2.58.33.52,1.83.73,2.18,1.26.17.25,1.2,3.48,1.06,3.72l-2.88,1.54v-1.48s-1.23.93-1.23.93c-1.22-1.83-1.74-.79-2.86-.91-.4-.04-.29-.87-.94-1.14-.6-.25-2.05.06-2.82-.34v1.45c-1.05-.09-4.15-.44-4.93.32-.42.41-.38,1.18-.68,1.47-.48.47-2.11,1.68-2.24,1.91-.59,1.03,2.4.3,1.47,2.2l1.68-.51c.45,1.55,1.42.54,2.73,1l-.5.97c2.31-.82,3.75,2.06,6.38.99l-.5.97c1.6-.31,1.92.71,1.94,2.15-.33,1.15-3.29.67-4.55,1.38-.93.52-.71,2.03-2.74,1.34l-.04-1.44-1.46.98-.49-.98-.08.86c-2.05-.54-2.73,3.24-4.83,2.08l.5.97h-1.48s.54,2.91.54,2.91h2.59s.56,1.51.56,1.51l.24-1.47c.74-.29,2.35.79,2.69.77.59-.04,4.21-.32,4.43-.37.35-.08,0-.94.9-.9.47.02,2.47.38,2.91.52.62.2-.07,1.79,2.08-.03.24,1.78,2.59.23,3.59,1.1.18.15,0,.89.22,1.19.91,1.16,1.73.34.84,3.12-1.58-.57-4.81-.31-6.53,0-.13.02-.93,1.34-2.21,1.08l-.11,1.3c-2.54-.14-3.06.22-4.67,1.74-.21.2-.1.91-.33,1.13-.3.28-1.01-.02-1.38.43-.77.93.28,2.24,1.02,2.89l-.98.73c1.65-.06,2.55,1.52,4.19,1.53.34,0,3.43-3.11,3.17.44,1.16-.5,2.78-1.29,4.07-.99.35.08.29.83.71.95.64.18,3.39.35,3.56.53l-.5,1.46,6.13,1.48-.24-.98,2.45.48-.97-.97,2.92-.52.02-1.94,1.46.49v-1.48c4.28.12,4.41,1.44.99,3.44l.98.73c-.57.39-3.14,1.84-3.35,2.28-.07.15.85,1.39-1.1,2.59-.63.38-1.48.15-1.83.37-.68.44.14,2.74-3.04,1.87l.02,1.24c-.36.23-2.76.18-3.15.37-.74.36-.62,1.24-1.13,1.35-1.46.3-3.68-.79-4.32,1.46-.4-1.48-1.34-.97-2.7-.97l1.01,2.44c3.07-1.01,2.97,4.9,6.84,3.94.22.24-.9,2.23-1.09,2.37-.28.2-5.91.39-6.76.09l-.23.97c-.85-1.58-3.43-.19-3.2-1.95l-.53.92-1.92-.44.49-.97c-1.94.01-2.57-.5-3.88-1.42-.26-.18-.89.02-1.02-.07-.05-.04.43-.62.33-.85-.35-.83-4.72-3.43-3.28-5.51h-1.48s.49-1.47.49-1.47h-1.96c.43,2.41-.47,1.61-1.96,2.69l.99,1.47c-1.56.49-.63.79-.78,1.77-.07.44-.66.94-.64,1.18.03.4,4.89,3.35,4.38,6.29-.26,1.52-3.86.39-4.94.81l.5-.97c-.95-.06-2.85-.04-3.61-.47-.88-.49.76-2.04-2.3-1.26-1.92-2.77-5.48-4.03-6.35-7.59l1.47.97c-.02-.8.22-1.77-.24-2.47-.37-.58-1.73-.14-1.23-1.45l.98-.48c-.57-.03-1.13-.22-1.37-.79-.75-1.84,1.2-6.71.87-9.02-.82-.21-.21.83-.79.97-.53.13-1.55-.45-2.77.12-.79.37-1.37,1.74-2.02,2.17-.43.29-1.2.11-1.28.19-.4.38,2.4,11.64-2.47,8.58-.52-.33-.66-1.45-1.17-2.04-.73-.85-2.44-1.45-2.64-1.94-.16-.38.26-1.91-.11-2.75-.26-.6-1.51-.96-1.95-2.61-.21-.8,1.81,1.07,1.47-.48l-1.47-.49c1.04-1.05,1.03-1.9,0-2.95l.98-.49-1-.49v-.99c1.62-.34.39-.87.61-1.83.24-1.07,3.21-4.1,3.57-4.77.23-.42-.3-.97-.13-1.37.08-.18,2.56-2.2,2.84-2.82l-.98-.49,2.44-2.2c-1.46.32-.72-2.45-.49-3.44l-2.16.53-.53-1.03-1.22.54c.84,1.82-.35,1.41-.83,2.07-.59.82-.39,2.75-2.16,1.45-3.47-2.54.52-4.99.52-5.34,0-.91-.24-3.18.57-4.06.17-.19.98.07,1.27-.18.2-.18.2-1.84,1.58-2.09l-1.71-1.22-.78,1.42c-.79-.9-3.1.86-3.43,1.73-.28.75.09,1.66.02,1.72-.52.47-3.1.33-2.51,2.91l-1.3.15-.1,1.39-.97-.5c.47,2.45-1.56,2.1-1.73,2.42-.34.63-.98,2.64-1.23,3.47l-.97-.5.49,1.47-1.38.1c-.08,1.3-.11,1.5-1.48,1.43-.5.73-.59,2.63-.65,2.79-.14.37-3.76,2.04-2.38,4.01h-1.48s.49,3.43.49,3.43l-1.46.03c.97,2.19-1.61,2.12-.5,3.9l-1.43.02c.66,2.28-1.49,2.27-.61,3.66-1.16.46-1.01.99-.91,2.21l-.97-.5c.06,1.84-2.11,3.3-2.82,4.56-.25.44-.97,3.1-1.43,3.77-.5.74-1.53-.13-.74,1.88l-.92.33,1.21,1.64c.87-.56,2.74-.37,3.42-.86.43-.31.12-1.1.41-1.39.08-.09,1.56-1.11,1.84-1.3s.95.23.98.19c.95-1.1-1.22-.75-.97-1.47,2.83.87,4.4-3.58,7.15-2.01l.93-.93c1.35.62.39,2.93-.08,3.92-.19.39-.36.3-.81,1.36-.1.23-1.17-.09-.35,2.27l-.77.7-1.17-.41.44,1.42c-1.59-.05-1.03,2.51-2.04,3.36-.41.34-2.13,1.08-2.25,1.2-.42.48-1.66,3.52-1.07,4.31l-1.49-.29-.47,1.77-1.46-.5.51,1.68c-1.64.46-.5,1.17-.77,1.78-.17.38-1.96,1.44-2.48,2.13-1.09,1.44-3.6,5.22-4.5,6.79-.32.55.07,1.48-.2,1.79-.17.19-.91-.19-1.39.41-.65.8-.83,2.58-.49,3.58l-.97-.98-1.06,3.86-1.4.07.98.73c-.97,1.84-3.34,2.37-2.99,4.62l-1.42.04c2.48,2.3-2.45,2.89-.99,4.66l-1.46.24.97.97-1.96.5.49,1.18c-.01.36-.71.29-.76.42-.81,1.79-1.77,4.82-2.7,5.95-.55.67-1.75,1.42-2.42,2.02l.99.53-.41,1.13.89.3-1.71.71.2.97-1.44.04.5,1.47-1.41.04c.39,1.83-1.27,1.85-1.05,3.39l-1.46-.98c-.48.9,1.1,2.26.97,2.44-.1.13-.98-.32-.96,1.23l-.93-.17-.56,2.87-.9-.42-1.1,2.35-1.43-.46c.45.94-.42,4.31-.99,5.04-.41.53-1.06.23-1.31.48-.34.34-1.44,2.71-1.78,3.12-.52.63-1.77.76-1.89,2.07l-.9-.42c.88,2.64-1.43,2.74-2.29,4.04-.14.22-1.07,3.62-1.24,3.75-.18.14-.96-.01-1.19.24-1.48,1.65-4.04,3.52-3.13,5.71h2.45s-.49-1.47-.49-1.47c1.87.41,3.47-.51,3.45-2.45l.95.47c-.42-1.99.9-1.19,1.36-1.59.24-.21.02-.94.44-1.38.63-.65,2.42-.9,2.86-2.41l2.6,2.19c-.29,1.24-2.39,2.28-2.79,3.1s-.53,2.65-.98,3.24c-.4.52-1.18.16-1.45.34-.2.14-.9,3.78-1.49,4.56-.11.15-2.02,1.14-2.46,1.84.73.52-.83,2.97-1.15,3.26-.64.59-1.93-.84-.86,1.57l-.99-.24c.45,2.3.11,4.29-2.44,4.66l3.19,2.44c-.41-1.96.64-1.46,1.06-2.12.31-.48.29-1.19.62-1.58.65-.74,2.5-1.28,3.46-1.71l-.97-.97c1.8-.17,1.75-2.1,2.63-3.27.2-.26,4.05-3.63,4.43-3.89.66-.46,4.96-2.72,5.43-2.69,2.01.15.09,2.39.26,3.96l-1.96-.49.91,1.22c-1.76.73-1.44,3.36-1.66,3.7-.42.65-1.61.58-2.22,1.3-.99,1.2-.78,2.68-.46,4.07l1.47-.49.24.98c.41-1.3.94-1.07,2.22-.99-1.13-1.16,2.47-4.04,3.28-4.33,1.33-.49,3.98.53,3.59-2.04.81.23,1.56,2.58,1.49,3.17-.09.84-1.65,2.5-1.94,3.09-.81,1.61,0,3.5-2.99,3.07-.22.83,1.01.24,1.02.75.03,1.62-1.65,1.63-2.62,2.71-1.04,1.15-2.26,4.63-4.28,3.4.83,1.14-.06,2.77-1.12,3.31-.58.29-1.49-.05-1.77.21-.13.13-1.3,2.14-1.73,2.65-.76.92-2.08,1.13-1.77,2.66l-.97-.97c-.28,2.52-2.74,3.35-4.91,3.94v3.4s1.65.52,1.65.52c.43-1.38,1.26-.74,1.87-1.04.55-.27,2.4-1.67,2.58-1.75.9-.37,2.71.97,3-.69l1.69.51-.5-.97c1.26.19,2.88-1.17,3.44.48l-1.42.24c.58,2.03-1.89,4.51-2.59,6.55l-.88-.4c.05,1.11-.28,1.94-1.49,1.97l.98,1.46-2.45.99.97.73c-.74.86-1.84,1.54-2.35,2.58-.77,1.57-.18,5.59-2.54,5.04.07.92-.88,6.48-1.07,6.76s-1.41.47-1.88.58l1,.74-1,2.7.97.23c-2.3,2.42-.76,1.2-.53,2.54.11.66-.92,1.06-.95,1.88,0,.14,1.73.5,1,2.21l2.45-.99-.98-.97,1.46-.24-.48-1.73.96.5c.52-2.17,1.38-5.41,3.94-5.4-1.52-1.25-.31-3.62,1.47-2.94l-.27-1.5,1.26-.7-.99-.49c.22-.41.94-.45,1.13-.71.65-.86,3.54-6.16,3.86-6.35.38-.22.2.47,2.03-.89.34-.25,1.1-.04,1.24-.19.31-.36-.17-1.52.14-1.86.09-.1.75-.41,1.72-1.45,2.46-2.65,3.67-4.25,7.53-3.99.24,1.87-1.4.89-1.46.98-.13.2.34,1.04.23,1.54-.52,2.51-2.41,3.47.54,5.83h.9c1-1.36,3.01-2.25,4-3.58.45-.6,0-2.84,2.18-2.33-.83-1.39,1.16-3.57,2.45-2.45l-.49-1.47c1.41.53,1.63-1.02,1.96-1.17.9-.43,2.68-.7,4.02-1.34.65-.31.8-1.77,2.35-.93l.03-1.47,1.92.95c.13-1.4,1.26-1.35,2.27-1.93l.46.98c.55-1.1,5.47-2.08,6.06-1.38.33.39-.37,1.54.56,1.38l.49-1.96.98,2.44c-.73.08-2.13,1.97-1.96,2.96l-.97-.5c-.68.71-.1,5.04-1.48,5.14l2.21,3.19c.55-1.49,1.31-1.3,2.69-.98l-.49-1.47,1.47.49c-.3-2.31,2.62-2.64,4.42-2.46l-.41-.9c1.34-.88,4.37-2.46,5.97-2.07.56.14-.07,1.26,1.05,1.01.45-.04.05-.86.57-.99,2.67-.67,5.3.18,7.23-.03.4,1.74,1.85.23,2.94.66,1.72.69,1.35,2.96,2.77,3.55.01,1.11-2.04,2.86-2.43,3.57-.24.44-.08,1.37-.37,1.96-.36.72-1.8.89-1.33,2.57.54,1.93,2.03,1.73,3.63,1.95l-.5-.97,2.25-.45.45.94c.96-1.57,1.45-.2,1.95-.19,1.55.02,2.14-2.46,5.43.2.56.46,1.12-.54.23.97l1.47-1.46c.09,2.72,2.51,3.51,4.85,3.5.32,2.18.67,4.39.93,6.58.16,1.33-.94,1.93.62,2.46l-.49.95,1.45.24-.97.97c1.51-.16,2.34,2.61,2.58,2.82,1.09.92,2.04,1.08,3.19,1.71.41.22.77,1.99,1.22,2.25s1.26-.06,1.72.22c.66.39.02,1.85,2.08.86l-.98-.73.99-.49-.98-.25,1-2.2c-1.96-.37-.37-2.44-.6-3.44-.07-.29-.71-.15-.87-.59-.2-.53.21-1.39-.13-2-.11-.2-.92-.31-1.26-.92-.52-.91-1.94-6.02-.29-6.53.99,1.11,2.85.38,3.41.56.26.08.16,1.56,1.2.88.06-.04.89-1.15.91-1.22.03-.14.09-2.74.07-2.88-.01-.11-1.44-1.48-1.45-1.58-.09-2.16-.37-.88-.52-1.49-.07-.28-.02-5.41.03-5.7.36-1.86,3.89-.59,5.37-1.34.21-.81-.87-.23-1-.8-.23-.99.35-2.06.29-2.9-.05-.65-.76-1.25-.74-1.94.02-.9,1.38-2.21,1.94-2.95l-1.01-.52c.29-.51.28-1.47.5-1.86.53-.93,2.17.7.96-1.99,1.86-1.07,1.57-4.14,4.46-4.23l-.45-1.39c1.12-.26,1.54-.89,1.43-2.05l1.43.48c.62-3.46,2.91-2.21,5.09-2.94.59-.2.02-1.41,1.33-.97v1.48s.96-.48.96-.48l.51,2.43-3.93.49.46,1.68c-.17.8-1.51.58-1.83.84-.21.17-1.15,3.57-1.32,3.85-.29.49-1.5.61-1.69,1.3-.27.97,1.4,2.32-.52,2.14l.97,1.96-.97-.49.02,4.6-.99.32-.02.72,1.02.52-.52,1.69.97-.5v8.34s.98-.97.98-.97l1.91,3.72-.92,1.18,1.47.98c-2.03-.11-5.36-1.18-5.8,1.81-.13.86,2.41,2.54.42,4.35,1.72.39.53,1.37.79,2.6.37,1.74,2.13,5.41,1.41,6.93-.35.73-3.06,4.05-2.7,1.48l-.49.98-2.93-.98c-.07.95.65,1.23.81,2.21.24,1.46-.43,3.54-.33,4.38.03.28.97,1.73,1.17,4.36.15,1.97,1.93,4.81.33,4.95,1.17,2.16.76,2.47-.36,4.21-1.42.56-2.09-.08-3.25-.33-.63-.13-1.1,1.05-1.56-.66l-2.21.99,1.46,2.72c-1.96.55-1.14,1.71.5.7v1.65s-.97,1.04-.97,1.04l1.47.53.41,8.75-1.11.76-1.26-.95-.25,1.47c-1.11-1.73-3.47.45-3.2-1.46l-1.46.97-.98-1.46c-2.31,3.13.54,7.37-1.97,10.55,1.87.46.96,1.49-.49,1.72l.98,1.45c-1.46.08-.86,2.79-2.69,3.93-1.41-2.26-4.66,1.28-5.16-1.96l-.99.23c-.73,1.38-1.99,3.76-3.4,4.21l.96,1.7c-1.32.36-.89,3.21-2.95,2.69l.5,1.18-.84.39.35.87h-1.48c.47,1.96-2.1,4.33-3.3,6.15-.08.12.22.88-.1,1.35-.75,1.08-2.23,2.4-3.45,1.33v1.49s-.96-.48-.96-.48c-.04.26-.7,2.36-.78,2.45-.38.45-.9.04-1.07.18-.82.68-1.05,2.11-2.58,1.77.94,1.18-.44.88-.52,1.29-.13.71.37,1.59.42,2.4.03.53-.45,1.02-.29,1.59.08.3,2.04,1.18,2.32,1.46,1.71,1.73,1.99,4.54,4.94,3.07v1.96s1.96-.49,1.96-.49c.18,3.19,3.3,2.32,5.62,1.97l.27,1.46c1.21.49.95-.92,1.22-.99,1.84-.48.77.84,1.58,1.49,1.39,1.12,2.8.28,3.75.46.47.09,0,1.72,1.79.51v1.48s1.19-.51,1.19-.51l.29,1,1.46-.98.08,1.36c2.29-.09,2.6,1.75,3.45,2.43.49.39,2.44-.95,1.58,1.64,2.01.34,1.8,1.34,2.72,2.55.78,1.02,2.05.47,1,2.82l1.46-.49.06,2.91,1.42.03-.52,1.69,1.05.56-.48,1.45c1,1.28,2.95,7.84,2.75,9.79-.05.49-.94.82-1.07,1.23-.65,2.02-.3,4.88-3.45,5.14-3.82.32-3-5.89-7.1-2.7l-.25-1.47c-1.89,1.01-1.3,2.32-1.73,3.55-.18.53-.87.51-1.17.91-.32.43-.2,1.22-.36,1.39-.14.16-3.54.15-4.18-.15-.86-.4-1.19-2.13-1.45-2.3-.19-.13-3.64-1.7-3.87-1.69-3.92.24-3.99,4.76-4.41,4.68l-.73-.98-.22.9-4.83.09c-1.02-1.79-3.8-2.23-4.29-3.95l-1.46.98-.49-.98-.73.98-.75-1.47-1.22,1.46c-1.05-1.77-2.47-.89-4.17-1.46v2.45c-1.45.25-2.7-.51-3.97-.73s-2.25.93-2.66-.74c-.87.84-2.8,2.19-3.89,1.95-1.62-.34-1.67-1.94-3.47.48-1.08-.93-3.57-2.9-4.93-2.87-.26,0-.38.96-1.04,1.35-.84.49-2.35.07-3.3.56l-.77-.98v.97c-2.64-.8-6.28-1.29-8.81-.01.04-1.67-.99-1.28-1.25.02l-1.22-.98v.98s-.74,0-.74,0c0-1.14-3.44-1.3-3.43,0-2.04-2.23-6.8-.36-9.25-1.14-1.3-.41-1.15-1.91-3.52-.5-1.26-1.37-3.11-2.01-4.49-2.94-.76-.51-.87-2.42-3.11-1.81,1.06-2.51-.03-1.57-.7-2.49-.29-.41-.18-1.06-.37-1.33-.09-.13-1.09.47-1.39-.35l.98-.73c-4.39-1.11-1.96-5.21-3.12-7.75-.07-.16-1.59-2.05-1.75-2.44-.5-1.3-.7-5.99-.44-6.53.16-.33.72-.59.39-1.43l-1.95.97.98-.73-1-.55.05-1.62,1.43-.28-1.72-1.72-.49.99-.49-.99c-.52,0,.19,1.37-.97.98l-1.48-1.47-.48.99-1.48-1-.73.98c-.1-1.99-2.38-3.33-2-5.57.06-.34,1.75-.27,1.01-1.3-.09-.13-1.23,1.22-.97-.23l.97-1.23-1.01-.28.52-1.19h-1.96c.89-1.45,1.47-3.54,1.32-5.24-.08-.83-.82-1.29-.83-1.88,0-.66.92-1.12.78-1.75-.1-.46-.72-.92-.78-1.21-.05-.24.76-.13.94-.61,1.03-2.65-.35-1.95-.45-2.4-.45-2.09,1.22-5.29-.49-6.79l.97-.72-2.45-2.22.98-.73c-1.56.66-1.99-.81-2.21-.87-.23-.07-2.86-.08-3.09-.26-.26-.21-.32-1.02-.81-1.36-1.2-.83-3.6-1.46-3.2-3.41h3.43s-1.91-1.54-1.91-1.54l.35-1.83-.88-.07c1.72-1.43.21-2.7.55-4.06.27-1.09,2.83-1.82.4-2.57l1.03-3.82-1.49-1.08,1.47-.74-1.47-.49v-4.9s.98-.23.98-.23l-2.46-1.24.5-1.46-1.38-.11c0-2.09-4.78-2.49-3.04-5.29h-1.48s.97-.98.97-.98c-4.08-1.58,1.14-3.73,1.47-4.75.07-.21-.43-1.68-.24-2.63.35-1.78,2.35-2.08.22-4.11l1.99-3.22-2.45.24c3.09-1.45,2.37-3.62,1.47-6.37l1.47-.25v-4.41s-1.1,0-1.1,0c-.83-.13-.73-2.37,1.1-.98l.5-1.96c-1.12.15-3.39-1.51-2.45-2.46l-1.43-.03-.05-1.94-.97.24.24,1.23c-1.37-.38-1.82-1.88-2.58-2.46-.82-.63-2.27-.89-2.85-1.43-.17-.16-2.13-3.88-2.11-4.11.2-2.27,2.21-1.77,2.31-1.9.18-.24.07-.92.38-1.31.71-.9,2-1.01,1.18-2.98l1.47-.02-.54-1.68.99-.49-.48-1.95c.08-.42,1.6.03.51-1.48l.99-.3-.97-.73,1.47-2.47-.99-.46,1.47-2.48c-.92-.31-.82-1.2-1.48-2.2l-.97.97c0-1.18-1.94-3.89-2.92-2.95l-1.01-2.44.98-.49c-2.95-.61,1.73-3.64,2.77-4.59.49-.44.74-1.23,1.39-1.83.37-.33,1.74-.23,2.57-1.85s-.6-3.62,1.11-3.52c.24-.88-1.11-.2-.97-.73.41-1.58,1.88.71,2.45.24.95-.79-.94-1.08-.93-1.18l1.17-3.08,1.23.34c-.05-.74-.44-1.33-.39-2.11.11-1.59,1.67-.86,1.37-2.31l-1,.26-.47-1.74-1.46.5.97-1.46c-1.26.41-.76-1.37-1.25-1.51l-2.18.03.49-1.47-1.95.98c-.01-1.54-1.62-2.64-2.46-4.17-3.47-6.35.32-4.75,4.51-6.67.69-.31,2.44-1.57,1.87-2.41h.98s.49.98.49.98c-.52-2.83,3.18-2.88,3.82-4.04.31-.56-.05-1.68.11-1.84s1.12.14,1.56,0c.55-.18.55-1,1.21-1.38,1.74-1.01,2.84-1.06,3.96-3.29.45-.91-.94-2.01,2.05-1.77l.14-1.31,1.29-.15c.14-2.19,3.08-3.74,4.48-5.62.74-1,1.78-2.45,1.5-3.64l1.46.49-.49-1.47h1.96s-.51-1.19-.51-1.19c1.58-.39.3-1.69.99-2.89.2-.34,2.72-1.3,2.82-1.42.5-.63.61-3.34.89-3.79,2.53-4.13,4.44-3.83,5.63-9.48.08-.4,1.73-1.26,1.8-1.46.26-.71,0-1.59.17-1.95.34-.69,1.73-2.2,2.42-2.59l-.97-.73c.25.03.7.05.83-.12,1.29-1.78,1.3-3.49,1.73-4.89.56-1.8.92-2.12,2.32-2.58-1.74-2.5,1.27-2.62,1.73-3.67.18-.4-.34-1.07-.15-1.38.34-.55,3.28-1.72.89-2.32.26-.75,1.64-1.58,1.79-1.84.22-.35.93-3.35,1.08-3.58.48-.72,1.8-1.1,1.92-1.29.32-.52-.41-4.52,1.09-3.85-.52-1.08-1.98.23-1.47-1.96l-1.89.43c-2.25-1.68-2.69-1.85-4.54-4.28-.07-.09-.82.38-1.17-.02-.51-.58-.46-1.5-.77-2.12-.19-.37-.86-.36-.94-.73-.1-.47.52-4.76.72-5.1,2.01.09.77-.74,1.55-1.46,1.24-1.15,4.07-.73,4.84-1.04.15-.06,1.86-1.81,2.42-2.17,2.09-1.35.37-.55,1.28-1.85.42-.6,1.33-.75,1.39-.85.13-.21-1.06-.93.69-2.21.07-.05.58-.18,1.27-.61.85-.52,1.14.76.75-1.56,1.96-.25,2.04-1.98,3.08-3.32.49-.62,3.37-3.84,3.47-4.11.25-.69-1.49-1.59,1.04-1.42.08-.06-.32-.7-.14-.95.95-1.33,1.88-2.5,2.66-3.76.52-.85.07-2.31,1.46-2.13l-1.46-1.22,1.46-1.22-.98-.98c-2.37,1.61-3.55-2.59-5.03-3.12-1.27-.45-2.14,1.14-2.82-1.06l.98-.24-3.78-4.02c-.29-.45.13-7.52,2.32-6.28l-.5-.97c1.7-.29,2.75.18,4.16.98l.26-1.47c.98-.01,2,.18,2.94-.25.37-.17,4.18-2.89,4.74-3.35.47-.38.6-1.31,1.12-1.56.47-.22,1.27.4,1.51.25.04-.03-.39-.72-.21-.98.29-.44,1.06-.51,1.37-1,.8-1.25,1.48-2.75,2.42-3.73.63-.65,1.71-.75,1.9-2.05l.89.41v-1.48s1.47.5,1.47.5c0-.32-.09-.78.06-1.03.98-1.62,2.62-2.74,3.87-4.25.9-1.09,1.12-2.75,2.85-3.14l-.53-3.71c-1.89-.45-3.03-1.47-4.04-3.07l-.68.06c-.06,1.11-.47.99-1.52.92v-1.97c-3.36.81-2.25-2.6-2.59-3.33-.05-.1-.83-.06-1.12-1.03-.69-2.27-1.21-9.18,1.4-10.21,2-.79,2.56,1.18,4.1,1.18.26,0,3.48-.49,3.63-.6.79-.58-.08-2.31,2.41-.23-.02-1.63,1.15-1,1.38-1.16.58-.41,1.03-1.39,2.37-1.72l1.63.88c-.15-1.28,1.04-.76,1.41-1.01.1-.07-.49-1.06.34-1.4l1.21.97c-.39-.62,1.11-2.5,1.47-2.67.66-.31,1.3.84,1.76-.78l1.68.51-.25-.99c2.02-.04,2.55-3.61,4.66-1.46l.25-.98,1.22.98c-.59-1.12.9-2.97.78-3.46-.25-1.05-1.37-1.2-1.61-1.59-.37-.6-1.48-3.94-1.78-4.65-.08-.18-1.48.05-.35-1.35l-1.45-.24.98-1.46c-.8.63-1.77-2.99-1.75-3.18.05-.44.74-.83.69-1.4s-.9-1.2-.81-1.97c.11-.9,1.73-2.8,1.83-3.09.11-.32-.54-1.49.18-2.03.22-.17.82-.02,1.16-.26,1.26-.9,1.13-.77,2.5-1.48.45-.23-.53-1.61,1.6.16ZM92.96,310.07c-3.37-1.47-2.62-.21-4.97-.17-1.3.02-2.9-1.2-3.88-1.04-.56.09.6.5-2.52.54-4.47.05-7.43,1.1-10.99,2.7-1.61.72-4.11.88-5.68,1.64-.52.25-2.47,1.11-2.59,1.2-.38.29-.61,1.48-1.33,1.78l-1.22-.96.49,1.47h-1.48s.48.96.48.96l-2.44.52.49.97c-2.35-.36-3.41,2.31-5.4,1.48.84,1.6-.63,1.09-1.29,1.65-1.03.87-1.79,2.33-3.12,3.01l3.42,2.45c-.99.71-1.86.93-2.72,1.85-.15.16.23.79-.17,1.08-.23.16-.85-.11-1.29.23-.68.52-.51,1.97-2.19,1.51l.53,1.65c-.02.32-4.33,3.65-4.76,4.35-.21.34.23,1.35-.3,1.75-.28.21-1.05-.08-1.4.38-.81,1.09-.16,4.15-.95,5.6l-.97.49,4.41-.98-.98-1.46c1.55.7,2.67-2.66,3.67-2.46,1.76.35.87,3.61,1.23,4.91l-.98-.24c.63,1.42-.84,1.78-.88,1.95-.04.15.37,3.03.5,3.12.39.27,1.32-.2,1.6,1.05,1.21-1.11,2.68-.77,4.13-1.77.96-.65.54-2.1,2.5-1.17v-1.48s1.47.5,1.47.5c-.43-1.9,3.25-2.59,4.73-3.63,1.33-.94,2.14-3.05,4.34-3.26l.74.99c-.24-1.17.94-.82,1.3-1.13,1.81-1.55,2.56-3.91,5.58-3.77-.45,2.34,1.7,1.82.99,0l1.47.49.1-1.39,1.3-.15c0-2.31,1.92-2.33,1.11-5.09-.06-.2-1.95-3.02-2.12-3.09-.61-.24-1.57.59-2.34.39v-2.45s.97.97.97.97c.87-2.49,1.76-1.96,3.49-2.24,2.63-.43,2.02.1,3.14.11.31,0,.85-.73,1.49-.81.76-.09,5.04,1.58,5.62,2.23.41.45.13,1.05.28,1.24.37.48,1.34-.22,1.82,1.06l-.14,1.84,1.46-.49-.97,1.47c2.11-.57,1.48,3.08,4.18,2.79,1.36-.15.79-3.19,2.68-3.52.27-1.03-.7-.41-1.08-1.42-.29-.78-.26-1.51.1-2.25h-1.47s.5-3.42.5-3.42c1.32,0,3.08,0,3.64,1.4l1.74-.43-.24.99,1.15-.39.28.83,1.25-.45c-.77,1.19.97,3.71,2.45,3.93l-.97.97c2.82-.04,2.03,2.8,2.95,4.53.3.56,1.17.57,1.39,1.18.61,1.71-1.13,3.77-.8,5.33.05.22,1.32.58.89,1.7,3.47.42,4.53-2.32,7.57-3.44.65,2.03,2.14.22,1.74,2.47l.97-.98c.35.96.33,3.35.54,4.09.36,1.29.95,2.69,1.33,4.54.31,1.5,1.61,1.66.11,3.13l1.01.3-.61,3.58-1.44.34c-.49.74.17,1.76.06,2.32-.03.15-1.36,1.21-1.28,2.55.04.6,1.09.87.78,1.71l-1.46-.49c.18,1.11-.08,1.31-.99,1.71l.99,1.72.52-.93c.8.69,1.85.12,2.26-.66.12-.23-.36-.82-.33-.85.11-.09.89.14,1.32-.13.67-.43,1.82-3.6,2.16-4.38.22-.5.89-.39.91-.71s-.36-.81-.29-1.33c.06-.38.57-.78.57-1.05-.04-1.44-.85-2.73-1.12-4.06-.39-1.9-.32-4.37-.75-6.16-.22-.92-1.34-1.86-.83-3.28,1.17.44,1.51.22,2.45-.49l.04,1.43,1.57.04.84.98c-.02-1.74.55-2.39,1.97-3.19l-1.47-.25c1.71-2.1.53-1.12.18-1.61-1.17-1.64-.3-3.04-.66-4.42-.09-.35-3.61-4.98-4.1-5.75-.59-.93-1.67-1.91-1.72-2.05-.17-.46.46-1.05.34-1.31-.7-1.47-6.07-4.49-6.68-5.09-.23-.23-.36-1.62-.86-2.36-.71-1.04-3.86-1.01-3.18-2.93-1.83,1.61-3.35-2.5-4.07-2.8-1.33-.56-5.67-.33-5.26-3.08l-.49.97c-.64.02-2.42-1.13-2.46-1.95l-1.45.97c.14-1.73-.68-.38-1.65-.46-.3-.02-.3-.74-.48-.81ZM76.34,348.02c-.24.23-4.92-.55-6.01-.57-.62-.02-.95,1.09-2.2-.29l-.23.88c-.82.13-3.65.1-4.09.25-.49.17-1.26,2.83-3.51,1.86l-.05,1.37-1.94.05.5.97c-1.17,0-2.21.42-3.22.97-1.29.71-1.37,2.06-2.63,1.54l-.04,1.42-.97-.5c.55,2.19-2.58,4.11-4.42,4.42l.49,1.47-1.47-.49-.23,1.99-1.24-.03-.05,2.41-2.41.04c-.21.77.49,1.56.49,2.15,0,.18-2.47,2.41-2.5,2.59-.09.6.69,1.39.53,2.13l-1.47-.49c1.01,1.94-.67,1.5-.98,2.33-.23.63.09,1.79-.5,2.57l2.94.98-.98-.73,1.92-.25c.08-.69,1.38-3.53,1.66-3.8.8-.74.75-.5,1.88-1.77,1.32-1.48,4.96-4.26,6.85-4.9,1.77-.6,3.92-1.27,4.37,1.16l.49-.97h.73s.74,2.45.74,2.45c-.49-.42-2.13.22-2.44.5-.56.49,1.73.33.98,1.46-1.3-.42-3.14.53-3.75,1.59-.18.31.17,1.11-.12,1.54-.16.24-2.5,1.13-2.85,1.43-.24.2-.03.95-.28,1.19s-.99.04-1.19.28c-.98,1.16-.81,2.76-1.48,4.14-.47.97-2.36,2.4-2.79,3.05-.08.12-.81,2.57-.81,2.71s1.65.42,1.01,1.73h-1.48c1.05,1.19-1.84,1.21.23,2.99.46.39,2.02.11,2.71.45v-1.48s1.47.5,1.47.5c0-1.02.86-2.13,1.6-2.79.12-.1.63.28.74.18.81-.73,2.38-3.46,2.57-3.57.76-.46,1.52.31,1.88.16.15-.07,2.24-1.78,2.4-1.82,1.03-.25,2.47.12,3.58-.01l-.73,3.46c-1.91.2-2.84.65-2.78,2.86l-1.34.09c.29,2.71-.75,1.53-1.4,2.05-.76.62-2.42,4.99-2.6,5.23-.15.2-1.51.1-2,.86-.21.33-.91,3.47-1.1,3.88-.26.56-1.17.51-1.3,1.05-.22.93.65,2.32-.97,2.1l.97.73c-1.92,1.11-.82,1.84-.96,2.87-.05.38-.81.26-.89.56-.19.75-.09,3.76.14,4.66l2.15-2.02c-1.23-.65,4.11-5.88,4.62-6.17,1.03-.58,2.17.58,2.33-2.09l2.88.52c.21,2.24-.29,4.71-2.9,4.87l.5,1.46h-1.48c1.27,2.07-1.31,4.33-1.48,5.68-.1.81.52,2.03.45,2.12-.3.39-1.85.03-.96,1.71l-.88.55.43.94-.98.3c-.22.82.95.23,1.02.78.08.65-.58,1.6-.57,2.43,0,.15.52,2.63.58,2.84.13.46,1.3.1.67,1.8l2.15.04.8,1.42,1.14-1.22-.89-1.22.98-.24c-2.52-3.13.53-1.38.99-3.45l-.99-.48c1.63-1.02,1.16-3.51,3.44-3.2l-.5-1.46h2.45s-.49,1.46-.49,1.46c.49-.4,2.27.89,2.35,1.09.24.63-.48,1.88.72,3.17.47.5,1.28.3,1.73.79.22.25-.12.9.69,1.51.37.28,4.12,1.9,4.32,1.77-.53-1.31.72-3.2.74-4.44.01-.79-.73-1.72-.59-2.58.12-.75,1.37-1.91.85-3.27l1.46-.25-1.96-1.22,3.6.44.32,1.98,1.42.06c-.67.13,2.35,3.23,2.57,3.3.66.19,1.71-1.32,2.13.6,2,.36,1.55-2.2,3.21-2.74l-.51-1.68h1.48c-.72-1.14.06-1.85.57-2.88l3.28.51.07,1.39c1.73-1.53,4.76.12,5.64-1.99.27-.64-.23-1.31-.03-1.96.46-1.5,2.04-2.46.27-4.39,2.06-.07,2.08-4.2.98-5.4l.98-.49-.98-.25v-.73s.93-.21.93-.21l-.43-3.72.97.5-.99-3.44c-1.4.26-1.98,1.92-2.67,2.49-.43.35-1,0-1.14.11-.33.25-.36,1.19-1.08,1.57-1.42.74-4.78,1.37-6.37.74l.49,1.47c-.39.3-6.78-1.23-6.95.89l-.65.09-1.76-2.66c2.37-1.32,2.58-2.7,1.99-5.19-1.38-.47-.85.89-.98.97-1.24.81-.6-1.01-1.46-.97.21,1.87-1.15.48-2.13.63-2.58.4-2.55.46-4.92.31-.68-.04-1.29-.47-1.98-.5l-.78,1.02c.52-1.76-1.31-1.58-1.75-2.45-.24-.48.24-1.1.12-1.36s-1.94-1.49-1.25-2.96c1.91-1.48,2.55.03,4.12-1.7.09-.1.89-1.1,1.14-1.41.28-.35-.54-1.41-.46-2.07.04-.31.85-.23.98-.62.21-.66.05-2.36-.96-2.38l.99-1.71c-1.17.17-.95-1.02-1.45-1.76l.96-.7c-1.44.02-1.31-2.33-2.45-3.2l.98-.48-.98-1.22,1.4.38.75-.83,2.76.94-.5.97c1.61-.66,1.99.8,2.11.85.44.17.93-.21,1.32-.05.89.37,2.74,2.86,3.26,3.8.32.57,1,2.5,1.16,3.26l1.47-.5c-.62,2.25,3.28,2.51,4.39,1.44.14-.13-.75-2.58,1.51-3.15l-1.01-.55c-.21-.94.51-2.2.39-2.54-.05-.12-1.75-1.75-1.84-1.94-.43-.9.07-1.42-.02-1.77s-.86-.27-.95-.66c-.25-1.04.79-3.09-.49-4.56l2.22-.94c1.46,2.41,4.64,2.62,6.97,3.75.76.37,1.18,1.13,1.92,1.51l2.13-1.15-1.47-.25.98-.77c-.07-2.89-2.35-5.04-2.46-7.56l-1.96.49.38-.88c-4.89-3-3.36-6.81,2.29-3.98l.28-1.01.72.98,1.24-.5c-1.37-2.22.43-1.31.48-2.94l-1.46.49c1.26-2.47-2.76-2.07-3.02-4.82l-1.15-.1-.49.99c-.75-1.4-3.54-1.88-2.7-3.43-1.08.13-2.08.64-3.21.55-.91-.08-.64-.94-1.02-1.02-1.2-.22-5.17.98-5.83-1.01-1.11-.26-.55.6-.85.87ZM127.46,425.14c-1.37.05-2.03,1.4-3.43.49l-.08,1.36c-.52.77-2.35-.44-1.87.84.51,1.35,2.61,4.5,4.11,3.16,1.56.9,1.88,1.72,3.44,3.29.24.24.92.11,1.29.5,1,1.07,1.4,4.22,3.86,3.14l.53.94c-.17-1.49,1.57-1.26,1.86-1.58s.18-2.19,1.09-2.82c-1.7-.29-2.04-3.24-3.13-4.73-1.7-2.31-2.69-1.67-4.13-2.29-.11-.05-.92-1.68-1.82-1.66-.5.01-.87,1.14-1.71.82v-1.47ZM110.38,429.45c-.27-.21.25-1.08-.56-.87.18,1.07-.53,1.06-1.48.98l1.47.49c.29,1.55-1.52.41-.97,2.6.19.77,4.35,2.97,4.76,4.31,1.6.28,5.17,1.4,6.5,2.18.96.57,2.36,3.36,4.42,2.68l-1.47-.73c2.05-.75,1.16-.57,1.67-1.61.07-.14.82-.01.8-.36,0-.14-.79-2.55-.86-2.7-1.18-2.57-3.96-2.16-3.58-4.91-1.73.21-4.52-.9-6.49-1.51-.39-.12-.37-.82-.71-.92-.61-.17-2.82.91-3.52.36ZM102.94,433.97c-1.14-1.18-2.85.06-2.95-1.96-1.61,2.1-2.73.6-4.54.99-.3.07-.34.63-.57.78-.36.23-1.03.13-1.14.28-.3.39,0,1.28-.37,1.87-.33.53-2.49.48-.26,2.73,1.73,1.74,3.64,1.73,5.91,1.2l-.24.98c.87-.19,3.12-.57,3.86-.46.24.04.78,1.35,1.79,1.65,1.83.55,3.65-.44,4.14,1.26l2.22-.99-.5-1.17.86-.4c.63-1.89-1.64-1.78-1.76-1.92-.24-.28.06-1.17-.24-1.75-.73-1.45-2.04-.52-2.93-1.09-.42-.27-.5-1.06-.82-1.23-.62-.35-2.15.93-1.99-1.75l-.49.98Z"/>
        <path d="M103.43,176.46c-1.73-.35-2.62.35-2.16,1.97l-1.27.49c1.64,1.55.06,3.31.52,5.36,2.98,1.11,3.33-.96,5.07-2.26,1.2-.9,2.8-1.56,4.07-2.3.27-.16-.06-1.32,1.13-.81l.49.97c-.27-1.12,1.45-3.3,2.45-2.09l.26.62c.39-1.63.91-.56,1.77-.81,3.4-.98,2.05-.27,4.58-.15,2.45.12,5.96-1.05,6.9,1.44.35-1.75,1.72-1,1.69.46-1.17.13-1.55.87-1.45,2-1.31-1.23-2.36.96-3.31,1.48-1.03.57-2.54-.58-1.6,1.95l-.97-.5-.98.99,1.05,3.35c1.37-.08,1.64.87,2.86-.39l.3.98c1.72-.08,5.88-.67,7.31-.4.2.04,3.4.94,3.58,1.02.54.24,1.41,2.69,3.53,1.33l-.49,1.47c1.33.14,3.79,1.88,4.72,2.94.75.86,1.89,3.57,2.53,4.77,1.36,2.51,2.87,3.28,2.06,7.01-1.82.47-2.76-1.75-3.61-2.27-1.36-.84-3.05-.69-3.99-2.14l-.3.89-1.12-.4c-.4,1.42-1.2.44-1.25.51-.11.14.1.76-.07,1.02-.38.57-.94.31-.87,1.03.31,3.16,1.48,2.2,1.93,2.61s.29,1.23.6,1.55c.53.54,2.82,2.09,3.53,1.12.54,1.91,2.18,2.78,4.19,2.94l-.42,1.22.92,1.71.88-.39c.14,1.91,1.69,2.52,2.33,3.47s2,4.8,2.49,6.56c.22.8-1.05,1.5.67,1.87-.64.66-1.07,3.41-2.2,3.23l-6.9-4.43-.71.97-.49-.98-.98,3.92,1.23-.5.82,4.85,1.39.06-.49,1.96.97-.98c.34,1.83.04,3.72.22,5.55.04.39.53.85.6,1.48.17,1.4-.98,3.18.66,3.51-1.55,1.57-1.51,4.07-1.48,6.14l-1.46-.49-.5,5.89-.97-.5c.85,1.62-.94,1.75-.72,3.97-.36.64-1.44-.14-2.25.62-.89.84-.89,2.15-1,2.26-.15.15-3.45-.7-2.9,1.98l-1.25-.44-.95.92-1.24-.97.48,1.96-3.18-.99-.74.99-.28-1.49,1.7-.53c-.8-1.61.9-2.51,1.21-3.37.09-.25.7-2.57.69-2.71-.06-.69-1.4-.94-1.7-1.36-.97-1.36.24-3.54-3.09-3.29l.49-1.46h-1.47c.59,1.26.19,2.34.26,3.5.02.39.68.92.66,1.16-.03.46-1.38.73-1.66,1.22-.77,1.29-.3,4.44-3.06,5.91-.67.36-1.49-.03-1.54.03-.17.22-.06,1.12-.52,1.7-.34.43-1.14.49-1.38.86-.28.42-.05,1.24-.12,1.32-.18.19-1.42-.6-2.11-.43-1.63.41-.03.96-3.49.91-.33,0-.27.91-.9,1.16-1.06.41-2.04-.73-1.84.8l-1.96-.97.24.97c-1.07-.14-2.37.7-3.33.5-.32-.06-.33-.69-.53-.82-.6-.39-1.94.14-1.27-1.39.25-.56,1.49-.89,1.96-1.47.97-1.17.84-2.96,2.93-2.72l-.24-.97-1.24-.5,1.48-.25-.99-.49c1.68-.79,1.67-1.34,1.47-3.19l-.73.98-.25-1.47-.97.98v-.98s-.98,0-.98,0l-.08.91-1.39-.42.49,1.47c-1.74-.18-5.22-.59-4.91,1.96l-.53-.93c-1.41.49-5.71.31-7.01-.13-.22-.08-3.62-2.51-3.77-2.7-.58-.71-.69-2.52-1.21-3.12-.46-.51-1.36-.34-1.59-.6-.46-.5-.84-4.38-2.07-5.05l.97-.45c.03-1.36-1.58-1.96-1.77-2.47-.17-.45.4-1.95.28-2.4-.11-.38-.88-.13-.99-1.03-.15-1.14.32-5.76,1.32-6.11l1.66-.06c-.62,2.68,1.08,3.04,2,4.64.26.46,0,1.16.06,1.19.25.15.98-.11,1.28.17.22.21,0,.94.23,1.21.25.3,2.23.82,2.82,1.14l-.97.97c.81-.58,2.86.09,3.31.62.3.36.01,1.15.15,1.32.17.2,3.79-.05,4.38-.46l-.97,1.47c2.35-.25,3.55-2.99.48-2.95l.49-1.96-1.46.5c-.3-1.22-.89-2.49-1.49-3.58-.2-.36-1-.31-1-.62,0-.78,1.69-4.94,2.98-3.37v1.68c2.29-2.46,5.19.85,7.56.91,3.41.09,7.9-1.36,11.35-.95,1.39.17,1.41,3.29,3.16-1.92l-1.43-.04-.28-1.39-1.23.44.48-1.96c-1.94,1.15-3.25-2.22-4.9-.98v-1.48c-2.95,1.19-2.13-1.01-2.46-1.47-.03-.05-.68.33-1.13.3-1.99-.15-2.83-2.3-3.5-4.08-.06-.15-1.48-.92-.76-2.59l10.98,1.02.31-1.02.73.98.73-.98.28,1.01c2.39-.7,4.55-1.84,7.08-1.01v-1.96s-2.45.49-2.45.49l.49-1.46h-1.48s.49-1.47.49-1.47c-2.16.44-3.7-2.34-5-3.85-1.39.13-5.48.04-4.81-2.04-1.78.75-2.52-.88-4.21-1.46-1.98-.68-5.36.18-7.55-1-.27-2.56,2.36-2.6,3.56-4.09,1.42.46,3.3-.84,4.03-.84.19,0,.88,1.94,3.21,1l-.49-.96,2.94-.51v-.97s-.93-.22-.93-.22l.44-1.26-.89.35c-.39-1.17-3.81-.76-5.26-.95-.24-.03-.17-.85-.52-.87-1.17-.06-3.91.29-4.89.98l-.47-.99-.24.98c-1.29.18-1.24.03-1.71-.98-1.28,1.6-3.08,1.02-4.68,1.21-1.29.15-3.99,1.44-4.41-.71l-.73.97-1.11-2.14c.93-1.92,2.38-1.77,1.44-4.5,2.03-.73.71-1.8-.86-.75l-.46-.95-.72.02c-.61,1.46-3.61,3.15-5.41,2.44l.5.97c-1.81-.2-2.95,2.73-4.91,1.96v1.97s-1.47-.98-1.47-.98c-.33,2.8-3.74-.18-4.17,1.96l-2.49-1.47.27-1.96-1.47.49c.73-1.1-.44-1.97-.39-2.6.22-2.77,2.12-5.97,2.73-7.95.14-.45-.4-1.79-.02-2.56.25-.51,4-3.28,4.78-4.55.37-.59.25-1.31.26-1.96l1.19.76,3.47-.76c.37,3.23-1.85,4.83.73,7.84l.73-.98.32.75.9.24c.12-1.86,2.12-2.55.98-4.9l1.38-.07c-.13-2.34,1.27-2.73,2.38-3.98.62-.7,2.22-3.43,3.42-4.27.59-.41,3.22-.21,2.14-1.99,1.89.99,1.29-.33,1.78-.47.45-.13,2.06.46,2.4.39.39-.07-.07-1.39,1.21-.9l.48.98.76-1.47c.73.04,2.68,1.04,2.18,1.96Z"/>
      </g>
      <g>
        <path d="M255.4.94c.46.56-.49,2.74,2.06,2.37-1.03,1.31.61,1.99,1.27,3.4l3.91-.92.27.84,1.11-.39.5.94c3.31-1.86,3.67,3.76,6.43,3.96l-.26,1.46c2.63-.23,2.81,3.51,2.45,5.41.79-.43,3.03.86,3.19.84.66-.07,1.24-1.57,2.07-1.75.96-.2,1.51,1.08,1.85-.57h.99s.72.99.72.99c.1-1.22,1.48-2.08,1.72-.49l.96-3.46c3.09-1.55,4.65,1.61,6.56,2.43,1.59.68,4.02,1.2,5.84,1.83.66.23,1-.85,1.84,1.17l.26-.95.96-.02,1.73,1.95.52-1h.95c.98-.17,1.09,1.3,1.29,1.41.09.05,1.12-.41,1.91-.23,2.14.49,2.79,2.71,5.87.8l-.49,1.47c2.77-1.5,3.02,2.17,5.88.98v1.48s1.23-.97,1.23-.97l.25,1.46,1.43-.45.78,1.43c.48-.66-.05-1.25,1.21-.98.12.49.85,2.21,1.07,2.34.17.11,3.2.2,3.95.58.61.31.66,1.24,1.38,1.71.92.61,2.8.87,3.92,1.25l-.5,1.46c2.89-.43,2.67,2.05,3.51,2.85.09.08,1.16-.28,1.59.04.45.33.14,1.08.42,1.39.1.11,2.78.92,2.32,1.84-.49.98-3.56.75-4.28.42-.96-.44-.18-1.79-2.09-.65l-.04-1.42c-1.76.48-2.9-1.63-4.02-2.19-.59-.29-1.46.12-1.84-.11-1.14-.7-1.46-3.52-3.91-1.19v-1.48s-1.25.44-1.25.44c-.29.02-.13-.8-.57-.91-3.33-.85-5.78-1.99-8.88-3.43-.94-.44-2.85-.04-2.97-.13-.23-.17-.17-.92-.79-1.17-.35-.14-2.09.13-2.73-.19l.5-.97c-2.1.97-3.85-.12-5.55-.36-1.11-.16-1.41,1.29-2.57-1.05-2.5,1.23-2.19-.59-2.78-.93-.95-.56-1.18-.25-2.94-1.44-.71-.48-4.77.11-5.55-1.56-1.97.91-.59,4.55-2.53,5.26-2.24.82-2.23-.97-2.37-.9-1.16,1.83-1.79.22-2.47.19-.29-.01-.67.61-.96.6-.68-.03-1.3-1.64-2.47.19l-.49-.99c.3.9-3.34,1.39-3.7,1.29-1.45-.4-1.52-2.94-3.9-1.78l-.1-5.16c-1.28-.49-.87-.54-.39-1.7l-1.47.49-.05-1.94-1.43-.02.5-1.47-3.43-1.47-1.01,3.91-.87-.36-.09.85h-.95c.19-1.17-1.02-.79-1.34-1.12-.58-.6-2.02-3.89-2.74-4.62-.33-.33-1.58-.33-2.32-.87s-1.05-1.74-1.46-1.97c-.51-.28-1.68.95-1.5-.73l-3.21,4.9c-3.28-1.05-5.52-4.74-9.05-4.41l.5.97h-1.48s.49,1.97.49,1.97l-.98-.24c1.03,1.53-.26,1.04-.46,1.59-.48,1.3-.02,3.32-1.48,4.25-.87.55-4.82-.17-5.89-.69l1.46.99-.96,1.2c1.95,1.5,1.18,3.87,1.46,5.31.03.15,1.78,1.87,1.95,2.31-1.81.1-3.43.79-4.87,1.74l.47,1.42-.99.28c.65,1.27,2.39.65.49,2.2l.98.25-.97,1.22,1.94.77c-.32.98-.05,3.06.6,3.79.09.11,2.08-.72.89,1.57l1.38.1c-.25,1.95,1.52,1.37,1.96,2,.47.66-.71,1.81,2.06,1.35l-.5,1.46,1.97.74c.35,1.66-1.47.8-.49,2.2-1.4-.82-2.53.9-3.62,2.04-1.94,2.02-3.64,4.54-5.66,6.58-.37.37-.97.67-1.51.71l.98.49c-1.11,1.4-.97,3.22-.49,4.9l1.71-1.47.25.98.53-.92,4.38.44c.63,1.91-.91,1.79-1.2,2.87-.45,1.68.55,2.39-.97,4.78-2.9,4.54-3,7.02-5.21,11.6-.21.43-.53.44-.95.38-.22.86.83.32.97.49.07.09-.55,2.11-.6,2.22-.13.27-1.64.28-.86,1.21.08.1.8-.17.88.23.19.95.19,3.55.09,4.67.21.11,4.45-1.11,3.93-1.95l.97.97.79-1.42,2.63.68c-1.67,1.7.15,5.34-2.44,5.65l1,.76-1,8.07,1.96.26c-.51,1.58-.95,2.42-.49,4.16l.78-1.03c1.92,1.05,3.38-1.11,4.13-2.89l.54.88c3.81-.94,2.35,4.95,3.18,7.68.57,1.88,2.09,2.27,1.17,3.7,2.04-.45,1.59,1.42,2.48,2.57.26.34,2.36,2.6,2.53,2.69.11.06,2.3-.19,2.55-.37,1.12-.83.56-2.78,2.22-1.99l.04-1.44.95.48.61-2.86,1.3-.14.09-1.39c1.34-.56.76.99,1.22.99l.24-.65c.12-1.18,1.95.86,1.97.99.13.84-.17,3.31,0,4.22.06.29,2.78,3.59,2.05,5.18l1.28.16.16,1.29c2-.34,1.73,1.37,3.36,1.06-.5-.9,4.21-5.35,4.58-5.33l1.32.44-.49.97h1.97s.98.99.98.99l-.98,1.46h1.97s-.5.98-.5.98l1.43-.45.78,1.43c.29-1.68,2.9-.87,4.27-.44.44.14.69,1.33,2.81,1.17,2.7-.21,2.54-3.19,3.55-5.06l1.61-.11.83,3.24,1.4.23-1.47,1.46,1.68-.51c.54,1.98,2.18-.1,3.47,1.49.61-1.91,1.48-.96,2.47-1.43,3.69-1.77,3.91-3.1,6.35-4.94,1.48-1.12,3.77-1.87,5.03-3.4,2.41-.64,2.06.96,2.34.96,1.49-2.47,5.8-.78,8.32-.95l.26-1.51c1.89.95,1.12-.21,2.16-.59s5.5-.64,6.18-1.12c.91-.64-.1-2.35-1.47-1.23l-.02-1.46c-1.25.58-2.11-.32-2.91-1.24.03-1.62,5.51-1.15,5.39.73l.78-.99h1.42c-.2.74,1.78,2.37,1.95,2.38.9.03,1.92-1.25,2.22,1.07l.49-.98c1.28,1.73,4.7.72,5.56,1.05.69.26.66,1.12.89,1.29.28.2,6.5.24,6.93.13.55-.15.45-1.18,1.05-1.31.49-.11,4.45-.09,4.62-.24l.55-1.89c-.12-.13-.8.3-1.23.21-1.42-.3-4.96-.38-6.59.05-.35.09-.7.88-1,.71-.03-.02.1-.57-.18-.77-2.33-1.67-4.28-.22-5.89-1.16-.63-.37-.18-1.31-.32-1.49-.04-.05-.7.37-1.13.27-3.6-.86-4.11-1.39-6.79-3.11-.15-.1-1.24.44-2.04-.06-.77-.49-.34-1.78-1.43-2.17-1.59-.57-4.69.54-6.42.16-.48,1.12-4.7,2.05-5.23.73l.98-.73h-1.48s.94-4.68.94-4.68l2.5-.24v-1.23c1.72-.1,6.67-.56,8.2.1.32.14,1.81,1.68,2.27,1.95.89.51,1.45.8,2.28,1.31,1.5.92,5.31,1.79,4.91,3.76,1.82-1.85,2.25.23,3.81.86.94.38,6.69,1.11,7.73,1,1.39-.13,2.12-1.48,3.72-2.08.57-.21,1.24.18,1.34.11.44-.29.39-2.14,1.99-1.45-.32-1.87,1-1.15,1.38-1.54.68-.69.75-2.78,2.15-3.1-.13-2.28-2.48-.97-2.01-3.14l-.96.48c-.03-1.67-2.78-4.17-4.4-4.45.64-1.47-.37-3-.01-4.52.07-.28,1.44-.64.98-1.81l.95.47c-.1-.42,1.3-3.07,1.43-3.21,1.1-1.12.92.1,1.84-1.68.68-1.33,1.49-.41,1.81-.54.41-.17.29-.8.64-.9,1.07-.29,2.51.89,3.36-1.51l.46.98,2.22-1.22c-.72-1.27-1.27-2.34-2.94-2.22l.5-.97-1.94-.05-.07-1.36-.95.19c-2.5-4.46-8.34-5.01-10.42-10.95-.06-.17-2.8-2.12-2.8-2.3l1.47-.98-1.03-.54.57-2.83c-.04-.26-1.96-.48-1.01-1.28.64-.54,2.62,2.32,3.79,2.08,0,1.69,3.02,3.08,3.79,1.35.16-.36-.26-.87-.09-1.34.05-.13,1.52-.31.88-2.34l-1.51-.26.34-.87-.84-.38.52-1.41c-1.37-.35-.75-1.86-1.18-2.62-.93-1.65-3.26-2.96-4.23-4.28-.67-.91-.49-2.52-.79-3.21-.34-.79-3.81-3.25-4.91-5.01-.43-.68-.91-2.81-1.46-3.66s-1.98-.99-1.67-2.59c-1.41,1.62-3.64.5-3.43-1.47l-.49.97h-.97c0-1.6-3.6-2.02-4.9-1.47.36-1.23-.63-1.28-.95-1.88-.17-.32.13-1.11-.13-1.45-.43-.57-3.08-.67-3.32-.84-1.77-1.28-2.49-1.78-4.75-2.92-1.41-.72-.44-.13-1.91-.23-1.09-.08-.92-1.08-1.49-1.38-1.26-.67-4.44.01-4.6-.16-.08-.09-.88-2.16-.9-2.28-.06-.44,1-2.98,1.33-3.37.68-.81,1.88-.33,1.49-1.68l-1.46-.24c2.2-.51,1.59-1.67,1.92-1.96,1.04-.94,5.69-1.63,7.22-2.13.8-.26,1.38-1.9,3.61-1.07l-.07-1.25c1.97-.19,1.98-1.99,2.32-2.23,2.33-1.66,7.99-.39,10.38.91,1.03.56,3.44,3.5,4.64,4.41.14.11.68-.36.79-.28.36.26.83,2.06,1.26,2.67,1,1.4,2.22,1.33,2.74,1.86,2.42,2.44,2.22,5.62,3.86,7.97l.09.91-1,.47c1.58,2.83,2.46,4.98,1.93,8.34-.15.97-1.81,4.63-1.77,5.42.02.47,1.08,1.24,1.24,2.08.22,1.15-.66,2.23-.36,3.21.19.65,1.87,2.96,2.07,3.43.39.92-.17,2.19.57,3.28.75,1.1,2.24.66,1.21,1.98h1.48c-.52,1.33-.25,2.9.48,4.09.48.77,1.78-.38.01,1.79,1.81.06,1.72,3.24,2.06,3.84.9,1.58.59-.24,1.15,2.81.64,3.51,2.15,6.9,4.16,9.64.91,1.25,2.88,2.54,4.39,2.36-1.2,1.89,2.74,1.89,2.87,2.06.18.24.91,2.38,1.2,2.68.24.25,2.86,1.55,3.31,1.89.49.38-.04,1.04.06,1.13.63.51,2.58-.2,1.38,2.03.43-.02.89-.05,1.28.19,1.41.86,3.04,6.39.2,6.93l.97,1.72c-1.39-.55-4.19,1.66-2.94,2.94l-1.47-.49.49,1.47-1.47-.49.49,1.47h-1.48s.45,1.43.45,1.43c-1.99.24-.49,1.82-1.91,2.75l.98.48c-1.84.48-2.23,3.68-3.02,4.56-.1.11-.72-.27-.93-.14-.48.29-.06,1-.24,1.26-.26.38-.9.05-1.22.28s-.36.9-.58,1.02c-.85.48-2.57.74-4.2,1.58-.97.5-1.73-1.01-1.81,2.03-1.39-.59-2.7,3.49-3.26,3.83-.12.07-.94-.51-1.53-.34-.43.12-3.41,1.65-3.54,1.85-.17.27.26.96.22.99-.3.16-1.19-.34-1.72-.25-2.4.41-6.98,1.4-9.34,1.29-.91-.04-.64-.98-1.02-1.02-4.34-.45-6.61.77-10.26,1.25-.44.06-.95-.62-1.75-.55-1.88.15-4.55,1.71-6.79,1.3l-.03,1.42-1.47-.98c.75,1.49-2.33,2.13-3.73,2.43-1.32.29-3.52,0-3.88.11-.26.08-.18.75-.56.84-.43.1-1.6-.39-2.3,0-1.28.72.58,4.01-1.33,4.23l.51,1.69h-1.22s.73,1.22.73,1.22l-1.94,1.29.47,1.41c-.74.58-3.9-1.7-5.17-1.96l-.47.98c-1.11-2.67-3.44-1.5-5.64-2.46l-.45,1.75c-.01.23.87.15.93.51.1.59-.73,6.26-.98,6.58l-1.46-.49.49,2.45-1.42.03-.11,1.86-1.66.53.26,1-1.75-.44-.52.94c-1.06.1-1.84.25-1.67-.98l-.77.97c-1,.07-2.22-.67-2.98-.8-1.02-.17-1.49,1.06-1.89-.68l-1.12,1.08c-.13.37,1.54,3.7,1.91,4.42.2.39.8.43.82.48.13.36-.59,1.19-.39,1.39.07.07.9-.14,1.32.12.51.33.66,1.55,1.12,2,1.37,1.33,3.45,1.35,5.04,1.85.39.12.4.75.62.81.86.23,3.33-.29,3.96.58l.22,1.49c-1.74.12-2.46.95-2.46,2.7l1.48.26-.98.97c1.29.65,2.9-.35,3.82-.18,1.16.21,1.12,1.15,1.4,1.18.98.12,2.25-.83,3.39-.96.7-.08,3.65.04,3.4.95l1.93-1.02,1.02,1.5,1.97-1.02,1.21,1.03.49-.98c-.14,1.59,2.51.65,1.48,2.44,1.57-.7,2.12.98,2.25.98.64.02,2.56-1.19,2.05,1.11-.55,2.48-2.64,5.05-2.84,7.73l-.97.48c1.87-.33,3.34,1.54,4.41.98v1.47c2.42-.42,4.48-.37,6.61,1.01l1-1.48,1.22.97c.24-2.48,1.02-.19,1.96.49l.25-1.47c.43.69,1.82.97,2.54.84,1.49-.28,1.36-1.68,1.87.14,2.49-1.36,3.05-3.33,6.13-2.94l-.49,1.47,2.41.04c.71.94.97,5.41,2.5,5.37l-.97.97c1.5-.1,2.08.45,1.97,1.97l2.45-.5-.5-.97,1.42.4.06-.89c1.74,2.26,3.81-.36,4.66-.32.36.02.76.78,1.36.71,1.11-.13,2.47-1.8,2.63-1.82.51-.08,2.43.48,2.89.35.37-.1-.04-1.93,2.19.1l-.48-2.45,1.71.97c.88-.98,1.36-1.77,2.7-.97v-1.48s2.95,0,2.95,0l-.5-.97c1.16-.15,2.6.22,3.7,0,1.25-.24,1-1.4,1.55-1.51,1.63-.32,6.19.05,7.63-.5.44-.17.38-.91.69-.97.91-.16,1.7.52,2.34.52.29,0,.23-.99,1.21-1.27,2.75-.79,7.92.54,10.49,1.76.36.17.41.6.36.96l.48-.97h.97c.07,1.59,1.12,1.38,2.4,1.56l.14,1.27c3.62-.55,5.39,4.53,6.44,5.39.64.53,1.78-.6.97.98l3.7,5.41c-1.12-.03-.76,1.32-.93,1.48-.51.46-2.33-.66-2.63,1.01l-1.24-.43c-.09.09.39,2.31.51,2.55.92,1.76,3.42,4.44,4.33,6.07.88,1.57.99,3.41.53,5.11l-3.67-.98c-.24,1.72-2.22-.05-2.59,1.78-.19.93,3.92,7.77,4.22,9.86.12.82.13,1.1-.68,1.56-1.87-1.16-1.67.56-1.93.56-.73-.02-1.04-.77-1.54-.87-.67-.13-1.89.48-2.9.42-.84-.05-.74-.86-.82-.87-1.1-.24-4.18.84-5.42,1.33-.34.14-.38.81-.45.84-.52.2-.76-1.03-2.15.74-1.06,1.34-2.92,2.54-3.98,3.97-.26.35-.08,1.1-.2,1.21-.33.3-1.81-.07-2.57.09-.32.07-.34.75-.46.8-.22.08-.58-.24-.72-.14-.96.72-1.35,1.2-.62,2.27-2.75.13-6.47,4.94-8.46,5.8-.49.21-.88-.38-1.35-.4v1.48c-1.76-1.34-1.93,1.24-2.82,1.44-1.18.26-2.48-.07-3.88.43-.69.25-.68.98-1.01,1.05-1.03.22-2.31-.22-3.24,0-.53.13-.46,2.07-2.96,1.48-.43-.1-.14-1.38-1.55-.99-.19.05-.19.96-.56,1.01-1.11.14-3.51-.81-3.85-.8-.24,0-3.82,1.11-4.41,1.07-1.01-.08-3.14-1.16-4.45-1.19-.11,0-.48,1.41-1.69.91l.98.97c-1.88-.22-1.04,2.7-1.77,3.45-.69.7-2.5.92-2.99,1.6-.36.5-.27,1.35-.64,1.96-.26.43-1.42.49-.98,1.83l-1.67-.54-.56,1.05-1.42-.54-1,1c-1.03-1-1.98-2.53-3.08-3.41-2.12-1.7-6.11-3.84-8.16-4.53-1.3-.44-4.66.16-4.71-1.86l-.48,1.47-2.23-.06c-1.14.95-.56,2.84-.18,4.09.51,1.65,1.97,6.09,1.9,7.99-.02.66-.9,1.14-.76,1.74.26,1.15,2.56,2.01.28,2.67l.02.72.97.99h-1.48c.67,1.09.63,3.56.02,4.59-.08.14-2.03,1.02-2.34,1.89-.12.35.38.79.36,1.07-.03.32-1.84.23-.48,2.26l-2.47.74-.03,1.19-1.43.04c1.31,2.91-2.3,5.03-3.44,7.34h-.96c-.06-1.95-2.1-.93-3.44-.97l.94,1.64c-.06.31-2.46,2.99-2.96,3.42-1.05.91-2.88.45-1.91,2.78l-1.24-.43-.53.93-1.61-.05-.59-2.35c-1.15-.77-5.18,2.04-3.87,3.86h-3.44c.76,3.23-3.64,2.89-5.88,3.43-.71-1.43-.07-3.4-.26-4.49-.21-1.23-1.4-3-1.67-3.67-.08-.19.35-.81.19-1.18-.06-.15-2.17-2.19-2.3-2.27s-1.37-.05-2.22-.49c-.6-.31-.65-1.04-.71-1.06-.65-.28-4.34,1.58-3.84-1.55l-.73.97c-2.13-.93-4.59-3.17-6.86-2.44l-.26-1.48c-.93.15-.09,1.46-1.71.99-.17-.05-.19-.9-.55-.99-.4-.1-1.41.5-2.26.3-1.84-.42-5.18-1.56-6.5-2.76l-.32.86-.9-.38v1.97s-1.23-1.47-1.23-1.47c-.77.71-2.15,1.36-2.44,2.47-.04.15-.27,2.97-.26,3.13.02.35.77.24.86.53.14.45-.25,1.43.6,1.97l-.97.72,1.92.05.13,1.34,1.31.13.11,1.89,1.36.08.06,1.19.94-.19.11,1.84c2.69-.5,2.18,4.25,2.42,4.43.37.28,3.33,1.57,3.68,1.99.32.38-.14,1.3.06,1.85.31.87,1.77.24.65,3.06l1.47.26-.48,1.47,1.45.24-.98.72.5,1.24,1.46-.5.5,3.93c1.98-.71,2.12,1.35.97,2.93l1.76.46-.23,2.28c1.62.35.2,2.41,1.9,2.19l-1.46.97c1.18.03,1.88-.41.97.98h1.48c-.77,1.8.05,2.92,1.96,2.95l-.49,2.94.97-.5c.81,1.78-.87,2.54-.89,2.69-.11.85.6,3.12.41,4.18l1.47-.49c-.66,2.76,1.26,4.24,1.98,6.61l-1,.26,1.44,1.93-.92.33c.56,1.14.27,1.54-1,1.66l1.47.97-1.46.24.61,1.63c2.51-.63.05,3.91,2.32,2.54.1,1.42-.83,1.54-1.88,1.08-.4,1.19-1.08,2.47-1.54,3.6-.56,1.37,1.09-.05.98.49l-.99,1.71c2.26-.58,1.13,2.01,2.94,1.98l-1.95,1.47.07.92.95.31c.09,1.41-1.53,1.79-1.52,1.96.04.69.87,1.19,1,1.98.25,1.44-.13,3.67-1.97,3.16l1.47.49c-.49,1.36-2.57,2.29-.49,3.17-2.19,1.9.82,4.25-.74,6.15l-.73-.98.49,1.95-7.84.99.93.52-.44,1.14c1.52.54.54,1.08.81,1.76.44,1.12,1.29,2.05,1.66,3.19-1.32.32-.57.94-.7,1.1-1.24,1.58-2.94.17-3.25,2.59l1.46-.49c.47,1.29-.88.82-.99,1.28-.49,2.03,2.03,2.22,2.47,4.1l-4.42,1.48.45,1.89-1.45,1.28,1.01,2.7-1.76.47.29,1.49h-1.48s.49,3.93.49,3.93l-.97-.5c-.13.2.46,2.97.38,3.69-.03.29-.75.19-.77.47-.03.54.11,3.72.24,4.06.39,1,2.91,2.23,1.61,3.55.25.23,3.2-.2,4.08.01.38.09.32.93.66.99.91.16,3.79-.58,5.29-.46.92.07,1.77,1.21,3.21.44v1.48c1.31-1.13,2.36-.85,3.93-.5l-.5-.97c2.33-.89,2.56,1.15,3.24,1.37.89.29,4.25-.83,5.64-.66,1.43.17,1.41,1.12,1.76,1.22.95.27,2.21-.94,2.84-.97.45-.02.26,1.16,1.03,1.4.32.1,1.1-.29,1.69-.17,2.93.63,5.56.97,7.8,3,.54.5.34,1.35,1.02,1.18v-.98s.98,0,.98,0l.12.87c3.2-.35,4.36,3.93,6.92,5.85.83.62,1.81-.74.81,1.61,1.53-.41,1.26,1.41,2.45.49-.98,2.41,1.12,2.43,2.02,4.16,1.16,2.23,1.92,7.36,3.02,8.97.13.19.59.15.85.12l-.98,1.46h1.47c.4,1.3-.72.79-.97,1.33-.3.65-.19,1.64-.51,2.22-.36.65-1.85.81-1.47,2.34-1.38-1.48-1.58-.23-2.19-.2-1,.03-2.73-.98-2.22-2.25-1.46,1.56-1.54.11-2.6.12-2.92.02-1.5,3.17-3.01,4.62-3.28.4-6.35-2.58-9.08-3.05-1.24-.22-2.83.3-3.18.21-.58-.15-.59-1.11-.84-1.29-.13-.09-2.86-.23-2.67.91l-1.58-.41-.35.9-4.15-1.02v1.97s-5.64-1.48-5.64-1.48l-.25,1.48-2.21-1.47-1.56,1.5c-1.83-.75-5.83.87-6.04-1.5h-.47c.09,1.48-1.96,1.46-2.95.98l-.25,1.97c-1.37-1.04-2.49-2.34-4.4-1.47l-.26-1.48-.98,1.47c-1.51-2.44-2.3-.81-4.16-.57-.7.09-1.41-.35-2.05-.28-1.2.12-3,1.63-4.33-.12l-.49.98c-.83-2.43-3.8,1.14-4.91-.99-.4,2.13-2.93.1-3.92.17-.71.05-1.38,1.96-1.96-.18-1.61,2.3-3.75.29-4.93.19-.57-.05-3.02,1.64-3.18-.68l-.79,1.02c-1.41-.26-2-.59-3.12.45v-1.48c-1.45-.34-.69,1.29-2.21,1.28-1.32-.01-1.23-1.41-1.47-1.27l-.75,1.47-.98-1.47-.76,1.01-2.94-.87-1.44,1.78c-1.15-1.43-4.44,1.14-5.4-1.44-.39-.04-.47,1.94-1.71,1.47l-.74-1.46c-1.02,1.16-3.02,1.74-3.44-.01l-.25,1.48c-1.62-.12-2.35-1.85-3.68-.01-.53.06-.22-3.37-1.45-.48-1.78-1.92-5.79-.08-6.16-2.45l-1.7,1.47c-1.5-2.4-4.76-1.24-5.73-4.33l-.65.29-.26-1.35-.49.98-1.06-1.37-.88.39c.33-1.7-1.57-1.18-.61-2.86l-.89-.36.51-1.18-1.43-.04c.63-2-1.32-2.11-1.49-2.71-.19-.66.49-1.39.47-1.88,0-.15-1.49-1.45-1.66-1.87-.43-1.09.63-3.38-1.31-4.56-1.17-.72-2.21,1.25-2.72-.72-1.93.24-8.28.8-9.68.01-.28-.16-.32-.82-.46-.89-.41-.21-1.31.73-1.85-.35l.98-1.46-.73-.73-.73.98-.02-1.72c3.28-.77.84-1.02.48-1.56-1.21-1.79.34-6.67,0-7.68-.07-.23-1.41-2.38-1.43-2.57-.03-.3.42-.87.29-1.35-.75-2.81-1.42-1.6-1.99-2.24-.31-.35-.3-2.33-.39-2.41-1.16-1.1-3.84-1.59-4.11-3.41-.66.06-1.3.14-1.97,0-1.38-.28-5.04-1.83-4.61-.11h-.97s-.21-.95-.21-.95l-2.68.9c-.03-.66-.9-1.32-.97-1.76-.17-1.09,2.17-1.07-1.05-2.86-.32-1.02.73-.54.86-.97.37-1.21-.09-3.46.1-4.34.08-.37.98-.28.99-.61.1-2.13-.96-2.79-.99-2.97-.21-1.27,1.37-4.05-.48-4.35l.04-.71c1.89-.25,1.18-1.54-.54-1.81l-.17-3.14-1.77-.47,1.47-1.46-1.47-.25.97-1.22-1.01-.28.53-1.41c-2.23-.74-.26-2.61-1.98-2.98v-1.23s.99.5.99.5l.23-1.99,1.73.03c-.79-1.73,3.09-4.49,3.32-5.04.19-.46-.3-1.06,0-1.68,1.05-2.16,3.29-4.61,2.57-7.02h1.48c-.43-1.31.46-4.72.99-6.02.17-.41.58-.42.96-.36l-.99-1.21c2.18-2,1.07-6.32,1.52-7.79.11-.37.9-.25.93-.62.18-2.16-.29-5.47,1-7.31l-.95-.94c1.54-1.62.71-5.52.98-7.36.23-1.55,1.39-3.46,1.19-5.19h1.72c-.52-2.34.68-3.25,2.95-3.42l-.35.88.87.35c-.73,2.23-1.36,6.96-1.04,9.34.24,1.74,1.66,1.94,1.49,3.65l-1.46-.25,1.47,3.69,1.23-.49.24,1.46c.8.21.24-.85.79-.99.38-.09,1.83-.28,1.65.5-1.82-.05-.58.2-.48.72.22,1.17.33,2.24.06,3.41l-1.53.29.98,1.46c-2.38.23-1.34,1.72-1.79,2.82-.69,1.67-.65,2.29-1.19,3.66-.35.89-1.97,1.61-.94,3.83h-1.47c1.78,1.66.09,2.97.13,3.69,0,.14,1.37,2.08,1.83,2.2l.5-2.94,1.46.49.06-1.93c2.19.42,1.09-2.01,2.88-2l-.97-.97c2.97.01,1.92-2.39,4.84-2.52l.06-1.9.88.34c-.14-.98,2.86-.92,3.31-.34-.04.72.31,2.04.21,2.6-.08.39-.69.3-.81.61-.76,1.98.33,2.29.32,2.43-.02.39-1.19.55-1.35.81-.26.41.6,3.77-1.58,2.87-.08.58.28,1.2.24,1.73-.07.83-.58,4.08-.8,4.81-.11.35-2.77,2.96-.45,2.8l.03.96-.98-.24c.81,1.1-.09,2.46.1,3.31.12.51.88,1.01.88,1.1-.01.38-1.19.56-1.36.81s-.15,5.65-.09,5.94c.02.09,1.18,1.31,1.27,1.34,1.89.48,2.24-3.26,3.1-4.21.6-.66,1.67-.55,1.89-.8.32-.37,1.9-6.57,2.9-6.87l-.34-.87,1.96.49.25-1.47c1.35.81,1.9.79,1.23,2.45l1.47.25-.94.44c.58,1.32,1.05,2.56-.53,2.98,1.57,1,.28,1.73-.49,2.95l.98.25-.99.79.49,3.13-1.46-.49c.23,3.32-.76,6.8-.89,10.05-.06,1.61-.26,6.61-.15,7.85.11,1.17,1,1.76,1.07,2.93.08,1.47-1.41,1.33.95,2.47l-.75,1.72,3.69,2.45c-.51-3.32,3.75-4.81,1.96-7.85,2.12.14,2.67-2.14,2.91-3.68l1.27-.75.48.99,1.65-.9,1.08,1.17c-1.83,2.23-.09,2.52,0,3.38.15,1.58-.39,4.18-1,5.66l1.51.27c.13,2.15-.57,5.18-.02,7.25.04.16,1.39,1.96,1.43,2.11.18.6-.07,3.37-.46,4.1l1.43.02c-.64,2.07,1.31,2.31.53,3.4l2.46.51-.49.97h3.93s-.98-1.46-.98-1.46h1.48c-1.42-1.51-.25-2-.22-2.7.03-1.02-.45-3.14-.52-4.21-.14-2.14,1.71-2.41,1.71-2.65-1.73-1.21-.26-2.14.01-3.68l.48.98,1.91-.43c1.77,1.84,1.11,3.27,1.52,5,.12.51,1.16.46,1.41,1.15.22.6-.33,1.99-.16,2.84.28,1.45,2,3.63,1.21,5.18h1.48c-1.22,2.78.21,2.22,1.18,3.48.4.52.42,1.25,1.01,1.95s1.91-.12.74,1.92c1.43-.33,1.54.83,2.16,1.32.54.43,1.67-.3,1.3,1.63l.95-.47,1,3.42c2.29-1.05,2.32.87,3.06,1.38.37.25,2.46-.85,2.35,1.05,2.02.15,1.22-2.3,2.43-3.18l-1.96-.25c1.43-1.44.99-2.98-.98-3.44l1.46-.98-.98-.49.98-.73-1.47-.75v-.73c1.81-1.71,1.33-2.7,4.41-1.71l-.49,1.47,1.47-.49-.49,1.47h1.48s-.49,1.96-.49,1.96c1.69-.62,2.41,2.6,3.28,3.47.64.63,2.09.61,2.39.91.63.64.54,1.58.83,1.87.16.16,3.89,1.94,4.11,1.97.58.06,1.08-.36,1.64-.37v-.73s-.98-.47-.98-.47c1.41-1.55.37-2.25.17-3.52-.16-.99,1.18-1.16-1.04-1.24-1-1.78.64-3.62-1-5.08.7-1.32,1.97-1.33,3.34-1.21l-.5.97h2.46s-.36.88-.36.88l1.85,1.41-.52,1.64,2.41.02.5,1.72,2.49.23-.49,1.47c2.04.57,2.5-2.33.96-2.7l.99-1.71-.84-.1-.63-1.87,1.46.5.74-1.96,1.07.91,1.39-.91,2.69,2.44c.83-1.6.08-3.88-.77-5.37-.39-.68-1.76-.03-.81-1.9l-.88-.37.43-1.12c-1.59-.25-.61-1.36-1.91-1.81l.5-1.18-2.25.44-.21-.93h-.97s-.1.83-.1.83l-2.12.64-.73-.99-.24.97-2.18-1.04c.79-1.6-.57-1.75-.91-2.74-.72-2.07.59-1.98.71-2.24.21-.44.63-1.07.64-1.15.1-.66-.47-2.6.03-3.62-1.25.1-2.38.09-3.2-.97l-2.94,2.93-.73-.98c-.08,2.87-1.15,1.59-2.71,1.57-1.14-.02-1.41,1.09-2-.63l-1.89.56-.28-1.01c-1.15,1.13-1.96.55-3.42.48l.5-.97h-1.97s.5-.97.5-.97c-2.78-.41-4.1-3.15-3.84-5.79l5.31-2.08c.39-1.54-1.25-.45-.98-1.7l1.02-.5c-.18-2.37-2.05-1.25-2.45-2.99l.95-1.17c-.89.26-3.72-1.61-3.85-2.25-.11-.53.48-1.25.44-1.86-.02-.26-.76-.18-1.06-1.03-.1-.29-.46-3.17-.4-3.38.11-.42,1.36-.13.46-1.29l1.39-.1.08-1.39h.73c.69,1.73,3.4,2.02,4.06,2.57.57.48.39,1.95.65,2.31.07.09,1.15-.36,2.28.36.78.49.58,1.09.64,1.12.2.11,3.32-1.5,4.39-.96l-.49,1.47c2.01-2.47,3.23-.95,5.11-.97.16,0,2.02-1.97,2.39-2.15.67-.32,1.99.03,2.8-.32-.28-1.98-2.17-3.26-3.88-3.97l.45-1.42c-1.52,1.27-3.44-1.4-3.65-1.41-1.05-.02-2.02,1.55-1.74-1.04l-.73.98-.28-.94-1.15.45-.36-.88-1.34.36c-.52-1.27-.81-2.73-2.47-2.46-1.29-1.45,3.48-5.41,5.36-4.39l-.49-1.46c.99-.15,1.27.83,2.25.98.2.03,3.61.05,3.8.01.38-.08.3-.94.66-1.01.98-.18,3.37.76,4.26.44,1-.36.46-2.26,3.75-.91.3-2.81.02-1.88-1.27-2.66-1.27-.77-2.69-.73-3.96-1.42-.27-.15-2.1-2.11-2.48-2.26-1.45-.54-10.55-1.8-11.66-1.4-.27.1-.2.8-.57.88-1.33.27-2.33-.17-3.11-1.23l1.03-.53-.54-1.67,2.46-.5-.49-1.46h2.45s-.5-.98-.5-.98c1.72.35,1.18-1.6,2.89-.58l.06-.88h.98s.49.97.49.97c-.48-2.51,1.75-1.33,2.71-1.57.38-.1-.05-1.53,1.7-.39l-.49-1.47,2.45.98v-1.48s1.47.5,1.47.5v-1.48s1.46.98,1.46.98c-.2-1.27.82-.72,1.48-1.22-1.28-1.89-3.99-2.19-6.14-2.44-.88-.1-2.38.36-2.83.25-.57-.14-.44-1.17-1.12-1.39-.42-.13-1.9.39-2.66-.1l.48.96-1.66.55-.77-1.02c-.04.41.15,1.07-.09,1.37-.33.43-7.82,2.35-8.53.61-.38-.5.55-1.73,1.25-1.49l-.97-.97c2.67-.61,2.4-1.5,2.45-3.93l1.68.49c1.21-.72.42-1.39.28-2.45l1.47.49.24-1.45,1.23.47-.98-3.43-.49,1.47c-2.18.03-4.61-1.04-5.64,1.47l-.73-.98-.74,1.47-.26-.95-.96-.02c-.91,3.03-4.26,2.06-6.14,4.4l-.73-.98v1.96c-2.29-1.23-2.63,1.06-4.06,2.26-.97.82-2.18,1.7-3.33,2.78-.48.45-2.43,1.24-2.78,1.96-.29.59.04,1.5-.21,1.77-.29.32-2.07-.13-2.02,2.9-2.88-.05-.09,3.11-2.76,2.59-.16,1.58-1.44,5.12-3.48,4.87l1,.74-1.49,2.45.97.23c-.09,1.62.36,3.6-.48,5.07-.19.32-1.01.28-1,.61,0,.52.6,1.19.53,1.85-.03.27-.66.3-.8.53-1.16,1.82-.41.61-1.58,1.32-.06.04.38,1.42-.34,1.4-.15,0-1.19-2.41-1.4-2.74-.25-.39-1.01-.43-1.23-1.01-.29-.77.54-2.27.41-2.79-.09-.35-.9-.27-.98-.66-.41-1.94.97-4.65,1.02-6.3.04-1.56-1.43-3.03.47-3.42l-.98-.25,1-2.2-1.02-.93c1.76-3.25,1.73-6.15,2.47-9.62l1.46.49-.98-1.22c.76-1.47,2.36-2.49,1.97-4.18l.96.49c-.41-1.51,1.16-1.73,1.36-2.05.44-.7-.41-6.03-2.47-4.8l-.35-1.97-.49,1.48c-1.14-.42-1.73-.63-1.47-1.97l-1.72.87-1.47-1.36-.32.91-1.16-.35c-.43,1.61-2.01-.49-2.21,1.9l-1.97-1.24,1.95-3.57c-.06-1.51-.14-1.72,1.43-1.62l-.18-.93h1.71c-.31-1.78.47-1.19,1.27-1.68,1.11-.68,2.32-1.41,4.14-1.27l-.05-1.23c1.45-.92,3.05-.02,4.12-.23.38-.07.3-.89.67-.98,1.2-.3,3.01.18,4.32-.01l-.24,1.47,4.36-.94,1.76,1.93-.25-.98h1.49s-.48-1.42-.48-1.42c4.23-1.12-.37-4.79-.09-7.35l-1.31-.14-.09-1.39-1.66.53c-.47-1.24-.96-1.15-2.26-1.02-.56-1.24.97-.86.94-1.19l-.45-1.25h2.45s0-1.97,0-1.97c1.37-.28.96.5.98,1.47.94.08,1.53-.69,2.45-.8,1.02-.12,6.66.07,7.49.34.51.16,1.39,2.01,3.3.95v1.48c2.63-1.34,2.38,1.77,2.54,1.9.24.18,3.03,1.33,3.25,1.63.36.48.12,2.12.67,2.78l1.84.13c-.11,1.52.39,1.52,1.78,1.69l1.06-1.03c-1.32-1.17.03-1.48.14-2.47.2-1.87-.97-5.67-1.47-7.59l-1.21.5-.25-.98c.54-.64,5.97-1.08,6.64-.81.62.25.56,1.04.79,1.18.15.1.84-.33,1.37-.14,1.14.4,6.78,3.48,7.52,4.17.84.78,1.97,3.7,2.53,4.77.1.19,1.33.43.76,1.85l.98-.24c-1.56,2.56,1.33,4.34,1.41,4.7.1.47-.57,1.18-.36,1.59.16.3,2.35,2.06,2.87,1.56.12-.11-.38-2.17,1.94-1.99l-.48-.95h1.48c-.93-1.48.28-2.36.37-3.26.03-.29-.66-5.59-.77-5.86-.23-.6-.4-.78-1.07-.7l.97-1.22-1.46-.75.97-1.22c-1.66-.74-1.89-1.89-1.51-3.62-2.49.22-1.55-1.95-2.01-2.44-.2-.21-1.09.11-1.42-.35-.62-.86-.39-2.97-.62-3.44-.48-.96-1.85-.06-.81-2.16-2.06.77-1.85-1.72-3.07-2.78-.09-.08-1.03.65-1.59-1.14-.7.27-1.09,2.11-1.19,2.2-.57.48-1.55.5-1.88.83-.2.19-1.16,3.31-3.18,4.2-.66.29-1.71.03-1.85.13-.14.11.81,1.57-.24,1.96l-.52-.99-1.69.3c-1.23-.69-.77-8.03-1.18-9.65l-1.76-.46.49-1.46-1.46.49-.09-3.35-1.92-.31c.4-1.96-3.46-1.68-2.51-3.11l-1.69-1c-.9-.3-.54.12-.77.55-.81,1.47-1.01,3.33-3.28,2.86l-.04,1.42h-.98s-.24-.98-.24-.98c-.88.35-.18,1.44-.25,1.47-.35.15-1.18-.34-1.72-.25-.92.14-2.87.5-2.99,1.24l-1.1-.38-.37.87c-1.5-1.07-1.06.45-1.48.52-1.4-.53-4.2-.04-4.11-1.99l1.47.24c-1.28-1.92.77-3,.89-3.29.18-.44-.41-.89-.27-1.28.04-.1,1.19-1.15,1.21-1.3.16-1.21.18-2.77-1.34-2.71l1.47-.97c-2.66.18-1.66-1.69-2.21-3.45l-2.21.5c1.58,1.96-2.25,5.01-2.3,5.64-.01.14,1.08,1.7.34,2.7l-1.47-.5c-.71,1.32.3,2.73-.24,3.9-.2.44-.96.81-1.19,1.34-.39.87-.35,2.28-1.16,2.96-.56.47-1.69.52-1.81.68-.14.18.77,3.61-1.73,3.36l-.25,1.5-1.46-.5c.41.49-.95,3.19-1.1,3.32-.73.62-1.93-.81-.86,1.58-2.21-.31-2.65,4.18-5.4,3.94l.49.96c-2.06-.54-1.53,2.38-3.43,1.48l.49,1.47-2.01.23.05,1.24-1.47-.49c.32,3.36-4.52,1.9-3.93,4.42l-1.47-.5-.29,1.53c-1.36-.1-2.49.55-3.47.76-.5.11-1.02-.34-1.33-.31-.36.03-.24.89-.6.95-.16.03-2.22-.29-2.4-.44-2.22-1.79,1.19-1.99,1.62-2.62.49-.72-.68-1.77,2.07-1.33-.61-.94,2.02-3.84,2.94-3.44-.81-.85,1.62-2.63,2.32-3.56.02-1.44.63-2.45,2.09-2.82l-.98-.73c1.41-.73.62-3.37,1.12-4.37.39-.77,1.15-.68,1.27-.85.13-.18-.51-1.06-.46-1.6.03-.32.89-.22,1.01-.65.16-.6-.21-1.45.11-2.02.15-.27,1.14-.28,1.23-.79.08-.46-.26-8.82-.37-9.27-.1-.41-1-.16-1.03-1.05-.09-3.01.38-5.55-.48-8.78-.14-.54-.93-.08-.94-.56v-.73s.99,0,.99,0l-.98-1.46c2.92-.63-.34-.79-.47-1.24-.63-2.13,1.13-1.11.96-2.68l-1.47.49.98-1.95-1.89-.8c-.05-.67.35-1.35.29-1.99-.15-1.84-1.09-4.07-1.29-5.83-.17-1.42.51-3.17.43-4.63h-1.96s.25.98.25.98l-1.68.06c.37,2.2-1.58,1.35-2.37,2.02-.94.79.35,3.1-2.56,2.35.06.99,1.43-.05.97,1.46l-.98.25c1.88.56,1.22,1.49-.49,1.23l.49,1.46h-1.97s.4-1.18.4-1.18c-.13-.56-1.1-.58-1.53-1.4-.63-1.18.81-3.12-.82-2.82l.97-1.46h-1.48c1.15-1.56.48-3.41.67-5.28.35-3.5,1.6-12.18,3.06-14.8.83-1.5,2.88-.79,1.67-3.96-.89.66-1.92-.31-2.19-.29-.69.04-1.51,1.6-2.69.79l-.02,1.47-1.47-.49.26,1c-.25.51-1.17-.07-1.49.44-.34.54-1.04,3.14-1.27,3.57-.74,1.43-2.47,1.72-1.44,3.81h-1.95c.26-1.41-.48-1.54-1.48-2.21l1-.49c-1.39-2.08-1.86-5.01-.5-7.11l-1.5-.32c-.46-1.54-.23-2.88-.25-4.37,0-.51.25-6,.38-6.31.11-.27,2.05-2.2,2.31-2.67.69-1.24.91-2.12.52-3.51l.97.5v-1.49s.98.5.98.5c-.27-2.7.97-1.67,1.84-2.61.12-.13.1-.72.32-1.11.24-.42,1.31.02.28-1.67,1.91.39,1.19-.67,1.64-1.31.25-.36,1.01.12.82-.65l-1.35-.36-.39.87-2.17-.52v1.47s-1.96-.98-1.96-.98c.44,2.01-.99,1.26-1.76,1.92-.65.55-.47,1.48-.85,1.88-.1.11-2.07,1.16-2.3,1.1l-.25-.98c-.82,3.01-2.76-1.85-.74-1.48-1.6-1.89-.65-5.78.5-7.6l-.98-.48c1.28-1.02-.26-2.11,1.96-1.73l-.98-.49v-.97c1.48.2.46-.87.95-1.62.39-.6,1.63.08.52-1.81l1.47.49c.5-1.8,1.35-5.62,3.43-5.42-1.03-1.34,1.7-2.44,1.97-2.79.7-.91,1.45-3.53-.26-3.58l-.48,1.01-2.69-1,.49,1.46-1.22-.98-.79,1.45-1.41-.48-1.1,2.35-1.81-.45c.31-.78-.14-2.59.03-3.05.27-.74,1.21-.68,1.34-.87.11-.15-.59-2.71-.22-3.65.24-.61.96-.56,1.13-.8.15-.21-.23-1.92.29-2.72.19-.3.94-.3,1.21-.92.17-.39-.18-2,.13-2.65l.97.5c-.42-2.1,1.59-1.66,2.03-2.28.37-.51-.09-1.55-.02-1.6.2-.15,1.22-.13,1.77-.44,2.23-1.24,6.34-3.68,3.98-6.35-1.34.16-2.23.34-3.33-.62l-.04,1.44-.97-.22-.47,1.37c-2.24,1.42-1.23-1.42-2.41-2.35l1.92-1.47-.98-.48c.93-1.25.9-2.92,2.94-2.71l-.98-1.22c.78-.92,2.19-1.22,2.96-2.11.92-1.07.48-2.3.7-2.56.37-.44,3.4-2.44,4.19-1.97l.24-1.41,1.23.44c-.61-1.31.27-1.58,1.39-2.04l-.41-.88c2.2.29,1.57-1.26,2.04-1.89.07-.09.78.36,1.15-.05.53-.59.67-3,2.2-2,.11.07.44,2.3.41,2.69-.22,2.58-1.88,5.34-2.66,7.36-.2.52.38,1.8.31,2.44l-1.48.26.97.97-1.02.31c.45.86.26,4.47-.21,5.09-.29.39-1.05.41-1.16.56-.19.26,1.41,2.16-.55,1.91l.98,1.45-1.24.47c.72,1.57-.67,1.58-.66,1.72,0,.83.82,2.05.44,3.4-.1.35-2.53.59.02,1.57-.95,1.45-.17,2.61-.15,3.92.05,3.15-.67,7.8-.34,10.73.15,1.29,2.34,4.79.43,4.97,1,2.2,1.07,5.09,1.63,7.2.22.82,1.13,1.34,1.26,2.2.18,1.2-1.25,2.17,1.02,2.67-.97,2.24.18,1.59.48,2.29,1.1,2.63,2.07,8.12,3.14,9.81.26.4,1.64-.57-.15,1.56l1.44.03.1,2.4,1.36.06.11,1.9,1.36.07c-.31,2.72.8,1.54,1.4,2.05.3.26,1.32,2.3.63,2.82l1-.27.47,1.75,1.46-.5-.49,1.96,1.38.1.2,1.28,1.38.1c-1.24,1.53,2.16,3.74,3.43,2.94l.02,1.95c2.3-.4,2.48,2.18,4.89,1.98.44-1.78-.96-2.03-1.17-2.44-.7-1.37.47-2.29-2.76-2.47l.49-1.46c-.7-.14-2.52.27-2.88-.09-.11-.11,0-.77-.25-1.17-.9-1.49-.52-1.87-.89-2.57-.22-.4-1.79-.36-1.37-1.56l.98-.48c-2.97-.55-.84-2.58-.68-3.79.18-1.29-.55-4.78,1.16-4.57v-.48s-2.45-.98-2.45-.98l-.49,1.96-.26-1.48c-1.06-.38-.56.98-1,1.01-.31.02-2.12-.5-2.51-.7-.82-.41-.91-2.31-2.12-1.29l.96-1.74-.97-.95c1.36-1.11.59-3.48.99-5.16l.97.5-.04-.95c-1.54.18-.65-1.45-1-1.92l-3.8-.63c.17-1.07-1.05-3.64-1.07-4.09-.01-.38.76-.16.89-.48.48-1.16-1.28-3.18.62-3.48l-.53-1.44,1.48-.26c.19-.89-.82-.31-.98-.49s1.84-1.97.96-4.55c-.2-.58-1.39,0-.96-1.33l1.96-.49h-5.39s1.47-.98,1.47-.98c-.93.27-2.49-.03-2.44-1.23.04-.85,1.42-.18,1.46-.24.66-1.1-.97-.93-.98-1.27-.03-.74,1.01-1.56-.48-2.41l1.36-.95-.43-1.44,1.02-.31-.98-.73c2.66-.86,1.65-1.74,2.65-3.75,1.42-2.88,2.87-5.2,4.61-8.13.95-1.59.37-3.81,2.55-2.6v-1.7c.71-.95,3.17.68,1.02.93.73,1.52.56,3.59.24,5.21-.32,1.62-2.76,4.39-.79,4.61-.45,1.02-.96,2.39-.98,3.49-.04,2.06,1.94,3.9.01,4.38.79,2.19,1.24,2,3.43,2.21l-.49-2.45c2.23.51,2.18-2.16,2.79-2.47.53-.27,1.51-.19,2.23-.51.35-.16.36-.75.62-.83.61-.2,2.41.47,3.18.38l-2.46,7.35-1.47-.49c.78,1.03.9,1.17.49,2.45l-.97-.5c.65,2.54-1.64,5.17-.49,8.05l-.97.3c1.29,1.32-.16,2.92.49,4.9.51-1.15,2.19-1.44,2.49-1.79.34-.41,1.42-2.82,1.77-3.13.79-.71,3.51-2.22,4.35-.99,1.03,1.79-.34,3.47-.52,4.68s1.18,2.48-.73,2.95l.98,1.22-.91.23.34,1.14-.92.37.54,1.42-1.03.52c1.81,1.9-.08,3.7.05,5.43.09,1.19,1.9,1.47.94,3.15l2-.21c.21-1.87.91-1.88,1.61-2.8.28-.37.22-1.06.43-1.28.75-.78,2.72.7,3.29-2.36l1.21-.24,1.24,1.02c.44,1.31-.75.68-1.1,1.57-.5,3.6.03,8.28-1.32,11.41l.89.47-.29,2.91c.32,1.06,1.88.86,2.81.74l.04-1.43.96.49c.73-4.77,6.08-2.99,4.81,1.24-.09.31-.81.19-.86.54-.17,1.16.55,8.05,1.13,8.91.28.42,1.9.89,2.29,2.32l-.98.73h1.48s-.43,1.24-.43,1.24c1.58,2.14,1.84,2.4,4.34.72l-1.46-.49c-.21-.82.89-.2,1.01-.8.37-1.83-2.25-5.69,2.57-4.6.73,1.9,2.52,3.09,4.03,4.44.66.59,2.83,1.1.24,1.47,1.25,1.51,1.22,1.92,0,3.42,2.24-.99,1.71.83,2.73,1.94,1.09,1.2,2.95,2.87,4.29,3.48.64.3-.33.77-.15.95.82.82,1.87-2.22,2.45-2.21l-1.96-1.22,1.53-.3c-.34-3.85,1.07-5.49,3.7-2,.7.93.62,2.3,2.18,3.46,2.24,1.65,3.93,2.94,6.51,4.31.62.33,1.05.93,1.55,1.4l.26-.95.95-.03,1.72,1.96v-1.37s-.99-.1-.99-.1l-.72-2.22.97-.73c-1.57.23-.76-1.17-1-2.18-.21-.89-.75-2.63-.68-3.44s.09-2.93.99-3.16c.35-.09,2.56.61,2.96.91.91.7.07,1.36.3,1.86.27.58,3.34,2.72,2.86,4.03h2.6s.35,1.44.35,1.44l3.89-.44c-.1-1.08-1.69-.78-1.93-1.03-.16-.17.5-2.2.16-2.9-.27-.57-1.87-2.4-2.6-2.49l1.23-2.93c2.48-.53,2.58,2.15,5.11,2l-.49.97,3.88.57.3,1.43,3.66-.53-1.47-.98.97-.72-1.95-2.46c2-1.79-1.21-4.68,3.18-4.2l.29,1.44c3.3-.57,2.96,4.27,5.84,3.5.11-1.43-.65-2.77.98-3.19-2.37-1.08-.24-3.41-1.96-3.2l.98-1.45c-1.52-.06-1.59-1.13-1.48-2.46l-.49.98c-1.06-.26-.85-1.02-.61-1.88l-4.29-4.26.98-.72c-1.67.04-1.01-1.22-1.13-1.38-.63-.88-2.1-.05-.34-2.05l-.88-.11c.74-1.97-.92-1.52-1.44-2.65-.21-.46.06-2.53.36-3.12l-1.94-.55-.03-6.81h-1.47c.8-2.65,2.08-6.28,0-8.59,2.32-1.08,1.1-1.25,1.09-2.95,0-1.38.84-4.15-.63-4.44.27-4.88,2.33-10.36.08-14.16.6-1.04.31-2.24.56-3.35.22-1,1.91-1.36-.14-2.16.59-3.03-.59-6.61-.53-8.77l-.91-.24.33-.99,1.13-.47c-1.79-.11-1.54-1.53-1.48-2.95l-1.46-.25,1.47-.49-2.94-2.2c1.04,1.5-.92,2.74,1,3.19-.94,3.31-2.41,3.42-5.41,2.69-.11,1.19-.59,3.16-.12,4.28.1.23,1.61,2.85,1.74,2.96.56.48,2.93,1.56,2.36,3.03l1.41.04-.49,2.45,1.46-.49c-1.1,3.48-1.03,6.59-.49,10.3-1.87-.78-5.45.82-6.13-.98-3.2,2.09-.97,5.88.26,8.58l-.96.45c1.21,2.33.11,4.37-.4,6.55-.2.83.68,1.61-.63,2.25-.26.13-.82-.18-.91-.07-.06.08-.97,1.6-1,1.7-.09.24.7.79-.05,1.38-.16.13-.93-.48-1.26.75l-1.18-.5v1.96s-1.47-.98-1.47-.98c-.09,1.93-2.08,1.18-3.44.97l.98-.73-1.48-.25.98-.98-1.44-1.21.94-3.2-1.71,1.47-.5-.99-.49.99-1.22-1.47c.56,1.49-1.41,2.57-1.46,2.77-.12.47.57,1.79.44,2.28-.08.32-2.08,2.15-2.16,2.29-.1.18-.73,3.16-.99,3.48-.23.29-3.75.94-3.69,2.9l-.97-1.46c-.2,1.42-.38,2.25-1.97,1.96l.47.95c-1.28.41-4.69,1.25-5.25-.28l.38-3.37-.98.24c-.7-1.59,1.5-2.56,1.5-2.73,0-.12-.58-2.3-.63-2.42-.19-.39-.79-.41-1.04-.81-.55-.89-1.07-1.51-1.31-2.14l.98-.74-1.97.25.44,1.16c-.37.14-.93.22-1.14.55-.51.81-.99,4.69-2.24,1.47h-.48c-.13,2.1-2.26,4.04-4.18,1.96l-.53.98c-2.11-1.31-5.13.31-6.82-.09-.15-.04-.86-1.66-2.7-.89-.52-2.76.82-5.34,3.43-6.38l-.07-.92-.89-.75,1.45-1.74-.99-.3c1.16-1.47-.85-1.18-1.16-2.63-.18-.83.28-1.65.18-2.48l-.49,1.48-1.39-.46c-.46,1.43-2.1,1.21-2.82,2.91l-2.89-1.48-.48.98c-2.2-.84-1.23-1.76-1.31-1.88-1.16-1.61-1.06.55-1.61-3.03-.17-1.07-1.9-1.94.72-2.46-1.33-1.21-.75-2.4.2-3.74.19-.27.75-.15.77-.19.09-.16-1.42-2.38-.97-3.41l1.47-.5h-2.11s-1.81-1.72-1.81-1.72l1.48-.25c.29-1.43-.96-2.15-.99-2.29-.22-1.03.62-3.51-.43-4.85,1.41-.95,1.85-3.41,1.41-5.6l1.92-.05c-.32-3.27,3.15-2.94,2.01-5.84l1.46.5c-.06-1.23,2.12-3.95,3.38-3.52,0-1.89,2.28-2.6,3.98-1.88v-1.48s.88.34.88.34l.38-.85,1.42.54.5-1.01c1.7,1.56,4.67-.87,7.12-.49l.26,1.47c.48-.51,2.02-.04,2.12-.11.25-.17.78-2.31,1.95-.75.67.9-.86,1.39,2.53,1.35l-.98.97c1.28-.16,3,.31,2.94,1.96-1.57-.43-2.54,1.51-2.7,1.5-.81-.06-2.55-1.26-4.35-.97-.45,1.21-.91.53-1.13.66-1.35.79-1.77,2.55-3.58,1.28.74,2.49-2.08,1.76-.99,3.92l-1.47-.25c-.78.49.12,1.13-.11,1.59-.28.57-1.59,2.77-1.71,3.21-.2.71.47,1.51-.63,2.08l.98.48-.98,2.7c3.86,1.36,4.24-6.63,7.84-3.92l.74-.97c1.75,1.29.47,2.52.51,3.45.1,2.15.75,4.61.3,6.63l.91.22-.97.73.99,1.72,1.46-.98v2.94s2.95,0,2.95,0l-.49,1.47c4.72-.44,1.99-.94,1.93-1.29-.11-.57.33-1.29.25-1.91-.2-1.52-1.13-6.07-.68-7.2.2-.5,1.36-.22.45-1.36,3.17-1.31,5.33,1.24,5.9,4.41l.97-.5c0,3.18,1.09,2.04,2.84,2.79.97.42.51,1.88,3.54.64l-1.48-.74,2.1-6.48c1.98-1.14,4.27.59,5.97-1.17.36-.37.08-1.68,1.25-1.43v-.47c-1.91-.21-1.21-4.18-1.57-5.66-.06-.25-.73-.19-.79-.31-.31-.62,1.23-1.64-.57-1.4l1.46-.97-1.57-1.37-.88.38-.49-4.41h-1.97s1.47-.5,1.47-.5l-.52-1.44-.95.47v-1.97s-.98.49-.98.49c-.22-.41-.04-1.57-.11-1.71-.64-1.25-1.88-1.74-2.76-2.27-.11-.06.8-1.32-1.32-1.4l.25-1.46c-3.22.16-1.76-2.85-1.95-2.97-.22-.15-1.3.22-1.87-.1-.27-.16-.7-1.66-1.24-2.19-.13-.13-2.32-1.87-2.46-1.95-1.18-.72-4.19-.48-3.27-2.62-.98-.13-2.18.21-3.1-.01-.35-.08-.35-.8-.47-.85-2.29-.79-3.88-1.12-6.12-.73-2.41.42-3.02-1.62-3.8-1.7-.3-.03-2.98.96-3.44,1.31-1.53.14.7-1.45-1.21-.96l-.06.88-1.12-.41-.55,1.01-2.19-1c0,1.67-3.54,1.33-4.78,1.79-.09.03-1.26.73-1.46.84-.91.5-1.82,2.43-2.85,1.3l-.24,1.45c-.77.21-.28-1.83-1.47-.97-.33.24,1.32.8-.14.82-.21,0-.51-.38-.74-.22-.08.06-.08.51-.29.65-1.72,1.16-.91.91-1.76,1.81-2.16,2.29-5.17,5.96-8.29,6.22-.39-.59.18-5.81.38-6.05.44-.54,1.18-.15,1.46-.35.08-.06-.29-.73-.11-.94.71-.86,1.95-.92,1.66-2.94l1.46.49-.28-1.95c1.5-.76,1.89-2.17,3.11-3.41.34-.35,3.66-3.34,3.92-3.44.46-.16,1.09.01,1.59-.02l-.49-1.46c2.48,1.11,2.43-.4,2.78-.49.78-.19,1.78.09,2.61,0l-.23-.97-.75-.26,2.95.26c-.37-1.85.57-1.19,1.29-1.65.45-.29-.24-1.67,1.41.18l.54-1.03,2.16.53c.2-1.26-1.41-1.71-2.34-1.85-1.31-.2-1.26,1.14-2.3-1.04-2.66,1.78-4.16-.32-3.21-2.99l1.47.49-.49-.97c2.11.3,2.97-1.51,3.83-1.97,1.02-.55,4.52.17,5.25-.07.22-.07.27-1.52,2.38-.91,1.23,2.87,1.41-1.9,2.56,1,2.7-.74,6,.17,8.55.97l-.45-4.63-1.42-.33c.48-1.69-1.33-2.83-1.39-2.99-.48-1.28-.31-3.69-.71-4.89-.31-.95-2.73-2.04-1.42-3.33l-2.46-.49v1.47s-3.43,0-3.43,0v-1.97s-1.38-.3-1.38-.3l.4-2.84-.98-.3v-.97s.97-.49.97-.49l-1.47-.25,1.47-1.71c-1.42.33-2.16-3.45-1.93-4.1.23-.69,1.79-.51,1.44-1.79-1.51.67-2.31-.87-.48-1.23l-1.04-.97c.85-2.54,1.75-4.9,1.03-7.61l1.46.49v-3.92s-.49,1.47-.49,1.47l-1.69-.53-1,1.01c-1.31-.45-2.17-3.45-2.14-4.68,0-.13,1.03-.25,1.18-1.65.11-.99-.44-2.03-.31-2.65.03-.14,1.92-1.89,1.92-2.03.04-.86-1.3-1.93,1.06-2.24l-.98-.48.03-.95c1.49-.04.35-2.03,2.42-1.51l-.37-.88c.8-.64,2.86-3.43,3.21-4.14.18-.35-.28-.93-.11-1.36.27-.68,1.84-1.92,2.67-1.96l-.97-1.22c.33-.82,2.19-1.01,2.37-1.31.28-.47-.15-1.52.14-1.83s1.43.71,1.67-1.5c.04-.38-.45-3.79-.55-3.96-.43-.76-3.4-3.96-3.59-4.77-.58-2.43.08-4.3-.06-6.21-.02-.32-.71-.3-.76-.41-.15-.34.19-.8-.18-1.12-.62-.53-1.96.99-2.23-.72-.86,2.53-2.1.72-3.43,1.09-.18.05-.62,1.36-1.73.87l.49,1.47-1.46-.49c.05,2.93-2.13,2.28-3.69,3.44l-.45-.97c-2.87,1.11-5.75,5.37-1,6.36l.47-.98.45.94c.9-.55,2.22-.06,2.34-1.32l.64-.1c1.09,1.66,2.43,2.38,4.16,3.2-.35.85-.33,2.31-.96,2.94-.95.96-3,.01-2.47,2.2l-1.46-.5-.47,1.74-.94-.2c.19,3.09-2.83,4.04-4.28,6.01-1.11,1.51-1.93,3.71-2.99,5.31-.33.5.63,2.42-2.1,2.36l.97.77c-.01,1.82-.49,3.64-.71,5.33-.41,3.22-.6,5.25-.26,8.8.03.35.84.25.95.61.18.61-.61,5.2-.38,5.81.13.34.95.44,1.26,1.08.44.9,1.72,4.47,2.22,4.91.32.28,1.05-.05,1.35.46.75,1.27.13,4.52-1.69,4.05-.37-.1-2.27-3.4-2.98-.94l-.78-1.43-1.43.45.5-.97c-1.74.4-1.63-1.16-2.7-2.01-1.26-1-1.1-.4-2.7-2.52-.51-.68-1.69-.54-.98-1.85-.66-.14-1.2.17-1.39.81-.07.22-.59,4.08-.58,4.3.01.3.9.25.99.59v1.36s-.96.31-.96.31l-.03.72,1.01.52-.54,1.42c1.19.21,1.43,3.33.08,3.43.79,2.5,1.37,4.94,2.01,7.41.07.26.89.19.9.51,0,.51-.63,1.26-.55,1.85.04.3,4.02,3.03,3.95,4.01l-3.17,2.19c-.9-.35-.18-1.42-.24-1.46-.2-.12-3.27.27-4.6-.47-.55-.31-.15-1.23-.37-1.42-.09-.08-1.9-.84-2.02-.89-.44-.16-2.84-.5-3.23-.06-.3.31-.48,1.72-.47,2.21.03,2.63.79,7.75.41,10.12-.06.34-.83.3-.88.39-.09.19.5,3.72-1.1,3.36l.97.73-1.96,1.73.98.49c-1.19.99.04,3.27-1.92,2.5l-.24,1.79-3.73,3.07-.53-2.18,1.01-.51c-1.94-1.49-.33-3.8-1-5.81l1-.56c-1.3-.74-.36-1.76-.58-2.81-.5-2.41-1.86-5.29-1.38-7.74h-1.48s.49-1.96.49-1.96l-1.47.49c.63-1.56.32-5.35-.97-6.18l.41-.93c-1.53-.43-.35-1.22-.66-1.74-.19-.31-1.14-.29-1.27-.8-.27-1.14.95-2.7.86-3.36-.05-.38-1.62-1.79-1.31-3.37.1-.53,1.21.12.98-1.03l-.99-.56v-1.41s1.48-.73,1.48-.73l-1.97-.26.98-3.94-1.01-.92c1.64-2.21.02-9.76.63-11.27.26-.64,1.22-.62,1.29-1.03.27-1.51-.28-5.8.2-7.71.67-2.66,3.07-5.3,2.34-8.72,1.97,1.07,1.67-1.83,1.98-2.57.19-.45.81-.37,1.05-1.06.37-1.07-.14-2.41,0-2.64.16-.28,3.51-4.13,4.17-4.95.58-.72,2.69-2.12,2.89-2.52.46-.9-1.33-1.69,1.15-1.5l-.19-.97c1.45-.6,3.17-1.62,3.21-3.39l.94.47c.29-1.48,2.05-3.73,3.06-4.79.46-.47,1.88-.5,2.34-1.35l-.98-.48c1.12-1.97,2.09-2.28,4.36-2.29l.14-1.3,1.39-.1-.48-.95,1.72-.5-.26-1c3.51.52,4.14-1.91,6.92-3.17.52-.24,1.19.21,1.33.11.23-.15.2-1.04.89-1.3.45-.17,1.74.25,2.44.27,1.02.04,2.36-1.13,2.15.65h.48c-.02-2.07,1.02-1.61,1.91-2.26.42-.3.48-1.08.9-1.19,1.19-.3,3.14.62,4.53,0l-1.02-6.51c-2.52-1.73-.12-1.45-.92-2.78,1.83.84,2.63-.96,2.79-.99.92-.19,2.57.61,3.25.36.97-.36,1.3-1.35,2.06-1.85.4-.26.94-.07,1.09-.19,1.71-1.45,2.84-3.8,1.12-5.67l1.47.49-.49-1.47c2.18.45,2.21-4.48,4.66-.98l.25-.98h.97s.31,1.01.31,1.01c3.51-1.28,3.06,1.63,6.67.81C247.42,2.31,250.95,0,252.37,0c.34,0,2.93.82,3.03.94ZM371.47,86.47c-1.29-1.26-3.41-2.95-4.44-.76l-1.18-.5c.53,1.13-.95,1.58-.96,1.79-.04.75.91,1.56-.51,2.39l2.44.98-.98.73,3.58.53c.47-1.42,1.75-1.23,2.19-1.59.1-.08-.26-.69-.09-.9.77-1.02,2.34-.31-.07-2.67ZM270.69,154.39c1.23-2.1-1.15-3.23-2.94-3.92l.06,1.91,1.41.05-.5,1.47,1.96.5ZM401.53,182.98c-.41-.15-6.07-1.2-6.4-1.13-.13.03-1.37,1.37-2.06,1.47-1.17-2.62-1.47.74-2.93-.5l.24.99-1.96-.49-.08,1.4-1.4.08c.97,1.83.28.92-.48,1.95,1.38-.34,2.91,1.21,3.75,1.33,1.74.25,6.36-1.65,7.27.64,1.57-2.05,4.91.99,6.41-.99.07-.09.22-2.01.18-2.11-.06-.17-2.37-2.58-2.54-2.64ZM294.14,194.74c-.36-.12-1.02.44-1.59.35-1.26-.2-3.38-1.58-5.18-1.46l2.44,4.17-.98.73,1.48.26-.5,1.21,1.72-.47c.74,1.22,0,1.8,2.2,1.95-1.26,1.71.87,1.21.49,2.94l1.46-.5c-.06,2.22,2.23,2.45,3.78,3.14.16.07.18.59.27.63.42.16,1.6-.7,1.85.65l-.98.49c2.36-.58,2.25,1.18,3.1,2.27.41.52,1.24.62,1.75,1.46,1.56,2.59-.02,3.52-2.63,3.17l-.27-1.5c-2.27.46-3.98-.6-5.64-1.97-2.12-1.73-1.14-.65-2.21-1.23-.68-.37-3.47-3.21-5.36-4.43-.9-.58-.8-2-1.73-1.69-1.87.62.63,1.42.68,1.51.09.16.04,2.45.2,3.05.2.73.98,1.38.84,2.3l.96-.49c-.43,2.13,1.9,2.78,1.48,4.91l1.96-.49-.49,1.96h1.48s-.49,1.48-.49,1.48l.98-.25v2.21c1.89-.9,4.36,1.55,3.92,3.44l1.74-.07,1.2,3.5.73-.98c1.38.39,2.55,2.24,3.18,2.66.39.26,2.12-.2,2.83.4.48.41.53,1.8.61,1.85.07.05,1.05-.57,1.68-.5,3.42.37,6.45,2.17,10.12,2.76.52.08,1.08.72,1.66.71.33-1.99,1.8.1,2.48-.99l.23-1.98h-1.97s.49-1.96.49-1.96l-2.45.49c.42-2.82-1.82-2.31-1.96-2.46-.76-.8,1.4-2.78,2.22-2.94.2-.04.16.81.92,1.08,1.75.61,3.76-1.08,4.22,1.86l.49-.97h.97c-.19,1.49.63.44,1.42.77,1.5.61,2.1,1.96,3.2,1.19l.52.93,1.24-.44v1.48c1.22.62.85-.99,1.26-1,.81-.04,2.74.52,2.9,1.49l2.49-1.03,1.69,1.03.26-1.47c1.5.91,3.13,1.36,4.91.99,1.28-.26,1.05-1.47,1.49-1.5,1.18-.09,2.05.7,4.24-.03,1.23-.41-.64-.7,2.61-.51.11,0,.54-1.43,1.69-.92.22-1.09-.63-1.18-1.4-1.54l.42-.9c-2.42.93-3.16-.31-5.19-.97-1.01-.33-2.47-.05-2.58-.12-.49-.35-.48-1.97-2.54-1.36l.5-.97c-1.53.49-7.8-3.2-5.41-4.68.95-.59,3.9.52,5.01.81,2.17.57,5.61,1.77,8.51,1.92,2.53.12,2.44-1.07,3.4-1.27.64-.13,2.77.41,3.37.22,3.69-1.12,5.08-2.92,7.79-4.7.68-.45,2.58-.19,3.61-1.82,2.12-3.38-.29-1.68-2.09-1.46-1.89.24-1.64.45-3.28.7l-.54.96c-.92-.86-2.23-1.15-3.46-1.04-.9.08-.65.94-1.05,1.02-1.94.43-4-.22-5.31-.21-2.53.01-5.06.32-7.6.21l.98-.97-2.94-.5v1.11s-.99.36-.99.36l.04-1.21c-3.84.04-5.9-2.58-9.36-3.2l.46-1.75-.94-.94c.53-1.44,8.36.36,9.92.15.88-.12,4.47-1.3,4.31-2.36l.97.97,1.47-.98c.11-2.03-1.45-1.06-2.18-1.24-2.83-.72-5.45-.62-8.37-.97-2.03-.25-4.01-1.91-5.9-.23-3.64-1.21-9.02-2.89-13.23-4.2-1.62-.5-5.53.89-6.86-1.69-.31,1.22-2.23,1.4-2.45,0-.95,2.07,2.59,3.02,2.21,4.92,1.74-1.14,1.41.33,2.48,1.11,3.24,2.36,1.42,1.92,2.13,2.83.46.57,2.83,1.06,2.96,1.87l1.74-.21.98,2.25c.8.21.34-.68.57-.85,2.03-1.45.94,1.07,1.01,1.25.03.07.56.08.67.28.24.45.16,1.02.27,1.18.09.13,1.08-.47,1.39.35l-1.79,2.22-5.31-.5.25-.98-2.45.97c-.42-2.38-2.05-2.15-3.93-2.46l.98-.49c-.48-1.59-1.45-.47-2.16-.49-.37-.01-.25-.78-.52-.87-1.49-.48-3.93-1.2-4.98-2.76-.24-.36-.12-1.07-.24-1.19-.45-.42-2.4.25-2.84-.16-.17-.16-.36-1.83-1.92-2.7-1.68-.94-3.04-.58-3.41-.76-.2-.1-.21-.89-1.85-1.4-.83-.26-1.65.09-1.69.02-.13-.23.12-1-.11-1.33-.57-.8-3.13.02-2.86-1.59l-1.45.97c.22-.32-1.46-1.78-1.58-1.82ZM393.91,194.95c-.19-.12.06-.85-.34-.83-1.39.25-1.59,2.14-1.72,2.22-.44.26-.96-.28-1.14-.21-.58.24-2.4,1.64-1.81,2.41l-.97-.5c-.06,1.62-.39,3.15,1.45,3.73l1.25-.78.25.97h.98s-.5-.97-.5-.97l3.15.5,1-1.44c1.85,1.71,5.15.09,6.79.43.26.05.36,1.57,3.01,1.02l.34-1.42,1.4-.09c-.56-.54-.81-2-1.13-2.3-.99-.95-2.97-1.48-3.74-1.88-2.85-1.51-2.66-1.3-6.2-1.65l-.51.94c-.54.03-1.07.14-1.56-.16ZM400.52,208.02c-3.42-1.93-4.31.82-4.57.84-1.57.1-2.85,0-4.49.62-.14.05-.99,1.79-2.52.85l-1.51,4.87,1.75.46c.39-.78,0-1.17,1.19-.94l.24.98c.57-.6,3.18-1.4,3.97-1.46,2.03-.16,3.89,1.11,5.34-.55l2.46,1.06.55-1.03,2.15.53c1.9-4.49-.95-3.77-3.58-5.02-.64-.3-.74-1.05-.98-1.19ZM305.17,246.95c-.5-.37-.41-1.65-1.61-1.33l.49,1.96-.97.48.97.49-.91.07-.06,2.87,1.96-.48c-1.02,2.04.75,1.65,1.26,2.45.33.53-.29,1.26-.19,1.68.15.59,1.05.62,1.21.88.27.46.19,2.17.46,2.79s2.09,4.44,2.33,4.8c.94,1.42,2.93,2.11,4.1.5.33-.45,1.21-8.5,1.06-8.93-.1-.29-.88-.12-.91-.54-.02-.3.48-.77.39-1.1-.03-.1-1.72-1.04-1.77-1.16-.2-.53.57-1.24.2-1.87s-2.24-.86-2.74-1.71l1.47-.73c-1.3-.72-5.96-.57-6.72-1.13ZM301.6,258.87l-4.62-1.5c-2.48,1.84-.19,3.96-.13,5.79l1.81,1.84-.98.25c1.15,1.42,1.17,1.52,0,2.93l1.88,1.23-.91,1.47,1.02.53-.52,1.18,1.44.04v1.2s1.92.39,1.92.39l.57.83.08-1.41,1.39-.07c-.32-1.59-.12-3.66,1.48-4.16l-.97-.25c-.46-1.27.71-.86.84-1.06.24-.36-.07-2.78-1.33-2.38l.98-1.45-1.47-.75.98-.73-3.85-3.03.42-.9ZM288.73,265.87c-.38-.47-4.55-1.75-5.29-1.38-1.38.7.46.79.45.95l-.93,2.99,1.39.31.06,2.87,1.43.03c-.13,2.06.03,1.8,1.81,2.4l.21,3.44c2.24-.53,2.39,1.68,4.16,2.46.83-.06,1.56-5.08.25-5.86l.97-.25c-.22-.21-.6-.46-.67-.73-.14-.61-.45-2.48-.65-2.94-1.27-2.83-2.9-2.86-3.04-3.05-.15-.22.08-.93-.17-1.24ZM298.55,430.21c-.3-.15-1.36.09-1.85-.17-1.08,3.23,1.42,4.12,3.45,6.12.51.5.71,1.2,1.1,1.59.93.92,4.13,1.99,3.78,4.06l.73-.98c.81,1.84,2.67,2.28,4.17.98l.49.98c1.1-2.35.44-3.95,0-6.38l-.88.39c-1.02-1.68-2.4-2.56-3.64-3.49-.53-.4-1.19-.62-1.79-.89l.43-.91c-2.61.66-2.73-.83-4.65-1.51-.97,2.54-1.21.26-1.33.2ZM286.87,434.96h-.97s-.74,1.94-.74,1.94c-2.8-2.33-5.04,1.31-7.6,1.98l1.47.49-1.47.99c-.06.09,1.01,1.77,1.1,1.83,1.53.91,4.14-.76,4.54,1.11,1.13.25.49-.84,1.05-.99,1.11-.3,2.63-.29,2.88.99l.73-.02c-.21-2.15,4.1.26,4.68.3.27.02.66-.63,1.24-.56.86.1.86,1.09,1.27,1.21.11.03,2.18.08,2.3.06.47-.08.07-1.45,1.3-.99.9,2.68.84.87,1.17.67.63-.4,1.83-.12,1.56-1.66l-1.72-.51.48-.95c-1.56-.65-4.04-2.02-5.61-3-.59-.37-.7-1.27-.86-1.36-.23-.13-3.74.63-4.47.46-.65-.15-.45-2.08-2.24-1.13l-.07-.85Z"/>
        <path d="M300.52,30.87l.58.88v-.98c2.45,1.57,5.43-.14,7.61,2.94l-.25-1.46c1.56.53,2.2,1.11,3.92.48v1.48s1.47-.98,1.47-.98v1.48s1.19-.51,1.19-.51c.54,1.72,1.1.46,1.93.68s3.44.96,3.29,1.75l2.42-.94-.5,1.46,3.44.49v1.48c1.76-1.3,2.92.89,4.28,1.83.74.51,2.61.88,2.96,1.26,1.48,1.6,2.38,3.01,4.3,4.22,2.02,1.28,2.5,3.42,3.67,5.42-1.22.64-1.69-.26-2.59-.34-1.01-.09-1.37,1.31-1.41-1.02-2.01-.41-5.71-1.29-5.87-3.49-4.51-.75-8.44-4.61-13.22-6.17-1.43-.47-3.64-.32-5.45-.91-1.26-.41-3.74-2.69-4.33-1.06l.97.55-.25,1.17h1.23c-.07,1.31.48,2.95-.74,3.91-1.45.26-.1-.88-.23-.97-1.04-.77-.98,1.02-1.23.99-.95-.08-1.41-1.45-2.69-.5v-1.97s-5.09.47-5.09.47c-.97-1.68-4.71-2.93-5.22-.48h-.97c.22-1.32-1.1-.43-1.73-1.46l-.49.98-.47-.89c-2.38-.26-1.74.33-2.57.89-1.14.78-2.05-.11-1.61,2.45l.88-.38c.47,1.31,2.01,1.6,3.05,2.58,1.29,1.21-.54.25-.5,1.23l.98.98-2.24-.43c-1.45,2.47-4.69.14-5.94,2.41h-6.05s.5.97.5.97c-1.85-1.05-1.26,1.07-3.44.5l.99,3.93c1.24-1.06,4.93,1.99,3.91,3.43l-1.46-.98.49,1.47c-2.1-.45-2.48,1.44-3.92.49l-.03,1.43c-1.09-.47-7.45,1.66-7.77,2.07-.27.35.19,1.46-.13,1.84-.13.15-.87,0-1.18.25-1.36,1.13-.71,1.45-.85,1.67-.11.17-.75.04-.81.12-.1.12,1.34,2.61,1.46,2.7s3.04.18,3.19.13c.22-.08.78-1.87,3.03-.24,1.38,1,1.45,4.61-.33,3.27v1.48s-1.96-.49-1.96-.49l.49,1.47h-1.48s.41,1.19.41,1.19c-2.12,1.05-.82,1.53-1.21,2.61-.08.22-1.94,3.01-2.15,3.32,2.04,2.53-1.3,2.34-.47,5.15,1.16-.49,1.79.59,2.2-.98l1.22.97c-.09-1.21,3.1-2.38,3.97-1.75.08,1.39,1.36,3.96,1.42,4.96.3,4.66.61,4.16,1.71,8.35.2.75-.39,2.08,0,2.69.41.65,2.34.38,2.88.53.32.09.64,1.6,2.99.95.21-.06.86-3.27,3.23-1.99l-.25-.98c.96-.01,2.07,2.41,3.18,1.47l.23,4.41c.86.26,3.02,2.17,3.32,2.3.34.14,1.55-.53,2.1.64.79-1.9,3.25-1.73,5.04-2.12,3.07-.66,6.72-1.91,9.69-2.46.48-.09,2.32-.38,2.44-.43.24-.09.44-1.98,1.74-.16s-.13,4.12-.52,5.67l-1.47-.5c.41,1.92-.73,1.2-1.3,1.64s-.37,1.42-1.6.9c.37,2.86-3.49.99-4.85,1.98-.43.31-.64,2.55-1.34,3.37-.32.37-.91.03-1.09.15-.23.15-.23.92-1.07,1.1s-2.25-.05-3.08-.35c-.51-.19-.35-1-1.77-1.14-2.53-.26-2.29.99-3.15,1.34-2.19.89-7.29-.62-9.7-.64,1.25-2.44-.4-2.27-.87-3.27-.14-.3-1.49-5.6-2.06-4.57l-.06.93c-2.04-1.05-2.22,1.06-3.83.59l-.04,1.43c-2.1-.05-4.39-1.38-5.17-3.3-.33-.82-.26-2.8-.55-3.44-.3-.65-1.04-.62-1.08-.71-.19-.44.47-.96.32-1.3-.04-.08-.82-.05-.89-.39-.43-1.94,2.01-3.68,0-5.56-.61.38-1.9,1.15-2.6.95-.37-.1-.26-.81-.56-.87-.56-.12-3.06.48-3.93.32-.93-.17-1.67-.94-2.67-.94.75-2.09-.19-3.34-.51-5.35l1.96-.49-1.95-.24c1.14-1.61.06-4.16.47-5.8.14-.56,1.47-.68,1.47-1.08,0-.12-.71-.48-.76-.98-.02-.26.54-2.7,1.26-2.45l-.76-1.74c-1.6-.98-2.01.49-2.92.51-2.42.03-1.75-2.02-1.95-2.43-.22-.46-1.16-.91-1.17-1.25,0-.17,1.48-1.85,1.68-2.69.22-.9.59-2.08.61-2.22.08-.51-1.09-1.97,1.07-1.23l-.5-1.71,1.48-.26-.98-.97c.4,0,.93-.17,1.17-.49.29-.39,1.54-3,1.88-3.33.83-.83,2.45.14,1.85-2.57h1.97s-.49-.96-.49-.96l3.43-.51-.48-1.23,1.47-.24c-1.3-2.11-4.53-1.56-6.38-2.7-.07-.33,1.14-2.51,1.45-2.85.81-.91,3.62-3.06,4.74-3.92,3-2.28,5.9-3.54,9.82-4.23,1.75-.31,2.95.9,4.59-1.74l-1.51-.49c.23-2.05-4.92-3.61-2.67-5.19.68-.47,1.32.17,1.62-.04,2.52-1.73.99-.58,3.7-1.12,3.93-.78,3.05-1.18,7.51-.96,1.74.09,5.68.5,6.81-.77l.23-3.45,4.81.1Z"/>
        <path d="M260.53,22.83c.26.24,1.09-.01,1.25.15.18.18.98,4.29.58,4.85l1.47-.49c-.39,2.23,2.21,2.67,1.48,5.39l-5.83.08-.76,1.28-1.76-.37c.79,3.02-3.54,1.37-5.6,2.12-.1.04-1.66.77-1.74.83-.07.05.71,1.02.06,1.74-.5.55-1.34.5-1.87.87s-.33,1.33-1.37,1.33c-.49,0-1-.66-1.51-.73-.92-.12-2.77.21-3.55-.12-.7-.3-.68-1.64-2.53-1.18-.18-1.36.39-1.71-1.02-.92l.49-1.47-1.47.49c.43-1.37-.81-1.4-1.11-2.09-.9-2.01-.82-6.22.3-8.05.6-.98,2.55-2.04,3.1-3.71.28-.85.34-3.35.17-4.3l.98.24c-.53-1.69,1.23-1.62,1.01-3.14,2.31.47,4.69.43,7,.65,1.73.17,1.35-.07,2.43-.08s3.21,1.1,4.22,1.65c2.49,1.35,3.84,3.36,5.58,5Z"/>
        <path d="M355,79.4c1.88,3.59-1.82,2.98-1.91,5.83l-3.2-1.94c-.46-1.27.87-1.78,1.08-2.11.1-.17-.31-.65-.22-.75.56-.69,3.59-1.58,4.25-1.02Z"/>
        <path d="M327.95,56.91c.45.7.22,2.66.76,3.17.23.21.91.16,1.28.43.39.29.48.94.66,1.05.61.35,1.36-.05,1.98.11.51.13,6.29,6.53,6.65,7.24.48.94.27,3.77,1.07,5.04l1.46-.5-.02,1.45c-.41.01-.94-.09-1.28.16-1.88,1.37-2.8,3.55-4.96,5.23-.98.76-2.86.93-3.14,2.42l-1.39-.44-.02,1.47c-1.59-.85-1.7.68-2.32.95-1.21.52-2.86.32-4.19,1.49-.28.25-.91,2.15-1.45,2.34-.86.31-2.52-.41-2.72-.26-2.37,1.85-.72.42-2.7.91-.17.04-2.81,1.77-2.94,1.9-.92.91-3.71,4.24-4.55,5.44-.49.71,1.37,2.01-1.61,1.53l-.53,1.68.95.45c-.78.27-1.19,1.19-1.6,1.52-.13.11-.59-.14-.84.02-.37.23-.37,1.03-.83,1.17-1.86.6-2.33-1.86-3.5-2.45-1.28-.64-2.72.11-3.38-.15-1.28-.5-.88-2.74-1.32-3.69-.03-.07-1.49-.13-.75-1.06.05-.06.73.15.93-.37.26-.67,0-2,.53-2.81l-1-.51,1.47-3.68c-1.66.61-2.95-.64-4.65-.06-1.33.45-.96,1.97-2.71,1.53l-.24-.98-.49.98-1.23-3.92h1.48s0-3.93,0-3.93l.97.5v-1.49s1.47.49,1.47.49l-.98-1.22,1.47-.98c-2.48-.49,1.72-2.28,2.23-2.68s.56-1.4,1.05-1.51c.69-.15,1.6.19,2.29.03.57-.14-.12-1.19,1.05-1,.51.08-.17,1.46,1.23.99l.03-1.7c-1.44.05-1.75-1.5-2.3-1.68-1.4-.45-4.63-.36-6.44-1.65-.19-.13-.15-.59-.12-.84l-.97.97-.5-2.19c.38-1.07,1.82-.1,1.95-.26.12-.15-.18-.97.13-1.35.16-.19,3.92-2.47,4.16-2.54.62-.2,1.53.1,2.23-.14,2.03-.68,4.04-1.47,6.13-1.96l.4-1.85-2.25-2.21c1.5-.42.49-.82.7-1.36,1.22-3.19,1.64-.22,2.53-2.35,1.98,1.17,4.25.98,6.18,1.65.85.3,5.57,3.01,5.81,2.79v-5.39s1.39-.08,1.39-.08l.32-1.39c2.46.55,2.86,3.02,4.22,4.11.63.51,2.41.87,2.76,1.41ZM327.57,69.53l-4.35.04c-1.78,4.29,2.5,7.72,5.38,3.67l-1.03-3.71Z"/>
      </g>
    </g>
  </g>
</svg>