<?xml version="1.0" encoding="UTF-8"?>
<svg id="_Слой_2" data-name="Слой 2" xmlns="http://www.w3.org/2000/svg" viewBox="0 0 395.31 403.43">
  <g id="_Обезьяяна" data-name="Обезьяяна">
    <g>
      <g>
        <path d="M64.12,44.82c.13-.07.06-1.04.74-.86,2.31,1.72,5.12.19,7.04.76,2.13.64,3.85,5.08,6.15,4.69,1.07-.18,2.65-3.31,3.82-3.01,3.31,1.78,4.65,5.05,5.14,8.77,1.61.17,2.42-1.99,3.91-1.15s4.53,6.92,3.09,9.05c1.66.35,5.44.28,6.34,1.88.27.49.17,1.32.47,1.82.84,1.41,3.41.75,4.76,1,4.52.82,9.41,2.72,12.97,3.88,1.97.64,3.49,3.61,4.38,5.65.11,1.1-1.04,4.62-1.47,5.85-.31.91-1.61,2.71-1.63,2.93-.17,1.49-.08,4.43.14,5.95.24,1.63,1.49,3.24,1.56,3.92.07.73-.73,1.23-.52,2.41.45,2.55,4.06,2.75,6.08,2.91,4.66.38,9.78,1.3,14.2,3.48,12.67,6.24,14.49,13.1,30.94,12.31,3.56-.17,7.78-.88,10.39-2.04,2.27-1.01,7.89-2.04,10.63-2.85,3.83-1.13,8.2-2.83,12.38-3.82,1.31-.31,3.59.03,5.01-.63.58-.27.4-1.2,1.42-1.39,4.74-.9,12.14.32,17.13-.43,5.2-.78,5.78-1.26,11.33.02,2.04.47,2.68.29,4.54.75,1.42.35,3.35.78,4.58,1.19,3.47,1.18,5.74,2.88,5.64,7.27.47.77,4.78.1,5.45.11.22,0,.18.67.53.82,5.18,2.19,3.39,2.68,4.09,7.9l5.82-.31,3.56,3.15.41-.91c1.96.34,2.7,2.6,2.35,4.54-1.45,1.64-3.39,1.75-5.12,2.7s-2.59,3.06-4.1,3.55c-1.41.46-3.12.05-4.48.47-.24.07-.25.69-.56.79-2.93.96-4.04.68-6.54,3.41-.77.84.06,2.24-2.08,1.73-1.97-.47-.61-1.51-.46-2.73.43-3.53,1.66-3.63,3.04-6.57.16-.35-.2-.93-.14-1.09.16-.43,1.37-.48.83-2.17-3.73-1.07-6.21.77-9.4,2.36-1.92.95-2.38.44-4.21,2.63-.35.43-.37,1.61-1.09,1.99-.68.16-3.2-2.66-3.86-3.1-2.27-1.51-6.82-3.89-9.39-4.7-.44-.14-1.1.34-1.45.11-.28-.18-.26-1.1-.71-1.2-.53-.12-1.23.36-1.74.34-2.18-.09-7.29-.32-8.03,2.49.54.43,1.93.04,2.1.13.1.05.12.66.38.8,2.46,1.35,7.44,3.8,9.2,6.19.93,1.26,1.54,3.35-.53,3.58-1.1.12-4.75-1.45-6.02-1.97-2.47-1.01-7.99-4.25-10.26-4.47-.71-.07-1.21,1.04-1.44.86-.36-2.37-3.11-1.47-4.61-1.6-.47-.04-1.02-.55-1.67-.59-1.66-.1-5.02,1.4-4.68,3.59l7.88,1.17c5.36,2.5,5.82,3.9-.43,5.35l1.66,1.81,3.84,1.45-.28,1.85c-1.14-.51-2.14-.09-2.15,1.4,1.81-.28,4.06,1.59,5.14,1.8.77.15,1.47-.35,2.03-.26,1.54.26,3.63,1.03,5.23,1.34.9.53,1.32,1.49.71,2.42-.22.55-.53.52-.95.64-1.28.37-6.52.81-8,.84-5.8.14-12.44-2.03-17.97-1.7-.98.06-1.88.43-2.84.5-.14,1.25.04.73.65.93.77.25,3.49.93,3.65,1.04s.23.93.8,1.2c1.02.49,3.83.96,4,1.09.21.15.35.99.72,1.35.43.43,3.13,1.93.91,2.6-.16.05-3,0-3.43-.01-3.89-.19-9.72-.45-13.54-.9-1.77-.21-2.44.57-.74,1.74,2.1,1.43,4.89,3.43,7.29,4.31.5.18,1.23-.29,1.91-.06.83.27,1.88,1.29,2.84,1.58v1.44c-.11.16-3.23,1.34-3.55,1.36-.96.06-3.92-.09-5.14-.16-8.21-.45-13.35-5.43-19.92-9.95-1.52-1.05-2.21-2.52-4.51-2.22-.96.57-1.19,5.43-.76,6.2.12.21.89.35,1.22.78,2.56,3.39,4.29,4.52,8.02,6.39,1.37.68,3.6.22,2.96,2.43-.08.28-4.46,2.17-5.08,2.18-.79.01-.56-.88-.93-.97-1.08-.26-2.17.33-3,.23-.93-.11-2.64-1.8-4.15-1.17-.31,2.27.81,4.6,2.47,5.96,3.82,3.14,7.55,3.29,11.44,5.17.66.32,2.76-.19,2.75,1.67,0,2.12-6.7,2.79-8.23,2.92-.82.07-1.67-.5-2.49-.38-.67.1-1.22.98-1.72.89-.24-.04-3.62-2.21-4.18-2.58s-.98-1.69-2.14-1.93c-1.3-.26-2.79.43-3.57,1.53.4.5.85.99,1.07,1.62.5,1.44,2.85,5.57,3.82,6.41.81.7,4.44,1.04,5.09,3.22l-.36,1.33c-2.32.3-4.02-.51-5.7,1.85,2.32,1.76,1.67,6.42,3.21,8.44.58.76,2.34,1.43,2.93,2.24.17.24,2.47,4.97,2.54,5.25.32,1.41-.87,5.89.08,8.02.54-.2,1.6.02,1.94-.47.32-.45,3.15-5.6,3.24-5.93.06-.22.12-4.24.08-4.51-.19-1.28-2.4-2.1-.7-3.55,2.32-1.97,2.17,2.35,2.68,3.29,1.9,3.45.9,3.62,1.53,7.19.19,1.09,1.19,1.98,1.28,3.33.12,1.73-1.34,4.4,1.76,4.37,0-.43.02-.99.25-1.35,5.01-7.88,3.9-9.83,3.66-18.91-.07-2.87-.21-1.49-.4-2.38s.09-2.02,0-2.95c1.77-.31,3.47.46,4.66,1.85.41.48,1.73,2.38,2.32,3.18,2.18,2.94,2.68,8.75,2.68,12.43,0,1.56-2.76,6.45-1.36,7.89,2.42,2.46,5.12-1.65,6.04-3.84,1.78-4.25,1.97-7.51,1.88-11.95-.03-1.42-.64-2.24-.36-4.09.37-2.37,2.25-3.74,4.16-2.07.82.71,5,9.48,5.28,10.9.47,2.38-.18,6.29,1.37,8.21,1.75,2.17,1.91-2.28,2-2.48.21-.49,1.75-1.56,1.54-1.88-1.9-.37-.36-5.64-.57-7.14-.06-.39-.6-.86-.71-1.51-.47-2.91-.49-7.18-3.08-8.84.19-2.8,2.42-1.87,4.08-1.07,4.4,2.11,7.06,8.11,8.93,12.12.2.42-1.04,1.53.31,1.31.75-1.01,2.64-4.84,2.69-5.83.02-.43-.55-.9-.55-1.38,0-.87.24-.8.1-2.33-.19-2.13.03-3.89-1.07-5.98l1.46-1.22,4.57,1.66c.98,3.75,3.28,6.59,5.28,9.75.47.75,2.44,5.62,3.52,4.4-.49-1.97,1.16-3.46.64-5.34-.62-2.25-1.24-4.75-1.91-6.99-.34-1.15-2.81-4.15.06-3.87.49.05,3.55.71,3.95.86.99.37,1.99,6.25,4.06,3.21.79-1.17.9-5.3.62-6.68-.3-1.48-3.09-6.88-2.56-7.67,1.49-1.01,4.65.96,5.64,2.08.22.25,2.91,4.37,2.98,4.63.13.46-.18,1.57-.34,2.08h1.32c-.83,2.27.98,3.46.88,5.59,1.54,1.7,5.46-5.85,5.86-6.97.19-.53-.23-1.12-.17-1.55.05-.36.78-.27.87-.64.63-2.56-.53-8.64,1.09-10.39,1.98-2.14,6.8,2.66,7.24,2.34.15-1.21,1.27-2.12,1.56-3.24.17-.66.11-4.59-.02-5.19-.2-.86-1.1-1.29-1.38-2.11-.17-.49.18-1.45-.13-2.12-.3-.63-4.45-3.27-.67-3.66,2.3-.24,2.16.82,3.51,1.9,2.09,1.68,2.28,1.81,3.76,4.39,2.98,5.22,2.75,8.07,1.48,13.98-.4,1.85-1.05,5.13-2.05,6.89-1.12,1.96-3.57,2.24-2.19,5.79.13.33,2.75,3.37,2.97,3.39.67.08.84-.06,1.29-.49,2.2-2.08,3.1-7.07,4.51-9.65.37-1.53-1.41-9.14,2.28-7.32,2.85,1.4,2.58,10.52,2.06,13.48-1.11,6.25-3.09,11.45-6.46,16.86-2.13,3.42-.17,5.02,1.99,7.54.67-.59,1.34-.9,1.87-1.7,2.02-2.98,3.32-8.32,5.33-11.55l1.31-.18c1.23,1.69.13,2.52.15,3.36.05,1.78.51,3.02.2,5.11-.44,2.98-2.85,5.44-2.08,8.26l-.78-.34c-.95.76-1.03,2.09-1.43,2.77-3.19,5.36-4.57,6.73-6.12,13.07-.1.39-.88.32-.87.54.04.82,1.35,1.34,1.5,1.62.28.5-.23,1.69-.03,2.14s.74.48,1.01.83c.21.27.07.92.24,1.09,1.73,1.84,2.66-1.46,3.26-2.56,1.97-3.61,3.82-8.7,5.82-12.55,1.17-2.26,2.19-5.17,4.84-5.69.91.69-.79,6.83-1.44,7.78-1.94,2.83-1.04,1.88-1.94,5.11-1.45,5.18-4.77,9.72-5.97,14.17-.39,1.46-.06,2.72-.3,3.8-.08.36-.84.27-.89.61-.02.15.05,2.72.07,3.13.07,1.01.64,5.28,1.04,5.88,2.64,1.45,2.34-2.94,3.18-4.54.4-.75,1.12-.89,1.39-1.43.65-1.32,1.75-6.39,3.94-4.7.87.67-2.15,9.79-2.47,11.5s-1.04,5.44-.96,6.87c.06.97,1.52,3.89,1.52,5.35,4.02,1.02,3.57-5.38,7.19-5.14.86,3.59-.65,7.27-.45,10.95.08,1.49,1.22,4.46,1.15,5.1-.05.4-.79.89-.69,1.37.16.78,4.97,3.86,6.14,2.83,1.04-.64-2.17-11.63,3.07-9.82,1.6,2.73,3.21,5.84,4.29,9,.42,1.22.12,2.81.35,3.37.33.8,3.61,5.47,4.54,4.65.17-1.78.45-3.64,2.41-3.76,2.49-.15,1.48.95,2.01,2,1.03,2.01.25,2.29.88,4.19.07.22,2.13,3.78,2.27,3.95.37.43,1.36.58,1.85,1,.89-.06,1.21-4.11,1.06-4.75-.08-.34-.72-.25-.75-.53-.3-2.56-.93-5.32,1.89-5.38,3.13-.06,4.44,6.41,6.44,8.53-.05,2.45.86,5.79,3.67,5.92.96.04,3.03-1.87,4.45-.36.25.27,2.39,5.98,2.78,6.97.35.9.28.74.6,1.75.64,2.02.6,4.52,2.44,5.8,2.9,2,2.79-.57,3.33-.71,2.94-.73,3.16,4.48,3.22,6.55,5.3.04,4.13-2.83,4.38-6.7.05-.73.74-1.46.72-1.9-.05-1.08-1.78-1.92-1.93-2.18-.24-.41.67-3.35.67-3.96,0-.2-.84-3.55-.96-3.89-.68-2.03-2.68-5.28-4.29-6.6-1.34-1.1-5.69-2.65-4.93-4.56l1.99-1.7c.21-2.95-1.22-2.1-2.4-2.99-.5-.37-.59-1.06-1-1.37-1.33-.98-3.41-.85-3.25-3.93.04-.77,3.23-2.52,3.78-2.54.19,0,3.28,1.03,3.73,1.23,1.8.78,3.52,2.72,5.7,2.47-.86,2.46,1.39,4,1.51,6.45.07,1.33-.8,2.45-.46,3.79.44,1.71,4.26,6.04,4.58,7.31.27,1.07-.59,2.32-.39,3.59.14.9.89,1.21,1.12,1.86.33.92-.18,2.79-.03,3.08.52.96,2.3.04,2.44,3.01.05,1.07-.44,2.14-.28,3.05.2,1.12,1.47,1.11,1.79,1.81,1.03,2.24-.9,7.06-.76,9.55-2.84,1.59-2.34,4.69-3.6,7.24s-2.17,1.01-2.29,5.27c-.16,6.02,4.69,10.66,4.05,18.12-.2,2.31-2.48,6.89-3.63,8.55-1.07,1.53-2.5,2.52-3.29,4.23l-7.61.6-.84-.97-1.07,1.19c-3.31-1.83-7.15.32-10.5-.99-3.24-1.27-4.56-2.36-8.58-2.56-3.2-.16-3.71,1.76-5.48-2.74,1.18-.07,1.54-1.3,2.52-1.75,1.52-.71,8.66-1.04,6.29-4.11-.12-.16-2.9-2.12-3.15-2.26-1.73-.93-14.85-2.36-17.27-2.16-3.15.26-9.7,2.73-8.97,6.99l2.4.95c.38-1.61,1.44-.67,2.61-.97,3.07-.79,5.24-1.77,8.57-.67,2.01.66,5.99,3.45,4.85,6.08-1.16.73-2.41-.3-3.56-.04-.5.11-3.47,1.64-4.24,2.02-2.33,1.18-6.75,5.1-8.69,5.65-1.72.49-10.67.01-12.71-.41-.81-.17-.61-.72-.87-.82-.44-.16-2.22-.48-2.38-.64-.05-.05.39-.6.29-.79-.06-.12-.55-.14-.7-.47-1.35-2.97-.56-3.33-.89-5.37-.03-.2-2.28-1.51-2.78-2.77-.45-1.15-.1-1.69-.13-2.74,0-.3-.53-.77-.5-1.09.03-.42.78-.76.94-1.19,1.56-4.2.73-1.71,3.29-3.96,2.78-2.43,3.02-7.14,5.08-9.49.26-.3,4.11-4.07,4.37-4.25.49-.34,2.93-.63,3.82-.94,2.25-.78,2.48-.92,5.37-1.36,5.53-.85,5.91-1.17,11.49.29.76.2,2.89.08,3.62.44.53.26,2.14,2.01,2.78,2.34,2.24,1.15,8.3,4.09,10.53,3.49.43-.84,1.46-2.24,1.6-3.07.07-.42-.39-6.12-.49-6.43-.19-.61-1.06-.54-1.24-1.1-1.24-3.81-.66-5.37-4.71-7.65.48-1.91-1.42-2.87-.76-5.03l-.89-.47-1.69.85c-.49,0-1.5-1.05-1.87-1.47-1.45-1.66-2.04-4.66-3.1-6.33-.32-.51-1.33-.51-1.05-1.82-1.09-.42-2.3.46-3.27.43-3.26-.09-5.28-6.82-7.86-8.4-.64,1.53-.42,3.23-2.41,2.33.55,1.26-.52,2.23-1.74,1.64-1.09-.52-1.32-2.25-1.9-2.9-1.68-1.87-4.51-3.58-6.28-5.42-.95-.99-2.45-3.34-3.23-4.49l-2.83,3.14c-1.08-.83-2.26-1.05-3.33-1.96-.27-.23-3.58-3.71-3.7-3.96-.4-.9-.1-1.85-.27-2.77l-1.17-.09c-.19-.56-.04-1.22-.32-1.76-1.53-2.97-1.75-4.23-2.7-6.89-.38-1.07-1.82-1.28-1-2.92-1.02-.23-.7.13-.98.6-1.41,2.36-1.04,4.3-4.37,2.16-.23-.14-2.04-2.47-2.08-2.63-.21-1.05.1-2.31-.12-3.51s-1.6-5.25-2.08-6.63c-.18-.5-1.09-2.6-1.3-2.78-.25-.2-1.7.28-2.12-.33-.71-1.04.17-4.79-.81-5.04-1.69-.07-5.67,0-6.87,1.37-.48.55-.23,1.44-.7,2.15-1.28,1.93-3.54,2.78-4.96,4.54l-5.18-.83c-.75.39-1.89,2.93-2.38,3.47-.61.66-1.5.74-2.15,1.45-.58.64-2.47,3.14-2.44,3.94.05,1.85,2.04,1.12,2.42,1.25.3.1.14.64.42.73.56.17,2.78-.08,3.63.67.32.28.26,1.12.52,1.4.42.46,2.28,1.98,2.4,2.23.09.19,1.03,3.37,1.05,3.55.05.66-.87,1.08-.74,2.13.23,2.03,2.71,4.2,3.33,5.82.3.79,1.28,4.88.98,5.22-.12.13-2.28-.27-1.76,2.49l4.36,4.58-.39,1.32,1.21.08c1.24,2-.11,3.04-.3,4.38-.4,2.84-.17,7.84-2.35,9.82-1.67,1.52-2.79-.92-4.65-.27-.03,3.02-1.63,4.86-.64,7.8,1.01,3,3.72,5.09,4.33,7.96.26,1.24.63,5.09.64,6.36,0,.35-.85,6.18-.98,6.78-.09.41-2.35,4.95-2.65,5.33-1.31,1.69-3.09,1.88-4.79,2.49-.31.11-.31.89-.59.9-.42,0-.96-.48-1.62-.38-.92.13-1.84,1.57-2.71,1.61-.93.04-1.93-1.12-2.21-1.11-.41,0-.65,1.3-2.06,1.21-.7-.05-6.23-4.07-7.7-4.89-2.38-1.32-4.42-1.85-6.83-3.46-.46-.31-.62-1.11-.78-1.22s-.8.29-1.24.15c-2.04-.68-8.04-1.87-9.89-1.52-.42.08-.45.97-.74,1.13-3.44,1.8-9.02-.02-8.64,5.26,1.23-.04,3.46.36,3.51-1.39l.62.91c1.98-.96,3.69-3.33,6.19-1.87.91,1.21-2.26,4.48-3.16,5.08-1.55,1.02-3.84.52-4.65,1.44-.49.55-.45,1.36-.94,1.93-2.78,3.22-10.2,6.46-14.37,5.44-1.66-.4-6.71-3.98-8.03-3.95-.39.01-.82.98-1.07.79-.1-1.78-1.38-.88-2.73-1.51-.67-.31-3.02-1.93-3.36-2.5-.28-.47-1.35-4.01-1.35-4.57.01-1.31,3.08-3.76,3.42-6.21.23-1.68-.71-1.76-.99-2.84-.24-.9.89-6.28,1.3-7.02.11-.19,2.27-3.31,2.42-3.47.71-.78,2.48-1.14,2.82-1.66.35-.56.08-1.62.65-2.1.53-.45,2.05-.31,2.74-.69.59-.33.7-1.53,1.77-1.98.8-.34,1.77.3,2.69.13.69-.13,1.22-.93,1.79-.93s1.09.81,1.77.91c6.35.98,13.74,1.07,20.11,2.37,1.77.36,4.04,2.04,6.13,2.24,1.18.11,3.4-.71,5.05.05,1.26-4.13.84-7.15-.21-11.17-.13-.48.16-1.03.12-1.14-.07-.23-1.36-.59-.78-2.1l-.78.35c-.13-.25-.17-.63-.41-.8-1.04-.74-1.38.51-2.49.47-1.52-.05-2.46-2.02-3.1-3.31-.27-.55.05-.45-.65-1.69-1.14-2-2.29-3.19-3.5-5.05l.85-1.13h-1.75c.74,1.93-1.64,2.01-2.86.94-.53-.46-.79-1.34-1.28-1.91-2.91-3.31-3.66-4.77-4.85-9.06-.68-2.44-1.42-1.29-3.03-1.62-1.55-.32-2.21-2.47-3.12-3.67-.78-1.03-2.09-1.83-2.4-2.2-1.38-1.62-1.57-5.42-4.16-6.69l.72-2.06c-.04-.37-.94-.34-1.19-.92-.12-.28-1.29-5.7-1.28-6.08.01-1.22,1.32-2.21,1.09-3.18l-2.11-1.94c1.53-1.64.17-2.05-.02-3.28-.72-4.75,2.31-5.03,2.5-7.03.11-1.1-1.05-2.23-.7-4.01.59-2.97,3.74-4.66,4.29-5.83,1.13-2.4-1.27-2.73-1.29-4.03,0-.29.91-2.78,1.1-3.06.27-.41.83-.03.97-.15,2.08-1.84,2.49-1.1,3.53-1.77.34-.22.76-2.5,1.21-3.14.83-1.16,2.6-2.46,3.47-3.28,1.29-1.22,2.96-3.4,4.64-3.97,2.73-.93,5.48,3.14,6.78,2.96.39-.05.48-1.09.71-1.24.59-.37,1.72.15,2.07-.17.12-.11-.03-.81.19-1.14,1.05-1.57,2.31-1.5,3.22-2.19.59-.45,1.21-2.3,2.17-3.05,1.47-1.15,3.71-1,5.14-1.98.87-.6,1.01-1.57,1.24-1.74.15-.11,2.73-.74,3.31-.89.8-.22,3.8-.37,4.63-.65,1.21-.41,3.34-5.75,6.23-2.72l-.74,3.2c-2.11,1.14-4.74,2.13-6.76,3.31-3.84,2.25-13.47,9.29-15.88,13.35-.85,1.42-1.28,2.48-.49,4.08,0,.2-1.74.39-.9,1.19.67.63,6.5-7.46,6.54-1.65-.19.75-1.13.34-1.51.69-.95.87-.75,1.99-1.22,2.68-.91,1.31-5.04,3.98-6.41,5.64-2.09,2.54-2.79,4.39-2.97,7.79,2.07,2.48,2.72-.6,4.24-1l3.53.05c.01,1.76-1.89,2.36-2.49,3.17-2.07,2.8-5.48,9.06-5.36,12.6.06,1.7.64,4.9,2.45,2.68,1.09-1.34,2.1-4.8,4.48-2.6-.8,3.43-4.63,9.2.33,10.83,1.04.38.25-.94.85-1.38,2.27-1.66,3.76-.03,3.47,2.61-.13,1.16-.25,2.43-.38,3.64-.43,3.91-3.14,9.12,2.35,10.08-.67-2.4,2.54-4.27,2.2-6.97,3.28-.54,1.8,2.59,2.57,4.45.57,1.36,3.4,3.79,4.21,5.32.99.28,1.37-1.78,1.82-1.88,2.32-.54,1.6,1.37,1.92,2.47.13.46.8.37.99.92.74,2.22,1.37,6.13,1.53,8.5.11,1.56-1.08,2.96.31,4.88,1.45,2.01,3.67,1.37,5.47,1.4.35-.25.24-5.85.43-6.66.11-.48,1.04-.43,1.26-1.09.21-.61-.38-2.79-.29-2.9.19-.22.97.27.79-.52-1.56-.02-1.24-2.39-1.9-3.58-.26-.47-2.04-1.66-2.22-2.03-.49-1-.25-2.41-.7-3.35-.29-.62-2.36-2.44-2.18-3.36.41-.96,1.68-.49,2.1-.81.15-.11,1.34-3.22,1.24-3.64-3.31-3.31-5.08-6.63-6.64-11.15-2.41-.42-4.09-2.96-6.03-3.81-2.27-1-1.9.51-2.7.59-3.41.35-4.15-2.35-3.78-5.44.1-.82.74-.66.77-.76.12-.37-.42-.86.09-1.56.63-.86,1.46-.24,1.81-.47.61-.39,1.45-2.56,2.2-3.2,1.25-1.06,2.87-.69,4.36-.72-1.2,1.73-1.01,7.83,2.1,5.47.28-4.74,4.47-6.78,5.22-11.41,1.61-2.03,1.77-4.34,4.95-4.3-.57,3.15-.18,4.78,1.97,6.98.59-2.02,1.73-1.06,2.41-1.4.05-.02-.32-.47-.03-1.16.74-1.78,1.84-3.14,2.73-4.79,1.96-.66,2.04,1.81,4.07.85s2.78-5.44,2.87-7.67c.1-2.37-.21-6.24-.9-8.38-4.41-.7-4.28-4.42-3.93-8.37.13-1.48,1.61-5.43,1.06-6.31-1.71-2.72-6.63,1.45-5.34-4.27.33-1.47,2.47-4.49,2.82-5.78.18-.67,0-2.56.35-3.89.6-2.36,1.35-4.63,1.97-6.97-.78.04-3.84-1.86-4.15-2.35-.65-1.01-.15-2.6-.53-3.57-.21-.55-1.43-1.18-1.68-1.99-.5-.26-1.53,1.52-1.68,1.86-.46,1.04-.2,2.52-1.41,3.72-.45.45-1.24-.06-1.45.74-.44,1.66.83,4.26.37,6.37-.07.33-.66.34-.82.69-.77,1.7-1.64,4.41-3.8,4.74-1.51.24-3.91-.41-2.81-2.31l-1.25-.08-.09-1.28c-3-.42-1.94,1.4-2.63,2.92-.8,1.76-6.35,8.3-8.04,8.22-.6-.03-2.6-1.12-2.94-1.61-.42-.6.14-1.18-.04-1.54-.07-.15-.81-.11-1.04-.99-.61-2.38.14-6.01-3.5-2.85,1.3,2.78-.8,4.97-1.61,7.58l-6.39,8.01-4.66-2.1-1.95-6.32c1.56-.21.94-1.69-.24-1.13-.64.31-2.56,6.61-3.11,7.86-.83,1.91-1.95,3.81-2.78,5.79-.46.55-2.69,1.36-3.19,1.73-2.9,2.15-4.13,5.13-7.28.6,1.28-4.33,4.5-7.87.83-12.03l-1.82.54c.1,1.25-1.21,2.29-1.43,2.95-.42,1.3-.33,3.47-.94,5.12-1.21,3.27-3.86,7.13-7,8.39-.57,0-5.6-3.77-5.76-4.63l1.75-3.76c-.47-1.43.52-1.31.67-1.76.69-2.07-.15-6.98-2.99-5.64-.12,1.11.08,2.23-.13,3.34-.11.6-1.31,4.36-1.54,4.88-.93,2.1-3.26,2.13-5.01,1.45-1.63-.63-.82-2.07-.87-2.21-.02-.06-.69-.03-.95-.65-.69-1.62.21-4.28.13-5.67-.07-1.26-1.93-3.92-1.3-5.83-3.58-.69-3.06,4.36-6.13,5.12.33.68.8,1.15,1.02,1.93.55,1.91,3.31,13.09,2.86,13.82-.35.58-2.26-.36-2.03,2.94.22,3.19,2.02,4.44,3,7.13.73,2,1.29,7.76.76,9.67-.27.98-1.97,1.96-2.54,2.88-1.72,2.81.12,6.88-.67,10-.55,2.19-1.23,1.7-2.74,2.64-.4.25-.54.92-.64.96-1.46.63-3.27-.93-3.01,2.69.08,1.06.85,1.63.92,2.34s-.44,1.51-.42,2.32c.04,1.61.73,6.47.42,7.4-1.58,4.84-5.88.76-6.78,3.03-.16.41.37,3.62.18,4.38-.09.35-.73.23-.77.51-.07.53.39,2.27.29,3.21-.38,3.25-2.34,5.56-5.21,6.63-.06,1.95.28,13.08-.9,14.08-.24.21-1.42-.07-2.14.28-1.39.68-.74,3.42-2.91,3.8-.61.11-1.41-.7-1.88.44.34,3.28,2.06,11.27,0,13.83-.12.15-2.69,1.52-3.24,1.82-.47.26-1.1-.13-1.14-.08-.33.47-.86,4.14-1.12,5.1-.16.61-.84,1.08-.91,1.6-.08.57.5,1.39.17,2.02-.41.79-4.89,2.88-6.06,2.41.5,1.73-.69,3.11-.85,4.44-.38,3.05.46,4.46-1.17,7.6-2.32,4.46-5.1,3.64-9.13,4.26-6.73,1.05-13.37,0-20.51-1.46-.15-.03-1.5-1.05-2.71-1.14-.64-.05-8.36.33-8.78.47-4.98,1.71-5.88,8.29-9.4,11.66-.76.73-2,.63-2.29,1.95-1.08-.66-3.8.92-4.51.84-.8-.09-2.39-1.51-3.28-1.91-.79-.35-1.78-.06-2.64-.46-.79-.36-1.66-2.27-2.5-2.48-.59-.14-1.31.36-2.02.3-.93-.08-3.8-4.11-5.05-4.89l1.25-5.71c-4.87-1.47-4.88-2.44-3.46-7.07.12-.4.7-.38.78-.69.12-.47-.44-1.45.17-2.34.22-.32,3.24-3.03,3.85-3.59,3.09-2.8,7.14-5.26,11.28-6.63,4.59-1.52,16.18-3.67,20.86-3.43,1.41.07,3.89.87,5.2.85s6.08-2.09,7.29-2.95c1.81-1.3,3.75-3.68,5.68-4.9-2.71-5.14,2.35-8.77.03-13.57-.15-.3-.85-.3-.88-.64-.03-.29.37-2.66.49-3.07s.78-.35.85-.67c.27-1.25-.75-4.39-.46-6.45.15-1.1,1-1.91.94-2.76s-3-2.46-2.67-5.55c.08-.75.65-1.33.76-2.02.56-3.67,1.27-5.51,1.58-9.25.4-4.81,3.66-9.67,4.21-13.94.28-2.24-.65-4.9.47-7.16l-1.94-.48c-1.91,3.84-4.09,8.24-4.98,12.49-1.04,4.97-1.38,8.24-3.2,13.22-1.08,2.94-.57,5.3-1.3,7.46-.14.4-.77.32-.85.67-.17.79.28,3.19-.02,4.46-.1.42-3.3,2.92-3.93,3.82-3.09,4.44-2.03,8.43-3.08,12.52-1.25,4.83-4.35,9.27-5.27,14.21-1.3.55-3.31-.81-4.11-.85-.68-.04-5.36.67-6.03.92-.4.15-1.06,1.28-2.33,1.57-2.04.46-6.2.27-7.81.71-.47.13,0,1.39-1.16.94l-.04-1.33c-1.33.29-3.5-1.04-4.5-.87s-2.29,2.3-3.69,2.3c-.09,1.13-1.22,3.74-1.97,4.43-.26.24-2.19.55-2.8,1.17-.28.29-.2,1.04-.59,1.48-.74.83-4.46,1.66-5.5,1.6-.67-.04-1.11-.78-1.76-.89-1.02-.17-3.89-.37-5.2-.48-1.2-.1-5.1.01-5.95.73-.43.37-.29,1.19-.55,1.49s-1.22.3-1.88,1.03c-1.73,1.91-2.93,4.67-4.99,6.33-4.85,3.91-11.71,4-17.1,1.38-.63-.31-2.01-1.13-2.39-1.67-.73-1.03-1.7-8.13-2.68-9.95,1.32-2.57,1.45-5.67,2.37-8.44.14-.43,2.04-4.33,2.25-4.61.98-1.32,4.28-2.67,4.61-3.45.43-1.01-1.24-2.85,1.14-5.33,3.81-3.98,8.24-5.18,13.35-6.29.96-.21,2.13.18,2.97-.04.34-.09.29-.95.49-.92,6.05.79,14.41.16,20.19,2.54.74.3,1.17,1.2,1.94,1.46,1.55.51,4.28-.72,5.87-1.18l5.09-8.18-1.22-1.78c.38-1.47,2.47-5.52,2.53-6.62s-.84-1.86-.78-2.67c.17-2.13,2.42-7.04,2.43-9,0-.77-.85-1.48-.98-2.4-.45-3.19,3-10.99,4.01-14.28-5.23-3.57-1.41-4.36-.56-8.68.41-2.08-.63-5.19-.42-6.2.32-1.58,1.99-3.79,2.23-5.34.15-.97-.31-1.78-.16-2.9.26-1.95,3.33-8.38,2.37-9.7-.5-.69-2.81-.01-2.89-2.58-.03-.87.61-1.35.64-1.83.29-3.95.72-6.37,2-10.21l-1.78-.45c-.49-.35-.43-.82-.4-1.35.08-1.82.88-5.6,1.34-7.46.42-1.65,2.81-5.03,1.01-6.3-2-1.41-2.25.62-3.47-3.29-.75-2.38-1.51-6.64-1.96-9.12-.21-1.14,1.2-5.74.86-6.23-.73.24-2.1.97-2.79.82-.16-.03-2.68-1.74-2.8-1.87-1.55-1.63-2.25-4.98-2.87-7.08-.07-.25-.61-.2-.71-.58-.22-.8-.56-5.39-.91-5.72-3.23,1.78-4.4.28-6.05-2.64-1.86-3.27-1.05-3.68-1.37-6.41-.12-1.03-1.22-1.46-1.3-1.94-.08-.54.68-1.02.75-1.47.25-1.64.4-2.46.72-4.07.58-2.95-.27-2.03-.94-3.13-.24-.39-.12-1.13-.36-1.69-.37-.84-1.5-.93-.64-2.36-2.51.63-2.6,2.39-5.42,1.83-5.44-1.08-6.07-3.26-6.85-8.82-1.26-.22-.79,1.04-2.06,1.76-2.61,1.48-4.8-2.29-5.57-4.58-.62-1.86-.1-6.26-2.24-6.47-1.12-.11-2.6-.38-3.68-1.2-.12-.09-1.96-1.93-2.02-2.06-.29-.61.54-1.63-.17-2.12-1.11-.66-3.47.22-4.32-.31-.19-.12-.45-1.11-.94-1.55-2.16-1.92-3.91-3.2-4.37-6.53-.21-1.53.25-3.25-.33-4.74-.34-.87-2.04-1.19-2.27-2.29-.14-.67.38-1.63.29-2.56-.22-2.38-.92-4.4-.36-7.03.08-.35.81-.29.88-.63.28-1.41-1.16-2.51.75-3.03-.24-1.96,1.15-2.58.97-4.74-.19-2.26-1.29-2.1-1.72-2.98-.79-1.6-1.97-5.41-1.75-7.28.13-1.13,1.09-1.83,1.14-2.37.12-1.35-2.47-4.43-3.16-5.81-1.53-3.05-2.23-5.56-3.13-8.71-.31-1.1-1.36-1.84-1.66-2.68-.14-.41.54-4.91.7-5.57.13-.56,1.96-3.53,2.39-3.98,1.05-1.1,3.61-2.09,4.83-3.24.77-1.32-.38-5.97-.27-7.7.07-1.06.85-1.61.92-2.34.09-.96-.61-1.74-.34-3.1.1-.49,1.06-2.26,1.43-2.71,1.36-1.64,4.42-2.76,5.39-4.76.19-.4-.34-1.17.05-1.87.33-.61,1.69-.93,2.23-1.52.41-.44.05-1.11.61-1.61.92-.8,3.04-1.46,4.15-2.15.83-.51,1.94-2.05,2.08-2.06.62-.03,1.26.67,1.91.27.3-.18,3.09-3.36,3.32-3.42,1.22.52,2.25-.08,3.43-.04,1.24.05,4.03.95,4.77.79,1.28-.28,4.87-3.65,6.48-4.3.95-.38,5.1-1.38,6.05-1.42,1-.05,1.7.66,2.52.69,1.01.04,1.46-.87,2.17-.95.94-.11,1.56,1,2.6,1,.8,0,1.35-.73,1.75-.75,1.05-.05,4.52.83,4.94.58ZM43.19,55.64l-3.03,1.19c-3.65,2.01-2.98,6.67-6.04,8.99-2.49,1-1.77-5.88-1.89-7.14-.08-.87-.43-1.69-.44-2.56-.22-.23-4.94,3.59-5.12,3.86-.51.79-.3,2.24-.82,3.09-.45.74-2.93,2.78-3.86,1.86l-.5.96-1.53-.93c-1.19,1.67-.52,2.83-.68,4.26-.3,2.74-4.15,2.75-4.52,4.44.49,2.83-.22,4.57,2.55,5.96,2.97,1.49,5.18.06,7.16.77,1.65.6.87,4.16,3.99,4.13,2.31-.02,5.45-1.34,6.16,2.3,1.92-1.64,5.14-4.16,7.46-4.87,1.69-.52,4.57-.12,6.11-.25.91-.08,1.61-1.2,2.42-1.54.62-.26,4.13-.41,4.57-.21.56.26.55,1,.81,1.17.4.25,1.01,0,1.29.14.53.28.23,1.08.94.87,2.41-1.21,3.73-2.87,5.95-4.44.28-.2.36-.88.56-1,.65-.41,4.27-.52,4.29,1.03,0,.68-1.79,5.22-3.07,4.92,1.84,4.6,5.92,1.33,9.15,1.44l.43,4.07c-2.42.36-5.43,2.88-7.61,3.24-1.34.22-3.9-1.56-5.35-1.68-2.82-.23-2.34-.27-4.8-.86-4.01-.97-4.57-.32-7.99.57-1.1.29-2.21.03-3.22.31-1.15.32-3.16,2.15-4.68,2.25l.42.89c-1.72-.23-2.91,1.09-4.48,1.52-.37.1-4.68.84-4.94.85-.69.03-3.96-.57-4.44-.94l-1.09-3.74c-2.03.89-1.92-.81-2.88-1.31-1.02-.53-6.22-1.57-7.34-1.25-.98.28-1.85,1.17-2.79,1.47-1.13.36-3.76.35-4.63,1.03-.47.36-.41,1.4-.71,2.05-.14.3-.89.27-.9.58-.04,1.45,1.56,3.6.09,5.65l.59,1.06c.24.06,3.89-1.64,4.33-1.92.78-.51,2.33-2.44,3.04-3.03,3.91-3.25,11.85.83,13.31,5.78,1,3.4,1.88,8.95,1.48,12.47-.03.26-1.08,3.32-1.14,4.15-.09,1.19.42,5.6.18,6.44-.42,1.46-4.76,3.61-4.62-.3.01-.41.33-3.62.37-3.81.37-1.47,1.18-6.47,1.24-8.39.05-1.69-.9-3.88-.46-5.8-2.35-.77-2.13,2.52-3.95,2.15-.46-.09-4.26-2.41-4.66-2.77-1.32-1.2-1.97-3.83-4.08-4.03.34,1.24-1.29,2.09-1.24,2.93.03.64.67,1.55.77,2.46.15,1.42.03,6.25.89,6.91,1.28.96,7.04-.31,1.33,4.68.41,1.05,2.85.63,2.95,3.8.06,1.9-1.89,2.58-1.94,3.69-.03.72.21,2.85.33,3.65.16,1.05,1.64,2.82-.12,3.87-1.28.76-2.53-.4-3.39,2.67,2.56,1.11,4.85,2.36,2.18,5.13v.69c1.56-.47,1.73,1.87,2.64,3.04l-1.33,3.46c.6.07,1.18.42,1.65.79,1.52,1.21,2.05,1.97,3.19,3.14.77.79,6.04,3.54,7.08,3.71,1.1.17,4.41.16,5.03-.79.58-.89-.02-2.02,1.41-2.45,2.94-.89,5.81,1.77,7.66,1.22.7-5.27,3.77-.61,4.88-2.35.81-1.27-3.03-5.7-2.01-7.65l3.09-.27.03-2.03c-.15-.6-3.3-1.11-3.58-1.51-.45-.65-.69-3.18.02-3.7,2.86-2.12,6.75,4.87,9.66,4.45.2-3.1-2.9-4.97-2.19-8.37,3.68,0,5.43,3.81,8.52,5.11.65-.49.69-.7.6-1.51-.25-2.27-1.96-4.58-2.37-6.84-.05-2.5,6.58-.26,8.02.29.48.18.52.88.77.97s3.6.25,3.73.11c.72-3.39-2.69-5.17-5.02-6.55-.88-.53-1.61-.75-2.9-1.57-.67-.42-3.91-.89-1.61-2.76,2.91-2.36,13.53,6.11,15.22,3.89-.79-1.53-1.35-3.52-2.97-4.27.7-1.27-.3-.7-1.12-1.36-2.96-2.38-3.1-6.15,1.14-4.94,1.51.43,2.99,2.88,4.47,3.66.64.33,1.21-.12,1.45.04.37.25,4.09,4.23,4.49,4.8.57.81,1.76,2.78,1.78,3.7,0,.43-.44,4.22-.54,4.59-.22.79-1.2,1.33-1.89,1.59-1.83-.15-1.73-7.43-5.03-6.85.03.85.5,2.76.36,3.39-.22.97-2.26,2.01-2.49,2.99-.21.9.39,1.7.29,2.58-.07.67-1.18,5.02-1.44,5.93-.15.53-1.48,3.62-1.79,3.7-2.39-.2-1.54-1.93-1.97-2.89-.07-.16-1.34-2.42-1.43-2.54-.54-.73-3.42-3.67-4.24-2.46.25,3.69,2.03,7.15,1.8,10.95-.05.81-.77.59-.9,1.03-.3,1.01-.22,3.37-1.34,4.08-.38.24-1.52.4-1.74.21-.28-.24-1.19-6.54-1.54-7.44l-2.65-1.83c-1.76,2.17-.39,3.1-.19,4.85.25,2.22-.48,4.62-.02,6.77-1.81-.56-1.36,1.56-2.17,2.12-2.92.77-1.7-2.93-1.92-4.79-.17-1.43-.78-3.13-.81-4.68-4.8-1.67-2.33,3.35-2.85,6.34-.2,1.14-1.41,5.58-2.06,6.18-1.96,1.8-3.92-2.26-5.68-1.95l-3.56,5.02-5.06-3.4c-.41.29-2.49,2.71-2.55,2.9-.19.58.38,4.13.59,4.38.51.62,1.18-.02,1.55.23.55.38.45,1.89,2.58,1.08l.03-1.34c1.91.16,3.56.53,4.48,2.45.28.59.17,1.39.37,1.83.25.53,1.24.61.89,2.15l1.05.52,4.44-6.04c.59-.07,1.45.31,1.89.73.69.66.85,3.36,1.76,2.54,1.24-1.12,2.88-10.18,4.6-9.76l3.5,7.02c-.21,1.28.98,2.84,1.98,3.68.45-1.98-.24-5.96.21-7.67.41-1.58,2.27-3.42,1.98-5.35,2.49-.03,2.41,2.39,3.21,3.57,1.61,2.38,3.5,4.4,3.95,7.72.16,1.18-1.78,7.51-1.47,7.78.6.05,1.36-.29,1.8.29.4.52,1.76,5.1,2.25,6.34.24.62.96,1.04,1.11,1.61.78,2.84-.71,7.85,4.41,5.65.15-1.56-.28-5.18,1.6-5.54,2.92-.56,2.04,4.15,2.52,6.18.96.76,2.8,11.62,4.7,9.66.34-3.84,3.44-1.68,4.16.94.66,2.39,1.11,4.58,2.22,6.95.35.74,1.54,1.19,1.52,2.34l.89-.26.42-2.99,2.68.79,2.14,16.9c1.53.98,3.87-2.62,4.12-2.66,4.01-.63,1.6,5.75,2.17,8.4.25,1.17,1.19,2.07,1.19,3.35-1.9,1.97-.48,1.2-.04,1.93.41.68.7,1.67.88,2.47,1.4.35.94-1.94,2.18-2.56.82-.41,1.77-.21,2.63-.23.36,2.13-.48,4.24-.45,6.25.01.88.27,3.25,1.29,3.08l.03.66c-2.69,1.11-.53,2.74-.52,4.27.01,1.94-.95,2.06.11,5.47,1.62,5.22,1.47,1.41,3.25-.21,3.47-3.16,2.54,2.21,2.43,3.97-.21,3.13-.9,6.44-2.05,9.43-.25.65-1.08.74-1.41,1.31-1.25,2.19-.8,4.35-1.83,6.5l.08.59c3.65,1.4,1.25,4.39.29,6.72-.34.82-.34,1.86-.68,2.54-.42.87-1.26.94-1.36,1.13-.06.1-.06,2.29-.04,2.41.06.37,1.07.27,1.15,1.5.31,4.62-3.68,8.88-4.23,13.45,4.44,1.34-.98,7.74-2.1,10.34-.99,2.3-1.03,4.67-.75,7.14.43.63,3.44-.27,3.72,2.08.12,1-1.76,8.79-2.22,10.19-.63,1.92-2.47,3.58-2.12,5.8,1.16,0,2.88,1.39,3.03,2.62.05.37-.44,4.12-.56,4.97-.23,1.6-.49,3.64-.77,5.23-.06.35-3.1,5.59-3.49,6.07-.24.31-5.39,4.45-5.73,4.62-.55.28-5.69,1.62-5.67,2.34,2.9,3.3,7.44,1.87,10.62-.22,1.17-.77,2.63-2.67,3.67-3.67.34-.33,1.11-.31,1.37-.64.52-.64.09-2.08.16-2.16.26-.28,1.25-.2,1.6-.63.21-.26,1.63-5.55,1.93-6.59.4-1.38-.33-3.09,1.96-3.43,1.46-.21,2,1.86,2.64,3.03.93,1.7.59,1.83,1.27,3.32.89,1.94,3.35,5.07,4.56,7.02.31-1.96,1.04-6.71,2.95-7.34.74-.24,1.58.07,2.31-.34,1.11-.63,2.9-8.68,2.91-10.31.02-3.06-1.74-5.64.25-9.13,1.15-2.02,4.76-.6,6.09-3.81.61-1.48-.64-5.26-.5-7.46.17-2.73,1.18-5.64,1.56-8.36.19-1.37-.09-3.75.22-5.35,2.07-1.16,1.53,3.79,2.74,4.99.58.58,1.75.6,2.52.58.11-5.99-2.79-11.74-.66-17.68l1.99-.24.94,3.42,2.56.55-1.65-16,2.32-2.17c1.01-.15,1.01,2.49,2.83,1.88.75-5.15-4.04-11.18-.22-15.34.33.85,3.59,6.46,3.96,6.53,1.14.21,2.25-1.67,2.24-2.58,0-.77-1.52-2.41-1.92-3.37-1.31-3.19-4.54-10.47-4.85-13.51-.1-1.02.39-1.67.37-2.16-.01-.36-1.53.15-.56-2,.27-.6.76-1.06,1.2-1.51-.12,1.24,2.86,1.43,2.4.24-.38-1-1.64-2.9-2.21-4.17-1.24-2.81-1.75-4.89-2.52-7.51-.87-2.97-1.55-3.6-2.9-5.76-.15-.23-1.93-4.72-1.99-4.99-.24-1.12.12-2.66-.01-3.86,3.01-.21,4.47,2.54,5.48,5.12.42-.32.29-1.58.19-2.06-1.31-6.22-6.1-13.91-8.26-20.16-.61-1.77-.84-3.91-1.8-5.68,2.5-.78,4.05-.48,6.1,1.2,1.8,1.47,4.95,7.72,6.14,8.32.36.18,1.02-.23,1.46-.11.79.21,1.24.93,2.07.82.28-1.13-.45-1.79-.7-2.67-.55-1.9-1.53-4.21-3.24-5.94-1.47-1.5-3.43-2.26-4.93-3.47-.36-.29-2.18-1.74-2.28-1.87-.25-.34-2.35-4.69-2.37-4.97.72-3.02,6.19-.04,6.72-.15,1.78-.37-.4-2.11-.66-2.56-.54-.94-.54-1.91-1.57-2.98-1.33-1.38-4-2.07-3.24-4.7l-3.25.02-.61.65.34,2.11c-2.3.94-2.07-.7-3.06-1.97-3.88-5-3.54-10.25-6.27-16.04-.12-.26-.82-.33-.98-.6-.29-.48.23-1.03.1-1.31-.05-.1-1.56-.37,0-1.51,1.96-1.43,6.15,2.62,7.15,4.42.74,1.31,1.95,6.12,2.21,6.31.15.11.86-.39,1.29-.21.69.29,1.07,1.86,2.18,1.61-.24-1.32.25-2.77.22-3.98-.06-2.44-2.09-9.09-2.94-11.51-1.62-4.66-3.97-9.09-4.29-14.27,3.25-1.7,4.7,1.92,6.61,3.42.88.69,2.43.76,3.24,2.04l1.56-1.07c-1.18-2.3-1.95-5.04-3.24-7.26-1.47-2.51-3.58-4.8-5.36-6.64-2.08-2.14-3.86-5.8.7-4.72.59.14,5.59,2.33,6.23,2.74,1.36.86,3.21,4.72,5.11,3.5,1.09-.7-1.16-7.58-1.84-8.62s-3.46-3-4.12-3.98c-.1-.15.34-.71.29-.78-.16-.23-3.81-2.55-4.42-2.97-4.88-3.36-11.63-6.64-17.74-6.82-.9-.03-1.51.23-2.34.44.6.63.9,1.93,1.3,2.44,1.71,2.19,5.54,5.3,6.59,7.21.71,1.3,2.01,3.47.66,4.77-2.17,2.09-4.2-1.97-5.51-3.01-1.55-1.22-5.07-3.49-5.04-.02.03,3.2,2.32,3.9,3.98,5.33.65.56.94,1.61,1.39,1.9.58.38,1.46.1,1.89.77.56.88.7,3.22,1.12,4.28.52,1.33,2.38,4.24,2.73,5.47.19.66.5,8.31.3,8.95-.11.35-1.06,1.77-1.37,1.87-2.19.7-2.77-4.18-3.05-5.55-.17-.85.29-1.64.04-2.3-.8-2.1-2.88-3.22-4-4.85-4.3-6.25-2.69-6.48-10.34-9.64-.36-.15-.93-2-2.57.25-1.36,1.86,3.06,6.49,3.91,8,.99,1.74,2.53,4.48,3.32,6.25.26.57,2.38,5.91,2.36,6.25-.03.38-.92.77-1.1,1.46-.1.38.25,1.03.11,1.57-.68,2.59-.88,6.08-3.97,3.73-.65-2.02.56-3.69-.32-5.71-1.22-2.83-2.88-6.6-4.34-9.36-.5-.95-3.85-7.34-4.71-4.19-.02,2.86,1.89,6.69,2.06,9.35.06.95-.45,1.8-.39,2.69.06,1,.92,1.7.84,2.23-.13.98-1.99,3.11-1.24,4.98-2.17,1.08-3.88-2.95-4.15-4.6-.27-1.7.3-1.02-.53-3-.31-.75-.79-3.01-.98-3.38-.51-1-3.8-4.64-4.54-2.85-.8,1.95,3.5,9.84-.1,11.95-1.92-2.83-3.03-5.59-1.94-9.06.63-3.81-11.46-12.78-11.42-14.37,0-.34.43-2.1.69-2.18,3.15-.23,4.65,2.07,6.79,3.48,3.22,2.11,3.7,1.98,6.39,5.08.41.48.34,1.87,1.68,2.16,1.58-1.79,1.5-3.11.6-5.19-.98-2.26-3.45-5.38-4.94-7.66-.75-1.15-2.22-1-1.58-3.42l8.57,2.31c1.41.06,2.11-.81.97-2-1.49-1.55-10-6.01-6.7-9.17,2.2-2.11,4.56,1.28,6.8,0,.13-2.52-2.68-2.51-3.81-3.4-.53-.42-2.33-3.33-2.16-4.05.78-3.2,3.79-1.72,5.73-1.84,1.5-.09,2.66-.97,4.08-1.09l5.54-7.34c.33-1.08-.04-2.84.25-3.8.18-.6,1.26-.63,1.3-1.03,0-.09-.63-.93-.75-1.53-.66-3.33-1.02-6.65-1.53-10-.36-2.36-.37-3.73-.67-5.79-.39-2.66-.6-4.43-3.3-5.82-.31-.16-4.62-1.33-4.87-1.31-.27.02-.2.82-.53.92-.71.22-2.36-.19-3.76.52-3.33,1.7-5.65,8.77-6.37,12.41-.21,1.05.33,4.66-1.19,4.3s-1.21-3.15-1.98-4.42c-1.08-1.76-2.47-1.76-3.9-2.84v-1.54s3.71-1.42,3.71-1.42c.26-4.35-7.04-1.59-7.92-3.71s1.89-2.56,3.27-1.89c1.18-4.6-.7-6.09-3.76-2.35-4.15-1.29-.13-6.17-1.1-7.8-2.17-1.57-2.32.71-2.85.86-.35.1-1.65-.56-2.08-.41-.85.3-.16,1.09-.51,1.37-.26.2-3.59,1.38-3.82,1.33l-1-1.38,2.31-5.34c-.15-1.05-3.16-1.64-4.04-.69-.63.69-.41,1.93-.78,2.66-.07.14-2,2.32-2.14,2.38-.22.09-2.29-.34-2.45-.47-.2-.16-.94-2.98-.92-3.42.05-1.01,1.63-2.51,1.27-3.93-1.38.97-2.21-.21-2.86-.25s-4.26,2.81-4.47,3.17c-.37.64-.08,2.72-1.58,2.59-3.1-.28-.08-4.83-2.27-6.42-.53.98-1.61.35-2.2.86-.45.39-3.7,4.74-4.01,5.31-.51.92.15,2.8-2.03,2.11-1.55-.49-1.67-4.28-1.63-5.72.04-1.35.81-2.91.45-4.44ZM169.54,149.38c1.03-1.01,1.59-1.32,1.05-3.17-.17-.57-2.93-2.69-3.44-2.88-1.83-.68-5.96,1.61-4.74,4.36,1.55-.19,2.14,1.72,3.01,2.14.48.23,3.3.25,3.71.13.28-.08.23-.42.41-.59ZM200.81,145.09c-.19-.11-3.98-.37-4.37-.34-.49.05-3.1.94-3.51,1.17-.61.35-.73,1.12-1.21,1.64-.62.67-1.66.34-1.34,1.58,1.44.06,2.08,1.43,3.32,1.87,1.39.5,4.33.28,6.03,1.02.65.28.6,1.19,1.04,1.31.76.21,1.92-.14,2.76-.01-.1-2.19.58-3.03-.38-5.39-.11-.27-2.18-2.76-2.33-2.85ZM184.14,153.96c-.74-.37-3.84-.62-4.81-.51-1.53.18-1.55,1.38-2.94,1.3-.32,5.21,11.52,5.47,9.18-.48-1.52,1.07-1.21-.2-1.43-.31ZM60.34,176.08c-.28-.18-1.84-5.25-3.79-5.52-.5,1.53-1.85,1.31-2.63,2.33-.94,1.22.15,4.86.21,6.75.11,3.74.11,7.08.41,10.69.17,2.14,1.46,3.42,3.32,3.96l.93-1.42,1.88.54c.27.32.36,7.33.51,8.53.12.94,1.2,1.51.46,2.97l2.14,1.01c.75-1.34.45-4.48,1.44-5.45.36-.35,1.99-.72,2.5-.39,1.8,1.18.74,6.08.89,8.39.06,1.01.38,3.02.65,3.97.17.6.08,1.12.87.92,1.65-.94,1.31-9.45,2.06-10.6.65-.99,2.48.08,2.89,1.18,1.02,2.8,1.74,6.98,3.02,9.77.34.74,1.14.68,1.37,1.35.96,2.8-1.52,8.86,2.7,8.52l1.29-6.69c3.74-1.27,2.99,5.2,3.38,7.67.35,2.24,1.87,7.84,1.48,9.88-.07.38-.69.29-.76.55-.66,2.29-.97,3.87-2.54,5.81-3.15-.47-1.54-4.18-1.57-6.76-.01-1.33-.42-2.61-.39-3.94-3,1.31-2.43-1.33-4.59-2.32-1.46,1.09-.82,2.92-1.21,4.31-.33,1.18-1.78,2.24-1.21,4.06l3.26-.94c.31.02.51.93.49,1.19-.14,1.84-1.94,4.94-1.88,7.53.05,2.15.67,3.82,0,6.54-.55,2.19-2.15,3.27-2.27,3.66-.41,1.36.69,3.62,2.13,3.88.41-2.47,2.91-1.61,3.06.73.31,4.78-3.07,6.81-3.31,10.43-.08,1.18.54,1.55.58,2.22.14,2.05-1.11,5.81-2.89,6.69l2.12,5.24-3.45,10.33c-.35,1.59,2.11-.21,2.59.42-.37,5.1-3.09,9.54-3.51,14.65l2.18-.93c.69,2.21-.24,3.97-1.19,5.92-2.32,4.79-2.84,6.89-4.53,11.87-.17.49-1.46.44-.78,2.86.26.92,1.08.29,1.18.38,1.49,1.4-.88,3.75-1.43,5.04-.72,1.7-1.39,3.12-2.11,4.78-.43.98.02,2.63-.41,3.7-.16.39-3.28,2.72-4.03,3.64-.93,1.15-3.01,4-2.05,5.32,1.67,2.32,4.11.73,5.95-.73,2.9-2.29,1.18-2.42,1.6-4.77.21-1.17,2.21-3.14,2.15-4.29l-.9-.93c2.95-1.26,3.02-4.31,4.15-7.21l1.95,1.22-.84,6.68c1.69,1.85,3.99-7.14,4.4-7.42l1.31.19.35.57-.88,7.77c-1.99.66-5.48,6.35-3.79,8.11.23.24,4.82,1.43,5.34,1.36,2.58-.33,2.16-2.99,2.66-4.55.33-1.05,2.5-3.35.28-3.73l-.04-.89c2.16-.3,1.26-3.92,1.98-5.58.44-1.02,1.93-1.11,2.23-2.3.32-1.28-.44-6.71-.22-6.97,3.26.52,2.33-5.81,2.6-6.08.22-.22,1.42.48,2.1-.8,1.3-2.45-2.71-11.32,3.58-8.52.73-3.31.74-6.77-.46-9.96,1.81-.95,1.53-2.79,3.97-2.13.16-1.84-.02-6.58.52-8.05.26-.72,1.16-.86,1.62-1.53,1.12-1.64.43-5.68.92-7.76.12-.49.91-.45,1.16-.99.32-.69.18-4.4.58-6.11,1.37-5.75,2.94-2.23,4.32-3.09,1.22-.76,1.18-3.33,1.47-4.28.2-.66,1.13-.59,1.25-1.08.81-3.33-.8-5.98-1.29-8.79-.35-1.99-.49-13.54-1.05-14.05-.21-.19-.83.06-1.21-.41-.28-.34-3.48-7.42-3.69-8.12-.81-2.63,1-6.66-3.69-5.1l-4.64-16.28-.48-.37c-5.17,1.56-5.43-6.28-7.2-9.84l-3.05,2.14c-2.26.79-2.83-3.31-4.4-4.31.87-2.3-.3-1.89-.41-2.33-.19-.74-.31-4.61-.45-4.79-1.27.11-1.09,1.09-2.54.64-.52-.16-2.58-2.05-2.91-2.52-1.47-2.11-3.91-8.87-3.72-11.32.07-.91,1.14-4.36.84-4.95-.65.29-3.72.48-3.96.71-1.23,1.17-.53,3.47-4.36,2.54.67-.58-.7-3.88-.94-4.1-.33-.3-1.24.11-1.62-.14ZM73.69,214.84c-.79.16-2.17,4.72-2.25,5.71-.12,1.53.5,6.98,2.62,6.8,1.34-.08.75-1.28,1.06-2.12s.89-1.75,1.09-2.53c.43-1.68-.49-4.39.56-6.35-.09-.61-2.55-1.62-3.09-1.51ZM39.14,347.91c-.18-.15-4.24-1.09-4.47-1.05-.91.13-1.39,1.06-1.99,1.65,0,.86,6.14,2.35,6.99.47-.35-.23-.31-.88-.53-1.07ZM48.76,353.98c-.96-1.11-6.64-1.2-7.88-.57-.36.18-.37.53-.34.9-1.38-1.48-2.94-.26-4.67-.19-1.37.06-3.89-.21-5.03-.03-.83.13-.75,1.15-1.09,1.18-3.03.26-6.44.76-9.16,2.77-1.68,1.24-1.41.96-3.36,2.01-.27.14-4.49,3.85-4.59,4.15-.55,1.54.55,2.47,1.84,2.91,2.45.83,2.95-1.48,4.66-2.73,9.53-6.99,15.06-6.82,25.99-7.37,1.36-.07,2.82-.29,4.19-.36.14-.21-.32-2.38-.56-2.66ZM41.85,362.26c-1.16.17-1.74-1.07-2.6-1.27s-2.25.79-3.29.78c-.86,0-1.64-.59-2.6-.48-4.88.56-11.02,4.82-13.91,8.76l-.78-.38-.85,2.92,1.29,1.08c1.86-1.56,3.53-3.05,5.65-4.26,2.64-1.51,4.51-1.97,7.24-2.57,3.35-.73,6.41-3.2,9.87-3.22l-.03-1.36ZM214.78,362.36c-.44-.19-8.8.34-9.53.54-2.3.61-1.31,1.51-1.75,2.11-.05.07-.8-.42-1.63-.17-1.28.38-1.57,1.39-2.32,1.79-.62.33-1.94-.13-2.73.32-.85.48-.65,1.39-1.2,1.99-1.3,1.42-2.81,1.36-2.14,4.42,2.16.62,4.5.29,6.55-.67,1.82-.85,1.22-1.76,1.99-3,1.41-2.26,4.46-.74,6.43-1.46,1.37-.5,3-1.12,4.64-1.68.46-.16,3.47-1.39,3.59-1.54.09-.12.07-1.18-.21-1.41-.79.09-1.59-1.2-1.68-1.24ZM328.44,370.09c-.16-.13-.16-1-1.05-1.46-.23-.12-4.68-1.05-4.94-1.07-.59-.05-1.45.66-2.22.69-1.91.09-3.95-.3-5.69.46l-.4-.89c-2.88,1.27-9.03,3.21-10.75,6.38-.41.76-.47,1.61-.42,2.45,2.7.26,4.54-2.38,6.92-3.58,4.76-2.42,10.02-1.75,15.19-1.4,1.28.09,8.43,1.39,8.99.8-.05-.83-2.09-2.91-2.6-3.06-.98-.3-2.89.79-3.03.68ZM87.87,370.14c-.59-1.83-1.64-.79-2.71-1.02-4.16-.89-12.95-.75-16.68,1.5-.48.29-.77,1.17-1.96,1.73s-2.5.53-3.6,1.3c-.74.52-3.66,4.35-3.52,5.09l1.1.71c.44-.38.55-1.03.99-1.4,3-2.5,7.59-2.04,10.98-4.5l15.41-3.41ZM87,374.8c-1.99-1.3-2.76-.16-4.19-.04-4.11.33-7.25.53-10.88,1.97-1.39.55-3.25.66-4.2,1.11-1.97.92-5.72,6.14-6.12,8.38-.19,1.07.07,2.36-.02,3.47,2.66.4,2.22-.95,3.04-1.98,5.86-7.37,11.92-8.97,20.44-11.45l1.92-1.45ZM77.07,387.05c3.59-2.5,6.67-2.24,10.51-3.16,2.2-.53,7.66-1.29,6.81-4.58-.72-2.77-5.89,0-7.4.35-1.61.37-3.76-.33-5.24,1.34-2.71-.61-4.44,2.16-6.69,2.79-.82.23-1.56-.22-1.61-.15-.1.14.02.92-.29,1.33-.81,1.04-2.98,2.31-3.16,3.63.61,1.31-.28,7.06,1.45,6.65.17-.6,1.83-1.85,1.88-1.98.72-1.68.62-1.43,1.61-3.17.72-1.26.29-1.78,2.13-3.06Z"/>
        <path d="M141.94,251.77c1,1.06,2.85,2.39,3.5,3.5.28.48,2.34,6.87,2.35,7.25.02.77-.64,1.34-.63,1.77.02.51,1.08,1.25,1.04,1.87-.04.65-1.62,1.09,0,1.25l-.34,3.61c-3.64.37-3.95-5.36-5.01-7.89-.22-.54-3.18-7.27-4.17-6.04.45,2.19-1.2,4.6-.81,6.63s2.92,2.94,2.56,5.46l.87-.47c-.53,1.62.61,1.74.84,2.23,1.38,2.98,2.89,9.98,2.89,13.36,0,1.52-1.05,3.44-1.07,5.14l-3.54.21c.72,3.96,1.19,7.57.88,11.63-1.33.29-3.58-.51-4.16-1.87-.63-1.48.69-3.18-.68-5.65-.36-.65-1.81-1.53-2.01-1.93-1.15-2.31-2.78-7.28-2.79-9.87,0-1.32.63-2.59.46-3.94,3.15-.52,2.27,2.78,3.1,4.76.28.66,2.62,2.41,3.2,3.2.7.95.91,2.85,2.03,2.98l-1.32-4.65.87-.5c-.2-2.17-.55-4.53-1.12-6.2-.76-2.21-1.83-1.09-2.31-1.5-.26-.22-1.82-5.57-2.12-6.46-.89-2.69-1.55-2.19-.55-5.67.13-.47.98-.29,1.05-1.98.13-3.27-.91-3.22-1.7-5.31-.43-1.14-1.18-5.97-1.16-7.27s.34-6.31,1.55-6.29c1.99.31,2.15,2.26,3.06,3.29,1.65,1.88,3.53,3.55,5.24,5.36Z"/>
        <path d="M133.61,214.57c3.18,3.06,7.4,6.69,8.91,11.22.89,2.66-.17,7.51.42,10.26.6,2.81,2.69,6.71,3.14,9.68.24,1.55-.27,5.22-1.99,5.7-2.28.64-1.1-3.27-1.58-4.47-.18-.44-5-6.87-5.56-7.39-1.18-1.09-.34.01-1.75-1.8-.53-.69-2.39-2.61-2.59-.94-.14,1.18,1.08,3.04-1.16,4.43-.43-.92-2.57-1.93-2.75-2.6-.1-.37.3-1.08.14-1.6-.31-1.06-.98-1.88-1.25-2.86-.39-1.41-1.87-8.48-1.19-9.21.89-.05,1.65-.13,2.44.43,1.05.74,2.79,4.08,3.52,4.67.54.44,4.63,2.06,5.41,2.6.41.28.58.97.9,1.38l.88-.48c.07-.35-1.35-4.16-1.66-4.74-.27-.5-2.88-4.32-3.14-4.57-.96-.92-2.58-.74-2.99-1.25s-1.13-4.49-1.5-5.61c-.41-1.23-3.37-5.77-.95-6.28,1.9-.4,3.27,2.47,4.28,3.45Z"/>
        <path d="M109.63,80c.44.53,1.36,2.24,1.3,2.86-.08.81-1.3,2.84-2.23,2.57-.21-.06.01-.83-.86-.98-4.96-.85.39,2.84,1.04,3.59.12.14,1.8,2.96,1.85,3.14.61,1.95.99,5.71.56,7.72-.14.64-2.58,5.54-2.86,5.8-2.23,2.13-9.23,3.39-9.14-1.32.04-2.45,2.26-.92,3.23-3.55,1.1-2.98-1.56-2.91-1.88-3.79-.15-.41.3-.8.31-1.07.01-.3-.7-.16-.79-.55-.17-.75-.06-3.37-.53-3.78-.53-.45-2.13.33-2.79-1.93-.79-2.72.36-4.51,2.06-6.26,1.03-1.06.57-.63,1.22-1.43,2.31-2.87,7.07-3.93,9.52-1Z"/>
        <path d="M135.04,181.41c1.11,1.14,1.8,3.3,2.48,4.35,2.69,4.13,3.04,3.81,4.51,9.03.26.91,1.1,1.59,1.25,2.67.21,1.53-.13,4.47-2.12,3.8-.54-1.17-1.51-1.73-2.49-.63-.5,2.18.59,3.14.87,4.61.14.73-.08,1.56.05,2.28.26,1.46,3.19,9.31-1.02,6.76-3.16-1.91-4.48-8.48-5.99-11.33-.28-.54-1.09-.14-1.27-.35-.16-.19-1.26-3.44-1.81-4.38-.93-1.61-4.5-4.94-.23-4.91,2.45.02,3.19,1.78,3.6,1.89,3.16.85,1.73-2.16,2.25-4.12-2.71-.76-2.3-3.98-2.81-5.69-.36-1.22-1.66-2.63-1.54-4.31,1.33-1.22,3.08-.88,4.26.33Z"/>
        <path d="M133.96,303.5c.17.25.85.22,1.13.9,1.39,3.35,1.76,10.11,1.17,13.7-.34,2.08-2.09,1.99-2.33,3.04-.15.65.44,2.05.4,3.15-.03.64-1.18,5.14-1.38,5.32-2.04,1.78-3.74-5.13-4.31-6.25-.78-1.54-3-3.52-3.65-4.98-1.26-2.84-1.95-6.35.11-8.98.45-.37.88-.26,1.34,0,1.04.59,2.48,7.33,4.37,8.4,1.43.7.46-4.42.44-5.12-.04-1.43.63-2.42.35-4.07-.41-2.46-3.13-5.39-3.68-8.03,1.01-1.93-.85-6.5,2.58-5.25,1.02.37,2.9,3.82,3.26,4.93.32.99.12,3.11.21,3.24Z"/>
        <path d="M101.35,169.28c.36.18,4.59,5.66,5.1,6.43,2.34,3.51,3.96,6.96,3.56,11.38-.13,1.38-1.78,2.45-.67,4.4-3.06.77-3.3-5.28-5.11-6.43s-3.78-1.43-4.81.81c-.47.15-1.42-.18-1.79-.55-.24-.24-3.1-5.31-3.4-5.96-.05-.11-.71-1.87-.74-1.99-.23-.94-1.05-5.19-.36-5.67,4.41-.84,3.92,2.98,7.01,3.97l-2.62-6.51c1.09.19,2.92-.35,3.84.12Z"/>
        <path d="M57.94,96.74c.48.4,1.11,1.72,1.88,2.42,1.13,1.02,3.03.83,2.65,3.15-.14.86-2.7,1.72-3.05,1.99-1.32,1.05-2.54,2.93-4.4,3.25-1.73.29-3.95-1.06-5.73-1.43-.63-.63.06-1.56-.26-2.45-.27-.76-1.93-.6-.59-2.9l-3.26,1.67-4.62-.52c-.28-2.28,4.23-4.35,5.66-5.69.68-.63,1.01-1.9,1.21-2,2.19-1.22,8.61.94,10.51,2.51Z"/>
        <path d="M82.74,166.25c.08.15.77.13.75.33-.02.29-.67,1.24-.77,1.99-.21,1.56-.64,8.36-3.6,6.41-.95-.62-.8-2.01-1.03-2.46-.09-.17-.74-.26-1.06-.89s-.12-1.83-.75-2.49-3.16-.52-.68-1.58c-.78-1.38-.91-3.16-1.33-4.56-.12-.4-.71-.34-.81-.71-.43-1.59-1.15-6.63-.78-8.12.32-1.29,1.7-2.55,1.63-4.09,1.86-.22,2.74,2.01,3.49,3.49,1.17,2.28,3.82,7.4,4.6,9.55.39,1.08.23,2.93.34,3.13Z"/>
        <path d="M90.5,93.32c.31.3-.26,5.13-.52,5.71-.42.93-1.43.96-1.87,1.75-1.02,1.83-.05,2.3-2.55,3.82-3.27,1.99-7.3,3.11-10.67,4.88-1.75-.83-7.5-.74-6.51-3.57,1.28-3.64,6.06-.72,8.96-2.64.3-.2.37-.89.57-1.03.21-.15,3.12-.74,4.63-1.82,2.51-1.81,3.37-5.45,6.35-6.74.54-.23,1.02-.49,1.63-.37Z"/>
        <path d="M86.56,87.74c.42,3.44-.66,6.17-2.19,9.07l-10.44,3.24c-1.36-.13-7.56-.72-7.93-1.89-.23-.74.45-2.39.99-2.82,2.62-2.1,9.9.64,13.58-1.63,1.74-1.07.97-5.18,4.24-4.11l-.44-1.39,2.19-.47Z"/>
        <path d="M86.71,160.16c-.55-.71-4.86-8.32-5.19-9.18-.2-.5.05-.9.21-1.34l-1.73-.72c1.7-1.6.01-2.25-.02-3.25,0-.13,1.21-.69,1.22-1.95,0-.69-.45-.83-.52-1.09-.75-2.64,3.13-.08,3.94.91,4.24,5.19,3.52,8.44,4.74,14.59.12.6.78,1.08.74,1.95-.1,1.88-2.54,1.18-3.39.09Z"/>
        <path d="M91.67,114.42c.09.11,1.33,2.36,1.37,2.5,1.16,4.11-3.68,6.06-5.2,4.11-.31-.4-.25-1.23-.52-1.52-.95-1-2.77-2.62-4.02-3.87-1.75-1.75-4.46-2.68-5.06-5.56,4.03-.69,10.7.91,13.43,4.34Z"/>
        <path d="M127.29,352.92c-1.35,1.2-1.8-2.01-2.16-2.57-.87-1.35-2.92-2.76-3.96-4.17-2.21-2.99-3.76-6.3-1.48-9.57,3-2.35,5.42,5.54,7.35,7.06.76,1.6,1.33,8.29.25,9.26Z"/>
        <path d="M127.5,327.64c.51,1.47.31,2.04.56,3.8s.71,3.27,1.02,4.93c-3.28,2.29-4.75-2.71-6.04-5.18-.26-.5-.75-.6-.94-.99-1.25-2.59-.95-5.64-.45-8.41,3.77-1.1,4.79,2.8,5.85,5.84Z"/>
        <path d="M40.92,115.59c-.02.06-.69.02-.95.66-.56,1.38-.51,3.54-1.13,5.35-.55,1.59.02,3.33-2,3.41s-2.78-.59-2.56-2.75c.27-2.52,2.07-10.16,3.18-11.96s2.78-2.49,3.37.09c.06.26.17,4.96.08,5.21Z"/>
        <path d="M35.3,144.04l-2.52-.58c-.9-1.24-.31-2.92-.55-4.21-.11-.6-3.14-1.83-1.5-4.03.56-.75,1.49-.63,1.85-1.09.29-.36-.21-1.72,1.72-1.59.5.03,2.57,1.33,2.99,1.72,2.71,2.59-2.3,6.79-1.98,9.78Z"/>
        <path d="M115.61,171.34c.17.28.8.38,1.07.93.96,1.94,3.53,7.64-.13,8.05-2.49.28-1.87-1.8-2.42-3.47-.6-1.79-2.44-6.7-1.31-8.36,1.38-2.02,2.67,2.64,2.79,2.84Z"/>
        <path d="M26.23,134.59c.54.39,1.54.44,1.65.91-.22,1.71.25,3.9-.02,5.51-.35,2-3.69.43-3.88.16-.21-.29.09-1.16-.18-1.66-.1-.18-.75-.34-1.06-.96-.79-1.56-1.08-4.11.75-4.98,2.23-1.06,2.07.52,2.75,1.01Z"/>
        <path d="M92.16,108.58c-1.08,1.97-6.05,0-5.6-1.96,1.71-3.17,7.42-1.37,5.6,1.96Z"/>
        <path d="M92.87,245.66c-.29.24-.07,1.13-1.19.67-.7-.29-.91-.73-1.06-1.47-.09-.43-.09-8.45,0-8.88.13-.58.86-.89.94-1.2.22-.92.09-2.53.7-3.74,1.04-.93,2.57,2.02,2.62,3.06s-.74,1.79-.71,2.28c.02.34.68.94.74,1.84.19,3.05.25,5.53-2.04,7.44Z"/>
        <path d="M98.26,241.81c.79-.23,1.52-.2,1.8.7.94,3.01,1.01,9.92-1.69,11.99-3.04,2.34-2.25-1.66-2.27-3.21,0-.75-.41-1.51-.36-2.34.12-1.81.61-6.59,2.51-7.15Z"/>
      </g>
      <g>
        <path d="M293.77,134.74l-1.21,1.85c-5.1,1.06-9.78,3.38-14.58,5.28-2.24.89-.89.65-2.38,1.76-.37.27-2.85.69-3.73,1.2-.63.36-2.34,2.92-3,.77-.63-2.07.5-1.82.79-2.36,1.04-1.96,3.31-5.51,4.86-6.84,1.13-.97,3.24-.89,4.14-2.58l.65.92c-.18-1.3,1.08-.88,1.64-1.26.69-.46,1.18-1.51,2.31-1.71,1.34-.24,3.37,1.21,4.64,1.53,1.9.49,3.92.08,5.87,1.44Z"/>
        <path d="M314.25,2.47c.11-.07.07-.7.41-.78,4.21-1.08,7.76-.53,11.78.88.76.27,1.23,1.16,1.81,1.34,1.49.45,3.87.14,5.9.71,2.91.81,4.83,2.85,8.49,3.55,1.21.23,2.56-.18,3.83.12,1.98.47,6.58,4.92,8.39,6.44.41.34.6,1.34,1.12,1.64.25.14,3.51-.99,5.65,0s1.76,1.65,2.64,2.77c.5.64,2.83,1.91,3.9,3.29,2.65,3.43,2.69,5.07,4.26,8.53.38.84,4.34,4.62,5.21,5.15,3.26,1.99,5.56,1.79,7.72,6.25,1.08,2.23.56,3.41.85,5.06.05.29.43.22.66,2.43.67,6.37,2.5,5.07,4.56,9.43.22.46,1.28,2.58,1.3,2.73.13.84-1.15,1.3-1.16,1.77,0,.15.87,1.26.82,2.81-.07,2.3-2.45,3.84-.92,6.74l1.27-.44c2.91,3.7,2.99,7.69,1.98,12.28-.24,1.11-1.93,4.06-1.94,4.67,0,.38,1.99,4.44,2.16,6.09.11,1.04-1.14,6-1.73,6.83-.38.54-.97.18-1.34.63-.45.55-1.05,2.54-1.67,3.27-.11,1.14,2.6,2.13,3.21,3.44.23.49.35,4.66.23,5.23-.08.39-.77.39-.87.64-.33.92-.4,2.06-.78,2.81-1.05,2.08-2.71,3.69-4.08,5.49-.19,1.34,2.71,5.08,2.07,7.22-.32,1.05-1.24,1.12-1.57,1.74-3.02,5.66-3.7,10.94-9.42,15.46-1.33,1.05-5.79,2.41-5,4.83.22.66,1.59.62,1.68,3.38.05,1.6-1.12,3.3-2.31,4.17-1.42,1.05-4.51,2.23-6.31,2.78-1.02.31-1.59.28-2.8.44-1.92.25-2.05,2.57-2.92,4.26-.4.77-2.18,2.53-1.77,3.32.64,1.05,3.45,2.13,3.76,2.53.19.24,2.1,5.35,2.21,5.83.41,1.77-1.26,8.3-3.73,7.22l-9.6-9.38-2.78-1.01.7-1.41-2.84-5.75c.04-.19,2.83-2.3,3.01-2.39.46-.21,2.08,1.25,3.1-.07.15-.19,1.32-2.97,1.31-3.15-.01-.22-2.96-1.7-2.22-3.51,3.99-1.54,7.74-.22,11.67-1.78l5.42-2.88c-.44-3.29-4.18-2.6-6.58-3.72.27-3.5,4.77-2.7,6.99-3.51.49-.18,5.11-3.86,5.49-4.39.26-.35.29-.48.22-.94-6.64-.43-1.39-6.37,2.61-6.55l-.42-.89,1.23-.1c.29-1.48,2.03-2.11,2.63-3.96.86-2.65-2.3-2.72-3.95-4.31-.71-.69-1.86-2.18-.42-1.92l-.36-1.34c4.07.32,9.8-4.93,8.26-9.48-.19-.55-.89-.57-1.13-.91-.27-.39-.05-1.16-.12-1.24-.17-.19-3.34,1.6-3.04-2.53.19-2.66,1.87-3.09,2.83-4.44.85-1.21,2.2-4.91,2.26-6.35.1-2.35-1.13-3.88-3.35-2.96-.91-2.56.52-2.81,1.24-4.01,1.88-3.14,4.48-6.5,3.13-10.41l-5.93,5.59-6.76,4.98-.45,5.25,2.63-.25c2.69,4.24-2.66,3.88-3.35,5.53-.54,1.29-.13,2.73-.68,4.15-.86,2.24-1.74,3.96-2.6,6.48-.16.46-.85.3-.87,1.06-.03.89.34,1.72.51,2.56,3.94-.67,4.46,2.58.97,4.56-2.46,1.4-5.37.05-5.71,4.17-.38,4.5,3.78,3.08,3.84,5.98.02,1.14-2.09,3.15-2.94,3.38-.97.26-1.74-.49-2.46-.42-.28.03-.3.8-.61.92-1.64.63-8.23,1.16-6.45,4.22.06.1,1.42,1.53,1.51,1.58.16.1,4.13.33,3.07,1.66-1.26.33-2.35,1.49-3.74,1.44-.98-.04-1.59-.97-2.09-.89-1.43.22-4.24,2.94-4.68,4.57.75.51,3.98,1.01,3.47,2.3-1.44,1.42-2.94.47-4.76,1.23-1.23.51-2.4,2.8-3.98,3.22l.23,1.17,2.85-.26c1.84,3.83-3.54,3.04-5.82,2.93-1.92-.1-1.57.07-3.15.15-1.88.09-3.78-.18-5.66.03l-.51.4c.29,1.26-.96,1.98-1.04,2.24-1.41,4.3.45,4.53,3.37,6.46,5.89,3.89,10.81,7.92,14.62,14.3.54.9,3.35,3.35,3.8,4.11.16.28-.26.93-.08,1.28,1.3,2.57,4.52,9.01,4.13,11.85-.22,1.6-2.17,1.2-3.17.69-.77-.39-3.84-3.51-4.72-3.9-1.43-.63-3.43-.36-4.98-.73-.19-.05-.25-1.66-2.45-.2-.42.28-.51.98-.9,1.3-.2.17-1.2-.1-1.31.53-.3,1.72,3.03,1.39,4.03,1.76.89.33,1.63,1.25,2.54,1.52.58.17,1.27-.32,1.31-.26.08.12-.21.87.29,1.43,2.05,2.28,6.59,2.82,6.6,7.73,0,3.59-2.84,1.93-4.48,3.39-.71-1.28-.84-1.65-2.41-1.39l-.03,2.07c1.71,0,1.78,1.08,2.36,1.5,1.93,1.42,5.59,3.76,4.53,6.83-.18.53-1.47,2.03-1.89,2.11-1.11.2-2.79-2.13-3.12-2.26-.7-.26-4.5-1.06-4.87-.42-.56,2.19,1.91,3.17,3.18,4.21.44.36.58.96.84,1.17,1.16.91,2.89.52,3.3,3.3.51,3.51-2.63,2.96-4.56,3.8-.14.23.36,2.55.16,3.08-.16.42-.97-.1-.79.67,2.87.02,1.41,2.54.82,4.11-1.84.03-3.34.99-4.97-.21l-4.61,1.69c.54,2.47,4.12.87,4.74,4.07.19,1-1.07,3.08-1.98,3.31s-1.4-.61-2.1-.67c-.54-.05-3.76,1.07-4.02,1.78-.91,2.48,1.96,2.11,3.18,3.59.06.13-.56,2.29-.67,2.49-.25.46-5.16,1.8-6.08,2.25.85,4.83-2.85,7.38-3.16,11.76,1.99.1,2.09,1.58,2.86,2.17,1.69,1.3,8.04,3.97,9.01,5.3,1.97,2.71,3.93,6.46,5.83,9.42,1.15.97,6.95,4.05,7.33,4.62.58.87,1.08,3.88-.33,4.31-3.5-.68-11.41-2.02-12.78-5.89-.39-1.09-.03-2.07-.55-3.06-1.85-3.48-10.17-8.53-13.89-9.96-.87-.33-1.64.3-2.13-1.01l-9.73.36c-1.71-3.49,1.12-3.48,2.45-4.71,1-.93,2.12-4.41,2.8-5.65.31-.56,1.1-.65,1.2-.83.09-.16-.28-2.06.34-3.59.69-1.7,2.62-2.11,2.79-3.52.14-1.16-2.3-.64-2.8-1.71-.59-1.67-1.69-1.03-2.35-1.43-.12-.07-1.46-2.14-1.55-2.36-.78-1.88,1.19-1.77,1.63-2.19s.65-1.41,1.32-1.89,1.65-.38,2.26-.87c.98-.8-.09-2.07,2.55-.92l.44-.92c1.59,1.32,4.14-.96,2.13-2.28-3.37-2.2-7.16-.62-10.64-1.96-.01-2.46,1.38-1.65,2.42-2.3,3.16-1.98,5.77-4.57,9.41-4.91.07-3.58-5.63-3.86-8.11-3.99-1.42-.08-2.5,1.32-3.41-1.03-.69-1.79.94-1.59,1.64-2.18.69-.58,2.86-2.69,3.17-2.77,3.03-.85,6.72-.86,9.77-2.36-.36-2.56-1.09-1.44-1.84-1.89-.4-.24-.38-.68-.72-.84-1.1-.53-2.71-.77-3.83-1.43l-.62.9c-.24-2.17-1.49-.66-2.04-.64-1.26.05-2.54-.43-3.84.18l-.46-.86-1.56.18c-.49-.4-.53-.72-.38-1.34.09-.35,4.56-3.68,5.1-3.89,2.06-.8,6.85-.85,8.62-1.67.33-.15.33-.77.77-.94.96-.36,2.57.13,2.55-1.02,0-.73-.12-1.15-.65-1.64-.22-.21-4.9-1.56-5.48-1.64-2.52-.34-5.61.2-8.09.2-.64,0-4.49-.22-4.64-.41-.43-2.2,1.4-1.76,1.95-2.32s.85-1.91,1.24-2.19c2.24-1.57,6.26.02,5.98-4.96-.12-.38-4.19-1.9-4.76-1.93-.38-.02-3.35-.07-3.53-.03-.95.19-4.26,2.73-3.91.06s3.38-3.61,5.32-4.48c.33-.15.33-.83.66-.9.61-.12,1.35.35,1.95.23.83-.17,1.6-.86,2.33-.93,3.17-.31,5.86,2.06,6.18-3.48-6.17-3.2-13.41-.46-19.95-.45l-.05,1.33c-2.84-.28-4.53,2.6-7.42,2.18-1.26-3.07,2.61-6.67,4.85-8.37.75-.57,1.85-.62,2.38-1.2.44-.48.48-1.62.73-1.79.37-.25,1.2.11,1.59-.15.13-.09,1.06-2.41,1.36-2.89-.09-.61-2.25-1.98-2.82-1.98-.42,0-.91.58-1.38.59-2.25.09-5.19.39-7.39.84-.68.14-2.95,2.35-3.96.24-1.14-2.39,3.33-3.57,3.95-5.59,1-.18,4.2-2.75,4.47-2.8,2.45-.42,1.2.08,3.86-.96,1.57-.61,4.62.03,4.1-2.91-.94-1.8-2.11-1.31-3.12-1.71-.39-.16-.29-.78-.6-.88-2.54-.82-10.82,1.93-13.59,2.65l-1.9-1.52c1.28-.73,1.81-2.03,2.84-3.04s3.92-3.86,4.92-4.64c1.32-1.03,4.37-1.45,4.94-3.95-.27-1.37-5.01-.49-6.11-.39-4.46.4-7.63.68-12.26,2.73-1.85.82-3.11,2.92-5.66,2-1.76-1.18,3.05-5.56,3.07-7.09,2.06-1.66,3.32-3.57,6.06-4.26.45-.11,1.15.23,1.24.16.38-.26.44-1.63,2.03-2.28,2.51-1.03,8.97-3.27,11.39-3.51,1.31-.13,2.86.62,4.38.3.94-.2,1.34-1.19,1.75-1.24.56-.07,2.7.98,4.42.82,1.24-.12,2.16-.97,2.6-.96,1.15,0,3.88,2.09,5.3,2.27,1.86.23,5.98.3,7.76-.05,1.22-.24,1.08-1.16,1.49-1.27,6.3-1.83,9.19-4.42,13.91-8.89.41-.38,1.26-.3,1.45-.53.21-.26.12-1.34.5-2.02,5.57-9.93,9.26-16.42,10.88-28.47,1.77-13.15-3.31-35.68-10.85-46.27-4.23-5.93-9.33-10.07-15.84-13.08-4.84-2.23-11.34-5.05-16.77-5.45-12.77-.94-28.53,3.83-35.98,15.09-2.54,3.84-4.43,8.49-5.9,12.95-.11.33-.75.32-.83.69-.16.74.5,2.52.4,3.09-.06.33-.67.32-.82.66-.35.8.76,13.6,1.37,15.14.3.76.52.34,1.09,2.06,2.42,7.33,5.85,14.75,11.34,20.09,3.34,3.25,4.16,3.18,8.12,4.5s8.4,3.5,12.76.65c.98-.64,1.65-.91,2.31-1.34,3.15-2.05,4.77-5.44,5.28-9.36.5-3.78-1.11-9.06-4.68-10.47-.68-.27-1.17.05-1.75-.04-.45-.07-.9-.62-1.49-.62-.26,0-4.8,1.49-5.03,1.63-.63.39-3.52,2.55-4.24,3.16-.93.79-3.68,4.87-3.98,4.93-4.14.86-5.68-6.35-5.81-9.57-.11-2.62.96-5.51,1.69-7.54,1.61-4.47,3.04-7.15,5.28-10.93,1.56-2.64,8.4-4.72,11.2-4.98,9.31-.84,18.35-.21,25.28,6.98.95.99,6.68,7.92,7.29,8.93.08.12.42,1.58.84,2.57,4.82,11.36,2.69,28.82-5.13,38.08-.49.58-1.32.51-1.62.84-5.96,6.62-8.21,8.53-17.03,10.06-4.24.73-10.29,1.82-14.89,1.39-1.85-.17-3.89-.87-5.68-1.42l-.45.96c-1.02-.42-2.52-2.23-2.69-2.28-.49-.14-1.1.38-1.89.17-1.54-.4-6.36-2.94-8.25-3.81-7.46-3.43-14.1-9.5-20.32-15.18-2.47-2.25-4.5-3.94-6.51-6.71-.49-.67-.6-1.88-1.3-2.69-.94-1.08-3.57-1.69-3.95-2.43-1.23-2.4.78-12.3,0-13.14-1.3-.4-.49,1-1.51.98-3.21-.09-2.65-3.73-2.42-6.32.15-1.79,1.47-4.87,1.33-6.04-.21-1.84-2.15-.7-2.9-1.63-.08-.1-.49-2.36-.5-2.48-.02-.32.93-5.87,1.05-6.25.29-.94,1.44-3.22,1.98-4.9.29-.89,1.03-1.82,1.21-2.44.39-1.39-1.98-.07-2.84-1.15-1.74-2.16.92-7.73,2.62-9.32,1.57-1.47,2.36-.6,3.5-3.73.97-2.66,0-1.59-.75-3.37-.49-1.15.31-4.21.96-5.18.25-.37.76.24,1.1-.24.29-.41.3-1.2.68-1.66,1.69-2.08,3.46-2.05,5.5-3.48l.2-.68c-1.19-1.83-.38-3.33,1.02-4.74,1.73-1.75,5.29-2.84,7-4.32.4-.34.45-1.28.92-1.91.99-1.32,6.1-3.47,7.69-3.95,2.34-.7,6.07-.44,7.49-2.31.29-.38-.08-.9.23-1.18,3.75-3.39,12.1-6.41,17.06-6.09.19.01.17-.74.52-.83,3.02-.78,5.71-1.27,8.58,0,1.14.51,2.81,2.48,4.13,1.69ZM318.64,10.87c-3.41,2.2-7.07-3.68-9.36-3.95-1.14-.14-2.45.98-3.67.34l.44,1.39-1.24.06c-1.12,7.19-7.51-.81-11.42.46-.62,1.01.12,2.95-.23,3.67s-1.4.78-1.96,1.23c-1.13.89-1.22,1.91-3.51,1.81-1.44-.06-3.31-.83-5.35-.45-1.85.35-2.92,1.07-2.59,3.23l1.33.24c1.36,1.47-4.15,3.45-5.14,3.61-1.54.25-3.32-.17-4.61.13-.59.14-1.97,2.24-2.53,2.59l1.38,2.28c.08.32-1.06,2.45-1.21,2.58-1.07.95-4.21,1.12-5.74,1.7-.48.19-.52.82-.65.89-1.74.96-3.75,1.3-3.37,4.34l2.96,1.03.08,1.46c-.36,1.1-2.43.83-2.63,1-.43.37-.41,1.32-.9,1.86-.96,1.03-3.08,1.93-3.89,2.85-1.32,1.51-1.48,4.29-1.78,6.25.7-.62,4.47.01,3.94,1.16-.22.44-1.01.54-1.18.82-.96,1.54-1.25,3.16-1.9,4.69-.52,1.23-1.59,1.9-1.94,2.66-.3.65.17,2.18-.61,3.01.77,1.36,3.34.38,3.83,1.93.49,1.54-.66,2.17-.8,3.2-.21,1.55-.53,5.45-.47,6.95.13,3.2,1.25,1.26,2.62,2.35,2.16,1.72-.46,4.93-.46,6.5,0,.98.76,1.52.91,2.35.18.99-.35,3.17.43,3.73l2.16.14.74-1.76c2.17,1.22,1.57-.86,2.38-2.03.38-.55,1.05-.19,1.35-.61.96-1.37-.48-5.65-.1-7.56l-3.59-.11-1.02-1.59,3.79-5.59c-6.17-1.72-2.58-5.84.88-8.37-2.35-1.68-4.29-1.74-2.85-5.34,1-2.5,4.33-3.25-.64-4.69.21-5.71,5.96-3.87,9.18-2.29-.09-1.36.93-2.71.92-3.98,0-.84-.78-.58-.88-.97-.03-.13-.02-2.51.02-2.63.24-.85,3.05-1.71,3.88-2.44l.12-3.35,2.52-.58c-2.58-9.5,9.44-1.93,10.94-8.58l-1.28-.78c1.16-2.07-2.19-1.37.07-3.36,3.53-.53,7.07.09,10.42.62.19-1.89-1.94-3.3-1.1-5.11.02-1.06,4-.83,4.18-.69,1.66,1.35,3,5.29,6.12,3.45.27-.4-1.46-3.31,1.27-3.93.21-.05,3.86.45,4.3.58.51.15,2.82,1.93,3.74,2.48.33.2.4.52.35.89,1.92-.84,1.04-4.23,3.66-3.73.47,1.71,1.89.5,2.81,1.05.17.1.25.77.57.98,2.35,1.58,4.54,3.23,6.84,4.87l.99.07c.5-4.13,4.6-1.9,6.75-.38,1.25.89,3.32,4.32,4.54,4.51,1.5.22,2-1.49,2.38-2.68.63.14,1.54-.04,2.08.22,1.63.78,4.3,4.18,4.46,5.86,1.27,1.85,2.29,4.23,4.12,5.96,3.56-6.35,4.3-1.82,6.35,1.99.23.42.92.47,1.22,1.14.44.98.16,2.58,1.2,3.4,1.21-1.74-.33-4.5,2.61-4.19,3.32.35,3.29,10.68,2.85,13.24-.15.89-.9,1.39-1.04,2.07-.18.85-.81,4.39-.71,4.83l1.93,1.21,3.11-2.73c.56.56,1.62,1.47,1.78,2.26.07.33-.75,6.23-.86,6.59-.29.91-1.2,1.37-1.46,2.18-.63,1.97,1.31,4.81,3.21,5.18l.89-1.37c4.23.8,2.95,5.05.62,7.47,3.91,1.45,4.23-1.44,6.89-3.38,1.74-4.31,2.84-12.5.8-17.08-.48-1.07-1.42-1.74-1.73-2.75-.64-2.09.09-5.44-3.11-6.55-1.15-.4.17,1.39-1.28,2.13-.78.4-2.65.24-3.12-.75-.27-.56.48-5.85.43-7.2-.08-2.5-1.32-6.12-2.66-8.09-2.21-3.23-6.43-3.15-6.85-8.96-1.92-1.82-2.01-5.28-5.32-5.08,0,3.51-4.7.55-5.91-.7-1.18-1.22-2.38-4.75-3.77-6.24-.69-.74-2.66-1.16-3.28-2.6l-.56-.12c-1.76.28-1.53,2.14-1.63,2.26s-2.74-.34-2.88-.38c-.15-.05-2.45-1.6-2.71-1.79-2.29-1.7-3.9-5.01-7.1-4.81-.16,3.15-1.86,3.53-4.35,2.52-3.32-1.36-4.61-5.57-8.75-4.33l-.59,2.17ZM319.29,75.53c-.91-.98-1.73-2.99-3.38-4.08-3.28-2.17-2.7,1.04-4.16,1.63-.68.27-1.99-.63-2.88-.61-2.05.03-5.17,1.63-6.11,3.66-1.38,2.96,2.25,2.11,3.46,2.33,2.05.37,6.61,1.63,8.58,2.54,4.69,2.17,6.02,5.98,7.94,10.55.15.35.65.39.79.77.74,2.06-.07,7.88-1.34,9.56-.74.98-1.85.96-2.13,1.58-.12.27-.41,5.42-.36,5.83.24,2.01,2.98,2.15,4.43,1.73.44-.13.47-.95.75-1.09.87-.44,1.97-.42,2.82-1.28.53-.53.84-1.58,1.38-2.25.46-.57,1.24-.75,1.69-1.46,1.14-1.78-.07-4.98.54-6.84.34-1.02,1.38-.65,1.79-1.16,1.33-1.65.88-4.57.1-6.4-.84,1.29-3.57,1.07-3.91-.3-.17-.67,1.18-2.92,1.17-4.03-.04-3.28-1.83-8.66-4.9-10.09l-1.51,2.5-.9.28c-.12-1.67-3.11-2.58-3.84-3.37ZM300.72,114.33c-2.08-1.36-3.52.41-5.61.42-.41,2.79-.04,4.51,2.82,4.67,3.17.17,2.93-2.41,2.79-5.09Z"/>
      </g>
    </g>
  </g>
</svg>