<?xml version="1.0" encoding="UTF-8"?>
<svg id="_Слой_2" data-name="Слой 2" xmlns="http://www.w3.org/2000/svg" viewBox="0 0 401.72 439.68">
  <g id="_Павлин" data-name="Павлин">
    <g>
      <g>
        <path d="M298.66,297.06c7.28,5.58,14.22,7.16,22.61,10.3,1.13.42,3.33,1.84,4.06,2.02.59.15.99-.86,1.99-.68.77.14,2.42,1.59,3.31,1.93,5.62,2.18,5.36,1.44,9.57,6.16,1.58,1.77,3.39,2.35,3.63,5.46.07.95-.29,6.46-.47,7.32-.07.34-1.43,2.56-1.75,2.96-.44.54-4.34,3.56-4.76,3.71-1.21.43-2.35-.62-3.37,1.26l-1.16-1.42c-.98.78-1.72,1.13-3.03,1-.88-.09-.63-1-.96-1.02-1.92-.15-1.26.64-3.97-.51-1.98-.84-1.51-1.13-2.72-2.52-1.08-1.22-4.4-2.82-5.37-4.21-1.89-2.73-3.71-4.08-5.74-6.69-.5-.64-.89-1.3-.93-2.14l-1.38.48c.27-2.59-2.19-2.89-3.1-3.95-2.33-2.72-3.69-6.36-5.44-9.31-1.29-2.17-6.86-9.49-5.34-11.77,1.25-1.88,3.57,1.02,4.36,1.62Z"/>
        <path d="M335.01,58.43c.25.21,3.62,5.09,3.69,5.41.59,2.67.44,5.95.12,8.65l-.92-.48c.47,3.73-1.18,8.7-5.56,9.02,1.11,2.16-2.03,2.55-2.86,4.45-.49,1.12.16,2.63-1.46,3.9-.84.66-2.05.41-2.91,1.06-1.99,1.5-3.9,6.43-4.97,7-.53.28-1.31-.03-1.65.2-.15.1-1.36,2.75-1.82,3.21-.93.95-1.94,1.12-2.71,1.89-1.95,1.95-3.19,4.47-5.59,6.12-1.43.98-2.44.05-2.38-1.51.03-.8,1.95-8.34,2.34-9.41.44-1.2,2.19-3.11,2.52-3.94,1.11-2.86,2.18-9.9,2.86-13.29.85-4.24-.03-9.06,2.35-12.76l-.9-.91c.38-.49,1.11-.45,1.38-1.08.79-1.88,1.58-5.63,1.87-7.68l2.31-.02.46-2.13c1.82.47,3.37-.76,4.83-1.01.28-.05,5.41.86,5.67.98.54.25.97,1.31,1.72,1.86s1.56.41,1.63.47Z"/>
        <path d="M247.13,327.37c1.87,3.35,3.92,7.48,5.64,10.56,4.63,8.28,7.6,11.62,14.18,18.2,4.5,4.5,8.52,7.98,12.48,12.96,3.95,4.98,4.8,12.2.17,17.1-2.52,2.66-9.04,4.42-12.48,3.6-.85-.2-2.37-1.45-3.49-1.9-.53-.22-1.64-.13-1.79-.28-.18-.19,0-1.26-.28-1.83-.33-.66-1.35-.87-1.81-1.48-4.55-5.89-6.46-9.72-8.49-16.9-1.68-5.94-2.28-12.56-3.99-18.64-1.34-4.77-4.04-10.38-4.35-15.35-.08-1.24.57-2.56.29-4.17-.37-2.1-3.38-5.26,1.13-6.38.78.24,2.31,3.61,2.81,4.51Z"/>
        <path d="M354.93,231.15c.6.54,3.4,6.69,3.58,7.7.24,1.4-.08,3.96-.55,5.29-.11.32-3.28,5.44-3.51,5.68-.17.19-.82.09-1.05.3-.85.8-2.44,2.53-3.46,2.89-1.81.63-8.02.67-9.89.25-.35-.08-.27-.89-.51-.88-2.89.11-12.09-1.19-14.52-2.56-.25-.14-.73-1.23-1.72-1.79-1.17-.66-3.5-.9-4.41-1.65-.75-.62-.73-1.77-1.05-2.01-.39-.28-1.48-.12-2.11-.41-1.07-.48-6.36-4.13-7.37-5.04-1-.91-2.4-3.41-3.63-4.14-1.29-.76-3.73-.17-3.54-2.57.07-.92,2.92-1.91,3.53-1.94,1-.05,2.71-.26,3.68-.22,1.23.05,2.2.88,2.82.96.22.03-.02-.86.87-.98,5.72-.76,14.24,1.24,19.86-.47.37-.11.37-.84.68-.91,1.02-.22,1.91.46,2.72.42,1.05-.05,7.05-2.32,8.25-2.23.68.05,1.47.98,2.15,1.12.45.09,2.58-.72,4.33-.15.28.09,4.59,3.12,4.84,3.34Z"/>
        <path d="M263.01,50.4c.13.07,2.23,1.77,2.33,1.88.24.28,2.77,5.53,2.85,5.88.07.27.14,5.22.1,5.5-.04.31-.86.25-.95.62-.37,1.51.33,5.14-.05,6.46-.55,1.95-2.95,5.82-3.85,7.94-2.96,6.99-5.69,14.54-9.89,20.65-.77,1.11-4.89,6.58-5.51,2.93-.68-4.01,1.24-4.38,1.64-6.86.3-1.87-.55-3.5-.43-4.69.07-.68.77-1.2.9-1.94.57-3.28-1-4.07-1.35-6.16-.24-1.43.31-2.66.23-4.01-.14-2.34-1.47-4.06-1.89-6.1-.69-3.32-.76-7.02-1.64-10.57-.1-.39-.82-.33-.9-.69-.31-1.44,2.21-8.94,3.26-9.82.77-.65,2.09-.43,2.88-.77.48-.21.81-1.28,1.77-1.59,2.82-.88,7.89-.06,10.5,1.32Z"/>
        <path d="M354.77,150.86c3.38,2.94,5.32,8.73,3.77,13.21-.63,1.83-4.87,7.66-6.59,8.17-1.34.4-2.58-.33-3.76-.06-1.68.38-3.73,2.58-5.23,3.2-5.6,2.29-10.89,1.09-15.42,2.18-2.59.62-5.49,1.09-8.5,1.24-3.88.19-7.86-.02-11.77.18l-.06-2.78-3.18-1.02c-.18-.73-.03-.62.31-.98,2.26-2.43,3.29-2.02,5.43-3.34,7.97-4.9,16.13-10.23,22.8-16.01,2.2-1.91,4.01-2.7,6.07-4.26.93-.71.14-2.19,2.47-1.01.15-.34.22-.96.5-1.15.33-.23,7.2-.27,8-.12.59.11,3.76,1.19,4.22,1.44.64.35.65.85.96,1.12Z"/>
      </g>
      <g>
        <path d="M312.2,5.47c1.19.89,6.44,7.19,6.98,7.34,1.2-.46,2.9-1.24,4-1.86.33-.19.37-.93.9-1.1,3.51-1.15,9.43,1.67,12.7,2.47,2.31.57,5.33.55,7.35,1.03.95.22,8.55,3.93,8.96,4.36,2.16,2.28,4.4,6.15,6.41,8.36,1.82,2,4.49,2.88,6.57,4.44.55.41,5.3,6.03,5.49,6.5.41,1.07-.36,1.74-.18,2.48.15.61,1.05.91,1.21,1.57.14.59-.35,3.13-.26,3.74.05.3.8.16.86.52.24,1.55-.86,3.46-.98,4.66-.14,1.41.63,2.94.52,3.74-.02.19-.68,1.72-1.01,3.32-.43,2.14-2.33,9.85-3.26,11.35-.57.92-1.44.6-1.68.88-.25.29-.2,1.96-1.01,2.87-.55.63-4.87,4.86-5.21,5.01-.4.18-.88-.43-1.22-.29-1.02.42-1.82,2.64-2.91,3.4-.51.35-1.28.14-1.7.39-.37.23-1.38,3.39-1.98,3.9,1.02.07,2.82.67,3.77.46,1.12-.24,2.01-1.98,3.01-2.54.8-.45,1.53-.31,2.15-.56.2-.08.96-2.15,1.98.04.99,2.13-1.11,2.8-1.82,3.8-1.23,1.73-.37,1.06-2.31,2.88-1.31,1.23-1.5,2.82-2.4,3.74-.35.36-1.44-.14-1.83,1.4l-.43-.93c-1.75.13-1.85,1.75-2.79,2.38-2.71,1.82-3.92,1.2-6.31,1.61-1.39.24-1.55,1.21-2.17,1.68-1.52,1.15-1.41-.44-1.5,2.8,3.04,1.68,5-1.89,7.35,1.21-.22,1.45-1.35,1.17-1.93,1.64-4.86,4.01-5.29,5.02-11.62,6.64-.21.05-2.04,1.11-3.62,1.62-4.93,1.61-6.69,2.68-10.64,5.64-.35.26-.87-.13-1.17.31-.78,1.19,2.55,1.04,2.72,1.1.66.22,1,1.05,1.55,1.2,1.3.36,3.24-1.7,3.83.79-.6.73-1.51.94-2.27,1.46-3.06,2.07-9.42,4.74-13.65,5.96-1.15.33-2.44-.07-2.55,0-.13.07-.15.88-1.2,1.4-.76.37-3.83.27-3.97.41-.41,2.01,1.33,1.58,2.32,2.61.83,2.75-6.9,3.32-7.33,3.67-3.77,3.09-7.33,3.55-11.59,5.38-.39.17-3.28,2.4-3.83,2.72-4.31,2.5-9.47,6.1-14.04,7.96-.98.4-4.06,1.43-4.77.39-1.76-2.55,6.03-5.21,7.03-6.14.86-.79.44-1.81.76-2.3.77-1.14,8.82-4.92,10.53-6.06,2.96-1.96,7.28-7.88,10.23-10.43.46-.39,2.49-.94,2.83-1.28.77-.79,1.08-2.03,2.14-3.09,2.06-2.05,6.22-4.47,8.36-6.37.81-.72,1-2.58,1.75-3.19,1.32-1.07,3.67-.81,4.43-1.14.62-.27,8.25-7.77,10.03-9.2,1.33-1.08,1.14-3.12,3.91-1.92-.73-2.51,1.88-2.4,2.23-2.94.23-.37,0-1.21.36-1.77s2.2-1.69,2.54-2.26c.37-.62.38-1.96.45-2.03.13-.14,2.43.41,2.3-1.66,2.58.42,1.82-.6,2.48-1.47.27-.36.87-.44,1.15-.97,3.47-6.45,7.12-12.1,11.22-18.28.27-.41.89-.32.91-.36.32-.55-.78-1.17-.69-1.88.22-1.76,1.6-2.33,1.97-2.92.11-.18-.14-1.98.55-2.53l-1.27-.76c-.36-2.59,1.98-2.98,3.68-4l-.36-3.85c-.57-1.31-2.99-1.05-2.82-3.12.19-2.22,3.76-1.12,3.48-4.26-.03-.3-.54-.66-.57-1.01-.14-1.69.95-2.32-1.19-3.79-1.42-.98-4.75-.14-6.4-1.25-.62-2.07.59-4.46.45-6.34-.06-.86-.87-.61-.97-1.03-.15-.6.18-1.57-.06-1.97-.2-.33-1.83-.35-2.38-.57-.46-.18-.27-1.11-1.03-.93-1.94.33-3.12,3.67-4.58,3.29-2.46-3.15-4.16-7.18-8.83-6.54-1.88,1.28-2.07,2.18-2.81,4.32-.38,1.11.34,1.95-1.44,3.22-1.07.3-2.43-2.72-2.87-2.85-5.14-1.48-6.96,6.7-6.68,10.37-10.03.31-2.2,10.37-8.61,14.45.65,1.48-.37,2.83-.16,4.25.19,1.28,1.89,2.23,1.42,4.2-.12.5-1.11.53-1.43,1.01-2.33,3.42-.45,5.73-.92,8.97-1.7,11.61-5.72,27.8-11.36,37.66-2.11,3.69-4.64,6.24-7.05,9.63-4.27,6.02-9.26,10.2-14.38,15.64-.73.78-2.85,4.29-3.07,4.44-.7.46-2.31.32-3.57,1.32-1.35,1.06-4.98,5.51-6.06,6.16-.5.31-1.21-.3-1.84-.03-2.45,1.04-8.41,7.52-11.02,8.12-.36.08-1.02-.34-1.05-.29-.11.15.18.95-.11,1.29-1.45,1.66-6.96,3.25-9.16,4.2-1.25.54-1.39,1.48-2.2,1.97-1.76,1.07-8.35,3.58-7.54,5.98,1.46,1.42,3.96,1.05,5.85,1.62,2.83.85,7.7,3.21,10.63,3.33.24.01-.02-.82.86-.93,4.38-.54,9.85.46,14.39.02,5.76-.56,20.05-6.21,24.15-10.4,1.35-1.38,3.24-5.24,4.41-6.86.35-.48,3.57-3.37,4.03-3.43,1.89-.23,1.31,1.64,2.48,2.05l-1.4,4.46c2.13.61,2.49-1.08,3.28-1.6,2.51-1.63,6.2-4.1,8.07-6.46.67-.84,1.37-3.8,2.2-5.33,1.42-2.6,3.61-4.06,4.87-6.5,4.13-.69,2.19,1.04,2.22,2.82.02,1.2,1,3.82,2.56,3.82,0-.43.03-1.03.27-1.37,5.67-7.94,10.4-13.38,16.29-20.08.92-1.04.48-2.95,2.83-1.9,2.59,1.15-1.31,3.72.12,5.36l-1.43.26.03,2.11c3.73.42,4.49-3.12,6.72-4.75.55-.4,1.55-.41,1.62-.49.14-.14-.38-.94-.2-1.4.08-.2,2.34-3.27,2.51-3.45.96-1.02,5.25-3.03,5.51-3.26.18-.17-.05-.91.38-1.34,2.2-2.21,7.35-1.35,9.3-2.49.24-.14,3.66-3.59,3.88-3.86.44-.53.09-1.35.39-1.8.77-1.18,3.9-3.41,4.64-5.46,1.16-3.24.86-9.46.51-12.87l1.42.26.71-1.24c.69-.13,1.65.63,2.21,1.06.81.63,3.85,3.23,4.31,3.89,2.36,3.39,3.09,10.5,2.73,14.5-.29,3.22-1.31,6.24-1.62,9.43,1.11.13,2.22.71,3.17,1.28,3.44,2.07,4.47,3.42,7.16,5.73.58.5,1.37.11,1.72.42,1.74,1.53,5.85,6.24,6.69,8.25,1.41,3.38,2.7,9.39,2.84,12.96.05,1.23-.68,9.2-1.3,9.63-.35.24-1.14,0-1.26.1-.08.07.28,1.26.05,2.12-.46,1.71-2.17,2.96-2.34,3.43-1.4,4.01-2.59,4.49-5.77,7.52-1.86,1.77-7.27,6.96-9.14,7.94-.91.48-2.16.37-2.86.75-.59.32-.61,1.24-1.29,1.64-6.92,4.04-13.6,3.99-21.48,5.94-.19.05-.9,1.71-2.65.94v1.42c1.23-.38,2.18.83,3.06.95.79.11,1.53-.42,2.21-.33,1.14.15,3.05,2.21,4.48,2.23-2.16,2.86-6.59,2.44-9.77,2.58-2.41.1-7.04.6-9.42.27-.34-.05-.24-.86-.62-.95-1.24-.32-5.08-.58-6.4-.46-1.46.13-2.59.67-3.84,1.29-.39.19-1.05.07-1.51.11l2.79,4.96c-3.02,1.79-8.02.89-11.24-.28-.39-.14-1.44-1.57-2.54-1.69-.81-.09-1.58.54-2.6.25-.99-.27-3.38-3.34-5.23-3.69-1.08-.21-2.35.07-3.46-.02-.67.7,2.69,3.99,2.79,4.96-.73,3.2-10.95-2.52-12.53-3.21-1.13-.5-3.1-.77-4.59-1.54-2.75-1.42-4.05-3.4-7.94-2.57l1.35,3.95c-.87,1.39-2.51,1.46-3.83.68-.57-.34-.67-1.05-1.14-1.31-1.06-.58-2.49-.06-2.92-.27s-2.11-2.74-3.21-3.24c-6.37-2.91-18.51-1.39-25.79-1.7-7.77-.33-16.5-3.98-24.19-5.53-.72-.14-5.7-1.03-6.05-1.02-.62.01-1.28-.49-1.05.61.11.51,2.37,2.83,2.96,3.61s1.08,2.34,1.65,2.95c.38.41,1.09.2,1.3.43.25.28-.08,1.01.43,1.31.75.45,2.94,1,3.96,1.45,7.37,3.24,15.27,7.27,23.12,10.12,4.47,1.62,4.62,1.41,8.77,3.83,3.22,1.88,7.12,2.06,10.12,3.38.26.12,2.08,1.88,2.22,1.91,5.77,1.56,9.87,2,15.97.86,2.03-.38,4.07-.9,6.17-1.32,1.39-.27,5.89-2.68,6.24-2.75.98-.2,1.93.33,2.7.24.6-.06,1.52-1.13,2.55-.71l.9,3.26c-2.24.58-1.69,2.99-4.14,3.6-.27,1.14,1.5.76,2.1.72,4.24-.26,14.41-3.45,17.63-6.15.84-.7.86-1.92,1.22-2.28.17-.16,3.28-1.6,3.94-2.16,1.84-1.57,2.85-5.4,6.19-1.97-1.45.4-.54.84-.78,1.63-.54,1.71-1.03,3.76-1.57,5.35-.18.53-2.53,1.76.36,2.66,1.26-.54,3.78-3.26,4.68-3.7,5.3-2.6,8.42-4.54,13.26-7.92,1.75-1.22,3.26-1.65,5.36-1.55.63,1.7,1.13,2.87.16,4.59-.78,1.38-3.45,1.91.15,2.91.56-1.6,3.16-.74,4.96-1.02,2.89-.45,8.13-2.74,10.33-4.61,3.31-2.82,4.26-4.32,6.92-7.61.44-.55,1.53-.83,1.61-.98.25-.45-.3-1.16-.23-1.58.09-.55.91-.86,1.07-1.48.61-2.46.75-5.24,2.25-7.72,1.69-2.8,5.46-3.89,7.47-.79,2.38,3.67,2.95,9.39,3.31,13.8.26,3.23-4.02,9.63-5.48,12.64-.47.96-1.85.18.5,2.72-3.51.04-.08,1.94.41,2.66,2.17,3.17,6.01,8.65,6.92,12.35.35,1.44-.01,3.43.6,4.97s1.04,1.76,1.18,3.99c.5,8.01-.83,14.68-3.59,22.03-.59,1.58-1.67.82-1.76.9-.59.54-2.16,4.62-3.48,5.95-.56.56-2.93,1.36-3.4,1.71-2.44,1.81-3.39,4.01-7.34,4.81-1.13.23-2.11-.35-2.69-.24-.28.05-.6,1.47-2.54,1.81-3.37.59-9.38-.26-12.3.59-.41.12-.33.95-.57.95-.67.02-1.46-.89-2.34-.98-1.66-.16-3.54.8-5.3,0-.36,2.72,2.61,1.99,4.07,2.71s1.06,2.93,3.82,1.55v2.36c-1.92-.75-4.5.69-6.22.44-1.62-.23-4.72-1.34-6.4-1.91-2.12-.73-3.18-1.91-5.33-3.18-2.88-1.7-5.93-3.11-8.85-4.73l-1.98.4c-.71.98,3.83,6.97,5.57,6.63l-.91,2.11c-1.08,1.06-8.18-2.6-9.47-3.62-.83-.66-1.68-2.03-2.51-2.76-2.25-1.98-4.04-3.32-6.16-5.42-1.56-1.56-4.66-6.03-6.94-3.32,2.11,2.48,2.31,6.16-1.88,4.75-.18-.06-3.05-1.82-3.19-1.95-.6-.56-.58-1.54-1.16-2.13-2.84-2.94-6.15-6.93-8.62-10.27-1.34-1.81-1.07-4.47-4.17-4.36l-.69,6.15c-2.9,1.73-3.44-1.51-4.58-3.15-2.54-3.66-4.25-6.98-7.52-10.08-.4-.38-.59-1.31-.73-1.39-.55-.33-2.93,1.1-3.99-.18l-2.92-6.98-.84.4c-.18-.12-1.87-3.35-2.18-3.67-2.7-2.68-6.39-5.62-10.32-7.01-.76-.27-1.79.07-2.32-.23-.23-.13-.56-1.41-1.21-1.83-2.5-1.6-8.08-2.6-11.26-4.14-4.1-1.99-10.08-7.57-14.3-8.81-.56-.16-2.66-.43-2.97-.2-.49,1.87-1.88,2.55-2.84,4.43-2.9,5.65-.04,4.25,3.98,5.89,6.17,2.52,11.32,4.35,17.35,8.34,1.77,1.17,3.36,3.16,5.25,4.32.18.11.69-.34.76-.28.29.26.57,2.14,1.1,2.67,7.09,6.95,12.04,14.61,20.3,21.21.19.15.74,2.11,1.55,2.88,1.12,1.06,3,1.76,4.27,2.98.88.85,2.59,3.8,3.13,4.15,1.33.86,2.85,1.01,4.67,2.58,4.21,3.61,6.7,6.96,12.6,7.54,2.17.21,3.17-2.05,4.65-.05l.46-.95.53.96,3.81.06c1.64,2.53-.82,3.08-1.22,3.82-.36.66.14,1.83-.18,2.2-.45.52-3.64,1.12-2.71,3.38,1.71-.56,3.13.76,4.44.92,3.15.39,7.06-.4,10.3-.58,4.16-.24,7.66-.49,11.68.33,1.17.24,3.28-.36,3.57,1.21.42,1.68-2.12,2.56-2.92,3.47-.37.41-.36,1.11-.73,1.62s-2.47.91-.57,1.55c2.92.99,2.12.13,3.74.03,2.29-.14,5.62.02,7.79-.51.36-.09.29-.83.64-.92,2.02-.51,3.73.69,5.22.72,3.39.06,4.26.43,7.31,1.15.32.08,5.15.57,5.42.52.49-.09.4-1.21.96-1.32.46-.09,1.63.43,2.62.15.8-.23,1.12-.99,1.69-1.15.92-.25,1.86.08,2.6-.08.52-.12.58-1.35,1.24-1.68.8-.39,1.91-.15,3.07-.66.85-.37,3.82-3.41,4.34-4.23,1.29-2.04.25-7.69,2.86-7.4,2.58.29,4.91,2.98,5.85,5.34,1.69,4.24.02,7.68-.37,11.87-2.64-.12-1.37,2-1.88,2.83-.19.31-3.6,1.01-2.25,3.84l-2.26.55c.55,1.49-.98,3.26-.99,3.97-.02,1.01,1.58,1.74,2.06,2.63,1.65,3.05,4.97,11.33,4.43,14.84-.16,1.03-1.72,3.21-1.84,4.32-.03.26.75.17.82.43.31,1.28-.36,2.89-.31,3.83.01.24.82,3.84.98,4.6.1.5.98,1.03.83,1.28-.04.07-.99-.19-1.19.92-.24,1.32,1.05,2.15-.67,2.67,1.23,2.9-2.31,7.07-4.02,9.55-1.99,2.88-8.3,11.33-11.17,12.39-.85.31-5.9,1.53-6.16,1.72-3.56,2.59-8.52,1.47-12.72,2.12-.99.15-1.78.99-2.82.97s-1.65-.97-2.23-.91c-.54.05-1.05.79-1.85.76-2.05-.08-6.28-2.42-7.73-3.94-.47-.49-.37-1.39-.55-1.55-.19-.17-4.35-1.28-4.92-1.38-.81-.14-1.61-.17-2.43-.12-1.18.99,7.01,4.99,4.86,7.1-1.83-.09-3.67-.84-5.3-1.71-4.41-2.36-8.61-6.13-12.1-10-3.7-4.12-6.42-9.05-9.13-13.99-.37-.68,0-1.71-.85-2.21-1.17,0-1.57,7.61-1.62,8.98-2.94.56-2.64-1.07-3.79-2.54-1.39-1.8-5.09-8.25-5.48-10.53-.34-2-.53-2.03-.84-3.36-.93-3.98-.29-8.36-4.05-11.01-1.77,3.12-3.91,6.33-4.41,9.94-2.77.25-2.78-.93-3.53-3.18-.68-2.03-1.2-5.14-1.4-7.55-.65-8.01-.45-15.76-1.61-24.01-.68-4.83-3.31-10.38-2.76-15.21.21-1.87.93-2.06,2.31-.88,1.53,1.3,1.27,3.12,1.99,4.59,5.42,11.04,12.2,22.1,18.37,32.37,5.49,9.14,11.73,17.27,19.15,24.51,1.29,1.26,3.91,3.54,5.36,4.46,3.67,2.32,8.29,3.91,12.02,6.19,3.1-2.22,2.71-.02,4.06.64.67.33,4.95,1.62,5.51,1.5,1.91-.42,2.34-3.14,3.07-3.55.56-.31,3.42-1.03,4.08-1,.84.04.6.88,1,.99,4.51,1.17,2.55-4.22,4.42-6.51,9.07,1.27,4.85-3.11,5.31-8.99l3.9-2.31c.01-4.02-2.17-5.08-4.2-7.98l2.77-2.85c-.88-3.6-2.53-3.94-5.6-5.23-.17-2.26,2.03-3.93.83-6.2-1.58-.61-3.18-1.99-4.55-2.71-.72-.37-1.54-.31-2.18-.61-10.16-4.69-21.34-5.95-32.58-8.9-1.09-.29-3.5-.22-3.65-.32-.94-.68-.85-.86-2.48-1.85-6.68-4.02-14.5-6.86-20.9-11.33-3.83-2.68-7.66-6.58-10.95-9.74-2.65-2.54-3.57-3.17-5.28-6.21-.13-.23-2.28-1.24-2.95-1.98-3.84-4.22-7.57-9.38-11.45-13.29-1.25-1.26-2.92-2.44-3.9-3.48-2.7-2.87-3.86-6.89-6.7-9.48-.55-.5-1.63-.65-1.75-.84-.26-.42.14-1.39-.14-1.73-.13-.15-.96-.12-1.49-.59-1.34-1.19-1.96-2.88-3.05-4.01-1.65-1.69-11.19-7.42-13.18-6.8-2.24,1.74,1.02,2.91,2.04,3.96,2.67,2.73,5.3,5.45,7.87,8.08,4.07,4.15,6.68,5.58,10.28,11.27,3.5,5.55,6.52,10.35,9.25,16.03,4.08,8.5,7.48,16.14,10.9,25.89.29.83,1.6,2.15,1.78,2.86.28,1.14-.29,6.23-2.03,4.75.39-1.69-1.64-3.49-1.79-4.59-.1-.71.39-1.28.38-1.74,0-.15-1.99-2.06-2.06-2.19-1.2-2.33-2.16-4.96-3.83-7.44-.59-.87-2.59-2.21-2.93-2.85-1-1.83-1.68-5.75-2.76-7.97-.51-1.05-4.11-5.37-4.19-5.73-.67-3.09-2.93-6.12-4.34-9.48-.2-.48-2.32-1.55-2.77-2.63-.56-1.34.26-2.06.07-2.85-.14-.56-.91-.87-1.11-1.31-.44-.99.45-2.07-1.13-3.54-.63-.59-1.47-.53-1.75-.83-1.7-1.76-3.62-4.15-5.45-6.01s-3.57-3.62-5.33-5.45l-1.32.34c-.89,3.06-1.31,6.18-1.29,9.4,4.97,4.28,6.68,10.67,9.13,16.65.72,1.76.95,3.61,1.63,6,.15.51.86,1.01,1.03,1.79.26,1.19-.16,2.67.16,3.64.21.64,1.22.6,1.34,1.09.21.87-.17,2.16,0,3.21.2,1.17,1.83,5.84,2.35,7.45.85,2.62,1.89,3.6,2.42,6.7,1.58,9.27,4.52,14.78,8.46,23.02.25.53.04,1.47.32,1.81.28.35,6.64,5.15,7.05,5.33,2.14.95,5.91,1.63,7.7,2.61,2.44,1.33,4.65,3.57,6.96,5.17.65,1.42-3.86,1.65-4.27,1.79-1.08.36-2.84,1.7-3.02,1.74-.66.16-3.89-.5-3.38.72,1.34,1.01,2.01,2.77,3.22,3.82,2.85,2.47,9.26,6.21,13.01,7.55,1.31.47,3.65.23,4.16.47.96.45,2.36,2.5,3.16,3.07,1.49,1.08,5.02,1.44,5.24,3.57.19,1.88-3.52,3.04-5.1,3.08v1.83c2.33-.2,3.14,2.05,5.12,3.06,4.08,2.08,10.81,4.17,15.28,4.38,1.01,1.3,6.7,2.28,7.21,2.98.34.46.2.94.2,1.45-1.65-1.05-1.78.65-2.8,1.16-1.49.75-4.27-.16-3.15,2.78.48,1.25,6.36,4.49,7.87,5.25,5.18,2.63,18.81,4.91,24.69,3.57.32-.07.27-.78.67-.9.55-.16,2.61-.52,3.11-.49,2.3.15,3.72,3.21,2.97,5.37-.22.63-1.08.62-1.25.87s-1.39,4.46-2.16,5.54c-.51.74-5.42,5.72-6.16,6.19-2.96,1.88-6.95,1.2-10.25,1.96-.53,1.96-.91,4.27-1.5,6.19-.88,2.86-2.08,5.25-3.59,7.79-1,1.69-2.3,7.08-3.12,8.18-.54.73-1.54.63-1.94,1.1-.42.48-.81,2.29-1.67,3.02-1.74,1.49-1.83,1.4-3.59,3.2-2.19,2.23-8.2,3.31-11.25,3.76-8.09,1.19-20.99.85-29.59.61-.97-.03-3.05-.16-3.88-.35-2.97-.68-3.4-4.13-5.18-6.07-.79-.86-2.16-1.37-2.84-2.08-.98-1.02-2.44-4.9-3-5.42-.09-.08-1.61.17-2.01-1.06-.82-.4-.98,1.26-1.04,1.8-.19,1.7.87,4.41-1.62,4.26-2.27-.14-2.54-2.67-3.6-4.4-2.83-4.6-5.05-8.68-6.47-14.22-.73-2.85-.59-6.72-1.92-9.77-.08-.18-1.6-2.32-2.04-2.27l-2.8,4.73c-2.35.09-1.78-2.23-2.21-3.41-1.55-4.2-4.07-8.27-4.53-12.89-.2-1.93.91-10.75-2.05-10.68-1.19.03-5.36,4.19-6.2,1.08-.57-2.09,1.45-3.32,1.56-4.63.08-.97-.87-2.2-.64-3.22.18-.79,1.7-1.46,1.77-2.96.14-3,.32-4.58.67-7.57.37-3.17.29-5.74.27-8.73l-5.72.49c-2.56-2.89-.08-5.08.92-7.99,3.08-8.98,3.93-15.7,3.78-25.4-.04-2.81-.97-6.57-1.08-8.97-.13-2.85.78-7.16.24-9.95-.21-1.06-1.16-1.38-1.33-2-.08-.32.62-4.13.28-6.4-.58-3.81-1.08-8.53-2.31-12.31-.22-.67-1.08-1.11-1.17-1.6-.11-.61.56-1.46.32-2.24-.19-.61-1.17-.76-1.54-1.31-.43-.63-1.62-3.5-1.77-3.63-.17-.14-3.88-1.13-4.31-1.1-1.73.1-1.32,1.11-1.7,1.36-.12.08-1.63-.52-2.58.72-.24.32-1.18,2.92-1.35,3.51-.59,2.09-2.27,8.86-2.44,10.85-.54,6.41-1.31,13.36-1.04,19.85,0,.22-.79.15-.87.52-.4,1.77.41,4.75,0,6.47-.09.37-.9.28-.92.6-.14,2.75.83,6.2.94,8.93.09,2.21-.57,4.96-.47,6.62.07,1.16,1.3,2.48,1.34,3.85.23,6.59.52,9.26,3.68,15.18.72,1.35,2.27,7.65.68,8.16-2.15.7-5.15-1.91-6.42.51l-1.4-3.3c-1.07-.25-.77,1.01-.66,1.62.42,2.24,2.94,4.95,3.21,5.82.3.98,2.24,7.23,2.44,7.59,1.44,2.6,1.69,2.44,2.8,5.9.79,2.45,1.82,5.65,2.87,7.95.61,1.34,1.81,2.47,2.02,4.1-1.59,3.71-6.5-1.09-9.65,1.57,1.66,3.59,4.73,6.14,6.22,9.98,1.03,2.64-.12,2.73-.23,4.44-.03.42.42,6.22.51,6.53.11.43.86.48,1.1.86,1.93,3.08,2.05,3.6,4.73,6.1.97.91,1.52,1.58,2.2,2.24,1.39,1.32,3.9,1.77,4.68,2.47,1.11.99,1.16,1.06,2.6,2.18.5.39,2.6,2.39,2.83,2.8,1.65,2.93-.36,5.63-3.25,6.21-.92.19-8.15.31-8.97.12s-1.35-.99-2.09-1.2c-1.17-.33-3.35-.35-4.14-.75-.34-.17-1.45-2.08-1.87-2.2-.93-.26-3.49-.08-4.19-.6-.39-.29-.36-1.66-1.02-2.04s-1.42-.07-2.01-.22c-.6-.15,0-1.14-.77-.94.21.75-.88.92-.91,1.24-.16,1.8-1.34,4.11-2.34,6.1-.26.53-7.77,7.93-8.27,8.23-3.17,1.91-6.12,1.93-9.04,2.98-.7.25-1.1,1.14-1.56,1.25-.9.19-1.74-1.2-2.34-1.28-.54-.07-.95.67-1.31.7-.27.02-4.36-.87-5.12-.99-14.27-2.18-29.13-15.65-29.94-30.76-.16-3.03.66-6,0-8.77-.38-.27-3.74,1.26-4.02,1.55-.23.24-.18.87-.43,1.21-.3.41-1.02.47-1.11.87-.48,2.01.62,2.39-2.15,3.88-2.12.4-1.22-4.7-.94-5.8,2.01-8.06,5.26-14.49,9.14-21.83,1.74-3.29,3.44-6.62,5.11-9.95l-.78-1.1c-3.01-.98-5.99,2.61-7.38,1.4-1.62-1.76.15-4.04.81-5.89,1.54-4.31,3.29-6.48,6.71-9.72,2.16-2.04,5.65-4.46,7.81-6.7,1.55-1.61,2.87-3.45,4.43-5.03.72-3.89-5.85-.74-5.87-4.67,0-2.01,2.56-3.22,3.85-4.18.37-.27.46-1.16,1.08-1.49,1.87-1,6-1.67,8.13-3.07.28-.18,4.02-3.56,4.16-3.8.31-.53.45-2.9.16-3.24-.22-.26-5.47-1.88-6.31-2.32-4.72-2.52-9.75-5.88-15.22-7.43-.32-.09-1.01.35-1.12.21l-.04-1.37c-3.7.41-6.44-2.54-9.91-3.39-2.15,2.84-1.38,6.64-.85,9.88.51,3.15,1.63,6.28,2.46,9.66.1.39.8.34.88.68,1.01,4.28.17,10.3-1.16,14.33-3,9.05-2.51,18.46-4.46,27.58-.55,2.55-.74.56-.57,3.9.01.25-.8,4.29-.95,5.01-.9,4.36-2.43,8.4-3.59,12.45-.78,2.75-3.85,12.4-3.92,14.26-.06,1.8,1.75,9.32,3.03,10.82.36.43,1.05.19,1.28.41.26.25.36,1.3,1.03,2.05,1.25,1.39,4.44,2.55,5.1,3.89,3.21,6.54-3.63,7.02-8.34,5.95-1.46-.33-8.97-5.36-10.19-6.55-2-1.97-1.54-3.98-5.67-3.47-1.56.19-7,4.27-8.06,5.59-5.55,6.93-9.44,8.12-17.03,12.28-.42.23-.5,1.06-.76,1.21-.32.18-6.25.2-7.16.17-2.5-2.61-.82-5.4,1.31-7.53,1.15-1.15,6.64-3.89,7.98-4.1.65-.1,1.31.57,2.02.13.19-.12,3.06-2.75,3.2-2.92.87-1.07.79-3.1,1.78-4.22-.02-.81-4.91-3.83-5.76-3.91-.69-.06-5.64,3.34-7.25,3.76-1.3.33-5.22.14-6.35-.32-.15-.06-2.57-1.64-2.68-1.77-.6-.71-.47-1.56.11-2.23s3.65-3.43,4.26-3.76c.97-.52,1.84.08,2.81-.34.79-.34,2.89-3.05,4.68-3.86,5.1-2.31,13.5-.73,18.44-5.3,5.16-4.51,9.34-9.07,12.62-15.51.72-1.41,3.24-6.21,3.58-7.23.53-1.59-.08-3.22.32-4.4.34-1.02.86-.02,1.49-2.84,1.42-6.46,2.56-12.89,3.2-19.35.14-1.4.92-2.81.73-4.26-.15-1.1-1.05-1.87-1.22-2.62-.13-.59.39-1.36.32-1.48-.05-.08-1-.24-1.54-1.03-1.43-2.1-2.37-6.7-3.77-8.94-.33-.53-3.15-2.8-3.92-3.7-.71-.83-1.14-2.83-2.47-2.86-3.09,1-1.13,3.68-1.33,5.25-.09.68-1.3,4.7-1.63,5.44-.42.95-1.58.07-.66,2.4-3.52,2.48-3.63,7.9-4.97,11.74-1.88,5.39-7.94,20.04-11.88,23.87-3.96,3.83-5.84,7.18-8.8,11.84-2.87,4.52-5.76,11.86-8.61,15.83-.61.85-2.47,1.94-3.26,2.95-1.22,1.55-3,4.83-4.33,6.1-.88.84-3.04,1.47-3.61,2.26-.49.67.35,1.41-.37,2.42-.15.21-3.48,3.44-3.76,3.66-.38.29-1.53.25-2,.77-4.04,4.43-9.99,8.03-15.74,11.89-.29.19-.32.85-.68.92-1.09.23-2.11-.27-3.16-.37-.51-.05-1.14.43-1.76.29-.92-.21-2.44-2.64-4.03-2.32-.16-.15.99-3.86,1.19-4.19.17-.28,2.58-2.69,2.86-2.88,2.75-1.91,6.36-.96,9.49-1.93.71-.22,6.14-3.2,6.76-3.85.4-.43.28-1.34.7-1.68.62-.5,1.74.39,1.68-2.18-.09-4.17-5.32-2.98-7.85-1.85-7.06,3.14-14.83,9.13-21.67,12.83-2.51,1.36-4.82,3.03-7.57,3.68-.7-.64-1.14-1.6-1.29-2.52-.36-2.12-.26-7.09-.12-9.32.31-4.72,2.06-2.21,3.49-2.37.21-.02,3.92-1.18,4.11-1.29,1.33-.76,1.71-2.58.57-3.72-2.2-2.2-4.9.93-7.64-.01-.02-2.94-1.06-6.25.22-8.97.28-.4,2.66-.51,3.22-.49,3.98.1,13.06.58,16.71-.4.91-.25.71-.97.99-1,.76-.08,1.68.65,2.68.5,6.19-.91,12.41-3.67,17.98-6.78,7.51-4.19,11.23-9.71,16.79-15.78,3.18-3.47,4.86-5.58,7.33-10.17,1.93-3.58,4.59-9.6,5.4-13.07,1.25-5.41,3.16-12.88,2.45-18.35-.41-3.19-2.93-4.28-3.73-5.79-.85-1.61-.72-4.29-1.04-6.04-.37-2.06-.34-3.54-.56-6.03-.31-3.57-.78-6.91-3.19-9.66-.68-.77-2.6-.87-3.53-1.37-11.72-6.35-21.77-11.63-33.95-17.92-.74-.38-1.69-.07-2.2-.36-.2-.12-2.54-3.06-3.05-3.54-2.98-2.78-6.16-6.05-8.66-9.95-.51-.79-.79-2.45-1.57-3-1.01-.72-1.82-.24-2.73-.45-.39-.09-.38-.76-.68-.91-9.82-5.09-16.51-16.38-18.07-27.29-.57-3.99.82-2.27-1.75-6.35-2.06-3.28-1.69-9.01-1.4-12.5.33-4.03-2.58-6.46-2.97-8.65-.29-1.62,1.21-1.61-.95-2.78l.46-9.43c-1.17-2.81.39-4.56-.6-7.42-.31-.9-1.28-1.05-1.31-2.47-.02-.77.75-6.68.96-7.52.04-.18,1.35-2.35,1.39-2.53.26-1.18-.63-4.01-.49-5.1.08-.62,2.28-4.08,2.6-5.23.18-.67-.42-1.64-.19-2.28.49-1.4,5.66-7.34,6.81-9.62.57-1.12,1.18-4.19,1.58-4.78.26-.38,1.69-.46,2.25-1.26,1.74-2.5.94-1.76,3.19-3.92,5.06-4.88,9.92-9.2,15.21-13.4,1.26-1,5.82-3.22,6.42-3.72.39-.33.5-1.21.77-1.37.48-.28,1.41.11,1.69-.17.17-.16-.07-.92.17-1.22.75-.93,5.91-2.97,7.04-3.95.77-.67.62-1.56.83-1.75.5-.43,6.79-3.58,7.19-4.03.28-.31.12-1.13.59-1.51.53-.42,2.53-.7,3.54-1.38,1.47-1,2.9-3.82,5.31-5.24.54-.32,1.6-.12,1.78-.3.19-.2-.06-1.24.29-1.82,1.17-1.94,5.28-5.4,7.01-7.76,3.2-4.37,5.21-9.54,7.29-14.13.89-1.96,2.39-3.89,2.17-6.05,1.72-.65,3.74,2.3,3.98,3.76.06.34-1.01,6.52-1.17,6.82-.33.63-1.22.17-1.42.31-.12.08.69,1.73.21,2.8-.55,1.23-4.85,6.64-5.99,8.09-1.34,1.69-1.47,2.03-2.54,3.58-.47.68-3.76,3-4.08,3.64-.27.54.04,1.38-.2,1.68-.16.2-1.11.15-1.55.54-.92.8-3.14,3.1-3.96,4.03-.52.59-.85,1.99-.98,2.07-.53.33-1.67-.18-2.19.14-.22.14-.28,1.33-.77,1.83-.88.9-4.08,2.31-4.64,2.83-.51.47-.62,1.88-1.36,2.41-1.31.95-4.66,2.11-6.28,3.06-.66.39-.68,1.26-1.3,1.62-.98.58-3.12.59-4.13,1.11-2.81,1.45-9.85,7.89-12.53,10.19-1.05.9-2.34.67-2.95,1.23-.46.42-.06,1.33-.68,2.1-.54.67-2.6,2.08-3.43,2.73-.9.71-8.02,6.41-8.29,6.89-.26.45.04,1.22-.21,1.65-.21.37-1.61.68-2.09,1.2-3.26,3.57-6.08,9.05-7.43,13.96-.4,1.47-1.02,6.83-1.38,7.53-.43.83-1.56,1.11-1.56,1.34,0,.64.77,1.28.83,1.92.13,1.3-.86,5.32-.8,5.6.08.41,1.09.58,1.41,1.06.57.85.72,2.7,1.27,3.79,1.32,2.61,2.95,5.64,4.4,8.05.44.73,4.03,3.2,4.98,4.62.59.88.68,2.02,1.38,2.85-.57.72-.54.73-1.37.47-2.31-.74-5.96-3.41-6.54-5.9-6.27.34-4.28,2.35-4.3,6.78,0,.79-.69,1.49-.75,1.97-.02.13,1.62,1.58,1.78,2.02,1.3,3.73,1.14,4.72,3.26,8.51.83,1.49,1.81,4.45,2.47,5.67.1.18,2.58,1.64,3.16,2.22.97.97,2.98,4.18,3.94,4.98.72.61,1.5.3,1.96.59.35.22.38,1.18,1.05,1.53,5.6,2.96,15.81,1.8,19.5-3.9,2.55-3.93.55-12.84-4.85-7.7-2.23-1.75-.3-3.38-.21-5.61,3.4-1,6.99-.7,9.08,2.43.08.12-.25.52-.15.69.33.59,1.41,1.83,1.58,2.87.06.36-.28,6.97-.36,7.35s-.79.33-1.06.9c-.81,1.7-.83,2.88-2.65,4.37-4.1,3.36-12.14,4.55-17.23,3.77-3.32-.51-7.37-2.65-10.34-4.51-.81-.51-.51-1.83-2.12-1.37.23.99-.33,2.26-.24,3.1.29,2.92,6.89,13.28,9.2,15.21.67.56,1.72.62,2.3,1.08.68.54,1.02,1.7,1.96,2.39,2.07,1.52,4.97,1.9,7.42,2.34l2.87,10.43c.54,1.4,2.41,1.93,2.25,3.35,2.79,1.62,5.15,5.25,8.71,7.16,1.07.58,2.87.72,3.71,1.3,10.71,7.35,24.67,10.78,36.16,16.63.63.32,2.08.89,2.17.97.2.17-.13,1.07.32,1.4.4.29,3.02.98,4.05,1.49,1.63.81,3.43,1.72,5.26,2.66,2.84,1.46,11.73,5.71,13.62,7.41,1.98,1.79,4.26,5.46,5.64,7.87,1.18,2.05,3.08,4.88,4.06,6.94.78,1.62,1.82,6.13,2.6,7.19.28.38,2.38.97,2.75.87.54-.14.72-1.16,1.25-1.54.54-.38,1.26-.45,1.84-.96.15-.13,2.3-3.12,2.37-3.31.48-1.31.3-7.97-.13-9.36-.11-.35-.72-.3-.92-1.06-.95-3.58-1.14-7.3-2.27-10.83l-1.41-.32c3.21-3.41-.07-5.81-3.06-7.53-2.16-1.25-4.86-1.14-6.8-2.06-.91-.43-1.2-1.3-2.1-1.65-10.38-4.02-20.98-6.87-31.21-9.82l-.03-1.15c-.61-.26-1.54-.05-2.07-.27-9.52-3.86-28.57-14.99-33.66-25.06-2.74-5.42-2.58-11.7-1.98-17.66,1.88-1.81,2.63-6.36,6.21-5.1l5.76,5.93c2.71,2.86,7.84,1.76,10.2-.98,1.34-1.56,1.19-5.01,4.14-4.26,1.68.43-.62,7.47-1.37,8.5-1.13,1.54-2.17.99-3.35,1.32-2.74.75-2.09.38-4.47.61-2.45.24-1.73,1.4-5.25-.14-.25-.11-2.13-1.02-2.58-1.26-.36-.19-1.74-2.09-2.44-2.38-1.35-.33-1.69,3.58-1,4.57,1.23,1.79,3.8,4.52,5.99,5.06,1,.25,1.77-.25,2.35-.09,1.42.38,2.29,2.09,5.22,1.86.85-.07.62-.91.99-.99,1.16-.26,2.5.23,3.89-.22,1.3-.42,2.94-3.39,4.27-.61,1.26,2.61-3.9,5.44-6.04,5.91-4.47,1-6.68-1.1-10.79-.82-.11,3.46,2.53,5.39,4.78,7.41,3.04.29,7.23,1.88,10.2,1.11.41-.11.54-.98,1.08-1.35.92-.63,2.52-1.27,3.27-2.13.77-.89,1.36-3.76,2.97-3.42,3.55.75,2.24,4.54,2.54,7.14-3.11,3.82-8.55,9.54.69,8.54,1.07-1.39,3.49-6.16,5.34-5.93.56.07.54,1.4.81,1.74.41.51,1.98.56,2.43,1.55.48,1.06,0,2.11.23,2.98.08.33,2.31,1.95,2.73,2.52s.31,1.54.64,1.96c1.01,1.29,12.99,7.77,14.81,8.32,2.42.74,12.22,3.4,14.08,3.2.69-.07,4.21-1.48,4.57-1.41.5.09.96,1.03,1.46,1.39.47.34,1.36.35,1.52.55.22.27.09,1.29.55,2.04,2.33,3.78,8.53,4.34,12.33,5.89,14.15,5.78,27.67,13.13,41.53,19.17.8.35,9.77,5.2,7.27.37-1.07-2.07-.3-1-.36-3.15-.07-2.5-.68-4.38.54-7.1l-.97-.52c2.5-2.57.58-4.32.66-6.15.05-1.03.37-2.59.45-4.18.4-7.55,3.52-14.13,4.69-21.86.44-2.9.85-6.13,1.2-8.96.33-2.69-.66-5.19-2.36-7.15l-1.87.58c.81,3.16-1.1,5.44-1.7,8.1-1.59,7.08-2.86,12.26-5.57,18.92-1.67,4.1-4.44,8.49-6.46,12.83-.5,1.08-1.95,2.14-2.06,3.64-.22,2.33,10.23,5.04,9.78,8.4-1.31.82-.84,2.37-2.97,2.24-.34-.04-.26-.86-.86-1.12-5.43-2.36-17.18-6.53-21.12-9.48-1.08-.81-2.7-2.01-2.91-3.42-.4-2.74,2.12-2.63,3.08-.65l2.94-1.2c-.63-.64-1.41-2.5-1.97-2.94-.67-.53-1.76-.39-2.09-.72-.21-.21-.5-1.91-.92-2.62-2.59-4.36-7.4-10.43-10.79-14.54-2.13-2.59-4.94-3.77-6.03-7.58l2.59-2.13,3.9.75c1.05-1.09.99-2.63.93-4.05.93.59,3.69.81,4.2,1.17.5.35.12,1.35,1.02,1.81,1.88.98,2-1.19,1.63-2.62l-3.13-12.67c-2.9.24-2.16,1.79-2.68,3.17-.59,1.57-1.01,4.54-1.12,4.77-.07.13-.64.16-.82.46-.82,1.34-1.04,2.77-3.07,2.96-.77.07-4.97-.37-5.94-.52-4.42-.67-5.3-2.63-8.51-3.62-.78-.24-1.72.01-2.54-.25-2.52-.8-5.46-1.29-4.5-4.56,1.84-.73,3.31.29,5.01.63,2.95.58,6.21,1.46,9.34,1.04,1.76-.24,5.59-2.88,6.8-4.23.27-.3.28-1.04.6-1.49.69-.96,2.44-3.25,2.83-4.21,1.48-3.63-.45-4.38-1.18-6.92-.78-2.71-.48-7.57-3.95-8.04-.97,2.59.17,4.76,0,7.33-.06.83-1.12,5.95-1.38,6.57-.23.54-1,.16-1.27.41-.77.71-.29,1.05-2.42,2.56-.37.26-.43,1.08-.82,1.16-.78.16-1.6-.52-2.19-.51-.25,0-.28.7-.66.89-3.62,1.78-9.15,1.24-13.07-.19-.67-.24-4.75-2.3-4.9-2.59l.26-2.85c1.07.88,2.38.1,3.31.26,1.47.26,2.56,1.24,4.28,1.14.95-.05,6.25-1.72,7.14-2.19.69-.36.71-1.12,1.37-1.5s1.99-.03,2.23-.52c.27-.54.1-1.32.38-1.77.14-.22.69-.31.93-.72,2-3.49,2.49-6.09,3.04-10.05l-1.35-1.01c.21-1.16,1.04-3.02.86-4.13-.12-.75-.93-1.34-1.17-2.12-.45-1.42-.45-4.83-2.46-3.66-2.56,1.49.79,4.16.48,5.66-.22,1.05-1.12,1.35-1.3,2.02-.27.96.06,2.08-.2,3.11-.13.53-2.44,5.18-2.77,5.41-.17.12-.8-.17-1.14.04-2.77,1.71-4.42,1.88-6.8,3.05-.76.38-.67,1.29-1.67,1.58-.84.25-5.73.73-6.78.73-.31,0-5.51-1.56-5.77-1.71-.87-.5-1.68-2.68-2.8-3.31,1.12-1.82,2.91-.31,4.85-.22,2.09.1,9.74-.29,11.5-.97.53-.2.48-.93.84-1.15.59-.36,1.36-.12,1.74-.36.25-.16,2.84-4.63,3.08-5.14,1.86-3.95.81-8.78,2.18-12.98-1.74-2.08-2.33-5-5.61-4.48-.81,2.32.24,4.85.03,6.87-.05.44-1.37,5.24-1.53,5.57-.77,1.56-2.46,1.3-3.2,2.87-3.89,2.56-10.28,3.19-14.76,1.45-1.67-.65-3.69-2.6-5.62-3.25l-.91-3.56c1.97-.56,1.72.73,2.6,1.34,3.68,2.54,8.83,2.54,12.81.54.51-.26,1.72-1.99,2.26-2.55,1.67-1.7,1.79-.72,3.08-3.98.52-1.32.58-3.07.84-3.92,1.03-3.41,3.03-4.38.33-8.36-.52-.77-3.58-3.32-4.3-3.65s-2.93-.27-3.21-1.53c-.57-2.57.78-3.28,3.2-3.22.76.02,5.22,4.13,6.38,4.95,3.92,2.76,7.25,6.71,10.84,10.18,5.43,5.25,3.95,4.96,7.22,11.11,1.65,3.1,4.19,6.52,5.85,9.65,2.76,5.22,4.64,10.72,6.86,15.82,4.16,9.55,8.47,21.81,8.84,32.05.04,1.09.97,1.99.82,3.23-.52,4.12-4.25,3.5-.37,8.63,1.98,2.62,4.98,5.46,6.8,8.44.31.51,1.29,3.9,1.78,4.1,1.33.53,1.53-2.07,2.7-2.49.93-5.46,4.4-11.62,5.65-16.69.3-1.21-.43-3.61-.21-5.16.93-6.45,5.55-15.07,4.65-21.83-.15-1.15-2.03-5.28-.43-6.3,1.52-.97,1.98.93,2.28,1.08,2.99,1.5,3.86,2.22,7.06,3.15.39.11.33.82.67.9,1.28.31,3.12-.21,4.54.03.77.13,1.2.93,1.87.95.28,0,.17-.87.54-.97,7.15-1.76,8.17-1.6,13.17-7.82,1.39-1.73,2.99-4.57,4.17-6.76,1.15-2.13,1.31-12.48.62-14.77-.44-1.45-2.17-2.79-2.68-3.81-1.06-2.13-1.79-6.11-3.75-7.55-.64-.47-1.44.26-1.64-1.17-.42-3,3.82-5.45,4.54-8.65.52-2.32-1.28-3.66,1.06-4.64-1.28-3.01-.56-7.38-1.42-10.25-.17-.58-4.21-3.7-4.53-4.26-.27-.47.06-1.28-.18-1.68-.17-.28-4.59-2.52-5.17-2.9s-.55-1.28-1.58-1.83c-2.64-1.41-6.23,1.48-7.09-3.7-.12-.7.41-1.59.21-2.1-.29-.74-1.61-1.1-2.09-1.75-.94-1.27-.71-3.42-.98-3.84-.21-.32-1.57-.28-2.12-.69-.81-.6-3.16-3.83-3.99-4.45-1.73-1.3-6.73-3.69-8.92-4.39-1.41-.45.48,1.15-.9.93-1.46-.23-2.87-1.13-4.19-1.32-.86-.12-4.11,1.04-4.75,1.46-.32.21-.36,1.11-.84,1.23-.63.15-2.86-.96-4.12,0-1.32-3.52-3.44-4.83-5.82-7.29-.69-.71-1.42-2.45-2-2.93-.98-.8-3.03-.89-4.32-1.54-.75-.38-1.25-1.39-1.44-1.43-1.36-.29-4.01-.67-5.52-.91-5.27-.82-7.58.6-12.14,2.66-.75.34-2.51.4-2.84.66-.05.04.41.64-.22,1.38-.9,1.06-2.94,1.79-3.71,2.94-.91,1.37-.98,3.19-2.16,4.61-3-3.28-10.79.67-12.82,3.48-.69.94-1.15,3.03-1.79,3.63-.61.57-1.54.4-1.63.47-.06.05.47,1.04.48,1.63.04,1.85-.36,3.63,0,5.45l1.88-.19c.35-2.76.97-1.72,2.07-2.6.76-.61.76-1.66,1.31-2.24,4.21-4.44,5.1-3.15,10.2-4.42,1.15-.28-1.06-1.09,2.05-.11,2.7.84,3.42-2.71,4.98-4.15.79-.74,2.2-1.18,3.14-1.87.67-.5.77-1.56,1.88-2.04.82-.35,1.51.09,2.19-.09,4.66-1.16,5.72-1.66,10.27.28,1.34.57,2.37.85,3.73,1.4.59.24,4.19,4.04,4.64,4.83.4.72,2.36,3.89,2.43,4.13.43,1.42-.13,2.93.99,3.74,2.98,2.13,3.55-.13,5.55-.9,1.13-.44,6.53-.98,7.9-.98,2.69,0,7.69,2.54,10,4.01.47.3,1.33.12,1.7.38.23.16,1.96,3.83,2.3,4.5.64,1.27,2.16,3.67,2.7,4.87.47,1.04-.57,2.82,1.01,3.79,1.66,1.03,5-1.19,7.15-.72.3.06,4.96,2.79,5.28,3.06.81.68,4.5,7.36,4.74,8.41.17.72.64,4.87.58,5.51-.21,2.31-3.3,5.41-4.14,7.63-1.77.97-3.57,1.65-3.23,4.16.35,1.13,2.44,1.1,3.45,1.72,1.89,1.18,3.66,4.21,5.34,5.56l2.72,7.96c-.01.69-.57,1.2-.66,1.87-.88,6.92-2.17,8.43-7.43,12.55-2.05,1.6-1.06.76-3.34,1.78-.95.43-3.46,2.33-3.67,2.36-.87.14-1.33-1.1-1.82.62-3.05-1.57-6.22-.16-9.6-.63-1.65-.23-8.56-2.27-10.19-2.87-3.41-1.27-1.57-2.15-.12-3.63.41-.42.66-1.31.75-1.36.19-.11,2.82.35,4.29-.1,2.69-.84,4.37-3.91,7.24-2.79.01-.59-.11-1.41.22-1.91.26-.39,4.18-2.25,4.33-2.45.24-.31.02-1.19.35-1.78.2-.37.95-.43,1.16-.82,2.27-4.19,3.04-9.44,2.81-14.11-.03-.6-1.16-1.07-1.54-2.23-.53-1.58-.39-3.09-1.32-4.7-.33-.58-1.21-.69-1.3-1.13-.12-.57.6-1.24.17-2.55-.09-.28-2.13-3.33-2.33-3.33l-1.16.94-.06-1.83-1.74-.6c-.21-.89.2-1.94-.29-2.78-.51-.89-3.74-2.5-4.43-3.18-.85-.83-1.11-2.9-1.48-3.33s-2.09-.61-2.87-1.13c-1-.66-3.98-3.58-4.96-3.95-.86-.32-1.74.2-2.4-.2s-1.6-2.73-2.42-3.36c-.56,1.9-2.25.08-3.37-.35-.69-.27-1.62.01-2.42-.36-1.05-.49-1.05-1.95-3.27-1.37l-.95-3.55c-1.23-.45-2.73.5-3.81.34-1.34-.2-2.23-2.05-2.94-2.19s-1.61.78-2.56.63c-.79-.12-.74-1.01-1.21-1.17-4.03-1.38-10.04-2.21-14.27-2.39-1.13-.05-2.24-1.23-2.09.47-1.38-1.5-1.52-.16-2.19-.11-2.44.17-10.48.63-12.36,1.52-.58.27-.1,1.08-.36,1.34-.25.24-1.19,0-1.76.34-.33.19-5.11,5.11-5.31,5.43-.3.47-.05,1.72-.31,2.47-.24.7-1.69,3.31-1.84,4.43-.21,1.63,1.64,3.68-1.61,4.02-1.34-.12-1.17-1.85-1.89-2.84-.74-1.01-7.45-6.74-8.6-7.33-1.95-.99-3.66-1.3-5.64-2.31-4.31-2.19-12.48-.35-16.81-.81-.79-.08-1.34-1.08-2.31-.97-.25.03-.2.88-.57.97-2.26.55-5.56-.9-5.86-.85-.38.06-.84.74-1.5.85-3.3.55-4.02.82-7.05,2.28-.66.32-2.15.44-2.37.69s.04,1.09-.12,1.24c-.26.25-1.37-.06-1.98.14s-.64,1.02-1.11,1.35c-1.94,1.39-6.13.67-8.09-.64-1.71-1.15-5.94-4.55-6.78-6.34-.6-1.28-.36-2.4-.67-3.57-.17-.66-1.02-1-1.1-1.5-.69-4.5,1.81-10.81,3.97-14.69.43-.77,1.74-1.62,2.11-2.65.23-.63-.25-1.3-.21-1.36.07-.1,1.18-.19,1.71-.64.79-.67,1.88-2.77,2.3-3.19,7.33-7.38,15.37-12.79,22.23-20.77,3.03-3.52,6.45-6.42,9.34-9.13.68-.64,1.08-4.49,4.31-3.69l-.38-.86c1.81-.33.98-1.87,1.54-2.91.28-.52,7.12-6.51,8.35-8.07,4.45-5.65,8.15-17.08,7.23-24.39-.1-.83-.82-.66-.92-1.05-.58-2.28-.12-2.31-1.43-4.24-2.16-3.18-10.12-11.47-14.02-13.05-2.31-.93-6.3-2.25-8.71-2.95-7.57-2.22-13.79-.56-21.22-1.31-.77-.08-1.15-.77-1.76-.82-.33-.03-.12.75-.81,1.1-5.28,2.72-11.82,4.21-16.58,8.16-1.08.9-1.38,2.35-2.13,3.08s-.69-.77-1.87,2.23c-1.38,3.51-3.05,8.34-2.54,13.16.22,2.13,2.12,4.96,3.03,6.85,1.95,4.05-4.92,1.43-5.95,1.52-.31.03-3.4,1.67-3.5,1.85-.28.5.43,1.59.32,2.42-.17,1.33-1.13,6.39-1.51,7.47-.37,1.06-.97,1.08-1.69,1.67,3.19,6.76,7.1-.47,10.02-2.64,1.77-1.32,6.02-2.32,6.27-5,.11-1.25-1.33-2.53-.93-3.99,1.37.89,2.15-.67,3.54-.8,5.95-.52,13.63,1.08,19.31-1.22,7.32-2.96,12.56-8.64,15.36-16.05.85-2.26.15-6.44,4.01-5.39,2.12,2.73.29,6.67-.91,9.5-.8,1.88-3.04,5.91-4.17,7.59-.26.39-5.7,6.28-6.22,6.66-.88.64-4.22,1.7-5.51,2.22-6.95,2.8-11.32,4.24-18.82,6.33-2.92.81-4.28,3.15-7.52,2.51l.35.84c-.43.63-2.57,1.63-2.71,1.82-.34.49-.21,1.71-.51,1.98-.28.25-2.23.41-3.62,1.75-2.07,2-4.84,9.28-7.47,9.01-3.69-.38-5.82-6.65-4.48-9.84,1.2-2.85,4.04-5.86,2.7-9.15l.91-.46c-.12-1.62-.71-5.96-.35-7.41.64-2.56,4.27-6.28,5.31-8.78,1.61-3.89,1.08-9.51,2.32-13.23.27-.82,3.26-5.19,3.98-6.14,2.92-3.88,7.77-8.64,12.28-10.51.96-.4,2.64-.11,3.59-1.46l.45.95c4.67-2.26,11.11.02,16.16-1.44.4-.11.31-.89.64-.94.22-.04,4.25-.06,4.48-.01.47.11.44,1.17,1.08,1.4,1.09.39,2.77-.59,4.12-.47,1.33.12,2.25.18,3.51.28,3.62.29,16.55,6.08,19.42,8.56.43.37,4.08,4.42,4.41,4.97,1.45,2.39,1.14,3.37,1.4,5.67.15,1.35,2.74,6.82,3.47,7.83.42.58,1.39.61,1.43.67.15.22-.73.65-.72,1.45.02,1.28,1.1,1.42,1.17,1.72.17.77.17,3.81.06,4.67s-.92.61-.95.97c-.6,6.28-2.6,8.95-6.15,14.05-.39.56-.53,1.63-.79,1.93-.46.53-1.14.17-1.4.33-.12.08.3,2.1-.55,2.76l-.86-.43c-.05.71-1.23,3.34-1.55,3.66-.22.22-.92.08-1.08.27-6.32,7.55-12.52,13.68-19.99,19.4-.68.52-.79,2.09-1.2,2.56-.79.9-3.92,1.4-4.67,1.99-.44.34-.3,1.12-.57,1.4-4.14,4.27-9.78,7.48-13.43,11.89-1.2,1.45-1.03,2.04-1.23,2.29-.16.2-1.11.11-1.57.52-.61.55-3.71,5-3.83,5.31-.08.19.39,1.03.19,1.82-.75,3.05-3.42,4.33-1.83,8.41.5,1.29,2.71,3.94,3.8,5.13.32.35.29,1.18.64,1.48.16.14,3.47,1.44,3.85,1.51,4.41.74,6.41-1.05,9.95-2.13,7.55-2.3,12.26-2.1,20.68-1.66,5.02.27,10.28.27,15.33.51,1.83.09,3.08-.99,4.14,1.4.73-.37.48-1.35.81-1.76.36-.45,1.37-.31,1.65-.69.67-.91.26-4.35.79-5.58.25-.56,1.48-1.39,2-2.22,3.41-5.44,5.83-8.16,12.15-10.23,1.33-.44,5.15-.5,6.03-1.04.63-.38.59-1.54,1.04-2.02,1.49-1.58,8.1-5.34,10.23-6.28.27-.12.27-.85.65-.93,2.84-.61,5.99-.11,8.73.03,1,.05,2.06-.35,2.81-.29,3.56.3,5.18,2.19,9.11.2.71-.36,5.61-3.09,5.82-3.36.26-.34.78-1.17,1.38-1.95,3.37-4.33,3.82-10.5,4.06-15.96-1.31-2.11-2.16-4.93-3.5-7.25-.33-.58-1.19-.81-1.69-1.59-2.06-3.15-2.51-6.88,2.39-6.31l1.9,2.87c1.46-1.37,1.27-2.54.41-4.2-1.42-2.76-4.65-4.41-6.85-6.05-3.47-2.59-4.66-2.68-8.59-4.7-1.82-.94-3.35-2.56-5.15-3.5l.27-.94c1.9.06,5.02-1.23,6.53-1.31.54-.03,4.64,1.51,4.79,1.31l-1.64-3.77c-4.88-5.15-11.71-5.7-17.46-8.59-.65-.33-1.89-2.02-2.95-2.31l3.83-2.31c.78-.2,3.07,1.9,3.3.19.02-.16-.76-2.68-.99-2.96-.51-.64-1.89-.78-2.5-1.23-3.63-2.72-11.64-8.73-16.37-8.99-1.18-.06-1.91.52-2.68.52-.69,0-1.12-.77-1.79-.84-1.93-.22-7.37,4.2-9.48,3.11-2.12-1.09-.73-7.16.04-8.98,2.35-5.58,10.66-5.83,15.72-5.98-.3-3.03,2.02-5.67,2.7-8.37.26-1.02-.12-2.26.17-3.14.24-.75,1.45-.8,1.72-1.56.43-1.27-.32-4.6.13-5.31.18-.28,1.32-.2,1.69-.65.27-.33.24-1.33.64-1.94,1.97-3.06,5.88-8.94,8.97-10.74,2.27-1.33,10.68-3.79,13.03-3.55.81.08,1.41.86,2.02.95,4.53.67,9.42.78,14.44,1.91,1.19.27,3.52,1.69,4.88,1.89.83.12,2-.47,3.16-.23.24.05,3.07,3.02,3.59,3.52,1.18,1.14,2.31,1.71,3.43,3.6,4.08,6.87,6.48,13.29,8.68,20.99.24.83,1.14,4.08,1.44,4.42,1.51,1.72,1.82-1.22,2.22-1.91.16-.28.72-.31.9-.7.79-1.67-.18-3.95,2.81-3.43.76,2.08.58,4.93,1.04,6.75.22.87,1.5,1.82,1.59,2.48.12.9-1.04,1.09-1.2,1.54-.53,1.54-.74,2.64-1.37,4.29-1.61,4.2-4.03,7.63.63,10.88l2.13-1.54,1.58-3.58c.43.32.72.67.95,1.17,1.18,2.54,1.46,5.4,1.14,8.49-.55,5.43-6.22,11.6-6.01,17.02.02.39.32,2.12,1.13,1.71.81-2.27,3.4-2.98,3.49-5.2l3.27,1.75c-.15,1.17-.32,2.41-.66,3.53-1.31,4.35-7.11,10.02-9.99,14.42-.39.59-.39,1.61-.77,2.06-.75.88-2.51.18-2.1,2.61.57,3.38,5.06-1.08,6.75-.23,1.01,1.32-.62,1.49-1,2.08-2.65,4.07-8.77,8.94-10.48,13.2-.23.56.13,1.3-.11,1.74-.42.75-1.58.94-1.85,1.41-.21.37.41,1.51-.21,2.53-.31.5-2.97,2.58-3.66,3.47-1.68,2.15-4.49,7.29-6.79,8.73-3.3,2.07-3.45,2.39-5.82,5.75-.34.48-1.23.67-1.37,1.11-.57,1.31,3.11,2.89,3.95,3.03,1.31.22,2.26-.41,3.21-.36,2.52.14,4.79,1.44,7.37,1.27,1-1.93,2.97-2.2,4.33-2.93,2.93-1.58,3.88-2.47,6.38-4.62,6.55-5.65,13.76-10.15,18.08-17.77,3.1-5.47,5.9-11.07,6.6-17.56.44-4.09-1.03-6.7-1.66-10.34-.15-.84,0-1.74-.02-2.58.49-.47,3.16,1.02,3.47,1.43.31.4.03,1.91.93,1.4,3.08-1.73.55-9.25-.51-11.77-1.4-3.34-5.04-8.08-4.72-11.66.25-2.82,1.99-3.45,4.43-2.25.75.37,3.75,3.79,2.88-1.02-.16-.91-1.65-5.93-2.1-6.41-.51-.53-1.37-.38-1.52-.55-.14-.16-.39-2.26-1.56-3.88-1.35-1.86-3.72-3.37-4.77-4.58-2.62-3.03-.59-4.86,2.78-4.76.63.02,1.82,2.14,3.01,1.7l-.94-5.56c-1.89-.77-1.02-2.25-1.48-3.1-.13-.24-1.39-.63-1.86-1.06-1.89-1.73-3.74-4.29-5.61-5.99-.9-.82-4-1.29-1.95-3.47.78-.83,1.3-.25,2.08.01.06-.38-.01-.71-.1-1.08-.51-2.16-4.87-7.66-6.32-9.64-.45-.62-.81-2.21-1.11-2.42-.37-.26-2.71-.99-3.78-1.61-2.58-1.5-3.51-1.52-5.76-2.63-.75-.37-.84-1.21-1.16-1.41-.98-.61-2.64-.01-3.03-2.37-.45-2.69,1.72-1.9,2.14-2.17,2.64-1.72,4.49-3.84,7.64-5.2,1.63-.71,3.63.98,4.28-1.22l2.11.89v-1.43c.72.62,2.28.26,2.72.55.25.17.23,1.07.54,1.47.87,1.15.87,1.64,1.37,2.38.46.68,1.92.94,1.84,2.42,1.47,2.14,4.35-4.75,4.89-5.42.74-.92,1.96-1.35,2.57-2.11.91-1.12,3.39-5.19,4.3-5.78.58-.38,1.79-.15,2.39-.56.44-.3.09-1.2.55-1.51.58-.39,4.62-2.52,5.06-2.71.32-.14,1.88.44,2.26.37.32-.06.22-.76.64-.89,3.71-1.17,6.79-1.44,10.56-1.24,1.61.09,6.25.06,7.36.71.61.35.18,1.29.3,1.45.08.1.76-.42,1.17-.4.75.04,3.75,2.36,4.8,3.07,8.43,5.69,15.38,14.31,18.14,25.05.68,2.65,1.76,12.36,1.29,15.05-.04.24-.84,2.29-1.09,3.18-1,3.53-2.73,6.75-2.93,10.59l1.13.74c1.02-.91,3.11-3.39,4.07-4.08.15-.11.61.09,1.03-.17,1.18-.73,1.84-2.26,3.5-1.43l-1.72,2.73c-1.02,2.77-1.13,5.27-2.71,7.67-2.18,3.3-5.92,6.99-8.4,9.9-.78.92-4.23,4.38-4.29,5.09-.05.62.25.73.64,1.1.63-1.61,2.91.15,3.01.01.13-.17-.31-1.1.3-1.45.73-.41,5.35-1.33,5.74-.92.51,2.2-1.14,2.14-2.07,3.33s-.9,3.07-1.65,4c-2.16,2.67-6.67,6.17-9.29,8.51-2.09,1.87-3.91,4.77-6.01,6.72-.85,3.31,3.7.44,4.16,2.87.7,3.74-1.56,3.37-2.92,4.84-.61.66-1.09,2-2.25,3.03-1.6,1.43-3.81,1.36-4.58,1.96-.44.34.02,1.09-.42,1.41-2.8,2.04-5.83,2.73-8.56,5.52-.28.28-.15,1.05-.58,1.4-.83.68-2.05-.26-1.55,2.32.93-.67,2.04-.27,2.91-.49.39-.1.81-.65,2.76-1.06.95-.2,3.49-1.82,3.14.12-3.03.5-6.66,5.53-8.81,6.37-.47.18-1.15-.31-1.33-.17-.24.17-.58,2.13-1.12,2.68-.5.52-2.67,1.11-3,1.68-3.35,5.67-7.99,10.62-12.5,15.67-.24.27-.04,1-.43,1.28-.94.68-2.81.17-3.36.51-.15.09-.91,2.14-1.93,3.06-1.89,1.71-7.5,5.29-9.4,6.05-1.43.57-3.07.82-4.15,1.28s-3.91,3.01-4.75,3.36c-1.83.76-4.7-1.34-4.9,2.07-.1,1.76,2.5,2.13,3.91,2.06,3.48-.19,7.86-2.55,11.3-3.63,3.39-1.07,8.1-1.75,11.8-3.46.39-.18,2.38-2.34,2.8-2.51.61-.25,1.83-.52,2.55-.75,5.63-1.83,10.41-6.54,15.46-9.72.55-.35,1.38-.11,1.73-.34.41-.27.48-1.75.57-1.81.08-.05.92.69,1.83.27,1.23-.57,2.29-2.52,3.24-3.36,7.38-6.43,24.24-19.65,25.55-29.84.14-1.08-.53-2.75-.5-4.23.02-.99.3-6.32.6-6.75,1.51-2.13,4.42,2.14,5.93,1.31-.07-3.13,1.2-6.07,1.41-9.21.35-5.14-1.08-8.68-1.32-12.88-.03-.53.75-1.39.89-2.28.25-1.57-.44-3.4,1.45-4.17,2.77-1.14,3.64,2.09,4.96,2.31,2.45.41.8-8.28,1.39-9.92-2.19-1.19-.87-1.48-1-3.01-.09-1.04-1.26-6.27-1.58-7.09-.28-.72-1.28-.73-1.49-1.37-.64-1.98.23-3.58,2.39-3.03.21.05,2,2.83,3.1,2.85.92-.7.58-7.97,1-9.17.24-.69,1.13-.65,1.27-.82.18-.23-.64-4.36-.44-5.89.11-.88.87-.62.96-1,1.48-6.8.79-17.89-1.88-24.38-1.63-3.98-3.62-6.08-5.25-10.94-.49-1.46-3.33-5.09.41-4.61.95.12,2.56.42,3.57.6,2.87.51,8.98,3.05,11.35,4.83ZM254.08,19.75c-4.31-4.75-4.93.1-6.76,3.91-4.84-.32-5.95-1.79-6.89,3.67-.12.71.41,1.63.22,2.11-.6,1.48-2.07.44-2.69.61-2.93.81-4.32,2.17-4.41,5.43-.04,1.53,1.27,1.57,1.35,3.17.08,1.48-1.84,3.71-1.9,5.73-.03.99.93,3,1.12,4.19,1.21,7.81,3.42,14.74,5.32,22.31.82,3.28.3,7.7,1.47,11.2.15.45.86.41.91.59.35,1.4-.93,1.1-.97,1.47-.08,1.03.99,1.76-.44,3.02l1.85.71-.46,1.18-.92-.94-.27,1.88,1.6,1.18c-.61,1.2-1.57,3.69-1.58,4.94,0,.71.71,1.24.75,2.16.51,10.36-4.95,24.03-10.34,32.57-4.11,6.51-9.26,12.9-14.3,18.54-2.81,3.15-4.64,4.62-7.99,7.34-.68.55-.79,1.71-2.22,1.43l.69,1.88c.91-2.22,1.45-.96,2.95-1.24,2.7-.51,2.33-2.04,3.66-3.03,7.75-5.75,11.55-7.65,17.89-15.15,4.15-4.91,8.46-10.96,12.99-15.47,5.96-5.92,5.71-10.96,10.35-17.61,2.16-3.09,8.27-9.02,9.22-12.32,1.08-3.75,3.19-5.97,4.67-9.46,1.9-4.48,4.55-7.78,5.59-12.58.48-2.21.84-5.05.45-7.38l2.56-3.52c.09-1.16-1.77-2.95-1.71-5.09.06-1.89,2-4.95,2-5.75,0-1.22-1.36-1.41-1.71-1.99-1.65-2.73,1.12-5.91,1.41-8.86-.98-2.72-4.15-4.46-3.67-7.6.24-1.6,1.14-2.06.11-4.4-1.2-2.75-7.43-1.14-8.29-1.96-2.26-2.14,1.08-4.29-1.74-5.37-.18-.07-3.62-.41-3.81-.39-1.36.16-.29,1.81-3.21,1.41-1.86-.26-1.69-1.22-2.87-2.52ZM168.9,34.68c-.13-.23-1.59-.56-2-.53-2.68.22-3.44,3.82-4.72,5.7-2.56.58-1.98-3.71-5.26-1.19-2.81,2.15-1.26,4.61-1.53,5.32-.02.06-.5.07-.61.26-1.52,2.66-1.1,1.03-2.99,1.96-.83.41-1.41,3.43-1.34,4.29.05.68.72,1.17.86,1.89.8,4.34-1.54,2.36-3.25,5.17.21,1.42,2.48,2.44,3.02,3.58.33.71.19,1.6.52,2.31.52,1.16,1.99,1.97,1.53,3.48-.25.82-1.46,1.03-1.35,2.43.02.22,1.86,3.76,2.01,3.92.49.5,3.46,1.72,4.39,2.38,1.1.79,9.45,9.06,9.77,9.7.17.35-.38,1.04-.18,1.33.28.41,1.39.41,1.89.92.41.41,2.77,3.35,3.09,3.97,1.12,2.13,1.35,2.3,2.71,4.21.65.92,3.75,4.87,4.31,6.14.37.85,3.46,10.06,3.57,10.62.59,2.84.74,19.23-.05,21.62-.07.22-2,2.76-2.2,3.44-.47,1.64-.3,4.08-.88,5.7-.14.4-4,6.4-4.46,7.04-.85,1.18-4.62,3.28-3.78,4.91.15.3,1.94,2.43,2.34,2.43,2.11-.02,1.54-1.94,2.58-2.63.6-.4,2.95-.98,3.6-1.37.72-.43,1.43-.69,1.48-.78.15-.26-.2-1.21.11-1.78.16-.3,2.09-1.15,2.54-1.63,3.13-3.37,9.01-14.89,10.24-19.65.44-1.69.12-3.55.49-5.14.43-1.86,2.03-3.22,2.22-3.92.24-.9.01-1.93.19-2.55.07-.23,2.57-2.04,2.76-2.6.96-2.81,1.53-6.7,2.47-9.69.23-.72,1.08-1.05,1.26-2.02.89-4.6-.3-9.61-.42-13.76-.31-10.47-2.54-15.29-3.85-24.08-1.11-7.46-6.8-17.75-11.19-22.78-1.68-1.92-2.89-2.86-5.19-3.97-.41,1.61-2.06.86-3.45.91-.24-1.52-.92-4.97-2.61-5.18-3.43-.44-3.43,1.43-4.84,3.11-.86,1.02-3.4-.89-3.62-1.3-.34-.64.13-1.7-.16-2.2ZM366.32,132.92c-.71-.75-.8-3.21-2.21-3.21-.96,0-1.74,1.61-2.6,2.12-2.92,1.72-3.86-.41-5.74-.19-4,.47-11.18,5.79-14.73,8.09-10.75,6.97-19.85,14.13-29.7,22.23-.56.46-1.73,2.21-1.86,2.28-.34.18-.12-.41-1.64.52-5.12,3.13-12.08,5.34-18.03,7.55-6.44,2.38-14.02,5.46-21.34,6.2-8.65.87-18.43,1.73-27.3.88-7.25-.7-14.63-4.28-21.43-5.12-1.07-.13-5.95-.66-6.28.76l.5,3.47c.65-.08,1.19-.41,1.88-.29,3.35.6,7.89,3.14,10.96,3.9,2.27.57,7.46.15,9.92.84,8.5,2.38,18.75,4.35,28.09,3.15.89-.11.44-.91,1.33-1.02,3.42-.44,12.78-.36,16.31,0,1.08.11.25,1.22,1.35.99l-.23-.95c1.3.34,3.81-.74,4.89-.37.25.09.2.84.48.86.53.03,3.15-.49,4.55-.55,6.3-.26,12.78.2,19.2-.09,2.2-.1,5.8-.02,7.81-.29.9-.12.63-.97.94-1.01.92-.12,1.81.83,2.76.95,5.16.65,8.23-1.75,13.08-2.7,5.76-1.14,8.44-1.63,13.9-3.33,1.15-.36,2.55.17,3.53-.08.42-.11.43-.98,1.1-1.33,1.01-.52,3.15-.68,4.41-1.2,3.82-1.6,9.07-5.22,12.92-6.27,1.36-.37,2.47.55,3.68-.93.71-.87.68-2.1,1.39-2.85,1.24-1.3,3.9-1.35,3.28-4.46-2.02.24-3.89.09-3.26-2.51.16-.68,2.62-1.5,3.1-1.91.76-.66,3.67-4.58,2.9-5.48-1.19-.03-3.96-1.92-3.96-3.12,0-1.85,4.64-5.93,3.01-7.28-.25-.21-1.15.11-1.66-.19-.3-.18-.66-1.42-1.75-1.53-1.03-.1-3.96.9-4.68-.2-.14-2.68-1.34-4.43-.66-7.13-2.32-.96-3.07,1.24-3.59,1.42-1.1.37-3.77.33-4.64-.6ZM235.63,199.49c-.52-.26-1.13-.19-1.64-.45-1.69-.84-2.45-2.36-5.16-1.63.53,1.53-.18,5.66.08,6.77.43,1.86,4.5,3.32,6.03,4.17,6.14,3.42,17.81,8.48,24.77,10.31,9,2.36,9.29,3.06,16.22,9.06.74.64,2.05.02,1.63,1.88l.91-.47c.19.22.47,2.6.67,3.1.41,1.02.6.07,1.21,2.7.07.3,1.75,1,1.39,2.24,2.32-1.23,1.31-5.52,4.86-4.76l.3,1.36c2.04.07,2.93.75,2.73,2.93,1.59-1.04,1.92.7,3.08,1.35,2.93,1.65,3.8,3.01,5.97,4.37.82.51,2.26.06,3.18.87.42.37.18,1.02.62,1.46,1.61,1.61,8.55,4.73,10.79,5.93,5.94,3.19,11.63,5.32,17.98,8.15,6.56,2.92,16.31,4.47,23.53,5.35,1.39.17,2.81.98,4.24.95,2.2-.05,5.55-2.14,6.95-2.41,1-.19,2.3.23,3.16,0,.5-.13.44-1.16,1.08-1.37.52-.17,1.11.44,1.81,0s1.08-1.84,1.88-2.37,3.14-.72,3.37-1.08c.37-.58-.43-1.96,1.45-2.53l.02-.95c-1.94-.5-.27-1.18-.23-1.87.05-.91-.57-2.03-.19-3.03,1.75-1.28,5.29.82,5.89-1.81.2-.86-.69-4.59-1.45-5.21-1.22-1-3.52-.19-2.51-3.33.28-.88,4.31-1.47,2.88-4.83-.61-1.38-2.1-1.16-3-1.73-.33-.21-.39-.83-.86-1.13-.77-.5-2.22.04-2.35-1.77l1.74-4.34c-1.17-.32-2.13-1.15-2.29-2.42-1.21.7-4.01,1.23-5.28.83-.57-.18-1.8-2.26-2.36-2.73-1.8-1.52-4.16-2.28-6.25-.96-.13-1.91-2.41-1.56-3.93-1.37-7.2.89-14.06,1.9-21.33,3.3-7.28,1.41-14.29,2.05-21.89,2.37-2.07.09-1.34-.89-2.27-1.02-7.73-1.03-16.27-.23-23.53-1.62-3.19-.61-3.96-2-8.08-2.18-1.8-.07-14.01-4.22-16.56-5.23-3.9-1.55-8.27-5.3-12.24-6.97-2.89-1.21-7.24-1.93-10.02-3.38-1.87-.97-4.8-3.45-7.03-4.54ZM229.7,252.38c-2.44-1.6.1,3.43-1.81,3.52,1.64,5.98,1.98,12.4,3.35,18.33.22.95,1.23,1.61,1.31,2.49.14,1.5-1.4,5.77-.96,8.99.68,4.98,1.21,10.16,1.84,15.16.39,3.09.65,6.24,1.07,9.32.99,7.3,1.05,15.86,2.67,22.91.4,1.76-.29,4.55.04,6.51.21,1.28,1.6,3.3,1.8,4.79,1.3,9.43,2.61,16.99,5.46,26.14,2.61,8.4,6.99,15.7,10.88,23.84,1.1,2.31,2.43,6.31,3.78,8.3.24.34,1.25.68,1.74,1.29,5.48,6.74,11.96,13.71,20.6,14.96.73.11,3.99.14,4.57-.02,1.26-.35,1.1-5.07,5.14-1.83,1.3,1.05,1.06,2.51,3.68,1.73,2.28-.69,1.47-4.26,2.72-5.98l4.31.9.51-1.01c4.59,1.78,2.54-4.54,1.64-7.22.89-2.05,4.65-1.64,4.85-3.86.31-3.36-3.02-3.53-2.51-5.6.52-2.11,3.38-1.13,3.86-1.74.22-.28,1.38-2.9,1.47-3.3.43-2.12-.51-1.88-1.4-2.91-.3-.35-.11-1.26-.56-1.4-2.28-.71-4.15,2.24-5.54-2.33-.19-.62.33-1.44.05-1.9-.41-.68-1.8-.69-2.03-1.05-.29-.46.1-1.58-.53-2.06-.46-.35-1.7-.19-2.39-.42-.99-.34-.92-1.66-2.65-1.29-1.85-2.79,1.8-2.12.59-4.64-.85-1.77-5.13-4.26-6.25-6.4-3.86-1.92-9.01-7.82-12.55-9.48-.47-.22-.95.07-1.37.26,0-3.74-2.47-4.22-4.37-6.21-.92-.97-1.74-3.08-2.29-3.61-.24-.23-2.92-1.55-3.14-1.85-3.48-4.7-6.53-8.9-10.36-13.45-3.98-4.73-8.9-17.03-11.75-23.02-.19-.4-1.81-2.04-1.93-2.41-2.18-6.93-3.05-16.2-4.57-23.64-.86-4.2-1.2-8.32-1.99-12.09-.08-.37-.89-.3-1.18-1.23-1.84-5.95-1.04-10.57-5.25-15.98-.31-.39-.43-1.42-.58-1.52ZM106.62,333.59c.18-.18,2-4.39,2.04-4.85.06-.7-.36-5.37-.51-6.15-.19-1-1.14-1.37-1.21-1.87-.09-.68.53-1.59.2-2.76-.66-2.36-7.58-5.46-9.64-4.35-2.62,1.42-3.85,6.56-3.25,9.36.03.12.49,1.36.71,2.13,1.26,4.38,2.06,5.26,4.83,8.5.57.67.52,2.05,2.2,2.38,2.12.41,2.57-1.21,3.54-2.12.21-.2.87-.05,1.08-.26ZM184.74,326.62l-6.18-1.45c-1.38.24-4.99,8.97-5.96,10.6-4.17,7.02-9.79,13.15-12.88,20.56-4.35,10.43-7.45,21.29-8.91,32.53l1.95,8.5c.06.98-1.31,1-1.44,1.52-.27,1.09.21,2.88-.02,4.11,1.76,1.37,3.9,1.79,5.39,3.61-.3,1.27-.94,3.81-.75,4.97s1.79,1.02,1.47,2.52c3.11.48,5.2-1.79,7.39,1.36-1.05,3.73,1.29,5.5,4.78,4.85.31-.06.34-.66.44-.72.26-.13.66.15,1-.2.5-.53,1.63-2.8,1.98-2.88,2.72-.57,4.57,3.97,7.58,2.64l2.28-7.13c.77-.43,4.35.88,6.08-.44,1.31-1.01-.12-5.98.06-6.31.05-.1,1.49-1.51,1.6-1.52,1.87-.17,4.68,2.18,5.09-2.34.22-2.41-1.93-3.5-1.99-4.88-.06-1.31,1.61-5.63,1.94-7.39,1.64-8.88.99-20.53-.11-29.26-.18-1.41.14-2.86-.52-4.19l.91-.46c-1.03-3.87-.63-8.32-.49-12.28.13-3.6,2.01-10.05-1.15-12.58-.22-.17-5.14-.87-5.37-.71-.96.71,0,3.42.04,4.74.13,5.17-.58,10.67-.5,15.62.16,10.31,2.6,17.88.46,28.4-.66,3.23-2.31,6.88-5.51,8.03-1.3.47-4.32,1.51-5.88,1.65-2.51.22-4.98-.71-7.15-1.55-.42-.16-.94.24-1.27.08-.16-.08-2.39-1.93-2.7-2.24-1.2-1.23-3.53-4.93-3.82-6.53-.14-.79.41-1.48.36-2.23-.07-.9-.92-1.59-.9-2.39.01-.59,1.41-3.97,1.66-4.96,1.82-7.09,3.98-12.73,7.67-19.6,1.56-2.89,3.49-6.84,5.3-9.72.75-1.19,3.86-4.11,4.11-4.76.17-.43-.3-1.07-.14-1.33.21-.35,3.46-2.32,3.84-2.93.2-.31.06-2.68.27-3.32Z"/>
        <path d="M75.16,73l-.49,3.19c-1.68.39-3.46.45-5.13.68-.42.06-.86.73-1.06.73-.59.02-.89-1.57-1.51-1.8-.51-.19-6.75-.4-7.07-.26-1.23.53-.08.62.12.83.67.7,2.33,2.19,2.57,3.07.09.3.58,3.86.57,4.13,0,.33-.78.27-.94.6-.77,1.56-.55,2.59-2.45,3.58-.59.31-1.31.19-1.83.4-.45.18-.24.95-1.03.95-1.84,0-5.56-2.24-6.49-3.86-.66-1.13-.27-2.54-1.6-3.02l-.05-1.68c.05,2.52-2.52,1.9-3.38,3.92-.73,1.71.25,1.22-1.25,3.52-.7,1.08-1.1,2.97-2.79,2.96-1.2-3.12-1.05-4.85.54-7.72,1.37-2.46,5.89-7.24,8.29-8.59.14-.08,2.35-1.01,2.68-1.14,6.38-2.49,15.88-2.83,22.31-.48Z"/>
        <path d="M96.1,21.36l1.85-.47c.25,2.46,1,6.25.2,8.6-.08.23-2.1,3.84-2.32,4.15-2.68,3.85-6.65,5.85-10.55,8.17-3.31,1.97-7.05,3.65-10.48,5.88-.89.58-1.68,1.96-2.36,2.26-.38.17-1.11-.23-1.42.01s-1.23,3.3-1.53,3.91c-.2.4-1.53,1.15-1.24,2.52l-2.25-1.03c-.16-3.76,2.86-5.94,4.24-8.77l6.29-3.52c-.24-3.46,1.06-2.22,2.76-3.1.53-.27.41-.79.94-1.07.3-.16,1.09.15,1.4-.1.26-.21,3.31-5.01,3.57-5.6,1.04-2.43,1.53-7.35,2.71-9.31.13-.21,3.24-3.35,3.46-3.44.47-.19,3.99-1.02,4.45-.87,1.22.39.1,1.62.29,1.79Z"/>
        <path d="M81.12,15.81c.57.39,2.34,4.01,2.42,4.9s-.83,4.94-1.17,5.83c-.78,2.07-7.96,9.3-9.97,10.59-1.52.99-3.53,5-4.94,7.3-.66,1.07-.77,1.43-1.33,2.46-.33.61-1.85.54-1.14,2.86l-1.88-.22c-1.5-.98,2.71-8.32,2.58-10.22,4.04-1.84,6.62-10.17,6.68-14.39.01-.81-.62-1.58-.64-2.67-.02-1.12.56-3.96,1.19-4.86,1.33-1.89,6.3-2.85,8.17-1.58Z"/>
        <path d="M185.15,203.65c-.24,1.82,1.03,1.3,1.92,2.06.82.69,2.28,5.75,2.33,7.08.13,3.47-.74,3.51-1.9,6.15-.42.96-.47,2.96-1.13,3.59-.6.57-1.48.27-1.96.6-1.38.96-2.41,4.06-2.91,4.35-.78.46-1.71.07-2.47.24-.4.09-.36.79-.65.93-1.14.57-2.34.6-3.16,1.88-.6-1.4-2.64-1.18-3.24-1.89-.3-.35-.32-1.17-.7-1.65-.69-.87-2.02-1.35-1.68-2.61.47-1.78,1.74-1.07,2.48-1.54.3-.19.4-1.08,1.06-1.52.82-.55,2.33-.5,3.04-1.16.79-.74.5-1.73.9-2.44.1-.18,3.19-1.73,3.36-1.95.32-.39.2-1.85.5-2.58.26-.64.84-.61.97-1.01.79-2.38,1.37-6.12,1.43-8.63l1.8.08Z"/>
        <path d="M116.7,262.43c-.52.66-1.09,2.12-1.59,2.41-.63.37-1.56.18-2.27.52-2.66,1.28-2.08.79-4.39,1.32-3.34.76-12.68,2.39-15.46.88-1.77-.96-3.09-2.75-5.6-3.06l-.08-2.9,1.11-.77,7.46,2.84c1.81-2.44,6.66-.21,9.53-1.16,1.1-.36,3.5-2.51,4.74-3.21.64-.36,1.67-.23,2.19-.6,1.33-.96,2.2-5.73,2.8-6.95.82-1.68,3.82-2.81,5.05-1.01-.61,1.73.54,4.14.35,5.52-.25,1.94-2.62,4.64-3.84,6.17Z"/>
        <path d="M50.82,53.3c-.19.17-.2.74-.49.74l-1.55-.53c.63-4.79.62-12.48-5.11-13.94-1.28-.33-2.36-.02-3.4-.24-.26-.05-3.82-2.9-4.15-3.42-.66-1.05-1.19-3.66-1.06-4.85.04-.35,1.61-2.4,1.75-2.47.16-.07,3.03-.78,3.37-.83,1.57-.23,5.31.62,6.5,1.63.18.15,2.51,3.46,2.7,3.8,2.25,4.14,4.52,14.38,2.67,18.76-.29.69-.74.9-1.24,1.35Z"/>
        <path d="M140.45,276.29c-.12.39-3.68,6.19-4.13,6.63-1.36,1.33-4.48,1.85-5.65,3.94l-.45-.95-1.16.5.45.92c-1.79-.13-5.03,1.66-6.32,1.76-.94.07-1.94-.53-3.17-.32-.62.1-1.21.83-1.43.83-.34,0-.74-.9-1.17-1.05-2.42-.85-6.07-.91-2.96-4.44,1.63.35,3.62.96,5.3.68,4.98-.81,10.24-5.76,12.99-9.98.56-.86,1.42-3.59,1.99-4.37.53-.74,3.31-1.7,4.27-1.58,2.06.25,1.95,5.75,1.43,7.44Z"/>
        <path d="M169.1,216.5c-.4.26-.48,1.23-1.52,1.56-2.16.69-4.73-2.42-6.28-3.62-.54-.42-1.89.08-1.61-1.38,1,.09,1.23-1.3,1.72-1.44.76-.22,1.63.06,2.78-.37,3.95-1.47,4.48-4.31,5.73-7.78.51-1.4,1.58-3.47,1.84-5.31.22-1.58,0-3.65-.48-5.18l1.15-1.23c.75,1.54,2.74,1.09,3.41,2.2.35.58,2.21,5.99,2.31,6.68.13.92-.29,1.51-.3,2.24,0,.62.41,1.25.36,1.87-.16,1.89-4.93,9.74-6.51,10.88-.79.57-1.89.42-2.61.89Z"/>
        <path d="M195.57,231.17c-1.96,2.81-3.1,5.47-6.32,7.05-3.36,1.64-9.11,2.66-12.41.49l.05-3.86,4.43-.85c.49-.09,1.21.43,1.72.28.7-.2.78-1.34,1.24-1.64.15-.1,2.03-.4,3-1.15,2.86-2.22,6.2-8.69,7.57-12.21.46-1.19-.16-2.11.79-2.92,1.43.72,3.09,2.87,2.89,4.57-.22,1.95-.17,2.84-.3,4.64-.25,3.71-1.1,3.35-2.67,5.6Z"/>
        <path d="M61.96,18.31c.69.82,1.16,1.38,1.51,2.47.42,1.31,1.34,6.56.98,7.79-.19.63-1.04,1.14-1.36,1.97-1.17,3.13-1,3.2-2.59,6.11-.84,1.54-.89,4.4-3.4,4.11l-.02-9.2c-1.55-3.35-4.47-5.5-4.64-9.51s1.59-6.21,5.44-6.21c2.03,0,2.93,1.1,4.07,2.47Z"/>
        <path d="M112.81,236.7c-.39,1.16.53,3.66.28,4.5-.37,1.21-.76,2.49-1.16,3.79-.29.95-2.02,2.13-1.44,4.02l-.92-.48c.01.61.11,1.19-.13,1.77-.11.27-3.9,3.93-4.16,4.05-.71.31-1.51-.25-2.31-.05-.89.23-1.76,1.54-2.56,1.71-.36.07-6.76-.25-7.19-.42-1.96-.77-1.79-.48-3.82-.93-1.19-.26-2.5-1.18-3.77-1.37l.58-2.42c2.31-.55,3.42,1.44,5.48,1.49,4.28.11,8.18-2.38,11.32-5.1,3.52-3.04,4.47-5.74,5.13-10.36l4.67-.21Z"/>
        <path d="M163.25,190.93c.41.48.58,1.35,1.06,2.02.32.45,1.29.5,1.42,1.01.09.36.29,5.08.24,5.6-.02.19-1.1,3.41-1.2,3.63-.3.62-1.14.72-1.63,1.31-4.16,4.94-7.2,10.29-10.92.79.93-.92,4.23-3.51,4.66-4.46s.08-2.09.38-2.8c.32-.74,1.29-1.29,1.43-1.89.26-1.12-1.11-4.28-.19-5.85.67-.97,4-.24,4.76.64Z"/>
        <path d="M118.24,276.76c-.65.33-3.69,1.93-3.91,1.98-.71.18-1.53-.5-2.83-.11-1.3.39-2.11,1.87-3.59,1.87-1.15,0-4.52-.69-5.69-1.08-.65-.22-4.72-2.07-4.77-2.33-.15-.75.49-2.8,1.24-2.97,1.55.48,2.34,1.37,4.12,1.42,4.33.14,14.6-2.5,17.21-6.16,1.25-1.76,1.02-4.6,4.14-4.29,3.86.38,1.15,6.09-.26,7.78s-3.5,2.06-5.07,2.96c-.31.17-.42.85-.59.94Z"/>
        <path d="M140.1,198.75c-1.03.6-5.82-1.64-7.21-2.09-.33-.11-.86.19-1.19.09-2.66-.85-5.11-1.66-4.98-5.21.01-.31.76-.29.93-.61.32-.62.73-2.12,1.05-2.38.36-.3,5.47-1.61,6.37-1.77,1.26-.22,5.87-.77,6.51-.02,1.09,1.27-.29,11.3-1.49,12Z"/>
        <path d="M99.08,240.22c-1,.65-7.91,3.71-8.75,3.61-.26-.03-.21-.89-.57-.97-1.22-.28-6.73-.02-7.27-.43l-2.16-3.59c3.77-2.23,9.12,2.07,13.19-.75.9-.62.98-2.27,1.63-2.95.48-.5,2.6-1.43,3.13-2.37.47-.82.77-5.5,1.34-5.55,5.55.56,4.51,8.33,1.61,11.62-.79.89-1.34.86-2.14,1.38Z"/>
        <path d="M149.16,282.46c.17.26.92.27,1.15.93.18.5.65,4.07.55,4.55-.06.32-.71.37-.87.73-1.5,3.25-2.8,5.67-5.44,8.12l-7.12-.96c-.18-1.87-.05-4.83,2.29-3.76.16-.15-.64-.82-.25-1.41,1.16-1.78,4.19-2.89,4.79-5.58.14-.61-.32-1.26-.23-1.71.03-.14,1.3-2.42,1.4-2.53,1.93-2.21,3,.47,3.74,1.61Z"/>
        <path d="M151.66,201.08c-.56.48-2.06.24-2.28,1.92-2.87-.01-6.3-.23-6.43-3.85,3.87-3.26,5.2-6.62,3.28-11.65,4.81-1.61,9.05,1.03,8.06,6.51-.28,1.54-1.13,1.87-1.46,2.81-.35.98-.41,3.59-1.17,4.25Z"/>
        <path d="M162.33,294.57c.28.3,2.3,3.57,2.28,3.88-.28,1.04-1.81,2.07-2.06,2.94-.21.73.04,2.31-.12,2.48-.11.13-2.82.49-3.32.39-.99-.2-6.83-3.06-7.23-3.78-.22-.39-.25-1.93-.03-2.2,3.74-.27,3.02-5.09,6.63-5.21.87-.03,3.22.84,3.83,1.49Z"/>
        <path d="M56.12,205.05c1.08,1.71-.78,3.23-1.3,4.09-.27.44-.17,1.29-.45,1.69-.12.17-2.81,1.66-3.52,2.2-.72.56-.97,1.58-1.52,1.88-1.26.68-8.86,1.89-10.55,1.94-2.57.08-3.89-1.23-3.01-3.83,2.11.14,7.52,1.04,9.27.23.27-.13,4.19-3.41,4.62-3.91.78-.92,2.81-4.85,3.28-5.1l3.19.81Z"/>
        <path d="M40.61,193.88c.55.62.88,1.59,1.01,1.69.85.62,1.88-.11,2.61.07,1.95.47,4.24,2.29,7.03,1.78,1.14-.21,1.73-1.27,2.59-1.57,1.12-.39,5.87-1.18,5.11,1.34-1.98,1.19-4.12,3-6.4,3.46-1.13.23-2.87-.63-4.05-.26-.28.09-.03,1.26-2.28.8-3.14-1.2-10.94-3.95-6.07-8.02.31-.13.17.41.44.72Z"/>
        <path d="M186.91,60.81c.12.08,2.1,1.66,2.21,1.76,1.72,1.72,5.02,7.34,5.33,9.71,1.09,8.48,1.98,16.64,1.45,25.54-.29,4.79-1.77,10.44-4.43,14.41-2.71-1.68-2.27-5.13-3.08-7.77-2.82-9.28-7.16-14.49-12.32-22.19-1.45-2.17-.44-1.45-2.67-3.65-.3-.29-3.6-6.62-3.72-7.03-.25-.81.3-1.76.21-2.12s-.81-.09-.95-.99c-.41-2.65.84-2.59.92-2.94.05-.23-.38-.77-.18-1.12s1.01-.54,1.34-.98c.42-.57,1.52-2.44,1.81-2.64.73-.51,1.92-.37,2.75-.66.37-.13.36-.81.68-.89,1.73-.41,9.2.59,10.67,1.57Z"/>
      </g>
    </g>
  </g>
</svg>