<?xml version="1.0" encoding="UTF-8"?>
<svg id="_Слой_2" data-name="Слой 2" xmlns="http://www.w3.org/2000/svg" viewBox="0 0 431.76 444.39">
  <g id="_Петух" data-name="Петух">
    <g>
      <path d="M194.19,0c-.26,1.35.75,1.3,1.17,1.85.08.11.83,1.95,1.02,2.22,3.51,5,10.43,10.6,17.05,9.08,2.19-.5,4.18-3.17,5.53-3.66.44-.16,1.34.11,1.5-.05s-.11-1.06.05-1.5c.37-1.01,3.1-3.54,3.76-4.58.56-.9,0-2.75,2.08-2.02,1.72.61.54,2.56.51,3.18-.26,4.43.04,7.45,1.76,11.61l.9-.45c-.06,1.55,1.63,2.57,2.78,3.42l-.37.85c2.15.07,4.17,1.13,6.33.45.4-.12.36-.78.47-.83.41-.2.24.38,1.53-.35.56-.31,2.28-1.17,2.61-1.46,1.01-.89,1.37-3.84,4.22-1.98l.61,2.49-1.44.25c.49,1.8-.49,3.38-.63,5.32-.1,1.42-.3,3.29,1.59,2.79-.65,3.15,4.11,2.79,6.34,4.18,2.3-.7,3.13-2.83,5-3.48l-.32-1.09,1.62-1.04c1.83,1.39,1.3,2.28,1.79,3.9.22.73.72,1.42,1,2.36.26.88-.81,1.98.77,1.84-1.1,1.25-1.26,3.42-.96,5.02.23,1.24,1.34.77,1.48,1.87.1.83.08,2.51-.07,3.33-1.04,5.95-5.16,8.76-8.38,13.35-.25.36-.13.96-.25,1.13-.06.08-.72-.22-1.13.06-3.27,2.23-3.14,1.59-6.41,2.68-4.16,1.4-.43,7.54,1.03,9.9,2.86,4.64,4.25,7.31,6.54,12.16,3.2,6.76,2.62,15.68,3.87,23.22.13.79.94,1.23.96,1.92,0,.29-.87.17-.97.56-.33,1.26.31,3.28-.01,4.6-1.23,5.09-2.11,11.33-3.32,16.4-.42,1.77.4,4.73-.02,6.5-.05.22-1.84,3.3-1.89,3.52-.46,1.91.21,4.85.47,6.83l-1.46.26c.49,3.03-.56,7.57.04,10.38.08.37,1.3.48,1.32,1.59,0,.8-.7,1.37-.67,1.83s1.22,1.92.85,3.07l1.27.1c1.25,4.99,5.73,7.64,10.09,10.21,1.03,1.04,1.04,3.35.46,4.61-.29.63-1.72,1.4-2.19,2.01-.27.34-.09,1.05-.2,1.2-.14.19-3.15-.83-4.21,1.38-.33.7-.28,1.94-.63,2.37-.37.46-1.66.43-1.79.62-.2.29.32,1.15.23,1.63-.2,1.05-.98,3.54-.69,4.71.09.37.74.35.9.67,2.61,5.04,3.36,5.48,8.06,8.54.42.27.49,1.03.89,1.13,2.04.51,10.54.29,12.65-.14.34-.07,3.92-1.29,4.08-1.44.18-.17.08-.83.3-1.08.98-1.08,3.95-2.44,4.47-4.37.33-1.23-.13-2.53.11-3.63.08-.38.87-.12.98-1.01.48-3.65-.57-15.87-1.68-19.39-.66-2.08-2.56-5.18-3.47-8.44-1.12-4.06-1.55-10.54-2.62-14.07-.21-.69-1.13-.98-1.33-2.01-1.11-5.63.22-21.7,1.97-27.13.21-.65,1.24-.6,1.37-1.1.26-1.02-.29-2.63-.02-3.63.13-.5,1-.49,1.22-.81.34-.51-.27-1.44.05-2.25.28-.71,1.21-.69,1.43-1.3.14-.41-.35-1.83-.16-2.07,3.04-3.97,5.21-9.82,7.53-14.51.91-1.84.62-2.3,1.12-3.51.19-.46,2.64-2.55,3.14-3.4s.27-1.85.61-2.39c.3-.48,1.91-.77,2.15-1.2.45-.78.68-2.43,1.7-3.54,1.49-1.6,3-1.49,3.13-1.62.12-.12.02-1.26.3-1.83,1.67-3.36,4.49-6.81,6.27-9.95,3.47-6.12,7.18-12.58,7.8-19.41.05-.58.75-1.12.76-1.44,0-.6-.71-6.47-.89-7.52-.78-4.57-5.53-9.61-9.91-10.86l.48-.94c-1.8.49-2.47-1.43-4.19-1.78-3.25-.66-7.44.22-10.82-.17l-.26,1.47h-3.34s.24.95.24.95c-3.53-.78-4.3,4.1-7.35,3.86l-.04,1.39-1.38-.54c-.35-.42.3-1.57.22-2.11-.28-1.9-.37-2.79.34-5.1.8-2.61,2.64-7.95,4.33-9.74.84-.89,3.53-2.56,4.54-3.33,1.44-1.09,9.72-5.82,11.75-6.14,1.37-.21,3.01,1.36,2.64-1.19,3.72.03,11.95-1.45,15.39-.39.61.19.95.99,1.65,1.21,12.84,4.1,21.42,7.3,28.71,19.53,3.77,6.32,6.78,15.48,5.79,23.32-.12.92-.98.48-1.04,1.38-.39,5.74,2.51,7.72,6.7,10.09.31.18.36.87.89,1.12,1.23.58,7.56-.06,8.81-.46.58-.19.5-1.19,1.12-1.39.8-.26,1.95.53,3.32.05.67-.23.71-.88.77-.9.31-.11.88.44,1.34.12.34-.23.35-1.04.54-1.18.33-.24,1.12.45,1.56.44.25,0,.17-.69.66-.93,2.53-1.23,9.91-4.2,11.56-6.1.12-.14,1.89-3.03,1.92-3.21.11-.91.14-3.93-.04-4.71-.1-.4-.95-.13-.99-1.03-.25-5.74-.83-2.58-3.01-6.02-1.43-2.26-1.33-5.32-5.06-5.68.89-3.27,5.21-1.51,7.9-1.87.88-.12.63-.89,1.01-.98.67-.16,6.71-.4,7.64-.35,1.39.07,3.16,1.67,4.19,2.06.45.17,2.79.54,3.46.78.4.14,5.98,5.36,6.22,5.71.08.12-.37.63-.27.76.16.23.89.27,1.24.89.6,1.07.08,2.01.23,2.44.88,2.49,2.78,6.26,3.16,8.95.63,4.47-1.24,11.94-3.12,15.92-.49,1.03-1.64,1.6-1.97,2.06-.95,1.35-1.86,2.76-3.54,4.36-2.07,1.97-4.21,3.3-6.02,4.76-1.23,1-1.77,3.36-3.45,2.21.7,1.53-.93,2.05-.97,2.23-.19.89.32,1.8.31,2.7-.02,1.83-.45,3.55.18,5.56l.94-.95c.15,2.49.73,1.98,2.04,2.86,1.83,1.23,1.17.47,2.91,1.03.31.1,4.24,3.22,4.94,3.75,6.9,5.25,13.12,12.71,15.62,21.7.11.4-.26,1.3-.04,2.17.24.96,1.17.66,1.28,1.61.39,3.32-.46,6.8-.98,10.05-.34,2.08-.55,4.04-.98,6.09-.09.43-3.01,3.06-2.38,4.63l-.94-.48c.01.6-.07,1.22-.45,1.72-1.03,1.35-3.68,3.46-5.3,4.7-1.16.9-4.97,2.75-5.08,4.32-.01.21.51.57.55.95.05.46-.29.99-.22,1.34.07.39.8.36.92.69.45,1.23.51,3.09,1.44,4.11.32.36.84-.1,1.22.25,1.68,1.56,1.83,2.8,3.37,4.05s.8,1.35,1.17,2.8c.05.21,1.94,2.8,2.2,3.38,1.5,3.24,2.24,7.01,3.45,10.25.27.73.87,1.56.98,2.26.41,2.62-1.03,5.87,1.45,7.6-2.49,1-.87,1.86-1.08,3.28-.3,1.98-2.66,9.37-3.74,10.73-.09.11-.39-.45-1.86,1.63s-3.74,5.01-6.81,6.64c-.82.44-4.35,1.25-4.52,1.43-.28.29-1.39,3.29-1.83,4.13-.72,1.38-2.69,2.51-2.04,4.77.76.25,1.48.44,2.1,1,.15.14,2.41,2.82,2.48,3,.29.66,0,1.53.14,1.79.03.05.72-.52,1.18-.04.2.21,3.12,4.49,3.3,4.85.48.95.39,2.22.79,2.93,3.79,6.75,6.72,9.42,8.05,17.83.09.56-.48,1.41-.38,1.56.11.16,1.1.15,1.33.83.33.97-.43,1.96-.3,2.73.51,3,.18,1.36-.12,3.92-.57,4.81-.49,7.61-1.89,12.02-2.62,8.23-4.21,13.67-11.22,19.48-.71.59-2.77,2.5-2.96,2.61-.48.27-1.67-.05-2.08.25-.55.4-.87,1.63-1.42,1.9s-.99-.84-1.61-.72c-.47.09-.9,1.22-1.98,1.41-2.56.43-5.73.05-8.12-.46-3.18-.68-1.63.83-2.22,1.78-.8,1.28-.86-.72-.86,2.21,0,.34-.88.06-.99.97-.21,1.67-.12,2.74,1.49,3.38-1.48,2.38-1.26,5.98-.51,8.59l-1.41.23c.81,2.18-1.35,4.37-1.32,6.06.02.77.95,1.28.86,2.25-.02.25-.77.26-.97.64-.88,1.75-1.9,7.62-2.47,9.8-.08.29-1.91,1.6-.88,3.17l-1.43.02.95.71-1.4.78.38,1.13c-1,.41-1.06.77-.88,1.9l-.95-.24c.31,1.12.23,2.19-.36,3.22-2.6,4.49-7.13,9.38-10.74,13.34-2.4,2.63-5.26,5.39-7.48,7.63-4.13,4.17-9.22,10.07-9.02,16.63.03,1.02,1.04,5.22,1.4,6.53.12.42.74.36.81.58.22.75.84,4.77,1.05,5.15.27.51,1.36.46,1.98,1.01,1.05.93.94,2.97,3.23,3.22l-.42.88c1.52.07,7.35,2.53,7.89,3.83l-.8,3.75c-1.77-.46-1.81.91-2.42,1.16-1.11.46-14.43.64-15.79.31-.34-.08-.28-.79-.69-.91-1.56-.47-3.07-.62-4.77-1.33-.97-.4-1.34-.69-2.86-1.23-.48-.17-1.15-2.54-2.94-1.83l-.05-1.38-.94.48c.44-1.89-1.43-1.63-2.26-2.52-1.11-1.19-5.18-10.43-5.58-12.22-.33-1.48-.07-3.54-.3-5.03-.13-.83-.97-1.39-.98-2.41-.02-1.46,1.41-1.73,1.53-3.33.09-1.23-.61-2.41-.52-3.33.07-.69.82-1.3.97-2.38.18-1.29.12-10.01-.26-10.76-1.01-2.01-4.84-.92-6.15-1.12-1.66-.26-3.73-1.39-5.55-1.26l.48-.95c-1.09-.13-3.41-.36-4.16-1.12-.21-.21-.09-.88-.29-1.08-1.39-1.32-3.37-3.32-4.11-4.86-.3-.61-.64-3.12-.37-3.8.07-.18,2.67-2.57,2.85-2.65,1.08-.45,3.12-.36,3.88-.79.53-.3.16-1.13.38-1.35.46-.47,3.63.17,3.22-2.42-1.14-1.64-7.1-.86-7.49-1.1-2.31-1.43-6.22-4.02-7.61-6.57l-2.34-1.96c-1.76-.2-3.39,3.18-5.37,1.88l.42-3.73c-1.46-.59-3.39-1.56-4.78-.17-.23.23-2.55,5.51-2.61,5.83-.38,2,4.35,4.41,4.56,1.47,3.17.53.16,2.93-1.15,4.13-.41.38-1.69-.28-1.25,1.59-1.48.36-2.19-2.67-3.09-2.74-1.03-.09-3.82,2.42-3.6,3.7-1.2-.6-2.98-.21-3.98-.55-.61-.21-.61-1.07-.9-1.24-.45-.28-1.2.05-1.65-.24-.7-.46-2.71-2.38-3.15-3.23-.25-.47.8-1.58-1.87-.92-2.05.51-.26,4.98-1.24,6.6,1.35.1.95,1.15,1.22,1.48,1.95,2.43,5.51,2.98,7.89,4.41,1.6.96,2.48,2.64,4.17,2.77l-.48.93c2.18-1.04,3.42,3.18,4.41,3.72.51.28,1.43-.09,1.74.18.16.14-.09.93.36,1.39.5.51,3.69,1.91,4.44,2.61.55.52.39,1.34.6,1.54.47.43,2.46.19,3.24.41.35.1.71.88,1.3,1.05.78.22,2.55-.07,3.88.38,2.22.75,4.16,1.77,3.84,4.44-2.32-.15-2.61,3.52-5.22,2.89l.48.95c-1.78.93-3.63-.08-4.99.01-.82.05-1.46.81-2.01.86-.65.05-9.83-5.2-11.73-5.79s-4.97.25-5.91-1.77l-1.98.61c-1.51,4.13.08,3.19,1.62,5.34,2.13,2.97,3.81,7.03,5.33,9.93.17.32-.28.88.05,1.57.48,1.01,4.17,4.32,5.18,4.98,1.29.84,2.92.58,3.53,2.14.35.88-.49,1.86.88,1.7-.32.22-1.43,1.72-1.54,1.77-.95.41-2.46-.46-2.26.84l1.42.24c-.43,2.49.52,1.55,1.23,2.09,3.4,2.61,11.33,5.49,15.61,4.57.22-.05.92-1.52,2.98-1.44,3.68.15.8,3.75,2.09,4.58.69.44,1.8.04,2.56.22.37.09.29.85.66.93,2.87.66,5.33,1.57,7.4,4.2.16.11.72-.39.8-.32.73.61,1.16,5.99,3.4,5.21.48,2.66,2.27,5.61,2.97,8.7.09.42.52.78.83,1.07l-2.85.71.48-1.42c-.69-.09-1.42-.27-2.04-.59-3.3-1.75-5.65-3.06-9.65-3.25-2.61-.12-2.02.83-2.46.94s-1.19-.45-2.22.11c-2,1.1-1.91,1.68-4.73,2.82-.4.16-.37.82-.7.9-.71.17-3.87.17-4.59,0-.33-.07-.34-.76-.43-.78-4.49-1.22-6.63-1.61-10.19-4.63-1.66-1.41-2.41-3.02-3.15-4.03-.2-.27-1.28-.37-1.61-1.04-.31-.63.6-2.39-.29-3.28l-1.79-.13c.28-2.54-3.8-1.01-5.28-2.79.15,1.49-1.67.95-2.51,1.43-.46.27-.51.85-.84,1.1-.28.21-.89-.08-1.18.31-.68.9-.72,2.72-.74,3.83l-1.18-.04c-.72,1.05-.45,2.47-.75,3.5-.12.4-.83.34-.91.69-.34,1.44.25,3.57-.02,5.14-.12.7-1.05,1.51-.94,1.67.03.04.66-.12.98.34.71,1.01,1.2,5.83.96,7.04-2.19.23-1.2,1.26-1.92,2.31-.58.85-2.69,2.13-3.33,3.04-.6.85-.53,3.27-.63,3.42-.28.43-1.93.51-1.32,2.47l-.95-.49c.38,2.1-1.29,1.6-2.79,1.83-.7-1.59-1.33-3.24-2.13-4.79-.35-.68-1.13-.89-1.17-.98-.31-.64.8-1.94-1.09-2.56.97-2.17-.04-1.28-.86-2.38-2.05-2.74-1.28-1.24-3.12-2.53-.56-.39.25-1.94-1.69-1.5-.93-3.16,3.57-5.06,4.16-6.51.65-1.61,1.53-5.02,2.24-7.09.17-.51-.21-1.61-.06-1.91.3-.61,1.07-.56,1.21-.74s-.88-3.4-.43-4.38c-3.26-4.24-6.49.56-9.15,2.88l-.85-.36c.1,2.04-1.47,2.41-2.35,2.9-.05.03.26.62.1.9-.51.93-3.59,4.24-4.42,4.51-.35.12-6.86.38-7.44.31-.83-.11-.64-.82-1.06-.94-2.38-.71-3.84-1.27-6.42-.87-.58.09-6.31,2.29-6.58,2.54-.43.4-.36,1.21-.82,1.61-1.26,1.08-2.65,1.69-3.66,3.15l-2.13-.54c.65-2.17,0-4.3.47-6.55.08-.38.74-.29.82-.57.31-1.13.15-3.15.79-5.06.57-1.71,2.23-2.77,3.26-3.75,1.15-1.1,3.48-3.96,4.76-4.67.59-.33,1.32.03,1.93-.13.41-.1.32-.85.67-.93,2.72-.66,6.49.78,9.45.46.76-.08,5.2-1.42,5.96-1.75,2.7-1.18,4.25-3.57,6.57-5.05l.45-4.04-4.04-2.92c-1.53-.49-2.34,1.11-3.49,1.57-3.23,1.3-8.12,2.19-11.29.42-.97-.54-2.26-2.67-3.33-3.36-1.87-1.21-5.26-2.64-7.46-2.04-.45.12-.28.92-.32.95-.18.13-.97-.87-1.69-.96-1.72-.23-4.03,1.71-4.5-1.58l2.52-6.37c2.56-1.26,10-6.01,12.49-5.27.22.07.23.68.6.78,3.38.91,6.33,2.4,8.88,2.4.51,1.5,1,.53,2.01.94,1.48.61,2.04,2.94,3.44,3.81l6.57,1.45.49-.94.91.41c.44-1.52,1.61-.53,2.51-.99.34-.18,4.67-5.14,5.01-5.73,1.79-3.1,3-7.95,2.24-11.48-3.38-15.61-10.45-31.5-21.93-44.92-.46-.53-1.45-.8-1.7-1.19-.51-.8.39-1.8.28-1.9-.08-.07-.83.16-1.27-.15-4.32-3.04-8.34-7.23-13.19-10-1.16-.66-2.27-1.49-3.68-1.31l.48-.95-5.89-.06c-1.41,2.57-3.72,4.26-2.38,7.59.21.52.9.55.97.69,1.16,2.49,2.58,4.56,3.99,7.16.23.43.94.3.94.6-1.24,3.39-2.24,2.95-4.65,4.2-.79.41-2.86,1.83-3.84,2.2-.96.36-3.01.62-3.62.97-.55.32-.15,1.18-.36,1.37-.26.23-1.12-.06-1.7.23-1.54.78-4.62,4.41-5.39,4.81-3.25,1.66-1.45.95-3.5,3.48-.78.97-2.99,1.97-3.11,2.12-.3.36-3.2,7.76-3.37,8.36-.37,1.28-.12,4.42-.55,5.5-.2.51-1.29.57-1.22,1.57.01.18.7,2.46.81,2.73.17.41,3.2,5.24,3.44,5.48.65.64,2.04.68,2.14.74.24.14.23,1.02.87,1.24,2.35.84,5.41-.57,5.86,3.68-1.44.29-.27.92-.66,1.62-.13.24-3.77,3.54-4.03,3.62-1.16.38-3.31.29-4.59.23-.92-.04-1.47-.76-1.9-.79-.27-.02-.66.58-.92.56-.36-.02-5.88-2.87-6.14-3.12-.42-.41-.2-1.15-.43-1.34-.29-.25-1.07,0-1.24-.17-.28-.29.11-1.23-.18-1.74-.34-.59-2.36-.52-.85-2.97l-1.36-.08-.11-1.31c-2.69-.64-2.5,1.78-2.84,3.78l-.95-.48c-.1.99.18,2.14-.01,3.1-.2,1.03-1.11,1.31-1.33,2.01-.75,2.4,2,8.16,3.02,10.3,1.44,3.02,2.85,6.16,5.97,8.21.42.28,1.12-.21,1.45,0,.53.34.65,2.8,1.63.23,3.24.95.89,4.89-1.13,5.47-.41.12-4.05.32-4.58.28-4.6-.34-6.83-1.97-10.1-4.95-.58-.53-.72-1.6-1.28-2.07s-2.16-.62-2.57-1.25c-1.14-1.72-.22-4.46-3.94-4.64-.25,1.58-2.13,3.88-3.83,3.84l.4.86c-2.89,1.4-4.02,4.1-5.22,6.85-.43.98-1.4,1.19-1.33,3.44.03.97,1.19,5.06,1.61,6.02.97,2.22,4.11,4.74,4.52,6.93.28,1.51-.14,3.42.02,4.99l-.87-.41c-2.59,3.4.23,4.63,1.2,7.48.9,2.66.63,3.84.11,6.47-.18.9-1.54,4.57-1.97,4.95-.76.67-.3.01-1.16,1.05-.27.33-2.47,2.64-2.64,2.73-.11.06-2.31.07-2.43.04-2.58-.68-.04-3.21-.38-4.87-.07-.34-1.37-3.82-1.5-3.99-.23-.28-5.74-2.29-6.69-2.52-.75-.34.2-1.76-1.54-.05-3.67-2.3-3.61-1.86-5.06-5.74-.16-.42-.81-.41-.88-.73-.16-.68-.17-3.43,0-4.1.08-.32.71-.32.78-.49,1-2.44,2.34-4.66,4.48-6.24l.36-5.47c-1.49-.24-1.84-1.31-3.62-1.36-1.62-.05-5.75.49-7.41.85-1.87.4-4.32,2.94-5.64,3.73-.12.07-.19-.46-1.58.34-1.26.73-1.72.35-1.71,2.59-.82-.69-2.65.03-3.18.61-1.49,1.63-2.53,3.45-4.17,4.95-1.22,1.13-.74.94-1.4,1.61-.98.99-1.76.71-2.68,1.21-.38.21-.42,1-.55,1.09-.16.11-1.01-.47-1.58-.41-.7.08-1.13.83-1.84.85-4.64.08-8.07-6.9-12.88-6.08-.67,1.4-2.76.97-4.36,1.58-1.5.57-3.14,2.56-4.95,2.34-.24,1.84-3.03,3.63-3.62,5.17s.05,2.21-1.05,3.95c-.38.6.04,2.07-1.53,1.16-.13-.07-1.44-2.19-1.51-2.53-.25-1.28.3-3.1,0-4.19-.15-.55-1.24-.51-1.32-1.01-.05-.35.45-1.19.37-1.92-.26-2.63-.43-5.93,1.21-8.35.58-.86,3.65-4.57,4.36-5.29,2.41-2.47,3.53-2.21,6.55-2.63s7.31-1.13,10.55-.72c.91.12.45.91,1.37,1.03,1.63.2,7.01.01,8.49-.53s1.23-2.63,1.37-3.01c.16-.43.83-.14.94-1,.14-1.1-.17-2.46-.04-3.61l-.95.48c.84-2.23-1.38-4.17-3.31-4.57-.32-.07-3.71,1.43-4.69,1.61-4.09.73-3.67-2.4-6.68-3.58-2.17-.85-5.59-.46-7.99-1.14-1.04,1.36-1.91.92-2.84,1.45s-3.22,3.52-4.51,2.39c-.42-.37-.45-2.71-.03-3.46.87-1.56.97-3.74,1.99-6.22.29-.7.21-2.29.5-2.59.51-.56,2.54.1,1.81-2.96,1.69,1.13,2.38-1.38,3.57-2.4.78-.66,2.39-.99,2.51-1.08.65-.51,3-3.38,3.54-3.61.41-.18.92.43,1.26.3.53-.2,1.02-1.22,3.21-1.33,9.7-.48,10.66,5.38,17.14,9.11,2,1.15,3.84,3.53,5.76,5.4.6.58,4.52,4.03,4.84,4.12,1.04.28,2.28-.45,2.8-.36.5.08.46,1.17,1.01,1.31,2.01.54,7.75-.13,9.79-1,.4-.17.42-.76.71-.92,6.59-3.68,9.3-7.77,13.5-13.95,2.04-2.99,4.03-6.02,5.87-8.95.93-1.49,2.55-3.12,3.04-3.95.78-1.34.98-2.16,2.06-3.89,1.95-3.13,8.02-19.02,8.68-22.87.29-1.7-.31-3.53-.13-5.28l1.47-.26c-.61-2.18-.76-5.61-.51-7.9.94-8.7.77-15.22-1.16-23.83-1.49-2.44-1.63-5.94-2.15-8.81l-.95.48c.52-1.49-1.11-1.52-1.33-2.21-.09-.28.34-.82.21-1.03-.85-1.44-2.95-3.31-3.9-4.87-.81,2.37-1.21,1.43-2.11,1.93-.05.03.29.69.06,1.23-.76,1.8-3.31,4.75-3.8,6.13-.43,1.23-1.58,7.94-1.52,9.1.05.79.74,1,.92,1.63h-1.91c.12,2.33.52,3.83-.33,6.1-.37.99-1.96,3.71-2.33,4.61-.62,1.54-.11,3.66-2.1,4.32l.95,1.18c-2.18.05-1.71,3.04-2.02,3.69-.53,1.12-6.25,7.17-7.36,8.26-.59.58-3.2,1.86-3.93,1.36-1.5-1.87.42-3.59.42-4.49,0-.55-.7-1.04-.71-1.42-.07-3.48,1.07-5.49-.39-9.2-.83-2.12-3.44-4.44-3.97-5.92-.41-1.14-.83-5.66-.98-6-.31-.71-1.19-.88-1.4-1.24-1.06-1.77-3.4-7.96-4.96-2.7-2.97-1.14-2.16,1.62-2.5,2.49-.5,1.24-1.13,4.03-1.31,4.18s-.9-.28-1.42.35c-1.15,1.42-.45,3.27-.55,3.42s-.86.17-1.1.53-1.18,3.68-1.74,4.87c-2.07,4.44-3.99,6.81-8.08,10.73-1.32,1.26.32,3.95-3.55,6.85-5.16,3.86-10.94,8.12-16.58,11.3-.69.39-2.04-.39-1.79,1.07l-.71-.95c-.84,1.3-.73,1.96-2.42.98l-.44.92c-1.15-1.51-3.09-.83-4.75-.98l-.52,1.5-10.85-1.17c-5.06-1.99-10.98-3.53-15.11-6.81-.82-.65-5.85-5.63-6.19-6.24-.26-.47-.73-1.01-.3-1.57l2.91-1.41c.95,1.56,4.62,1.74,6.56,2.02.49.07.94.57,1.28.62.71.11,2.37-1.59,3.83-.25l.49-1.91c2.24,1.43,2.71-1.56,3.42-1.84,2.05-.81,2.2-.47,4.38-2.29s6.95-6.15,7.47-9.49c.2-1.31-.32-3.98.13-5.63.27-1,1.94-1.94,2.22-3.43.14-.76.2-4.03.03-4.65-.08-.3-2.03-.98-1.41-2.89.12-.37.86-.26.9-.6.09-.96.23-1.82.33-2.79.23-2.16.73-6.94-2.46-7.21-.16-.01-2.97.68-3.2.77-3.07,1.21-7.65.92-11.47,1.88-.54.14-.45,1.15-1.13,1.37-.89.29-4.55.3-5.55.05-.85-.21-1.19-.39-2.68-.68-3.2-.63-6.85-1.4-9.49-2.6-2.03-.92-2.65.64-3.76.8-.83.13-2.08-.93-3.19-.46l-.7-.67-.06-2.56c-1.74,0-4.18.2-4.86-1.81l-.83.36c.02-1.44-1.65-2.39-2.23-3.47-.52-.98-.85-3.05-1.68-4.71-.19-.38-1.8-2.04-1.83-2.17-.72-3.19,1.36-5.87,3.3-8.04l.64-.14c1.43.43,2.81,2.34,3.88,2.85.5.24,3.28,1.44,3.6,1.54.78.25,3.76.45,4.56.36s.58-.7,1.07-.95c.45-.22,1.12-.04,1.81-.5,2.16-1.46,3.92-4.52,5.03-6.79,2.21-4.52,5.4-9.76,2.79-15.33,1.29-.83,1.79-3.24,2.45-4.7.2-.44.81-.41.88-.72.16-.68.16-2.95,0-3.63-.07-.33-.74-.33-.79-.44-.09-.2.31-.64.22-.74-2.86-2.94-4.23-.91-6.78-.55-2.79.39-11.44-.34-14.25-.99-.35-.08-.29-.85-.65-.93-4.85-1.14-4.11-1.16-8.18-3.69-.78-.49-1.65-.3-2.1-.58s-2.09-2.2-2.27-2.89l-.71.95-.24-1.9-5.24-.48c1.42-1.24.16-4,.48-5.39.08-.36.77-.26.92-.69.97-2.83.3-3.86,4.32-4.41l.45,1.71c2.14-.3,4.29.57,6.44.17.41-.08,3.48-.77,3.58-.94.5-.88-.48-1.98,2.41-1.9l-.48-.95c.78-.06,1.61-.11,2.26-.62,1-.79,4.1-3.95,4.89-5.01.67-.9.43-1.3.69-1.9.06-.15.68-.07.72-.14.13-.21-1.93-2.07.48-4.41.84-.81,2.28-1.41,2.84-3.1.64-1.95.29-4.46.56-6.5-1.47-.71-2.85-1.75-4.59-1.64-1.45.08-2.25,1.84-2.44,1.86-3.86.37-10.5.29-14.12-1.08-3.7-1.4-5.69-3.08-8.87-4.59-1.59-.75-5.69-1.51-6.76-2.67-.73-.8-.76-2.07-1.09-2.87-1.53-3.81-2.39-7.56-1.66-11.96.03-.21,1.31-.02.39-1.84l2.21-1.73c1.68.9,3.3.27,4.65.49.76.12,1.31.82,2.4.98,2.35.33,7.33.11,9.55-.66.37-.13,1.62-1.46,1.79-1.57,4.11-2.62,4.61-2.55,6.61-7.44.22-.54,1.01-.09.94-1.52-.05-1.01-1.04-3.88-1.72-4.56-.15-.15-3.38-2.1-3.58-2.17-.71-.24-1.38.28-2.02.1-4.23-1.17-7.57-2.23-11.13-4.01-.4-.2-2.68-.14-2.92-.26-.62-.32-3.92-4.18-4.37-4.98-.39-.7-.31-2.21-.58-2.45-.06-.06-.64.29-.89.1-2.07-1.59-.78-2.27-.97-2.56l-.95.49c.25-1.24-1.23-2.21-1.75-3.14-2.86-5.05-4.42-11.12-3.99-17.16.03-.42.63-4.28.73-4.49.33-.76,3.31-4.22,4.09-4.13.44.57,2.62.82,2.73.91.64.55,2.32,3.72,2.98,4.35,2.18,2.09,9.19,4.63,12.22,5,1.34.16,1.19-1.21,2.34.95.64-.03,1.26-.46,1.91-.44,1.49.04,6.23.53,7.17.36.45-.08.48-.97.8-1.17.46-.28,1.23-.06,1.76-.38,1.09-.66,2.58-3.33,2.45-4.76-.05-.52-2.79-5.16-3.04-5.34-.58-.43-2.6-.73-3.69-1.32-5.37-2.89-11.72-6.84-16.87-10.1-8.25-5.24-9.72-9.49-12.73-18.41-.15-.44-.83-.36-.91-.69-.34-1.45.66-2.9.47-4.16-.49-3.42-1.19-9.73-1.92-12.82-.09-.4-.86-.13-.98-1.01-.22-1.59.11-4.3,1.25-5.52.1-.11,2.45-1.21,2.59-1.24,1.52-.37,2.12,1.06,2.69-.69,1.76.43,3.07.18,4.3,1.59.1.12-.24.6-.15.71,3.2,3.83,5.82,6.86,9.58,10.42,1.06,1,1.08,1.25,1.91,2.12,1.33,1.41,2.82,1.92,3.94,3.31,1.6.86,8.51.37,9.72-1.16.56-.71.5-2.31,1.39-3.13-1.27.3-.85-2.18-1.56-2.77-.35-.29-1.16,0-1.3-.11-.06-.04.46-.75.23-1.39-.17-.5-2.96-6.79-3.21-7.09-.32-.39-1.26-.22-1.83-.92s-.45-1.92-.77-2.52c-2.99-5.65-4.3-7.01-3.52-14.11.42-3.83,3.88-11.31,6.07-14.02,1.97-2.44,2.76-1.81,3.51-4.91.38-1.54,5.22-4.39,6.57-5.27.29-.19.31-1.07.77-1.15.34-.06,1.19.45,1.92.37,5.58-.64,5.36-1,11.03-.03,1.7.29,3.04-.6,4.86.66.77.53,3.16,3.74,3.44,3.89,1.46.82,0-.98,2.43,1.77,1.64,1.85,2.83,1.66,1.33,5.08-2.16.92-5.64-.92-7.26-.75-1,.1-3.92.95-3.2,2.21l-1.87.04c1.26,1.93-1.07,3.28-1.38,4.19-.42,1.19-.06,2.56-.22,3.59-.07.48-.76.89-.81,1.51-.02.3.79.2.95.6,2.92,7.06,2.9,7.09,9.16,11.22,1.91,1.26,6.58,3.51,8.01,4.92.68.68.73,1.63,1.12,1.98,2.66,2.33,5.5,4.98,6.89,8.61s3.93,12.99,2.98,16.95c-.09.36-.86.29-.94.65-.54,2.41-1.5,5.93-1.9,8.04-1.05,5.57,1.18,9.54,5.14,13.06,4.68,4.17,8.01,5.81,14.03,7.33,4.41,1.11,9.63,1.92,14.07,4.05,1.27.61,5.59,2.76,6.36,3.25,1.57.99,1.23.96,3.17,1.97,2.24,1.16,3.47,2.87,5.21,4.36,5.82,4.97,9.96,8.98,13.93,15.18,5.38,8.42,9.31,15.42,11.66,25.07.11.44.48.8.82,1.09l-1.46,1.02,1.2,2.4,5.01-1.3c1.09-4.01-1.03-6.36-2.09-9.95-.27-.93.98-1.75-.77-2.21,1.13-1.71,1.05-4.26,1.74-5.9.41-.98,1.83-3.53,2.98-2.82.15.09.35,1,.75,1.37,2.78,2.52,8.44,6.68,12.35,5.69.37-.09.28-.91.61-.93,2.82-.21,5.37-.61,7.94-2.41.43-.3,2.34-2.29,2.73-2.69,2.45-2.46,2.45-3.6,3.96-5.74.33-.47,1.36-.5,1.88-1.7.33-.75.53-3.21.69-4.15.09-.54,1.03-.94.42-1.92-1.33-2.16-3.98.37-4.78.27-1.05-.13-2.99-1.64-4.56-1.23,1.15-5.66-5.24-3.37-8.34-4.23-1.55-.43-4.65-3.97-4.56-5.52.01-.25.85-.19.96-.56.06-.21.08-4.22-.04-4.4l-7.5-2.54-.11-1.27c-2.75.18-8-6.97-8.42-9.48-.32-1.92.21-3.56-.12-5.36l8.31,1.38c1.97-.02,2.25-1.34,2.4-1.33,2.1.13,1.91,1.74,4.08-.77-2.36-2.41-4.67-5.01-7.86-6.26-5.28.98-9.08,3.74-12.88,7.34l-1.63-.9.43-1.09c-2.45-1.37-.3-5.29-.02-7.24.19-1.27-.33-2.44-.22-3.32.27-2.27,2.99-9.11,4.34-11.18.75-1.14,9.53-8.54,11.5-9.56,1.35-.7,7.85-2.13,8.16-2.48.09-.1.55-2.3.57-2.61.03-.85-.77-.5-.91-.96-.92-2.99-1.64-3.16-2.64-5.45-3.78-8.67-4.65-28.01-5.96-38.38-.14-1.09-1.73-11.83,1.4-9.75l-.49.94c.96.02,2.03.47,2.7,1.13.85.82,1.05,2.51,2.73,3.93,2.29,1.94,2.56,2.08,5.22,2.59.32.06,3.78,2.17,4.88,2.35,2.05.34,7.91.67,8.63-1.45,2.17.97,1.26.03,2.12-.63.38-.29,1.16-.18,1.32-.35.5-.56-.85-2.3,1.48-1.86l.23-6.67,2.6-.38ZM318.73,164.48v-8.11c0-.06.67.29,1.04-.65s.39-1.76-.09-2.68h1.44c-.24-1.29-.79-2.62-.46-3.96.08-.34.79-.33.9-.7,1.33-4.48,2.71-8.28,4.66-12.4,1.18-2.49,3.87-5.05,5.33-7.08.86-1.2,1.53-3.64,2.14-4.33.11-.13,2.44-1.1,2.55-1.21,2.77-2.78,2.03-1.84,5.23-3.87,1.98-1.25,3.55-4.05,5.25-4.98.73-.4,1.72-.5,2.55-.58l-.48-.94,8.57-3.38c-.18-2.3,5.45-3.35,7.28-3.91.96-.3,4.23-1.71,4.88-1.74,2.92-.12,1.52-.27,2.49-.51,1.28-.32,3.32.22,4.72.03,1.12-.15,5.53-1.65,6.74-1.93,3.11-.72,5.07.87,7.06.99,1.21.07,2.53-.73,3.82-.54l.25,1.46c.48-.01.94-.34,1.42-.18,7.49,2.47,7.62,3.35,13.26,7.8,2.87,2.27,2.87,1.1,4.66,4.27.9,1.6,4.47,5.24,5.68,7.18.6.96.03,2.1.29,3.07.61,2.28,2.09,3.67.93,6.47,2.65-.35,2.51-3.25,4.75-3.37-.41-2.86.36-5.95.05-8.83-.16-1.46-.78-1.91-.97-2.85-.21-1.05.22-2.36,0-3.23-.12-.45-.96-.45-1.18-.83-2.74-4.87-4.52-8.55-8.44-12.55-3.15-3.22-6.97-5.05-10.06-7.37-.35-.26-7.64-.83-8.62-1.05-.36-.08-.29-.85-.65-.93-1.32-.32-3.26.29-4.6-.02-.38-.09-.37-.91-.56-.96-1.4-.36-1.17.96-1.44.99-1.12.13-1.58-.97-2.37-.99-.29,0-.16.87-.56.97-1.72.46-3.57-.54-4.66-.48-.29.02-.22.87-.59.96-1.56.39-4.35-.22-6.14-.02-1.06.12-1.69.92-2.35.95-.85.04-1.83-.83-2.41-.77-.62.06-1.1,1.28-1.63,1.5-.58.24-1.47-.39-2.08-.26-.22.05-2.73,1.99-3.34,2.26-2.23,1.01-7.79,3.42-9.69,3.94-.55.15-2.11-.48-3.05.27-.52.42-.31,1.23-.54,1.58-.09.13-2.29.3-3.1.75-4.58,2.51-9.41,6.9-14.03,9.58-.54.31-1.48.11-1.77.36-.26.22-.09,1.2-.56,1.61-.35.31-1.62-.5-2.89.9-1.64,1.82-4.05,5-5.52,7.06-3.13,4.38-4.42,8.72-6.98,13.36-.42.77-1.31.9-1.61,1.51-.34.68.04,3.76-.24,4.06l-1.41.29c.61,4.18-1.15,7.78-1.42,11.88-.2,3.08-.4,9.56-.02,12.45.11.84,1.44,1.2,1.03,4.3-.12.92-.98.48-1.04,1.38-.22,3.1,1.87,6.19,1.52,8.64-.13.89-.89.62-.98,1.01-.36,1.55.25,3.99.03,5.67-.15,1.14-1.7,5.65-1.94,6.73-.62,2.77.54,1.42-1.33,4.05-.07.1.2,1.38-.15,2.41-.12.34-2.55,3.95-2.85,4.28-1.69,1.9-5.46,4.54-8.08,3.72.13-1.84.25-3.3,2.39-3.34l-.49-1.42,1.38-.04c-.49-1.43.88-1.98.91-2.11.07-.31-.45-1.79-.25-2.05,3.07-3.97,2.39-13.11,2.26-18.46-.1-3.9.42-9.96-2.31-12.7-.14-2.84-.89-6.72-1.53-10.17-.3-1.65-.45-3.31-.74-4.77-.23-1.19-1.53-3.5-1.62-4.34-.13-1.31.85-3.33.48-5.24-.23-1.19-1.32-.99-1.45-1.51-.45-1.82.4-4.96-.97-7.04l.98-.27-.95-.47c-.47-1.27.83-.75.96-1.26.41-1.61-.27-4.5.1-6.52.23-1.26,1.15-1.14,1.41-1.96,1.16-3.67,2.13-7.96,3.56-11.24s2.71-3.79,4.12-6.33c1.99-3.59,3.93-5.64,6.09-8.8,3.7-5.43,6.88-8.1,11.28-12.51,4.49-4.51,6.73-7.08,9.15-12.82,3.82-9.07,6.34-17.37,5.28-27.49-.22-2.11-1.78-8.77-2.68-10.76-.96-2.13-4.11-4.59-4.8-5.85-.27-.49.05-1.21-.24-1.67-.19-.3-1.03.2-.83-.58,2.12-1.1,3.04,1.08,5.17,1.05l.12,1.26c2.36-.3,1.79.9,2.81,2.09,4.48,5.23,3.51,7.39,4.78,13.4.08.38.87.12.98,1.01.56,4.27-.39,8.48-.95,12.47-.26,1.83-.17,5.14-.51,6.54-.07.31-3.58,2.27-1.24,4.19,1.72,1.35,1.8-.48,2.74-1.18s5.8-3.37,6.03-4.18c.09-.31-.38-.76-.37-1.06.01-.2.95-2.1,1.33-3.48.52-1.89,1.66-4.87,1.98-6.2s-.31-3.3.02-4.6c.09-.37.92-.3.97-.62.06-.43-1.26-7.38-1.47-8.42-.03-.16-1.49-1.43-1.78-2.63-.15-.59.38-1.3.29-1.47-.06-.11-.97-.24-1.3-.81-.55-.94-.89-3.09-1.45-3.72-.4-.45-1.13-.19-1.34-.4-.4-.39-.19-1.65-.71-2.19-.38-.4-1.46-.31-1.71-.67-.23-.34-.07-1.29-.54-2.07-2.08-3.4-9.91-8.05-13.02-9.42-2.77-1.22-7.67-3.05-10.24-3.66-3.5-.83-16.49-.18-13.3,6.01.45.87,1.88,1.1,2.03,1.26.37.42.35,1.32.79,1.85,4.55,5.37,12.62,10.59,15.6,15.87,3.74,6.61,2.28,12.13,1.42,19.12-.13,1.04.22,2.39,0,3.24-.09.34-2.38,1.35-1.5,3.64-2.01-.34-1.28,1.43-1.88,3.01-.98,2.58-4.3,7.59-6.15,9.29-1.14,1.05-1.26,2.37-2.21,3.43-1.22,1.37-5.15,4.36-5.95,5.63-.52.82.25,2.52-1.07,3.8-.26.25-2.37,1.06-2.56,1.23-.59.56-.24,1.97-1.58,1.79v.47c.98-.11,1.36.06.49.74s-4.08,2.23-4.53,3.06c-.3.55.55,2.03.19,2.39-.11.11-.99-.17-1.28.11-.27.25-1.89,2.65-2.34,3.19-1.58,1.92-1.03,3.25-2.11,5.39-.33.66-1.18.61-1.35,1.17-.19.63.55,1.59.01,2.84-.58,1.35-2.26,1.23-1.54,3.99l-1.4.27.44,2.41c-1.93,2.44-1.33,6.17-2.8,9.12-.3.59-1.06,6.37-.96,7.03.12.83,1.08,1.38.98,2.38-.07.67-.84,1.23-.95,1.97-.58,4,1.38,14.84,2.39,18.54,1.66,6.1,2.69,12.9,4.86,19.12,1.06,3.04.7,3.37,1.32,6.11.09.38.87.13.98,1.01.17,1.28.2,7.96-.05,9.01-.09.36-.85.29-.93.66-.92,3.89-.74,3.64-2.38,6.73-.69,1.29-.7,3.32-1.24,4.38-.14.28-3.86,4.47-4.11,4.66-.08.06-1.17-.14-1.93.21-.6.28-3.59,2.29-3.91,2.33-5.89.72-9.48-.17-14.44-1.92-.73-.26-1.87.08-2.9-.34-.85-.34-6.98-6.63-7.72-7.68-1.33-1.88-2.87-6.19-3.26-8.46-.2-1.11.28-4.31-.3-5.06-.34-.43-1.29-.26-1.59-.57-.22-.24,0-1-.18-1.19-.27-.28-1.3-.07-1.84-.32-.71-.33-1.48-1.21-2.14-1.21-1.68,0-5.22,4.88-5.07,6.63l-1.38.04v4.77s-.95-.48-.95-.48l.48,2.59c-2.13.89-1.15,3.05-1.46,4.78-.14.79-.81,1.31-.96,2.38-.33,2.36.29,5.44.03,7.9l.95-.48c.24,1.4-.37,3.74.07,4.96.13.36.65.71,1.21,2.19,1.31,3.43,2.92,6.55,5.12,9.58.86,1.19.76,2.96,1.18,3.56.49.7,1.61.96,1.83,1.31.5.77.08,2.14.3,2.62.14.29,3.49,4.07,4.05,4.71,1.65,1.89,3.44,3.33,4.99,5.45.83,1.13.59.57,1.1,1.1s1.82,2.28,2.12,2.45c.62.35,1.71.14,1.85.29s-.08,1.13.18,1.73c.29.68,1.96,1.09,2.09,1.22,1.6,1.6,4,5.47,5.54,6.89,2.39,2.21,6.92,4.02,7.5,8.25l.9-.45c1.37,4.27,4.7,6.86,6.51,10.94.34.78,2.04,4.34,2.11,4.62.64,2.88.2,4.79,1.88,7.57,2.81,4.64,9.77,2.27,10.11-2.91l-1.01-.93,2.41-1.49c-.63-3.55,1.26-8.43.43-11.77-.08-.32-.72-.33-.78-.49-.44-1.05-1.24-3.19-1.88-4.11-1.9-2.7-4.14-.69-3.51,1.55.1.37.86.3.93.65.29,1.27.69,7.95-.74,8.24-2.16.43-2.38-5.37-2.94-7.13-.37-1.14-1.48-2.1-1.51-2.23-1.79-6.88-1.71-6.87-6.45-12.12-1.02-1.13-3.16-4.09-4.12-4.94-.57-.51-2.24-.74-2.83-1.46s-1.45-3.59-2.14-4.53c-.41-.56-.98-.84-1.64-.99l.44-1.39-1.9.48c-.29-1.21-.85-2.84-1.46-3.9-1.94-3.33-2.9-4.45-4.48-8.04-.42-.95-1.99-2.29-1.48-3.31,1.63-3.25,2.96,1.74,3.28,2.24,1.32,2.05,2.07,2.8,3.6,4.72,4.08,5.12,7.63,9.86,13.02,13.72,3.19,2.28,9.46,6.05,13.04,6.49,1.39.17,4.86-.25,6.1.01.38.08.12.87,1.01.99,3.54.46,10.82.65,13.16-2.23-.23-.65-.36-1.6-.74-2.13-.28-.39-.79-.04-1.05-.17-.12-.06-.12-.71-.44-.77-.93-.17-1.87.57-2.77.49-.8-.08-11.22-3.21-12.06-3.7-2.73-1.6-3.66-1.57-6.28-2.77-1.73-.8-4.95-3.4-6.4-4.32-.64-.41-3.87-2.44-4.04-2.63-.5-.55.42-2.49-2-2.55,1.8-1.92,4.6,1.44,6.09,2.02,2.86,1.11,5.97,1.4,8.85,2.04.36.08.29.85.65.94,2.15.52,10.34.66,12.77.46,5.69-.45,13.41-4.39,16.67-8.61,1.02-1.32,3.62-5.08,2.46-6.66-1.63-2.24-4.4,2-5.41,2.38-3.5,1.31-8.29,1.82-11.82,3.38l-.42-.92c-6.94,1.27-14.76-.35-20.22-3.33-.87-.47-2.4.27-2.01-1.95,2.52-.98,3.78,1.16,5.94,1.45,7.69,1.02,15.4-2.38,22.17-4.33-.41-2.26,2.18-1.46,3.69-2.05,2.23-.87,3.47-3.91,4.58-4.95.4-.37,2.65-1.51,3.25-2.39.29-.42.42-2.83.9-3.63.34-.57,1.17-.03,1.44-.64,1.01-2.27.47-2.86.46-4.65,0-.16,1.63-.24.95-2.8-.07-.25-1.62-.67-.94-2.24-1.47.87-2.53-.64-3.54.99-.72,1.17-.98,3.45-1.53,4.68-2.66,5.95-10.54,10.24-16.05,12.28-1.76.65-2.38,0-3.93.26-.82.14-1.35.78-2.36.91-2.98.39-6.74-1.82-9.05.48l-2.81-.52c-.76-.36-.37-2.12.47-2.33,2.19-.16,6,.41,7.95-.06.36-.09.3-.86.65-.94,2.88-.63,7.55-.8,10.08-2.95.08-.07-.28-.72.05-1.15.48-.62,1.19-.27,1.35-.41,5.07-4.36,7.75-13.4,9.31-19.47.55-2.14.83-.79.82-3.91,0-.33.84-.24,1.11-.85,1.24-2.82.27-6.18.81-8.63.09-.39.98-.33,1.22-1.23.88-3.25,1.2-7.65,2.12-11.17.1-.4.94-.32.95-.6.03-.66-.77-1.71-.52-2.74.12-.46,1.07-.39,1.36-1.13.76-1.94,1.08-5.94,1.53-6.93.25-.55.98-.54,1.17-.87.35-.62.12-1.53.36-1.82.15-.17.89.05,1.35-.4.97-.94,2.06-3.53,3.03-4.72,7.75-9.49,16.77-17.62,27.5-22.83,4.22-2.05,8.77-3.44,13.48-4.08.4-.06.11-.87,1.01-1,7.01-.96,17.03.39,23.17,2.91l-.46.92c3.57.87,7.13,3.79,8.09,7.19,1.83-1.36.9,1.57,1.07,1.82.13.18.84.22,1.03.57.68,1.21.17,2.64,2.41,2.87,1.6-1.87,1.67-5.54,1.22-7.9-.22-1.17-1.27-.94-1.45-1.52-.19-.64.08-1.65-.21-2.55-1.5-4.73-5.45-8.43-9.44-10.76-5.53-3.23-10.27-2.96-16.33-4.02-2.16-.38-7.41-1.24-9.54-.95-1.01.14-1.34,1.18-2.03,1.38-1.1.32-3.09-.53-3.72-.31-.31.11-.06.93-.92.9-.68-.02-1.51-.57-1.9-.54-.42.03-.36,1.18-1.05,1.41-1.17.4-3.18-.67-5.53.53-4.53,2.33-9.04,5.27-13.62,7.58-2.56,1.29-8.72,5.3-10.51,7.49-2.01,2.46-2.91,4.49-5.13,6.55-3.51,3.25-4.06,7.46-6.43,11.35-.35.58-1.21.7-1.26,1.07-.07.5.57,1.47.36,2.33-.04.17-2.13,2.02-2.37,2.62-.13.33-1.44,4.43-1.48,4.68-.1.76.41,1.54.35,1.91-.07.48-1.04.5-1.2.76-.41.68.1,2.06-.11,2.93-.09.36-.95.3-.96.59-.05.95,1,3.11.49,4.5h-2.39ZM200.07,15.08c-.28-.16-.35-.79-.58-1.08l-.67-.2-3.87,2.82c-1.04,2.51-.41,15.66-2.45,16.24-4.26,1.22-2.26-2.27-2.58-4.05-.19-1.08-1.8-3.7-1.86-3.93-.09-.33.42-1.23,0-1.79-.32-.44-1.07-.14-1.34-.4-.29-.28-.18-1.14-.63-1.53-2.34-2.07-5.01-3.43-8.18-2.38-.96.32-.88,1-.96,1.04-.25.1-.82-.45-1.33-.13-.26.16-.33.8-.65,1.04-.39.29-.98.15-1.47.68-.07.08-1.13,1.68-1.17,1.78-.59,1.33-1.2,7.45-1.04,8.92.05.48,1.54,5.68,1.71,5.98.9,1.61,2.35,3.29,3.6,4.58s3.3,4.82,4.58,6.31c.98,1.13,2.41,1.74,3.29,2.94.75-.9,2.85-.54,2.98-.62.16-.1.25-.83.6-1.01,2.56-1.3,5.51-2.96,7.71-3.8,1.84-.7,5.28-.95,7.25-.78,2.39.21,4.02.99,5.89,1.87,1.04.49,4.48.42,6.14.89,2.08.59,3.69,2.34,5.65,2.7,3.24.6,3.28.41,5.97,2.39.4.29,5.94,1.53,6.93,1.65,3.35.41,6.7.18,9.99.12,1.57-.03,2.99.94,4.86-.25.38-.24,4.41-3.82,4.75-4.25.11-.14-.11-.63.14-1.07.29-.51,1.1-.72,1.32-1.51.86-2.99-.14-7.94-1.03-10.68-.7-2.16-1.51-.86-2.77-1.05-.44-.07-.83-.81-1.48-.76-.79.05-2.12,1.1-3.62.44-.24,2.95-3.33,3.46-4.36,5.64-1.95-1.19-2.26-.15-4.25.04l1.51-5.66,1.35-.3-1.95-5.45c-2.24.02-4.76.74-6.04,2.7-.48.74-.88,2.52-1.23,2.87-.21.2-.83.06-1.11.27-.36.27-.43.9-.66,1.06-1.2.79-3.52-.51-3.19-2.44.08-.46,1-.5,1.15-.8,1.01-2.03,1.25-6.28,1-8.55-.09-.85-1.59-5.43-2.11-6.05-1.07-1.29-3.75-1.93-4.01-4.35-.87.91-2.19.52-2.85.79-.24.1-4,2.5-4.17,2.68-.2.22-2.34,5.14-2.38,5.43-.29,2.2-.42,1.63-.61,2.37-.1.38.49,1.49.32,1.86-.25.54-1.03.53-1.28,1.06-.94,2.04-.43,4.62-3.77,4.48l-.06,1.36c-.57-.87-1.81-.43-1.86-.52-.07-.12-.8-2.45-.81-2.59,0-.3.71-1.14.85-1.83.44-2.23,1.23-6.39.69-8.57-.12-.47-2.96-5.78-3.21-6.01-.12-.11-1.92-.2-2.69-.64ZM414.33,45.52c-.4-.61-.44-1.61-1.16-1.98-.88-.46-1.94.26-2.86-.21.69,2.82-.6,3.35-2.21,4.97-.21.21-.09.89-.29,1.09-.44.44-2,.28-2.54,1.07l.26,1.93c-1.92-.86-1.12,0-1.78.47-3.34,2.39-7.89,4.02-11.7,6.23-2.41,1.4-4.73,1.74-7.15,2.99-.31.16-3.15,1.36-3.33,1.42-2.76.9-6.68.55-8.29,3.15-3.93-1.23-2.35-.59-4.09.9-1.19,1.02-7.35,1.46-9.15,2.07-.64.22-.63,1.1-.85,1.26-.2.14-3.46,1.02-4.53,1.38-.98.33-3.74-.64-3.51,1.11l-.94-.95c-.07,1.85-2.76,1.47-3.92,1.96-1.04.44-4.87,3.52-5.97,3.75-4.33.91-4.56,2.7-7.62,4.31s-2.89,3.13-5.27,4.79c-.46.32-1.16-.03-1.43.17-2.65,2-6.53,5.02-6.81,8.39l-.86-.38c-1.49,1.96-3.59,3.3-3.43,6.11l-1.42-.48c.64,2.31-1.94,1.91-1.45,4.28l-1.9.02c1.11,1.77-.5,1.48-.84,2.03-.13.2-1.63,3.97-1.68,4.28-.14.85.07,1.45.13,2.27h-1.43c1.05,2.1-.92,3-1.22,4.27-.06.24.82,3.82.26,4.79l3.83-.23c.94-.56.46-1.81.61-2.05.36-.55,1.89-1.23,2.35-2.64.23-.7-.2-1.68-.12-1.75.11-.1.93.21,1.46-.31.46-.46.66-1.73,1.11-2.37,3.29-4.68,8.12-8.82,12.9-11.66,1.86-1.1,1.02-1.18,1.68-1.66,2.11-1.53,6.56-3.43,8.78-4.82,8.35-5.25,16.29-8.02,25.91-11.52.91-.33,4.91-2.41,5.21-2.46,8.78-1.43,17.93-4.83,26.31-8.09,1.4-.54,3.63-1.02,4.96-1.61,4.04-1.8,11.08-7.45,13.49-11.35,1.49-2.42,1.39-4.28,1.67-7.35.08-.89.72-1.47.74-2.19.06-1.87-1.01-3.97-1.95-5.41ZM250.99,176.41c.56.35,5.49-.26,6.68,0,.45-1.98-1.26-1.57-2.12-2.41-1.78-1.73-4.2-6.34-5.52-8.44-.93-1.48-.41-1.96-.62-2.88-.02-.09-.74.06-.84-.78-.61-5.11.88-10.03,1.04-14.82.04-1.28-.7-2.86-.54-3.74.06-.34.87-.27.96-.64.4-1.62-.27-4.34-.02-6.14.58-4.15,1.54-9.61,2.43-13.3,1.62-6.72.86-9.72-.05-16.22-.64-4.61.99-12.56.01-16.63-.09-.36-.85-.29-.94-.65-.27-1.19.22-3.42-.46-4.62-.36-.62-1.25-.17-1.46-.31-.18-.12.25-2.84-.21-4.33-.37-1.19-2.29-1.34-1.22-3.77-.19-.2-.97.49-1.35.38-.19-.06-2.15-2.76-2.43-3.16-.49-.7-.64-2.18-1.15-2.8-.2-.24-2.29-1.46-2.69-.61.44-1.56-3.76-5.04-4.82-5.46-1.84-.72-7.34-1.44-8.09-1.93-.34-.22-.28-1.14-.66-1.15-.14,0-2.52.37-2.79.45-.11.03-.76.46-1.75.78-2.47.79-4.04,2.5-6.67,1.56.72-1.86-.95-2.5-.96-2.65-.22-3.31-2.49-5.64-5.1-7.51-2.29-1.63-1.29-.54-2.91-1.1-.74-.26-.77-1.41-1.34-1.52-.33-.07-5.84-.13-6.67-.09-.92.05-.57.84-1.04.96-2.22.6-5.49,1.36-5.86,4.31-.59-.9-2.13.15-2.27.59-.24.72.39,1.39.15,1.81-.28.48-1.42.31-1.69,1.64-.71,3.6-.1,6.67-.07,10.04,0,.13-1.3.92-1.56,2.13-.37,1.73,4.99,6.4,6.22,7.8.8.91,3.34,3.23,3.48,3.43,1.69,2.38,2.69,5.97,4.51,8.19.34.42,1.34.6,1.25,1.55h.46c-.32-1.51,2.2.08,2.79-2.25.49-1.91-2.98-2.67-1.83-5.39l.87.4c.55-2.7,4.41-.65,5.49-.86.27-.05.2-.68.69-.94.3-.15,1,.1,1.41-.14.12-.07,1.62-1.67,1.89-1.97.36-.4-.33-1.69,1.57-1.27-1.2-1.03,2.42-3.19,2.86-2.38-.36,1.98,1.8,2.76,1.92,4.98-2.45,1.2-5.19,4.5-5.03,7.4s4.96,4.67,5,5.03c-.66,1.68-1.39,1.48-2.88,1.94.48,2.19-.88,4.51.06,6.52.17.37.92.37.92.64,0,.61-.65,1.37-.5,2.26.05.31.79.29.93.69.54,1.58-.04,5.78-.46,7.48-.39,1.58-1.51,3.16-1.97,4.28-.52,1.27.26,2.59.11,3.28-.11.5-1.1.53-1.48,1.03-1.5,1.98-.74,2.24-2.81,3.86-1.36,1.06-3.65,7.68-4.37,9.37-.25.6-1.51,1.1-1.81,1.72-.72,1.49-.67,4.41-1.48,5.48-.44.58-1.18.2-1.47.62-.92,1.35-4.08,12.24-4.24,13.81-.05.46.41,7.65.54,8.03.07.19,1.96,2.57,2.3,3.04,1.67,2.29,4.79,5.66,7.62,6.59,7.17,2.35,2.33-6.94,2.17-9.76-.12-2.01,1.39-9.18,2.2-11.12.2-.48,1.28-.86,1.16-1.82l2.17.78c-.75,2.32.6,4.05.9,5.69.56,3.04.54,5.69,1.62,8.17.46,1.07,1.18,2.06,1.91,3.07,1.45,1.98,3.9,4.84,6.02,5.93,2.79,1.44,8.39,2.42,9.42-1.56.75-2.91-.46-2.1-1.23-3.27-2.66-4.01-1.12-3.82-1.99-7.49-.21-.89-1.45-1.28-.92-4.36,1-5.87.44-11.07,1.92-16.19,1.81-6.29,1.47-12.66,3.38-18.59.21-.65,1.25-.6,1.37-1.1.45-1.85.98-4.56,1.32-6.11.12-.53-.57-2.48-.41-3.24.12-.54,1.26-.32,1.48-1.52.24-1.33-.5-2.56-.4-3.74.1-1.25,1.26-1.03,1.37-1.97.34-2.91.36-11.47,0-14.35-.13-1.07-1.15-.75-1.4-1.47-.43-1.26.22-3.28-.08-4.62-.08-.37-.81-.32-1.08-.93-1.23-2.8-2.63-5.78-3.51-7.99-.57-1.43-7.36-7.29-9-8.58-.82-.65-1.9-.87-2.62-1.67,2.43-1.61,4.03-2.55,5.96.24.36.13-.22-1.86,1.62-.19s.59,3.87,4.07,3.02c-.35,1.95,4.38,3.13,4.56,3.38.14.19-.44,1.09-.34,1.59.21,1.07,1.01,4.24,1.33,5.19.67,1.95,4.79,3.92,2.79,7.24l1.01.58c-1.4,2.44.38,2.97.49,3.73.66,4.94-.09,14.59-1.02,19.57-.25,1.36-1.63,2.78-.9,4.78l-1.46.26.46,1.68-1.4.24c-.04,3.08-.8,5.63-1.79,8.46-.2.58-.89.55-.98.83-.78,2.23.05,7.69-1.1,10.86-.14.38-1.34,2.86-1.39,3.06-.1.42-1.05,8.05-.99,8.48.13.98,1.16,1.33,1.36,2.03.52,1.75.62,4.41,1.26,6.38.3.92,2.91,7.69,3.24,7.97s.9.11,1.32.12l-.46.92c1.85-.33,1.97,1.52,2.71,1.98.53.33,1.45-.04,1.51.02.24.24.2,1.19.68,1.71,1.11,1.19,2.39,1.19,3.55,1.72.23.11.09.78.13.81ZM181.1,60.76c-.69-1.2-1.97-2.14-2.36-3.59-2.49.78-2.31,2.87-3.72,3.68-.53.3-1.35-.02-1.69.2-.38.24-.27,1.53-.65,1.77-.31.2-3.03,1.11-3.87,1.59-1.97,1.13.33,1.81,1.37,2.75.43.39.6,1.32.74,1.41.2.14,4.12-.24,4.7-.44-.37,2.02.92,1.36,2.02,1.95.43.23,1.78,1.41,2.27,1.64.37.17,1.52-.9,2.38-.25-.06-3.47,1.17-7.16-.64-10.34-.11-.2-.49-.25-.56-.38ZM176.88,73.57c-3.52-1.97-7.27-4-11.16-4.86-1.35-.3-2.66,1.02-3.81,1.24-1.02.19-2.48-.45-3.2-.27-.48.12-5.84,6.4-6.41,7.43-.43.79-.08,1.89-1.34,2.09-.33,3.09-1.89,5.65,2.73,4.68l-.48-1.42c2.27,1.02,3.24-1.82,3.67-1.92.91-.22,2.17.22,3.16,0,.38-.08.12-.87,1.01-.98,2.71-.36,5.83-.59,8.58-.88.68-.07,5.15,1.17,5.69,1.48s.67,1.09.92,1.22c1.31.68,3.22.93,4.35,2.55.36.51.15,1.26.42,1.74.2.35,1.09.19,1.31,1.3.15.8.15,4.47,0,5.27-.1.5-2.12,2.55-2.68,3.31-.24.32-.11.99-.27,1.12-.33.27-1.13-.04-1.44.13-2.45,1.35-5.01,2.17-7.63,3.36-.62.28-.81,1.48-2.73.94-.57.38.65,3.99.95,4.85.13.35.69.37.75.48.12.22-.36.79-.32.83.11.09.87-.15,1.27.15,2.01,1.49,2.9,1.94,5.7,2.2,4.02.38,3.19-.41,5.8-2.35.33-.24.91-.27,1.41-.6.56-.38.66-2.12,2.56-1.08.46.33.41.94.47,1.44.42,3.52-.88,7.77-1.43,11.01-.18,1.04.04,2.2-.05,3.26.17.61,3.69.93,4.45.75.28-.06,4.32-3.24,4.45-3.49.53-1,1.12-2.16,1.56-3.09,3.43-7.15,3.23-10.88,1.47-18.35-.08-.36-.81-.3-.9-.69-.2-.85-.28-4.54-.61-4.82l-1.34-.07.43-1.35c-2.27-.91-1.86-4.07-4.71-4.42l.47-1.38c-2.59.61-3.2-3.98-3.79-4.56s-1.4-.52-1.79-.85c-1.03-.89-1.13-2.75-3.5-2.23l.48-.95c-1.6.46-2.16-1.09-2.53-1.3-.56-.31-1.12-.43-1.95-.9ZM68.78,71.47c-2.76-2.9-5.51-1.05-8.48-.1-1.24.39-.27-.5-1.87.57-1.38.93-3.46,1.99-4.43,3.24-1.68,2.16-2.45,4.7-3.65,6.79-.19.32-.95.36-1.07.54-.22.32.47.94.33,1.28-.04.11-.78-.13-.89.76-.17,1.34-.2,7.87.05,9.01.07.29,2.33,4.09,2.73,4.99.59,1.34,1.23,2.98,1.56,4.41l1.42-.48c-.66,1.94.88,1.88,1.17,2.41,3.29,6.08,7.68,8.24,11.05,12.37,1.34,1.64,3.2.87,3.91,1.54l.09,1.79,6.35,2.03c10.6,6.37,23.33,8.19,34.03,14.13,2.85,1.58,3.15,2.24,5.82,3.02.4.12,4.12,4.86,5.81,4.94.17,3.06,6.15,6.4,6.49,9.13.05.39-.36,1.07-.31,1.1.14.1.96-.17,1.32.09,1.44,1.06,3.68,8.55,4.04,8.9.22.22,1.03-.11,1.38.36.91,1.21,1.16,15.22,1.86,17.84.9-.05,2.06.24,2.86-.25,2.5-1.54,2.91-5.59,3.92-8.02.31-.74,1.25-.67,1.36-1.13.18-.77-.37-1.79-.26-2.61.19-1.4,1.54-4.61,1.66-6.4.08-1.24-.58-2.6,0-4.02l-.95.48c.79-3.21-.58-6.03-1.59-9.07-.6-1.82-1.25-4.49-2.26-6.31-.42-.75-2.97-3.25-3.21-3.82-.53-1.23.74.03-.8-1.81-.71-.84-.25-1.64-.38-1.8-.18-.23-.9-.28-1.07-.54-.26-.42.41-1.31.24-1.45-.13-.11-.95.19-1.3-.11-.65-.57-2.27-4.16-3.01-4.87-2.5-2.41-10.71-7.12-12.14-8.84-.17-.21.23-.86.17-.92-.28-.34-7.08-2.6-8.19-3.01-6.78-2.53-12.78-3.31-19.52-5.28-2.82-.82-6.09-2.27-8.4-3.15-7.72-2.94-12.19-5.81-17.56-11.44-2.95-3.09-2.92-3.72-4.13-7.31-.63-1.87-2.01-3.8-1.82-5.88.02-.21,1.14-3,1.26-3.12.51-.5,1.29-.31,1.57-.52.09-.07-.39-.8.04-1.12,1.54-1.16,2.48.23,4.09.29,3.52.12,5.56-1.25,5.49-4.96l-4.28-4.41-.49.72ZM209.87,103.54c-2.92-1.7-4.43,3.45-4.66,5.38-.73,6.22-1.33,9.36-2.53,14.64-.45,1.97-2.37,7.91-3.46,9.42-.75,1.04-1.81.81-2.03,1.07-.36.43-1.47,4.32-2.76,5.61-2.59,2.59-12.04,8.93-15.5,10.27-.13.05-2.11.65-2.24.68-1.4.38-4.91,1.13-6.24,1.21-1.75.1-5.74-2.63-6.54-.7.52.65.26,2.66.34,2.77.18.25.94.27,1.13.55.25.38-.31.26.95,1.94.33.45-.23,1.18.18,1.69.43.53,2.04,1.02,2.81,1.49.44.27.56.89.95,1.08.93.44,5.05,1.56,6.06,1.49.42-.03,4.57-1.28,5.13-1.49.74-.27,1.32-2.32,3.7-.92.37,1.18-.7.77-.92,1.3-.63,1.51-1.27,4.48-.96,6.06.34,1.73,2.98,4.43,4.62,4.94,1.98.61,3.8-.86,5.64-1.31-.37-1.52.75-2.96.74-4.1-.01-1.34-1.43-2.09-1-4.27.2-1.02,1.1-1.3,1.33-2.02.79-2.47.67-7.43,1.64-10.03.29-.77,2.71-4.59,3.23-5.71.76-1.66,1.88-2.99,1.66-4.91h1.68c-.65-3.62.8-2.38,1.47-3.15,1.4-1.6,2.55-5.46,3.34-7.45.12-.29.71-.34.88-.76.45-1.1.4-2.62.95-4.28.75-2.26-.24-3.54.04-5.02.06-.3,2.26-4.16,2.42-5.32.37-2.75-.8-4.57-.86-6.12-.03-.66.58-1.52.38-2.39-.03-.11-1.46-1.6-1.56-1.66ZM396.86,126.44c-1.38-.81-9.33-1.46-11.02-1.05-.34.08-.27.78-.69.9-.99.3-6.39,1.43-6.69,1.61-4.16,2.58-5.6,3.6-10.62,5.25-2.59.85-1.9,1.45-3.84,2.88-2.23,1.65-2.95,1.42-5.06,3.62-.35.36-1.46.98-1.49,1.07-.2.56.43,1.11.42,1.55,0,.2-1.83.09-.41,2.33,1.12,1.76,3.9.22,5.62.79l.28-1.45c1.79.09,3.85-.07,5.58-.48.42-.1.19-.85,1.04-.96,1.8-.23,4.48.42,6.14.03.39-.09.13-.86,1.01-.98,1.85-.25,10.87.21,12.94.48.91.12.45.91,1.37,1.03,1.35.17,10.51.11,11.26-.27.83-.42.66-2.19,2.37-1.68.21-.85-.82-.31-.95-.48-.11-.14.73-.91.84-1.56.23-1.47-1.04-7.36-2.03-8.47-.34-.38-1.03-.07-1.21-.24-.44-.41-.29-1.19-.59-1.51-.71-.76-3.53-1.25-3.7-1.36-.29-.2-.33-.91-.55-1.04ZM57.33,133.48l-.95.24c.72,3.48.89,7.62,2.49,10.86,2.36,4.77,10.64,9.43,15.3,11.8,3.12,1.59,5.68,2.32,8.95,3.13,3.06.75,5.41,1.06,8.19,1.76s2.41.17,4.41.36c.75.07,1.34.96,2.42,1,.86.04.61-.9,1.02-1,.75-.18,3.85-.16,4.72-.05s.59.79,1.04.96c2.62.93,3.73-1.01,5.04-.79.42.07.9.72,1.56.82,1,.16,2.18-.49,2.94-.14.91.41.98,1.41,1.13,1.51.14.1,1.03-.48,1.59-.42,1.63.17,4.76,1.38,6.06,1.96.53.24.25.81,1.08.94,2.58.42,1.75-.29,2.36-1.27.13-.21.75-.23.77-.48s-1.29-4.57-1.52-5.06c-3.55-7.5-14.94-12.09-22.54-13.75-6.76-1.48-14.67-1.43-21.94-2.38-1.27-.17-3.44.47-3.88.38-.5-.1-.5-1.03-.75-1.2-.18-.12-3.66-.14-4.23-.29-1.82-.45-2.67-2.48-4.27-.78.06-1.52-2.11-1.09-3.31-1.7-1.39-.71-3.45-3.1-4.69-4.02-1.11-.83-2.87-.79-2.99-2.37ZM399.18,149.4c-4.93-1.58-15.74-2.82-21.1-2.12-.88.12-.62.89-1.01.98-1.43.34-3.79-.39-5.1.08-1.06.37-.1,2.3-2.94.43l-2.93,2.88c-1.29-.19-2.44-.56-3.73-.05-4.02,1.6-9.22,5.57-11.32,8.46-.11.16-2.7,1.5-3.18,2.13l.43,1.35c-3.37.04-2.3,1.97-3.34,3.96-.45.86-3.29,4.66-3.98,5.65-.4.57-.23,1.55-1.26,1.37,1.9,2.23.4,1.51,0,2.26-.17.33.17,1.15-.1,1.48-.1.12-1.74.44-2.59,1.68-1.41,2.06-.79,3.39-1.17,4.76-.1.35-.84.26-.93.64-.04.18-.06,3.47-.04,3.72.26,2.42,2.97,4.57,5.39,3.91,2.35-.64,1.4-1.72,2.08-2.68,1.94-2.78,5.22-6.04,7.49-8.11,6.71-6.13,13.02-8.81,20.96-11.32,3.5-1.11,5.19-.61,8.75-1.07.89-.12.61-1.45,3.76-.95,1.73.27,1.7,1.32,2.02,1.39,1.13.23,2.17-.41,3.35-.11s6.87,2.82,8.34,3.5c.59.28.14,1.49,1.81.42-.13,1.89.72,1.88,2.33,2.01l.13,1.25c5.46,1.5,7.5,7.29,10.21,11.53.55.86,1.89.05.69,2.87.71-.22,4.24,2.49,4.5,2.89,1.49,2.25-.08,2.42-.17,2.71-.53,1.71-.82,3.61-.29,5.39l3.27.48c.25-1.34,1.6-1.85,1.96-2.9.88-2.57,2.2-6.06,2.93-8.54.52-1.79-.03-4.8,1.65-5.52l-1.39-1.24c.46-1.33.65-3.14.46-4.51-.12-.89-.91-.63-.99-1.01-.23-1.04.38-2.1.18-3.03-.63-2.94-3.38-7.34-4.88-9.59-.13-.19.5-.8.33-1.27-.08-.21-2.97-1.84-3.57-2.64-2.21-2.99-5.76-7.56-8.96-9.69-.91-.61-7.35-3.59-8.06-3.82ZM166.89,167.52c-.25-.11-2.88-1.01-3.04-1.04-.55-.09-1.92,1.26-2.98.88.69,1.81-.87,2.43-.94,2.72-.88,3.25-.36,9.5,2.96,11.24,2.11,1.11,4.69,1.61,6.73.25.82-.55,4.27-4.31,4.56-4.44.37-.16.9.24,1.14.19.28-.07.61-1.56,2.22-.91-1.08,1.61.08,2.69.37,4.16.18.91-.05,1.87.12,2.65.08.35.72.36.9.71.31.62.24,1.36.77,2,1.05,1.28,4.9,1.98,6.31,1.31.19-.09,2.49-3.13,2.59-3.42.49-1.5-1.09-2.9.39-4.56l-1.34-.1c.17-2.12-2.96-1.72-4.49-2.33-.28-.11-4-2.45-4.22-2.68-1.06-1.15-1.97-3.98-3.43-5.02-2.32-1.65-4.13.72-6.71.06-.12-.03-1.71-1.59-1.91-1.68ZM68.3,170.21c-2.94.42-.89,4.18-.73,5.5.07.54-.26,2.92-.15,3.03.25.25,1.2.22,1.71.67.43.38.64,1.35,1.1,1.89,1.49,1.71,3.03,3.41,4.52,5.13l.47-.95c.74.26,1.53,1.58,1.79,1.74.11.07,1.99,1.08,2.12,1.11,1.21.26,2.87-.31,4.16.43l.28,1.48c1.93-1.36,4.19.94,5.97,1,.9.03.71-.96.94-1.01,1.37-.33,1.08.69,1.31.81.42.23,8.58-.2,9.64-.34,4.32-.6,8.71-2.05,12.88-2.39,1.45-.12,4.48-.39,5.75-.35,2.78.1,5.83,1.43,8.83.86.93-.95-2.34-9.05-3.59-10.01-.74-.57-1.56-.35-1.98-.65-1.56-1.14-3.31-2.71-5.04-3.55-.44-.21-.91.41-1.23.27-.08-.03-.05-.76-.4-.84-.93-.23-4.99-.15-6.15-.03-2.69.26-5.78.61-8.59.94-.93.11-.49,1.03-1.38,1.05-3.89.06-8.48-.63-12.45-.08-1.41.2-2.03,1.19-3.81,1.03-.87-.08-.64-.91-1.02-1-5.61-1.26-5.86.37-11.51-2.85-1.52-.86-3.45-.55-3.43-2.89ZM201.67,179.94c-1.27-1.01-2.51-1.48-3.44-3.01-2.17.36-2.7,2.34-3.53,3.92-.9,1.73-2.27,3.8-3.06,5.69-.95,2.27-.95,2.78-3,4.17-1.58,1.07-3.58,1.43-5.6,1.46-1.2.01-2.41-.05-3.6-.03l.45-.91-3.32-1,.48-.95h-1.92c1.07-2.54-2.32-3.81-4.41-3.22-1.84.52-3.06,2.53-6.3,2.76-5.4.37-6.2-1.2-8.41-5.36-.18-.35-.67-.3-.89-.74-.26-.51.14-2.54-1.45-2.98l-.24,1.42-1.19-.48c-.09,1.82-2.45,3.27-3.31,4.7-3.96,6.59-8.04,20.96-6.12,28.34.77,2.95,3.4,8.03,5.67,10.07,2.66,2.39,6.49,4.2,10.16,3.61,3.22-.52,2.77-2.12,3.76-4.13.38-.77,2.1-.63,1.18-3.62-.2-.64-2.6-3.61-2.73-4.03-.35-1.14-1.35-6.59.92-6.32-.32,1.23,1.36,2.31,1.78,3.11.1.19.01,1.6.47,2.49.35.68,1.54,1.08,1.75,2.01.15.66-.28,1.26-.21,1.6.11.52.94.45,1.19.79s-.21,1.27.23,2.05,3.34,2.93,4.17,3.87c.23.27.05,1.02.22,1.16s3.53,1.23,4.05,1.31c3.16.49,5.13.56,6.99-2.31.98-1.5,1.65-5.02,1.28-6.7-.09-.39-.97-.32-1.22-1.23-.35-1.27-.19-2.59-.21-3.87h2.87c-.64,1.92.57,2.13.89,2.79,1.11,2.32,2.59,4.45,3.43,6.74l.92-.46c-.31,1.56,3.15,4.18,4.51,4.24.35.02,5.15-1.35,5.38-1.5.41-.27,2.17-3.74,2.08-4.41-.11-.91-.9-.65-.99-1.03-.59-2.53,1.07-5.81-1.43-8.02l2.2-2.17,1.57.55c-.45.44.98,2.59,1.51,3.38,1.74,2.61,4.35,4.93,5.26,7.96l8.05-.42c.41,3.35-.16,2.2-1.26,3.01-.55.41-.66,1.61-2.08,1.3l.48.93c-3.91,1.12-7.17-.43-10.97-.96.14.89-1.05,3.48-1.57,4.17-1.31,1.72-6.86,3.44-9.04,2.87-1.42-.37-1.87-1.8-2.41-2.11-.26-.15-3.77-1.47-3.99-1.47-.47,0-1.84.74-2.36,1.04-2.8,1.65-4.51,4.27-8.07,4.57-1.22.1-2.48.03-3.7-.01-2.79-1.62-5.45-6.61-8.63-4.19-.57.43-3.73,2.7-3.98,2.76-.49.12-4.44.96-4.67.89-.26-.09-.19-.79-.56-.86-1.01-.21-2.19.2-3.17-.02-.23-.05-3.21-1.96-3.9-2.14-.42-.11-3.42-.32-3.55-.21-.15,1.19-.57,2.61-.27,3.8,1.23,4.87,5.12,12.07,8.09,16.08,3.25,4.38,9.54,10.66,14,12.97,2.36,1.22,5.67,2.57,8.3,1.44.52-.22,1.35-1.63,1.86-2.06.41-.34,2.77-1.57,2.8-2.02.01-.19-.03-2.38-.08-2.49-.03-.07-.76-.08-1.02-.67-.87-2.03-.74-4.22-2.37-6.46-.23-.32-1.02-.36-1.27-.82l1.67-1.66c.78,2.43,2.83,2.83,4.32,4.48,1.91,2.12,2.32,3.3,4.62,5.52,1.42,1.37,4.29,4.77,6.31,4.55.68-.07,3.62-2.21,3.62-2.43-.01-.72-.89-1.4-.93-2.33-.02-.7.51-1.55.46-2.41-.14-2.52-.93-5.19-.52-7.87,2.54-.8,4.8,2.76,3.82,4.77l1.37-.42c.14.35.25.89.54,1.1,2.86,2.06,4.39,3.43,7.57,5.35.68.41.7,1.93,2.81,1.02l2.9-3.92c-.5-1.49-.3-3.07-.64-4.58-.31-1.38-1.08-2.98-1.53-4.26-.58-1.66-2.42-3.28.41-4,.64-.16,3.39.85,3.63,1.22.21.34.5,2.14,1.2,3.05,2.3,2.98,3.43,2.73,6.14,4.05.55.27.94,1.45,2.24,1.62.74.09,7.38-1.89,4.83,2.31-.32.52-1.04.13-1.33.43-.27.28.12,1.08-.42,1.33-2.02.94-7.86.54-10.13.03-1.94,2.93-2.77,6.83-7.19,6.16.85,1.88-2.7,1.76-3.98,1.43-.44-.11-.45-1-1.14-1.34-.48-.24-3.7-.88-4.22-.84-2.13.18-1.22,3.38-4.04,2.65l.48,1.9c-2.24-.87-2.5,1.14-3.14,1.33-3.26,1-6.91-2.3-9.9-1.82-.36.06-.28.87-.62.96-.43.11-1.7-.59-2.26-.36-.21.09-3.02,2.66-3.49,2.75-.72.14-2.68-.22-3.48-.47-.18,1.67-1.76,2.3-.5,4.46.29.5,1.04.17,1.32.43.24.22.03.93.43,1.34,3.23,3.22,13.01,8.36,17.1,10.43,3.37,1.71,9.8,4.84,13.33,5.3,3.25.43,7.4-.37,10.76-.02-.56-2.68.97-1.54,1.47-2.19,1.9-2.48-2.98-6.54-2.92-7.07.54-1.44.99-3.51,2.86-3.14-.15,2.08,1.75,2.02,2.24,2.54,1.03,1.1,1.51,2.69,3.03,3.52-.05,2.35.06,4.72.03,7.08-.02.91-.8,1.56-.8,1.88,0,.24,1.53,4.01,1.88,4.37.49.51,1.74.65,2.12.81,1.95.82,3.57,1.32,5.98,1.92,3.17.79.9.09,2.07-.19.82-.2,1.87.19,2.72,0,.42-.09.13-1.27,1.02-.95,1.96,1.25-1.01,2.69-1.14,3.17-.82,2.88,2.7,4.1,4.09,5.92,1.27-.66,3.03-.24,4.12-.5.51-.12.45-1.14,1.11-1.37.86-.3,2.1.02,3.04-.07v3.33s-1.43-.48-1.43-.48c.21,2.02-3.21,1.84-2.86,4.77,2.33-1.04.96.15,1.52.83.19.22,4.67,2.68,5.12,2.78.17.03,2.54.14,2.67.12.3-.05.16-.84.5-.87s.89.42,1.33.35c1.15-.19,2.1-1.89,3.56-1.21l1.04,1.81c-2.55.98-3.46,4.75-6.67,4.32-.72,2.95,3.31,5.91,5.93,5.44,1.05-.19,2.35-1.19,3.6-1.17l-.41-.87c3.48-1.16,1.67-5.53,1.52-8-.06-.96.44-2.04.34-3.27s-1.01-2.64-.99-3.31c0-.17,1.45-.64,1.48-2.94.02-1.52-.98-2.17-.98-2.83,0-.55.83-1.31.98-2.36.23-1.64-.59-3.51-.52-4.28.04-.43,1.15-.35,1.38-1.05.25-.77-.09-1.82.16-2.71.28-.98,2.62-3.61,2.91-4.26.93-2.1,1.17-4.78,1.72-6.99-1.2-.5-2.33-1.21-3.67-1.37s-2.6.37-3.15.26c-.38-.07-4.05-2.06-4.79-2.36-2.43-1.01-5.38-.67-5.53-4.22l-.93.48-1.92-8.58c1.97.6,1.53-1.58,1.97-1.85.4-.25,1.38.07,1.98-.06.16-.04,1.6-1.85,2.49-1.9l.23,1.07c.21,1.39,2.93-.38,2.07-2.86-.67-1.96-4.2-2.42-4.38-2.61-.39-.41-.16-1.36-.88-1.86-1.86-1.29-3.65-.2-6.53-3.32-2.42-2.62-5.01-5.12-7.46-7.7-6.26-6.56-10.45-15.31-13.03-23.28-.44-1.37-.36-3.19-1.01-4.79-.38-.93-1.13-.94-1.19-1.25-.35-1.59.25-3.98.03-5.66-.14-1.1-1.43-2.1-1.03-5.25.11-.88.89-.62.98-1.01.39-1.66-.16-4.59.03-6.56.24-2.47,1.92-7.66,3.13-9.76.99-1.72,2.72-2.01,2.09-4.34-.88-.09-4.55.05-4.96-.12-1.16-.48-4.79-3.46-6.13-4.31s-3.16-1.5-3.93-2.73c-1.17.03-1.73,1.4-1.68,2.4l-.94-.49.04,1.67c-3.37,1.5-3.35,2.5-7,1.27-.25-.08-3.1-1.37-3.28-1.49-.82-.56-1.65-1.65-2.35-2.21ZM399.18,185.15c-.46-.28-9.33-3.32-10.12-3.48-6.26-1.21-17.46,1.93-22.58,4.06-3.81,1.58-3.36,2.58-5.79,4.25-.75.51-1.99.58-2.26.87-.19.19-.03.84-.25,1.13-.5.65-1.32.21-1.28,1.78.13,4.95,6.34,2.48,8.85,2.88.51.08.86,1.01,1.9,1.23,3.65.76,7.34.55,11.32,1.56,4.77,1.21,10.85,3.08,14.85,5.68.77.5,2,2.42,3.4,2.6.21.03,3.77-1.22,3.93-1.36.46-.4.35-1.4.67-1.7.1-.09.77.4,1.13-.07.09-.11.99-1.94,1.16-2.29.86-1.69,1.9-3.45.96-5.37l1.44-.24c.38-1.94-.97-1.68-.98-1.94-.01-.78.82-1.21.25-2.56-.19-.45-6.18-6.77-6.59-7.03ZM70.88,203.4c-.38-.24-2.86-2.79-3.52-2.19-.87,2.19-.07,3.19.32,5.08.08.4-.34.96-.3,1.3.03.3.7.28.77.45,1.51,3.92,2.51,3.84,5.12,6.58.63.66,1.23,2.29,1.73,2.59s1.22-.26,1.87-.01c1.84.71,4.22,2.49,6.23,3.23,3.15,1.16,6.93,1,9.39,2.24,2.56,1.29,7.23.2,9.92-.38,4.94-1.08,11.4-4.1,16.35-5.78,2.11-.71,6.31-2.6,7.6-2.89.7-.16,1.54.15,2.2,0,.92-.2,1.9-4.85,1.19-5.64-.19-.21-.96-.1-1.29-.36-.46-.36-.7-1.62-1.66-2.39-.3-.24-2.62-1.58-2.92-1.63-1.68-.33-10.58-.29-12.42-.03-2.41.34-7.27.96-9.43,1.46-.36.08-.27.85-.65.95-1.23.32-2.79-1.08-3.69-.98-.27.03-.22.89-.59.98-.74.18-5.25.92-6.11,1-1.63.16-2.83-.6-4.3-1l.24.95c-2.53-.21-5.44.29-7.91.04-2.2-.23-6.25-2.35-8.13-3.57ZM378.74,205.61c-.25-.15-4.78-.63-5.77-.77-8.96-1.32-17.45-2.2-24.77,2.96-.26.19-1.66-.36-2.23.14.89,2.13-2.18,1.66-2.4,1.9-.15.16-.65,2.81-1.59,3.68-.27.25-.91.1-1.3.1l.51,2.09-1.03.57c1.08,2.19-.33,1.27-.97,2.75s-1.2,4.95.53,5.79c.97.47,5.45-.09,6.89-.26,2.64-.32,2.87-.4,5.73-.43,6.8-.07,11.48-.82,17.65,1.43,9.85,3.59,15.56,7.79,23.01,15.27.76.77,2.5.51,2.05,2.36l.92-.47c-.37,2.09,1.59,1.65,1.87,1.95s-.07,1.74.08,2.46c.03.15,1.8,1.98,2.02,2.38,1.59,2.98,2.76,5.69,4.16,8.34.79,1.5,2.92,11.59,3.33,13.73.66,3.49-.82,10.37-.01,13.3.05.17,2.32.88,2.65,2.1,1.42-1.16,4.32-2.25,5.53-3.46.71-.72.75-1.47,1.22-2.14.53-.74,1.93-.71,1.13-2.41l1.43-.04c-.33-2.49,1.67-5.43,2.36-7.88.23-.83-.16-1.91.03-2.76.08-.36.9-.29.97-.64.19-.99-.7-2.76-.54-4.24.1-.93,1.02-.49,1.05-1.39.05-1.39-.74-2.69-.9-3.95-.11-.91.58-1.89.33-2.69s-2.48-.58-.96-2.96c-1.61-4.07-2.45-8.99-4.77-13.65s-5.38-7.04-8.51-11.25c-.26-.35-.16-1.24-.48-1.68-2.35-3.23-4.72-4.52-7.47-7.21-3.63-3.54-7.4-5.8-12.19-8.45-.78-.43-.1-1.37-2.31-.42l.03-1.19c-1.07.17-1.62-.7-2.41-.98-.52-.18-1.21.27-1.36.17-.21-.14-.22-1.1-.85-1.31-.7-.23-1.48.38-1.89.32-.49-.07-.5-1.04-.77-1.2ZM132.9,232.51c-.36-.37-.12-1.19-.99-1.64-.18-.09-3.53-1.26-3.83-1.33-2.34-.53-11.71,2.62-13.93,3.94-.37.22-.43,1.03-.86,1.13-1.87.45-2.53-.03-4.98,1.01-4.06,1.72-7.82,2.32-12.52,3.33s-13.14.93-17.06-.66c-1.29-.52-3.11-1.25-4.32-1.8-.51-.24-.25-.85-.61-.93l-.7.02c-2.13,1.88.68,6.06,2.11,7.9.75.96,2.01,1.18,2.21,1.45.3.4.37,1.57.44,1.62.09.07,1.06-.57,1.6-.51.28.03.29.68.5.8,1.96,1.14.5.5,1.19,1.38,1.54,1.97,4.52,1.11,4.73,1.24s.19,1,.85,1.27c.48.2,5.63.75,6.61.84,5.32.48,9.34.91,14.67-1.24,1.37-.55,3.81-2.54,5.11-3.1,1.2-.51,2.69-.25,2.81-.33,4.89-3.31,9.04-4.06,14.28-6.05.85-.32,2.19.01,3.13-.97.41-.42.21-1.12.44-1.33.38-.37,1.77.27,1.72-1.78-.05-2.32-1.32-2.92-2.6-4.25ZM376.76,239.06l-11.92-3.42c-2.44.71-4.36,1.74-6.53,2.51-1.56,2.65.23,1.83.96,2.4.58.45.36,1.45.54,1.61.33.28,1.39-.1,1.97.08,1.09.34,7.11,5.65,7.82,6.35,4.75,4.67,10.57,10.3,12.58,16.16.71,2.06,4.47,7.61,5.71,10.61.56,1.36,2.28,7.96,2.61,8.36.61.73,3.72.65,4.68.37s5.02-4.98,5.14-5.83c.14-.95-.31-9.08-.52-9.95-.09-.36-.81-.29-.91-.64-.71-2.5-.72-4.89-2.01-7.88-.27-.63-2.18-4.49-2.52-5.04-.25-.4-1.98-1.49-2.06-1.68-.33-.7.09-1.58-.22-2.17-.18-.33-4.94-4.57-5.38-4.87-.85-.57-2.99-1.11-3.13-1.23-.56-.46.09-.81-2.2-2.29-1.34-.86-3.16-2.61-4.61-3.47ZM341.56,239.92c-.17-.1-3.49.78-3.86.92-3.34,1.28-8.07,3.78-11.01,6.01-1.33,1.01-4.65,2.4-3.14,4.86.34.56,1.88.1,2.24.23,3.75,1.35,8.97,6.1,12.1,8.33l.84-.38c-.07,2.11,1.31,1.62,1.91,2.15.52.46.36,1.21.64,1.51.23.25,3.03,1.6,3.68,1.57l-.43,1.35c.43.11.82.25,1.07.65.47.77,2.13,3.49,2.51,3.77.36.27,1.32.16,1.55.51.1.16.58,2.61,1.16,3.12.31.28.98,0,1.33.43.6.72.26,2.41,2.35,2.09l-.41,1.19c2.09,1.12,1.84,4.68,2.45,6.15.25.6,1.01.61,1.27,1.16,2.98,6.17,5.84,14.43,6.73,20.81.37,2.65-.09,11.52-.46,14.37-.1.75-2.04,1.44-.49,3.75l-1,.53.52,1.37c-1.8.52-.35,1.12-.58,2.3-.29,1.48-1.78,2.63-1.85,4.81-.01.33-2.7,4.43-3.15,5.01-1.47,1.87-4.78,6.04-5.6,7.49-.93,1.65-2,2.07-2.25,2.4-1.36,1.85-2.59,6.3-3.33,8.42-.17.48-1.9,1.49-.93,3.2l-1.44.32c.13,2.13-.61,4.1-.94,6.14-.16,1.02.24,2.33,0,3.26-.09.37-.96.31-.97.59,0,.49.59,1.18.53,1.82-.03.3-.89.24-.98.61-1.27,5.09.38,14.13,2.05,18.39.77,1.97,1.38,4.11,2.27,6.07l.92-.46c-.82,2.29,5.03,2.91,5.73,1.91-.54-.74-.27-1.81-.52-2.5-.15-.42-.83-.36-.9-.69-.3-1.26.32-5.86-.02-6.35l-.95.48c-.64-1.2.28-2.69.24-3.37-.08-1.41-.88-3.79-.77-5.47.06-.92.93-.64,1.01-1.03.21-1.03-.56-2.27-.43-2.75.15-.57,1.13-.59,1.28-.81.14-.21.53-4.12.85-4.72s2.46-1.81,2.9-2.48c.99-1.51,2.08-3.38,3.49-5.25.52-.69,1.78-.76,1.46-2.27l1.42.49c-.31-2.05,1.46-1.82,2.36-2.66,2.38-2.25,4.55-6.32,6.88-8.62,1.35-1.33,2.94-2.45,4.49-3.6.19-.14.52-4.08,1.98-3.8l-.45-1.36h1.44c-1.07-1.31.92-.97,1.56-2.53.42-1.01-.25-1.75-.06-2.15,1.67-3.55,3.81-7.57,5.21-11.76.41-1.24-.03-2.92.05-3.05.6-.96,1.97-2.16,2.27-4.15,1.22-8.06,1.6-21.22-.33-28.72-.71-2.78-.8-6.29-2.45-8.45.05-1.76-2.1-4.84-3.36-6.83-.62-.98.11-2.4-1.96-2,1.35-1.69-.93-1.72-1.29-2.52-.15-.33.02-1.87-.26-2.46-1.22-2.62-4.47-5.2-6.37-7.59-2.97-3.73-4.18-6.63-7.84-9.09-1.42-.95-4.39-4.03-5.2-4.3-.66-.22-1.4.38-2.08.17-.93-.3-1.04-2.65-3.66-1.39l.48-1.42c-1.58-.19-2.86-1.16-4.42-1.6-2.03-.57-6.48-.12-7.1-2.15ZM135.91,256.19c-1.08-1.17-4.71-1.17-6.25-1.02-2.15.21-3.93,1.48-6.02.9v1.43c-.15.16-1.03-.51-1.46-.25-5.14,3.18-9.11,7.83-14.6,11.38-.92.59-1.42,2.22-1.96,2.69s-4.81,2.8-5.73,3.25c-1.18.57-3.21.53-3.38.63-.15.1-.13,1.06-.82,1.31-.94.34-6.86.07-7.34.54l.96,4.3.87-.41c.24.64.48,1.18,1.04,1.62.8.63,4.22,1.75,5.35,2.16.33.12.31.83.66.89,1.09.19,3.69-.7,5.12.07l.54-1,.94,1.02c1.98-.87,4.9-.12,6.61-.54.34-.08.33-.76.46-.83.36-.2.91.32,1.32.11.32-.17.68-1.47,1.9-1.86.94-.3,2.36-.14,2.88-.49.44-.3.3-1.24.56-1.57.43-.54,1.71-.3,2.15-.73s1.35-3.01,2.48-3.98c.96-.83,1.68-.13,2.43-.83,1.55-1.45,2.38-5.47,5.7-4.6-.95-2.26,1.19-1.92,1.44-2.2.72-.82.68-2.13,1.13-2.86.7-1.12,2.43-2.48,2.87-3.57.4-.98.86-4.76.13-5.55ZM329.05,265.31c-.82-.49-1.67-.91-2.45-1.47l-2.14,1.52c.74.66,1.25,1.96,1.77,2.6,1.48,1.84,4.82,4.04,6.09,5.75,2.74,3.71,4.92,9.87,8.31,12.95-.95,1.97.52,1.12.89,2.11.19.5.4,2.37.8,3.4,2.86,7.42,3.87,11.07,4.5,19.49.02.24-.98.15-1.13,1.08-.11.68.09,5.67.21,6.54.21,1.61,1.36,1.85,1.49,2.85l-.13.62c-1.96,1.13-2.64,1.99-2.34,4.35-2.2-.45-1.49,2.77-2.14,4.27-1.32,3.05-5.42,7.27-7.68,9.29-1.99,1.78-4.86,4.06-6.8,5.4-1.34.93-2.34,1.09-1.93,3,1.95-.86,3.01.9,3.19.94,4.03.99,7.7-1.48,10.54-2.81,7.86-3.68,11.46-10.98,13.59-18.74.2-.73-.09-2.57,0-2.68,2.31-2.99.78-2.72,1.33-6.03.86-5.21,1.1-10.4-.36-15.44-.49-1.7-1.29-3.63-1.56-4.71-.45-1.78-.68-4.19-1.17-5.89-1.4-4.89-2.91-5.97-4.9-9.65-.41-.76-.6-3.47-1.24-4.49-.55-.87-2.96-2.51-3.81-3.58-2.11-2.63-1.33-3.31-4.52-5.12-3.5-1.99-5.49-3.86-8.38-5.58ZM321.42,273.89c-2.72-1.35-3.97.78-3.19,3.35l1.46.29c-.79,1.5.38,1.65.65,2.37.16.42-.17.93.09,1.42.55,1.05,2.86,1.12,1.64,2.89,2.1-.42,1.17.95,1.8,2.26,5.36,11.23,6.08,19.71,3.68,31.86-.09.43.45,1.43.25,1.65-.17.19-3.97.34-3.34,2.87-.65.74-.87-.07-.95-.71-.1-.78.32-6.79.49-7.55.09-.38.87-.13.98-1.01.55-4.22-.43-16.16-2.07-19.74-.26-.57-3.61-4.88-3.69-5.2-.42-1.66-1.06-4.77-1.86-6.1-.71-1.18-2.45-2.36-3.23-3.6-1.66.23-2.38.35-2.1,2.17,3.68,3.72,3.7,8.96,5.63,13.51-.61,1.54.7,1.94.91,2.8.31,1.3,1.26,7.28.9,7.8-.24.35-1.15.3-1.23.78-.17,1.05.36,3.96.02,5.57-.07.33-.77.34-.79.42-.14.49.45,1.08-.18,2-.39.57-1.23.68-1.35.84-.2.29.47,1.2.33,1.95-.39,2.08-2.41,3.52-1.8,6.78.19,1.02,2.57,4.96,3.45,5.78.14.13.71-.13,1.08.16.46.36.55,1.23.8,1.41s.94-.27,1.36-.14c.87.28,2.66,1.41,3.09,1.44.21.02,3.92-.7,4.14-.8.33-.15,5.13-4.45,5.45-4.91,2.22-3.18,5.22-13.14,3.96-16.63-1.36-3.75-.63-6.74-1.4-10.53-.04-.21-2.19-3.08-2.27-3.28-.11-.29.61-1.34.29-2.43-.77-2.69-4.37-9.59-6.14-12.02-.97-1.33-3.88-3.66-4.33-4.4-.38-.62.14-1.55-.17-2.07s-1.23-.12-1.82-.44c-.27-.15-.34-.71-.52-.8ZM183.74,311.87h7.15c.84,3.71-1.76,3.38-4.49,4.3-.73-1.81-4.78-1.76-4.33.51.71,3.55,3.92,2.08,4.41,2.43.65.46,1.08,2.02,2.5,2.05-1.71,3.36-8.13.77-7.65,5.24.18,1.67,1.59.69,2.51,1.19s.45,2.1,2.76.96c1.42,4.97-3.59,2.71-6.68,3.82,1.06,1.75-1.7,3.55,1.39,4.51,1,.31.66.11,1.73.59,2.73,1.22,5.34,2.71,8.15,1.12l2.09-6.23c1.71,1.49,2.84-2.12,3.67-2.87,4-3.61,9.48-5.31,14.11-7.63.33-.16.3-.96.61-.96l1.63.49c-.18-1.13.66-2.46.5-3.49-.05-.33-.84-.42-1.13-.9-3.57-5.92-4.58-9.58-6.05-16.25-.07-.32-.63-.33-.76-.54-.24-.39-.13-1.04-.24-1.15-.37-.36-2.17.12-2.97-.09-.37-.09-.31-.96-.59-.97-.49,0-1.14.57-1.8.51-.13-.01-1.49-1.48-1.93-1.74-1.99-1.18-13.14-8.69-13.98-8.78-.52-.06-1.04.42-1.6.22-.61-.22-1.33-1.78-2.84-1.17.39,1.18-.49,4.04-.21,4.79.11.3.78.6.89.97.21.75.53,3.32.87,3.7.17.19.91-.03,1.17.2.62.56,1.41,3.43,3.26,3.17,1.54,3.93-2.08,4.23-4.48,6.08-.61,3.01.12,3.46,2.13,5.16.24.2.16.73.19.74ZM281.93,300.81c.19-.34-.39-1.03-.26-1.48.18-.64.74-1.18.9-1.95.42-2.01-2.75-10.82-4.82-9.32-.85,1.85-1.27,3.89-2,5.8-.24.61-1.33,0-.42,1.8l-1.31.09c-.96,3.5-.33,7.47-.64,11.15,1.76,4.94,2.51,8.85,5.94,12.9.89,1.06,1.26,2.1,2.62,2.16-.12,2.81.41,1.39,1.6,1.86.44.17.34.81.72.91,1.13.31,6.65.6,8.01.56,4.34-.11,7.09-4.18,9.77-7.1,1.87-1.96,1.53-9.61,3.58-10.6,1.05-.51.39.81.51.96.24.32.9.34,1.04.56.81,1.32-.81,5.02,3.45,4.19l-.44-1.84c.73-.25,1.53-.49,1.79-1.34.8-2.6-.54-7.74.57-10.79-2.35-2.27-2.67-6.3-4.29-9.04-.34-.58-1.69-.52-1-1.75l-3.23-.45c-.77,2.42-2.11,3.65-3.74,5.37-.22.23-.05.96-.27,1.14-.35.29-1.14,0-1.3.13-.14.11-.32,2.32-.67,3.41-.15.46.18,1.26.13,1.29-.35.21-2.26.77-2.67,1.15-1.43,1.36-3.2,4.61-5.51,5.93-.54.31-1.22.09-1.8.12l.48.95c-2.29-.86-5.72,1.07-7.37.95-1.05-.08-2.25-1.29-3.6-.96-.44-2.63,1.68-4.1,3.15-6.16.24-.33.99-.44,1.07-.6ZM266.16,332.01c-1.43-.56-4.63,3.45-3.72,5.14,2.18.18,3.87.11,5.52-1.42.24-.42-1.36-3.55-1.81-3.72ZM177.4,345.39c.34.26.34,1.03.91,1.23.61.22,3.56.22,4.17,0,2.67-.91.48-7.48-4.16-6.07-1.16.26-.15,1.41-.37,1.74-.15.22-.87.25-1.12.59-.32.43.31,1.7-.72,2.14.08.49.9.07,1.29.36Z"/>
      <path d="M204.25,61.93c.14.1.93-.2,1.32.12,1.26,1.02.9,4.83,2.48,5.87l-.88.89c.99,2.25-.15,3.8-1.42,5.48-.16.22.02.84-.1.97-.11.12-.9-.29-1.39-.14-1.21.38-1.85,1.37-2.29,1.55-1.03.4-4.95,1.15-5.99,1.01-.33-.05-.23-.77-.66-.94-.63-.24-1.38.12-2.32-.46-.16-.1-2.42-2.57-2.48-2.74-1.35-3.8-.31-11.13,4.2-12.09l-.48-1.42c.34-.27,7.71-.44,8.6-.25,2.94.63,1.28,2.05,1.42,2.15ZM199.48,63.84l-1.19-.95c-1.96,2.46-3.18,2.15-2.51,5.85.47,2.59,1.19,1.82,2.61,2.41.31.13-.19,1.47,1.85.36,1.27-.69,3.04-2.59,2.98-4.1-.12-3.06-1.85-2.58-2.79-4.52h-.94s-.01.95-.01.95Z"/>
      <path d="M350.48,251.98c3.36,1.62,7.17,4.58,10.11,7.42.85.82,2.43.57,2.02,2.39l.92-.46c-.23,1.51.97,1.56,1.48,2.25,1.77,2.36,4.07,6.3,5.01,8.68,1.39,3.54,2.54,7.11,2.59,10.97l-3.19-.1-1.62-5.08-1.33-.07c.27-2.35-1.71-4.91-3.09-6.94-2.75-4.03-6.75-8.79-10.17-12.59-.67-.74-4.67-4.11-4.79-4.41-.39-1,.26-1.82.37-2.75.58.2,1.14.42,1.7.69Z"/>
      <path d="M406.48,162.11c.11.11-.18.96.1,1.29s4.2,2.35,5.02,3.12c.96.92,1.99,4.35,2.17,4.54s.89-.02,1.33.41c1.11,1.09,2.47,3.48,2.44,4.7,0,.18,1.72,1.09.87,3.1-1.72.51-1.64-.56-2.29-.91-.34-.18-1.06,0-1.51-.29-.61-.39-1-2.45-1.49-3.19-1.44-2.18-6.38-7.71-8.42-8.97s-5.11-.98-4.89-4.3c2.56-1.11,3.31.38,4.71.71.56.13,1.76-.43,1.96-.23Z"/>
      <path d="M382.53,217.59c.08.03.12.63.47.75,1.85.63,5.5,1.36,6.89,1.98.58.26,3.07,2.27,4.1,2.79.81.41,6.03,2.9,6.3,3.14.65.59.27,1.46.6,2.02.22.37,3.06,2.09,3.71,2.73,7.38,7.25,12.47,19.79,12.4,30.05-.02,2.36-1.21,5.4-.97,7.9-4.12.15-2.7-1.56-3.16-3.83-.57-2.81-1.02-6.71-1.62-9.21-.09-.36-.88-.28-.95-.66-.16-.78.26-2.61.49-3.48l-1.39-.02c.68-1.98-.96-2.42-.94-2.58.22-3.02-2.64-5.41-3.55-8.01-.22-.62.27-1.68.15-1.78-.15-.12-.96.17-1.29-.11-1.6-1.4-3.72-5.44-5.54-7.37-3.8-4.02-8.35-5.43-12.35-8.27-.8-.57-2.1-2.65-2.77-3.1-.85-.57-3.13.81-2.92-1.58l-1.34-.1c.07-3.07,1.3-1.53,2.74-1.14.29.08.68-.22.97-.13Z"/>
    </g>
  </g>
</svg>