<?xml version="1.0" encoding="UTF-8"?>
<svg id="_Слой_2" data-name="Слой 2" xmlns="http://www.w3.org/2000/svg" viewBox="0 0 395.38 458.7">
  <g id="_Слон" data-name="Слон">
    <g>
      <path d="M388.65,4.7c.74.85,5.05,5.76,5.22,6.12.28.57,1.56,5.27,1.5,5.89-.22,2.33-3.05,6.5-5.32,7.09-4.48,1.16-5.39-1.93-7.38-1.93-3.41,1.79-6.29,2.12-9.01,5.04-5.62,6.03-5.12,14.5-2.7,22.14,3.47,11,10.2,21.03,12.98,33.53.08.38.89.3.98.68.51,2.13-.11,10.84-.61,13.29-.6,2.98-2.88,3.29-4.65,5.36l2.15,3.77c-.04.41-.91.78-1.07,1.23-2.36,6.72-7.54,13.39-10.27,19.9-3.38,8.07-3.76,17.01-6.87,24.47-3.13,1.89,2.07,2.55-1.69,4.42.37,1.02.95,3.24.4,4.11-.18.28-1.22.31-1.33.88-.09.48.56,1.11.34,1.61-1.79,4.17-5.19,8.84-8.62,12.43-.4.41-2.97,2.16-3.31,2.52-3.05,3.26-2.14,3.57-3.26,7.15-.63,2-4.57,4.79-5.7,9.28-.57,2.28-.2,4.54-.53,6.45-.2,1.13-1.95,5.21-1.97,6.03s.88,1.51.92,2.47c.08,1.62-1.13,6.81-1.45,9.01-.22,1.51-2.06,1.69.51,3.52-2.17,1.2-.99,2.59-1.26,3.82-1.44,6.35-3.77,13.01-5.51,19.4-1.14,4.19-2.16,14.43-4.49,18.04-.25.4-1.07.41-1.17.55-.11.16.5,1.06.44,1.66-.1.93-1.34,1.63-1,2.77,2.41,1.16,4.63,1.18,7.03,1.72,1.57.36,2.51,1.14,4.18,1.32,1.07.12,3.98.13,4.93-.14.41-.12,5.16-3.11,5.69-3.56.96-.83,4.56-5.76,4.92-6.85s-.14-6.01-.86-6.86c-.2-.23-1.13-.21-1.63-.6-2.4-1.92-5.11-4.94-4.16-8.16.27-.92,4.01-4.77,4.59-6.19,2.15-.96,4.59-3.18,6.98-3.49,2.18-.29,7.33.62,9.3,1.61,1.43.72,5.59,5.91,6.13,7.37.67,1.8.09,3.07.41,4.51.05.24,1.57,1.23,1.45,3.57-.06,1.11-.87,1.98-.96,2.55-.02.11,1.67.43,1,1.73l-1.49-.5c-.43,1.39.91.93,1.25,1.47.44.72-.66,8.29-1.06,9.57-.71,2.28-7.87,14.34-9.49,15.91-.29.28-3.37,2.41-3.58,2.47-.89.24-2.76-.87-3.02.88-.1.71.53,1.75.38,2.9-.36,2.77-4.75,3.95-6.38,5.76-.83,1.39-5.19,1.26-5.54,1.64-.24.25.21,1.15-.39,1.41-3.57,1.55-10.46,1.92-14.41,2.51-.76.11-1.29.85-2.05.95-2.68.37-5.91-.16-8.73.53l2.01,5.11c.53.96,2.27.72,1.8,2.4-.07.26-2.14,3.15-2.31,3.25-.97.6-1.86-.4-3.28.17-.71.29-3.83,3.75-4.2,4.45-1.16,2.18-1.94,6.76-2.73,9.38-1.31,4.34-1.54,4.07-1.75,8.45-.25,5.13-1.51,5.66-1.05,11.55.29,3.68-1.55,5.97-.94,9.45s.46,3.97.59,7.42c.04.98,1.28,3.23,1.4,4.58.25,2.97-.83,3.55-1.05,5.5-.48,4.16,4.74,14.27,7.11,17.96,1.8,2.78,5.92,4.86,8.23,7.5,2.89,3.29,5.62,12.82,6.21,17.54.38,3.05-.1,4.4-1.53,6.9-.3.52-1.38.13-.49,1.34-.46.45-6.06,2.08-7.09,2.58-1.26.61-3.97,3.03-4.79,3.42-1.5.71-4.08.8-5.72,1.57-.44.21-1.59,1.84-2.68,1.93-1.56,1.63-1.9,7.4-3.19,9.32-.17.25-4.03,4.04-4.27,4.23-1.17.91-3.08.96-3.18,1.09-.28.39-.1,1.22-.81,1.95-.85.87-5.18.81-4.81,3.44l-8.53.3c-2.12.28-4.37,4.9-8.19,4.47-.5-.06-1.05-.74-1.97-.78-5.8-.22-9.38.17-14.88-2.49-.6-.29-.65-1.28-1.1-1.34s-1.47.49-2.5.36c-6.27-.84-11.91-4.25-16.98-7.82-2.18-1.53-4.57-1.58-5.67-4.59-1.12-3.08-.28-4.27.07-7.02.53-4.09,1.41-9.05,2.47-12.58.71-2.37,3.39-5.3,2.67-8.37-.16-.47-4.19-2.49-4.69-2.53-.8-.06-1.43.76-1.98.76-18.51-.08-37.14-14.4-45.4-30.4-7.83-15.16-4.93-31.46-10.94-46.04-.68-1.64-3.77-7.92-5-8.76-3.25-2.23-9.79.18-11.08,3.87-.36,1.02-.09,1.84-.29,2.63-.9,3.56-1.91,6.31-2.5,10.59-.78,5.59-2.49,12.96-2.38,18.52.16,8.01,5.37,16.6,4.84,24.52-.05.69-.76,1.28-.9,2.02-1.18,6.22-4.64,13.12-4.02,19.42.36,3.66,2.72,6.13,4.41,9.11,3.03,5.35,6.61,14.13,7.46,20.53.09.69-.48,4.33-.77,5.01s-3.92,3.99-4.67,4.36c-.51.25-1.2-.23-1.37-.12-6.22,3.97-13.1,5.29-19.47,7.84-5.2,2.07-7.52,2.32-13.75.82-2.4-.58-4.32-1.84-6.23-2.77-.52-.25-2.82-1.4-2.98-1.42-.21-.03-3.64,1.07-4.05,1.24-.79.33-.55,1.13-.61,1.16-.27.15-.67-.66-1.24-.74-1.38-.21-3.3.13-4.74-.52-1.97-.88-10.34-9-12.71-11.04-1.78-1.53-3.6-3-5.13-4.87-2-2.44-2.84-5.88-4.33-8.67-3.99-1.85-8.77-1.62-12.32-4.43-.36-.29-2.95-4.11-3.02-4.48-.26-1.33-.22-7.07.02-8.46,1.49-8.77,10.79-17.07,14.97-25.43,2-4,2.46-7.8,4.03-11.98,2.82-7.53,4.2-20.07,3-28.65-1.03-7.36-1.93-13.6-4.06-20.84-2.04-6.94-4.4-15.94-6.44-23.24-.34-1.21.19-2.81-1.17-3.98l-15.05-2.12c-.56-.16-.19-1.33-.79-1.79-.16-.12-3.34-1.35-3.77-1.48s-3.76-.74-3.95-.7c-.68.17-.82,1.4-1.3,1.71-.96.63-5.64-1.55-6.85-2.17-2.12-1.09-5.53-3.13-7.59-4.43-9.28-5.85-12.87-10.49-15.38-21.48-.12-.51.34-1.24.22-1.83-.29-1.41-1.32-2.02-1.43-4.1-.04-.85,1.09-6.91,1.37-7.66.43-1.14,3.19-4.9,4.25-6.29,1.23-1.6,3.18-2.08,3.4-4.58,1.85-.31,3.13-3.01,4.8-3.25,2.76-.41,4.04,1.53,5.3,3.21.35.47,1.1.67,1.27.95,1.41,2.33.15,6.03,4.02,6.74,3.07.56,7.24-1.1,6.1,3.59-3.86,1.03-7.85-1.64-10.8,2.2-1.88,2.45-1.57,5.84.13,8.28.84,1.21,7.27,5.76,8.7,6.3,2.45.92,4.88-.04,7.23.78,1.53.54,1.56,1.53,3.5,1.49,5.05-.11,6.87-4.7,6.75-9.19-.03-1.02-1.24-8.18-1.55-9-.26-.69-1.18-.75-1.26-.92-.23-.5-.22-2.58-.51-3.28-.27-.64-1.07-.58-1.15-.96-.24-1.17.53-2.12.52-2.87,0-.34-1.08-.22-1.25-1.21-.61-3.6-.9-7.64-1.34-11.22-.16-1.31-1.32-1.31-1.41-1.71-.65-3.07.48-8.12.02-11.43-.18-1.26-.91-1.88-1.06-3.44-.23-2.44.86-4.86.58-7.07-.12-.92-.94-.66-1.03-1.06-.47-2,.22-5.57-.02-7.9-.39-3.76-5.44-12.52-7.79-15.71-3.77-5.11-8.94-8.4-12.56-14.44-6.5-10.85-6.99-23.29-10.58-35.02-2.67-8.72-7.67-15.4-11.93-23.45-3.95-7.48-6.4-10.53-5.17-19.92.12-.93.94-.66,1.03-1.06.44-1.96.07-5.59.54-7.87,1.82-8.87,8.26-18.49,10.94-27.56.5-1.69.37-3.52.73-4.87,1.43-5.35,4.56-11.28,2.84-17.13-.12-.42-1.01-2.61-1.26-3.24-1.59-3.99-5.25-7.94-10.04-7.53-.87.07-.66.86-1.42,1.13-.48.17-4.95,1.15-5.36,1.17C2.97,23.84-.78,18.37.14,14.28c.33-1.47,2.96-5.84,3.98-7.17.41-.54,4.61-3.78,5.19-4.05,2.17-1,2.88-.11,4.33-.13.33,0,.04-.92,1-1.05,2.29-.31,5.5.15,8.01.02.69-.03,1.25-.88,2-.93.79-.05,8.33.08,8.75.2.46.13,6.07,3.18,6.49,3.53.8.67.81,1.77,1.55,2.44.54.48,1.48.57,2,1.03,1.18,1.07,2.59,5.8,3,7.37.11.43.88.34.97.71.74,3.05-.76,5.24-.96,7.43-.18,1.93.03,4-.03,5.97-.05,1.59-.99,2.94,0,4.76,2.03-.59,4.18-1.1,6.08-2.06,1.26-.63,2.69-2.46,3.96-3.14,1.91-1.02,4-1.83,5.81-2.8,10.46-5.65,19.73-10.85,32.84-9.45,8.27.88,23.51,10.61,30.95,6.94,4-1.97,9.51-2.87,13.71-4.63,5.39-2.26,11.86-8.32,17.93-7.93.31.02,3.51-1.77,5.43-1.98,3.34-.37,5.51.64,8.1.89,1.09.1,2.35-.59,3.91-.33,8.38,1.42,15.13,6.54,24.05,6,8.13-.5,15.92-5.47,23.95-6.55,1.23-.16,2.66.13,4.01,0,.71-.07,1.2-.88,1.93-.87,1.3.02,3.42,1.41,4.68,1.72,9.51,2.37,9.43,2.81,17.58,7.6,8.53,5.02,21.3,8.25,30.71,4.54,2.42-.95,7.58-3.78,10.66-4.4,5.72-1.15,20.46-.83,25.33,2.43,4.06,2.72,2.84,3.53,8.55,4.68,2.8.57,5.65,1.17,7.77,2.1,3.07,1.35,4.85,3.21,8.81,3.26,2.84.03,2.28-.4,3.81-1.73.39-.34,1.15-.12,1.46-.67.2-.36.73-5.18.79-5.98.24-3.04.63-6.03,1.75-9.25.37-1.05,1.48-3.85,1.99-5,1.43-3.18,5.99-6.03,9.29-6.72,5.92-1.24,12.48-1.52,18.32-.52,1.26.21,2.52.24,3.43.42,1.93.38,3.45,2.32,4.62,3.68ZM382.42,12.43l.49-5c-1.15.67-2.32.96-2,2.5l-1.49-1v3.5s3,0,3,0ZM362.62,36.24c-1.54-4.17-2.56-10.69-1.7-15.05.34-1.71.69-.51.75-2.98s.53-4.97.17-7.46l-2.64-1.25c-1.42.77-1.42,2.21-1.84,3.01-3.72,7.16-3.35,12.04-2.1,19.75.32,1.96.33,4.58.67,6.89,1.19,8.06,5.3,17.15,7.82,24.54,1.94,5.68,3.93,11.35,4.68,16.95.17,1.23-.26,2.71,0,3.92.16.75,5.47,6.23,7.12,5.29,1.16-.32,1.6-2.18,1.68-3.26.55-7.51-4.35-22.56-6.87-30.28-2.12-6.46-5.41-13.79-7.75-20.09ZM38.14,12.21c-1.1-1-1.08-1.71-3.21-1.27v1.26s-1.5-.26-1.5-.26c.68,1,2,1.15,1.76,2.74-2.02,13.14-1.27,25.49-5.57,37.91-2.65,7.65-6.56,15.4-9.15,23.63-.57,1.81-1.81,5.47-2,6.98-.26,2.06-.06,8.69,1.23,10.22.55.66,1.73.77,2.53,1l.67-.02c-.4-1.45,1.42-1.87,1.54-2.32.35-1.31-.23-3.74.02-5.37.43-2.86,7.48-19.13,8.63-21.15,3.55-6.2,5.54-15.7,6.89-22.32,1.12-5.5,2.28-12.29,2.44-18.06.15-5.26-.2-9.25-4.28-12.97ZM186.24,19.61c-2.42-2.35-11.63-5-15.05-5.21-11.66-.7-19.01,2.94-27.29,10.26-4.14,3.66-7.69,5.27-12.73,7.99-2.55.07-8.04,3.35-10.26,2.03-1.37-1.28-.49-3.22,0-4.73-3.83-1.91-8.22-1.05-12.19-2.08s-8.41-3.81-12.58-4.42c-6.1-.9-10.31,1.6-15.63,3.32-9.42,3.04-28.1,8.97-34.09,16.91-.66.87-2.5,3.72-.69,4.22,1.63.45,2.21-1.35,2.52-1.43.44-.11,5.87-.44,6.16-.31,2.68,2.55-.59,1.84-1.86,2.41-.16.07-.21.72-.48.85-3.35,1.63-5.7,2.68-8.11,5.79-1.9,2.46,1.38,2.96,1.89,2.6.26-.18.26-1.15.78-1.25,1.42-.28,4.27,1.14,5.59,1.36,1.68.28,3.37-1.25,4.19,1.26l-10.44,4.5c-2.07,2.96-9.48,6.51-7.42,10.85,1.04,2.18,2.44.54,4.1,1.92,2.85-3.16,7.45-4.28,10.77-6.8l2.97.81c.57,2.61-.63,1.69-1.61,2.43-.68.51-.48,1.73-1.82,1.08l-.04,1.46c-2.19-1.37-3.54,2.85-4.69,4.28-1.25,1.56-5.08,4.46-4.75,6.85.1.74,1.57,2.62,2.28,2.81,1.62.43,2.6-3.02,4.02-3.93,1.41-.89,3.69-1.27,5.21-2.05.51-.26.67-1,1.28-1.34.91-.51,3.77-2.05,4.67-1.41,1.56,2.33-.25,2.15-1.3,3.25-2.71,2.81-4.84,5.46-6.11,8.92-.45,1.23-1.46,1.65-1.58,2-.39,1.13-.1,2.71-.82,4.08-.83,1.58-2.78,1.58-2.99,3.57l-2.15-.1c-.29-1.62-1.31-2.84-1.97-4.28-.43-.95-.37-2.44-.74-3.02-.16-.25-4.02-3.49-4.48-3.8-2-1.31-4.29-1.68-6.13-3.17l-3.18,1.39c-.38.44.49,4.55.89,5.13.14.2,3.71,2.02,4.31,2.51,2.56,2.11,6.13,8.32,7.73,11.18,3.96,7.09,2.35,10.05,2.98,17.38.5,5.87,5.73,8.24,6.49,12.51.57,3.21-.42,7.42.17,10.83.36,2.07,4.2,10.16,5.64,11.87,1.13,1.34,3.8,4.02,5.62,2.91.22-.13.3-.86.6-1.14,1.18-1.08,1.47-1.95,2.01-2.47,4.48-4.26,12.78-5.2,15.92,1.04.73,1.44,1.29,5.52,2.04,7.44,1,2.55,2.27,4.8,5.32,3.28.65-2.92,4.99-10.77,8.43-7.03,1.63,1.78,2.98,5.47,4.32,7.14.81,1.01,2.17,1.42,2.76,2.88,3.37.1,1.63-2.73,2.83-4.39.25-.35,1.02-.48,1.37-.86,1.58-1.71,2.71-3.59,5.47-2.44.69.28,4.84,3.82,5.36,4.53s1.57,3.42,1.72,3.55c.28.25,3.5.19,3.96-.14.53-.38,1.14-4.62.97-5.44-.09-.41-.94-.39-1.16-.95-.43-1.12-.13-2.13-.36-3.04-.11-.43-2.12-1.02-.95-3.04l-1.03-.57c1.58-.61.95-2.93,1.09-3.14,1.28-1.88,1.36-1.81,2.45-4.23.18-.4.95-.41.98-.69.2-2.02-3.52-4.74-4.77-3.2-1.73,3.58.4,7.5-1.52,10.99-2.65-.4-5.1-1.73-5.13-4.74-.04-3.98,1.3-3.08,3.16-4.74.62-.56.9-1.64,1.46-2.04.85-.62,2.1-.26,2.77-1.22-1.55-2.06-2.91-4.01-4.16-6.27-.19-.34.21-.92.02-1.32-.11-.23-1.66-1.73-1.79-2.07-1.62-4.05-2.17-16.48-1.59-20.87.12-.93.93-.66,1.03-1.06.41-1.75-.39-4.56.03-6.31.46-1.93,2.36-6.14,2.96-8.63.64-2.64-1.22-4.2,3.53-3.72-.09,5.87.86,19.41,5.9,22.99.46.33,1.67.18,2.01.62,1.35,1.74-.16,6.21.06,8.16.14,1.28,2,5.84,3.04,6.49.72.45,1.36.29,2.12.14,3.93-.74,3.45-7.86,8.16-4.4-1.53,4.02,2.79,5.54,3.24,8.72s-1.48,7.04-3.7,9.15c-.8.76-.33-.37-1.2,1.13-1.21,2.1-2,1.5-2.51,2.12-.63.77-.64,3.64-.76,3.79-2.09,2.67-.75,1.51-1.37,4.26-.08.37-.89.3-.98.68-.21.87-.19,5.4-.05,6.44.12.91.88.62,1.02,1.08.25.82.68,5,.51,5.78-.04.16-1.85,2.48-1.99,2.6-1.58,1.38-4.76,2.03-6.21,3.29-1.95,1.71-3,4.84-1.95,7.35.36.85,4.6,4.11,5.66,4.38.93.24,5.43.3,6.38.1,2.68-.56,6.02-5.15,8.11-5.55.76-.15,1.47.3,2.21.18.79-.13,1.32-.92,2.03-.97,1.15-.07,5.94,2.84,3.99-2.01-1.24-3.09-2.87-2.43-3.24-7.26-.91-11.75,6.9-19.18,7.54-31.5.2-3.76-.66-9.7-.01-13.01.22-1.11,1.27-1.4,1.49-2.51.31-1.6-.07-4.17.01-5.99.07-1.55,1.31-6.18-.58-7.21-1.45-.78-1.92,1.57-2.09,1.76-2.22,2.39-5.31,4.81-8.81,3.42-1.1-.44-2.11-2.13-2.92-2.72-2.77-2.03-4.71-2.58-6.58-5.89-1.82-3.22-.46-4.04-1.18-5.99-.31-.84-3.16-1.67-4.08-2.65-2.74-2.94-4.77-7.36-6.75-10.74-.67-1.15-2.49-1.25-1.52-3.23-2.67-.05-5.08.32-7.65-.61-3.26-1.18-9.19-7.11-9.24-10.73,0-.18,1.17-2.97,1.36-3.31.57-.98,2.2-.27,1.02-3.11-.47-1.14-1.22-1.11-1.48-1.64-4.74-9.89-9.32-15.48-19.41-20.46-4.19-2.07-6.4-2.09-10.63-2.92s-6.85-2.99-8.98-6.35c-.3-.48-1.96-1.09-.92-2.8.39-.64,5.23-.76,6.08-.56.41.1.14.91,1.06,1.03,5.55.72,11.09-1.76,16.9-.91,2.35.34,14,4.12,15.87,5.15.33.18.46.99,1.45,1.52,7.18,3.87,8.85.98,10.28-5.8l1.05-.53c2.75-.3,2.12,1.3,2.78,2.63.23.45.85.43.93.75.7,2.99-.68,8.21.14,11.28.05.2,1.89,3.56,2.03,3.72,2.99,3.43,12.11.2,11.7-5.54-.11-1.51-5.18-8.18.28-6.69,6.98,1.9,6.66,13.3,2.89,18-3.32,4.15-9.36,6.86-12.68,10.96-1.48,1.83-2.42,4.4-3.55,6.27-1.21,2-3.59,3.21-2.96,5.68.79,3.08,2.34,1.51,2.97,2.42.46.67-.04,2.09.29,2.46.16.17.96.08,1.36.38s.42.99.94,1.18c.32.12,4.03.84,4.46.86,2.25.11,1.7-2.03,2.88-2.91.62-.46,1.2.16,1.63-.06.14-.07.13-.78.48-.86,1.09-.26,2.62.14,3.88-.03.75-.1,1.34-.93,2.02-.96.95-.04,1.82,1.01,2.69,1.21.7.17,1.4-.39,2.53.01.66.24,3.79,2.74,4.34,3.43.5.62,2.81,4.84,3.03,5.69.71,2.65-.15,5.88,3.87,6.67,2.05-2.41,2.07-5.7,2.96-8.62.33-1.07,2.09-3.92,2.13-4.15.46-3.02-.61-4.1,1.2-7.12,1.61-2.69-4.38-8.05-3.43-10.82.47-1.38,4.37-3.02,5.54-3.85,1.76-1.25,5.49-4.59,7.07-5.28,1.11-.48,2.57-.34,3.49-.79.75-.37.76-1.23.92-1.33.29-.17,5.14.67,6.7.47.96-.12.48-.96,1.43-1.08,5.92-.75,11.77.39,17.46,1.39.72.13,1.95-.41,2.94-.22,5.16,1.01,9.11,5.61,13.29,8.31,2.56,1.65,4.63.45,3.2,4.93-.43,1.34-1.2,1.37-1.56,2.01-.27.48-.08,1.51-.59,2.33-.34.55-1.33.64-1.46,1.14-.36,1.38.4,2.74.46,3.95.24,4.3.22,5.15,1.48,9.11.53,1.65,1.95,7.78,3.06,8.36,3.98,2.1,4.22-5.58,5.03-7.38.24-.53.96-.6,1.15-.95,1.35-2.48,2.23-5.01,5.22-5.84.59-.16,1.34.41,1.54.31.11-.06.15-.92.91-1.32,2.32-1.2,5.61,1.43,7.93,1.88,1.25.24,2.82-.24,3.87.02.48.12.93,2.17,2.71,2.42l5.15-.4c-1.25-4.72,3.79-4.74,5.16-8.5s-1.1-3.52-2.49-5.18c-2.45-2.94-4.23-6.28-7.06-8.83-3.2-2.89-10.31-4.44-11.13-9.49l-.93.46c-1.99-5.48-2.42-15.99,5.45-16.46.33,3.87-2.6,5.48-.33,9.34.1.16,2.2,2.78,2.34,2.9,2.26,1.98,8.32,1.98,10.01-.6.92-1.41,2.08-7.66,2.02-9.39-.08-2.15-1.77-3.22.49-5.98,1.47-1.8,5.11-2.98,6.71-.8.18.24-.17.98.04,1.48.27.64,1.02,1.15,1.14,1.89.18,1.12-.96,2.74.16,4.08,4.88,1.3,4.86-3.49,7.72-5.45,3.73,2.82,5.97-.16,9.61-1.32,2.79-.89,9.6-2.27,12.37-2.18,2.11.06,7.67,1.71,10,2.01,1,.13,5.87.08,6.23.26.7.37-.35,2-.56,2.33-3.68,5.85-17.81,7.31-23.78,10.59-4.09,2.25-10.12,7.62-12.84,11.65-.24.36-1.05.42-1.24.99.31,2.47-.87,4.68-1.07,6.94-.34,3.72.98,6.03-.64,9.86-1.38,3.28-2.87,3.48-5.52,4.88-.32.17-.29.94-.69,1.02-1.75.34-3.04-1.1-5.52.34-.89.51-.9,1.33-1.64,1.88-1.14.84-2.59,1.02-3.78,1.74.18,1.45.59,2.47-.08,3.92-.13.28-3.68,3.88-4.27,4.46-.43.43-1.27.35-1.71.79-1.27,1.24-1.93,3.88-4.07,3.93l-.53,5.11c-1.49.73-4.49,1.7-4.46,3.55.01.94.63,1.89.43,2.93-.07.37-.78.37-1,.71-.38.58-.38,1.39-1.03,1.87-.55.42-1.48.42-2.14.77-.32.17-.28.92-.69,1-3.09.63-8.23-1.24-9.94-4.03l-1.95,1c.72,4.98-.19,10.32.24,15.27.2,2.24,1.28,4.24,1.52,5.98.74,5.41-.21,11.85,1.13,17.64.76,3.29,3.21,6.38,4.23,10,.23.81,1.13,3.64,1.15,3.85.15,1.13.14,5.45-.15,6.43-.45,1.55-3.86,5.05-3.36,7.06,1.3,1.77,4.48.37,5.23.46.17.02,2.66,1.05,3.08,1.24,5.09,2.22,10.22,7.04,15.16,9.77,3.07.61,7.62-2.58,8.38-5.54s-1.01-5.09-.98-8.03c-3.67-2.06-7.87-3.41-10.56-6.74.29-1.35-.43-3.65-.33-4.59.18-1.72,1.54-3.96,1.97-5.55.52-1.92.87-4.02.02-5.88-2.29-5.05-6.85-8.6-8.76-14.3-.13-.4-.94-.77-1.13-1.39-.81-2.7,1.09-5.93,1.66-8.64.22-1.06-.25-4.11.71-4.79l2.47-.14,2.29,3.73c8,.31,6.38-6.57,6-12.3,4.53-2.86,7.74-3.83,8.27-9.76.33-3.7-1.43-7.73,1.01-10.52,1.93-1.18,4.74,5.97,5.19,7.34.43,1.29.47,3.65.83,5.07.1.41.87.36.95.72.92,3.83-.57,9.41-.51,13.43.02,1.34.85,3.37.28,4.23-.2.3-.96.34-1.13.61-.23.37-2.21,6.35-2.9,7.84-.94,2.02-.93,3.46-1.46,4.56-.2.42-4.37,4.33-5.09,5.65-.12.21-.92,2.47-.93,2.6-.13,1.88,1.76,2.24,1.78,2.54.03.37-.5,1.25-.52,1.95-.06,3.39.2,8.73-.51,11.91-.09.4-.96.15-1.04,1.07-.11,1.19.66,4.27,1.88,4.69,4.01,1.38,5.04-3.46,6.87-5.72.61-.75,3.92-4.09,4.62-4.09,4.02.03,4.36,7.1,8.78,6.29,5.27-.97,4.09-10.36,10.13-10.41,1.62,3.18,4.47,9.12,8.91,8.03.27-.07,3.31-3.64,3.7-4.17,1.32-1.76,2.1-3.71,3.65-5.58.57-.69,3.98-4.74,4.33-4.8.39-.06,2.75.55,3.15.8,1.04.62.72,1.66,1.36,2.26.57.53,6.76,3.51,7.64,3.73,1.35.34,3.3.73,4.62.21.44-.17.35-.93.71-.95.32-.02.78.47,1.11.38.14-.04,1.75-2.26,1.8-2.41.26-.83,1.2-4.17,1.29-4.79.24-1.57-1.16-2.29-1.03-3.41.27-2.28,1.66-5.14,2.38-7.18,1.37-3.92.42-7.36,1.36-11.15.44-1.78,1.28-1.53,1.64-2.11.41-.65-.12-1.92.96-2.31,2.19-.79,3.05,1.06,3.66,2.74l2.53-.29c-.59,2.73.96,1.65,1.73,2.47.18.19-.2.95.24,1.27.71.52,2.09.48,2.99,1.04.55.34,3.35,3.88,4.03,1.96.34-.95-.99-.66-1.03-1.04-.13-1.16,1.14-3.41-.03-5.13l-4.17-1.09-1.26,1.02.5-1.49-3.27.02c-.2-.34-.86-7.04-.77-7.8.15-1.16.89-1.78,1.06-2.95.37-2.66-1.13-7.75.98-9.03v-1.25s-1.01.51-1.01.51c-.71-2,.99-2.75,1.38-3.87.65-1.88,2.15-6.6,3.76-8,.38-.33,1.33-.26,1.89-.85,2.02-2.11,2.93-4.28,3.89-6.97l-1.67-1.68c-1.24.02-2.86,2.09-3.57,2.23-.82.15-1.97-.86-3.04.55l-.65-.13c-1.24-1.21-1.05-2.96-1.86-4.66-2.7-5.68-7.33-11.82-12.87-15.17-.57-.34-1.26.06-2.02-.41s-1.46-1.74-2.25-2.3l1.28-1.78c2.09-.64,2.37,1.01,2.52,1.02,3.14.15,1.28.3,3.23,1.23,2.25,1.07,4.88,1.35,7.27,2.99,1.02.7,6.02,7.01,7.19,5.79.88-3.37-1.69-4.42-2.98-6.38-1.32-2.02-1.4-3.9-2.5-5.88-3.42-2.5-7.08-4.64-11.04-6.51-.56-3.26,9.45-3.47,9.55-4.01.71-2.97-1.91-3.45-3.17-5.59l-6.86.87c-.21-.83.84-.2.99-.84s-.16-1.42.25-2.15c1.24-2.21,5.42-2.55,7.48-3.03,3.37-.78-.28-2.45-.91-3.03-1.88-1.73-2.74-4.73-3.54-5.47-.47-.44-3.15-1.55-3.87-1.67-1.34-.21-1.82.7-2.65.67-2.62-.09-6.01-3.83-8.5-4.99-1.41-.66-3.19-.43-3.91-.68-4.43-1.54-7.91-4.72-12.13-6.27-2.25-.82-13.7-2.94-15.36-2.43-.67.21-1.02,1.09-1.7,1.3-2.81.86-5.22.61-7.99,1.78-3.41,1.44-7.62,2.48-11.32,4.42-2.94,1.54-3.19,3.21-7.57,2.87-14.72-1.16-22.88-14.55-36.14-17.34-6.24-1.31-17.55-.24-22.59,4.15-1.02.88-1.25,4.36-2.34,4.68-2.42.49-3.64-1.75-5.07-2.43-.4-.19-1.22.1-1.75-.04-.47-.12-.18-.94-1.09-1.03-2.06-.21-6.87.95-8.78,1.89-.59.29-.41,1.86-3.16,1.18-.22-.06-1.78-3.13-2.51-3.84ZM214.79,71.06c-.77-.68-7.44-3.45-8.63-3.59-7.18-.84-16.26-.57-22.67,2.77-1.28.67-3.86,2.3-4.56,3.41-1.24,1.97-.85,5.08-2.01,7.27.65.64,12.38-4.85,14.67-3.49,1.59,4.06-5.67,2.8-8.13,3.77-.37.14-4.15,2.54-4.28,2.75-.29.49-.14,1.2-.32,1.56-.25.48-.87.45-.94.76-.23,1.08.36,2.13.26,2.92s-1.44,4.42-1.78,5.36c-.16.43-.79.32-.94.74-.6,1.68-.11,2.63.46,4.13l-1-.25c.53,7.19,4.63,2.31,7.26-.76l.5,1c1.74-1.18,4.12-2.76,6.11-3.3,1.25-.34,6.1-.8,7.39-.74,1.73.08,2.19,1.11.89,2.08-.66.49-1.94.66-2.75,1.01-3.81,1.64-6.61,2.28-10.79,4.41-3.35,1.71-2.7.51-4.92,4-.25.4-1.16.46-1.22.87-.04.23.49,2.53.59,2.61.62.52,8.77-1.85,10.43-2.19,1.06-.21,2.86.2,3.75-.02,1.79-.44,4.16-2.95,5.77.51-1.58,1.81-2.18,2.49-4.85,3.06-6.49,1.38-8.71,1.06-13.93,5.7-.49.43-1.28.31-1.76.84-1.91,2.1-1.47,4.68-1.98,6.81-.11.44-1.54.12-.9,1.98.14.4.83,1.24,1.16,1.35,1.18.4.48-.96.84-1.36.12-.13,2.63-1.54,3.04-1.74,1.85-.93,6.72-2.67,8.76-3.24,1.45-.4,3.74.18,4.96-1.07,1.03-.19,3.03,2.85,2.64,3.41-1.43.48-2.97.44-4.42.84-3.7,1.02-7.2,2.39-11.43,3.46-.44.11-1.11-.34-1.14-.29-.1.13.15.96-.11,1.36-.3.45-2.78,1.03-3.65,1.64-.4.28-3.05,3.53-3.21,3.89-.4.86-1.42,8.21-1.03,8.62,1.83-.47,4.17-1.48,5.3-2.85,5.35-1.42,10.92-2.19,16.05-3.55,2.86-.76,3.66.52,1.92,2.77-5.47-1.04-12.09,2.27-16.82,4.84-.48.26-1.11-.13-1.72.25-1.1.67-5.05,4.88-5.46,6.06-.78,2.24-.47,6.33,2.52,5.83.48-.08.45-1.05,1.1-1.34,3.48-1.55,11.27-3.31,14.79-3.67,1.5-.15,6.77-3.22,6.87.92.06,2.37-5.32,1.46-6.7,1.75-.34.07-.33.8-1.03,1.07-1.72.65-2.85,0-4.22.26-1.64.3-2.95,1.71-4.35,2.2-2.2.77-5.39,1-7.68,2.02l-.56,8.94c1.23-.67,3.08-.67,4.12-1.03,3.13-1.09,6.22-2.07,9.71-2.78,1.66-.33,3.49.76,4.43-1.69l1.99,1.03.52-1.05,2.64,1.11c.76,1.32-.68,1.44-.71,1.54-.38,1,.28,2.01-1.57,2.76-1.26.51-2.59.08-3.38.24-.93.18-2.27.41-3.5.64-3.72.68-11.93,3.54-14.17,6.57-1.71,2.31-3,5.1-.59,7.45,1.87,1.83,1.81.06,2.42-.21,2.85-1.27,8.66-3.44,10.97-4.03,1.61-.41,9.12-1.77,9.65.3,1.06,4.14-4.69,3.01-6.77,3.44-1.55.32-3.76,1.86-4.4,2.09-1.83.64-4.13.48-6.31,1.93-.73.85-5.51,5.52-5.53,5.93-.09,2.17,1.48,1.53,1.93,1.82.09.06-.44.85.02,1.19.22.16,2.56,1.07,2.79,1.07,1.48,0,7.14-2.67,9.12-3.16.85-.21,3.8-.03,4.89-.26.31-.07.21-.83.56-.91,1.82-.39,4.85,2.03,3.33,3.01-2.09,1.37-5.14,1.01-7.36,1.55-3.48.83-8.22,2.32-11.17,4.3-.79.53-2.17,1.97-2.18,2.91,0,.37,2.94,5.38,3.18,5.62.34.33,1.2.62,1.67.63.88.01,5.89-2.92,7.58-3.36,1.93-.51,4.6-.98,6.12.63l-1.12,1.37c-2.28.6-5.52,1.26-7.64,2.11-.7.28-1.14,1-1.89,1.36-2.57,1.22-5.62,1.77-6.85,4.65,1.2,2,1.78,5.06,4.46,5.5.97.16,7.31-2.45,9.34-2.7,1.77-.22,3.51-.1,5.2.48l-.02,1.43c-3.69,1.23-15.5,3.03-15.96,7.84-.12,1.18,2.11,5.83,2.88,6.19,3.32,1.55,9.82-4.45,13.62-1.23.18.86-1.79,1.82-2.4,2.14-1.65.85-4.96,1.29-6.54,1.91s-6.33,2.52-6.47,4.05l3.15,6.13c2.43-1.12,7.85-3.5,9.74-.74-1.08,1.81-2.93.96-4.53,1.46-3.43,1.07-10.02,5.32-6.49,9.46.31.36.87.29,1.31.53.21.12.25.76.55.8,1.39.2,2.93-1.07,4.05-1.4.58-.17,1.24.4,1.52.26.09-.04.07-.86.38-.91,1.1-.17,2.48,1.27,3.7.53.16.28-.94,2.81-1.05,2.92-.31.29-1.81-.04-2.58.19-.72.22-3.7,1.3-4.2,1.56-.36.19-3.79,4.52-3.85,4.93-.32,1.98,1.13,3.8,3,4.34,3.85,1.1,3.3-1.17,5.48-1.44,1.22-.15,2.46.67,3.71.51,1.48,1.39-5.4,2.79-5.79,2.97-.18.08-3.18,1.89-3.35,2.01-3.27,2.37-1.92,4.16.27,6.69,1.67,1.23,1.9.1,2.7,0,2.02-.24,1.64-.5,1.91-.55,2.05-.44,6.66.38,3.6,2.48-1.84,1.26-3.11,1.17-4.34,1.75-2.9,1.36-5.06,2.21-5.05,5.91l.15.65c1.15.61,4.19,2.61,5.42,2.36,1.44-.3,2.43-1.84,4.66-.75,1.72.81-1.7,2.7-2.35,3.06-2.66,1.5-6.43,1.23-7.62,4.66l1.3,4.27c.37.36,8.95-2.58,9.99-.25.76,1.7-2.19,1.62-3.35,2.15-.61.28-5.54,3.08-5.64,3.39l1.99,5.49c.68.43,5.13-2.22,6.49-.03l-3.07,1.45c-1.61-.46-3.74,2.26-3.68,3.84.04,1.14,1.01,2.61.76,3.95,1.16-.69,7.24-.97,7.49.26-1.68,3.28-6.62,2.47-5.86,7.35.79,5.06,2.07,2.11,4.13,1.89.96-.1,2.16.69,3.24.5,1.42,1.49-4.33,2.98-5.03,3.78l.55,5.7c.52.5,8.38-2.12,8.47-.24.08,1.7-3.74,2.28-4.33,2.91-.25.26-.2.92-.47,1.28-.7.93-1.71.41-1.17,2.79,1.16,5.11,6.14-2.99,7.98.53-1.13.46-1.22,2.18-1.65,2.62-.21.22-.91.08-1.15.3-.76.7-3.23,2.69-3.23,3.06,0,.45.46,2.7.84,2.8,3.18.7,3.96-3.03,7.14-1.48,1,2.34-2.1,2.52-3.25,3.6-.4.38-2.2,2.69-2.2,3.08,0,.26,1.65,3.23,1.83,3.28,1.84.52,1.64-.85,2.21-1.22,1.48-.95,2.87-.49,4.47-.8.06,1.96-1.88,2.56-2.99,3.75l.99.25c.56,1.29-.93.83-.99,1.3-.11.87.97,4.2,1.8,4.23.93.03,4.93-3.88,6.35-4.63,1.73-.91,3.8-.16,3.81-2.65,0-2.98-2.51-1.03-3.23-3.2l-1.72.45c-.12-1.8,2.69-1.06,2.89-3.33l-1.97-3.58c-.97.42-4.05.23-4.41-.86.21-3.4,2.56.45,3.15-3.31.42-2.67-.55-2.05-1.81-2.91-.35-.24-.35-.89-.45-.94-.52-.25-1.7,1-2.4-.33l3.05-1.03c.39-1.23.65-2.71.49-3.99-.11-.82-1.72-.81-1.05-3.37.17-.63,1.51-.22,1.54-2.07.04-2.4-.93-2.35-1.97-3.59-.34-.4-.3-1.21-.7-1.56s-2.11-.2-1.86-1.37c.3-1.4,2.32.02,2.92-.32.14-.08,1.35-2.23,1.59-2.68l-1.25-3.77c-.51-.77-4-1.12-3.75-2.99,2.69,1.11,5.02-1.03,4.98-3.72-.01-.81-1.93-3.2-2.5-3.52-1.27-.72-4.95.25-4.49-2.01,3.58-2.23,7.35.75,8.44-4.6l-.16-.65c-1.28-.42-1.74-1.86-2.61-2.47-.5-.35-1.2-.15-1.67-.38-1.79-.88-4.22-1.1-2.16-3.17,2.98.24,6.6.22,7.89-3,2.24-5.57-8.3-3.78-9.72-7.23l2.22-1.67c1.67,1.03,3.9-.52,4.59,1.44,1.66.85,4.3-3.89,4.07-4.86-1.03-4.3-7.48-3.65-7.9-6.4-.37-2.43,5.12-.21,5.42-.34.22-.1,2.25-2.87,2.39-3.42.89-3.64-6.53-4.83-8.29-7.24,2.37-3.99,7.86-.19,10.44-3.6-.15-.66.05-1.51-.22-2.11-1.16-2.53-6.7-5.85-9.38-6.56-1.1-.5.08-2.04,1.14-2.26.53-.11.9.5,1.24.5,6.96-.01,9.59.27,5.14-7.09l-7.85-3.38c.74-2.94,1.64-1.67,3.59-2.29.44-.14.26-.99,1.12-1.02,1.41-.06,2.5.79,3.84.82l2.43-2.01c-1.5-.69-2.61-5.89-4.16-6.56-1.04-.45-3.05-.94-4.35-1.36-.73-.23-2.08.77-1.95-1.6.29-5.27,12.1,4.79,12.4-2.45.12-2.95-1.97-3.63-2.55-6.16-1.74-1.57-8.31-3.65-9.37-4.88-.54-.62-.64-.87-.52-1.73,3.12-.56,6.58.31,9.65,1.34,3.52-.34,4.16-2.89,2.54-5.79-2.8-5.02-6.97-4.96-11.89-6.52-1.4-2.39,3.32-2.79,4.98-2.58.87.11.7.88,1.11,1,2.68.73,5.89.78,8.61.29,1.43-.56.6-3.9.03-4.9-.13-.23-3.46-3.54-3.68-3.68-1.12-.72-4.37-1.11-5.61-1.62-1.09-.45-1.89-1.31-2.73-1.72-.38-.19-2.33.35-2-1.07.26-1.13,3.8-1.16,4.75-1.01s2.12,1.02,3.58,1.2c.71.09,4.84.08,5.31-.05,2.91-.84.83-3.6,1.86-5.4-2.8.46-3.51-2.27-4.72-3.04-.58-.38-6.28-3.29-6.65-3.4-1.01-.29-1.73.46-2.35.44-.18,0-2.42-1.98-2.6-1.99-.32-.02-.81.5-1.11.4-.11-.03-1.55-1.54-1.56-1.65-.08-.94,3.02-2.1,3.82-2.16.92-.07,6.79,1.77,8.12,2.1,1.72.43,2.25.6,3.94,1.15,4.33,1.41,4.53.01,5.08-4.02-1.41-.63-.86-1.82-1.54-3.04-1.55-2.8-12.47-6.03-15.97-6.06-.36-1.34-3.68-2.59-1.78-3.29,1.05-.39,4.84-.95,5.99-.91.62.02,5.44,1.09,6.16,1.34,2.37.82,4.38,3.2,6.67,2.88-2.17-1.75.28-.72.36-2.57.03-.71-1.61-5.27-2.09-5.74-.29-.29-.9,0-1.13-.16-1.92-1.27-2.06-.96-3.64-1.64-2.24-.96-5.42-2.89-7.39-3.62-1.38-.51-3.15-.79-4.62-1.04v-1.49c3.85-1.2,6.86.55,10.31,1.44,1.42.37,3.58.24,4.84.66,1.17.4,1.57,3.26,3.89,1.67.66-.45.61-3.63.5-4.56s-3.09-4.74-4.09-5.41c-3.69-2.5-9.56-5-13.7-6.35-.8-.26-5.14-.38-4.74-2.2.28-1.28,4.2-.6,5.24-.44,5.48.87,10.36,3.86,15.53,5.69l1.73-1.77-1.03-.52c2.31-7.91-5.47-11.3-11.48-13.51-.63-.23-1.42.15-1.99-.05-.85-.29-5.26-2.48-5.43-3-1.42-4.33,4.46-1.9,6.53-1.12.35.13,2.06,1.05,2.28,1.41l7.62,3.03c-.23-2.65-.94-6.01-2.34-8.37-.76-1.28-6.66-5.64-8.2-6.33-1.9-.85-10.11-2.22-10.33-4.03l.44-1.21c.43-.27,9.09.31,10.16.47,2.18.33,8.24,3.77,5.9-1.9-1.01-2.45-2.94-2.05-3.96-2.79-.61-.44-1.3-1.8-2.06-2.29-2.75-1.76-8.27-3.27-11.59-3.55v-1.75c.02-.17,2.88-.7,3.31-.7,2.13.02,4.76.84,6.39.96.39.03.25.86.63.96,1.4.37,3.3.38,4.89,1.48.45.31.13,1.17.42,1.43.25.23.99,0,1.25.25.36.33-.21,1.66,2.13,2.17,3.59.78,1.55-4.11,1.59-4.46.23-2.23,1.1-1.09-.26-4.17-.4-.91-.95-2.39-1.79-2.99-.16-3.87-.18-7.97-4.55-9.33-2-.62-4.78-.67-6.67-.83-.34-.03-.33-.83-.7-.98-1.68-.7-3.95-.23-2.91-3.07,1.25-1.74,6.2,1.42,8.08,1.96,1,.29,5.71,1.53,6.21,1.07-.26-1.94-.05-4.17-.73-6.04-.37-1.02-1.72-1.39-1.9-2.83ZM151.6,96.28c-1.33-1.22-1.34-2.65-4.18-2.16-1.61.28-6.11,2.18-4.94,4.49,1.56,2.23,4.86.27,6.17.29.29,0,.22.74.54.88.75.33,4.98,2.06,4.74-.07-.05-.48-.74-2.7-.96-2.98-.35-.46-1.09-.2-1.36-.45ZM250.67,96.21c-1.43-1.53-5.2-2.48-7.25-1.54-2.16.99-4.79,5.94-1.24,5.81,1.01-.04,1.49-.78,2.08-.89,1.02-.18,2.05-.4,3.01-.57.69-.13,1.34,1.27,2.79.85,1.61-.76,1.56-2.63.61-3.65ZM250.3,104.53c-.81-.87-9.26.4-10.15,1.9-.74,1.25,1.41,3.68,2.62,3.89.65.11,5.66.07,6.18-.09,2.25-.7,2.48-3.94,1.36-5.7ZM151.25,105.61c-2.18-.92-7.14-2.28-7.75,1.19-.4,2.3.63,3.34,2.67,3.85,3.77.95,4.76-1.28,8.27-1.45,1.48-1.83-1.61-2.19-2.66-2.78-.29-.16-.37-.74-.53-.81ZM35.55,135.58c.69-.71,2.22-.35,3.13-1.16s.83-1.77-.51-2.02c-1.54-.29-1.45,1.69-3.1,1.65-.15,2.62-2.83,2.54-2.13,5.37,3.12-.39,1.32-.88,1.47-2.17.03-.29.7-.32.83-.54.22-.39.2-1,.32-1.13ZM314.82,177.04c-.56-.83-2.59-.77-3.14.39-.19.39-.65,4.5-.69,5.28,0,.14.62.79,1.09,2.3.73,2.36,3.27,7.38,2.63,9.44-1.72,5.55-4.73-2.44-5.4-2.91-.43-.3-4.59-1.43-4.88-1.12.48,2.67-.67,1.65-1.3,2.17-1.48,1.23-4.1,4.18-3.95,5.79-2.91,3.08-2.07,7.55-3.21,11.32l-2.53.22c.76-7.3-7.02-13.77-7.04-2.25,0,3.19,1.36,5.82-.52,9.18h-1.89c.21-2.69-2.75-4.6-1.55-6.93l-2.69-.04c-.38.1-1.53,4.32-1.85,5.14-.13.34-.78.4-1.04,1.08-1.18,3.16.42,3.44.57,5.08.24,2.58-.29,4.49,1.47,7.39,1.1,1.8,1.62,3.41,2.57,5,1.2,2,4.08,3.99,4.04,6.78l1.42.06-.51,1.49c2.82.25,3.54,4.44,5.48,6.28.88.84,3.24,1.58,3.42,1.84.29.42.13,1.55.47,2.28.56,1.19,3.56,3.49,4.43,4.31,2.44,2.29,4.9,4.28,7.55,6.3,1.14.96,4.33.21,4.91-.99.16-.33,1.07-5.41,1.19-6.31.63-4.58.53-8.25,1.54-12.54,1.68-7.1,1.06-18.9,1.49-26.43.27-4.8,1.1-9.96,1.53-14.97.16-1.88,1.39-4.78,1.43-5.98.14-3.9-2.89-13.34-4.66-16.83-.31-.61-.15-1.49-.38-1.84ZM81.93,194.92c-.52-.61,2.26-8.25-2.73-7.52-2.08.3-1.81,2.33-2.32,3.63-.17.43-.86.4-.94.74-.31,1.32-.11,5.68.31,7.07.55,1.81,2.54,3.07,3.17,4.34.56,1.12-1.23.56-1.43.78.11,1.09-.52,2.37-.53,3.29-.03,2.43,1.05,6.57.82,8.86-.63,6.25-1.35,6.32-.38,13.09,1.49,10.45,2.21,23.11,5.76,32.74,1.54,4.17,2.86,3.97,6.43,1.86,6.88-4.08,12.33-11.37,16.13-17.86,3.5-5.99,7.43-12.43,9.57-19.42,1.25-4.08,1.42-8.33,1.65-12.6-3.9-.61-7.09,2.34-10.95,1.97l-.54-2.45c1.91.07,2.95-1.88,4.01-3.24-.07-3.86-.44-6.86-3.28-9.77-1.09-.23-.62.47-.88,1.09-.97,2.3-1.73,5.72-2.86,7.66-.75,1.27-1.78,2.95-3,1.51-.7-.82-.42-8.17-1.54-9.86-.63-1.82-6-8.83-7.82-9.89-.47-.27-2.93-1.16-3.13-1.01-.3,2.76-2.76,4.86-5.5,5ZM132.35,198.01l-1.93-.08c.03,2.51,1.68,3.19,3.74,4l.77-2c-1.75.17-2.47-.1-2.57-1.92ZM143.64,204.22c-2.49-3.51-6.19-6.67-8.45-1.28-2.24,5.34-3.84,12.06-7.71,16.06,1,2.31-.26,1.75-.43,2.17-4.52,11.35-14.04,24.77-22.1,33.87-10.32,11.67-19.59,16.34-33.63,21.02-.82.27-3.52,1.54-3.34,2.55.39,2.21,4.53,1.89,6.21,1.81,3.94-.18,10.09-1.91,13.69-3.31,2.68-1.04,5.06-2.77,7.2-3.84.58-.29,3.01-.43,3.86-.85.49,2.95-1.59,2.58-3.16,3.59-1.4.9-2.43,2.02-3.66,2.85-.43.29-3.98,1.93-4.11,2.13-.31.5-.44,4.07-.06,4.93.8.57,8.53-3.62,9.85-4.36,19.38-10.75,27.41-21.32,38.07-40.06,2.75-4.83,10.75-17.29,11.08-21.81.12-1.61.3-7.75,0-8.92-.13-.49-1.1-.44-1.41-1.18-.9-2.14-.04-2.77-1.89-5.37ZM260.63,204.73c-.66-1.03-1.31-2.82-2.56-3.2-4.24-1.26-7.42,2.09-10.07,4.73-.61,1.76.53,2.7.77,3.99,1.14,6.27,4.44,12.99,6.1,18.58,2.17,7.29,3.88,11.27,7.86,17.54,6.27,9.88,15.24,22.03,25.12,28.49,2.47,1.61,4.35,2.94,6.76,4.63.77.54.98,1.57,1.55,1.95,1.14.77,5.93,3.58,7.02,3.98,1.91.7,4.3.79,6.17-.06.75-4.14.72-4.26-2.19-6.94-4.53-4.18-10.94-7.31-15.37-11.86-.23-.23-2.53-.84-3.49-1.62-.32-.26-2.13-2.38-2.39-2.76-.48-.71-.3-1.24.25-1.24,5.42,1.34,8.2,6.3,12.58,8.91,3.4,2.03,15.78,9.36,19.03,9.97,1.4.26,7.05.82,7.95.15s.21-1.66.48-2.05c.45-.66,2.04-.53,1.13-2.91-2.3-.49-4.59-3.24-6.91-2.07v-1.5c-1.64.05-4.11-.07-5.61-.55-1.71-.56-2.35-2.1-3.02-2.82-.2-.21-4.28-1.82-5.26-2.47-3.65-2.43-18.27-16.27-20.27-19.68-.97-1.65-2.73-3.07-4.52-5.05-.5-.55-1.75-2.93-2.47-3.31-.57-.3-1.42.03-1.78-.19-1.55-.98-8.08-16.9-9.56-19.71-1.03-1.94-3.5-4.12-4.54-5.93-1.36-2.38-1.13-4.42-2.77-6.99ZM260.42,257.43c-3.73-.5-2.42.29-3.45,1.69-.34.47-1.09.06-1.55.66-.32.42-1.33,3.28-1,3.64,2.65-1.21,6.22-2.48,6-5.99ZM135.43,262.43c1.31-.1,2.53,1.2,3.5-.26.42-1.98-5.89-3.31-7.18-3.1-.75.13-5.57,4.01-6.47,4.84-3.14,2.9-6.53,7.1-9.5,9.89-.8.76-4.08,2.04-4.28,2.21-.18.15.08.96-.39,1.45s-9.68,6.66-10.84,7.29c-2.72,1.48-6.18,2.68-9,4.27-.95.53-1.35,2.07-3.36,2.21-1.06,7.05,1.88,12.4,3.76,18.71,2.1,7.05,6.44,18.37,6.81,25.22.18,3.43-.72,1.89.7,5.27,1.05,2.5-.44,6.69-.1,8.66.1.58.94,1.14,1.14,1.79.39,1.27.06,6.81-.26,8.18-.13.54-1.29.33-1.53,1.58-1.25,6.56.63,16.64,4.16,22.37,1.79,2.91,6.62,7.17,10.13,7.38,2.12.12,7.7-.18,9.86-.6,1.74-.34,3.37-.66,5-.99,1.25-.25,3.25-1.59,4.27-1.79,1.14-.23,2.75.49,4.1-.1-.27,3.69-4.13,7.07-7.17,8.81-.52.3-1.22.14-1.8.47-.4.23-.38,1.1-.87,1.23-1,.27-9.03.59-10.39.48-1.15-.1-5.9-.84-6.87-1.08s-1.19-1.57-2.67-.45c-1.8,1.37-.82,3.27-.15,4.97,2,.15,4.07.62,6.05.03.42-.13.34-.81.72-.93,1.27-.38,3.71,2.12,4.18,3.21,0,1.59-5.43,4.64-5.52,5.01-.29,1.24,2.63,1.41,3.51,2.48,4.14,5.01-5.15,4.29-7.63,5.31-.41.17-3.99,2.56-4.5,2.96-3.66,2.94-5.39,8.22-6.17,12.5l1.03.99c2.18-2.88,5.87-3.35,9.28-3.73,1.5.1,6.29,3.03,7.15,4.28.7,1.03,1.56,4.49,3.07,4.49,1.36-.81,2.1-2.15,3.62-2.91,2.39-1.2,4.05-1.08,6.31-1.27.38-.03.8-.69,1.17-.76.22-.04,3.79.86,4.3,1.01,1.62.47,3.78,4.08,6.02,3.34.8-.27,3.84-5.76,4.87-7.05.62-.77,3.89-3.5,3.96-3.76,1.02-3.86-1.39-4.16-3.76-6.15-1.07-.9-1.99-2.42-3.77-2.77-.73-2.67,6.44-7.86-.6-7.1-1.8.2-3.85,1.37-5.24,1.76-2.46.69-3.57-.56-5.63-1.39,2.22-2.87,3.88-3.48,7.09-4.55.43-.15.42-.85.76-.92,3.12-.7,8.78,1.53,8.94-3.77.02-.67-2.02-5.71-2.44-6.11-.55-.53-2.22-.16-2.31-1.85-.02-.29.38-2.62.49-2.91.19-.5.88-.43,1.11-1,2.9-7.28,3.74-11.47,4.88-19.11.12-.83.95-1.4,1.02-2.51.07-1.05-.76-4.14-1.09-5.37-.89-3.38-2.14-5.72-3.98-9.01-1.07-1.91-6.06-10.17-6.26-12.1-.08-.81.43-2.23.35-3.21,3.14-1.59,4.37,1.96,6.86,3l-.43.92c1.32.18,2.22-.17,3-1.25-1.48-.94-1.3-2.46-2.21-3.78-2.41-3.49-9.37-4.26-9.28-8.97,1.35-.25,2.61,1.13,3.5-.27l-4.01-10c-.04-1.67,2.23-1.31,3.21-.79,1.29,3.24,4.15,12.57,8.54,9.04-.04-2.39,1.99-4.18,2.13-6.36.11-1.65-1.54-7.26-2.4-8.74-1.05-1.8-3.98-4.25-5.84-4.81-1.5-.45-2.28.94-3.84-.61-.77-.77-3.32-8.1-3.32-9.23,0-.83.06-1.22.77-1.72,1.34,1.89,8.98,8.2,10.52,4.98.19-.89-.13-2.21-.57-2.96-.51-.87-4.6-4.21-5.75-5.22-.79-.7-3.02-.9-2.78-3.07.44-3.95,9.1,3.54,9.77-.06.13-.69-1.96-5.77-2.59-6.52-.68-.82-12.54-8.71-6.07-9.68,2.41,1.88,5.24,2.68,7.99,3.53,2.98-1.15.37-2.05.23-2.34-1.57-3.43-1.98-4.8-5.04-7.35-1.08-.9-3.8-1.14-3.96-3.81ZM275.22,269.64c-2.61-2.26-6.59-6.42-9.59-7.67-.64-.26-1.24-.61-1.96-.6l-11.16,8.87c-.21,1.2-2.1,4.58-.26,5.14,1.1.33,2.71-1.03,3.96-.02.2-.29,1.94-1.41,2.34-1.59.99-.45,3.6-1.73,4.4-1.13,2.44,1.8-1.55,3.01-2.48,3.61-1.19.77-4.92,3.93-5.71,4.98-2.19,2.95-4.94,3.67-3.33,8.19.79.77,6.73-2.57,8.26-2.55,2.01.03,1.75,3.66.48,5.04-.63.68-1.56.33-2.08.68-2.18,1.49-6.23,7-5.15,9.82,1.91,0,3-2.26,4.88-1.67l5.46-3.75c3.32,1.03.48,3.01.29,3.57-.29.85-.13,2.52-.82,3.68-1.87,3.13-5.4,1.79-8.37,2.4-1.38.28-1.81,1.52-3.5,1.59-1.81,1.83-1.96,4.38-2.95,6.3-.3.58-1.25.59-1.44,1.2-.49,1.62.57,7.39,1.18,9.19,1.02,3.02,4.68,4.21,6.97,1.95l4.82-9.94,1.5.2c1.68,2.03-.36,4.2-.53,5.57-.21,1.62,1.01,4.33-1.49,5.46.13.31,3.19,2.87,3.48,2.97.68.23,1.46-.46,2.51.01,2.33,1.04,8.63,9.64,9.67,11.88l4.97,14.3,1.39.09-.51.99c1.99.36,6.35,3.11,7.39,4.84,1.72,2.86,3.32,9.59,2.59,12.81-.08.37-.81.38-.95.73-.81,1.97-1.89,4.45-3.41,6.13-.46.51-4.25,3.84-4.52,3.97-2.75,1.27-6.66-.17-9.59.53-.51,2.29,1.15,1.24,3.03,1.72,1.22.31,2.96,1.66,3.31,1.7.57.07,1.05-.69,1.51-.73,6.57-.62,7.6-1.99,11.86-6.51.21-.22.92-.1,1.14-.31,4.35-4.39,4.72-20.23,4.68-26.14-.07-11.38-.76-22.48,2.63-33.41,1.69-5.46,3.06-11.31,4.37-16.55,1.02-4.07,2.77-9.71,2.51-14.04-.2-3.23-1.86-3.2-4.15-4.74-.74-.5-2.29-1.81-2.91-2.19-2.43-1.47-7.47-2.39-7.98-5.8-1.74.09-.52,1.89-3.17.42-4.69-2.6-9.44-7.66-13.53-11.21ZM236.81,329.03c-.26-.45-3.58-2.27-4.36-2.36-.15-.02-2.68.56-2.86.64-2.62,1.17-2.09,2.09-3.23,4.2-2.79,5.16-4.54,11.66-5.42,18.19-.15,1.15-.19,3.37-.06,4.51.13,1.21,2.2,6.51,2.84,7.67,1.51,2.76,4.24,4.62,5.33,7.41,3.79,1.4,7.9,2.21,11.87,1.13v-1.48c-2.46-.15-9.47-4.25-10.34-6.15-1.9-4.17,3.81-14.17,5.31-18.64.72-2.15,2.36-7,2-8.94-.14-.76-.82-1.29-.95-2.05-.21-1.18.3-3.37-.14-4.12ZM266.42,339.92c-1.25-3.46-3.42-5.26-6.77-6.52-5.01-1.89-12.28-.28-16.06,3.2-2.63,2.42-2.95,4.48-2.71,8.04,2.66,1.58,2.49-.25,3.42-.71,1.15-.57,3.08-.62,4.22-1.05.5-.19.41-.95,1.34-1.24,1.96-.62,5.27-.34,6.94-1.05.76-.32.81-1.46,1.42-1.63.24-.07,4.6-.07,4.92-.04.89.08,1.94,1.46,3.27.99ZM268.78,347.57c-3.29-2.69-8.62,2.41-6.63,5.37.82,1.22,6.29.59,7.77.98.25-2.16.83-4.74-1.14-6.35ZM269.87,359.47c-.12-.15-3.09-1.82-3.33-1.92-3.93-1.58-7.9,1.52-5.36,5.37l.46-.98c1.72.49,4.72,1.94,6.42,1.49.12-.03,1.71-1.52,1.77-1.62s.11-2.25.04-2.34ZM284.77,374.78c1.58-4.34.12-11.51-4.55-13.4-1.9,1.53-2.3,4.33-2.33,6.78-.04,2.59.49,2.67.14,5.6-.14,1.2,1.6,4.34,2.36,5.34,1.25,1.63,3.02-2.7,3.6-3.77.2-.37.74-.46.78-.56ZM264.76,366.58c-2.98-3.25-8.76,1.38-7.05,4.83,1.54,3.1,9.22,2.77,8.09-2.62-.12-.57-.65-1.79-1.04-2.21ZM222.81,382.03c-.61-.41-2.06.1-2.94-1.34-.6-.98.84-2.6-1.17-3.8-2.26-1.35-4.05-.9-5.88.57-2.3,1.85-2.46,2.59-3.44,5.09-.29.75-1.75.85-.89,3.56.8,2.52,3.06-.71,4.24-.83,1.27-3.41,4.02-3.29,7.18-3.85.35,2.15-2.75,2-2.9,2.13-.47.37-2.04,3.61-2.21,3.76-.38.32-1.21,0-1.37.13s.35,1.06.23,1.54c-.35,1.39-3.07,2.42-.97,4.44.58.56,1.82.28,1.78,1.44l.94.06c.35-1.94,2.49-1.78,2.48-4.15l5.29-5.36c.49-.69.19-3.02-.36-3.39ZM262.77,378.57c-.14-.13-2.95-1.91-3.21-2.04-3.59-1.73-5.12.62-7.64,2.63.57,1.3,1.8,1.71,2.52,2.48.46.5.26,1.38.81,1.83.2.16,4.65,1.47,4.9,1.44,1.07-.11,3.14-3.09,3.53-4.01.08-.2-.76-2.19-.92-2.35ZM254.62,385.74c-.6-.65-.86-1.59-1.72-2.05-1.45-.77-8.5,1.49-7.71,4.19,1.6,5.48,6.14,8.53,10.46,3.51,2.35-2.73.83-3.65-1.03-5.65ZM228.93,388.42c-1.41.24-3.36-.67-4.64.08-1.21.71-1.67,3.37-4.32,3.49l.46,2.93-1.49-.5c-.16,2.25,1.77,3.75,3.67,4.45,2.78-1.78,4.26-3.1,5.08-6.45,1.14-.35.73,1.1.75,1.75.06,1.79.03,3.46-.98,5.02,2.29,2.59,5.76,2.91,6.71-1.03.1-.42-.29-1.19-.14-1.85.29-1.28,1.12-2.44.9-3.89,2.3.16,1.53,3.37,2.24,4.99,1.47,3.35,3.35,1.37,6.15.89,1.18-3,.71-6.21-1.39-8.67-1.72-.84-5.11,1.11-6.26,1.11-1.37,0-4.12-3.34-6.74.17v-2.5ZM286.8,395.05c-1.46-.48-5.07,2.04-6.73,2.68-.6.23-2.8,1.13-2.97,1.17-1.09.2-7.45-.68-8.18.03-.82,2.82.81,2.74,1.39,3.84.71,1.36,2.01,5.48,1.08,6.84-.47.68-1.2.85-1.73,1.33-2.27,2.06-5.32,3.43-7.86,5.48-1.15.93-2.48,3.69-3.91,4.72-2.56,1.86-2.02.5-4.73,3.79-1.14,1.39-2.91,1.55-2.03,4.51.07.25,2.13,4.41,2.28,4.62.11.15,2.38,2.07,2.53,2.14,1.69.79,3.3-1.72,4.52-2.49.46-.29,2.66-1.71,2.82-1.76,1.86-.56,4.46-.01,6.39-.53,3.54,3,5.2,6.78,10.71,6.5.6-1.56.55-3.41,1.74-4.51.84-.77,4.95-2.75,5.97-2.81.63-.04,5.48,1.26,5.7,1.45.29.25.24,1.72,1.33,2.42,3.44,2.22,4.34-3.23,3.77-5.68-.08-.36-.75-.37-.94-.75-1.64-3.42-2.38-6.8-5.65-8.74-2.91-1.73-4.45-1.32-7.67-1.39-1.28-.03-4.57,1.12-5.04-1.45-.17-.94,1.72-3.45,2.3-3.73.67-.32,1.76.7,2.1-1.24l4.92.44c.64-.92-1.62-4.18-2.13-4.34-3.11-1.03-9.86,1.62-7.88-5.28,2.7-1.81,5.5-1,8.32-.9,3.06.11.41-6.07-.44-6.35ZM90.3,423.05c-.53-.51-2.76-.91-3.31-.56-1.3.83.45,3.74.44,4.94l3.78-1.98c.17-.36-.63-2.13-.91-2.39ZM153.73,443.24c2.52-4.34,1.31-13.84-5.3-11.05-3.37,1.42-5.07,9.4-3.41,12.63l6.82,1.01c.04-1.22,1.59-2.08,1.89-2.59ZM249.64,438.22c-1.74-4.1-2.83-5.84-7.87-5.74-4.57,4.35-1.1,15.11,5.86,13.9,3.03-.53,3.64-5.15,2.75-7.58-.15-.42-.69-.46-.74-.59ZM110.81,437.53c-.97-.68-4.45-1.58-5.42-.27-2.5,3.41-1.44,8.61,3.18,8.67,1.49-1.14,3.85-7.29,2.23-8.41ZM271.25,452.28c.97-1.07,1.73-3.16,1.71-4.61-.02-1.74-1.25-8.06-2.28-9.26-1.36-1.59-6.02-.64-7.72.3-3.77,2.08-3.78,4.61-4.36,8.23-.05.34-.85.67-.67.97.03.05.67-.14,1.02.35,2.66,3.74,3.39,2.44,7.1,3.7.61.21,1.36,1.88,3.53,1.47.31-.06.36-.68.57-.8.37-.21.99-.2,1.11-.34ZM291.34,447.34c.12-2.02.71-9.74-2.13-9.88-.38-.02-3.53.55-3.79.7-1.32.77-2.28,7.05-1.77,8.23,1.41,3.29,5.36,2.67,7.69.94ZM132.3,439.58c-2.59-2.28-8.91-.02-9.37,3.64-.11.87.41,1.66.34,2.39-.12,1.33-1.57,3.07.17,4.55,1.04.88,9.4.98,9.99.55.2-.15,1.46-2.71,1.47-3.04.03-1.24-2.14-4.45-1.51-6.37-.87-.29-.93-1.58-1.09-1.72Z"/>
      <path d="M324.09,108.26c4.17,4.29,8.81,7.88,10.04,14.45.2,1.07-.23,3.51-.12,3.94.17.64,1.29.56,1.43,1.13.23.91-.2,2.28,0,3.38.2,1.03,1.1,1.55,1.04,3.04-.04.93-1.02.67-1.08,1.07-.1.69.39,1.42.32,1.94s-1.49,1.43-1.58,2.69c-.05.68.7,1.09.72,1.75.07,2.12-1.32,5.64-2.96,2.56-1.24-2.33-1.05-7.89-1.61-10.89-1.61-8.63-4.48-14.73-9.85-22.02-.94-1.27-3.43-2.97-3.06-4.83l-1.46-.04c.4-.88.94-3.13,2.16-2.93.27.04,4.16,2.56,4.61,2.92.7.57.89,1.32,1.4,1.84Z"/>
      <path d="M312.76,118.12c.2.19,1.34,2.53,1.67,2.92,5.43,6.49,7.55,9.34,10.62,17.01.56,1.4,1.94,1.59,1.36,4.02-.08.35-.83.35-.94.74-.34,1.18-.25,2.79-.58,3.73-.14.42-1.71,1.01-1.53,2.35l-2.44.26c-1.69-.41-3.2-4.51-3.48-6.01-.34-1.84.24-4.96-.03-6.42-.16-.82-.91-1.38-1.01-2.09-.12-.87.52-1.86.43-2.14-.07-.21-1.66-2.49-2.25-3.57-1.64-3.02-3.63-6.08-5.48-8.99l1.34-3c.39-.27,1.92.8,2.32,1.18Z"/>
      <path d="M333.59,97.25c1.21.96,3.92,2.94,4.8,3.96,1.55,1.82,1.54,4.5,4.33,5.21l-.25,1.93c2.8.76-.05,2.32,2,3.79-.65,1.58-.34,3.34-.66,4.95-.18.95-2.88,4.89-4.35,3.8-.33-.94-.4-2-.84-2.91-2.79-5.88-3.72-11.55-7.77-17.73-1.37-2.09-3.52-3.54-4.92-5.58,1.61-1.53,4.91-.05,6.48,1.03.68.47.79,1.23,1.19,1.55Z"/>
      <path d="M340.31,80.04c.38.37.42,1.38.87,1.9.4.47,1.27.13,1.9.52,1.18.73,5.89,6.65,6.54,8,.91,1.89-.55,4.67,1.33,5.22-1.53,2.75-.62,6.16-2.83,8.69h-1.65c-.24-1.85-1.61-3.33-2.21-4.95-1.7-4.61-2.19-8.09-4.99-13.02-.9-1.59-.41-.4-1.38-1.31s-1.23-4.22-2.96-3.17l.5-3.5c1.1.82,4.26,1.01,4.88,1.62Z"/>
      <path d="M294.24,136.13c.45.3,3.99,4.7,4.39,5.33,2.12,3.32,3.11,6.53,4.32,10.09.16.46.94.37.98.69.23,1.69-2.07,8.86-4.27,8.67-.53-1.08-1.68-2.39-2.11-3.37-2.5-5.7-1.83-12.83-4.92-18.58l-4.21-3.29c2.48-.56,3.65-.97,5.81.46Z"/>
      <path d="M305.41,128.93c-.04,1.61,1.75,1.92,2.35,2.66,2.68,3.35,5.86,11.19,5.05,15.47-.43,2.25-2.07,5.86-4.88,4.36-.06-.91.48-1.7.39-2.62-.16-1.78-1.69-5.83-2.21-7.74-.99-3.62-2.25-7.18-3.2-10.83l2.51-1.29Z"/>
      <path d="M179.12,55.62c-1.79,1.93-11.06,11.15-12.7,12.03-.61.33-3.78.98-3.99,0-.33-1.61,3.84-8.08,5.07-9.4,1.71-1.84,12.43-9.97,12.95-4.55.14,1.47-.74,1.29-1.33,1.92Z"/>
      <path d="M222.79,54.06c.22.12.32.8.7,1.04,5.22,3.23,8.63,7.35,8.92,13.82-.42.41-3.31-1.04-3.87-1.39-3.51-2.14-3.79-4.35-5.8-6.94-1.58-2.04-4.88-3.82-4.82-7.15.44-.6,4.28.31,4.86.63Z"/>
      <path d="M209.92,50.93c.75,1.07-1.43,2.63-2.24,3.02-1.43.7-2-.64-2.55.99l-1.21-.52.49,2c-4.43.6-8.85-.81-12.97-.5-.17-2.98-3.93-1.65-3.03-5.49,2.89-.33,5.37,1.39,8.24,1.52,2.06.1,12.22-2.5,13.26-1.01Z"/>
      <path d="M278.84,153.03c.24.38-.05,1.16.12,1.49.25.47.82.42.92.79.77,2.68-.11,5.19-1.66,7.42-3.05,4.38-4.14-1.99-6.55-3.82-.64-1.61.79-2.12,1.2-2.9.16-.3-.06-.98.2-1.42.45-.78,2.77-1.9,2.36-3.65l3.41,2.1Z"/>
      <path d="M287.92,149.92c.9-.31,3.53,2.11,3.77,2.75.28.75-.07,5.55-.29,6.4-.09.35-.74.32-.92.76-.37.93-.56,2.12-1.06,3.09l-3.48-3.36c.3-2.59-1.34-5.15-.74-7.7.23-.99,1.68-2.34,1.46-3.95.68-.87,1.18-.5,1.71.25l-.45,1.75Z"/>
      <path d="M206.42,38.43c.82,3.46-7.91,5.87-10.02,5.29-.83-.23-1.51-1.28-2.34-1.68-.7-.33-5.74-1.1-3.15-2.87,1.32-.9,6.63.41,8.78.28,2.28-.13,4.38-1.32,6.73-1.02Z"/>
      <path d="M224.28,41.59c.4.14,3.24,2.75,3.81,3.15.47.34,1.15.28,1.61.66-1.02,4.13-4.35.64-6.43-.58-.79-.46-1.87-.22-2.6-.9-.46-.43-1.7-2.84-.49-3,.21-.03,3.77.55,4.1.66Z"/>
      <path d="M175.42,40.93c.46,3.23-1.69,3.41-3.3,4.71-.53.43-1.09,1.55-1.59,1.74-1.82.68-3.49.72-3.11-1.68.23-1.49,7.04-5.74,8.01-4.77Z"/>
      <g>
        <path d="M75.8,105.55c2.03,2.06-1.49,4.32-2.34,5.8-4.77,8.24-6.49,20.42-9.29,29.58-.25.83-1.9,4.35-3.18,3.45-.06-.92-1.3-1.63-1.43-2.27-.46-2.32-.88-6.4-.61-8.91.08-.75.9-1.3.97-2.04.14-1.48-.8-5.42-.49-6.88.17-.82,2.71-5.07,3.32-6.03,2.09-3.26,5.87-8.23,8.15-10.58,1.1-1.14,3.44-3.61,4.9-2.12Z"/>
        <path d="M83.31,120.55l.38,1.44c-4.21,5.78-4.34,14.04-4.27,20.93h-1.5s.45,2.46.45,2.46c-2.35.51-4.4,3.85-5.51,6.01-1-.07-2.33-.4-2.85-1.29-.13-.22-1.51-4.65-1.53-4.9-.04-.68,1.63-7.95,2.08-8.91,1.9-4.01,5.38-8.29,7.81-12.17,1.14-1.82,1.01-5.54,4.95-3.56Z"/>
        <path d="M67.93,93.92c.77,3.29-1.25,3.17-2.98,5.27-4.87,5.92-8.16,13.84-10.38,21.12-.68,2.24.93,4.1-3.14,3.61.51-3.72-.49-7.7-.53-11.24s1.86-4.66,3.64-7.41c.56-.87.65-1.99,1.21-2.81s8.6-7.77,9.37-8.08c.99-.4,1.71-.64,2.81-.47Z"/>
        <path d="M93.28,130.79c-.34.28-1.34.16-1.63.59-.49.72-.06,1.86-.25,2.68-.07.33-2.81,5.14-2.96,5.71-.98,3.83-.73,9.31-2.27,12.65-.96,2.07-2.81,2.89-4.2.69-1-1.57-.64-7.93,0-9.81.14-.43.78-.45.91-.79,1.41-3.66,3.3-6.82,4.87-10.06.56-1.15.05-2.16.87-3.07.88-.98,3.23-1.82,4.48-1.41,1.19.33.88,2.23.19,2.81Z"/>
        <path d="M100.92,132.92l.51,9-1.54.27c-.4,5.57-.13,14.07-7.17,15.18-.62-.16-.95-1.29-1.02-1.88-.7-5.54,1.51-8.77,3.46-13.63.78-1.93,1.34-3.46,2.42-5.57.93-1.82.57-3.9,3.35-3.38Z"/>
        <path d="M111.38,142.98c1.21,2.03.11,3.85.05,5.7s.33,4.86-.01,6.4c-.04.18-2.14,2.25-2.45,2.74-.93,1.43-1.42,5.75-4.43,4.27-.26-.13-2.11-4.08-2.13-4.46-.01-.24,1.06-4.24,1.23-4.74.26-.8,2.11-2.21,2.87-3.63s2.52-7.84,4.87-6.29Z"/>
        <path d="M107.79,359.06c2.16,2.5.03,3.89.14,5.58.21,3.32,3.18,7.64,5.74,9.77,2.92,2.44,3.77,1.49,7.32,1.76,4.3-2.93,4.95-7.05,2.43-11.48l1.24-.76c.46,1.1,2.19,1.23,2.61,1.64.45.44.78,2.43,1.32,3.19.35.5,2.38,2.1,2.78,3.06,1.78,4.25.03,6.57-2.25,9.79-.36.51-.12,1.31-.7,2.05-1.84,2.35-4.05,1.79-6.15,2.27-.38.09-.31.88-.69.98-2.81.7-11.29-1.99-13.38-4.02-2.17-2.11-5.82-11.12-5.82-14.22,0-1.5,1.28-8.91,2.16-9.63h3.25Z"/>
      </g>
    </g>
  </g>
</svg>