<?xml version="1.0" encoding="UTF-8"?>
<svg id="_Слой_2" data-name="Слой 2" xmlns="http://www.w3.org/2000/svg" viewBox="0 0 397.7 453.61">
  <g id="_Орёл" data-name="Орёл">
    <g>
      <g>
        <path d="M392.55,24.56c-1.69,2.48-7.41,9.11-9.84,10.48-2.25,1.28-7.56,1.21-9.08,3.97l-.93-.42c-1.16,1.92.88,2.49.98,2.9.51,2.02-.11,5.83-2.03,7.1-.66.43-4.14,1.7-4.9,1.8-2.28.31-6.18-.92-8.54.04-.32.13-1.44,1.65-2.48,1.85l.36,2.77c2.38.54,4.69-.11,7.09-.23,1.16-.06,2.28.51,3.45.43,6.15-.41,12.56-5.31,17.87-7.71,1.25-.56,7.46-1.87,8.24-1.01.55.62,2.61,8.13,2.48,9.15-.14,1.11-6.75,8.05-8.03,9.06-4.32,3.43-6.21,3.34-10.88,5.04-1.23.45-2.12,1.5-2.46,1.63-2.71.98-8.91.08-7.3,4.16l25.68,3.33c3.15,1.84-.76,9.05-2.24,11.13-1.56,2.18-6.48,6.22-9.01,6.83-.68.16-6.63.32-7.47.25-.94-.08-5.26-1.83-6.42-2.29-.7-.27-.98-1.56-2.08-1.27l.51,5.13c-3.38,1.21-6.17,1.39-9.62.11-.33-.12-3.43-1.66-3.6-1.76-.33-.2-.37-1.22-.95-1.4-.2-.06-3.73.72-4.14.87-4.73,1.73-.67,3.37,1.9,4.4,4,1.61,14.66,5.47,19.31,5.97,1.72.19,5.64-.5,6.93-.22.62.13,1.15.95,2.15,1.15.97.19,2.33-.69,3.24-.72,3.19-.1,5.25.68,8.75.53,4.2-.18,6.65,1.53,6.31,6.2-.02.22-1.04,4.09-1.16,4.28-.09.14-2.18,2.2-2.43,2.4-2.22,1.77-5.72,3.27-7.88,4.98-5.36.58-10.84.23-16.19-1.05l-.97,1.75c1.03.55,1.63,2.86,2.06,3.2.86.7,6.62,1.66,8.06,1.73l.35,1.5c4.66.44,9.39.9,13.82,2.54,3.02,5.05-2.67,8.29-5.77,11.45-.44.46-.36,1.33-.81,1.75-.68.66-2.92,2.32-3.8,2.55-.44.12-7.47-1.28-8.53-1.52-3.62-.82-7.67-2.39-10.92-3.94-.99-.47-5.3-3.17-5.62-3.11-1.6.31-.33,3.59-.32,4.42.02,3.68-2.02,2.54-2.52,3.54-.79,1.61.91,1.09,1.35,1.46,10.34,8.91,18.94,14.24,32.42,17.68,1.35.34,2.76-.39,3.69.93,1.52,2.15.56,7.26-.82,9.33-.18.27-4.62,3.4-5.15,3.68-1.18.62-5.86,1.43-7.17,1.42-4.33-.02-8.33-2.31-12.76-2.4-.81,1.36-.04,2.86.49,4.14.4.96,5.45,8.48,6.17,9.24,3.97,4.24,9.79,9.39,14.77,11.95,1.59.82,3.58.66,5.06,2.65,1.1,1.48-.46,4.11-1.71,5.23-.15.14-.7-.17-1.18.15-.44.29-.53,1.22-.89,1.45-.59.39-3.78.98-4.74,1.29-.28.09-.23.81-.61.88-8.82,1.64-12.32-1.19-18.78-5.8-5.4-3.85-9.23-8.89-12.87-14.86-1.38-2.27-2.5-6.98-4.65-8.42-.73-.49-1.94-.51-2.7-1.18l-1.8,2.25,1.62,4.59-1.07.57,1.04,2.31-3.79-.47c-2.46,2.3.22,2.46.95,3.57.87,1.33,1.83,3.84,2.58,5.17.27.48,1.1-.06,1.2.05.29.31.97,2.8,1.14,3.48l1.8-.06c1.43,3.14,3.66,5.89,5.89,8.54,7.73,9.2,19.98,18.96,29.59,24.83,4.07,2.49,11.47,4.13,8.3,10.24-3.25.87-5.49,3.3-8.62,4.37-2.32.8-5.68,1.28-8.03.49-7.42-2.52-18.36-9.1-24.95-13.5-1.02-.68-6.62-6.59-7.57-3.25-.6,2.12,2.19,4,3.04,5.22,6.04,8.62,13.84,17.69,21.93,24.2,1.95,1.57,4.51,3.99,7.33,6.08,3.59,2.67,7.39,4.57,11.04,7.68.27.23.88.11,1.25.23l.03,3.51-1.49.03.52,1.53c-1.08,1.05-5.83.46-6.1.62-1.12.68-.25,1.36-3.5,1.76-1.74.21-3.08.57-4.52.75-2.11.26-6.49-1.58-8.29-2.81-4.18-2.84-11.36-10.84-14.08-14.57-2.03-2.78-1.67-5.72-6.12-5.23-1.02,5.99-6.94,4.13-10.13.82-1.34-1.39-2.23-3.55-3.35-5.15-7.97-11.32-12.21-24.87-19.01-37.47-1.05-1.95-4.4-7.2-5.75-2.81-.84,2.74.48,2.71.66,3.35,3.99,14.53,11.74,30.19,18.9,44.2,2.61,5.09,4.33,9.22,8.18,13.68,3.01,3.49,6.74,7.1,10.28,10.75.55.56,2.16,3.19,2.35,3.3.65.37,1.75-.12,2.76.59.84.59,1.19,2.71,2.26,3.39-1.5.74-3.43,2.75-4.97,3.15-2.03.52-12.89,1.08-14.7.68-.31-.07-.62-1.01-1.3-1.39-.85-.47-1.61-.19-2.09-.44-10.9-5.64-22.05-22.09-26.39-33.72-.55-1.47-1.01-2.88-.9-4.49l-7.55-1.7c-.54-1.68-1.41-3.26-2.04-4.89-2.92-7.67-4.81-16.94-7.96-24.91-.59-1.48-1.91-2.23-2-3.9-3.88-.8-2.83,5.49-5.22,7.5-.64.54-1.73.47-2.42.93-1.22.82-1.12,2.71-4.03,1.96-1.66-.43-5.29-6.21-5.94-7.94-1.15-3.08-1.02-6.7-2.89-9.7-3.16,1.27-5.37,5.65-9.09,2.93-1.26-.92-2.05-4.67-3.02-5.45-2.72-2.19-3.31,3.02-2.1,5.44,2.07,4.16,12.2,10.56,16.23,13.3,3.6,2.45,4.29,2.72,8.12,4.73,3.04,1.59,8.36,7.01,10.41,9.61,2.34,2.97,3.47,5.91,4.5,9.39.81,2.76-1.41,3.98,2.69,7.06,2.7,2.03,8.95,1.45,9.72,2.59,1.44,2.15-1.34,5.76-3.05,7.13-2.97,2.37-5.67,1.24-4.47,6.06.16.63.84,1.28,1.07,2.01.43,1.36,1.55,5.59,2.15,6.58.41.68,2.26,1.04,2.41,2.5,1.21-.49,1.99.59,2.98.42,1.74-.3,3.46-2.54,4.61-1.87v-1.17c.22-1.48,2.67.65,2.84,1.91.05.37-.19,2.59-.3,2.98s-.75.38-.82.55c-.39.95-.88,2.83-1.74,3.64-1.26,1.17-4.87,2.86-6.54,3.24-.46.1-5.4-.15-4.73,1.42.36.86,2.64,2.89,3.31,3.89,3.93,5.87,8.21,12.46,14.03,17.03-.42.58,3.27,3.69,4.49,4.5,2.81,1.88,7.55,2.79,9.71,5.54,1,.18,3.93-2.65,4.67-3.47,6.45-7.22,8.37-19.43,17.38-23.74,2.63-1.26,13.14-2.97,16.49-2.43,1.04.17,6.56,2.83,7.21,3.58,1.37,1.58,2.85,9.35.25,10.53-3.81.95-6.45-6.45-10.25-3.1-2.04,1.8,1,6.44.49,8.14-.11.37-.87.26-1,.71-.16.6.11,1.3-.17,2.07-.06.18-2.78,2.36-2.96,2.42-.79.29-1.57-.28-2.4.11-.57.27-2.22,2.26-3.12,2.68-2.27,1.05-6.72.71-5.74,4.67,1.56.65,3.72-1.44,3.93-1.49,4.25-1.01,6.97-2.88,11.48-4.4,3.68-1.24,3.53-.59,6.98-2.76,1.19-.75,3-1.25,4.41-.99.58.11,4.22,1.84,4.88,2.3,1.98,1.38,7.84,5.87,9.22,7.51.4.47.4,1.05.69,1.51.22.35.92.34,1.01.74.72,3.18.28,11.07-3.29,12.52-4.7,1.91-3.45-1.76-5.69-3.63-1.04-.87-3.62-.65-4.99-.37-2.91.6-7.67,4.63-11.06,3.08-.71-.32-.41-1.1-1.39-1.22-2.53-.3-5.52,1.73-9.28,1.08-1.61-.28-.9-2.33-2.05-1.05-.72,2.92.9,2.19,2.27,2.86,2.04.99,4.49,1.25,5.36,1.75.54.31.2,1.11.46,1.4.31.35,3.49,1.51,4.46,2.5.84.85,3.28,5.62,3.52,6.76.57,2.8.51,9.2-.92,11.71l1.02.25v1c-1.36.14-1.53,2.86-2.54,4.26-.84,1.16-5.23,5.01-6.64,5.29-1.93.39-4.02.47-5.89-.24-2.41-2.25,2.05-7.85.99-9.33-.56-.78-5.52-.24-7.33-2.17-2.65-2.83-3.21-10.52-4.86-12.08-.09-.08-1.28.19-2.43-.39-4.3-2.15-6.47-5.01-11.51-6.39-.45-.12-.37-1.03-.65-1.05-1.87-.12-3.58,2.31-3.92,2.45-.24.1-.83-.39-1.71.07-2.45,1.27-4.08,3.83-5.9,5.5.75,3.02,1.18,7.42-.59,10.14-1.57,2.42-3.97,1.65-6.27,2.98-2.89,1.67-3.18,5.08-1.77,7.81.61,1.18,2.44.34,2.46,2.7.02,2.72-1.75,3.93-4.31,3.77-2.84-.17-8.85-4-9.98-6.57-1.33-3.03-1.26-5.08-.88-8.31.07-.63.73-1.27.83-2.26.38-3.75-.88-7.49.13-11.18.87-3.14,1.63-1.95,3.12-3.04,2.51-1.83,4.92-3.56,7.26-5.59l.76,1.02,3.53-8.07-1.41-1.23c1.44-3.06-3.5-4.34-5.34-6.08-2-1.89-4.21-4.3-6.36-6.36-5.78-5.52-11.65-11.77-16.81-17.58-1.66-1.87-3.09-3.3-4.69-5.36-1.26-.29-1.38,1.96-1.94,2.43-2.81,2.36-1.79,2.61-3.43,4.42-1.79,1.96-4.21,1.86-6.29,2.45-.37.1-.37.79-.8.94-1.99.72-6.86.31-8.36-1.36-1.28-1.43-2.73-7.09-.52-8.1,7.25,2.52,7.32-6.03,3.37-9.5l-6.85,6.11c-2.01,1.19-8.96.93-10.63-.45-1.36-1.13-3.08-7.6-3.07-9.51,0-1.99.88-.77,1.18-.93.64-1.68,3.19-1.34,4.74-1.4.26.26-1.11,6.22.85,6.7,4.48,1.1,4.06-7.6,1.19-8.98-.97-.47-1.97-.18-3.05-.57-3.4-1.24-4.44-5.73-5.93-8.43-.45-.81-1.33-.78-1.64-1.16-.07-.08.43-1.72-.91-1.43-.49.11-1.17,1.22-1.28,1.81-.16.84-.43,5.36-.39,6.26.1,2.12.68,5.97.89,8.61.62,7.66,1.55,7.37,4.14,13.88,1.57,3.94,1.17,9.09,3.88,12.54,3.56,4.53,8.51,1.2,12.01,2.86,1.84.87,2.27,4.62,1.81,6.44-1.69,6.73-10.12,3.57-15.06,4.71-3.14,2.28,6.88,12.57,7.72,15.19,2.58.46,1.51,1.49,2.41,2.97,1.05,1.73,11.14,9.07,13.29,9.83,2.12.76,4.47.79,6.46-.41,1.11-.66,1.91-2.85,2.69-2.98.14-.02,2.45.99,2.62,1.15.23.21.11.9.33,1.15,1.03,1.19,2.79,3.15,2.64,4.89-.03.37-2.25,6.66-2.5,6.97-1.1,1.35-4.18,3.19-4.86,4.95,2.7,4.55,4.06,9.71,6.23,14.47,1.18,2.59,3.43,5.77,4.57,8.42,3.34,1.22,5.69,4.52,9.92,3.38,3.33-.9,4.32-4.18,6.71-6.35l1.29.27c.52.58.81,2.38,1.13,2.65.35.29,1.33-.14,1.43.41,1.36,7.74,1.84,15.92-6.21,20.39-4.38,2.43-8.85.74-13.32,1.64l-7.67-4.66-6.2-7.17-5.91,1.87-3.72-1.44c-1.54-1.48-2.72-1.48-3.4-3.85-.43-1.51.07-2.86-.21-4.38-.34-1.91-1.32-3.6-1.84-5.26-.18-.59.21-3.47-1.1-3.57-1.66-.13-1.79,4.61-1.84,5.88-.23,6.48.43,13.49,0,20.06,1.63,1.4,1.43,3.08,2.29,4.67.21.38,1.65,1.21,1.7,1.31.13.28-.5,1.67.67,2.46-1.72.08-3.02,1.44-4.6,1.82-4.48,1.08-12.44-1.11-16.08-3.85-2.77-2.09-5.13-7.22-6.13-10.49-2.47-8.11-.68-14.71-2.02-22.61-.56-3.31-2.53-9.45-3.7-12.73-.34-.96-2.81-6.98-3.18-7.1-1.57-.49-.25,3.64-.23,4.35.44,14.06,6.2,27.58.43,41.48-.09.21-1.43,1.69-1.46,1.8-.16.53,0,1.14-.02,1.69l-1.01-.52c-.22,1.49-1.08,3.26-1.88,4.5-1.35,2.09-4.72,6.07-6.16,7.76-.84.98-4.34,5.23-5.07,5.17-2.46-3.49-5.1-6.94-7.34-10.59-3.42-5.55-8.15-13.56-9.2-20.08-1.74-10.8.23-24.3,3.45-34.28l-.69-.26.17-1.53c-2.37,1.5-2.64,4.63-4.64,6.01-8.12,15.27-1.89,31.74-10.77,47.56-.2.35-5.41,5.48-5.77,5.65-.68.32-2.45.76-3.21.78-2.05.05-7.2-.19-9.21-.46-2.19-.3-4.2-1.52-5.37-3.4-.02-2.85,3-3.41,4.47-5.63,1.86-2.82,2.12-9.16,1.95-12.55-.24-4.65-1.81-9.24-1.35-13.81-1.91-1.89-7.43,6.8-8.41,8.28-3.83,5.83-5.25,9.89-11.99,13.8-2.59,1.5-8.86,4.01-11.44,4.87-9.84,3.26-18.23.71-23.18-8.54-.56-1.05-3.37-7.76-3.51-8.48-.62-3.2.34-7.2,1.5-10.2.81-2.09,3.29-4.67,5.67-4.35-.13,1.29.12,3.19-.12,4.37-.05.24-.82.21-.9.59-.83,3.92,4.57,7.93,8.36,7.65,3.97-.29,11.17-2.85,14.08-5.59.92-.87,2.02-4.08,3.01-5.46,1.04-1.46,3.15-3.3,4.3-5.06.92-1.41,2.45-5.48,3.15-6.47.97-1.36,1.95-.09.93-3.33-3.21-1.06-6.84-2.1-9.57-4.05-.6-.43-4.28-4.8-4.64-5.6-1.62-3.53-1.68-10.75-.61-14.57l1.3.47.5-1c.25,0,3.48,1.53,3.68,1.73.29.29.4,1.58,1.38,2.19,5.57,3.48,12.83,2.96,18.5.16,6.91-3.41,15.58-14.23,18.28-21.28.52-1.35,1.98-2.29,1.31-3.82-1.17-2.66-3.76-.97-5.55-1.15-.36-.04-4.46-1.64-4.75-1.92-1.72-1.66-2.25-6.9-1.17-8.94.29-.55.96-.66,1.27-1.05.9-1.15.33-2.22,3.43-1.9l.91,2.03c.33.21,4.32-.59,4.57-.75.2-.13,2.72-3.25,2.96-3.67.71-1.25,2.57-6.93,2.56-8.2-.02-2.73-1.15-7.67-1.24-10.58-.14-4.45.85-8.17,2.41-12.38l-1.06-1.32c-1.07.55-2.84,1.8-3.96,1.96-1.49.21-2.84-1.89-4.63.19-.09.11.33.57.23.79-.06.12-.74.11-.83.5-.2.88-.56,4.64.06,5.19l4.73.13c2.95,3.77.8,7.43-3.28,9.5-.41.21-1.14-.23-1.29-.17-.33.12-.23.78-.64.87-1.95.44-4.28.87-6.16.15-1.59-.61-3.09-3.12-5.02-2.43-1.58.56-2.59,3.12-4.37,2.84.46.92.84,4.08,1.65,4.51.65.34,1.78-.07,2.61.21.16.05,2.84,1.59,2.88,1.76.72,2.82-2.4,5.84-4.41,7.36-1.36-.65-2.73.05-3.95-.04-1.44-.11-4.54-1.62-5.73-2.48-.21-.15-3.22-3.74-3.35-3.97-.23-.39-1.49-7.01-2.53-6.31,0,.33.08.68-.27.88-1.94,1.13-6.23,4.77-8.27,6.51-3.07,2.63-4.37,6.34-6.36,8.26-.87.84-2.37.52-3.08,1.04-.59.43-.53,1.53-1,2.08-.55.65-1.62.66-2.31,1.28-1.66,1.48-6.64,9.8-7.5,12.02-.45,1.17-1.22,3.91-1,5.1.15.78,1.52,5.43,1.82,5.93.63,1.06,1.72,1.23,2.29,1.97,3.45,4.54,9.53,12.35,8.06,18.21-.4,1.59-2.3,3.07-1.39,5.03l-1.48.05c-.38,2.28-2.53,4.98-5.36,6.22-2.35,1.02-10.08,1.47-9.51-2.29.4-2.62,3.66-3.62,2.5-7.79-1.79-.27-1.59-1.13-2.57-2.11-2.17-2.17-5.62-4.3-5.47-7.69.09-2.09,2.05-3.35-1.1-5.9l-11.69-1.8c-6.19,1.09-14.18,2.37-17.6,8.34-1.57,2.74-1.76,6.45-3.26,8.96-1.01,1.68-5.21,4.82-7.03,5.44-1.37.47-5.64.56-6.32,1.48-2.5,3.37.28,6.81-.99,10.46-1.53-.69-3.62-1.1-5.07-1.87-2.28-1.22-4.42-4.03-5.2-6.35h2.56c.85-2.54-1.62-5.93-1.49-7.99.04-.71.86-1.55,1.01-3.02.31-2.9-1.48-9.24-.99-10.75.09-.28,3.56-3.7,4.07-4.14,1.08-.92,2.87-1.46,3.72-2.72,2.63-.78,7-.72,9.34-1.64,1.56-.62,3-2.34,4.63-2.19,2-1.2-4.21-3.44-5.15-3.53-6.14-.61-14.05,3.31-19.65-.82-2.89-2.13-3.1-2.62-6.7-4.63-.55-.31-.64-1.2-.85-1.18-3.08.35-6.24,5.5-7.5,5.4-2.52-1.33-1.58-6.97-.37-9.16.77-1.38,2.17-1.74,2.34-2.04.31-.55-.07-1.49.16-1.88.22-.36,6.72-2.47,7.79-3.13.74-.46,2.28-2.89,2.94-3.3.12-.07,2.59-.69,2.73-.69.54,0,2.23.5,2.81.75.65.27,2.8,1.93,3.97,2.43,3.18,1.39,6.21,2.92,9.37,4.27,1.96.84,8.92,3.7,8.92-.15l-4.21-3.56c-3.25-.59-5.59-2.67-8.42-4.43-.47-.29-1.15,0-1.21-.07-2.36-2.35.35-6.16.81-8.26.08-.36-.38-4.2-.51-4.37-.24-.31-2.69-1.46-3.2-1.42-1.02.08-4.94,3.05-5.92,2.63-.84-.61-1.15-3.19-1.06-4.14.02-.22.92-3.46,1.03-3.61.56-.81,3-1.84,4-2.08,1.34-.32,7.82-.89,9.1-.7,1.25.19,2.98,1.77,4.26,1.92.88.1,1.74-.49,2.42-.38.94.15,4.8,1,5.42,1.27,3.63,1.58,3.1,8.62,4.16,11.66,1.71,4.9,7.07,11.97,11.31,14.99.74.53,1.94,1.24,2.83,1.32.4.04,5.73-.53,6.11-.64.3-.09,4.68-3.09,5.13-3.44,8.33-6.64,18.53-19.82,22.7-29.3.6-1.36,2.29-2.12,2.75-3.32.31-.82,1.71-9.02,1.49-9.69-.56-.79-2.16-1.4-3.04-1.64-.74-.2-1.47.33-1.52.28-.08-.09-.06-1.39-.37-1.94s-.91-.62-1.13-1.06c-2.53-5.1-3.79-10.21-3.57-15.94,1.42-1.24,3.38.02,3.78-1.62,1.46,3.3,6.59,2.61,8.82.34,1.67-1.7.92-.88,2.58-2.05,1.76-1.24,3.66-4.73.69-5.49v-.76c3.04-1.38.9-5.78,1.18-8.86.06-.71.62-3.04,1.38-2.96l-.94-1.46,1.46-2.91c3.35.9,8.66-.26,11.75-1.85,1.59-.82,3.69-3.03,5.05-3.68,1.19-.57,3.24-.45,3.64-.71,2.06-1.35-3.43-4.31-.14-7.64.9-.91,5.54-.03,7.08-.57.43-.15.38-.72.76-.9,1.48-.72,3.81-.83,4.21-2.88.17-.9.47-6.37-1.27-5.89-1.61,4.04-3.72,2.25-6.18.01-.68-.62-2.17-3.2-2.81-2.58-.22,2.41-1.96,6.42-3.98,7.73-.67.43-1.54-.16-2.46.95-1.12,1.36-1.81,4.18-3.31,5.99-.32.38-.99.5-1.4.93-.22.22-.05.98-.27,1.21-1.46,1.5-7.58,1.59-9.4.16-.28-.22-3.54-4.82-3.64-5.14-.38-1.2.32-2.11-.19-3.22-.04-.09-1.19-1.43-1.28-1.42-1.77.18-1.62,3.33-2.13,4.56-.49,1.18-1.19,2.58-1.76,3.75-7.81,15.83-14.39,33.44-23.73,49.86-1.03,1.81-2.27,6.46-3.56,7.99-.08.1-.77-.37-1.17.08-5.16,5.74-7.31,9.09-14.53,11.99-.16.06-.2.78-.79,1.05-3.23,1.46-16.28-.6-14.71-5.47.23-.72,4.69-2.96,5.85-3.95.41-.35,2.14-2.22,2.49-2.7,5.92-8.02,9.27-19.86,13.1-28.92,4.22-9.99,13.02-24.82,14.19-35.7.13-1.23.87-5.24-.53-5.61-1.01-.27-4.69,4.5-5.3,5.54-3.9,6.71-7.16,16.07-10.9,23.31-2.15,4.16-4.3,9.76-7.11,13.51-1.16,1.55-5.32,7.12-7.4,6.38-.68-.24-.81-1.22-1.37-1.7-.19-.16-.84.2-.93.09-1.35-1.49-.32-4.43-1.37-6.05l-5.72,6.34c-4.74,9.05-11.98,16.03-22.67,18.17-1.6.32-9.45.89-10.39.41-.78-.4-3.05-3.37-2.97-4.5.26-3.86,2.63-4.11,5.15-6.05,9.71-7.47,17.22-16.6,24.31-26.67,1.46-2.07,3.78-3.12,3.76-5.9l-1.19-.81c-6.8,2.4-12.76,6.31-19.7,8.58-2.98.97-9.8,2.58-12.94,2.01-2.1-.38-7.28-2.17-8.4-3.96-1.57-2.49-1.88-9.42,1.6-10.12,1.25-.25,2.04.36,2.86.25,12.45-1.69,27.23-20.38,34.41-30.28,2.89-3.98,3.74-6.14,6.05-10.25.85-1.51,3.41-2.44,2.55-5.26-.15-.77-3.97.11-4.56-1.66-1.2-3.58,2.19-3.92,3.25-6.86.79-2.18-.91-3.78-3.1-2.06-3.39,2.66-3.07,3.99-4.92,7.29-1.25,2.24-5.84,7.74-7.65,9.93-3.96,4.79-11.17,8.75-17.2,10.25-3.35.83-8.16.14-10.56-2.52-1.13-1.26-.69-2.01-1.14-2.72-.23-.36-1.27-.44-1.32-.88-.02-.15.94-2.67,1.06-2.75.36-.25,1.32-.04,1.9-.38,6.64-3.98,11.47-10.21,15.95-16.04,2.3-2.99,4.52-6.06,6.72-9.09-.57-3.65-6.56-1.37-8.99-1.29-5.12.16-13.12-.21-17.7-2.37-6.05-2.86-5.04-6.8-3.91-12.56.92-1,8.17-.31,10.42-.84,5.19-1.21,21.59-11.12,25.62-14.74,5.25-4.71.93-5.29,1.73-10.59-1.41.46-3.55.24-4.77.62-.85.27-1.53,1.52-2.56,2.06-2.89,1.49-7.61,2.02-10.84,2.27-3.91.31-8.66.25-11.64-2.62-1.74-1.68-4.97-6.48-5.13-8.8-.04-.6,0-1.11.51-1.51,6.35-4.09,18.22-1.95,23.84-6.37.45-.36.48-1.28.31-1.58-.08-.15-2.78.44-3.42.38s-1.17-.66-1.88-.76c-4.8-.71-13.98-1.97-18.27-4.04-7.03-3.39-6.12-14.08-.3-18.01.66-.03,1.4,1.04,2.19,1.23,8.74,2.06,20.4.61,28.84-1.08,1.46-.29,3.11-.04,4.63-.61,1.62-.61,7.77-5.79,3.87-6.38-3.35-.5-6.79-.07-10.21-.37-11.94,4.1-27.78,2.41-33.39-10.49-.74-1.7-2.07-5.32.57-6.04.98-.27,2.31.47,3.5.48,2.02,0,4.8-.54,6.61-.5,3.79.09,14.45,3.11,15.07-2.45.3-2.69-7.24-3.85-9.38-4.77-2.08-.89-5.65-2.61-7.6-3.7-2.3-1.28-9.67-7.57-10.06-9.97-.04-.25-.05-4.77-.01-5.02.1-.68,2.13-7.03,2.53-7.26.35-.2,3.34-.8,3.5-.7.24.14,2.48,3.09,3.05,3.54,5.58,4.31,12,5.45,18.32,6.95,1.48.35,4.86,2.13,5.78,2.16.64.03,1.1-.62,1.71-.71,1.67-.24,3.08.01,4.62-1.49l-1.81-1.67c-3.67-.06-7.54-.78-11.09-1.47-.65-.13-4.16-1.49-4.44-1.83-1.86-2.22,2.99-12.12,2.43-12.73-1.66-1.03-5.61-.66-6.88-1.17-.62-.25-.67-1.04-1-1.23C9.21,30.12.85,25.66.01,15.23c-.14-1.72.9-9.97,2.3-10.83s2.28,1.32,2.97,1.84c8.15,6.14,22.1,13.93,32.21,15.81.72.13,1.97-.21,2.84.11.57-3.84-.85-7.72,1.88-10.82,1.46-.35,5.32,2.01,7.17,2.55,10.93,3.18,19.66,2.53,30.72.53,5.72-1.04,12.66-2.53,19.08-3.52,9.22-1.42,18.15.54,26.89,3.33,7.86,5.82,11.31,16.6,9.12,26.1-.45,1.94-3.79,5.91-5.21,7.53-3.05,3.47-7.37,7.28-10.28,9.71-3.37,2.82-4.91,7.07-5.93,10.97-.1.39-.83.25-1.05,1.11-1.55,6.09.82,22.84,4.84,27.82.48.59,6.05,5.48,6.64,5.7.25.09.76-.56.89-.36l-.51,1.54c1.46-.42,1.48.73,2.15,1.2,1.76,1.23,6.58,4.5,8.17,5.2,3.33,1.47,17.58,3.76,21.3,3.74.79,0,4.08-.24,3.85-1.63-.42-2.52-1.89-1.91-2.33-2.29-.68-.59-4.63-5.58-4.98-6.36-.62-1.36-2.01-8.03-1.36-9.03,2.94-1.77,2.8-.21,4.42.32,5.12,1.65,9.6,2.92,14.87.74,2.38-.98,7.21-6.17,8.53-8.45,1.52-2.63,2.13-5.22,1.34-8.22-.15-.59-4.15-5.95-4.87-6.51-8.23-6.4-15.91-4.54-25.49-5.8-2.64-.35-4.45-2.59-7.12-3.23l.04-1.8c-3.56.17-6.1-5.06-6.96-8.19-.44-1.61-.38-2.97.76-4.27,1.71-1.96,3.7,1.27,5.39,2.21,6.12,3.43,12.51.92,19.02,1.06,2.13.04,5.83.92,7.45.79,4.49-.37-2.73-5.46-4.1-6.15-4.34-2.19-2.09-1.41-5.11-4.24-.56-.52-4.62-3.28-5.26-3.46-5.28-1.54-6.74,2.66-11.21,3.76-.51-2.47-2.7-4.42-3.07-6.98-.14-.96-.03-6.67.21-7.44.15-.45,4.16-6.21,4.53-6.5.29-.23,4.1-1.65,4.69-1.79,2.81-.64,6,.19,8.47-1.76,5.71-4.51,7.88-6.77,15.74-6.96.16,0,.2-.81,1.36-1.13,6.3-1.77,23.07,2.51,29.29,4.44,6.77,2.09,14.11,5.72,21.28,6.47,1.13.12,6.6.18,7.51-.06,1.54-.39,3.21-2.88,4.34-4.02,4.87.62,3.31,2.88,2.84,6.07-.11.76.43,1.43.4,1.88-.02.33-.91.23-1.02.65-.73,2.91-.92,2.54-1.82,4.78-1.05,2.63-2.26,4.82-.75,7.33,2.76,4.56,4.05,6.85,4.6,11.9.79,7.24,7.66,7.26,13.36,5.95-1.03,3.36-2.22,6.62-4.78,9.09-1.42.41-6.93,2.96-7.4,4.08-.84,2,1.45,5.84,2.93,7.14.27.24,3.79,2.69,4.02,2.78,1.63.64,6.23-.89,3.72,3.4-2.04,3.49-7.67,3.7-10.81,5.38-.31.43,3.18,4.02,3.45,4.08,1.63.4,7-.06,7.84.57-.15,2.92-1.96,6.72-4.87,7.71-1.07.36-3.11.45-4.23,1.1-.34.2-.92,1.84-1.63,2.19,2.11,2.7,4.88,4.52,7.35,6.92,2.85-.25,5.12-1.85,7.61-2.71,4.84-1.67,9.54-2.9,13.88-6.04,3.6-2.61,5.75-7.52,8.12-11.51,1.17-4.49,3.16-9.44,3.58-14.4.28-3.31-.45-7.77-.79-11.13-.34-3.29-3.38-4.95-5.98-6.14-1.83-.84-2.57-.62-4.47-1.29-7.08-2.49-13.81-8.65-15.95-15.9-.9-3.04-2.49-11.01-1.5-13.77.24-.67,1.23-.75,1.31-.93,3.21-6.84,7.33-10.26,13.88-13.76,6.5-3.47,6.95-2.94,13.69-3.58.38-.04.07-.97,1.06-1.1,19.21-2.52,37.75,5.67,57.85,1.87,2.49-.47,5.46-2.57,7.46-.82.23.2,1.28,3.91,1.29,4.37.05,2.12-2.21,4.21-1.04,6.43,1.42-.65,2.76.2,4.31,0,.87-.11,1.69-.77,2.66-.96,6.81-1.36,13.56-3.83,20.34-6.78,3.12-1.36,7.02-3.12,9.88-5.63,1.99-1.74,3.78-5.68,6.05-6.78,2.45-1.18,3.75.1,3.83,2.5.18,5.42-2.1,17.14-5.14,21.61ZM341.77,19.17c-3.72-2.27-6.74.13-10.01-.22-.84-.09-1.36-.93-2.42-.9-1.01.03-2.12,1.05-3.04.89-11.22-1.88-24.1-4.7-34.91-3.83-9.95.81-18.31,1.79-25.87,9.06-.3.28-2.72,1.81-2.73,2.43-.05,2.26-.02.36-.69,1.85-1.24,2.76-.55,12.84.88,15.66.7,1.39,2.53,2.7,3.55,3.86,1.15,1.32.43,1.14,2.2,2.63,4.5,3.78,7.83,3.89,13.71,3.41.53,1.32,1.81,1.31,2.44,1.93.95.93,3.4,6.03,3.49,7.17.06.75-.92,1.14-.96,1.96-.02.32.94.17,1.05.6.34,1.3-.05,4.41,0,6.08.2,5.61-.55,9.76-1.55,14.82-.08.39-.81.27-.91.59-1.81,6.15-5.07,12.04-9.78,16.14-3.7,3.22-16.84,10.31-21.47,11.84-1.44.48-3.66-.25-3.83,1.85-.02.25,1.57,4.5,1.72,4.7.23.33,1.06.47,1.38.91,1.99,2.75,2.13,4.28,6.07,4.79,1.4.18,3.08-.58,4.59.25l3.2,6.75c3.28.56,6.87.89,9.55-1.45,4.15-3.63-.39-4.52.28-7.14.02-.09,1.21-1.36,1.3-1.38,1.46-.4,1.04,1,2.2,1.32,2.93.8,5.02.12,7.77,0,.87-1.64,1.61-3.33,1.58-5.22-.03-1.68-1.8-1.5-1.59-3.3l1.46-.06.89-2.45c3.14,1.67,7.57.01,6.89-3.87-.07-.38-.99-3.3-1.17-3.76-.15-.38-2.06-.62-1.06-3.09.72-1.76,2.71-.59,3.8-.87,2.71-.68,2.48-3.59,3.35-5.4.43-.9,1.5-1.17,1.93-2.7,1.52-5.4-3.47-8.81-5.3-13.26,7.49-.84,9.7-4.25,6.16-11.3.3-.34,3.96.11,4.47.33,1.09.47,2.62,5.4,2.73,6.61.27,2.97-.36,4.1-1.71,6.44-.16.27.13.82.04.91-.52.55-2.86.82-3.47,1.9-.21.42,1.88,2.32,2.09,3.06.45,1.59.8,5.07.47,6.6-.06.29-3.42,3.65-3.81,4.5-1.4,3.06-2.02,3.68-4.62,6.45-.19.2-.89.08-1.16.35-.31.3-.12,1.43-1.2,1.7-.22,1.51,1.82,2.21,1.87,3.53.02.49-1.51,4.19-1.82,4.56-.39.45-1,.23-1.38.49-.38.26-.39,1.03-1.04,1.28-.73.28-1.97-.14-2.51.59-.51.69-.62,4.44-.98,5.7-1.57,5.52-9.08,3.53-12.44,6.31-1.07.89-1.66,3.64-2.36,4.33-.32.32-2.92,2.04-3.22,1.23-.54,1.44-2.86.66-4.55,1.02-4.3.91-4.37,4.41-4.43,8.15-2.48.23-5.34-.12-6.34,2.57-.88,2.38,1.39,5.49,1.96,7.94.89,3.8.97,7.52,1.97,11.31,1.32,5.04,3.57,11.48,4.92,17.02,1.12,4.61,1.61,9.35,3.12,13.88.15,1.29-.96,2.41-2.23,2.26-1.41-1.47-4.14-7.12-6.67-5.19-.11.08-1.38,2.18-1.39,2.32-.34,2.6.89,3.67,1.09,5.67.13,1.34-.57,3.67-.46,4.09.14.56,1.17.54,1.46,1.2,1.06,2.39,1.59,8.58,3.4,10.78.4.49,2.94,2.09,3.53,2.1,3.6.06,4.27-3.63,4.05-6.52-.22-2.89-2.1-5.39-1.2-8.3h1.53c-.58,1.59,1.23,1.65,1.47,2.38.46,1.41.57,1.9,1.05,3.17.85,2.23.78,3.48,1.53,5.14,6.35,14,8.68,28.89,15.84,42.59.09.18,2.54,2.88,2.71,2.98.46.25.86-.11,2.47.7,4.47,2.23,1.83,1.13,2.35,4.45.24,1.54,5.6,12.96,6.89,15.49.74,1.45,6.86,8.48,8.33,10.01,1.24,1.28,7.01,5.93,8.45,6.6.98.45,6.34,1.52,6.43.24-1.08-1.09-1.01-2.79-1.56-3.98-.19-.41-.82-.43-1.13-1.04-1.44-2.8-.82-3.55-3.39-5.05-1.35-.79-7.01-12.12-8.09-14.27-11.44-22.73-22.53-48.66-30.37-72.9-.32-.99-.62-4.89-.76-5.11-.29-.46-1.57-.73-2.11-2.18-.34-.91-.23-2.63-.72-4-3.74-10.38-9.01-20.39-12.61-30.54-.44-1.24-1.06-3.82-1.44-4.61-.35-.73-2.16-2.1-2.69-3.48-.73-1.89-.26-2.61.69-4.11.44-.24,3.06,3.54,3.29,4.15,1.16,3,2.62,6.97,4.38,10,2.81,4.84,9.88,11.06,12.34,2.32-3.03-.9-2.57-4.21-3.06-6.34-.11-.48-1.11-.59-1.47-1.19-.46-.74-3.55-6.86-3.61-7.26-.19-1.2,1.09-2.47,2.23-2.71.49.11,1.45,2.29,1.77,2.92,2.97,5.8,5.65,13.99,11.58,18.15.93.65,3.75,1.69,3.89,1.85.63.72,3.62,6.32,4.24,7.55.38.76-.12,1.52,0,1.79.37.88,3.39,1.58.72,4.56-2.64,2.95-5.77-1.6-7.22-1.31-.75.47-2.25,2.24-2.14,3.04.34,2.52,2.2,1.91,2.33,2.03.34.33-.65,2.15-.55,2.74.06.35,1.04.52,1.46,1.21,4.65,7.65,7.56,15.62,13.25,23.24.38.52,3.1,3.76,3.32,3.9,2.32,1.45,6.68-2.62,6.54-5.06-.01-.24-.94-3.64-1.04-3.81-.22-.34-1.38-.65-1.93-1.4-1.76-2.42-7.17-9.51-7.53-11.92-.1-.7.44-1.47.36-2.22,2.53.28,2.32,2.14,3.68,3.79,7.71,9.3,14.83,20.02,22.16,29.49.48.62,2.53,1.8,3.45,2.94,1.52,1.87,2.66,2.54,4.87,4.36,2.65,2.19,3.95,4.11,6.43,6.29,4.78,4.21,10.67,7.04,16.67,8.85.41.12,2.2.37,2.31.28.11-1.06-.69-1.81-1.27-2.58-2.36-3.07-6.27-6.54-9.06-9.41-7.53-7.74-13.51-16.19-19.59-25.11-5.35-7.85-10.07-15.29-15.08-22.69-5.85-8.65-12.09-17.39-18.26-25.68-3.51-4.71-6.67-9.32-10.2-14.07-.48-.64-1.55-2.24-1.53-2.95,1.3-3.22,1.85-1.06,2.16-.92.25.11.7-.34.82-.25.94.75,1.9,2.28,3.53,3.39,3.11,2.13,7.78,4.08,10.55,6.26,3.68,2.88,6.23,7.87,11.06,9.63.67.24,5.52,1.26,6.03,1.21.69-.07,1.6-1.34,1.69-1.95.21-1.46-6.74-7.26-8.12-8.64,2.87-4.35,4.75-2.11,7.97-.73,6.53,2.8,7.44,4.09,12.97,8.15,6.34,4.66,15.72,9.82,23.75,8.24-.32-.76-.55-1.63-1.02-2.31-5.76-8.32-16.6-15.6-24.64-22.11-.94-.76-1.97-2.55-2.99-3.3-1.62-1.19-4.55-1.87-5.59-2.74-1.4-1.18-3.68-3.47-5.41-5-1.72-1.51-3.84-4.36-5.42-5.63-1.18-.95-6.71-2.54-7.23-3.16-.23-.27-.03-1.43-.57-2.25-1.32-2-4.39-3.16-4.66-5.18-.2-1.51.71-1.04.99-1.61.82-1.64.96-3.31,3.91-3.18,1.42.07,2.4,2.58,3.67,2.95,1.32.39,2.97-.04,4.58.54.69.25.76.94,1.11,1.07,3.65,1.3,10.62,2.45,7.24-3.64-.94-1.7-3.71-1.85-5.54-2.81-1.24-.65-1.43-1.35-2.24-1.87-.83-.54-2.36-.62-2.82-1.04-.11-.1-1.25-2.26-1.15-2.66.85-1.89,7.7-.46,9.37-.08,2.07.47,1.82,1.28,1.94,1.35.32.18.73-.77,1.28-.83.26-.03,2.08,1.06,2.7,1.18,5.42,1.06,11.52,2.02,16.17,2.86,9.29,1.67,15.19,5.21,25.73,3.27,1.42-.26,3.16-.69,2.13-2.36l-12.1-1.76c-7.03-3.51-15.7-4.82-22.62-8.21-2.47-1.21-5.15-4.62-7.47-5.86-2.91-1.54-6.3-1.69-9.09-3.77-.81-.61-6.06-5.97-6.23-6.61-.38-1.51,1.07-5.09,2.81-4.61l-.51-1.01,5.82-.61c3.61-2.99,3.77-6.24.08-9.17-1.33-1.06-6.94-3.09-5.61-5.14,1.6-2.46,7.64-.63,10.28-.55,10.18.28,21.27.46,30.92-1.35,3.05-.57,5.81-.32,8.71-2.52.29-.22,2.55-3.27,2.62-3.6.21-.93.05-.57-.57-.83-3.32-1.39-8.53,1.34-11.95,1.67-5.5.53-12.64-1.14-17.98-1.6-1.22-.1-2.7.7-3.5.49-.68-.18-1.02-1.24-2.16-1.46-2.18-.42-6.66.22-8.3-.14-1.03-.22-1.83-1.06-2.72-1.23-1.02-.19-1.32.64-2.12.6-5-.25-5.02-2.34-6.18-6.62-.85-3.17-1.25-6.82-2.43-9.88-.45-1.16-3.86-4.17-1.99-5.72,1.47-1.22,2.7.19,3.62.21,12.03.29,28.28.19,39.38-3.79,3.79-1.36,7.31-3.28,10.74-5.37l-2.24-4.88c-2.01-.42-3.24,1.21-4.65,1.64-.55.17-10.66,2.21-11.31,2.26-.87.07-1.84-.65-2.5-.46s-.59,1.39-1.18,1.52c-1.08.25-3.6-.5-5.48.02-1.22.34-2.39,1.42-3.11,1.46-1.9.1-5.05-1.78-6.94.02.11-1.83-3.51-.66-4.43-2-.43-.54-.26-1.04.02-1.58,1.14-2.22,14.64.97,11.47-6.06ZM119.62,24.03c-.88-.88-1.86-2.8-2.99-3.45-.67-.39-1.3.01-1.78-.23-.64-.33-.99-1.24-1.58-1.52-2.56-1.19-18.11-1.14-21.76-.72-4.82.56-9.19,2.07-14.62,2.42-2.6.17-5.11.98-8.08,1.13-3.02.15-6.6-.81-9.72-.1l-12.33-1.98-1.08.52c-.92,3.34,5.64,7.03-.06,8.03-.38.07-6.07-.02-6.39-.08-.89-.15-2.08-1.15-2.77-1.78l-.49,1.03-18.61-6.59c-1.75-.21-2.36,3.95-1.71,5.15.08.14,2.09,2.21,2.22,2.3,7.62,5.79,18.06,6.22,27.06,7.56,3.06.45,6.96,1.7,10.04,1.86,5.54.27,12-2.49,17.64.05l-1.45,5.83-1.4.53c-.11,2.81.1,11-1.47,13.09-.38.51-2.12.99-2.94,1.54-6.71,4.55-8.12,4.94-16.55,4.97-8.23.03-19.27-1.33-26.6-4.07-1.67-.63-10.31-2.73-11.18-2.2-2.78,1.73,1.61,5.11,3.12,6.16,8.12,5.63,27.73,9.44,37.72,9.07l13.62-2.1c.44.42-1.21,3.91-1.69,4.47-.29.34-1.68-.26-1.52,1.53l-6.5,4.01c1.71,3.08,4.25,4.02,7.59,4.6,1.86.32,7.12-.77,7.11,2.5,0,3.55-2.43,3.27-4.28,4.66-12.86,9.63-25.01,13.47-40.24,17.03l-17.13.85-.84.72c1.18,5.93,9.6,6.64,14.6,6.91,11.28.61,26.43-2.43,37.39-5.29,1.64-.43,3.22-1.8,5.52-1.41.96,2.32-.3,1.45-1.49,2.38-1.8,1.4-3.58,2.45-5.74,3.5-.74.36-2.08-.35-2.77,1.33-1.41,8.71,4.92,9.99,11.63,6.61,2.53-1.27,5.11-2.33,7.71-3.6.41-.2.44-.95.73-.96,2.6-.11,4.93,1.43,4.35,4.33-.1.51-1.04.12-1.4.41-.81.67-2.08,2.58-3.07,3.36-4.47,3.51-10.46,7.29-15.29,10.7-.74.52-3.31,1.43-3.56,1.69-.49.53-.23,1.35-.41,1.49-.31.26-1.24-.08-1.85.22-.75.38-2.99,3.15-4.23,3.83-4.26,2.34-8.57,7.22-12.89,10.13-8.59,5.79-17.93,10.03-26.74,15.4-1.69,1.03-1.09,1.34.59,2.1,11.18,5.08,15.81,1.56,26.54-2.12,6.33-2.17,10.82-3.48,16.25-6.96,3.56-2.28,6.31-4.77,10.27-6.68,3.06-1.47,4.66-1.42,3.04,2.53-.54,1.33-3.33,3.64-4.65,4.33l-.14.66c1.24,6.64,8.18,2.35,11.66.07,5.25-3.44,11.93-8.18,16.66-11.96.47-.38.5-1.72,1.77-1.72,4.42-.02-2.62,5.69-2.84,6.03-5.92,9.02-11.63,17.57-18.04,26.54-4.7,6.57-8.19,12.43-12.55,19.27-10.5,16.46-25.22,36.29-42.38,45.46-1.18.63-2.8,1.01-3.9,1.73-.49.32-.93-.06-.66,1.14,4.73,2.82,9.12,1.42,13.98-.05,4.9-1.48,11.02-4.57,15.41-8.15,13.42-10.95,27.23-29.02,36.79-42.95,1.37-2,2.62-4.65,4.31-6.53,1.45-.8,2.15.22,1.92,1.71l-1.02-.52c-.36,1.58-.57,3.77-1.08,5.25-1.07,3.11-4.31,8.64-6.46,11.58-1.14,1.56-3.27,3.65-4.74,4.97,1.6,2.46.57,7.15,4.55,5.66,1.1-.41,7.94-5.56,8.55-6.59,1.39-2.32,1.43-2.78,3.14-5.1,5.39-7.28,6.61-11.67,10.48-19.57,1.22-2.49,3.02-4.66,4.04-7.26-1.19-.05-3.32-1.22-4.38-1.08-.68.09-2.14,2.06-3.19,2.27-.97.19-2.16-.6-3.22-.42-.29-.23,2.61-5.24,3.06-5.82,1.35-1.75,3.25-3.75,4.62-5.9,2.86-4.49,5.99-8.86,9.55-12.9,1.1-1.25,4.81-5.65,6.16-5.69l1.11.78c.3.54-3.23,6.02-3.95,7.06-.44.64-2.73,2.65-3.07,3.37-1.05,2.25.61,6.45,3.5,5.94,2.03-.36,3.61-5.08,6.24-4.3.18,2.92-1.56,5.44-2.4,8.13-2.59,8.33-5.38,16.71-8.45,24.84-2.94,7.81-5.76,17.15-8.5,25.5-3.24,9.88-6.72,20.68-9.9,29.75-4.42,12.61-11.91,30.57-18.73,42.12-.47.8-3.53,2.85-2.66,4.25,1.04,1.68,6.03-.11,7.31-1.22,15.44-13.32,21.58-33.11,29.29-51.18,1.87-4.38,4.13-8.1,5.96-12.96,2.91-7.69,4.88-15.62,7.49-23.34.77-2.27,3.51-10.71,4.7-12.24.25-.32.59-.77,1.01-.77,1.56,1.23-1.37,16.25-1.85,19.02.78,3.29,3.73,4.91,6.2,2.01,4.87-8.96,6.77-18.54,9.14-27.83.31-1.21,1.27-2.92,1.63-4.5s1.4-8.61.93-9.63c-1.55-3.41-4.8,1.59-6.46,1.39l-3.81-1.14c-1.26-1.06.95-8.6,1.56-10.26.48-1.28,1.9-4.31,3.27-4.45,3.35,1.47-.94,8.35-.11,9.71.35.57,2.5,1.11,3.03.89,2.64-1.1,3.14-6.57,3.82-8.92.21-.73.92-.67,1.01-.98.35-1.25-.38-5.86,1.65-5.91l-.25-1.02c-5.04.81-8.26-6.37-3.06-8.21l.24-1.03c-1.75.08-2.07-2.33-3.08-2.86-1.23-.65-3.68,1.02-5.35.8-.32-.04-5.38-2.77-5.66-3.11-2.32-2.88,2.26-5.9-3.16-6.6-7.14-.92-13.17,1.22-11.51-9.29-.47-.48-5.32-.46-6.27-.62-.69-.12-6.18-2.71-6.9-3.18-.2-.13-3.35-3.24-3.48-3.44-2.63-3.98,2.09-7.53,1.53-9.73-.54-2.1-2.9-1.33-4.7-2-1.98-.73-2.81-2.95-4.7-3.23-1.18-2.77-1.1-5.55-1.06-8.49,1.36-.28,1.19-1.59,1.79-2.22.7-.73,2.68-.86,2.76-2.51,4.7,1.13-.84,5.59-1.07,7.97-.16,1.71,2.37,4.74,3.83,5.43,2.27,1.07,8.29-1.56,9.99,3.36.16.86-1.79,1.32-2.44,2.55-.77,1.46-.31,2.29-.6,3.43-.11.42-.93.34-1.01.7-.07.32.46,3.6.61,3.7.24.16,1.02-.05,1.28.2.43.43,2.78,3.43,3.09,3.48,3.28-.21,7.02-1.41,10.22-1.57,4.84-.24,1.63,6.12,1.76,8.95,1.07.35,2.5,3.5,3.19,3.79,3.18,1.31,7.56-6.53,11.19-4.78.77.44-.67,2.68-.84,3.7-.28,1.74,1.15,5.38,1.99,6.96,2.24,4.18,3.33,2.03,7.17,3.11,1.46.41,4.51,2.34,5.79,2.22,1.8-.17,5.29-4.33,7.37-4.49v-1.91c-2.01-1.19-4.78-.11-6.75-.69-.24-.07-3.64-2.96-3.92-3.28-1.45-1.67-2.13-4.3-2.36-6.46,1.19-2.02,3.36-4.58,5.66-2.49.63-2.81,4.11.65,4.34.5-.21-1.19,1.1-.76,1.56-1.38.52-.69.72-2.77,1.56-3.46.89-.73,2.34-.45,3.17-.81.63-.28.83-1.57,1.93-1.54.33-.81-.1-.74-.3-1.02-1.08-1.47-7.02-1.65-9.2-1.89-6.42-.7-12.97-1.02-19.19-3.54-2.92-1.19-8.16-4.07-10.35-6.24-3.57-3.53-7.81-8.4-10.45-13.54-2.94-5.73-5.75-22.21-4.41-28.37.08-.38.81-.29.9-.6.58-2.07-.01-4.53,1.42-7.43.28-.57,1.53-2.91,1.78-3.26.42-.59,1.14-.19,1.57-.69,1.71-1.99,1.65-3.15,4.2-4.97,2.1-1.5,4-1.98,5.54-4.18.62-.88,5.4-10.79,5.49-11.41.05-.32-1.01-6.02-1.16-6.3-.77-1.38-2.64-2.29-3.64-3.3ZM208.74,23.33c-.58-.26-7.59-2.16-9.06-2.55-7.29-1.94-14.57-2.29-21.93-3.29-4.09-.07-6.99,1.81-10.52,3.39,1.87,3.53,3.74,7.12,5.69,10.63.48.87,2.04,1.34,1.53,3.47l1.26-.03c.08,2.89,1.88,2.4,2.71,3.24,1.27,1.28,2.86,3.56,4.61,5.01,1.22,1,4.19,2.46,5.26,3.37.7.6.44,1.69.52,1.78.2.21,1.59-.6,2.23-.54.3.03.34.77.76.99,1.02.55,3.41,1.28,4.05,1.76.19.14,3.01,3.36,3.12,3.57.17.34-.11,2.18.04,2.83-.58.19-1.32.92-1.81.99-.44.06-5.14-1.78-5.64-2.09-1-.63-1.56-2.43-2.09-2.92-3.34-3.1-8.1-5.3-11.64-8.8-3.11-3.07-8.24-9.05-10.56-12.67-2.51-3.91-1.85-7.2-7.81-8.02-2.2-.3-2.36.75-3.77,1.05-.77.17-1.61-.38-2.8-.06-4.15,1.1-6.83,2.07-7.91,6.53-.65,2.69.11,2.49,1.21,4.52.93-1.14,2.83-1.95,2.56-3.59l1.54,1.03.27-1.55c5.55-.12,9.26,1.66,13.62,4.81,4.58,3.31,8.49,7.08,12.46,11.49,2.65,2.95,9.11,6.2,12.29,8.88,1.66,1.39,2.9,3.03,3.99,4.89l-1.79,1.31c-5.39.76-6.45-.89-10.74-2.18-5.85-1.76-16.55-1.78-22.21-1.64-1.97.05-4.21-1.37-5.82.17l-.3-1.03c-3.35,1.35-5.44-.71-8.44-1.01.92,3.17,1.93,2.65,4.23,3.63.37.16.35.88.76.97,3.46.79,8.39-.58,9.54-.39.54.09,1.04.91,2.13.95,9.19.3,13.42-.25,20.5,5.95,1.09.96,3.11,1.24,3.49,3.71l.95-.45c1.87,3.91,1.33,7.9-.03,11.96-.16.48-.95.37-.94.6.03.51.57,1.14.48,2.06-.29,3.07-5.16,11.44-7.5,13.62-.96.89-7.85,3.73-9.22,3.89-1.44.17-10.96-2.31-11.56-1.81,2.01,5.89,7.54,4.5,12.14,6.08.77.26.92,1.55,2.24,1.12.26.26-2.21,5.22-2.64,5.85-2.61,3.84-8.25,10.77-12.18,13.08-2.68,1.58-5.95,2.43-8.56,4.18l-.55-1.02h-2.26s.01,1.52.01,1.52c2.1-.07,1.58,1.62,4.07,2.35,4,1.18,9.24.49,12.82-1.61,2.71-1.6,4.47-4.1,6.2-6.1,1.48-1.71,2.35-3.64,5.14-2.59-2.22,3.76-4.44,8.33-7.76,11.22-.71.61-2.83,1.26-3.37,2.04-.45.65-.27,1.72-.8,2.29s-3.63,1.78-4.62,2.68c-1.23,1.12-2.17,3.35-3.68,4.43-1.81,1.29-4.8,2.61-7.03,4.03-.62.4-2.53.04-2.51,1.57,0,.71,1.31.35,1.42.42.26.18.25,1.01.96,1.28,2.41.91,3.32-.26,5.03-.45,7.16-.77,10.93-1.85,16.99-6.13,2.01-1.42,6.76-11.33,8-13.99.16-.35.7-.43.75-.54.44-1.01,2.06-9.9,4.34-8.07-.33,1.75.77,4.42.52,6.33-.04.34-.81.3-.98.76-1.86,4.98-3.51,10.42-5.45,15.27-.39.97-3.01,7.28-3.31,7.59-.54.57-2.45,1.08-3.12.64-1.38-.92,1.18-3.43-.75-3.36-.75.91-2.48,2.59-3.45,3.21-5.19,3.35-10.1,2.91-10.69,10.41-.44,5.55.44,11.51,2.02,16.05,1.28,3.66.53,6.7,5.46,6.34.84-.06,1-1.81,2.8-1.08-.36,1.36-.42,3.69.48,4.82.4.51,1.27.07,1.59.65.49.87.5,2.36-.01,3.25.9.22,1.03-.31,1.53-.78.52-.49,2.97-2.81,3.12-3.04.74-1.1,1.98-7.26,3.3-6.96,4.02,2.67,1.71,6.79,3.14,10.73.3.84,3.37,5.88,3.98,6.55.23.25,2.03,1.58,2.22,1.63,2.83.63,5.59-9.17,6.85-7.6-.76,2.53.85,2.37,1.42,3.44.54.99,2.57,5.2,2.56,5.98,0,1.03-2.13,9.44-2.58,9.96-2.92,3.38-5.72-8.07-6.56-8.82-.49-.43-1.74-.56-2.29-1.22-2.88,3.72-6.67,3.77-8.29-1.03-.56-1.67-.59-3.49-1.12-5.03-.26-.76-1.55-.93-1.12-2.25-1.59-.23-1.58,1.75-2.33,2.55-.93,1-3.46,1.74-4.08,3.61-.62-.37-1.04-.57-1.5-1.17-.61-.8-1.08-3.08-1.47-3.83-.23-.43-1.79-.34-.89-1.67h-2.05c-.06,5.76-.43,11.28.51,16.95l4.37-2.04c1.5,1.9,2.39,10.71,6.26,7.02.7-.66,1.03-1.92,1.25-2.84,2.77-.82,3.41,1.42,4.31,3.53.36.83.49,2.3,1.33,3.77,1.17,2.02,4.67,5.5,5.33,7.04.25.59-.27,1.32-.16,1.45l.92.57c-2.09-.43-1.41.92-2.02,1.69-.36.46-1.11.55-1.28.86-.34.58.27,2.69-1.58,2.57-.3-.02-2.76-4.51-2.99-5.24-.32-1.02-.26-2.65-.58-3.99-.4-1.69-1.56-2.4-1.01-4.64l-2.02-.52-1.69,2.02-2.75-.97c-.94,1.98-.02,3.31.25,4.88.1.55-.38,1.29-.27,1.95.03.2,1.44,2.41,1.92,3.44.52,1.1,2.34,1.92,1.22,3.37-1.65,2.14-2.6.49-3.78.39-1.76-.14-5.55-.11-7.23.03-3.12.26-6.11,1.26-9.24,1.44l-.86,1.44,3.08,1.82c.16.64-.61,1.19-1.05,1.51-1.98,1.46-6.96,4.02-9.33,5.05-4.45,1.95-9.65,3.39-14.3,4.71-.83.57-1.94,7.14-1.89,8.35.03.7.7,1.18.73,1.57.08,1.4-.31,4.77-.82,6.02-1.39,3.4-5.4,6.26-6.22,10.02-3.39-2.19-6.23,1.49-9.75,1.03.19,3.36,4.56,4.1,7.42,3.56.44-.08,4.69-1.19,4.93-1.29.92-.39,1.2-2.27,2.8-1.25l-.25-1.03c.84-.63,3.07,1.91,2.06,3.69-.36.63-1.35.84-1.98,1.77-1.76,2.63-6.09,13.98-6.64,17-.45,2.46-.19,5.76-.63,8.36l2.81-1.54c.83-2.52,4.06-4.1,3.87-6.68l.92.4c1.38-.95,1.74-3.02,2.34-3.82,1.91-2.51,5.28-5.04,5.47-8.58,1.73-1.39,2.44,1.59,2.46,3.02.02,2.05-1.24,2.19-1.4,2.7-.91,2.93-1.08,7.61-.53,10.63.12.67,2.84,6.17,3.57,5.41v-9.97c2.3-1.01.83-1.46,1.06-2.58.16-.81.91-4.68,1.08-4.86.12-.14.9.05,1.27-.22,2.18-1.6,2.96-5.26,4.48-7.63.79-1.23,2.1-1.83,2.65-3.5,1.1,1.02.65,2.44,1.35,3.78.32.62,3.51,4.28,4.04,3.91.31-1.32,1.36-2.17,2.02-3.38.42-.77,1.99-4.71,1.83-5.42-.17-.72-1.13-1.55-1.43-2.6-1.05-3.68,3.1-5.53,3.26-9.14h1.53c-.41,2.42.53,4.26,2.85,5.16,2.28.25,5.35-6.23,4.31-8.48l-2.88-7.82c-.02-1.04.7-2.94,1.71-3.2,2.29-.59,4,7,7.3,4.51.25-.28-.06-6.42-.18-7.59-.15-1.4-1.7-3.37.74-4.95,1.62-1.05,2.39,2.57,2.89,3.32,2.36,3.55,2.96,6.25,4.64,10.24.84,1.99,1.87,4.31,3.12,5.97-1.12,1.56-1.64,3.61-2.4,5.16-.67,1.36-1.89,2.06-2.46,3.71-.91,2.65-1.44,10.53-1.67,13.74-.13,1.73.48,7.98-.51,8.73l-1.03-.26c.11,1.19.84,2.52.52,3.75-.13.49-1.13.58-1.49,1.18-2.59,4.37-1.78,6.94-2.16,11.2-.6,6.67-1.4,6.37-4.12,11.7-1.01,1.97-.57,1.53-1.1,3.63-.88,3.5-2.37,4.17-5.57,5.73-1.59.77-6.99,1.27-4.33,3.74l8.77-.82c.66-1.98,2.31-2.72,3.32-3.9,2.39-2.81,4.5-5.95,6.13-8.88.33-.59.2-1.52.68-2.04.12-.13,2.97-1.57,3.23-1.65,1.33-.4.77,2.95.64,3.72-.5,2.83-2.15,4.68-2.91,6.45-1.34,3.11-1.76,5.4-4.21,8.01-.67.72-2.06.98-2.54,1.7-.59.89-.57,2.46-1.05,3.33-5.13,9.15-11.1,17.68-18.95,24.82-.68.62-4.51,4.04-4.78,4.21-.9.59-3.36.32-4.48.92-.8.43-.82,1.66-1.39,1.8-1.41.35-6.31.04-8.12-.04-2.53-.12-4.34-1.42-6.83-.38-1.37,10.3,9.44,6.33,15.52,7.14,1.27.17,2.8.46,2.88,2h.5c-.23-1.82,1.03-.57,2.06-.84,9.25-2.45,11.43-14.27,17.86-17.1,2.04-.9,4.09.27,4.76-2.86l-1-.93c1.2-2.76,1.28-6.12,2.8-8.53,1.42-2.26,3.95-3.59,5.57-5.73,3.74-4.94,5.04-10.92,7.44-16.32.6-1.36,1.35-4.74,2.89-4.72,2.99.91,1.19,3.31-.77,4.39-.42.92,2.15.72.54,2.5-.54.6-1.47.22-1.57.32-.22.23.43,1.64.36,2.24-.09.78-.91,1.88-1.16,2.87-.39,1.51.14,4.13-1.77,4.14v.5c2.97.5-1.75,5.41-2.44,7.07-5.39,13.05-10.35,21.4-17.65,33.07-2.8,4.48-4.16,8.32-4.85,13.81-.58,4.61,1.06,7.52,1.14,11.83.07,3.44-1.13,10.49-.35,13.5.14.53,1.01.12,1.04.59l-1.05,1.48c1.31,1.67,1.04,8.81,3.96,5.53,1.42-1.6.27-2.58,2.27-3.49-1.1-2.03.25-1.7.29-1.82.93-3.67.29-7.56.84-11.33.21-1.45.2-2.24,1.9-1.93l-1.54-.51.55-1.77-1.02-.49c1.64-5.47.91-11.28,3.02-16.46,1.78-4.38,5.6-7.75,7.24-11.29,3.89-8.41,5.97-18.07,10.08-26.48.86-1.75,3.73-5.33,4.19-7.07.32-1.23-.3-1.82-.31-2.56-.03-1.95,3.69-.41,3.88.7-.99,3.74-.59,7.94-1.45,11.64-.25,1.08-.41-.48-.45,2.66-.1,7.72-.32,15.54-1.07,23.14-.54,5.54-2.57,11.02-3.07,16.45-1.31,14.32-.28,20.05,8.65,30.87,1.23,1.5,1.47,3.77,4.66,1.44s6.48-12.51,6.64-16.46c.13-3.16-1.5-6.33-.49-9.22l-.98-.52c-1.5-21.28-3.19-43.13-3.44-64.56-.03-2.48.56-9.4.92-11.98.08-.56.13-.88.7-1.14l1.8.45c-.86,1.2.33,1.84.5,2.83,2.16,12.27,2.58,25.15,6.88,36.29.58,1.5.59,4.38,1.53,5.9,4.19,6.79,8.09,12.5,11.64,19.54,4.55,9.02,1.26,17.41,3.02,27.14.45,2.51,1.65,7.36,4.7,7.41-2.23-7.73.84-15.03.53-22.88-.33-8.44-1.93-16.37-6-23.79-1.52-2.76-1.21-1.53-2.36-4.82-1.55-4.46-4.7-5.8-7.29-9.67-1.91-2.86-3.74-6.88-4.35-10.03-1.42-7.24-1.08-17.16-2.64-23.48-.11-.44-.92-.14-1.05-1.09-.45-3.3.71-13.6,5.95-9.55,1.2-.96.13-2.46,1.8-2.81.05-.36-1-.24-1.45-1.12-.99-1.97-2.4-7.25-2.84-9.53-.5-2.64-.29-5.64-.85-8.3l1.02-.56c-1.71-2.19-2.56.98-4.31.79-3.22-2.74-.75-3.35-.34-5.96.3-1.87-.29-3.94.54-5.87-2.77-.43-2.69,3-5.58,1.98-1.57-2.02.43-4.25.31-5.76-.05-.59-.7-3.25-1.42-3.21l.09-1.43c2.96-1.68,2.16-3.96,2.81-6.55.48-1.92,1.05-5.08,1.54-6.63.48-1.51,3.27-4.24,4.08-6.68.72-2.17.55-6.14,1.09-8.2,1.53-5.86,3.06-6.16,2.46-13.32-.08-.93-.84-5.52-1.11-6.07-.35-.72-2.92-1.55-3.61-2.59-4.21-.94-4.08,6.63-5.78,9.29-.47.73-2.4,2.01-2.84,3.44-3.26-1.38-2.27-6.43-2.93-7.59-.43-.76-7.14-3.17-7.6-2.67.62,1.8-.66,3.56-.79,4.86-.11,1.06,1.26,4.95-1.01,4.92-2.94-.81-1.93-3.18-2.54-5.19-.25-.84-1.23-1.58-1.57-2.54-1.09-3.1-1.29-6.05-3.36-9.02-.16-1.02,1.21-1,1.47-1.37.17-.23.23-5.36,2.36-4.47,1.14.47,1.5,3.03,2.14,4.02,2.15,3.29,5.4,5.23,8.7,7.21,1.43-1.14,1.71-3.05,2.48-4.43,1.5-2.7,2.43-4.6,3.21-7.86.17-.73-.35-1.49-.3-1.55,1.79-1.93,5.28,5.13,4.62,6.67l3.09.51-.4-.93c3.02-2.46,3.75-7.3,5.58-11,.21-.42.98-.41,1.01-.73.11-1.36-1.53-2.05,1-3.01-.33-.73-2.86-1.21-3.58-2.07s-.41-1.86-1.27-2.84c-.49-.56-4.91-4.02-5.41-3.57.5,1.4-1.93,3.65-2.01,3.94s.32.96.12,1.59c-.24.78-3.27,2.73-1.72,5.23l-1.72.57c-2.43-2.64-4.77-5.26-5.4-8.96.09-.35,2.99-2.57,3.54-3.26,1.18-1.47,2.21-5.06,3.38-6.25.56-.57,1.18-.99,1.99-1.09.61,2.37,4.68,6.74,6.97,7.45.96.3.35,0,.5-.75l.76,1.02c1.28-1.29.76-3.15,1.41-4.72s2.05-2.07,2.44-3.26c.13-.39.42-4.73.37-5.04-.13-.74-1.24-1.41-1.31-2.21-.1-1.2,1.66-3.02,2.94-2.17.23.15,1.99,4.75.57,5.06,2.87.5,2.05,6.87,5.85,4.57,2.71-1.64,2.24-6.7,2.84-9.44.42-1.93,1.86-3.71,1.59-5.91l2.56.55v3.04c1.38.21,1.33-.86,1.64-1.74,1.19-3.41-.22-7.9-.88-11.09-.38-1.83.31-5.86-2.82-4.86.04,1.35.1,2.88-.45,4.15-1.04,2.38-4.4,5.59-6.15,7.71-.57.69-.72,1.9-1.39,2.72-1.52,1.82-4.53,2.34-4.83-.77-.21-2.13-.02-2.5.34-4.66.47-2.89-1.26-2.44-1.74-2.86-.22-.2-2.69-3.67-3.56-4.69-.82-.95-.84-3.34-3.26-2.9-.29.81-.26,1.95-.57,2.68-.39.94-1.88,2.88-2.34,3.66-.72,1.23-1.36,2.54-2.13,3.75,1.03,2.72,3.15,7.17,2.3,10.12-.26.91-1.28,1.17-1.64,1.9-.21.42.49,2.71-1.03,1.52-.35-.82-.2-1.76-.49-2.58-1.42-3.97-1.56-7.9-3.23-11.67-.65-1.47-1.94-1.62-2.52-2.36-.54-.69-.73-2.17-1.27-2.99-1.26-1.93-2.32-.65-1.99-4.29.07-.75-.41-1.5.77-1.28,1.95.36,3.12,5.03,5.21,5.59,1.24.41.59-2.37,2.24-1.99l-1.02-1.01c1.17.14,1.25-.99,1.38-1.94,1-7.34,1.41-20.85.61-28.07-.43-3.96-2.89-10.05-2.96-13.44,0-.14,1.71-.52.97-2.28,5.53,2.97,4.54,7.86,5.16,13.07.69,5.8.64,12.47,1.68,17.94,1.22,6.42,2.63,8.27,6.82,12.61.59.61.53,1.52,1.1,2.12.97,1.03,3.34,1.76,4.77,1.52.45-1.89.11-3.92.22-5.68.4-6.09-.54-6.08-1.47-11.56-.34-1.97-1.52-13.47-1.29-14.84.2-1.2,1.38-1.88,1.02-3.62l-1.58-.59-.9-11.68.71-.78,1.74-.05c.82.77.41,11.87.82,13.92.8,4.04,2.78,7.66,4.73,11.1.43.76.33,1.9.6,2.39.33.59,1.29.16,1.49.38.28.31-.13,1.33.18,1.88.53.95,4.24,3.46,5.16,4.24,2.59,2.23,5.26,4.41,7.84,6.66l2.33-2.32c-1.12-1.99-.79-4.07-1.94-6.27-3.51-6.73-7.48-13.28-10.62-20.49-.99-2.29-3.74-8.46-4.2-10.94-.79-4.22-.27-6.32-2.23-10.23-.61-1.22-.24-1.79-1.93-3.08-2.55-1.94-4.27-1.94-5.97-4.83-3.83-6.49-5.03-16.31-3.99-23.78.16-1.12.94-1.81,1.01-2.58.17-1.73-.03-8.67,1.16-9.36,1.23-.7,2.52.07,2.44,1.62-.4,7.82-.63,12.45.4,20.25.21,1.62,1.83,3.6.66,5.75l1.45.08c.38,4.62,5.5,7.88,9.59,8.69,3.52-.49-1.07-6.46-1.64-7.63-.64-1.32-2.14-3.61-2.41-4.2-3.95-8.83-3.55-20.51-2.23-28.89.1-.64.34-1.26.43-1.91l2.28.43c.11,3.86-.88,7.18.27,11.05.44,1.48,3.81,7.55,5.61,5.94l-3.6-16.16c.13-.97.64-.61,1.27-.26,1.71.97,3.69,2.13,5.67,2.57.78.17.88-.04.78-.78-.2-1.49-4.03-5.89-4.89-7.97-.86-2.07-.6-3.77-1.02-5.65-.28-1.25-1.24-5.86-1.6-6.62-1.19-2.53-5-5.17-6.43-6.98-.36-.46.07-1.2-.02-1.24-.82-.48-1.62.51-1.98-2.08,2.06-1.24,5.49-.48,6.23-3.07l1.46.48-.77-2.04c-1.7,2.22-1.48.97-3.1.53-5.55-1.5-11.05-2.92-15.74-5.02ZM237.45,123.59c-.88-.39-1.76-.6-2.68-1.27-1.95-.06,5.49,10.55,5.17,11.78l7.92,3.12c-.22-.67-.01-1.64-.19-2.21-.63-2.02-2.22-4.01-2.86-5.38-.17-.36.1-1.08-.15-1.52-.16-.28-4.74-3.5-5.25-3.78-.32-.17-1.29-.43-1.96-.73ZM265.77,135.77c-.9-1.54-3.9-.61-5.22.01l-2.41,2.98c1.46-.02,3.84,1.06,5.16.72,1.09-.29,3.15-2.54,2.47-3.71ZM255.57,163.43c.47.9,1.57,3.81,2.82,3.59,1.07-.19.4-1.34.34-1.84-.25-2-.46-3.71-2.63-4.32l-.56,1.75,1.07.81h-1.02ZM262.07,179.01c-.57-.53-2.79-1.79-3.44-1.48-.8.65-1.54,2.68-1.47,3.64s.95,1.42,1.2,2.24c.32,1.06-.51,2.6.05,3.62.17.3,2.05,1.63,2.5,2.12.74.8.6,2.43,2.1,2.33,2.02-.14,2.78-4.11,2.64-5.81-.12-1.44-2.55-5.7-3.58-6.65ZM224.75,204.52c-.94-.32-1.98,1.54-2.25,2.1-1.11,2.3-1.14,2.88-2.56,5.13-1.77,2.79-.11,6.95,2,9.2,3.43-5.05,3.43-10.52,2.82-16.43ZM250.26,242.7c-.73-.57-8.46-4.1-9.36-4.25-2.98-.51-6.44.75-9.22-1.06l-6.06,3.71c-.98,3.48-1.66,7.03-1.38,10.67l-1.02-.52c.58,2.4-1.52,10.29,3.05,8.45,3.17-1.27,3.25-5.99,3.61-6.16,4.36.34,1.56,2.62,1.15,4.76-.18.94-.6,5.86-.11,6.3l1.78-1.02,2.18,2.29c-.04.76-1.96,3.37-1.95,3.58.02,1.77,1.4,6.73,3.79,5.86,1.02-.37,3.49-5.39,4.68-.67,1.22,4.81-6.11,10.96-.4,15.09,3.43.11,2.92-4.14,4.65-6.5.34-.47.01-.91,1.18-.64l.22,12.34,2.85,1.01c-.39-1.56,1.2-1.75,1.54-2.45.96-2.01.65-5.35,1.21-7.16.23-.76,2.76-1.89,3.49-.86,1.83,2.6,2.36,16.97,2.83,20.8.22,1.79,1.48,4.57,1.63,6.39.09,1-.58,7.06-.91,7.61-.35.58-4.55,1.6-2.25,3.97.46.08,3.33-.84,3.67-1.17.37-.37.31-1.21.6-1.55,7.65-8.82,1.81-14.69,2.18-24.27.04-1.01.49-4.95.88-5.56,2.01-3.17,3.66,2.93,4.47,4.22.9,1.44,2.35,3.15,3.26,4.41.71.98,1.48,1.96,2.33,2.83,1.29,0,1.22-5.6,1.11-6.54-.41-3.34-2.82-6.05-2.39-9.37l5.4,4.1c.85.13.83.03.78-.77-.04-.65-1.35-4.95-1.66-5.54-.57-1.1-1.48-1.09-1.97-1.76-3.55-4.85-1.7-10.5-2.57-15.78-.81-4.91-2.13-7.6-5.35-11.1-.47-.51-.49-1.47-.94-1.88-.67-.62-6.41-3.16-7.54-3.5-1.16-.35-3.02-.02-3.53-.32-.35-.21-.86-2.65-1.3-3.34-.18-.28-4.35-4.42-4.61-4.62ZM229.56,358.95c-2.4-3.75-3.3-10.49-6.87-15.48-.69-.97-3.05-3.2-2.54-.55.16.86.76,1.51.89,2.2,1.47,7.6,1.73,9.39,5.3,16.16,2.18,4.12,6.89,13.46,10.62,16.34,1.33,1.03,3.36,1.7,4.48,2.57,2.58,2.03,7.29,8.32,10.82,6.2,4.1-2.46-2.43-7.21-4.31-8.63-1.24-.94-2.28-1.71-3.55-2.73-.72-.58-2.53-1-2.61-1.11-.28-.36.1-1.32-.19-1.84-.12-.22-3.09-2.03-4.03-2.93-1.39-1.34-6.94-8.55-8.01-10.21Z"/>
        <path d="M191.19,153.52c-.75,3.46-2.99,8.22-2.37,12.7.54,3.96,1.08,8.56.77,12.77-.13,1.74-.47,6.26-2.6,6.04-2.41-.25-.52-6.98-.44-8.8.03-.76-.14-5.4-.33-5.61-1.99-.16-1.52,2.45-2.21,3.44-1.34,1.92-6.99,4.22-9.34,4.78-1.7.06,2.47-9.2,2.84-9.87.22-.39,2.49-2.61,2.51-2.8.18-1.66,2.12-8.59,3.01-10.31,1.64-3.18,2.15-3.09,3.43-6.84,1.71-5,3.87-10.37,5.3-15.25.12-.4.8-6.98.9-8.09.12-1.28-1.31-3.99,1-4.38,1.73.36,1.53,7.01,1.32,8.5-1.08,7.68-2.13,16.02-3.79,23.72Z"/>
        <path d="M187.1,25.41c.31.12,2.36,1.88,2.53,1.9.69.09,1.62-.54,2.49-.54.72,0,4.02,1.34,4.27,1.63.19.22.46,3.28,2.42,3.52.7-1.42,2.65-1.76,4.04-2.65.6-.39.72-1.34,1.2-1.47.52-.14,5.52-.12,5.74.07.12.1.58,2.27.49,2.66-.46,2.02-8.45,7.21-10.89,6.98l-1.65-2.54c-1.79-.26-2.71,1.89-2.88,1.95-.81.3-3.13-.64-4.02-.9-1.82,1.65,6.93,3.13,7.41,3.1.32-.02.23-.89.54-.96.57-.13,2.77.78,3.79,0l.91,1.72c-.95,2.71-2.11,1.78-3.97,2.11-3.16.55-5.39,1.39-8.8.16-.31-.11-.31-.72-.79-.95s-1.44.07-2.18-.28c-.28-.14-3.76-4.26-4.05-4.8-.95-1.81-1.48-4.41-2.15-6.38-.13-.37-.95-.36-1-.74-.09-.75.68-1.77.03-2.7,2.1-.63,4.22-1.74,6.5-.89Z"/>
        <path d="M211.23,103.49c.9,1.34,1.57,2.85,2.73,4.2.66.77,4.19,3.28,4.09,4.11-2.99,3.27-4.77-.8-6.87-1.82-1.22-.6-3.35-.53-3.9-1.22-5.41-6.74-3.74-11.28-3.09-19.05.43-5.06.46-9.42,1.07-14.34.09-.75,1.22-4.41,1.75-4.4,1.51,1.66,1.72,3.76,1.83,5.89.38,7.61-3.33,18.87.77,25.42.47.75,1.33.81,1.61,1.21Z"/>
        <path d="M195.08,95.71c-.14.24-1.34,4.51-1.43,5.01-.19,1.05-.19,2.84-.7,3.9-1.24,2.57-3.29,5.34-5.92,6.44l-2.67-4.4,2.9-5.53c3.34-4.31,6.41-11.53,7.58-17.2.18-.86-.02-4.75.21-5.49.22-.68,1.18-.65,1.34-.89.11-.17-.83-1.76.61-1.97.91,2.24,2.28,4.94,2.09,7.44-.13,1.77-1.29,2.32-1.47,3.21-.95,4.56.11,4.81-2.55,9.48Z"/>
        <path d="M172.73,166.35c-.1.24-1.44,2.74-1.72,3.2-1.31,2.14-5.74,4.56-8.15,5.07-1.68.36-4.38-.1-3.76-2.38,1.13-1.57,4.18-2.21,5.19-3.14,1.92-1.78.82-1.84,4.29-3.81.31-.18.4-1.06,1.01-1.27,1.77-.62,4.02.31,3.14,2.33Z"/>
      </g>
      <g>
        <g>
          <path d="M86.57,70.97c-5.87,5.66-4.42,13.78,5.14,12.33-.41,1.85-1.39,3.87-3.45,3.97-.92.05-5.17-.74-5.78-1.16-.68-.47-3.27-4.85-3.31-5.81-.03-.73.82-5.91,1.04-6.26,1.08-1.74,3.61-2.29,4.63-3.6l1.73.54Z"/>
          <path d="M96.32,32.97c.08.09-.44,1.5-.02,1.99l-6.63,2.13c.7,1.78-1.35,2.89.46,4.88.79.87,4.53,1.21,5.81,1.12,1.17-.08,3.19-1.89,3.23.15-.26,1.84-4.78,2.75-6.44,2.03l-.26,1.55c-2.5-.77-6.67-2.25-6.78-5.3-.2-5.26,3.89-6,7.7-7.66.71-.31,1.96-2.06,2.93-.89Z"/>
          <path d="M87.27,55.22c-3.6,4.28-2.13,7.26,3.4,5.98,1.59,3.75-5.86,5.87-7.23,3.76-.16-.25-1.9-3.91-1.94-4.14-.31-1.56,1.06-2.39.5-3.9,1.71-1.86,4.11-6.38,6.62-3.17.2.93-.96,1-1.35,1.46Z"/>
          <path d="M88.48,136.33c.72.72.57,1.39.2,2.19-.18.4-4.65,5.12-5.25,5.59-1.5,1.18-3.65,1.68-4.94,2.51-.68.44-2.07,3.79-4.31,1.18-1.81-2.12,2.01-2.72,3.52-3.73,2.98-1.99,5.59-4.68,8.35-7.11.51-.45.61-2.42,2.41-.62Z"/>
          <path d="M128.09,185.08c.31.49-.08,1.48.1,2.1.12.42.79.41.97.79,1.37,2.87-1.46,5.6-4.31,5.76-1.18-.79-.41-.89-.35-1.38.3-2.51,2.02-5.26,2.14-7.87.33.2,1.41.53,1.45.6Z"/>
        </g>
        <g>
          <path d="M303.17,31.59l4.31,2.74c1.1,3.15,1.99,5.54.71,8.86-.29.74-3.28,3.2-2.79,3.62,1.99-.45,1.36,1.02,2.28,2.08.71.81,4.19,3.37,4.34,3.67.21.4-.49,1.02-.34,1.36.61,1.4.61.95,1.02,3.32.1.6.79,1.22.82,1.74.01.2-1.44,3.5-1.58,3.63-.7.65-3.9,1.88-4.95,1.91-1.71.04-1.72-1.32-3.14-2.08l2.91-5.18c.17-3.88-.48-5.36-3.54-7.38-1.72-1.13-1.36-.42-2.28-.88-1.14-.57-8.02-3.94-8.29-4.33-.08-.12.42-.7.32-.84-.17-.23-.94-.25-1.17-.6-.61-.91-.17-2.5-.26-3.61,3.5,1.82,6.1,2.43,9.79.77.95-3.9-2.35-6.57-3.11-10.02l4.96,1.21Z"/>
          <path d="M308.15,136.52c.6.44,2.38,2.04,2.52,2.11,1.08.54,2.32-.7,1.92,1.68,1.51-.87,4.86,2.38,5.84,3.64,4.02,5.17,2.37,6.65-3.79,5.6l1.02-1.02c-.42-.03-1.09.11-1.39-.13-1.79-1.44-4.34-5.99-5.98-7.91-1.51-1.77-5.25-3.83-5.64-6.45-.1-.7-.59-.73.42-1.43,2.11.82,3.57,2.81,5.07,3.91Z"/>
        </g>
      </g>
    </g>
  </g>
</svg>